<?xml version="1.0" encoding="utf-8" standalone="no"?>
<!DOCTYPE svg PUBLIC "-//W3C//DTD SVG 1.1//EN"
  "http://www.w3.org/Graphics/SVG/1.1/DTD/svg11.dtd">
<svg xmlns:xlink="http://www.w3.org/1999/xlink" width="540pt" height="324pt" viewBox="0 0 540 324" xmlns="http://www.w3.org/2000/svg" version="1.1">
 <metadata>
  <rdf:RDF xmlns:dc="http://purl.org/dc/elements/1.1/" xmlns:cc="http://creativecommons.org/ns#" xmlns:rdf="http://www.w3.org/1999/02/22-rdf-syntax-ns#">
   <cc:Work>
    <dc:type rdf:resource="http://purl.org/dc/dcmitype/StillImage"/>
    <dc:format>image/svg+xml</dc:format>
    <dc:creator>
     <cc:Agent>
      <dc:title>Matplotlib v3.10.9, https://matplotlib.org/</dc:title>
     </cc:Agent>
    </dc:creator>
   </cc:Work>
  </rdf:RDF>
 </metadata>
 <defs>
  <style type="text/css">*{stroke-linejoin: round; stroke-linecap: butt}</style>
 </defs>
 <g id="figure_1">
  <g id="patch_1">
   <path d="M 0 324 
L 540 324 
L 540 0 
L 0 0 
L 0 324 
z
" style="fill: none"/>
  </g>
  <g id="axes_1">
   <g id="patch_2">
    <path d="M 71.67 260.982232 
L 528.12 260.982232 
L 528.12 41.24 
L 71.67 41.24 
L 71.67 260.982232 
z
" style="fill: none"/>
   </g>
   <g id="matplotlib.axis_1">
    <g id="xtick_1">
     <g id="line2d_1"/>
     <g id="text_1">
      <text style="font-size: 9px; font-family: 'DejaVu Sans', 'Bitstream Vera Sans', 'Computer Modern Sans Serif', 'Lucida Grande', 'Verdana', 'Geneva', 'Lucid', 'Arial', 'Helvetica', 'Avant Garde', sans-serif; fill: #898781" transform="translate(64.121756 299.581249) rotate(-25)">ensemble_vote</text>
     </g>
    </g>
    <g id="xtick_2">
     <g id="line2d_2"/>
     <g id="text_2">
      <text style="font-size: 9px; font-family: 'DejaVu Sans', 'Bitstream Vera Sans', 'Computer Modern Sans Serif', 'Lucida Grande', 'Verdana', 'Geneva', 'Lucid', 'Arial', 'Helvetica', 'Avant Garde', sans-serif; fill: #898781" transform="translate(135.885884 306.428853) rotate(-25)">plan_then_execute</text>
     </g>
    </g>
    <g id="xtick_3">
     <g id="line2d_3"/>
     <g id="text_3">
      <text style="font-size: 9px; font-family: 'DejaVu Sans', 'Bitstream Vera Sans', 'Computer Modern Sans Serif', 'Lucida Grande', 'Verdana', 'Geneva', 'Lucid', 'Arial', 'Helvetica', 'Avant Garde', sans-serif; fill: #898781" transform="translate(220.844863 307.123598) rotate(-25)">write_then_critique</text>
     </g>
    </g>
    <g id="xtick_4">
     <g id="line2d_4"/>
     <g id="text_4">
      <text style="font-size: 9px; font-family: 'DejaVu Sans', 'Bitstream Vera Sans', 'Computer Modern Sans Serif', 'Lucida Grande', 'Verdana', 'Geneva', 'Lucid', 'Arial', 'Helvetica', 'Avant Garde', sans-serif; fill: #898781" transform="translate(300.891937 310.108802) rotate(-25)">structured_per_table</text>
     </g>
    </g>
    <g id="xtick_5">
     <g id="line2d_5"/>
     <g id="text_5">
      <text style="font-size: 9px; font-family: 'DejaVu Sans', 'Bitstream Vera Sans', 'Computer Modern Sans Serif', 'Lucida Grande', 'Verdana', 'Geneva', 'Lucid', 'Arial', 'Helvetica', 'Avant Garde', sans-serif; fill: #898781" transform="translate(388.44069 309.595915) rotate(-25)">write_tools_freeform</text>
     </g>
    </g>
   </g>
   <g id="matplotlib.axis_2">
    <g id="ytick_1">
     <g id="line2d_6">
      <path d="M 71.67 260.982232 
L 528.12 260.982232 
" clip-path="url(#p19e328ca49)" style="fill: none; stroke: #898781; stroke-opacity: 0.18; stroke-width: 0.6; stroke-linecap: square"/>
     </g>
     <g id="line2d_7"/>
     <g id="text_6">
      <text style="font-size: 11px; font-family: 'DejaVu Sans', 'Bitstream Vera Sans', 'Computer Modern Sans Serif', 'Lucida Grande', 'Verdana', 'Geneva', 'Lucid', 'Arial', 'Helvetica', 'Avant Garde', sans-serif; text-anchor: end" x="68.17" y="265.161373" transform="rotate(-0 68.17 265.161373)">0</text>
     </g>
    </g>
    <g id="ytick_2">
     <g id="line2d_8">
      <path d="M 71.67 221.727582 
L 528.12 221.727582 
" clip-path="url(#p19e328ca49)" style="fill: none; stroke: #898781; stroke-opacity: 0.18; stroke-width: 0.6; stroke-linecap: square"/>
     </g>
     <g id="line2d_9"/>
     <g id="text_7">
      <text style="font-size: 11px; font-family: 'DejaVu Sans', 'Bitstream Vera Sans', 'Computer Modern Sans Serif', 'Lucida Grande', 'Verdana', 'Geneva', 'Lucid', 'Arial', 'Helvetica', 'Avant Garde', sans-serif; text-anchor: end" x="68.17" y="225.906722" transform="rotate(-0 68.17 225.906722)">50000</text>
     </g>
    </g>
    <g id="ytick_3">
     <g id="line2d_10">
      <path d="M 71.67 182.472932 
L 528.12 182.472932 
" clip-path="url(#p19e328ca49)" style="fill: none; stroke: #898781; stroke-opacity: 0.18; stroke-width: 0.6; stroke-linecap: square"/>
     </g>
     <g id="line2d_11"/>
     <g id="text_8">
      <text style="font-size: 11px; font-family: 'DejaVu Sans', 'Bitstream Vera Sans', 'Computer Modern Sans Serif', 'Lucida Grande', 'Verdana', 'Geneva', 'Lucid', 'Arial', 'Helvetica', 'Avant Garde', sans-serif; text-anchor: end" x="68.17" y="186.652072" transform="rotate(-0 68.17 186.652072)">100000</text>
     </g>
    </g>
    <g id="ytick_4">
     <g id="line2d_12">
      <path d="M 71.67 143.218282 
L 528.12 143.218282 
" clip-path="url(#p19e328ca49)" style="fill: none; stroke: #898781; stroke-opacity: 0.18; stroke-width: 0.6; stroke-linecap: square"/>
     </g>
     <g id="line2d_13"/>
     <g id="text_9">
      <text style="font-size: 11px; font-family: 'DejaVu Sans', 'Bitstream Vera Sans', 'Computer Modern Sans Serif', 'Lucida Grande', 'Verdana', 'Geneva', 'Lucid', 'Arial', 'Helvetica', 'Avant Garde', sans-serif; text-anchor: end" x="68.17" y="147.397422" transform="rotate(-0 68.17 147.397422)">150000</text>
     </g>
    </g>
    <g id="ytick_5">
     <g id="line2d_14">
      <path d="M 71.67 103.963631 
L 528.12 103.963631 
" clip-path="url(#p19e328ca49)" style="fill: none; stroke: #898781; stroke-opacity: 0.18; stroke-width: 0.6; stroke-linecap: square"/>
     </g>
     <g id="line2d_15"/>
     <g id="text_10">
      <text style="font-size: 11px; font-family: 'DejaVu Sans', 'Bitstream Vera Sans', 'Computer Modern Sans Serif', 'Lucida Grande', 'Verdana', 'Geneva', 'Lucid', 'Arial', 'Helvetica', 'Avant Garde', sans-serif; text-anchor: end" x="68.17" y="108.142772" transform="rotate(-0 68.17 108.142772)">200000</text>
     </g>
    </g>
    <g id="ytick_6">
     <g id="line2d_16">
      <path d="M 71.67 64.708981 
L 528.12 64.708981 
" clip-path="url(#p19e328ca49)" style="fill: none; stroke: #898781; stroke-opacity: 0.18; stroke-width: 0.6; stroke-linecap: square"/>
     </g>
     <g id="line2d_17"/>
     <g id="text_11">
      <text style="font-size: 11px; font-family: 'DejaVu Sans', 'Bitstream Vera Sans', 'Computer Modern Sans Serif', 'Lucida Grande', 'Verdana', 'Geneva', 'Lucid', 'Arial', 'Helvetica', 'Avant Garde', sans-serif; text-anchor: end" x="68.17" y="68.888122" transform="rotate(-0 68.17 68.888122)">250000</text>
     </g>
    </g>
    <g id="text_12">
     <text style="font-size: 11px; font-family: 'DejaVu Sans', 'Bitstream Vera Sans', 'Computer Modern Sans Serif', 'Lucida Grande', 'Verdana', 'Geneva', 'Lucid', 'Arial', 'Helvetica', 'Avant Garde', sans-serif; text-anchor: middle; fill: #0b0b0b" x="19.889844" y="151.111116" transform="rotate(-90 19.889844 151.111116)">Tokens/run (in+out)</text>
    </g>
   </g>
   <g id="patch_3">
    <path d="M 71.67 260.982232 
L 71.67 41.24 
" style="fill: none; stroke: #000000; stroke-width: 0.8; stroke-linejoin: miter; stroke-linecap: square"/>
   </g>
   <g id="patch_4">
    <path d="M 71.67 260.982232 
L 528.12 260.982232 
" style="fill: none; stroke: #000000; stroke-width: 0.8; stroke-linejoin: miter; stroke-linecap: square"/>
   </g>
   <g id="patch_5">
    <path d="M 92.417727 260.982232 
L 126.997273 260.982232 
L 126.997273 129.27346 
L 92.417727 129.27346 
z
" clip-path="url(#p19e328ca49)" style="fill: #c40d1e"/>
   </g>
   <g id="patch_6">
    <path d="M 178.866591 260.982232 
L 213.446136 260.982232 
L 213.446136 231.383441 
L 178.866591 231.383441 
z
" clip-path="url(#p19e328ca49)" style="fill: #ff6c00"/>
   </g>
   <g id="patch_7">
    <path d="M 265.315455 260.982232 
L 299.895 260.982232 
L 299.895 166.278426 
L 265.315455 166.278426 
z
" clip-path="url(#p19e328ca49)" style="fill: #e8a800"/>
   </g>
   <g id="patch_8">
    <path d="M 351.764318 260.982232 
L 386.343864 260.982232 
L 386.343864 236.663584 
L 351.764318 236.663584 
z
" clip-path="url(#p19e328ca49)" style="fill: #b5297a"/>
   </g>
   <g id="patch_9">
    <path d="M 438.213182 260.982232 
L 472.792727 260.982232 
L 472.792727 215.504935 
L 438.213182 215.504935 
z
" clip-path="url(#p19e328ca49)" style="fill: #2f6fb0"/>
   </g>
   <g id="patch_10">
    <path d="M 126.997273 260.982232 
L 161.576818 260.982232 
L 161.576818 106.241186 
L 126.997273 106.241186 
z
" clip-path="url(#p19e328ca49)" style="fill: url(#hc5d1e91f93)"/>
   </g>
   <g id="patch_11">
    <path d="M 213.446136 260.982232 
L 248.025682 260.982232 
L 248.025682 204.335024 
L 213.446136 204.335024 
z
" clip-path="url(#p19e328ca49)" style="fill: url(#h522214b505)"/>
   </g>
   <g id="patch_12">
    <path d="M 299.895 260.982232 
L 334.474545 260.982232 
L 334.474545 135.896897 
L 299.895 135.896897 
z
" clip-path="url(#p19e328ca49)" style="fill: url(#h5e85e630e4)"/>
   </g>
   <g id="patch_13">
    <path d="M 386.343864 260.982232 
L 420.923409 260.982232 
L 420.923409 197.524735 
L 386.343864 197.524735 
z
" clip-path="url(#p19e328ca49)" style="fill: url(#hd0d1d40f83)"/>
   </g>
   <g id="patch_14">
    <path d="M 472.792727 260.982232 
L 507.372273 260.982232 
L 507.372273 194.409486 
L 472.792727 194.409486 
z
" clip-path="url(#p19e328ca49)" style="fill: url(#hb94e1d0dae)"/>
   </g>
   <g id="text_13">
    <text style="font-size: 9px; font-family: 'DejaVu Sans', 'Bitstream Vera Sans', 'Computer Modern Sans Serif', 'Lucida Grande', 'Verdana', 'Geneva', 'Lucid', 'Arial', 'Helvetica', 'Avant Garde', sans-serif; text-anchor: start; fill: #898781" x="71.67" y="36.072148" transform="rotate(-0 71.67 36.072148)">median per bar · n=24/bar · N=240 runs</text>
   </g>
   <g id="text_14">
    <text style="font-size: 12px; font-family: 'DejaVu Sans', 'Bitstream Vera Sans', 'Computer Modern Sans Serif', 'Lucida Grande', 'Verdana', 'Geneva', 'Lucid', 'Arial', 'Helvetica', 'Avant Garde', sans-serif; text-anchor: start; fill: #0b0b0b" x="71.67" y="21.24" transform="rotate(-0 71.67 21.24)">Tokens/run (in+out) by strategy — self-correction</text>
   </g>
   <g id="LineCollection_1">
    <path d="M 109.7075 166.409144 
L 109.7075 96.228503 
" clip-path="url(#p19e328ca49)" style="fill: none; stroke: #898781; stroke-width: 0.9"/>
    <path d="M 196.156364 234.234113 
L 196.156364 225.832833 
" clip-path="url(#p19e328ca49)" style="fill: none; stroke: #898781; stroke-width: 0.9"/>
    <path d="M 282.605227 182.454286 
L 282.605227 127.829281 
" clip-path="url(#p19e328ca49)" style="fill: none; stroke: #898781; stroke-width: 0.9"/>
    <path d="M 369.054091 241.965905 
L 369.054091 216.356761 
" clip-path="url(#p19e328ca49)" style="fill: none; stroke: #898781; stroke-width: 0.9"/>
    <path d="M 455.502955 224.1598 
L 455.502955 183.907689 
" clip-path="url(#p19e328ca49)" style="fill: none; stroke: #898781; stroke-width: 0.9"/>
   </g>
   <g id="line2d_18">
    <defs>
     <path id="m263f5331f5" d="M 2 0 
L -2 -0 
" style="stroke: #898781"/>
    </defs>
    <g clip-path="url(#p19e328ca49)">
     <use xlink:href="#m263f5331f5" x="109.7075" y="166.409144" style="fill: #1f77b4; stroke: #898781"/>
     <use xlink:href="#m263f5331f5" x="196.156364" y="234.234113" style="fill: #1f77b4; stroke: #898781"/>
     <use xlink:href="#m263f5331f5" x="282.605227" y="182.454286" style="fill: #1f77b4; stroke: #898781"/>
     <use xlink:href="#m263f5331f5" x="369.054091" y="241.965905" style="fill: #1f77b4; stroke: #898781"/>
     <use xlink:href="#m263f5331f5" x="455.502955" y="224.1598" style="fill: #1f77b4; stroke: #898781"/>
    </g>
   </g>
   <g id="line2d_19">
    <g clip-path="url(#p19e328ca49)">
     <use xlink:href="#m263f5331f5" x="109.7075" y="96.228503" style="fill: #1f77b4; stroke: #898781"/>
     <use xlink:href="#m263f5331f5" x="196.156364" y="225.832833" style="fill: #1f77b4; stroke: #898781"/>
     <use xlink:href="#m263f5331f5" x="282.605227" y="127.829281" style="fill: #1f77b4; stroke: #898781"/>
     <use xlink:href="#m263f5331f5" x="369.054091" y="216.356761" style="fill: #1f77b4; stroke: #898781"/>
     <use xlink:href="#m263f5331f5" x="455.502955" y="183.907689" style="fill: #1f77b4; stroke: #898781"/>
    </g>
   </g>
   <g id="LineCollection_2">
    <path d="M 144.287045 167.11455 
L 144.287045 51.703916 
" clip-path="url(#p19e328ca49)" style="fill: none; stroke: #898781; stroke-width: 0.9"/>
    <path d="M 230.735909 226.719988 
L 230.735909 186.316551 
" clip-path="url(#p19e328ca49)" style="fill: none; stroke: #898781; stroke-width: 0.9"/>
    <path d="M 317.184773 166.869208 
L 317.184773 93.799425 
" clip-path="url(#p19e328ca49)" style="fill: none; stroke: #898781; stroke-width: 0.9"/>
    <path d="M 403.633636 221.643969 
L 403.633636 168.712999 
" clip-path="url(#p19e328ca49)" style="fill: none; stroke: #898781; stroke-width: 0.9"/>
    <path d="M 490.0825 214.826222 
L 490.0825 174.161152 
" clip-path="url(#p19e328ca49)" style="fill: none; stroke: #898781; stroke-width: 0.9"/>
   </g>
   <g id="line2d_20">
    <g clip-path="url(#p19e328ca49)">
     <use xlink:href="#m263f5331f5" x="144.287045" y="167.11455" style="fill: #1f77b4; stroke: #898781"/>
     <use xlink:href="#m263f5331f5" x="230.735909" y="226.719988" style="fill: #1f77b4; stroke: #898781"/>
     <use xlink:href="#m263f5331f5" x="317.184773" y="166.869208" style="fill: #1f77b4; stroke: #898781"/>
     <use xlink:href="#m263f5331f5" x="403.633636" y="221.643969" style="fill: #1f77b4; stroke: #898781"/>
     <use xlink:href="#m263f5331f5" x="490.0825" y="214.826222" style="fill: #1f77b4; stroke: #898781"/>
    </g>
   </g>
   <g id="line2d_21">
    <g clip-path="url(#p19e328ca49)">
     <use xlink:href="#m263f5331f5" x="144.287045" y="51.703916" style="fill: #1f77b4; stroke: #898781"/>
     <use xlink:href="#m263f5331f5" x="230.735909" y="186.316551" style="fill: #1f77b4; stroke: #898781"/>
     <use xlink:href="#m263f5331f5" x="317.184773" y="93.799425" style="fill: #1f77b4; stroke: #898781"/>
     <use xlink:href="#m263f5331f5" x="403.633636" y="168.712999" style="fill: #1f77b4; stroke: #898781"/>
     <use xlink:href="#m263f5331f5" x="490.0825" y="174.161152" style="fill: #1f77b4; stroke: #898781"/>
    </g>
   </g>
   <g id="legend_1">
    <g id="patch_15">
     <path d="M 482.976563 56.178594 
L 500.976563 56.178594 
L 500.976563 49.878594 
L 482.976563 49.878594 
z
" style="fill: #898781"/>
    </g>
    <g id="text_15">
     <text style="font-size: 9px; font-family: 'DejaVu Sans', 'Bitstream Vera Sans', 'Computer Modern Sans Serif', 'Lucida Grande', 'Verdana', 'Geneva', 'Lucid', 'Arial', 'Helvetica', 'Avant Garde', sans-serif; text-anchor: start; fill: #0b0b0b" x="508.176563" y="56.178594" transform="rotate(-0 508.176563 56.178594)">off</text>
    </g>
    <g id="patch_16">
     <path d="M 482.976563 69.388906 
L 500.976563 69.388906 
L 500.976563 63.088906 
L 482.976563 63.088906 
z
" style="fill: url(#h97066932b5)"/>
    </g>
    <g id="text_16">
     <text style="font-size: 9px; font-family: 'DejaVu Sans', 'Bitstream Vera Sans', 'Computer Modern Sans Serif', 'Lucida Grande', 'Verdana', 'Geneva', 'Lucid', 'Arial', 'Helvetica', 'Avant Garde', sans-serif; text-anchor: start; fill: #0b0b0b" x="508.176563" y="69.388906" transform="rotate(-0 508.176563 69.388906)">on</text>
    </g>
   </g>
  </g>
 </g>
 <defs>
  <clipPath id="p19e328ca49">
   <rect x="71.67" y="41.24" width="456.45" height="219.742232"/>
  </clipPath>
 </defs>
 <defs>
  <pattern id="hc5d1e91f93" patternUnits="userSpaceOnUse" x="0" y="0" width="72" height="72">
   <rect x="0" y="0" width="73" height="73" fill="#c40d1e"/>
   <path d="M -36 36 
L 36 -36 
M -32 40 
L 40 -32 
M -28 44 
L 44 -28 
M -24 48 
L 48 -24 
M -20 52 
L 52 -20 
M -16 56 
L 56 -16 
M -12 60 
L 60 -12 
M -8 64 
L 64 -8 
M -4 68 
L 68 -4 
M 0 72 
L 72 0 
M 4 76 
L 76 4 
M 8 80 
L 80 8 
M 12 84 
L 84 12 
M 16 88 
L 88 16 
M 20 92 
L 92 20 
M 24 96 
L 96 24 
M 28 100 
L 100 28 
M 32 104 
L 104 32 
M 36 108 
L 108 36 
" style="fill: #ffffff; stroke: #ffffff; stroke-width: 0.5; stroke-linecap: butt; stroke-linejoin: miter"/>
  </pattern>
  <pattern id="h522214b505" patternUnits="userSpaceOnUse" x="0" y="0" width="72" height="72">
   <rect x="0" y="0" width="73" height="73" fill="#ff6c00"/>
   <path d="M -36 36 
L 36 -36 
M -32 40 
L 40 -32 
M -28 44 
L 44 -28 
M -24 48 
L 48 -24 
M -20 52 
L 52 -20 
M -16 56 
L 56 -16 
M -12 60 
L 60 -12 
M -8 64 
L 64 -8 
M -4 68 
L 68 -4 
M 0 72 
L 72 0 
M 4 76 
L 76 4 
M 8 80 
L 80 8 
M 12 84 
L 84 12 
M 16 88 
L 88 16 
M 20 92 
L 92 20 
M 24 96 
L 96 24 
M 28 100 
L 100 28 
M 32 104 
L 104 32 
M 36 108 
L 108 36 
" style="fill: #ffffff; stroke: #ffffff; stroke-width: 0.5; stroke-linecap: butt; stroke-linejoin: miter"/>
  </pattern>
  <pattern id="h5e85e630e4" patternUnits="userSpaceOnUse" x="0" y="0" width="72" height="72">
   <rect x="0" y="0" width="73" height="73" fill="#e8a800"/>
   <path d="M -36 36 
L 36 -36 
M -32 40 
L 40 -32 
M -28 44 
L 44 -28 
M -24 48 
L 48 -24 
M -20 52 
L 52 -20 
M -16 56 
L 56 -16 
M -12 60 
L 60 -12 
M -8 64 
L 64 -8 
M -4 68 
L 68 -4 
M 0 72 
L 72 0 
M 4 76 
L 76 4 
M 8 80 
L 80 8 
M 12 84 
L 84 12 
M 16 88 
L 88 16 
M 20 92 
L 92 20 
M 24 96 
L 96 24 
M 28 100 
L 100 28 
M 32 104 
L 104 32 
M 36 108 
L 108 36 
" style="fill: #ffffff; stroke: #ffffff; stroke-width: 0.5; stroke-linecap: butt; stroke-linejoin: miter"/>
  </pattern>
  <pattern id="hd0d1d40f83" patternUnits="userSpaceOnUse" x="0" y="0" width="72" height="72">
   <rect x="0" y="0" width="73" height="73" fill="#b5297a"/>
   <path d="M -36 36 
L 36 -36 
M -32 40 
L 40 -32 
M -28 44 
L 44 -28 
M -24 48 
L 48 -24 
M -20 52 
L 52 -20 
M -16 56 
L 56 -16 
M -12 60 
L 60 -12 
M -8 64 
L 64 -8 
M -4 68 
L 68 -4 
M 0 72 
L 72 0 
M 4 76 
L 76 4 
M 8 80 
L 80 8 
M 12 84 
L 84 12 
M 16 88 
L 88 16 
M 20 92 
L 92 20 
M 24 96 
L 96 24 
M 28 100 
L 100 28 
M 32 104 
L 104 32 
M 36 108 
L 108 36 
" style="fill: #ffffff; stroke: #ffffff; stroke-width: 0.5; stroke-linecap: butt; stroke-linejoin: miter"/>
  </pattern>
  <pattern id="hb94e1d0dae" patternUnits="userSpaceOnUse" x="0" y="0" width="72" height="72">
   <rect x="0" y="0" width="73" height="73" fill="#2f6fb0"/>
   <path d="M -36 36 
L 36 -36 
M -32 40 
L 40 -32 
M -28 44 
L 44 -28 
M -24 48 
L 48 -24 
M -20 52 
L 52 -20 
M -16 56 
L 56 -16 
M -12 60 
L 60 -12 
M -8 64 
L 64 -8 
M -4 68 
L 68 -4 
M 0 72 
L 72 0 
M 4 76 
L 76 4 
M 8 80 
L 80 8 
M 12 84 
L 84 12 
M 16 88 
L 88 16 
M 20 92 
L 92 20 
M 24 96 
L 96 24 
M 28 100 
L 100 28 
M 32 104 
L 104 32 
M 36 108 
L 108 36 
" style="fill: #ffffff; stroke: #ffffff; stroke-width: 0.5; stroke-linecap: butt; stroke-linejoin: miter"/>
  </pattern>
  <pattern id="h97066932b5" patternUnits="userSpaceOnUse" x="0" y="0" width="72" height="72">
   <rect x="0" y="0" width="73" height="73" fill="#898781"/>
   <path d="M -36 36 
L 36 -36 
M -32 40 
L 40 -32 
M -28 44 
L 44 -28 
M -24 48 
L 48 -24 
M -20 52 
L 52 -20 
M -16 56 
L 56 -16 
M -12 60 
L 60 -12 
M -8 64 
L 64 -8 
M -4 68 
L 68 -4 
M 0 72 
L 72 0 
M 4 76 
L 76 4 
M 8 80 
L 80 8 
M 12 84 
L 84 12 
M 16 88 
L 88 16 
M 20 92 
L 92 20 
M 24 96 
L 96 24 
M 28 100 
L 100 28 
M 32 104 
L 104 32 
M 36 108 
L 108 36 
" style="fill: #ffffff; stroke: #ffffff; stroke-width: 0.5; stroke-linecap: butt; stroke-linejoin: miter"/>
  </pattern>
 </defs>
</svg>
