<?xml version="1.0" encoding="utf-8" standalone="no"?>
<!DOCTYPE svg PUBLIC "-//W3C//DTD SVG 1.1//EN"
  "http://www.w3.org/Graphics/SVG/1.1/DTD/svg11.dtd">
<svg xmlns:xlink="http://www.w3.org/1999/xlink" width="540pt" height="324pt" viewBox="0 0 540 324" xmlns="http://www.w3.org/2000/svg" version="1.1">
 <metadata>
  <rdf:RDF xmlns:dc="http://purl.org/dc/elements/1.1/" xmlns:cc="http://creativecommons.org/ns#" xmlns:rdf="http://www.w3.org/1999/02/22-rdf-syntax-ns#">
   <cc:Work>
    <dc:type rdf:resource="http://purl.org/dc/dcmitype/StillImage"/>
    <dc:format>image/svg+xml</dc:format>
    <dc:creator>
     <cc:Agent>
      <dc:title>Matplotlib v3.10.9, https://matplotlib.org/</dc:title>
     </cc:Agent>
    </dc:creator>
   </cc:Work>
  </rdf:RDF>
 </metadata>
 <defs>
  <style type="text/css">*{stroke-linejoin: round; stroke-linecap: butt}</style>
 </defs>
 <g id="figure_1">
  <g id="patch_1">
   <path d="M 0 324 
L 540 324 
L 540 0 
L 0 0 
L 0 324 
z
" style="fill: none"/>
  </g>
  <g id="axes_1">
   <g id="patch_2">
    <path d="M 71.67 260.982232 
L 528.12 260.982232 
L 528.12 41.24 
L 71.67 41.24 
L 71.67 260.982232 
z
" style="fill: none"/>
   </g>
   <g id="matplotlib.axis_1">
    <g id="xtick_1">
     <g id="line2d_1"/>
     <g id="text_1">
      <text style="font-size: 9px; font-family: 'DejaVu Sans', 'Bitstream Vera Sans', 'Computer Modern Sans Serif', 'Lucida Grande', 'Verdana', 'Geneva', 'Lucid', 'Arial', 'Helvetica', 'Avant Garde', sans-serif; fill: #898781" transform="translate(64.121756 299.581249) rotate(-25)">ensemble_vote</text>
     </g>
    </g>
    <g id="xtick_2">
     <g id="line2d_2"/>
     <g id="text_2">
      <text style="font-size: 9px; font-family: 'DejaVu Sans', 'Bitstream Vera Sans', 'Computer Modern Sans Serif', 'Lucida Grande', 'Verdana', 'Geneva', 'Lucid', 'Arial', 'Helvetica', 'Avant Garde', sans-serif; fill: #898781" transform="translate(135.885884 306.428853) rotate(-25)">plan_then_execute</text>
     </g>
    </g>
    <g id="xtick_3">
     <g id="line2d_3"/>
     <g id="text_3">
      <text style="font-size: 9px; font-family: 'DejaVu Sans', 'Bitstream Vera Sans', 'Computer Modern Sans Serif', 'Lucida Grande', 'Verdana', 'Geneva', 'Lucid', 'Arial', 'Helvetica', 'Avant Garde', sans-serif; fill: #898781" transform="translate(220.844863 307.123598) rotate(-25)">write_then_critique</text>
     </g>
    </g>
    <g id="xtick_4">
     <g id="line2d_4"/>
     <g id="text_4">
      <text style="font-size: 9px; font-family: 'DejaVu Sans', 'Bitstream Vera Sans', 'Computer Modern Sans Serif', 'Lucida Grande', 'Verdana', 'Geneva', 'Lucid', 'Arial', 'Helvetica', 'Avant Garde', sans-serif; fill: #898781" transform="translate(300.891937 310.108802) rotate(-25)">structured_per_table</text>
     </g>
    </g>
    <g id="xtick_5">
     <g id="line2d_5"/>
     <g id="text_5">
      <text style="font-size: 9px; font-family: 'DejaVu Sans', 'Bitstream Vera Sans', 'Computer Modern Sans Serif', 'Lucida Grande', 'Verdana', 'Geneva', 'Lucid', 'Arial', 'Helvetica', 'Avant Garde', sans-serif; fill: #898781" transform="translate(388.44069 309.595915) rotate(-25)">write_tools_freeform</text>
     </g>
    </g>
   </g>
   <g id="matplotlib.axis_2">
    <g id="ytick_1">
     <g id="line2d_6">
      <path d="M 71.67 260.982232 
L 528.12 260.982232 
" clip-path="url(#pc1717c71fb)" style="fill: none; stroke: #898781; stroke-opacity: 0.18; stroke-width: 0.6; stroke-linecap: square"/>
     </g>
     <g id="line2d_7"/>
     <g id="text_6">
      <text style="font-size: 11px; font-family: 'DejaVu Sans', 'Bitstream Vera Sans', 'Computer Modern Sans Serif', 'Lucida Grande', 'Verdana', 'Geneva', 'Lucid', 'Arial', 'Helvetica', 'Avant Garde', sans-serif; text-anchor: end" x="68.17" y="265.161373" transform="rotate(-0 68.17 265.161373)">0</text>
     </g>
    </g>
    <g id="ytick_2">
     <g id="line2d_8">
      <path d="M 71.67 222.305738 
L 528.12 222.305738 
" clip-path="url(#pc1717c71fb)" style="fill: none; stroke: #898781; stroke-opacity: 0.18; stroke-width: 0.6; stroke-linecap: square"/>
     </g>
     <g id="line2d_9"/>
     <g id="text_7">
      <text style="font-size: 11px; font-family: 'DejaVu Sans', 'Bitstream Vera Sans', 'Computer Modern Sans Serif', 'Lucida Grande', 'Verdana', 'Geneva', 'Lucid', 'Arial', 'Helvetica', 'Avant Garde', sans-serif; text-anchor: end" x="68.17" y="226.484878" transform="rotate(-0 68.17 226.484878)">50000</text>
     </g>
    </g>
    <g id="ytick_3">
     <g id="line2d_10">
      <path d="M 71.67 183.629244 
L 528.12 183.629244 
" clip-path="url(#pc1717c71fb)" style="fill: none; stroke: #898781; stroke-opacity: 0.18; stroke-width: 0.6; stroke-linecap: square"/>
     </g>
     <g id="line2d_11"/>
     <g id="text_8">
      <text style="font-size: 11px; font-family: 'DejaVu Sans', 'Bitstream Vera Sans', 'Computer Modern Sans Serif', 'Lucida Grande', 'Verdana', 'Geneva', 'Lucid', 'Arial', 'Helvetica', 'Avant Garde', sans-serif; text-anchor: end" x="68.17" y="187.808384" transform="rotate(-0 68.17 187.808384)">100000</text>
     </g>
    </g>
    <g id="ytick_4">
     <g id="line2d_12">
      <path d="M 71.67 144.95275 
L 528.12 144.95275 
" clip-path="url(#pc1717c71fb)" style="fill: none; stroke: #898781; stroke-opacity: 0.18; stroke-width: 0.6; stroke-linecap: square"/>
     </g>
     <g id="line2d_13"/>
     <g id="text_9">
      <text style="font-size: 11px; font-family: 'DejaVu Sans', 'Bitstream Vera Sans', 'Computer Modern Sans Serif', 'Lucida Grande', 'Verdana', 'Geneva', 'Lucid', 'Arial', 'Helvetica', 'Avant Garde', sans-serif; text-anchor: end" x="68.17" y="149.13189" transform="rotate(-0 68.17 149.13189)">150000</text>
     </g>
    </g>
    <g id="ytick_5">
     <g id="line2d_14">
      <path d="M 71.67 106.276256 
L 528.12 106.276256 
" clip-path="url(#pc1717c71fb)" style="fill: none; stroke: #898781; stroke-opacity: 0.18; stroke-width: 0.6; stroke-linecap: square"/>
     </g>
     <g id="line2d_15"/>
     <g id="text_10">
      <text style="font-size: 11px; font-family: 'DejaVu Sans', 'Bitstream Vera Sans', 'Computer Modern Sans Serif', 'Lucida Grande', 'Verdana', 'Geneva', 'Lucid', 'Arial', 'Helvetica', 'Avant Garde', sans-serif; text-anchor: end" x="68.17" y="110.455396" transform="rotate(-0 68.17 110.455396)">200000</text>
     </g>
    </g>
    <g id="ytick_6">
     <g id="line2d_16">
      <path d="M 71.67 67.599761 
L 528.12 67.599761 
" clip-path="url(#pc1717c71fb)" style="fill: none; stroke: #898781; stroke-opacity: 0.18; stroke-width: 0.6; stroke-linecap: square"/>
     </g>
     <g id="line2d_17"/>
     <g id="text_11">
      <text style="font-size: 11px; font-family: 'DejaVu Sans', 'Bitstream Vera Sans', 'Computer Modern Sans Serif', 'Lucida Grande', 'Verdana', 'Geneva', 'Lucid', 'Arial', 'Helvetica', 'Avant Garde', sans-serif; text-anchor: end" x="68.17" y="71.778902" transform="rotate(-0 68.17 71.778902)">250000</text>
     </g>
    </g>
    <g id="text_12">
     <text style="font-size: 11px; font-family: 'DejaVu Sans', 'Bitstream Vera Sans', 'Computer Modern Sans Serif', 'Lucida Grande', 'Verdana', 'Geneva', 'Lucid', 'Arial', 'Helvetica', 'Avant Garde', sans-serif; text-anchor: middle; fill: #0b0b0b" x="19.889844" y="151.111116" transform="rotate(-90 19.889844 151.111116)">Tokens/run (in+out)</text>
    </g>
   </g>
   <g id="patch_3">
    <path d="M 71.67 260.982232 
L 71.67 41.24 
" style="fill: none; stroke: #000000; stroke-width: 0.8; stroke-linejoin: miter; stroke-linecap: square"/>
   </g>
   <g id="patch_4">
    <path d="M 71.67 260.982232 
L 528.12 260.982232 
" style="fill: none; stroke: #000000; stroke-width: 0.8; stroke-linejoin: miter; stroke-linecap: square"/>
   </g>
   <g id="patch_5">
    <path d="M 92.417727 260.982232 
L 126.997273 260.982232 
L 126.997273 167.614081 
L 92.417727 167.614081 
z
" clip-path="url(#pc1717c71fb)" style="fill: #c40d1e"/>
   </g>
   <g id="patch_6">
    <path d="M 178.866591 260.982232 
L 213.446136 260.982232 
L 213.446136 228.992517 
L 178.866591 228.992517 
z
" clip-path="url(#pc1717c71fb)" style="fill: #ff6c00"/>
   </g>
   <g id="patch_7">
    <path d="M 265.315455 260.982232 
L 299.895 260.982232 
L 299.895 172.62114 
L 265.315455 172.62114 
z
" clip-path="url(#pc1717c71fb)" style="fill: #e8a800"/>
   </g>
   <g id="patch_8">
    <path d="M 351.764318 260.982232 
L 386.343864 260.982232 
L 386.343864 240.863106 
L 351.764318 240.863106 
z
" clip-path="url(#pc1717c71fb)" style="fill: #b5297a"/>
   </g>
   <g id="patch_9">
    <path d="M 438.213182 260.982232 
L 472.792727 260.982232 
L 472.792727 216.274525 
L 438.213182 216.274525 
z
" clip-path="url(#pc1717c71fb)" style="fill: #2f6fb0"/>
   </g>
   <g id="patch_10">
    <path d="M 126.997273 260.982232 
L 161.576818 260.982232 
L 161.576818 75.562478 
L 126.997273 75.562478 
z
" clip-path="url(#pc1717c71fb)" style="fill: url(#hcba8cc28bb)"/>
   </g>
   <g id="patch_11">
    <path d="M 213.446136 260.982232 
L 248.025682 260.982232 
L 248.025682 225.798225 
L 213.446136 225.798225 
z
" clip-path="url(#pc1717c71fb)" style="fill: url(#hc1fb8087d0)"/>
   </g>
   <g id="patch_12">
    <path d="M 299.895 260.982232 
L 334.474545 260.982232 
L 334.474545 123.439723 
L 299.895 123.439723 
z
" clip-path="url(#pc1717c71fb)" style="fill: url(#ha0a8144cd5)"/>
   </g>
   <g id="patch_13">
    <path d="M 386.343864 260.982232 
L 420.923409 260.982232 
L 420.923409 210.960375 
L 386.343864 210.960375 
z
" clip-path="url(#pc1717c71fb)" style="fill: url(#h35fdb5e346)"/>
   </g>
   <g id="patch_14">
    <path d="M 472.792727 260.982232 
L 507.372273 260.982232 
L 507.372273 191.346365 
L 472.792727 191.346365 
z
" clip-path="url(#pc1717c71fb)" style="fill: url(#h4886ff7825)"/>
   </g>
   <g id="text_13">
    <text style="font-size: 9px; font-family: 'DejaVu Sans', 'Bitstream Vera Sans', 'Computer Modern Sans Serif', 'Lucida Grande', 'Verdana', 'Geneva', 'Lucid', 'Arial', 'Helvetica', 'Avant Garde', sans-serif; text-anchor: start; fill: #898781" x="71.67" y="36.072148" transform="rotate(-0 71.67 36.072148)">median per bar · N=240 runs</text>
   </g>
   <g id="text_14">
    <text style="font-size: 12px; font-family: 'DejaVu Sans', 'Bitstream Vera Sans', 'Computer Modern Sans Serif', 'Lucida Grande', 'Verdana', 'Geneva', 'Lucid', 'Arial', 'Helvetica', 'Avant Garde', sans-serif; text-anchor: start; fill: #0b0b0b" x="71.67" y="21.24" transform="rotate(-0 71.67 21.24)">Tokens/run (in+out) by strategy — context mode</text>
   </g>
   <g id="LineCollection_1">
    <path d="M 109.7075 174.828021 
L 109.7075 162.587297 
" clip-path="url(#pc1717c71fb)" style="fill: none; stroke: #898781; stroke-width: 0.9"/>
    <path d="M 196.156364 233.059157 
L 196.156364 204.757052 
" clip-path="url(#pc1717c71fb)" style="fill: none; stroke: #898781; stroke-width: 0.9"/>
    <path d="M 282.605227 190.327819 
L 282.605227 165.180749 
" clip-path="url(#pc1717c71fb)" style="fill: none; stroke: #898781; stroke-width: 0.9"/>
    <path d="M 369.054091 242.245984 
L 369.054091 198.671499 
" clip-path="url(#pc1717c71fb)" style="fill: none; stroke: #898781; stroke-width: 0.9"/>
    <path d="M 455.502955 222.79983 
L 455.502955 196.369668 
" clip-path="url(#pc1717c71fb)" style="fill: none; stroke: #898781; stroke-width: 0.9"/>
   </g>
   <g id="line2d_18">
    <defs>
     <path id="mc4c6ca10a4" d="M 2 0 
L -2 -0 
" style="stroke: #898781"/>
    </defs>
    <g clip-path="url(#pc1717c71fb)">
     <use xlink:href="#mc4c6ca10a4" x="109.7075" y="174.828021" style="fill: #1f77b4; stroke: #898781"/>
     <use xlink:href="#mc4c6ca10a4" x="196.156364" y="233.059157" style="fill: #1f77b4; stroke: #898781"/>
     <use xlink:href="#mc4c6ca10a4" x="282.605227" y="190.327819" style="fill: #1f77b4; stroke: #898781"/>
     <use xlink:href="#mc4c6ca10a4" x="369.054091" y="242.245984" style="fill: #1f77b4; stroke: #898781"/>
     <use xlink:href="#mc4c6ca10a4" x="455.502955" y="222.79983" style="fill: #1f77b4; stroke: #898781"/>
    </g>
   </g>
   <g id="line2d_19">
    <g clip-path="url(#pc1717c71fb)">
     <use xlink:href="#mc4c6ca10a4" x="109.7075" y="162.587297" style="fill: #1f77b4; stroke: #898781"/>
     <use xlink:href="#mc4c6ca10a4" x="196.156364" y="204.757052" style="fill: #1f77b4; stroke: #898781"/>
     <use xlink:href="#mc4c6ca10a4" x="282.605227" y="165.180749" style="fill: #1f77b4; stroke: #898781"/>
     <use xlink:href="#mc4c6ca10a4" x="369.054091" y="198.671499" style="fill: #1f77b4; stroke: #898781"/>
     <use xlink:href="#mc4c6ca10a4" x="455.502955" y="196.369668" style="fill: #1f77b4; stroke: #898781"/>
    </g>
   </g>
   <g id="LineCollection_2">
    <path d="M 144.287045 101.553275 
L 144.287045 51.703916 
" clip-path="url(#pc1717c71fb)" style="fill: none; stroke: #898781; stroke-width: 0.9"/>
    <path d="M 230.735909 233.995902 
L 230.735909 204.09201 
" clip-path="url(#pc1717c71fb)" style="fill: none; stroke: #898781; stroke-width: 0.9"/>
    <path d="M 317.184773 138.300006 
L 317.184773 86.472537 
" clip-path="url(#pc1717c71fb)" style="fill: none; stroke: #898781; stroke-width: 0.9"/>
    <path d="M 403.633636 219.960782 
L 403.633636 170.071972 
" clip-path="url(#pc1717c71fb)" style="fill: none; stroke: #898781; stroke-width: 0.9"/>
    <path d="M 490.0825 215.92663 
L 490.0825 151.262046 
" clip-path="url(#pc1717c71fb)" style="fill: none; stroke: #898781; stroke-width: 0.9"/>
   </g>
   <g id="line2d_20">
    <g clip-path="url(#pc1717c71fb)">
     <use xlink:href="#mc4c6ca10a4" x="144.287045" y="101.553275" style="fill: #1f77b4; stroke: #898781"/>
     <use xlink:href="#mc4c6ca10a4" x="230.735909" y="233.995902" style="fill: #1f77b4; stroke: #898781"/>
     <use xlink:href="#mc4c6ca10a4" x="317.184773" y="138.300006" style="fill: #1f77b4; stroke: #898781"/>
     <use xlink:href="#mc4c6ca10a4" x="403.633636" y="219.960782" style="fill: #1f77b4; stroke: #898781"/>
     <use xlink:href="#mc4c6ca10a4" x="490.0825" y="215.92663" style="fill: #1f77b4; stroke: #898781"/>
    </g>
   </g>
   <g id="line2d_21">
    <g clip-path="url(#pc1717c71fb)">
     <use xlink:href="#mc4c6ca10a4" x="144.287045" y="51.703916" style="fill: #1f77b4; stroke: #898781"/>
     <use xlink:href="#mc4c6ca10a4" x="230.735909" y="204.09201" style="fill: #1f77b4; stroke: #898781"/>
     <use xlink:href="#mc4c6ca10a4" x="317.184773" y="86.472537" style="fill: #1f77b4; stroke: #898781"/>
     <use xlink:href="#mc4c6ca10a4" x="403.633636" y="170.071972" style="fill: #1f77b4; stroke: #898781"/>
     <use xlink:href="#mc4c6ca10a4" x="490.0825" y="151.262046" style="fill: #1f77b4; stroke: #898781"/>
    </g>
   </g>
   <g id="text_15">
    <text style="font-size: 6.5px; font-family: 'DejaVu Sans', 'Bitstream Vera Sans', 'Computer Modern Sans Serif', 'Lucida Grande', 'Verdana', 'Geneva', 'Lucid', 'Arial', 'Helvetica', 'Avant Garde', sans-serif; text-anchor: middle; fill: #ffffff" x="109.7075" y="256.630435" transform="rotate(-0 109.7075 256.630435)">n=24</text>
   </g>
   <g id="text_16">
    <text style="font-size: 6.5px; font-family: 'DejaVu Sans', 'Bitstream Vera Sans', 'Computer Modern Sans Serif', 'Lucida Grande', 'Verdana', 'Geneva', 'Lucid', 'Arial', 'Helvetica', 'Avant Garde', sans-serif; text-anchor: middle; fill: #ffffff" x="196.156364" y="256.630435" transform="rotate(-0 196.156364 256.630435)">n=24</text>
   </g>
   <g id="text_17">
    <text style="font-size: 6.5px; font-family: 'DejaVu Sans', 'Bitstream Vera Sans', 'Computer Modern Sans Serif', 'Lucida Grande', 'Verdana', 'Geneva', 'Lucid', 'Arial', 'Helvetica', 'Avant Garde', sans-serif; text-anchor: middle; fill: #ffffff" x="282.605227" y="256.630435" transform="rotate(-0 282.605227 256.630435)">n=24</text>
   </g>
   <g id="text_18">
    <text style="font-size: 6.5px; font-family: 'DejaVu Sans', 'Bitstream Vera Sans', 'Computer Modern Sans Serif', 'Lucida Grande', 'Verdana', 'Geneva', 'Lucid', 'Arial', 'Helvetica', 'Avant Garde', sans-serif; text-anchor: middle; fill: #ffffff" x="369.054091" y="256.630435" transform="rotate(-0 369.054091 256.630435)">n=24</text>
   </g>
   <g id="text_19">
    <text style="font-size: 6.5px; font-family: 'DejaVu Sans', 'Bitstream Vera Sans', 'Computer Modern Sans Serif', 'Lucida Grande', 'Verdana', 'Geneva', 'Lucid', 'Arial', 'Helvetica', 'Avant Garde', sans-serif; text-anchor: middle; fill: #ffffff" x="455.502955" y="256.630435" transform="rotate(-0 455.502955 256.630435)">n=24</text>
   </g>
   <g id="text_20">
    <text style="font-size: 6.5px; font-family: 'DejaVu Sans', 'Bitstream Vera Sans', 'Computer Modern Sans Serif', 'Lucida Grande', 'Verdana', 'Geneva', 'Lucid', 'Arial', 'Helvetica', 'Avant Garde', sans-serif; text-anchor: middle; fill: #ffffff" x="144.287045" y="256.630435" transform="rotate(-0 144.287045 256.630435)">n=24</text>
   </g>
   <g id="text_21">
    <text style="font-size: 6.5px; font-family: 'DejaVu Sans', 'Bitstream Vera Sans', 'Computer Modern Sans Serif', 'Lucida Grande', 'Verdana', 'Geneva', 'Lucid', 'Arial', 'Helvetica', 'Avant Garde', sans-serif; text-anchor: middle; fill: #ffffff" x="230.735909" y="256.630435" transform="rotate(-0 230.735909 256.630435)">n=24</text>
   </g>
   <g id="text_22">
    <text style="font-size: 6.5px; font-family: 'DejaVu Sans', 'Bitstream Vera Sans', 'Computer Modern Sans Serif', 'Lucida Grande', 'Verdana', 'Geneva', 'Lucid', 'Arial', 'Helvetica', 'Avant Garde', sans-serif; text-anchor: middle; fill: #ffffff" x="317.184773" y="256.630435" transform="rotate(-0 317.184773 256.630435)">n=24</text>
   </g>
   <g id="text_23">
    <text style="font-size: 6.5px; font-family: 'DejaVu Sans', 'Bitstream Vera Sans', 'Computer Modern Sans Serif', 'Lucida Grande', 'Verdana', 'Geneva', 'Lucid', 'Arial', 'Helvetica', 'Avant Garde', sans-serif; text-anchor: middle; fill: #ffffff" x="403.633636" y="256.630435" transform="rotate(-0 403.633636 256.630435)">n=24</text>
   </g>
   <g id="text_24">
    <text style="font-size: 6.5px; font-family: 'DejaVu Sans', 'Bitstream Vera Sans', 'Computer Modern Sans Serif', 'Lucida Grande', 'Verdana', 'Geneva', 'Lucid', 'Arial', 'Helvetica', 'Avant Garde', sans-serif; text-anchor: middle; fill: #ffffff" x="490.0825" y="256.630435" transform="rotate(-0 490.0825 256.630435)">n=24</text>
   </g>
   <g id="legend_1">
    <g id="patch_15">
     <path d="M 428.745938 56.178594 
L 446.745938 56.178594 
L 446.745938 49.878594 
L 428.745938 49.878594 
z
" style="fill: #898781"/>
    </g>
    <g id="text_25">
     <text style="font-size: 9px; font-family: 'DejaVu Sans', 'Bitstream Vera Sans', 'Computer Modern Sans Serif', 'Lucida Grande', 'Verdana', 'Geneva', 'Lucid', 'Arial', 'Helvetica', 'Avant Garde', sans-serif; text-anchor: start; fill: #0b0b0b" x="453.945938" y="56.178594" transform="rotate(-0 453.945938 56.178594)">metadata-only</text>
    </g>
    <g id="patch_16">
     <path d="M 428.745938 69.388906 
L 446.745938 69.388906 
L 446.745938 63.088906 
L 428.745938 63.088906 
z
" style="fill: url(#he0562b2c9b)"/>
    </g>
    <g id="text_26">
     <text style="font-size: 9px; font-family: 'DejaVu Sans', 'Bitstream Vera Sans', 'Computer Modern Sans Serif', 'Lucida Grande', 'Verdana', 'Geneva', 'Lucid', 'Arial', 'Helvetica', 'Avant Garde', sans-serif; text-anchor: start; fill: #0b0b0b" x="453.945938" y="69.388906" transform="rotate(-0 453.945938 69.388906)">live-query</text>
    </g>
   </g>
  </g>
 </g>
 <defs>
  <clipPath id="pc1717c71fb">
   <rect x="71.67" y="41.24" width="456.45" height="219.742232"/>
  </clipPath>
 </defs>
 <defs>
  <pattern id="hcba8cc28bb" patternUnits="userSpaceOnUse" x="0" y="0" width="72" height="72">
   <rect x="0" y="0" width="73" height="73" fill="#c40d1e"/>
   <path d="M -36 36 
L 36 -36 
M -32 40 
L 40 -32 
M -28 44 
L 44 -28 
M -24 48 
L 48 -24 
M -20 52 
L 52 -20 
M -16 56 
L 56 -16 
M -12 60 
L 60 -12 
M -8 64 
L 64 -8 
M -4 68 
L 68 -4 
M 0 72 
L 72 0 
M 4 76 
L 76 4 
M 8 80 
L 80 8 
M 12 84 
L 84 12 
M 16 88 
L 88 16 
M 20 92 
L 92 20 
M 24 96 
L 96 24 
M 28 100 
L 100 28 
M 32 104 
L 104 32 
M 36 108 
L 108 36 
" style="fill: #ffffff; stroke: #ffffff; stroke-width: 0.5; stroke-linecap: butt; stroke-linejoin: miter"/>
  </pattern>
  <pattern id="hc1fb8087d0" patternUnits="userSpaceOnUse" x="0" y="0" width="72" height="72">
   <rect x="0" y="0" width="73" height="73" fill="#ff6c00"/>
   <path d="M -36 36 
L 36 -36 
M -32 40 
L 40 -32 
M -28 44 
L 44 -28 
M -24 48 
L 48 -24 
M -20 52 
L 52 -20 
M -16 56 
L 56 -16 
M -12 60 
L 60 -12 
M -8 64 
L 64 -8 
M -4 68 
L 68 -4 
M 0 72 
L 72 0 
M 4 76 
L 76 4 
M 8 80 
L 80 8 
M 12 84 
L 84 12 
M 16 88 
L 88 16 
M 20 92 
L 92 20 
M 24 96 
L 96 24 
M 28 100 
L 100 28 
M 32 104 
L 104 32 
M 36 108 
L 108 36 
" style="fill: #ffffff; stroke: #ffffff; stroke-width: 0.5; stroke-linecap: butt; stroke-linejoin: miter"/>
  </pattern>
  <pattern id="ha0a8144cd5" patternUnits="userSpaceOnUse" x="0" y="0" width="72" height="72">
   <rect x="0" y="0" width="73" height="73" fill="#e8a800"/>
   <path d="M -36 36 
L 36 -36 
M -32 40 
L 40 -32 
M -28 44 
L 44 -28 
M -24 48 
L 48 -24 
M -20 52 
L 52 -20 
M -16 56 
L 56 -16 
M -12 60 
L 60 -12 
M -8 64 
L 64 -8 
M -4 68 
L 68 -4 
M 0 72 
L 72 0 
M 4 76 
L 76 4 
M 8 80 
L 80 8 
M 12 84 
L 84 12 
M 16 88 
L 88 16 
M 20 92 
L 92 20 
M 24 96 
L 96 24 
M 28 100 
L 100 28 
M 32 104 
L 104 32 
M 36 108 
L 108 36 
" style="fill: #ffffff; stroke: #ffffff; stroke-width: 0.5; stroke-linecap: butt; stroke-linejoin: miter"/>
  </pattern>
  <pattern id="h35fdb5e346" patternUnits="userSpaceOnUse" x="0" y="0" width="72" height="72">
   <rect x="0" y="0" width="73" height="73" fill="#b5297a"/>
   <path d="M -36 36 
L 36 -36 
M -32 40 
L 40 -32 
M -28 44 
L 44 -28 
M -24 48 
L 48 -24 
M -20 52 
L 52 -20 
M -16 56 
L 56 -16 
M -12 60 
L 60 -12 
M -8 64 
L 64 -8 
M -4 68 
L 68 -4 
M 0 72 
L 72 0 
M 4 76 
L 76 4 
M 8 80 
L 80 8 
M 12 84 
L 84 12 
M 16 88 
L 88 16 
M 20 92 
L 92 20 
M 24 96 
L 96 24 
M 28 100 
L 100 28 
M 32 104 
L 104 32 
M 36 108 
L 108 36 
" style="fill: #ffffff; stroke: #ffffff; stroke-width: 0.5; stroke-linecap: butt; stroke-linejoin: miter"/>
  </pattern>
  <pattern id="h4886ff7825" patternUnits="userSpaceOnUse" x="0" y="0" width="72" height="72">
   <rect x="0" y="0" width="73" height="73" fill="#2f6fb0"/>
   <path d="M -36 36 
L 36 -36 
M -32 40 
L 40 -32 
M -28 44 
L 44 -28 
M -24 48 
L 48 -24 
M -20 52 
L 52 -20 
M -16 56 
L 56 -16 
M -12 60 
L 60 -12 
M -8 64 
L 64 -8 
M -4 68 
L 68 -4 
M 0 72 
L 72 0 
M 4 76 
L 76 4 
M 8 80 
L 80 8 
M 12 84 
L 84 12 
M 16 88 
L 88 16 
M 20 92 
L 92 20 
M 24 96 
L 96 24 
M 28 100 
L 100 28 
M 32 104 
L 104 32 
M 36 108 
L 108 36 
" style="fill: #ffffff; stroke: #ffffff; stroke-width: 0.5; stroke-linecap: butt; stroke-linejoin: miter"/>
  </pattern>
  <pattern id="he0562b2c9b" patternUnits="userSpaceOnUse" x="0" y="0" width="72" height="72">
   <rect x="0" y="0" width="73" height="73" fill="#898781"/>
   <path d="M -36 36 
L 36 -36 
M -32 40 
L 40 -32 
M -28 44 
L 44 -28 
M -24 48 
L 48 -24 
M -20 52 
L 52 -20 
M -16 56 
L 56 -16 
M -12 60 
L 60 -12 
M -8 64 
L 64 -8 
M -4 68 
L 68 -4 
M 0 72 
L 72 0 
M 4 76 
L 76 4 
M 8 80 
L 80 8 
M 12 84 
L 84 12 
M 16 88 
L 88 16 
M 20 92 
L 92 20 
M 24 96 
L 96 24 
M 28 100 
L 100 28 
M 32 104 
L 104 32 
M 36 108 
L 108 36 
" style="fill: #ffffff; stroke: #ffffff; stroke-width: 0.5; stroke-linecap: butt; stroke-linejoin: miter"/>
  </pattern>
 </defs>
</svg>
