<?xml version="1.0" encoding="utf-8" standalone="no"?>
<!DOCTYPE svg PUBLIC "-//W3C//DTD SVG 1.1//EN"
  "http://www.w3.org/Graphics/SVG/1.1/DTD/svg11.dtd">
<svg xmlns:xlink="http://www.w3.org/1999/xlink" width="540pt" height="324pt" viewBox="0 0 540 324" xmlns="http://www.w3.org/2000/svg" version="1.1">
 <metadata>
  <rdf:RDF xmlns:dc="http://purl.org/dc/elements/1.1/" xmlns:cc="http://creativecommons.org/ns#" xmlns:rdf="http://www.w3.org/1999/02/22-rdf-syntax-ns#">
   <cc:Work>
    <dc:type rdf:resource="http://purl.org/dc/dcmitype/StillImage"/>
    <dc:format>image/svg+xml</dc:format>
    <dc:creator>
     <cc:Agent>
      <dc:title>Matplotlib v3.10.9, https://matplotlib.org/</dc:title>
     </cc:Agent>
    </dc:creator>
   </cc:Work>
  </rdf:RDF>
 </metadata>
 <defs>
  <style type="text/css">*{stroke-linejoin: round; stroke-linecap: butt}</style>
 </defs>
 <g id="figure_1">
  <g id="patch_1">
   <path d="M 0 324 
L 540 324 
L 540 0 
L 0 0 
L 0 324 
z
" style="fill: none"/>
  </g>
  <g id="axes_1">
   <g id="patch_2">
    <path d="M 47.28 242.896283 
L 528.12 242.896283 
L 528.12 27.24 
L 47.28 27.24 
L 47.28 242.896283 
z
" style="fill: none"/>
   </g>
   <g id="matplotlib.axis_1">
    <g id="xtick_1">
     <g id="line2d_1"/>
     <g id="text_1">
      <text style="font-size: 9px; font-family: 'DejaVu Sans', 'Bitstream Vera Sans', 'Computer Modern Sans Serif', 'Lucida Grande', 'Verdana', 'Geneva', 'Lucid', 'Arial', 'Helvetica', 'Avant Garde', sans-serif; fill: #898781" transform="translate(31.974216 281.4953) rotate(-25)">ensemble_vote</text>
     </g>
    </g>
    <g id="xtick_2">
     <g id="line2d_2"/>
     <g id="text_2">
      <text style="font-size: 9px; font-family: 'DejaVu Sans', 'Bitstream Vera Sans', 'Computer Modern Sans Serif', 'Lucida Grande', 'Verdana', 'Geneva', 'Lucid', 'Arial', 'Helvetica', 'Avant Garde', sans-serif; fill: #898781" transform="translate(81.572903 288.342905) rotate(-25)">plan_then_execute</text>
     </g>
    </g>
    <g id="xtick_3">
     <g id="line2d_3"/>
     <g id="text_3">
      <text style="font-size: 9px; font-family: 'DejaVu Sans', 'Bitstream Vera Sans', 'Computer Modern Sans Serif', 'Lucida Grande', 'Verdana', 'Geneva', 'Lucid', 'Arial', 'Helvetica', 'Avant Garde', sans-serif; fill: #898781" transform="translate(144.366441 289.037649) rotate(-25)">write_then_critique</text>
     </g>
    </g>
    <g id="xtick_4">
     <g id="line2d_4"/>
     <g id="text_4">
      <text style="font-size: 9px; font-family: 'DejaVu Sans', 'Bitstream Vera Sans', 'Computer Modern Sans Serif', 'Lucida Grande', 'Verdana', 'Geneva', 'Lucid', 'Arial', 'Helvetica', 'Avant Garde', sans-serif; fill: #898781" transform="translate(209.59299 288.597862) rotate(-25)">plan_write_critique</text>
     </g>
    </g>
    <g id="xtick_5">
     <g id="line2d_5"/>
     <g id="text_5">
      <text style="font-size: 9px; font-family: 'DejaVu Sans', 'Bitstream Vera Sans', 'Computer Modern Sans Serif', 'Lucida Grande', 'Verdana', 'Geneva', 'Lucid', 'Arial', 'Helvetica', 'Avant Garde', sans-serif; fill: #898781" transform="translate(266.531495 292.022853) rotate(-25)">structured_per_table</text>
     </g>
    </g>
    <g id="xtick_6">
     <g id="line2d_6"/>
     <g id="text_6">
      <text style="font-size: 9px; font-family: 'DejaVu Sans', 'Bitstream Vera Sans', 'Computer Modern Sans Serif', 'Lucida Grande', 'Verdana', 'Geneva', 'Lucid', 'Arial', 'Helvetica', 'Avant Garde', sans-serif; fill: #898781" transform="translate(331.914807 291.509966) rotate(-25)">write_tools_freeform</text>
     </g>
    </g>
    <g id="xtick_7">
     <g id="line2d_7"/>
     <g id="text_7">
      <text style="font-size: 9px; font-family: 'DejaVu Sans', 'Bitstream Vera Sans', 'Computer Modern Sans Serif', 'Lucida Grande', 'Verdana', 'Geneva', 'Lucid', 'Arial', 'Helvetica', 'Avant Garde', sans-serif; fill: #898781" transform="translate(356.40976 310.063634) rotate(-25)">write_tools_freeform_inlinedbt</text>
     </g>
    </g>
   </g>
   <g id="matplotlib.axis_2">
    <g id="ytick_1">
     <g id="line2d_8">
      <path d="M 47.28 242.896283 
L 528.12 242.896283 
" clip-path="url(#p54bbcdaf98)" style="fill: none; stroke: #898781; stroke-opacity: 0.18; stroke-width: 0.6; stroke-linecap: square"/>
     </g>
     <g id="line2d_9"/>
     <g id="text_8">
      <text style="font-size: 11px; font-family: 'DejaVu Sans', 'Bitstream Vera Sans', 'Computer Modern Sans Serif', 'Lucida Grande', 'Verdana', 'Geneva', 'Lucid', 'Arial', 'Helvetica', 'Avant Garde', sans-serif; text-anchor: end" x="43.78" y="247.075424" transform="rotate(-0 43.78 247.075424)">0.0</text>
     </g>
    </g>
    <g id="ytick_2">
     <g id="line2d_10">
      <path d="M 47.28 201.818896 
L 528.12 201.818896 
" clip-path="url(#p54bbcdaf98)" style="fill: none; stroke: #898781; stroke-opacity: 0.18; stroke-width: 0.6; stroke-linecap: square"/>
     </g>
     <g id="line2d_11"/>
     <g id="text_9">
      <text style="font-size: 11px; font-family: 'DejaVu Sans', 'Bitstream Vera Sans', 'Computer Modern Sans Serif', 'Lucida Grande', 'Verdana', 'Geneva', 'Lucid', 'Arial', 'Helvetica', 'Avant Garde', sans-serif; text-anchor: end" x="43.78" y="205.998037" transform="rotate(-0 43.78 205.998037)">0.2</text>
     </g>
    </g>
    <g id="ytick_3">
     <g id="line2d_12">
      <path d="M 47.28 160.741509 
L 528.12 160.741509 
" clip-path="url(#p54bbcdaf98)" style="fill: none; stroke: #898781; stroke-opacity: 0.18; stroke-width: 0.6; stroke-linecap: square"/>
     </g>
     <g id="line2d_13"/>
     <g id="text_10">
      <text style="font-size: 11px; font-family: 'DejaVu Sans', 'Bitstream Vera Sans', 'Computer Modern Sans Serif', 'Lucida Grande', 'Verdana', 'Geneva', 'Lucid', 'Arial', 'Helvetica', 'Avant Garde', sans-serif; text-anchor: end" x="43.78" y="164.920649" transform="rotate(-0 43.78 164.920649)">0.4</text>
     </g>
    </g>
    <g id="ytick_4">
     <g id="line2d_14">
      <path d="M 47.28 119.664121 
L 528.12 119.664121 
" clip-path="url(#p54bbcdaf98)" style="fill: none; stroke: #898781; stroke-opacity: 0.18; stroke-width: 0.6; stroke-linecap: square"/>
     </g>
     <g id="line2d_15"/>
     <g id="text_11">
      <text style="font-size: 11px; font-family: 'DejaVu Sans', 'Bitstream Vera Sans', 'Computer Modern Sans Serif', 'Lucida Grande', 'Verdana', 'Geneva', 'Lucid', 'Arial', 'Helvetica', 'Avant Garde', sans-serif; text-anchor: end" x="43.78" y="123.843262" transform="rotate(-0 43.78 123.843262)">0.6</text>
     </g>
    </g>
    <g id="ytick_5">
     <g id="line2d_16">
      <path d="M 47.28 78.586734 
L 528.12 78.586734 
" clip-path="url(#p54bbcdaf98)" style="fill: none; stroke: #898781; stroke-opacity: 0.18; stroke-width: 0.6; stroke-linecap: square"/>
     </g>
     <g id="line2d_17"/>
     <g id="text_12">
      <text style="font-size: 11px; font-family: 'DejaVu Sans', 'Bitstream Vera Sans', 'Computer Modern Sans Serif', 'Lucida Grande', 'Verdana', 'Geneva', 'Lucid', 'Arial', 'Helvetica', 'Avant Garde', sans-serif; text-anchor: end" x="43.78" y="82.765875" transform="rotate(-0 43.78 82.765875)">0.8</text>
     </g>
    </g>
    <g id="ytick_6">
     <g id="line2d_18">
      <path d="M 47.28 37.509347 
L 528.12 37.509347 
" clip-path="url(#p54bbcdaf98)" style="fill: none; stroke: #898781; stroke-opacity: 0.18; stroke-width: 0.6; stroke-linecap: square"/>
     </g>
     <g id="line2d_19"/>
     <g id="text_13">
      <text style="font-size: 11px; font-family: 'DejaVu Sans', 'Bitstream Vera Sans', 'Computer Modern Sans Serif', 'Lucida Grande', 'Verdana', 'Geneva', 'Lucid', 'Arial', 'Helvetica', 'Avant Garde', sans-serif; text-anchor: end" x="43.78" y="41.688487" transform="rotate(-0 43.78 41.688487)">1.0</text>
     </g>
    </g>
    <g id="text_14">
     <text style="font-size: 11px; font-family: 'DejaVu Sans', 'Bitstream Vera Sans', 'Computer Modern Sans Serif', 'Lucida Grande', 'Verdana', 'Geneva', 'Lucid', 'Arial', 'Helvetica', 'Avant Garde', sans-serif; text-anchor: middle; fill: #0b0b0b" x="19.998906" y="135.068142" transform="rotate(-90 19.998906 135.068142)">Field accuracy</text>
    </g>
   </g>
   <g id="patch_3">
    <path d="M 47.28 242.896283 
L 47.28 27.24 
" style="fill: none; stroke: #000000; stroke-width: 0.8; stroke-linejoin: miter; stroke-linecap: square"/>
   </g>
   <g id="patch_4">
    <path d="M 47.28 242.896283 
L 528.12 242.896283 
" style="fill: none; stroke: #000000; stroke-width: 0.8; stroke-linejoin: miter; stroke-linecap: square"/>
   </g>
   <g id="patch_5">
    <path d="M 69.136364 242.896283 
L 94.849733 242.896283 
L 94.849733 108.959661 
L 69.136364 108.959661 
z
" clip-path="url(#p54bbcdaf98)" style="fill: #c40d1e"/>
   </g>
   <g id="patch_6">
    <path d="M 133.419786 242.896283 
L 159.133155 242.896283 
L 159.133155 108.458025 
L 133.419786 108.458025 
z
" clip-path="url(#p54bbcdaf98)" style="fill: #ff6c00"/>
   </g>
   <g id="patch_7">
    <path d="M 197.703209 242.896283 
L 223.416578 242.896283 
L 223.416578 107.013232 
L 197.703209 107.013232 
z
" clip-path="url(#p54bbcdaf98)" style="fill: #e8a800"/>
   </g>
   <g id="patch_8">
    <path d="M 261.986631 242.896283 
L 287.7 242.896283 
L 287.7 107.012089 
L 261.986631 107.012089 
z
" clip-path="url(#p54bbcdaf98)" style="fill: #4f9d2e"/>
   </g>
   <g id="patch_9">
    <path d="M 326.270053 242.896283 
L 351.983422 242.896283 
L 351.983422 105.54832 
L 326.270053 105.54832 
z
" clip-path="url(#p54bbcdaf98)" style="fill: #b5297a"/>
   </g>
   <g id="patch_10">
    <path d="M 390.553476 242.896283 
L 416.266845 242.896283 
L 416.266845 105.930577 
L 390.553476 105.930577 
z
" clip-path="url(#p54bbcdaf98)" style="fill: #2f6fb0"/>
   </g>
   <g id="patch_11">
    <path d="M 454.836898 242.896283 
L 480.550267 242.896283 
L 480.550267 110.148318 
L 454.836898 110.148318 
z
" clip-path="url(#p54bbcdaf98)" style="fill: #7fb0dd"/>
   </g>
   <g id="patch_12">
    <path d="M 94.849733 242.896283 
L 120.563102 242.896283 
L 120.563102 93.219427 
L 94.849733 93.219427 
z
" clip-path="url(#p54bbcdaf98)" style="fill: url(#hb6a19abe04)"/>
   </g>
   <g id="patch_13">
    <path d="M 159.133155 242.896283 
L 184.846524 242.896283 
L 184.846524 103.921105 
L 159.133155 103.921105 
z
" clip-path="url(#p54bbcdaf98)" style="fill: url(#h140f9f836e)"/>
   </g>
   <g id="patch_14">
    <path d="M 223.416578 242.896283 
L 249.129947 242.896283 
L 249.129947 94.778587 
L 223.416578 94.778587 
z
" clip-path="url(#p54bbcdaf98)" style="fill: url(#h1f490f12f1)"/>
   </g>
   <g id="patch_15">
    <path d="M 287.7 242.896283 
L 313.413369 242.896283 
L 313.413369 102.508271 
L 287.7 102.508271 
z
" clip-path="url(#p54bbcdaf98)" style="fill: url(#h3a48200865)"/>
   </g>
   <g id="patch_16">
    <path d="M 351.983422 242.896283 
L 377.696791 242.896283 
L 377.696791 92.769017 
L 351.983422 92.769017 
z
" clip-path="url(#p54bbcdaf98)" style="fill: url(#hb22d482a66)"/>
   </g>
   <g id="patch_17">
    <path d="M 416.266845 242.896283 
L 441.980214 242.896283 
L 441.980214 95.062616 
L 416.266845 95.062616 
z
" clip-path="url(#p54bbcdaf98)" style="fill: url(#h55045b728e)"/>
   </g>
   <g id="patch_18">
    <path d="M 480.550267 242.896283 
L 506.263636 242.896283 
L 506.263636 103.983463 
L 480.550267 103.983463 
z
" clip-path="url(#p54bbcdaf98)" style="fill: url(#h58b3e2ab67)"/>
   </g>
   <g id="text_15">
    <text style="font-size: 12px; font-family: 'DejaVu Sans', 'Bitstream Vera Sans', 'Computer Modern Sans Serif', 'Lucida Grande', 'Verdana', 'Geneva', 'Lucid', 'Arial', 'Helvetica', 'Avant Garde', sans-serif; text-anchor: start; fill: #0b0b0b" x="47.28" y="21.24" transform="rotate(-0 47.28 21.24)">Field accuracy by strategy — context mode</text>
   </g>
   <g id="LineCollection_1">
    <path d="M 81.993048 119.241935 
L 81.993048 85.701645 
" clip-path="url(#p54bbcdaf98)" style="fill: none; stroke: #898781; stroke-width: 0.9"/>
    <path d="M 146.276471 120.607735 
L 146.276471 101.7566 
" clip-path="url(#p54bbcdaf98)" style="fill: none; stroke: #898781; stroke-width: 0.9"/>
    <path d="M 210.559893 115.069091 
L 210.559893 89.016456 
" clip-path="url(#p54bbcdaf98)" style="fill: none; stroke: #898781; stroke-width: 0.9"/>
    <path d="M 274.843316 117.864733 
L 274.843316 100.32325 
" clip-path="url(#p54bbcdaf98)" style="fill: none; stroke: #898781; stroke-width: 0.9"/>
    <path d="M 339.126738 111.91144 
L 339.126738 83.670622 
" clip-path="url(#p54bbcdaf98)" style="fill: none; stroke: #898781; stroke-width: 0.9"/>
    <path d="M 403.41016 116.242947 
L 403.41016 78.832642 
" clip-path="url(#p54bbcdaf98)" style="fill: none; stroke: #898781; stroke-width: 0.9"/>
    <path d="M 467.693583 123.562746 
L 467.693583 103.997292 
" clip-path="url(#p54bbcdaf98)" style="fill: none; stroke: #898781; stroke-width: 0.9"/>
   </g>
   <g id="line2d_20">
    <defs>
     <path id="md1b8744651" d="M 2 0 
L -2 -0 
" style="stroke: #898781"/>
    </defs>
    <g clip-path="url(#p54bbcdaf98)">
     <use xlink:href="#md1b8744651" x="81.993048" y="119.241935" style="fill: #1f77b4; stroke: #898781"/>
     <use xlink:href="#md1b8744651" x="146.276471" y="120.607735" style="fill: #1f77b4; stroke: #898781"/>
     <use xlink:href="#md1b8744651" x="210.559893" y="115.069091" style="fill: #1f77b4; stroke: #898781"/>
     <use xlink:href="#md1b8744651" x="274.843316" y="117.864733" style="fill: #1f77b4; stroke: #898781"/>
     <use xlink:href="#md1b8744651" x="339.126738" y="111.91144" style="fill: #1f77b4; stroke: #898781"/>
     <use xlink:href="#md1b8744651" x="403.41016" y="116.242947" style="fill: #1f77b4; stroke: #898781"/>
     <use xlink:href="#md1b8744651" x="467.693583" y="123.562746" style="fill: #1f77b4; stroke: #898781"/>
    </g>
   </g>
   <g id="line2d_21">
    <g clip-path="url(#p54bbcdaf98)">
     <use xlink:href="#md1b8744651" x="81.993048" y="85.701645" style="fill: #1f77b4; stroke: #898781"/>
     <use xlink:href="#md1b8744651" x="146.276471" y="101.7566" style="fill: #1f77b4; stroke: #898781"/>
     <use xlink:href="#md1b8744651" x="210.559893" y="89.016456" style="fill: #1f77b4; stroke: #898781"/>
     <use xlink:href="#md1b8744651" x="274.843316" y="100.32325" style="fill: #1f77b4; stroke: #898781"/>
     <use xlink:href="#md1b8744651" x="339.126738" y="83.670622" style="fill: #1f77b4; stroke: #898781"/>
     <use xlink:href="#md1b8744651" x="403.41016" y="78.832642" style="fill: #1f77b4; stroke: #898781"/>
     <use xlink:href="#md1b8744651" x="467.693583" y="103.997292" style="fill: #1f77b4; stroke: #898781"/>
    </g>
   </g>
   <g id="LineCollection_2">
    <path d="M 107.706417 118.615253 
L 107.706417 82.922205 
" clip-path="url(#p54bbcdaf98)" style="fill: none; stroke: #898781; stroke-width: 0.9"/>
    <path d="M 171.98984 120.511792 
L 171.98984 95.931482 
" clip-path="url(#p54bbcdaf98)" style="fill: none; stroke: #898781; stroke-width: 0.9"/>
    <path d="M 236.273262 113.272592 
L 236.273262 88.720558 
" clip-path="url(#p54bbcdaf98)" style="fill: none; stroke: #898781; stroke-width: 0.9"/>
    <path d="M 300.556684 120.4953 
L 300.556684 84.529845 
" clip-path="url(#p54bbcdaf98)" style="fill: none; stroke: #898781; stroke-width: 0.9"/>
    <path d="M 364.840107 102.643886 
L 364.840107 78.859372 
" clip-path="url(#p54bbcdaf98)" style="fill: none; stroke: #898781; stroke-width: 0.9"/>
    <path d="M 429.123529 123.529763 
L 429.123529 78.859372 
" clip-path="url(#p54bbcdaf98)" style="fill: none; stroke: #898781; stroke-width: 0.9"/>
    <path d="M 493.406952 121.559011 
L 493.406952 90.513658 
" clip-path="url(#p54bbcdaf98)" style="fill: none; stroke: #898781; stroke-width: 0.9"/>
   </g>
   <g id="line2d_22">
    <g clip-path="url(#p54bbcdaf98)">
     <use xlink:href="#md1b8744651" x="107.706417" y="118.615253" style="fill: #1f77b4; stroke: #898781"/>
     <use xlink:href="#md1b8744651" x="171.98984" y="120.511792" style="fill: #1f77b4; stroke: #898781"/>
     <use xlink:href="#md1b8744651" x="236.273262" y="113.272592" style="fill: #1f77b4; stroke: #898781"/>
     <use xlink:href="#md1b8744651" x="300.556684" y="120.4953" style="fill: #1f77b4; stroke: #898781"/>
     <use xlink:href="#md1b8744651" x="364.840107" y="102.643886" style="fill: #1f77b4; stroke: #898781"/>
     <use xlink:href="#md1b8744651" x="429.123529" y="123.529763" style="fill: #1f77b4; stroke: #898781"/>
     <use xlink:href="#md1b8744651" x="493.406952" y="121.559011" style="fill: #1f77b4; stroke: #898781"/>
    </g>
   </g>
   <g id="line2d_23">
    <g clip-path="url(#p54bbcdaf98)">
     <use xlink:href="#md1b8744651" x="107.706417" y="82.922205" style="fill: #1f77b4; stroke: #898781"/>
     <use xlink:href="#md1b8744651" x="171.98984" y="95.931482" style="fill: #1f77b4; stroke: #898781"/>
     <use xlink:href="#md1b8744651" x="236.273262" y="88.720558" style="fill: #1f77b4; stroke: #898781"/>
     <use xlink:href="#md1b8744651" x="300.556684" y="84.529845" style="fill: #1f77b4; stroke: #898781"/>
     <use xlink:href="#md1b8744651" x="364.840107" y="78.859372" style="fill: #1f77b4; stroke: #898781"/>
     <use xlink:href="#md1b8744651" x="429.123529" y="78.859372" style="fill: #1f77b4; stroke: #898781"/>
     <use xlink:href="#md1b8744651" x="493.406952" y="90.513658" style="fill: #1f77b4; stroke: #898781"/>
    </g>
   </g>
   <g id="legend_1">
    <g id="patch_19">
     <path d="M 428.745938 42.178594 
L 446.745938 42.178594 
L 446.745938 35.878594 
L 428.745938 35.878594 
z
" style="fill: #898781"/>
    </g>
    <g id="text_16">
     <text style="font-size: 9px; font-family: 'DejaVu Sans', 'Bitstream Vera Sans', 'Computer Modern Sans Serif', 'Lucida Grande', 'Verdana', 'Geneva', 'Lucid', 'Arial', 'Helvetica', 'Avant Garde', sans-serif; text-anchor: start; fill: #0b0b0b" x="453.945938" y="42.178594" transform="rotate(-0 453.945938 42.178594)">metadata-only</text>
    </g>
    <g id="patch_20">
     <path d="M 428.745938 55.388906 
L 446.745938 55.388906 
L 446.745938 49.088906 
L 428.745938 49.088906 
z
" style="fill: url(#hb0d9ddce19)"/>
    </g>
    <g id="text_17">
     <text style="font-size: 9px; font-family: 'DejaVu Sans', 'Bitstream Vera Sans', 'Computer Modern Sans Serif', 'Lucida Grande', 'Verdana', 'Geneva', 'Lucid', 'Arial', 'Helvetica', 'Avant Garde', sans-serif; text-anchor: start; fill: #0b0b0b" x="453.945938" y="55.388906" transform="rotate(-0 453.945938 55.388906)">live-query</text>
    </g>
   </g>
  </g>
 </g>
 <defs>
  <clipPath id="p54bbcdaf98">
   <rect x="47.28" y="27.24" width="480.84" height="215.656283"/>
  </clipPath>
 </defs>
 <defs>
  <pattern id="hb6a19abe04" patternUnits="userSpaceOnUse" x="0" y="0" width="72" height="72">
   <rect x="0" y="0" width="73" height="73" fill="#c40d1e"/>
   <path d="M -36 36 
L 36 -36 
M -32 40 
L 40 -32 
M -28 44 
L 44 -28 
M -24 48 
L 48 -24 
M -20 52 
L 52 -20 
M -16 56 
L 56 -16 
M -12 60 
L 60 -12 
M -8 64 
L 64 -8 
M -4 68 
L 68 -4 
M 0 72 
L 72 0 
M 4 76 
L 76 4 
M 8 80 
L 80 8 
M 12 84 
L 84 12 
M 16 88 
L 88 16 
M 20 92 
L 92 20 
M 24 96 
L 96 24 
M 28 100 
L 100 28 
M 32 104 
L 104 32 
M 36 108 
L 108 36 
" style="fill: #ffffff; stroke: #ffffff; stroke-width: 0.5; stroke-linecap: butt; stroke-linejoin: miter"/>
  </pattern>
  <pattern id="h140f9f836e" patternUnits="userSpaceOnUse" x="0" y="0" width="72" height="72">
   <rect x="0" y="0" width="73" height="73" fill="#ff6c00"/>
   <path d="M -36 36 
L 36 -36 
M -32 40 
L 40 -32 
M -28 44 
L 44 -28 
M -24 48 
L 48 -24 
M -20 52 
L 52 -20 
M -16 56 
L 56 -16 
M -12 60 
L 60 -12 
M -8 64 
L 64 -8 
M -4 68 
L 68 -4 
M 0 72 
L 72 0 
M 4 76 
L 76 4 
M 8 80 
L 80 8 
M 12 84 
L 84 12 
M 16 88 
L 88 16 
M 20 92 
L 92 20 
M 24 96 
L 96 24 
M 28 100 
L 100 28 
M 32 104 
L 104 32 
M 36 108 
L 108 36 
" style="fill: #ffffff; stroke: #ffffff; stroke-width: 0.5; stroke-linecap: butt; stroke-linejoin: miter"/>
  </pattern>
  <pattern id="h1f490f12f1" patternUnits="userSpaceOnUse" x="0" y="0" width="72" height="72">
   <rect x="0" y="0" width="73" height="73" fill="#e8a800"/>
   <path d="M -36 36 
L 36 -36 
M -32 40 
L 40 -32 
M -28 44 
L 44 -28 
M -24 48 
L 48 -24 
M -20 52 
L 52 -20 
M -16 56 
L 56 -16 
M -12 60 
L 60 -12 
M -8 64 
L 64 -8 
M -4 68 
L 68 -4 
M 0 72 
L 72 0 
M 4 76 
L 76 4 
M 8 80 
L 80 8 
M 12 84 
L 84 12 
M 16 88 
L 88 16 
M 20 92 
L 92 20 
M 24 96 
L 96 24 
M 28 100 
L 100 28 
M 32 104 
L 104 32 
M 36 108 
L 108 36 
" style="fill: #ffffff; stroke: #ffffff; stroke-width: 0.5; stroke-linecap: butt; stroke-linejoin: miter"/>
  </pattern>
  <pattern id="h3a48200865" patternUnits="userSpaceOnUse" x="0" y="0" width="72" height="72">
   <rect x="0" y="0" width="73" height="73" fill="#4f9d2e"/>
   <path d="M -36 36 
L 36 -36 
M -32 40 
L 40 -32 
M -28 44 
L 44 -28 
M -24 48 
L 48 -24 
M -20 52 
L 52 -20 
M -16 56 
L 56 -16 
M -12 60 
L 60 -12 
M -8 64 
L 64 -8 
M -4 68 
L 68 -4 
M 0 72 
L 72 0 
M 4 76 
L 76 4 
M 8 80 
L 80 8 
M 12 84 
L 84 12 
M 16 88 
L 88 16 
M 20 92 
L 92 20 
M 24 96 
L 96 24 
M 28 100 
L 100 28 
M 32 104 
L 104 32 
M 36 108 
L 108 36 
" style="fill: #ffffff; stroke: #ffffff; stroke-width: 0.5; stroke-linecap: butt; stroke-linejoin: miter"/>
  </pattern>
  <pattern id="hb22d482a66" patternUnits="userSpaceOnUse" x="0" y="0" width="72" height="72">
   <rect x="0" y="0" width="73" height="73" fill="#b5297a"/>
   <path d="M -36 36 
L 36 -36 
M -32 40 
L 40 -32 
M -28 44 
L 44 -28 
M -24 48 
L 48 -24 
M -20 52 
L 52 -20 
M -16 56 
L 56 -16 
M -12 60 
L 60 -12 
M -8 64 
L 64 -8 
M -4 68 
L 68 -4 
M 0 72 
L 72 0 
M 4 76 
L 76 4 
M 8 80 
L 80 8 
M 12 84 
L 84 12 
M 16 88 
L 88 16 
M 20 92 
L 92 20 
M 24 96 
L 96 24 
M 28 100 
L 100 28 
M 32 104 
L 104 32 
M 36 108 
L 108 36 
" style="fill: #ffffff; stroke: #ffffff; stroke-width: 0.5; stroke-linecap: butt; stroke-linejoin: miter"/>
  </pattern>
  <pattern id="h55045b728e" patternUnits="userSpaceOnUse" x="0" y="0" width="72" height="72">
   <rect x="0" y="0" width="73" height="73" fill="#2f6fb0"/>
   <path d="M -36 36 
L 36 -36 
M -32 40 
L 40 -32 
M -28 44 
L 44 -28 
M -24 48 
L 48 -24 
M -20 52 
L 52 -20 
M -16 56 
L 56 -16 
M -12 60 
L 60 -12 
M -8 64 
L 64 -8 
M -4 68 
L 68 -4 
M 0 72 
L 72 0 
M 4 76 
L 76 4 
M 8 80 
L 80 8 
M 12 84 
L 84 12 
M 16 88 
L 88 16 
M 20 92 
L 92 20 
M 24 96 
L 96 24 
M 28 100 
L 100 28 
M 32 104 
L 104 32 
M 36 108 
L 108 36 
" style="fill: #ffffff; stroke: #ffffff; stroke-width: 0.5; stroke-linecap: butt; stroke-linejoin: miter"/>
  </pattern>
  <pattern id="h58b3e2ab67" patternUnits="userSpaceOnUse" x="0" y="0" width="72" height="72">
   <rect x="0" y="0" width="73" height="73" fill="#7fb0dd"/>
   <path d="M -36 36 
L 36 -36 
M -32 40 
L 40 -32 
M -28 44 
L 44 -28 
M -24 48 
L 48 -24 
M -20 52 
L 52 -20 
M -16 56 
L 56 -16 
M -12 60 
L 60 -12 
M -8 64 
L 64 -8 
M -4 68 
L 68 -4 
M 0 72 
L 72 0 
M 4 76 
L 76 4 
M 8 80 
L 80 8 
M 12 84 
L 84 12 
M 16 88 
L 88 16 
M 20 92 
L 92 20 
M 24 96 
L 96 24 
M 28 100 
L 100 28 
M 32 104 
L 104 32 
M 36 108 
L 108 36 
" style="fill: #ffffff; stroke: #ffffff; stroke-width: 0.5; stroke-linecap: butt; stroke-linejoin: miter"/>
  </pattern>
  <pattern id="hb0d9ddce19" patternUnits="userSpaceOnUse" x="0" y="0" width="72" height="72">
   <rect x="0" y="0" width="73" height="73" fill="#898781"/>
   <path d="M -36 36 
L 36 -36 
M -32 40 
L 40 -32 
M -28 44 
L 44 -28 
M -24 48 
L 48 -24 
M -20 52 
L 52 -20 
M -16 56 
L 56 -16 
M -12 60 
L 60 -12 
M -8 64 
L 64 -8 
M -4 68 
L 68 -4 
M 0 72 
L 72 0 
M 4 76 
L 76 4 
M 8 80 
L 80 8 
M 12 84 
L 84 12 
M 16 88 
L 88 16 
M 20 92 
L 92 20 
M 24 96 
L 96 24 
M 28 100 
L 100 28 
M 32 104 
L 104 32 
M 36 108 
L 108 36 
" style="fill: #ffffff; stroke: #ffffff; stroke-width: 0.5; stroke-linecap: butt; stroke-linejoin: miter"/>
  </pattern>
 </defs>
</svg>
