<?xml version="1.0" encoding="utf-8" standalone="no"?>
<!DOCTYPE svg PUBLIC "-//W3C//DTD SVG 1.1//EN"
  "http://www.w3.org/Graphics/SVG/1.1/DTD/svg11.dtd">
<svg xmlns:xlink="http://www.w3.org/1999/xlink" width="540pt" height="324pt" viewBox="0 0 540 324" xmlns="http://www.w3.org/2000/svg" version="1.1">
 <metadata>
  <rdf:RDF xmlns:dc="http://purl.org/dc/elements/1.1/" xmlns:cc="http://creativecommons.org/ns#" xmlns:rdf="http://www.w3.org/1999/02/22-rdf-syntax-ns#">
   <cc:Work>
    <dc:type rdf:resource="http://purl.org/dc/dcmitype/StillImage"/>
    <dc:format>image/svg+xml</dc:format>
    <dc:creator>
     <cc:Agent>
      <dc:title>Matplotlib v3.10.9, https://matplotlib.org/</dc:title>
     </cc:Agent>
    </dc:creator>
   </cc:Work>
  </rdf:RDF>
 </metadata>
 <defs>
  <style type="text/css">*{stroke-linejoin: round; stroke-linecap: butt}</style>
 </defs>
 <g id="figure_1">
  <g id="patch_1">
   <path d="M 0 324 
L 540 324 
L 540 0 
L 0 0 
L 0 324 
z
" style="fill: none"/>
  </g>
  <g id="axes_1">
   <g id="patch_2">
    <path d="M 47.28 260.982232 
L 528.12 260.982232 
L 528.12 41.24 
L 47.28 41.24 
L 47.28 260.982232 
z
" style="fill: none"/>
   </g>
   <g id="matplotlib.axis_1">
    <g id="xtick_1">
     <g id="line2d_1"/>
     <g id="text_1">
      <text style="font-size: 9px; font-family: 'DejaVu Sans', 'Bitstream Vera Sans', 'Computer Modern Sans Serif', 'Lucida Grande', 'Verdana', 'Geneva', 'Lucid', 'Arial', 'Helvetica', 'Avant Garde', sans-serif; fill: #898781" transform="translate(42.68812 299.581249) rotate(-25)">ensemble_vote</text>
     </g>
    </g>
    <g id="xtick_2">
     <g id="line2d_2"/>
     <g id="text_2">
      <text style="font-size: 9px; font-family: 'DejaVu Sans', 'Bitstream Vera Sans', 'Computer Modern Sans Serif', 'Lucida Grande', 'Verdana', 'Geneva', 'Lucid', 'Arial', 'Helvetica', 'Avant Garde', sans-serif; fill: #898781" transform="translate(119.071566 306.428853) rotate(-25)">plan_then_execute</text>
     </g>
    </g>
    <g id="xtick_3">
     <g id="line2d_3"/>
     <g id="text_3">
      <text style="font-size: 9px; font-family: 'DejaVu Sans', 'Bitstream Vera Sans', 'Computer Modern Sans Serif', 'Lucida Grande', 'Verdana', 'Geneva', 'Lucid', 'Arial', 'Helvetica', 'Avant Garde', sans-serif; fill: #898781" transform="translate(208.649863 307.123598) rotate(-25)">write_then_critique</text>
     </g>
    </g>
    <g id="xtick_4">
     <g id="line2d_4"/>
     <g id="text_4">
      <text style="font-size: 9px; font-family: 'DejaVu Sans', 'Bitstream Vera Sans', 'Computer Modern Sans Serif', 'Lucida Grande', 'Verdana', 'Geneva', 'Lucid', 'Arial', 'Helvetica', 'Avant Garde', sans-serif; fill: #898781" transform="translate(293.316255 310.108802) rotate(-25)">structured_per_table</text>
     </g>
    </g>
    <g id="xtick_5">
     <g id="line2d_5"/>
     <g id="text_5">
      <text style="font-size: 9px; font-family: 'DejaVu Sans', 'Bitstream Vera Sans', 'Computer Modern Sans Serif', 'Lucida Grande', 'Verdana', 'Geneva', 'Lucid', 'Arial', 'Helvetica', 'Avant Garde', sans-serif; fill: #898781" transform="translate(385.484326 309.595915) rotate(-25)">write_tools_freeform</text>
     </g>
    </g>
   </g>
   <g id="matplotlib.axis_2">
    <g id="ytick_1">
     <g id="line2d_6">
      <path d="M 47.28 260.982232 
L 528.12 260.982232 
" clip-path="url(#p906d9d97c9)" style="fill: none; stroke: #898781; stroke-opacity: 0.18; stroke-width: 0.6; stroke-linecap: square"/>
     </g>
     <g id="line2d_7"/>
     <g id="text_6">
      <text style="font-size: 11px; font-family: 'DejaVu Sans', 'Bitstream Vera Sans', 'Computer Modern Sans Serif', 'Lucida Grande', 'Verdana', 'Geneva', 'Lucid', 'Arial', 'Helvetica', 'Avant Garde', sans-serif; text-anchor: end" x="43.78" y="265.161373" transform="rotate(-0 43.78 265.161373)">0.0</text>
     </g>
    </g>
    <g id="ytick_2">
     <g id="line2d_8">
      <path d="M 47.28 219.126569 
L 528.12 219.126569 
" clip-path="url(#p906d9d97c9)" style="fill: none; stroke: #898781; stroke-opacity: 0.18; stroke-width: 0.6; stroke-linecap: square"/>
     </g>
     <g id="line2d_9"/>
     <g id="text_7">
      <text style="font-size: 11px; font-family: 'DejaVu Sans', 'Bitstream Vera Sans', 'Computer Modern Sans Serif', 'Lucida Grande', 'Verdana', 'Geneva', 'Lucid', 'Arial', 'Helvetica', 'Avant Garde', sans-serif; text-anchor: end" x="43.78" y="223.305709" transform="rotate(-0 43.78 223.305709)">0.2</text>
     </g>
    </g>
    <g id="ytick_3">
     <g id="line2d_10">
      <path d="M 47.28 177.270905 
L 528.12 177.270905 
" clip-path="url(#p906d9d97c9)" style="fill: none; stroke: #898781; stroke-opacity: 0.18; stroke-width: 0.6; stroke-linecap: square"/>
     </g>
     <g id="line2d_11"/>
     <g id="text_8">
      <text style="font-size: 11px; font-family: 'DejaVu Sans', 'Bitstream Vera Sans', 'Computer Modern Sans Serif', 'Lucida Grande', 'Verdana', 'Geneva', 'Lucid', 'Arial', 'Helvetica', 'Avant Garde', sans-serif; text-anchor: end" x="43.78" y="181.450046" transform="rotate(-0 43.78 181.450046)">0.4</text>
     </g>
    </g>
    <g id="ytick_4">
     <g id="line2d_12">
      <path d="M 47.28 135.415242 
L 528.12 135.415242 
" clip-path="url(#p906d9d97c9)" style="fill: none; stroke: #898781; stroke-opacity: 0.18; stroke-width: 0.6; stroke-linecap: square"/>
     </g>
     <g id="line2d_13"/>
     <g id="text_9">
      <text style="font-size: 11px; font-family: 'DejaVu Sans', 'Bitstream Vera Sans', 'Computer Modern Sans Serif', 'Lucida Grande', 'Verdana', 'Geneva', 'Lucid', 'Arial', 'Helvetica', 'Avant Garde', sans-serif; text-anchor: end" x="43.78" y="139.594383" transform="rotate(-0 43.78 139.594383)">0.6</text>
     </g>
    </g>
    <g id="ytick_5">
     <g id="line2d_14">
      <path d="M 47.28 93.559579 
L 528.12 93.559579 
" clip-path="url(#p906d9d97c9)" style="fill: none; stroke: #898781; stroke-opacity: 0.18; stroke-width: 0.6; stroke-linecap: square"/>
     </g>
     <g id="line2d_15"/>
     <g id="text_10">
      <text style="font-size: 11px; font-family: 'DejaVu Sans', 'Bitstream Vera Sans', 'Computer Modern Sans Serif', 'Lucida Grande', 'Verdana', 'Geneva', 'Lucid', 'Arial', 'Helvetica', 'Avant Garde', sans-serif; text-anchor: end" x="43.78" y="97.73872" transform="rotate(-0 43.78 97.73872)">0.8</text>
     </g>
    </g>
    <g id="ytick_6">
     <g id="line2d_16">
      <path d="M 47.28 51.703916 
L 528.12 51.703916 
" clip-path="url(#p906d9d97c9)" style="fill: none; stroke: #898781; stroke-opacity: 0.18; stroke-width: 0.6; stroke-linecap: square"/>
     </g>
     <g id="line2d_17"/>
     <g id="text_11">
      <text style="font-size: 11px; font-family: 'DejaVu Sans', 'Bitstream Vera Sans', 'Computer Modern Sans Serif', 'Lucida Grande', 'Verdana', 'Geneva', 'Lucid', 'Arial', 'Helvetica', 'Avant Garde', sans-serif; text-anchor: end" x="43.78" y="55.883056" transform="rotate(-0 43.78 55.883056)">1.0</text>
     </g>
    </g>
    <g id="text_12">
     <text style="font-size: 11px; font-family: 'DejaVu Sans', 'Bitstream Vera Sans', 'Computer Modern Sans Serif', 'Lucida Grande', 'Verdana', 'Geneva', 'Lucid', 'Arial', 'Helvetica', 'Avant Garde', sans-serif; text-anchor: middle; fill: #0b0b0b" x="19.998906" y="151.111116" transform="rotate(-90 19.998906 151.111116)">Field accuracy</text>
    </g>
   </g>
   <g id="patch_3">
    <path d="M 47.28 260.982232 
L 47.28 41.24 
" style="fill: none; stroke: #000000; stroke-width: 0.8; stroke-linejoin: miter; stroke-linecap: square"/>
   </g>
   <g id="patch_4">
    <path d="M 47.28 260.982232 
L 528.12 260.982232 
" style="fill: none; stroke: #000000; stroke-width: 0.8; stroke-linejoin: miter; stroke-linecap: square"/>
   </g>
   <g id="patch_5">
    <path d="M 69.136364 260.982232 
L 105.563636 260.982232 
L 105.563636 118.30961 
L 69.136364 118.30961 
z
" clip-path="url(#p906d9d97c9)" style="fill: #c40d1e"/>
   </g>
   <g id="patch_6">
    <path d="M 160.204545 260.982232 
L 196.631818 260.982232 
L 196.631818 122.067258 
L 160.204545 122.067258 
z
" clip-path="url(#p906d9d97c9)" style="fill: #ff6c00"/>
   </g>
   <g id="patch_7">
    <path d="M 251.272727 260.982232 
L 287.7 260.982232 
L 287.7 110.801019 
L 251.272727 110.801019 
z
" clip-path="url(#p906d9d97c9)" style="fill: #e8a800"/>
   </g>
   <g id="patch_8">
    <path d="M 342.340909 260.982232 
L 378.768182 260.982232 
L 378.768182 110.276602 
L 342.340909 110.276602 
z
" clip-path="url(#p906d9d97c9)" style="fill: #b5297a"/>
   </g>
   <g id="patch_9">
    <path d="M 433.409091 260.982232 
L 469.836364 260.982232 
L 469.836364 115.326267 
L 433.409091 115.326267 
z
" clip-path="url(#p906d9d97c9)" style="fill: #2f6fb0"/>
   </g>
   <g id="patch_10">
    <path d="M 105.563636 260.982232 
L 141.990909 260.982232 
L 141.990909 115.681859 
L 105.563636 115.681859 
z
" clip-path="url(#p906d9d97c9)" style="fill: url(#h6b8c85486f)"/>
   </g>
   <g id="patch_11">
    <path d="M 196.631818 260.982232 
L 233.059091 260.982232 
L 233.059091 121.684689 
L 196.631818 121.684689 
z
" clip-path="url(#p906d9d97c9)" style="fill: url(#hb08d887a91)"/>
   </g>
   <g id="patch_12">
    <path d="M 287.7 260.982232 
L 324.127273 260.982232 
L 324.127273 113.707367 
L 287.7 113.707367 
z
" clip-path="url(#p906d9d97c9)" style="fill: url(#h8e8b3c0068)"/>
   </g>
   <g id="patch_13">
    <path d="M 378.768182 260.982232 
L 415.195455 260.982232 
L 415.195455 119.685478 
L 378.768182 119.685478 
z
" clip-path="url(#p906d9d97c9)" style="fill: url(#h893b482fe6)"/>
   </g>
   <g id="patch_14">
    <path d="M 469.836364 260.982232 
L 506.263636 260.982232 
L 506.263636 119.89944 
L 469.836364 119.89944 
z
" clip-path="url(#p906d9d97c9)" style="fill: url(#h6bd0ace717)"/>
   </g>
   <g id="text_13">
    <text style="font-size: 9px; font-family: 'DejaVu Sans', 'Bitstream Vera Sans', 'Computer Modern Sans Serif', 'Lucida Grande', 'Verdana', 'Geneva', 'Lucid', 'Arial', 'Helvetica', 'Avant Garde', sans-serif; text-anchor: start; fill: #898781" x="47.28" y="36.072148" transform="rotate(-0 47.28 36.072148)">median per bar · N=205 runs</text>
   </g>
   <g id="text_14">
    <text style="font-size: 12px; font-family: 'DejaVu Sans', 'Bitstream Vera Sans', 'Computer Modern Sans Serif', 'Lucida Grande', 'Verdana', 'Geneva', 'Lucid', 'Arial', 'Helvetica', 'Avant Garde', sans-serif; text-anchor: start; fill: #0b0b0b" x="47.28" y="21.24" transform="rotate(-0 47.28 21.24)">Field accuracy by strategy — self-correction</text>
   </g>
   <g id="LineCollection_1">
    <path d="M 87.35 134.825418 
L 87.35 99.913792 
" clip-path="url(#p906d9d97c9)" style="fill: none; stroke: #898781; stroke-width: 0.9"/>
    <path d="M 178.418182 136.796837 
L 178.418182 114.521418 
" clip-path="url(#p906d9d97c9)" style="fill: none; stroke: #898781; stroke-width: 0.9"/>
    <path d="M 269.486364 129.613259 
L 269.486364 95.261433 
" clip-path="url(#p906d9d97c9)" style="fill: none; stroke: #898781; stroke-width: 0.9"/>
    <path d="M 360.554545 120.778514 
L 360.554545 93.810147 
" clip-path="url(#p906d9d97c9)" style="fill: none; stroke: #898781; stroke-width: 0.9"/>
    <path d="M 451.622727 139.370928 
L 451.622727 93.837382 
" clip-path="url(#p906d9d97c9)" style="fill: none; stroke: #898781; stroke-width: 0.9"/>
   </g>
   <g id="line2d_18">
    <defs>
     <path id="m1816195746" d="M 2 0 
L -2 -0 
" style="stroke: #898781"/>
    </defs>
    <g clip-path="url(#p906d9d97c9)">
     <use xlink:href="#m1816195746" x="87.35" y="134.825418" style="fill: #1f77b4; stroke: #898781"/>
     <use xlink:href="#m1816195746" x="178.418182" y="136.796837" style="fill: #1f77b4; stroke: #898781"/>
     <use xlink:href="#m1816195746" x="269.486364" y="129.613259" style="fill: #1f77b4; stroke: #898781"/>
     <use xlink:href="#m1816195746" x="360.554545" y="120.778514" style="fill: #1f77b4; stroke: #898781"/>
     <use xlink:href="#m1816195746" x="451.622727" y="139.370928" style="fill: #1f77b4; stroke: #898781"/>
    </g>
   </g>
   <g id="line2d_19">
    <g clip-path="url(#p906d9d97c9)">
     <use xlink:href="#m1816195746" x="87.35" y="99.913792" style="fill: #1f77b4; stroke: #898781"/>
     <use xlink:href="#m1816195746" x="178.418182" y="114.521418" style="fill: #1f77b4; stroke: #898781"/>
     <use xlink:href="#m1816195746" x="269.486364" y="95.261433" style="fill: #1f77b4; stroke: #898781"/>
     <use xlink:href="#m1816195746" x="360.554545" y="93.810147" style="fill: #1f77b4; stroke: #898781"/>
     <use xlink:href="#m1816195746" x="451.622727" y="93.837382" style="fill: #1f77b4; stroke: #898781"/>
    </g>
   </g>
   <g id="LineCollection_2">
    <path d="M 123.777273 133.803641 
L 123.777273 100.784773 
" clip-path="url(#p906d9d97c9)" style="fill: none; stroke: #898781; stroke-width: 0.9"/>
    <path d="M 214.845455 135.665211 
L 214.845455 111.330857 
" clip-path="url(#p906d9d97c9)" style="fill: none; stroke: #898781; stroke-width: 0.9"/>
    <path d="M 305.913636 131.641699 
L 305.913636 104.704385 
" clip-path="url(#p906d9d97c9)" style="fill: none; stroke: #898781; stroke-width: 0.9"/>
    <path d="M 396.981818 127.515674 
L 396.981818 98.739789 
" clip-path="url(#p906d9d97c9)" style="fill: none; stroke: #898781; stroke-width: 0.9"/>
    <path d="M 488.05 135.602054 
L 488.05 93.810147 
" clip-path="url(#p906d9d97c9)" style="fill: none; stroke: #898781; stroke-width: 0.9"/>
   </g>
   <g id="line2d_20">
    <g clip-path="url(#p906d9d97c9)">
     <use xlink:href="#m1816195746" x="123.777273" y="133.803641" style="fill: #1f77b4; stroke: #898781"/>
     <use xlink:href="#m1816195746" x="214.845455" y="135.665211" style="fill: #1f77b4; stroke: #898781"/>
     <use xlink:href="#m1816195746" x="305.913636" y="131.641699" style="fill: #1f77b4; stroke: #898781"/>
     <use xlink:href="#m1816195746" x="396.981818" y="127.515674" style="fill: #1f77b4; stroke: #898781"/>
     <use xlink:href="#m1816195746" x="488.05" y="135.602054" style="fill: #1f77b4; stroke: #898781"/>
    </g>
   </g>
   <g id="line2d_21">
    <g clip-path="url(#p906d9d97c9)">
     <use xlink:href="#m1816195746" x="123.777273" y="100.784773" style="fill: #1f77b4; stroke: #898781"/>
     <use xlink:href="#m1816195746" x="214.845455" y="111.330857" style="fill: #1f77b4; stroke: #898781"/>
     <use xlink:href="#m1816195746" x="305.913636" y="104.704385" style="fill: #1f77b4; stroke: #898781"/>
     <use xlink:href="#m1816195746" x="396.981818" y="98.739789" style="fill: #1f77b4; stroke: #898781"/>
     <use xlink:href="#m1816195746" x="488.05" y="93.810147" style="fill: #1f77b4; stroke: #898781"/>
    </g>
   </g>
   <g id="text_15">
    <text style="font-size: 6.5px; font-family: 'DejaVu Sans', 'Bitstream Vera Sans', 'Computer Modern Sans Serif', 'Lucida Grande', 'Verdana', 'Geneva', 'Lucid', 'Arial', 'Helvetica', 'Avant Garde', sans-serif; text-anchor: middle; fill: #ffffff" x="87.35" y="256.630435" transform="rotate(-0 87.35 256.630435)">n=20</text>
   </g>
   <g id="text_16">
    <text style="font-size: 6.5px; font-family: 'DejaVu Sans', 'Bitstream Vera Sans', 'Computer Modern Sans Serif', 'Lucida Grande', 'Verdana', 'Geneva', 'Lucid', 'Arial', 'Helvetica', 'Avant Garde', sans-serif; text-anchor: middle; fill: #ffffff" x="178.418182" y="256.630435" transform="rotate(-0 178.418182 256.630435)">n=17</text>
   </g>
   <g id="text_17">
    <text style="font-size: 6.5px; font-family: 'DejaVu Sans', 'Bitstream Vera Sans', 'Computer Modern Sans Serif', 'Lucida Grande', 'Verdana', 'Geneva', 'Lucid', 'Arial', 'Helvetica', 'Avant Garde', sans-serif; text-anchor: middle; fill: #ffffff" x="269.486364" y="256.630435" transform="rotate(-0 269.486364 256.630435)">n=20</text>
   </g>
   <g id="text_18">
    <text style="font-size: 6.5px; font-family: 'DejaVu Sans', 'Bitstream Vera Sans', 'Computer Modern Sans Serif', 'Lucida Grande', 'Verdana', 'Geneva', 'Lucid', 'Arial', 'Helvetica', 'Avant Garde', sans-serif; text-anchor: middle; fill: #ffffff" x="360.554545" y="256.630435" transform="rotate(-0 360.554545 256.630435)">n=17</text>
   </g>
   <g id="text_19">
    <text style="font-size: 6.5px; font-family: 'DejaVu Sans', 'Bitstream Vera Sans', 'Computer Modern Sans Serif', 'Lucida Grande', 'Verdana', 'Geneva', 'Lucid', 'Arial', 'Helvetica', 'Avant Garde', sans-serif; text-anchor: middle; fill: #ffffff" x="451.622727" y="256.630435" transform="rotate(-0 451.622727 256.630435)">n=17</text>
   </g>
   <g id="text_20">
    <text style="font-size: 6.5px; font-family: 'DejaVu Sans', 'Bitstream Vera Sans', 'Computer Modern Sans Serif', 'Lucida Grande', 'Verdana', 'Geneva', 'Lucid', 'Arial', 'Helvetica', 'Avant Garde', sans-serif; text-anchor: middle; fill: #ffffff" x="123.777273" y="256.630435" transform="rotate(-0 123.777273 256.630435)">n=24</text>
   </g>
   <g id="text_21">
    <text style="font-size: 6.5px; font-family: 'DejaVu Sans', 'Bitstream Vera Sans', 'Computer Modern Sans Serif', 'Lucida Grande', 'Verdana', 'Geneva', 'Lucid', 'Arial', 'Helvetica', 'Avant Garde', sans-serif; text-anchor: middle; fill: #ffffff" x="214.845455" y="256.630435" transform="rotate(-0 214.845455 256.630435)">n=24</text>
   </g>
   <g id="text_22">
    <text style="font-size: 6.5px; font-family: 'DejaVu Sans', 'Bitstream Vera Sans', 'Computer Modern Sans Serif', 'Lucida Grande', 'Verdana', 'Geneva', 'Lucid', 'Arial', 'Helvetica', 'Avant Garde', sans-serif; text-anchor: middle; fill: #ffffff" x="305.913636" y="256.630435" transform="rotate(-0 305.913636 256.630435)">n=23</text>
   </g>
   <g id="text_23">
    <text style="font-size: 6.5px; font-family: 'DejaVu Sans', 'Bitstream Vera Sans', 'Computer Modern Sans Serif', 'Lucida Grande', 'Verdana', 'Geneva', 'Lucid', 'Arial', 'Helvetica', 'Avant Garde', sans-serif; text-anchor: middle; fill: #ffffff" x="396.981818" y="256.630435" transform="rotate(-0 396.981818 256.630435)">n=23</text>
   </g>
   <g id="text_24">
    <text style="font-size: 6.5px; font-family: 'DejaVu Sans', 'Bitstream Vera Sans', 'Computer Modern Sans Serif', 'Lucida Grande', 'Verdana', 'Geneva', 'Lucid', 'Arial', 'Helvetica', 'Avant Garde', sans-serif; text-anchor: middle; fill: #ffffff" x="488.05" y="256.630435" transform="rotate(-0 488.05 256.630435)">n=20</text>
   </g>
   <g id="legend_1">
    <g id="patch_15">
     <path d="M 482.976563 56.178594 
L 500.976563 56.178594 
L 500.976563 49.878594 
L 482.976563 49.878594 
z
" style="fill: #898781"/>
    </g>
    <g id="text_25">
     <text style="font-size: 9px; font-family: 'DejaVu Sans', 'Bitstream Vera Sans', 'Computer Modern Sans Serif', 'Lucida Grande', 'Verdana', 'Geneva', 'Lucid', 'Arial', 'Helvetica', 'Avant Garde', sans-serif; text-anchor: start; fill: #0b0b0b" x="508.176563" y="56.178594" transform="rotate(-0 508.176563 56.178594)">off</text>
    </g>
    <g id="patch_16">
     <path d="M 482.976563 69.388906 
L 500.976563 69.388906 
L 500.976563 63.088906 
L 482.976563 63.088906 
z
" style="fill: url(#h42c1aa26ce)"/>
    </g>
    <g id="text_26">
     <text style="font-size: 9px; font-family: 'DejaVu Sans', 'Bitstream Vera Sans', 'Computer Modern Sans Serif', 'Lucida Grande', 'Verdana', 'Geneva', 'Lucid', 'Arial', 'Helvetica', 'Avant Garde', sans-serif; text-anchor: start; fill: #0b0b0b" x="508.176563" y="69.388906" transform="rotate(-0 508.176563 69.388906)">on</text>
    </g>
   </g>
  </g>
 </g>
 <defs>
  <clipPath id="p906d9d97c9">
   <rect x="47.28" y="41.24" width="480.84" height="219.742232"/>
  </clipPath>
 </defs>
 <defs>
  <pattern id="h6b8c85486f" patternUnits="userSpaceOnUse" x="0" y="0" width="72" height="72">
   <rect x="0" y="0" width="73" height="73" fill="#c40d1e"/>
   <path d="M -36 36 
L 36 -36 
M -32 40 
L 40 -32 
M -28 44 
L 44 -28 
M -24 48 
L 48 -24 
M -20 52 
L 52 -20 
M -16 56 
L 56 -16 
M -12 60 
L 60 -12 
M -8 64 
L 64 -8 
M -4 68 
L 68 -4 
M 0 72 
L 72 0 
M 4 76 
L 76 4 
M 8 80 
L 80 8 
M 12 84 
L 84 12 
M 16 88 
L 88 16 
M 20 92 
L 92 20 
M 24 96 
L 96 24 
M 28 100 
L 100 28 
M 32 104 
L 104 32 
M 36 108 
L 108 36 
" style="fill: #ffffff; stroke: #ffffff; stroke-width: 0.5; stroke-linecap: butt; stroke-linejoin: miter"/>
  </pattern>
  <pattern id="hb08d887a91" patternUnits="userSpaceOnUse" x="0" y="0" width="72" height="72">
   <rect x="0" y="0" width="73" height="73" fill="#ff6c00"/>
   <path d="M -36 36 
L 36 -36 
M -32 40 
L 40 -32 
M -28 44 
L 44 -28 
M -24 48 
L 48 -24 
M -20 52 
L 52 -20 
M -16 56 
L 56 -16 
M -12 60 
L 60 -12 
M -8 64 
L 64 -8 
M -4 68 
L 68 -4 
M 0 72 
L 72 0 
M 4 76 
L 76 4 
M 8 80 
L 80 8 
M 12 84 
L 84 12 
M 16 88 
L 88 16 
M 20 92 
L 92 20 
M 24 96 
L 96 24 
M 28 100 
L 100 28 
M 32 104 
L 104 32 
M 36 108 
L 108 36 
" style="fill: #ffffff; stroke: #ffffff; stroke-width: 0.5; stroke-linecap: butt; stroke-linejoin: miter"/>
  </pattern>
  <pattern id="h8e8b3c0068" patternUnits="userSpaceOnUse" x="0" y="0" width="72" height="72">
   <rect x="0" y="0" width="73" height="73" fill="#e8a800"/>
   <path d="M -36 36 
L 36 -36 
M -32 40 
L 40 -32 
M -28 44 
L 44 -28 
M -24 48 
L 48 -24 
M -20 52 
L 52 -20 
M -16 56 
L 56 -16 
M -12 60 
L 60 -12 
M -8 64 
L 64 -8 
M -4 68 
L 68 -4 
M 0 72 
L 72 0 
M 4 76 
L 76 4 
M 8 80 
L 80 8 
M 12 84 
L 84 12 
M 16 88 
L 88 16 
M 20 92 
L 92 20 
M 24 96 
L 96 24 
M 28 100 
L 100 28 
M 32 104 
L 104 32 
M 36 108 
L 108 36 
" style="fill: #ffffff; stroke: #ffffff; stroke-width: 0.5; stroke-linecap: butt; stroke-linejoin: miter"/>
  </pattern>
  <pattern id="h893b482fe6" patternUnits="userSpaceOnUse" x="0" y="0" width="72" height="72">
   <rect x="0" y="0" width="73" height="73" fill="#b5297a"/>
   <path d="M -36 36 
L 36 -36 
M -32 40 
L 40 -32 
M -28 44 
L 44 -28 
M -24 48 
L 48 -24 
M -20 52 
L 52 -20 
M -16 56 
L 56 -16 
M -12 60 
L 60 -12 
M -8 64 
L 64 -8 
M -4 68 
L 68 -4 
M 0 72 
L 72 0 
M 4 76 
L 76 4 
M 8 80 
L 80 8 
M 12 84 
L 84 12 
M 16 88 
L 88 16 
M 20 92 
L 92 20 
M 24 96 
L 96 24 
M 28 100 
L 100 28 
M 32 104 
L 104 32 
M 36 108 
L 108 36 
" style="fill: #ffffff; stroke: #ffffff; stroke-width: 0.5; stroke-linecap: butt; stroke-linejoin: miter"/>
  </pattern>
  <pattern id="h6bd0ace717" patternUnits="userSpaceOnUse" x="0" y="0" width="72" height="72">
   <rect x="0" y="0" width="73" height="73" fill="#2f6fb0"/>
   <path d="M -36 36 
L 36 -36 
M -32 40 
L 40 -32 
M -28 44 
L 44 -28 
M -24 48 
L 48 -24 
M -20 52 
L 52 -20 
M -16 56 
L 56 -16 
M -12 60 
L 60 -12 
M -8 64 
L 64 -8 
M -4 68 
L 68 -4 
M 0 72 
L 72 0 
M 4 76 
L 76 4 
M 8 80 
L 80 8 
M 12 84 
L 84 12 
M 16 88 
L 88 16 
M 20 92 
L 92 20 
M 24 96 
L 96 24 
M 28 100 
L 100 28 
M 32 104 
L 104 32 
M 36 108 
L 108 36 
" style="fill: #ffffff; stroke: #ffffff; stroke-width: 0.5; stroke-linecap: butt; stroke-linejoin: miter"/>
  </pattern>
  <pattern id="h42c1aa26ce" patternUnits="userSpaceOnUse" x="0" y="0" width="72" height="72">
   <rect x="0" y="0" width="73" height="73" fill="#898781"/>
   <path d="M -36 36 
L 36 -36 
M -32 40 
L 40 -32 
M -28 44 
L 44 -28 
M -24 48 
L 48 -24 
M -20 52 
L 52 -20 
M -16 56 
L 56 -16 
M -12 60 
L 60 -12 
M -8 64 
L 64 -8 
M -4 68 
L 68 -4 
M 0 72 
L 72 0 
M 4 76 
L 76 4 
M 8 80 
L 80 8 
M 12 84 
L 84 12 
M 16 88 
L 88 16 
M 20 92 
L 92 20 
M 24 96 
L 96 24 
M 28 100 
L 100 28 
M 32 104 
L 104 32 
M 36 108 
L 108 36 
" style="fill: #ffffff; stroke: #ffffff; stroke-width: 0.5; stroke-linecap: butt; stroke-linejoin: miter"/>
  </pattern>
 </defs>
</svg>
