<?xml version="1.0" encoding="utf-8" standalone="no"?>
<!DOCTYPE svg PUBLIC "-//W3C//DTD SVG 1.1//EN"
  "http://www.w3.org/Graphics/SVG/1.1/DTD/svg11.dtd">
<svg xmlns:xlink="http://www.w3.org/1999/xlink" width="540pt" height="324pt" viewBox="0 0 540 324" xmlns="http://www.w3.org/2000/svg" version="1.1">
 <metadata>
  <rdf:RDF xmlns:dc="http://purl.org/dc/elements/1.1/" xmlns:cc="http://creativecommons.org/ns#" xmlns:rdf="http://www.w3.org/1999/02/22-rdf-syntax-ns#">
   <cc:Work>
    <dc:type rdf:resource="http://purl.org/dc/dcmitype/StillImage"/>
    <dc:format>image/svg+xml</dc:format>
    <dc:creator>
     <cc:Agent>
      <dc:title>Matplotlib v3.10.9, https://matplotlib.org/</dc:title>
     </cc:Agent>
    </dc:creator>
   </cc:Work>
  </rdf:RDF>
 </metadata>
 <defs>
  <style type="text/css">*{stroke-linejoin: round; stroke-linecap: butt}</style>
 </defs>
 <g id="figure_1">
  <g id="patch_1">
   <path d="M 0 324 
L 540 324 
L 540 0 
L 0 0 
L 0 324 
z
" style="fill: none"/>
  </g>
  <g id="axes_1">
   <g id="patch_2">
    <path d="M 47.28 260.982232 
L 528.12 260.982232 
L 528.12 41.24 
L 47.28 41.24 
L 47.28 260.982232 
z
" style="fill: none"/>
   </g>
   <g id="matplotlib.axis_1">
    <g id="xtick_1">
     <g id="line2d_1"/>
     <g id="text_1">
      <text style="font-size: 9px; font-family: 'DejaVu Sans', 'Bitstream Vera Sans', 'Computer Modern Sans Serif', 'Lucida Grande', 'Verdana', 'Geneva', 'Lucid', 'Arial', 'Helvetica', 'Avant Garde', sans-serif; fill: #898781" transform="translate(36.407555 299.581249) rotate(-25)">ensemble_vote</text>
     </g>
    </g>
    <g id="xtick_2">
     <g id="line2d_2"/>
     <g id="text_2">
      <text style="font-size: 9px; font-family: 'DejaVu Sans', 'Bitstream Vera Sans', 'Computer Modern Sans Serif', 'Lucida Grande', 'Verdana', 'Geneva', 'Lucid', 'Arial', 'Helvetica', 'Avant Garde', sans-serif; fill: #898781" transform="translate(97.089591 306.428853) rotate(-25)">plan_then_execute</text>
     </g>
    </g>
    <g id="xtick_3">
     <g id="line2d_3"/>
     <g id="text_3">
      <text style="font-size: 9px; font-family: 'DejaVu Sans', 'Bitstream Vera Sans', 'Computer Modern Sans Serif', 'Lucida Grande', 'Verdana', 'Geneva', 'Lucid', 'Arial', 'Helvetica', 'Avant Garde', sans-serif; fill: #898781" transform="translate(170.966477 307.123598) rotate(-25)">write_then_critique</text>
     </g>
    </g>
    <g id="xtick_4">
     <g id="line2d_4"/>
     <g id="text_4">
      <text style="font-size: 9px; font-family: 'DejaVu Sans', 'Bitstream Vera Sans', 'Computer Modern Sans Serif', 'Lucida Grande', 'Verdana', 'Geneva', 'Lucid', 'Arial', 'Helvetica', 'Avant Garde', sans-serif; fill: #898781" transform="translate(247.276375 306.683811) rotate(-25)">plan_write_critique</text>
     </g>
    </g>
    <g id="xtick_5">
     <g id="line2d_5"/>
     <g id="text_5">
      <text style="font-size: 9px; font-family: 'DejaVu Sans', 'Bitstream Vera Sans', 'Computer Modern Sans Serif', 'Lucida Grande', 'Verdana', 'Geneva', 'Lucid', 'Arial', 'Helvetica', 'Avant Garde', sans-serif; fill: #898781" transform="translate(315.29823 310.108802) rotate(-25)">structured_per_table</text>
     </g>
    </g>
    <g id="xtick_6">
     <g id="line2d_6"/>
     <g id="text_6">
      <text style="font-size: 9px; font-family: 'DejaVu Sans', 'Bitstream Vera Sans', 'Computer Modern Sans Serif', 'Lucida Grande', 'Verdana', 'Geneva', 'Lucid', 'Arial', 'Helvetica', 'Avant Garde', sans-serif; fill: #898781" transform="translate(391.76489 309.595915) rotate(-25)">write_tools_freeform</text>
     </g>
    </g>
   </g>
   <g id="matplotlib.axis_2">
    <g id="ytick_1">
     <g id="line2d_7">
      <path d="M 47.28 260.982232 
L 528.12 260.982232 
" clip-path="url(#pc0669f9964)" style="fill: none; stroke: #898781; stroke-opacity: 0.18; stroke-width: 0.6; stroke-linecap: square"/>
     </g>
     <g id="line2d_8"/>
     <g id="text_7">
      <text style="font-size: 11px; font-family: 'DejaVu Sans', 'Bitstream Vera Sans', 'Computer Modern Sans Serif', 'Lucida Grande', 'Verdana', 'Geneva', 'Lucid', 'Arial', 'Helvetica', 'Avant Garde', sans-serif; text-anchor: end" x="43.78" y="265.161373" transform="rotate(-0 43.78 265.161373)">0.0</text>
     </g>
    </g>
    <g id="ytick_2">
     <g id="line2d_9">
      <path d="M 47.28 219.126569 
L 528.12 219.126569 
" clip-path="url(#pc0669f9964)" style="fill: none; stroke: #898781; stroke-opacity: 0.18; stroke-width: 0.6; stroke-linecap: square"/>
     </g>
     <g id="line2d_10"/>
     <g id="text_8">
      <text style="font-size: 11px; font-family: 'DejaVu Sans', 'Bitstream Vera Sans', 'Computer Modern Sans Serif', 'Lucida Grande', 'Verdana', 'Geneva', 'Lucid', 'Arial', 'Helvetica', 'Avant Garde', sans-serif; text-anchor: end" x="43.78" y="223.305709" transform="rotate(-0 43.78 223.305709)">0.2</text>
     </g>
    </g>
    <g id="ytick_3">
     <g id="line2d_11">
      <path d="M 47.28 177.270905 
L 528.12 177.270905 
" clip-path="url(#pc0669f9964)" style="fill: none; stroke: #898781; stroke-opacity: 0.18; stroke-width: 0.6; stroke-linecap: square"/>
     </g>
     <g id="line2d_12"/>
     <g id="text_9">
      <text style="font-size: 11px; font-family: 'DejaVu Sans', 'Bitstream Vera Sans', 'Computer Modern Sans Serif', 'Lucida Grande', 'Verdana', 'Geneva', 'Lucid', 'Arial', 'Helvetica', 'Avant Garde', sans-serif; text-anchor: end" x="43.78" y="181.450046" transform="rotate(-0 43.78 181.450046)">0.4</text>
     </g>
    </g>
    <g id="ytick_4">
     <g id="line2d_13">
      <path d="M 47.28 135.415242 
L 528.12 135.415242 
" clip-path="url(#pc0669f9964)" style="fill: none; stroke: #898781; stroke-opacity: 0.18; stroke-width: 0.6; stroke-linecap: square"/>
     </g>
     <g id="line2d_14"/>
     <g id="text_10">
      <text style="font-size: 11px; font-family: 'DejaVu Sans', 'Bitstream Vera Sans', 'Computer Modern Sans Serif', 'Lucida Grande', 'Verdana', 'Geneva', 'Lucid', 'Arial', 'Helvetica', 'Avant Garde', sans-serif; text-anchor: end" x="43.78" y="139.594383" transform="rotate(-0 43.78 139.594383)">0.6</text>
     </g>
    </g>
    <g id="ytick_5">
     <g id="line2d_15">
      <path d="M 47.28 93.559579 
L 528.12 93.559579 
" clip-path="url(#pc0669f9964)" style="fill: none; stroke: #898781; stroke-opacity: 0.18; stroke-width: 0.6; stroke-linecap: square"/>
     </g>
     <g id="line2d_16"/>
     <g id="text_11">
      <text style="font-size: 11px; font-family: 'DejaVu Sans', 'Bitstream Vera Sans', 'Computer Modern Sans Serif', 'Lucida Grande', 'Verdana', 'Geneva', 'Lucid', 'Arial', 'Helvetica', 'Avant Garde', sans-serif; text-anchor: end" x="43.78" y="97.73872" transform="rotate(-0 43.78 97.73872)">0.8</text>
     </g>
    </g>
    <g id="ytick_6">
     <g id="line2d_17">
      <path d="M 47.28 51.703916 
L 528.12 51.703916 
" clip-path="url(#pc0669f9964)" style="fill: none; stroke: #898781; stroke-opacity: 0.18; stroke-width: 0.6; stroke-linecap: square"/>
     </g>
     <g id="line2d_18"/>
     <g id="text_12">
      <text style="font-size: 11px; font-family: 'DejaVu Sans', 'Bitstream Vera Sans', 'Computer Modern Sans Serif', 'Lucida Grande', 'Verdana', 'Geneva', 'Lucid', 'Arial', 'Helvetica', 'Avant Garde', sans-serif; text-anchor: end" x="43.78" y="55.883056" transform="rotate(-0 43.78 55.883056)">1.0</text>
     </g>
    </g>
    <g id="text_13">
     <text style="font-size: 11px; font-family: 'DejaVu Sans', 'Bitstream Vera Sans', 'Computer Modern Sans Serif', 'Lucida Grande', 'Verdana', 'Geneva', 'Lucid', 'Arial', 'Helvetica', 'Avant Garde', sans-serif; text-anchor: middle; fill: #0b0b0b" x="19.998906" y="151.111116" transform="rotate(-90 19.998906 151.111116)">Field accuracy</text>
    </g>
   </g>
   <g id="patch_3">
    <path d="M 47.28 260.982232 
L 47.28 41.24 
" style="fill: none; stroke: #000000; stroke-width: 0.8; stroke-linejoin: miter; stroke-linecap: square"/>
   </g>
   <g id="patch_4">
    <path d="M 47.28 260.982232 
L 528.12 260.982232 
" style="fill: none; stroke: #000000; stroke-width: 0.8; stroke-linejoin: miter; stroke-linecap: square"/>
   </g>
   <g id="patch_5">
    <path d="M 69.136364 260.982232 
L 99.283072 260.982232 
L 99.283072 88.178043 
L 69.136364 88.178043 
z
" clip-path="url(#pc0669f9964)" style="fill: #c40d1e"/>
   </g>
   <g id="patch_6">
    <path d="M 144.503135 260.982232 
L 174.649843 260.982232 
L 174.649843 89.668614 
L 144.503135 89.668614 
z
" clip-path="url(#pc0669f9964)" style="fill: #ff6c00"/>
   </g>
   <g id="patch_7">
    <path d="M 219.869906 260.982232 
L 250.016614 260.982232 
L 250.016614 86.495444 
L 219.869906 86.495444 
z
" clip-path="url(#pc0669f9964)" style="fill: #e8a800"/>
   </g>
   <g id="patch_8">
    <path d="M 295.236677 260.982232 
L 325.383386 260.982232 
L 325.383386 88.051313 
L 295.236677 88.051313 
z
" clip-path="url(#pc0669f9964)" style="fill: #4f9d2e"/>
   </g>
   <g id="patch_9">
    <path d="M 370.603448 260.982232 
L 400.750157 260.982232 
L 400.750157 85.154739 
L 370.603448 85.154739 
z
" clip-path="url(#pc0669f9964)" style="fill: #b5297a"/>
   </g>
   <g id="patch_10">
    <path d="M 445.970219 260.982232 
L 476.116928 260.982232 
L 476.116928 84.715079 
L 445.970219 84.715079 
z
" clip-path="url(#pc0669f9964)" style="fill: #2f6fb0"/>
   </g>
   <g id="patch_11">
    <path d="M 99.283072 260.982232 
L 129.429781 260.982232 
L 129.429781 68.041382 
L 99.283072 68.041382 
z
" clip-path="url(#pc0669f9964)" style="fill: url(#hb6a19abe04)"/>
   </g>
   <g id="patch_12">
    <path d="M 174.649843 260.982232 
L 204.796552 260.982232 
L 204.796552 84.92926 
L 174.649843 84.92926 
z
" clip-path="url(#pc0669f9964)" style="fill: url(#h140f9f836e)"/>
   </g>
   <g id="patch_13">
    <path d="M 250.016614 260.982232 
L 280.163323 260.982232 
L 280.163323 73.01464 
L 250.016614 73.01464 
z
" clip-path="url(#pc0669f9964)" style="fill: url(#h1f490f12f1)"/>
   </g>
   <g id="patch_14">
    <path d="M 325.383386 260.982232 
L 355.530094 260.982232 
L 355.530094 81.307711 
L 325.383386 81.307711 
z
" clip-path="url(#pc0669f9964)" style="fill: url(#h3a48200865)"/>
   </g>
   <g id="patch_15">
    <path d="M 400.750157 260.982232 
L 430.896865 260.982232 
L 430.896865 71.351353 
L 400.750157 71.351353 
z
" clip-path="url(#pc0669f9964)" style="fill: url(#hb22d482a66)"/>
   </g>
   <g id="patch_16">
    <path d="M 476.116928 260.982232 
L 506.263636 260.982232 
L 506.263636 72.759958 
L 476.116928 72.759958 
z
" clip-path="url(#pc0669f9964)" style="fill: url(#h55045b728e)"/>
   </g>
   <g id="text_14">
    <text style="font-size: 9px; font-family: 'DejaVu Sans', 'Bitstream Vera Sans', 'Computer Modern Sans Serif', 'Lucida Grande', 'Verdana', 'Geneva', 'Lucid', 'Arial', 'Helvetica', 'Avant Garde', sans-serif; text-anchor: start; fill: #898781" x="47.28" y="36.072148" transform="rotate(-0 47.28 36.072148)">median per bar · n=11–24/bar · N=229 runs</text>
   </g>
   <g id="text_15">
    <text style="font-size: 12px; font-family: 'DejaVu Sans', 'Bitstream Vera Sans', 'Computer Modern Sans Serif', 'Lucida Grande', 'Verdana', 'Geneva', 'Lucid', 'Arial', 'Helvetica', 'Avant Garde', sans-serif; text-anchor: start; fill: #0b0b0b" x="47.28" y="21.24" transform="rotate(-0 47.28 21.24)">Field accuracy by strategy — context mode</text>
   </g>
   <g id="LineCollection_1">
    <path d="M 84.209718 106.812474 
L 84.209718 70.242894 
" clip-path="url(#pc0669f9964)" style="fill: none; stroke: #898781; stroke-width: 0.9"/>
    <path d="M 159.576489 106.013304 
L 159.576489 81.410997 
" clip-path="url(#pc0669f9964)" style="fill: none; stroke: #898781; stroke-width: 0.9"/>
    <path d="M 234.94326 97.897955 
L 234.94326 65.342125 
" clip-path="url(#pc0669f9964)" style="fill: none; stroke: #898781; stroke-width: 0.9"/>
    <path d="M 310.310031 105.459003 
L 310.310031 79.916342 
" clip-path="url(#pc0669f9964)" style="fill: none; stroke: #898781; stroke-width: 0.9"/>
    <path d="M 385.676803 95.772025 
L 385.676803 66.569564 
" clip-path="url(#pc0669f9964)" style="fill: none; stroke: #898781; stroke-width: 0.9"/>
    <path d="M 461.043574 97.432181 
L 461.043574 74.614559 
" clip-path="url(#pc0669f9964)" style="fill: none; stroke: #898781; stroke-width: 0.9"/>
   </g>
   <g id="line2d_19">
    <defs>
     <path id="md1b8744651" d="M 2 0 
L -2 -0 
" style="stroke: #898781"/>
    </defs>
    <g clip-path="url(#pc0669f9964)">
     <use xlink:href="#md1b8744651" x="84.209718" y="106.812474" style="fill: #1f77b4; stroke: #898781"/>
     <use xlink:href="#md1b8744651" x="159.576489" y="106.013304" style="fill: #1f77b4; stroke: #898781"/>
     <use xlink:href="#md1b8744651" x="234.94326" y="97.897955" style="fill: #1f77b4; stroke: #898781"/>
     <use xlink:href="#md1b8744651" x="310.310031" y="105.459003" style="fill: #1f77b4; stroke: #898781"/>
     <use xlink:href="#md1b8744651" x="385.676803" y="95.772025" style="fill: #1f77b4; stroke: #898781"/>
     <use xlink:href="#md1b8744651" x="461.043574" y="97.432181" style="fill: #1f77b4; stroke: #898781"/>
    </g>
   </g>
   <g id="line2d_20">
    <g clip-path="url(#pc0669f9964)">
     <use xlink:href="#md1b8744651" x="84.209718" y="70.242894" style="fill: #1f77b4; stroke: #898781"/>
     <use xlink:href="#md1b8744651" x="159.576489" y="81.410997" style="fill: #1f77b4; stroke: #898781"/>
     <use xlink:href="#md1b8744651" x="234.94326" y="65.342125" style="fill: #1f77b4; stroke: #898781"/>
     <use xlink:href="#md1b8744651" x="310.310031" y="79.916342" style="fill: #1f77b4; stroke: #898781"/>
     <use xlink:href="#md1b8744651" x="385.676803" y="66.569564" style="fill: #1f77b4; stroke: #898781"/>
     <use xlink:href="#md1b8744651" x="461.043574" y="74.614559" style="fill: #1f77b4; stroke: #898781"/>
    </g>
   </g>
   <g id="LineCollection_2">
    <path d="M 114.356426 105.838776 
L 114.356426 59.548966 
" clip-path="url(#pc0669f9964)" style="fill: none; stroke: #898781; stroke-width: 0.9"/>
    <path d="M 189.723197 108.615875 
L 189.723197 75.866495 
" clip-path="url(#pc0669f9964)" style="fill: none; stroke: #898781; stroke-width: 0.9"/>
    <path d="M 265.089969 95.029864 
L 265.089969 65.342125 
" clip-path="url(#pc0669f9964)" style="fill: none; stroke: #898781; stroke-width: 0.9"/>
    <path d="M 340.45674 109.244968 
L 340.45674 54.158793 
" clip-path="url(#pc0669f9964)" style="fill: none; stroke: #898781; stroke-width: 0.9"/>
    <path d="M 415.823511 82.558942 
L 415.823511 51.738011 
" clip-path="url(#pc0669f9964)" style="fill: none; stroke: #898781; stroke-width: 0.9"/>
    <path d="M 491.190282 109.203028 
L 491.190282 51.738011 
" clip-path="url(#pc0669f9964)" style="fill: none; stroke: #898781; stroke-width: 0.9"/>
   </g>
   <g id="line2d_21">
    <g clip-path="url(#pc0669f9964)">
     <use xlink:href="#md1b8744651" x="114.356426" y="105.838776" style="fill: #1f77b4; stroke: #898781"/>
     <use xlink:href="#md1b8744651" x="189.723197" y="108.615875" style="fill: #1f77b4; stroke: #898781"/>
     <use xlink:href="#md1b8744651" x="265.089969" y="95.029864" style="fill: #1f77b4; stroke: #898781"/>
     <use xlink:href="#md1b8744651" x="340.45674" y="109.244968" style="fill: #1f77b4; stroke: #898781"/>
     <use xlink:href="#md1b8744651" x="415.823511" y="82.558942" style="fill: #1f77b4; stroke: #898781"/>
     <use xlink:href="#md1b8744651" x="491.190282" y="109.203028" style="fill: #1f77b4; stroke: #898781"/>
    </g>
   </g>
   <g id="line2d_22">
    <g clip-path="url(#pc0669f9964)">
     <use xlink:href="#md1b8744651" x="114.356426" y="59.548966" style="fill: #1f77b4; stroke: #898781"/>
     <use xlink:href="#md1b8744651" x="189.723197" y="75.866495" style="fill: #1f77b4; stroke: #898781"/>
     <use xlink:href="#md1b8744651" x="265.089969" y="65.342125" style="fill: #1f77b4; stroke: #898781"/>
     <use xlink:href="#md1b8744651" x="340.45674" y="54.158793" style="fill: #1f77b4; stroke: #898781"/>
     <use xlink:href="#md1b8744651" x="415.823511" y="51.738011" style="fill: #1f77b4; stroke: #898781"/>
     <use xlink:href="#md1b8744651" x="491.190282" y="51.738011" style="fill: #1f77b4; stroke: #898781"/>
    </g>
   </g>
   <g id="legend_1">
    <g id="patch_17">
     <path d="M 55.38 237.800201 
L 73.38 237.800201 
L 73.38 231.500201 
L 55.38 231.500201 
z
" style="fill: #898781"/>
    </g>
    <g id="text_16">
     <text style="font-size: 9px; font-family: 'DejaVu Sans', 'Bitstream Vera Sans', 'Computer Modern Sans Serif', 'Lucida Grande', 'Verdana', 'Geneva', 'Lucid', 'Arial', 'Helvetica', 'Avant Garde', sans-serif; text-anchor: start; fill: #0b0b0b" x="80.58" y="237.800201" transform="rotate(-0 80.58 237.800201)">metadata-only</text>
    </g>
    <g id="patch_18">
     <path d="M 55.38 251.010513 
L 73.38 251.010513 
L 73.38 244.710513 
L 55.38 244.710513 
z
" style="fill: url(#hb0d9ddce19)"/>
    </g>
    <g id="text_17">
     <text style="font-size: 9px; font-family: 'DejaVu Sans', 'Bitstream Vera Sans', 'Computer Modern Sans Serif', 'Lucida Grande', 'Verdana', 'Geneva', 'Lucid', 'Arial', 'Helvetica', 'Avant Garde', sans-serif; text-anchor: start; fill: #0b0b0b" x="80.58" y="251.010513" transform="rotate(-0 80.58 251.010513)">live-query</text>
    </g>
   </g>
  </g>
 </g>
 <defs>
  <clipPath id="pc0669f9964">
   <rect x="47.28" y="41.24" width="480.84" height="219.742232"/>
  </clipPath>
 </defs>
 <defs>
  <pattern id="hb6a19abe04" patternUnits="userSpaceOnUse" x="0" y="0" width="72" height="72">
   <rect x="0" y="0" width="73" height="73" fill="#c40d1e"/>
   <path d="M -36 36 
L 36 -36 
M -32 40 
L 40 -32 
M -28 44 
L 44 -28 
M -24 48 
L 48 -24 
M -20 52 
L 52 -20 
M -16 56 
L 56 -16 
M -12 60 
L 60 -12 
M -8 64 
L 64 -8 
M -4 68 
L 68 -4 
M 0 72 
L 72 0 
M 4 76 
L 76 4 
M 8 80 
L 80 8 
M 12 84 
L 84 12 
M 16 88 
L 88 16 
M 20 92 
L 92 20 
M 24 96 
L 96 24 
M 28 100 
L 100 28 
M 32 104 
L 104 32 
M 36 108 
L 108 36 
" style="fill: #ffffff; stroke: #ffffff; stroke-width: 0.5; stroke-linecap: butt; stroke-linejoin: miter"/>
  </pattern>
  <pattern id="h140f9f836e" patternUnits="userSpaceOnUse" x="0" y="0" width="72" height="72">
   <rect x="0" y="0" width="73" height="73" fill="#ff6c00"/>
   <path d="M -36 36 
L 36 -36 
M -32 40 
L 40 -32 
M -28 44 
L 44 -28 
M -24 48 
L 48 -24 
M -20 52 
L 52 -20 
M -16 56 
L 56 -16 
M -12 60 
L 60 -12 
M -8 64 
L 64 -8 
M -4 68 
L 68 -4 
M 0 72 
L 72 0 
M 4 76 
L 76 4 
M 8 80 
L 80 8 
M 12 84 
L 84 12 
M 16 88 
L 88 16 
M 20 92 
L 92 20 
M 24 96 
L 96 24 
M 28 100 
L 100 28 
M 32 104 
L 104 32 
M 36 108 
L 108 36 
" style="fill: #ffffff; stroke: #ffffff; stroke-width: 0.5; stroke-linecap: butt; stroke-linejoin: miter"/>
  </pattern>
  <pattern id="h1f490f12f1" patternUnits="userSpaceOnUse" x="0" y="0" width="72" height="72">
   <rect x="0" y="0" width="73" height="73" fill="#e8a800"/>
   <path d="M -36 36 
L 36 -36 
M -32 40 
L 40 -32 
M -28 44 
L 44 -28 
M -24 48 
L 48 -24 
M -20 52 
L 52 -20 
M -16 56 
L 56 -16 
M -12 60 
L 60 -12 
M -8 64 
L 64 -8 
M -4 68 
L 68 -4 
M 0 72 
L 72 0 
M 4 76 
L 76 4 
M 8 80 
L 80 8 
M 12 84 
L 84 12 
M 16 88 
L 88 16 
M 20 92 
L 92 20 
M 24 96 
L 96 24 
M 28 100 
L 100 28 
M 32 104 
L 104 32 
M 36 108 
L 108 36 
" style="fill: #ffffff; stroke: #ffffff; stroke-width: 0.5; stroke-linecap: butt; stroke-linejoin: miter"/>
  </pattern>
  <pattern id="h3a48200865" patternUnits="userSpaceOnUse" x="0" y="0" width="72" height="72">
   <rect x="0" y="0" width="73" height="73" fill="#4f9d2e"/>
   <path d="M -36 36 
L 36 -36 
M -32 40 
L 40 -32 
M -28 44 
L 44 -28 
M -24 48 
L 48 -24 
M -20 52 
L 52 -20 
M -16 56 
L 56 -16 
M -12 60 
L 60 -12 
M -8 64 
L 64 -8 
M -4 68 
L 68 -4 
M 0 72 
L 72 0 
M 4 76 
L 76 4 
M 8 80 
L 80 8 
M 12 84 
L 84 12 
M 16 88 
L 88 16 
M 20 92 
L 92 20 
M 24 96 
L 96 24 
M 28 100 
L 100 28 
M 32 104 
L 104 32 
M 36 108 
L 108 36 
" style="fill: #ffffff; stroke: #ffffff; stroke-width: 0.5; stroke-linecap: butt; stroke-linejoin: miter"/>
  </pattern>
  <pattern id="hb22d482a66" patternUnits="userSpaceOnUse" x="0" y="0" width="72" height="72">
   <rect x="0" y="0" width="73" height="73" fill="#b5297a"/>
   <path d="M -36 36 
L 36 -36 
M -32 40 
L 40 -32 
M -28 44 
L 44 -28 
M -24 48 
L 48 -24 
M -20 52 
L 52 -20 
M -16 56 
L 56 -16 
M -12 60 
L 60 -12 
M -8 64 
L 64 -8 
M -4 68 
L 68 -4 
M 0 72 
L 72 0 
M 4 76 
L 76 4 
M 8 80 
L 80 8 
M 12 84 
L 84 12 
M 16 88 
L 88 16 
M 20 92 
L 92 20 
M 24 96 
L 96 24 
M 28 100 
L 100 28 
M 32 104 
L 104 32 
M 36 108 
L 108 36 
" style="fill: #ffffff; stroke: #ffffff; stroke-width: 0.5; stroke-linecap: butt; stroke-linejoin: miter"/>
  </pattern>
  <pattern id="h55045b728e" patternUnits="userSpaceOnUse" x="0" y="0" width="72" height="72">
   <rect x="0" y="0" width="73" height="73" fill="#2f6fb0"/>
   <path d="M -36 36 
L 36 -36 
M -32 40 
L 40 -32 
M -28 44 
L 44 -28 
M -24 48 
L 48 -24 
M -20 52 
L 52 -20 
M -16 56 
L 56 -16 
M -12 60 
L 60 -12 
M -8 64 
L 64 -8 
M -4 68 
L 68 -4 
M 0 72 
L 72 0 
M 4 76 
L 76 4 
M 8 80 
L 80 8 
M 12 84 
L 84 12 
M 16 88 
L 88 16 
M 20 92 
L 92 20 
M 24 96 
L 96 24 
M 28 100 
L 100 28 
M 32 104 
L 104 32 
M 36 108 
L 108 36 
" style="fill: #ffffff; stroke: #ffffff; stroke-width: 0.5; stroke-linecap: butt; stroke-linejoin: miter"/>
  </pattern>
  <pattern id="hb0d9ddce19" patternUnits="userSpaceOnUse" x="0" y="0" width="72" height="72">
   <rect x="0" y="0" width="73" height="73" fill="#898781"/>
   <path d="M -36 36 
L 36 -36 
M -32 40 
L 40 -32 
M -28 44 
L 44 -28 
M -24 48 
L 48 -24 
M -20 52 
L 52 -20 
M -16 56 
L 56 -16 
M -12 60 
L 60 -12 
M -8 64 
L 64 -8 
M -4 68 
L 68 -4 
M 0 72 
L 72 0 
M 4 76 
L 76 4 
M 8 80 
L 80 8 
M 12 84 
L 84 12 
M 16 88 
L 88 16 
M 20 92 
L 92 20 
M 24 96 
L 96 24 
M 28 100 
L 100 28 
M 32 104 
L 104 32 
M 36 108 
L 108 36 
" style="fill: #ffffff; stroke: #ffffff; stroke-width: 0.5; stroke-linecap: butt; stroke-linejoin: miter"/>
  </pattern>
 </defs>
</svg>
