<?xml version="1.0" encoding="utf-8" standalone="no"?>
<!DOCTYPE svg PUBLIC "-//W3C//DTD SVG 1.1//EN"
  "http://www.w3.org/Graphics/SVG/1.1/DTD/svg11.dtd">
<svg xmlns:xlink="http://www.w3.org/1999/xlink" width="540pt" height="324pt" viewBox="0 0 540 324" xmlns="http://www.w3.org/2000/svg" version="1.1">
 <metadata>
  <rdf:RDF xmlns:dc="http://purl.org/dc/elements/1.1/" xmlns:cc="http://creativecommons.org/ns#" xmlns:rdf="http://www.w3.org/1999/02/22-rdf-syntax-ns#">
   <cc:Work>
    <dc:type rdf:resource="http://purl.org/dc/dcmitype/StillImage"/>
    <dc:format>image/svg+xml</dc:format>
    <dc:creator>
     <cc:Agent>
      <dc:title>Matplotlib v3.10.9, https://matplotlib.org/</dc:title>
     </cc:Agent>
    </dc:creator>
   </cc:Work>
  </rdf:RDF>
 </metadata>
 <defs>
  <style type="text/css">*{stroke-linejoin: round; stroke-linecap: butt}</style>
 </defs>
 <g id="figure_1">
  <g id="patch_1">
   <path d="M 0 324 
L 540 324 
L 540 0 
L 0 0 
L 0 324 
z
" style="fill: none"/>
  </g>
  <g id="axes_1">
   <g id="patch_2">
    <path d="M 54.255 260.982232 
L 528.12 260.982232 
L 528.12 41.24 
L 54.255 41.24 
L 54.255 260.982232 
z
" style="fill: none"/>
   </g>
   <g id="matplotlib.axis_1">
    <g id="xtick_1">
     <g id="line2d_1"/>
     <g id="text_1">
      <text style="font-size: 9px; font-family: 'DejaVu Sans', 'Bitstream Vera Sans', 'Computer Modern Sans Serif', 'Lucida Grande', 'Verdana', 'Geneva', 'Lucid', 'Arial', 'Helvetica', 'Avant Garde', sans-serif; fill: #898781" transform="translate(42.628206 299.581249) rotate(-25)">ensemble_vote</text>
     </g>
    </g>
    <g id="xtick_2">
     <g id="line2d_2"/>
     <g id="text_2">
      <text style="font-size: 9px; font-family: 'DejaVu Sans', 'Bitstream Vera Sans', 'Computer Modern Sans Serif', 'Lucida Grande', 'Verdana', 'Geneva', 'Lucid', 'Arial', 'Helvetica', 'Avant Garde', sans-serif; fill: #898781" transform="translate(102.216982 306.428853) rotate(-25)">plan_then_execute</text>
     </g>
    </g>
    <g id="xtick_3">
     <g id="line2d_3"/>
     <g id="text_3">
      <text style="font-size: 9px; font-family: 'DejaVu Sans', 'Bitstream Vera Sans', 'Computer Modern Sans Serif', 'Lucida Grande', 'Verdana', 'Geneva', 'Lucid', 'Arial', 'Helvetica', 'Avant Garde', sans-serif; fill: #898781" transform="translate(175.000607 307.123598) rotate(-25)">write_then_critique</text>
     </g>
    </g>
    <g id="xtick_4">
     <g id="line2d_4"/>
     <g id="text_4">
      <text style="font-size: 9px; font-family: 'DejaVu Sans', 'Bitstream Vera Sans', 'Computer Modern Sans Serif', 'Lucida Grande', 'Verdana', 'Geneva', 'Lucid', 'Arial', 'Helvetica', 'Avant Garde', sans-serif; fill: #898781" transform="translate(250.217245 306.683811) rotate(-25)">plan_write_critique</text>
     </g>
    </g>
    <g id="xtick_5">
     <g id="line2d_5"/>
     <g id="text_5">
      <text style="font-size: 9px; font-family: 'DejaVu Sans', 'Bitstream Vera Sans', 'Computer Modern Sans Serif', 'Lucida Grande', 'Verdana', 'Geneva', 'Lucid', 'Arial', 'Helvetica', 'Avant Garde', sans-serif; fill: #898781" transform="translate(317.145839 310.108802) rotate(-25)">structured_per_table</text>
     </g>
    </g>
    <g id="xtick_6">
     <g id="line2d_6"/>
     <g id="text_6">
      <text style="font-size: 9px; font-family: 'DejaVu Sans', 'Bitstream Vera Sans', 'Computer Modern Sans Serif', 'Lucida Grande', 'Verdana', 'Geneva', 'Lucid', 'Arial', 'Helvetica', 'Avant Garde', sans-serif; fill: #898781" transform="translate(392.51924 309.595915) rotate(-25)">write_tools_freeform</text>
     </g>
    </g>
   </g>
   <g id="matplotlib.axis_2">
    <g id="ytick_1">
     <g id="line2d_7">
      <path d="M 54.255 260.982232 
L 528.12 260.982232 
" clip-path="url(#p4c1c8b3551)" style="fill: none; stroke: #898781; stroke-opacity: 0.18; stroke-width: 0.6; stroke-linecap: square"/>
     </g>
     <g id="line2d_8"/>
     <g id="text_7">
      <text style="font-size: 11px; font-family: 'DejaVu Sans', 'Bitstream Vera Sans', 'Computer Modern Sans Serif', 'Lucida Grande', 'Verdana', 'Geneva', 'Lucid', 'Arial', 'Helvetica', 'Avant Garde', sans-serif; text-anchor: end" x="50.755" y="265.161373" transform="rotate(-0 50.755 265.161373)">0.00</text>
     </g>
    </g>
    <g id="ytick_2">
     <g id="line2d_9">
      <path d="M 54.255 233.571626 
L 528.12 233.571626 
" clip-path="url(#p4c1c8b3551)" style="fill: none; stroke: #898781; stroke-opacity: 0.18; stroke-width: 0.6; stroke-linecap: square"/>
     </g>
     <g id="line2d_10"/>
     <g id="text_8">
      <text style="font-size: 11px; font-family: 'DejaVu Sans', 'Bitstream Vera Sans', 'Computer Modern Sans Serif', 'Lucida Grande', 'Verdana', 'Geneva', 'Lucid', 'Arial', 'Helvetica', 'Avant Garde', sans-serif; text-anchor: end" x="50.755" y="237.750766" transform="rotate(-0 50.755 237.750766)">0.05</text>
     </g>
    </g>
    <g id="ytick_3">
     <g id="line2d_11">
      <path d="M 54.255 206.161019 
L 528.12 206.161019 
" clip-path="url(#p4c1c8b3551)" style="fill: none; stroke: #898781; stroke-opacity: 0.18; stroke-width: 0.6; stroke-linecap: square"/>
     </g>
     <g id="line2d_12"/>
     <g id="text_9">
      <text style="font-size: 11px; font-family: 'DejaVu Sans', 'Bitstream Vera Sans', 'Computer Modern Sans Serif', 'Lucida Grande', 'Verdana', 'Geneva', 'Lucid', 'Arial', 'Helvetica', 'Avant Garde', sans-serif; text-anchor: end" x="50.755" y="210.34016" transform="rotate(-0 50.755 210.34016)">0.10</text>
     </g>
    </g>
    <g id="ytick_4">
     <g id="line2d_13">
      <path d="M 54.255 178.750413 
L 528.12 178.750413 
" clip-path="url(#p4c1c8b3551)" style="fill: none; stroke: #898781; stroke-opacity: 0.18; stroke-width: 0.6; stroke-linecap: square"/>
     </g>
     <g id="line2d_14"/>
     <g id="text_10">
      <text style="font-size: 11px; font-family: 'DejaVu Sans', 'Bitstream Vera Sans', 'Computer Modern Sans Serif', 'Lucida Grande', 'Verdana', 'Geneva', 'Lucid', 'Arial', 'Helvetica', 'Avant Garde', sans-serif; text-anchor: end" x="50.755" y="182.929554" transform="rotate(-0 50.755 182.929554)">0.15</text>
     </g>
    </g>
    <g id="ytick_5">
     <g id="line2d_15">
      <path d="M 54.255 151.339807 
L 528.12 151.339807 
" clip-path="url(#p4c1c8b3551)" style="fill: none; stroke: #898781; stroke-opacity: 0.18; stroke-width: 0.6; stroke-linecap: square"/>
     </g>
     <g id="line2d_16"/>
     <g id="text_11">
      <text style="font-size: 11px; font-family: 'DejaVu Sans', 'Bitstream Vera Sans', 'Computer Modern Sans Serif', 'Lucida Grande', 'Verdana', 'Geneva', 'Lucid', 'Arial', 'Helvetica', 'Avant Garde', sans-serif; text-anchor: end" x="50.755" y="155.518948" transform="rotate(-0 50.755 155.518948)">0.20</text>
     </g>
    </g>
    <g id="ytick_6">
     <g id="line2d_17">
      <path d="M 54.255 123.929201 
L 528.12 123.929201 
" clip-path="url(#p4c1c8b3551)" style="fill: none; stroke: #898781; stroke-opacity: 0.18; stroke-width: 0.6; stroke-linecap: square"/>
     </g>
     <g id="line2d_18"/>
     <g id="text_12">
      <text style="font-size: 11px; font-family: 'DejaVu Sans', 'Bitstream Vera Sans', 'Computer Modern Sans Serif', 'Lucida Grande', 'Verdana', 'Geneva', 'Lucid', 'Arial', 'Helvetica', 'Avant Garde', sans-serif; text-anchor: end" x="50.755" y="128.108341" transform="rotate(-0 50.755 128.108341)">0.25</text>
     </g>
    </g>
    <g id="ytick_7">
     <g id="line2d_19">
      <path d="M 54.255 96.518595 
L 528.12 96.518595 
" clip-path="url(#p4c1c8b3551)" style="fill: none; stroke: #898781; stroke-opacity: 0.18; stroke-width: 0.6; stroke-linecap: square"/>
     </g>
     <g id="line2d_20"/>
     <g id="text_13">
      <text style="font-size: 11px; font-family: 'DejaVu Sans', 'Bitstream Vera Sans', 'Computer Modern Sans Serif', 'Lucida Grande', 'Verdana', 'Geneva', 'Lucid', 'Arial', 'Helvetica', 'Avant Garde', sans-serif; text-anchor: end" x="50.755" y="100.697735" transform="rotate(-0 50.755 100.697735)">0.30</text>
     </g>
    </g>
    <g id="ytick_8">
     <g id="line2d_21">
      <path d="M 54.255 69.107988 
L 528.12 69.107988 
" clip-path="url(#p4c1c8b3551)" style="fill: none; stroke: #898781; stroke-opacity: 0.18; stroke-width: 0.6; stroke-linecap: square"/>
     </g>
     <g id="line2d_22"/>
     <g id="text_14">
      <text style="font-size: 11px; font-family: 'DejaVu Sans', 'Bitstream Vera Sans', 'Computer Modern Sans Serif', 'Lucida Grande', 'Verdana', 'Geneva', 'Lucid', 'Arial', 'Helvetica', 'Avant Garde', sans-serif; text-anchor: end" x="50.755" y="73.287129" transform="rotate(-0 50.755 73.287129)">0.35</text>
     </g>
    </g>
    <g id="ytick_9">
     <g id="line2d_23">
      <path d="M 54.255 41.697382 
L 528.12 41.697382 
" clip-path="url(#p4c1c8b3551)" style="fill: none; stroke: #898781; stroke-opacity: 0.18; stroke-width: 0.6; stroke-linecap: square"/>
     </g>
     <g id="line2d_24"/>
     <g id="text_15">
      <text style="font-size: 11px; font-family: 'DejaVu Sans', 'Bitstream Vera Sans', 'Computer Modern Sans Serif', 'Lucida Grande', 'Verdana', 'Geneva', 'Lucid', 'Arial', 'Helvetica', 'Avant Garde', sans-serif; text-anchor: end" x="50.755" y="45.876523" transform="rotate(-0 50.755 45.876523)">0.40</text>
     </g>
    </g>
    <g id="text_16">
     <text style="font-size: 11px; font-family: 'DejaVu Sans', 'Bitstream Vera Sans', 'Computer Modern Sans Serif', 'Lucida Grande', 'Verdana', 'Geneva', 'Lucid', 'Arial', 'Helvetica', 'Avant Garde', sans-serif; text-anchor: middle; fill: #0b0b0b" x="19.975156" y="151.111116" transform="rotate(-90 19.975156 151.111116)">Cost/run ($)</text>
    </g>
   </g>
   <g id="patch_3">
    <path d="M 54.255 260.982232 
L 54.255 41.24 
" style="fill: none; stroke: #000000; stroke-width: 0.8; stroke-linejoin: miter; stroke-linecap: square"/>
   </g>
   <g id="patch_4">
    <path d="M 54.255 260.982232 
L 528.12 260.982232 
" style="fill: none; stroke: #000000; stroke-width: 0.8; stroke-linejoin: miter; stroke-linecap: square"/>
   </g>
   <g id="patch_5">
    <path d="M 75.794318 260.982232 
L 105.503723 260.982232 
L 105.503723 103.007976 
L 75.794318 103.007976 
z
" clip-path="url(#p4c1c8b3551)" style="fill: #c40d1e"/>
   </g>
   <g id="patch_6">
    <path d="M 150.067829 260.982232 
L 179.777234 260.982232 
L 179.777234 214.13519 
L 150.067829 214.13519 
z
" clip-path="url(#p4c1c8b3551)" style="fill: #ff6c00"/>
   </g>
   <g id="patch_7">
    <path d="M 224.34134 260.982232 
L 254.050745 260.982232 
L 254.050745 154.130237 
L 224.34134 154.130237 
z
" clip-path="url(#p4c1c8b3551)" style="fill: #e8a800"/>
   </g>
   <g id="patch_8">
    <path d="M 298.614851 260.982232 
L 328.324255 260.982232 
L 328.324255 161.356602 
L 298.614851 161.356602 
z
" clip-path="url(#p4c1c8b3551)" style="fill: #4f9d2e"/>
   </g>
   <g id="patch_9">
    <path d="M 372.888362 260.982232 
L 402.597766 260.982232 
L 402.597766 230.711123 
L 372.888362 230.711123 
z
" clip-path="url(#p4c1c8b3551)" style="fill: #b5297a"/>
   </g>
   <g id="patch_10">
    <path d="M 447.161873 260.982232 
L 476.871277 260.982232 
L 476.871277 236.485705 
L 447.161873 236.485705 
z
" clip-path="url(#p4c1c8b3551)" style="fill: #2f6fb0"/>
   </g>
   <g id="patch_11">
    <path d="M 105.503723 260.982232 
L 135.213127 260.982232 
L 135.213127 86.980945 
L 105.503723 86.980945 
z
" clip-path="url(#p4c1c8b3551)" style="fill: url(#hdd26934cf9)"/>
   </g>
   <g id="patch_12">
    <path d="M 179.777234 260.982232 
L 209.486638 260.982232 
L 209.486638 216.188696 
L 179.777234 216.188696 
z
" clip-path="url(#p4c1c8b3551)" style="fill: url(#hbb56a16824)"/>
   </g>
   <g id="patch_13">
    <path d="M 254.050745 260.982232 
L 283.760149 260.982232 
L 283.760149 142.83383 
L 254.050745 142.83383 
z
" clip-path="url(#p4c1c8b3551)" style="fill: url(#h084b90ed80)"/>
   </g>
   <g id="patch_14">
    <path d="M 328.324255 260.982232 
L 358.03366 260.982232 
L 358.03366 111.958753 
L 328.324255 111.958753 
z
" clip-path="url(#p4c1c8b3551)" style="fill: url(#hba7ceb23da)"/>
   </g>
   <g id="patch_15">
    <path d="M 402.597766 260.982232 
L 432.307171 260.982232 
L 432.307171 221.819517 
L 402.597766 221.819517 
z
" clip-path="url(#p4c1c8b3551)" style="fill: url(#h0af8f40d16)"/>
   </g>
   <g id="patch_16">
    <path d="M 476.871277 260.982232 
L 506.580682 260.982232 
L 506.580682 237.640338 
L 476.871277 237.640338 
z
" clip-path="url(#p4c1c8b3551)" style="fill: url(#h54fdfe7a00)"/>
   </g>
   <g id="text_17">
    <text style="font-size: 9px; font-family: 'DejaVu Sans', 'Bitstream Vera Sans', 'Computer Modern Sans Serif', 'Lucida Grande', 'Verdana', 'Geneva', 'Lucid', 'Arial', 'Helvetica', 'Avant Garde', sans-serif; text-anchor: start; fill: #898781" x="54.255" y="36.072148" transform="rotate(-0 54.255 36.072148)">median per bar · n=12–24/bar · N=264 runs</text>
   </g>
   <g id="text_18">
    <text style="font-size: 12px; font-family: 'DejaVu Sans', 'Bitstream Vera Sans', 'Computer Modern Sans Serif', 'Lucida Grande', 'Verdana', 'Geneva', 'Lucid', 'Arial', 'Helvetica', 'Avant Garde', sans-serif; text-anchor: start; fill: #0b0b0b" x="54.255" y="21.24" transform="rotate(-0 54.255 21.24)">Cost/run ($) by strategy — context mode</text>
   </g>
   <g id="LineCollection_1">
    <path d="M 90.64902 116.87771 
L 90.64902 92.896883 
" clip-path="url(#p4c1c8b3551)" style="fill: none; stroke: #898781; stroke-width: 0.9"/>
    <path d="M 164.922531 223.354526 
L 164.922531 177.487955 
" clip-path="url(#p4c1c8b3551)" style="fill: none; stroke: #898781; stroke-width: 0.9"/>
    <path d="M 239.196042 178.732515 
L 239.196042 144.629743 
" clip-path="url(#p4c1c8b3551)" style="fill: none; stroke: #898781; stroke-width: 0.9"/>
    <path d="M 313.469553 185.674278 
L 313.469553 104.489614 
" clip-path="url(#p4c1c8b3551)" style="fill: none; stroke: #898781; stroke-width: 0.9"/>
    <path d="M 387.743064 234.116836 
L 387.743064 180.719721 
" clip-path="url(#p4c1c8b3551)" style="fill: none; stroke: #898781; stroke-width: 0.9"/>
    <path d="M 462.016575 242.203082 
L 462.016575 231.260469 
" clip-path="url(#p4c1c8b3551)" style="fill: none; stroke: #898781; stroke-width: 0.9"/>
   </g>
   <g id="line2d_25">
    <defs>
     <path id="m71caf95240" d="M 2 0 
L -2 -0 
" style="stroke: #898781"/>
    </defs>
    <g clip-path="url(#p4c1c8b3551)">
     <use xlink:href="#m71caf95240" x="90.64902" y="116.87771" style="fill: #1f77b4; stroke: #898781"/>
     <use xlink:href="#m71caf95240" x="164.922531" y="223.354526" style="fill: #1f77b4; stroke: #898781"/>
     <use xlink:href="#m71caf95240" x="239.196042" y="178.732515" style="fill: #1f77b4; stroke: #898781"/>
     <use xlink:href="#m71caf95240" x="313.469553" y="185.674278" style="fill: #1f77b4; stroke: #898781"/>
     <use xlink:href="#m71caf95240" x="387.743064" y="234.116836" style="fill: #1f77b4; stroke: #898781"/>
     <use xlink:href="#m71caf95240" x="462.016575" y="242.203082" style="fill: #1f77b4; stroke: #898781"/>
    </g>
   </g>
   <g id="line2d_26">
    <g clip-path="url(#p4c1c8b3551)">
     <use xlink:href="#m71caf95240" x="90.64902" y="92.896883" style="fill: #1f77b4; stroke: #898781"/>
     <use xlink:href="#m71caf95240" x="164.922531" y="177.487955" style="fill: #1f77b4; stroke: #898781"/>
     <use xlink:href="#m71caf95240" x="239.196042" y="144.629743" style="fill: #1f77b4; stroke: #898781"/>
     <use xlink:href="#m71caf95240" x="313.469553" y="104.489614" style="fill: #1f77b4; stroke: #898781"/>
     <use xlink:href="#m71caf95240" x="387.743064" y="180.719721" style="fill: #1f77b4; stroke: #898781"/>
     <use xlink:href="#m71caf95240" x="462.016575" y="231.260469" style="fill: #1f77b4; stroke: #898781"/>
    </g>
   </g>
   <g id="LineCollection_2">
    <path d="M 120.358425 115.154875 
L 120.358425 61.758921 
" clip-path="url(#p4c1c8b3551)" style="fill: none; stroke: #898781; stroke-width: 0.9"/>
    <path d="M 194.631936 226.98763 
L 194.631936 199.772695 
" clip-path="url(#p4c1c8b3551)" style="fill: none; stroke: #898781; stroke-width: 0.9"/>
    <path d="M 268.905447 159.047735 
L 268.905447 111.555373 
" clip-path="url(#p4c1c8b3551)" style="fill: none; stroke: #898781; stroke-width: 0.9"/>
    <path d="M 343.178958 143.938777 
L 343.178958 51.703916 
" clip-path="url(#p4c1c8b3551)" style="fill: none; stroke: #898781; stroke-width: 0.9"/>
    <path d="M 417.452469 228.726275 
L 417.452469 182.74697 
" clip-path="url(#p4c1c8b3551)" style="fill: none; stroke: #898781; stroke-width: 0.9"/>
    <path d="M 491.72598 242.422547 
L 491.72598 228.436664 
" clip-path="url(#p4c1c8b3551)" style="fill: none; stroke: #898781; stroke-width: 0.9"/>
   </g>
   <g id="line2d_27">
    <g clip-path="url(#p4c1c8b3551)">
     <use xlink:href="#m71caf95240" x="120.358425" y="115.154875" style="fill: #1f77b4; stroke: #898781"/>
     <use xlink:href="#m71caf95240" x="194.631936" y="226.98763" style="fill: #1f77b4; stroke: #898781"/>
     <use xlink:href="#m71caf95240" x="268.905447" y="159.047735" style="fill: #1f77b4; stroke: #898781"/>
     <use xlink:href="#m71caf95240" x="343.178958" y="143.938777" style="fill: #1f77b4; stroke: #898781"/>
     <use xlink:href="#m71caf95240" x="417.452469" y="228.726275" style="fill: #1f77b4; stroke: #898781"/>
     <use xlink:href="#m71caf95240" x="491.72598" y="242.422547" style="fill: #1f77b4; stroke: #898781"/>
    </g>
   </g>
   <g id="line2d_28">
    <g clip-path="url(#p4c1c8b3551)">
     <use xlink:href="#m71caf95240" x="120.358425" y="61.758921" style="fill: #1f77b4; stroke: #898781"/>
     <use xlink:href="#m71caf95240" x="194.631936" y="199.772695" style="fill: #1f77b4; stroke: #898781"/>
     <use xlink:href="#m71caf95240" x="268.905447" y="111.555373" style="fill: #1f77b4; stroke: #898781"/>
     <use xlink:href="#m71caf95240" x="343.178958" y="51.703916" style="fill: #1f77b4; stroke: #898781"/>
     <use xlink:href="#m71caf95240" x="417.452469" y="182.74697" style="fill: #1f77b4; stroke: #898781"/>
     <use xlink:href="#m71caf95240" x="491.72598" y="228.436664" style="fill: #1f77b4; stroke: #898781"/>
    </g>
   </g>
   <g id="legend_1">
    <g id="patch_17">
     <path d="M 428.745938 56.178594 
L 446.745938 56.178594 
L 446.745938 49.878594 
L 428.745938 49.878594 
z
" style="fill: #898781"/>
    </g>
    <g id="text_19">
     <text style="font-size: 9px; font-family: 'DejaVu Sans', 'Bitstream Vera Sans', 'Computer Modern Sans Serif', 'Lucida Grande', 'Verdana', 'Geneva', 'Lucid', 'Arial', 'Helvetica', 'Avant Garde', sans-serif; text-anchor: start; fill: #0b0b0b" x="453.945938" y="56.178594" transform="rotate(-0 453.945938 56.178594)">metadata-only</text>
    </g>
    <g id="patch_18">
     <path d="M 428.745938 69.388906 
L 446.745938 69.388906 
L 446.745938 63.088906 
L 428.745938 63.088906 
z
" style="fill: url(#h6b55f31a3a)"/>
    </g>
    <g id="text_20">
     <text style="font-size: 9px; font-family: 'DejaVu Sans', 'Bitstream Vera Sans', 'Computer Modern Sans Serif', 'Lucida Grande', 'Verdana', 'Geneva', 'Lucid', 'Arial', 'Helvetica', 'Avant Garde', sans-serif; text-anchor: start; fill: #0b0b0b" x="453.945938" y="69.388906" transform="rotate(-0 453.945938 69.388906)">live-query</text>
    </g>
   </g>
  </g>
 </g>
 <defs>
  <clipPath id="p4c1c8b3551">
   <rect x="54.255" y="41.24" width="473.865" height="219.742232"/>
  </clipPath>
 </defs>
 <defs>
  <pattern id="hdd26934cf9" patternUnits="userSpaceOnUse" x="0" y="0" width="72" height="72">
   <rect x="0" y="0" width="73" height="73" fill="#c40d1e"/>
   <path d="M -36 36 
L 36 -36 
M -32 40 
L 40 -32 
M -28 44 
L 44 -28 
M -24 48 
L 48 -24 
M -20 52 
L 52 -20 
M -16 56 
L 56 -16 
M -12 60 
L 60 -12 
M -8 64 
L 64 -8 
M -4 68 
L 68 -4 
M 0 72 
L 72 0 
M 4 76 
L 76 4 
M 8 80 
L 80 8 
M 12 84 
L 84 12 
M 16 88 
L 88 16 
M 20 92 
L 92 20 
M 24 96 
L 96 24 
M 28 100 
L 100 28 
M 32 104 
L 104 32 
M 36 108 
L 108 36 
" style="fill: #ffffff; stroke: #ffffff; stroke-width: 0.5; stroke-linecap: butt; stroke-linejoin: miter"/>
  </pattern>
  <pattern id="hbb56a16824" patternUnits="userSpaceOnUse" x="0" y="0" width="72" height="72">
   <rect x="0" y="0" width="73" height="73" fill="#ff6c00"/>
   <path d="M -36 36 
L 36 -36 
M -32 40 
L 40 -32 
M -28 44 
L 44 -28 
M -24 48 
L 48 -24 
M -20 52 
L 52 -20 
M -16 56 
L 56 -16 
M -12 60 
L 60 -12 
M -8 64 
L 64 -8 
M -4 68 
L 68 -4 
M 0 72 
L 72 0 
M 4 76 
L 76 4 
M 8 80 
L 80 8 
M 12 84 
L 84 12 
M 16 88 
L 88 16 
M 20 92 
L 92 20 
M 24 96 
L 96 24 
M 28 100 
L 100 28 
M 32 104 
L 104 32 
M 36 108 
L 108 36 
" style="fill: #ffffff; stroke: #ffffff; stroke-width: 0.5; stroke-linecap: butt; stroke-linejoin: miter"/>
  </pattern>
  <pattern id="h084b90ed80" patternUnits="userSpaceOnUse" x="0" y="0" width="72" height="72">
   <rect x="0" y="0" width="73" height="73" fill="#e8a800"/>
   <path d="M -36 36 
L 36 -36 
M -32 40 
L 40 -32 
M -28 44 
L 44 -28 
M -24 48 
L 48 -24 
M -20 52 
L 52 -20 
M -16 56 
L 56 -16 
M -12 60 
L 60 -12 
M -8 64 
L 64 -8 
M -4 68 
L 68 -4 
M 0 72 
L 72 0 
M 4 76 
L 76 4 
M 8 80 
L 80 8 
M 12 84 
L 84 12 
M 16 88 
L 88 16 
M 20 92 
L 92 20 
M 24 96 
L 96 24 
M 28 100 
L 100 28 
M 32 104 
L 104 32 
M 36 108 
L 108 36 
" style="fill: #ffffff; stroke: #ffffff; stroke-width: 0.5; stroke-linecap: butt; stroke-linejoin: miter"/>
  </pattern>
  <pattern id="hba7ceb23da" patternUnits="userSpaceOnUse" x="0" y="0" width="72" height="72">
   <rect x="0" y="0" width="73" height="73" fill="#4f9d2e"/>
   <path d="M -36 36 
L 36 -36 
M -32 40 
L 40 -32 
M -28 44 
L 44 -28 
M -24 48 
L 48 -24 
M -20 52 
L 52 -20 
M -16 56 
L 56 -16 
M -12 60 
L 60 -12 
M -8 64 
L 64 -8 
M -4 68 
L 68 -4 
M 0 72 
L 72 0 
M 4 76 
L 76 4 
M 8 80 
L 80 8 
M 12 84 
L 84 12 
M 16 88 
L 88 16 
M 20 92 
L 92 20 
M 24 96 
L 96 24 
M 28 100 
L 100 28 
M 32 104 
L 104 32 
M 36 108 
L 108 36 
" style="fill: #ffffff; stroke: #ffffff; stroke-width: 0.5; stroke-linecap: butt; stroke-linejoin: miter"/>
  </pattern>
  <pattern id="h0af8f40d16" patternUnits="userSpaceOnUse" x="0" y="0" width="72" height="72">
   <rect x="0" y="0" width="73" height="73" fill="#b5297a"/>
   <path d="M -36 36 
L 36 -36 
M -32 40 
L 40 -32 
M -28 44 
L 44 -28 
M -24 48 
L 48 -24 
M -20 52 
L 52 -20 
M -16 56 
L 56 -16 
M -12 60 
L 60 -12 
M -8 64 
L 64 -8 
M -4 68 
L 68 -4 
M 0 72 
L 72 0 
M 4 76 
L 76 4 
M 8 80 
L 80 8 
M 12 84 
L 84 12 
M 16 88 
L 88 16 
M 20 92 
L 92 20 
M 24 96 
L 96 24 
M 28 100 
L 100 28 
M 32 104 
L 104 32 
M 36 108 
L 108 36 
" style="fill: #ffffff; stroke: #ffffff; stroke-width: 0.5; stroke-linecap: butt; stroke-linejoin: miter"/>
  </pattern>
  <pattern id="h54fdfe7a00" patternUnits="userSpaceOnUse" x="0" y="0" width="72" height="72">
   <rect x="0" y="0" width="73" height="73" fill="#2f6fb0"/>
   <path d="M -36 36 
L 36 -36 
M -32 40 
L 40 -32 
M -28 44 
L 44 -28 
M -24 48 
L 48 -24 
M -20 52 
L 52 -20 
M -16 56 
L 56 -16 
M -12 60 
L 60 -12 
M -8 64 
L 64 -8 
M -4 68 
L 68 -4 
M 0 72 
L 72 0 
M 4 76 
L 76 4 
M 8 80 
L 80 8 
M 12 84 
L 84 12 
M 16 88 
L 88 16 
M 20 92 
L 92 20 
M 24 96 
L 96 24 
M 28 100 
L 100 28 
M 32 104 
L 104 32 
M 36 108 
L 108 36 
" style="fill: #ffffff; stroke: #ffffff; stroke-width: 0.5; stroke-linecap: butt; stroke-linejoin: miter"/>
  </pattern>
  <pattern id="h6b55f31a3a" patternUnits="userSpaceOnUse" x="0" y="0" width="72" height="72">
   <rect x="0" y="0" width="73" height="73" fill="#898781"/>
   <path d="M -36 36 
L 36 -36 
M -32 40 
L 40 -32 
M -28 44 
L 44 -28 
M -24 48 
L 48 -24 
M -20 52 
L 52 -20 
M -16 56 
L 56 -16 
M -12 60 
L 60 -12 
M -8 64 
L 64 -8 
M -4 68 
L 68 -4 
M 0 72 
L 72 0 
M 4 76 
L 76 4 
M 8 80 
L 80 8 
M 12 84 
L 84 12 
M 16 88 
L 88 16 
M 20 92 
L 92 20 
M 24 96 
L 96 24 
M 28 100 
L 100 28 
M 32 104 
L 104 32 
M 36 108 
L 108 36 
" style="fill: #ffffff; stroke: #ffffff; stroke-width: 0.5; stroke-linecap: butt; stroke-linejoin: miter"/>
  </pattern>
 </defs>
</svg>
