<?xml version="1.0" encoding="utf-8" standalone="no"?>
<!DOCTYPE svg PUBLIC "-//W3C//DTD SVG 1.1//EN"
  "http://www.w3.org/Graphics/SVG/1.1/DTD/svg11.dtd">
<svg xmlns:xlink="http://www.w3.org/1999/xlink" width="540pt" height="324pt" viewBox="0 0 540 324" xmlns="http://www.w3.org/2000/svg" version="1.1">
 <metadata>
  <rdf:RDF xmlns:dc="http://purl.org/dc/elements/1.1/" xmlns:cc="http://creativecommons.org/ns#" xmlns:rdf="http://www.w3.org/1999/02/22-rdf-syntax-ns#">
   <cc:Work>
    <dc:type rdf:resource="http://purl.org/dc/dcmitype/StillImage"/>
    <dc:format>image/svg+xml</dc:format>
    <dc:creator>
     <cc:Agent>
      <dc:title>Matplotlib v3.10.9, https://matplotlib.org/</dc:title>
     </cc:Agent>
    </dc:creator>
   </cc:Work>
  </rdf:RDF>
 </metadata>
 <defs>
  <style type="text/css">*{stroke-linejoin: round; stroke-linecap: butt}</style>
 </defs>
 <g id="figure_1">
  <g id="patch_1">
   <path d="M 0 324 
L 540 324 
L 540 0 
L 0 0 
L 0 324 
z
" style="fill: none"/>
  </g>
  <g id="axes_1">
   <g id="patch_2">
    <path d="M 47.28 260.982232 
L 528.12 260.982232 
L 528.12 27.24 
L 47.28 27.24 
L 47.28 260.982232 
z
" style="fill: none"/>
   </g>
   <g id="matplotlib.axis_1">
    <g id="xtick_1">
     <g id="line2d_1"/>
     <g id="text_1">
      <text style="font-size: 9px; font-family: 'DejaVu Sans', 'Bitstream Vera Sans', 'Computer Modern Sans Serif', 'Lucida Grande', 'Verdana', 'Geneva', 'Lucid', 'Arial', 'Helvetica', 'Avant Garde', sans-serif; fill: #898781" transform="translate(42.68812 299.581249) rotate(-25)">ensemble_vote</text>
     </g>
    </g>
    <g id="xtick_2">
     <g id="line2d_2"/>
     <g id="text_2">
      <text style="font-size: 9px; font-family: 'DejaVu Sans', 'Bitstream Vera Sans', 'Computer Modern Sans Serif', 'Lucida Grande', 'Verdana', 'Geneva', 'Lucid', 'Arial', 'Helvetica', 'Avant Garde', sans-serif; fill: #898781" transform="translate(119.071566 306.428853) rotate(-25)">plan_then_execute</text>
     </g>
    </g>
    <g id="xtick_3">
     <g id="line2d_3"/>
     <g id="text_3">
      <text style="font-size: 9px; font-family: 'DejaVu Sans', 'Bitstream Vera Sans', 'Computer Modern Sans Serif', 'Lucida Grande', 'Verdana', 'Geneva', 'Lucid', 'Arial', 'Helvetica', 'Avant Garde', sans-serif; fill: #898781" transform="translate(208.649863 307.123598) rotate(-25)">write_then_critique</text>
     </g>
    </g>
    <g id="xtick_4">
     <g id="line2d_4"/>
     <g id="text_4">
      <text style="font-size: 9px; font-family: 'DejaVu Sans', 'Bitstream Vera Sans', 'Computer Modern Sans Serif', 'Lucida Grande', 'Verdana', 'Geneva', 'Lucid', 'Arial', 'Helvetica', 'Avant Garde', sans-serif; fill: #898781" transform="translate(293.316255 310.108802) rotate(-25)">structured_per_table</text>
     </g>
    </g>
    <g id="xtick_5">
     <g id="line2d_5"/>
     <g id="text_5">
      <text style="font-size: 9px; font-family: 'DejaVu Sans', 'Bitstream Vera Sans', 'Computer Modern Sans Serif', 'Lucida Grande', 'Verdana', 'Geneva', 'Lucid', 'Arial', 'Helvetica', 'Avant Garde', sans-serif; fill: #898781" transform="translate(385.484326 309.595915) rotate(-25)">write_tools_freeform</text>
     </g>
    </g>
   </g>
   <g id="matplotlib.axis_2">
    <g id="ytick_1">
     <g id="line2d_6">
      <path d="M 47.28 260.982232 
L 528.12 260.982232 
" clip-path="url(#p4380e889bb)" style="fill: none; stroke: #898781; stroke-opacity: 0.18; stroke-width: 0.6; stroke-linecap: square"/>
     </g>
     <g id="line2d_7"/>
     <g id="text_6">
      <text style="font-size: 11px; font-family: 'DejaVu Sans', 'Bitstream Vera Sans', 'Computer Modern Sans Serif', 'Lucida Grande', 'Verdana', 'Geneva', 'Lucid', 'Arial', 'Helvetica', 'Avant Garde', sans-serif; text-anchor: end" x="43.78" y="265.161373" transform="rotate(-0 43.78 265.161373)">0.0</text>
     </g>
    </g>
    <g id="ytick_2">
     <g id="line2d_8">
      <path d="M 47.28 220.331409 
L 528.12 220.331409 
" clip-path="url(#p4380e889bb)" style="fill: none; stroke: #898781; stroke-opacity: 0.18; stroke-width: 0.6; stroke-linecap: square"/>
     </g>
     <g id="line2d_9"/>
     <g id="text_7">
      <text style="font-size: 11px; font-family: 'DejaVu Sans', 'Bitstream Vera Sans', 'Computer Modern Sans Serif', 'Lucida Grande', 'Verdana', 'Geneva', 'Lucid', 'Arial', 'Helvetica', 'Avant Garde', sans-serif; text-anchor: end" x="43.78" y="224.51055" transform="rotate(-0 43.78 224.51055)">0.2</text>
     </g>
    </g>
    <g id="ytick_3">
     <g id="line2d_10">
      <path d="M 47.28 179.680586 
L 528.12 179.680586 
" clip-path="url(#p4380e889bb)" style="fill: none; stroke: #898781; stroke-opacity: 0.18; stroke-width: 0.6; stroke-linecap: square"/>
     </g>
     <g id="line2d_11"/>
     <g id="text_8">
      <text style="font-size: 11px; font-family: 'DejaVu Sans', 'Bitstream Vera Sans', 'Computer Modern Sans Serif', 'Lucida Grande', 'Verdana', 'Geneva', 'Lucid', 'Arial', 'Helvetica', 'Avant Garde', sans-serif; text-anchor: end" x="43.78" y="183.859727" transform="rotate(-0 43.78 183.859727)">0.4</text>
     </g>
    </g>
    <g id="ytick_4">
     <g id="line2d_12">
      <path d="M 47.28 139.029763 
L 528.12 139.029763 
" clip-path="url(#p4380e889bb)" style="fill: none; stroke: #898781; stroke-opacity: 0.18; stroke-width: 0.6; stroke-linecap: square"/>
     </g>
     <g id="line2d_13"/>
     <g id="text_9">
      <text style="font-size: 11px; font-family: 'DejaVu Sans', 'Bitstream Vera Sans', 'Computer Modern Sans Serif', 'Lucida Grande', 'Verdana', 'Geneva', 'Lucid', 'Arial', 'Helvetica', 'Avant Garde', sans-serif; text-anchor: end" x="43.78" y="143.208904" transform="rotate(-0 43.78 143.208904)">0.6</text>
     </g>
    </g>
    <g id="ytick_5">
     <g id="line2d_14">
      <path d="M 47.28 98.37894 
L 528.12 98.37894 
" clip-path="url(#p4380e889bb)" style="fill: none; stroke: #898781; stroke-opacity: 0.18; stroke-width: 0.6; stroke-linecap: square"/>
     </g>
     <g id="line2d_15"/>
     <g id="text_10">
      <text style="font-size: 11px; font-family: 'DejaVu Sans', 'Bitstream Vera Sans', 'Computer Modern Sans Serif', 'Lucida Grande', 'Verdana', 'Geneva', 'Lucid', 'Arial', 'Helvetica', 'Avant Garde', sans-serif; text-anchor: end" x="43.78" y="102.558081" transform="rotate(-0 43.78 102.558081)">0.8</text>
     </g>
    </g>
    <g id="ytick_6">
     <g id="line2d_16">
      <path d="M 47.28 57.728117 
L 528.12 57.728117 
" clip-path="url(#p4380e889bb)" style="fill: none; stroke: #898781; stroke-opacity: 0.18; stroke-width: 0.6; stroke-linecap: square"/>
     </g>
     <g id="line2d_17"/>
     <g id="text_11">
      <text style="font-size: 11px; font-family: 'DejaVu Sans', 'Bitstream Vera Sans', 'Computer Modern Sans Serif', 'Lucida Grande', 'Verdana', 'Geneva', 'Lucid', 'Arial', 'Helvetica', 'Avant Garde', sans-serif; text-anchor: end" x="43.78" y="61.907258" transform="rotate(-0 43.78 61.907258)">1.0</text>
     </g>
    </g>
    <g id="text_12">
     <text style="font-size: 11px; font-family: 'DejaVu Sans', 'Bitstream Vera Sans', 'Computer Modern Sans Serif', 'Lucida Grande', 'Verdana', 'Geneva', 'Lucid', 'Arial', 'Helvetica', 'Avant Garde', sans-serif; text-anchor: middle; fill: #0b0b0b" x="19.998906" y="144.111116" transform="rotate(-90 19.998906 144.111116)">Recall</text>
    </g>
   </g>
   <g id="patch_3">
    <path d="M 47.28 260.982232 
L 47.28 27.24 
" style="fill: none; stroke: #000000; stroke-width: 0.8; stroke-linejoin: miter; stroke-linecap: square"/>
   </g>
   <g id="patch_4">
    <path d="M 47.28 260.982232 
L 528.12 260.982232 
" style="fill: none; stroke: #000000; stroke-width: 0.8; stroke-linejoin: miter; stroke-linecap: square"/>
   </g>
   <g id="patch_5">
    <path d="M 69.136364 260.982232 
L 105.563636 260.982232 
L 105.563636 78.652894 
L 69.136364 78.652894 
z
" clip-path="url(#p4380e889bb)" style="fill: #c40d1e"/>
   </g>
   <g id="patch_6">
    <path d="M 160.204545 260.982232 
L 196.631818 260.982232 
L 196.631818 95.67818 
L 160.204545 95.67818 
z
" clip-path="url(#p4380e889bb)" style="fill: #ff6c00"/>
   </g>
   <g id="patch_7">
    <path d="M 251.272727 260.982232 
L 287.7 260.982232 
L 287.7 132.077624 
L 251.272727 132.077624 
z
" clip-path="url(#p4380e889bb)" style="fill: #e8a800"/>
   </g>
   <g id="patch_8">
    <path d="M 342.340909 260.982232 
L 378.768182 260.982232 
L 378.768182 134.502163 
L 342.340909 134.502163 
z
" clip-path="url(#p4380e889bb)" style="fill: #b5297a"/>
   </g>
   <g id="patch_9">
    <path d="M 433.409091 260.982232 
L 469.836364 260.982232 
L 469.836364 112.39852 
L 433.409091 112.39852 
z
" clip-path="url(#p4380e889bb)" style="fill: #2f6fb0"/>
   </g>
   <g id="patch_10">
    <path d="M 105.563636 260.982232 
L 141.990909 260.982232 
L 141.990909 101.924811 
L 105.563636 101.924811 
z
" clip-path="url(#p4380e889bb)" style="fill: url(#h76be909257)"/>
   </g>
   <g id="patch_11">
    <path d="M 196.631818 260.982232 
L 233.059091 260.982232 
L 233.059091 112.688857 
L 196.631818 112.688857 
z
" clip-path="url(#p4380e889bb)" style="fill: url(#h1bfc4a4b74)"/>
   </g>
   <g id="patch_12">
    <path d="M 287.7 260.982232 
L 324.127273 260.982232 
L 324.127273 77.592193 
L 287.7 77.592193 
z
" clip-path="url(#p4380e889bb)" style="fill: url(#h9e0bf42240)"/>
   </g>
   <g id="patch_13">
    <path d="M 378.768182 260.982232 
L 415.195455 260.982232 
L 415.195455 111.218162 
L 378.768182 111.218162 
z
" clip-path="url(#p4380e889bb)" style="fill: url(#he59ce5a9c2)"/>
   </g>
   <g id="patch_14">
    <path d="M 469.836364 260.982232 
L 506.263636 260.982232 
L 506.263636 95.07939 
L 469.836364 95.07939 
z
" clip-path="url(#p4380e889bb)" style="fill: url(#h8806979efd)"/>
   </g>
   <g id="text_13">
    <text style="font-size: 7px; font-family: 'DejaVu Sans', 'Bitstream Vera Sans', 'Computer Modern Sans Serif', 'Lucida Grande', 'Verdana', 'Geneva', 'Lucid', 'Arial', 'Helvetica', 'Avant Garde', sans-serif; text-anchor: middle; fill: #898781" x="87.35" y="75.197113" transform="rotate(-0 87.35 75.197113)">±0.22</text>
   </g>
   <g id="text_14">
    <text style="font-size: 7px; font-family: 'DejaVu Sans', 'Bitstream Vera Sans', 'Computer Modern Sans Serif', 'Lucida Grande', 'Verdana', 'Geneva', 'Lucid', 'Arial', 'Helvetica', 'Avant Garde', sans-serif; text-anchor: middle; fill: #898781" x="178.418182" y="92.222399" transform="rotate(-0 178.418182 92.222399)">±0.33</text>
   </g>
   <g id="text_15">
    <text style="font-size: 7px; font-family: 'DejaVu Sans', 'Bitstream Vera Sans', 'Computer Modern Sans Serif', 'Lucida Grande', 'Verdana', 'Geneva', 'Lucid', 'Arial', 'Helvetica', 'Avant Garde', sans-serif; text-anchor: middle; fill: #898781" x="269.486364" y="128.621843" transform="rotate(-0 269.486364 128.621843)">±0.38</text>
   </g>
   <g id="text_16">
    <text style="font-size: 7px; font-family: 'DejaVu Sans', 'Bitstream Vera Sans', 'Computer Modern Sans Serif', 'Lucida Grande', 'Verdana', 'Geneva', 'Lucid', 'Arial', 'Helvetica', 'Avant Garde', sans-serif; text-anchor: middle; fill: #898781" x="360.554545" y="131.046382" transform="rotate(-0 360.554545 131.046382)">±0.40</text>
   </g>
   <g id="text_17">
    <text style="font-size: 7px; font-family: 'DejaVu Sans', 'Bitstream Vera Sans', 'Computer Modern Sans Serif', 'Lucida Grande', 'Verdana', 'Geneva', 'Lucid', 'Arial', 'Helvetica', 'Avant Garde', sans-serif; text-anchor: middle; fill: #898781" x="451.622727" y="108.942739" transform="rotate(-0 451.622727 108.942739)">±0.42</text>
   </g>
   <g id="text_18">
    <text style="font-size: 7px; font-family: 'DejaVu Sans', 'Bitstream Vera Sans', 'Computer Modern Sans Serif', 'Lucida Grande', 'Verdana', 'Geneva', 'Lucid', 'Arial', 'Helvetica', 'Avant Garde', sans-serif; text-anchor: middle; fill: #898781" x="123.777273" y="98.469029" transform="rotate(-0 123.777273 98.469029)">±0.33</text>
   </g>
   <g id="text_19">
    <text style="font-size: 7px; font-family: 'DejaVu Sans', 'Bitstream Vera Sans', 'Computer Modern Sans Serif', 'Lucida Grande', 'Verdana', 'Geneva', 'Lucid', 'Arial', 'Helvetica', 'Avant Garde', sans-serif; text-anchor: middle; fill: #898781" x="214.845455" y="109.233075" transform="rotate(-0 214.845455 109.233075)">±0.38</text>
   </g>
   <g id="text_20">
    <text style="font-size: 7px; font-family: 'DejaVu Sans', 'Bitstream Vera Sans', 'Computer Modern Sans Serif', 'Lucida Grande', 'Verdana', 'Geneva', 'Lucid', 'Arial', 'Helvetica', 'Avant Garde', sans-serif; text-anchor: middle; fill: #898781" x="305.913636" y="74.136412" transform="rotate(-0 305.913636 74.136412)">±0.14</text>
   </g>
   <g id="text_21">
    <text style="font-size: 7px; font-family: 'DejaVu Sans', 'Bitstream Vera Sans', 'Computer Modern Sans Serif', 'Lucida Grande', 'Verdana', 'Geneva', 'Lucid', 'Arial', 'Helvetica', 'Avant Garde', sans-serif; text-anchor: middle; fill: #898781" x="396.981818" y="107.762381" transform="rotate(-0 396.981818 107.762381)">±0.33</text>
   </g>
   <g id="text_22">
    <text style="font-size: 7px; font-family: 'DejaVu Sans', 'Bitstream Vera Sans', 'Computer Modern Sans Serif', 'Lucida Grande', 'Verdana', 'Geneva', 'Lucid', 'Arial', 'Helvetica', 'Avant Garde', sans-serif; text-anchor: middle; fill: #898781" x="488.05" y="91.623609" transform="rotate(-0 488.05 91.623609)">±0.38</text>
   </g>
   <g id="text_23">
    <text style="font-size: 12px; font-family: 'DejaVu Sans', 'Bitstream Vera Sans', 'Computer Modern Sans Serif', 'Lucida Grande', 'Verdana', 'Geneva', 'Lucid', 'Arial', 'Helvetica', 'Avant Garde', sans-serif; text-anchor: start; fill: #0b0b0b" x="47.28" y="21.24" transform="rotate(-0 47.28 21.24)">Recall by strategy — context mode</text>
   </g>
   <g id="legend_1">
    <g id="patch_15">
     <path d="M 428.745938 42.178594 
L 446.745938 42.178594 
L 446.745938 35.878594 
L 428.745938 35.878594 
z
" style="fill: #898781"/>
    </g>
    <g id="text_24">
     <text style="font-size: 9px; font-family: 'DejaVu Sans', 'Bitstream Vera Sans', 'Computer Modern Sans Serif', 'Lucida Grande', 'Verdana', 'Geneva', 'Lucid', 'Arial', 'Helvetica', 'Avant Garde', sans-serif; text-anchor: start; fill: #0b0b0b" x="453.945938" y="42.178594" transform="rotate(-0 453.945938 42.178594)">metadata-only</text>
    </g>
    <g id="patch_16">
     <path d="M 428.745938 55.388906 
L 446.745938 55.388906 
L 446.745938 49.088906 
L 428.745938 49.088906 
z
" style="fill: url(#hccc585c286)"/>
    </g>
    <g id="text_25">
     <text style="font-size: 9px; font-family: 'DejaVu Sans', 'Bitstream Vera Sans', 'Computer Modern Sans Serif', 'Lucida Grande', 'Verdana', 'Geneva', 'Lucid', 'Arial', 'Helvetica', 'Avant Garde', sans-serif; text-anchor: start; fill: #0b0b0b" x="453.945938" y="55.388906" transform="rotate(-0 453.945938 55.388906)">live-query</text>
    </g>
   </g>
  </g>
 </g>
 <defs>
  <clipPath id="p4380e889bb">
   <rect x="47.28" y="27.24" width="480.84" height="233.742232"/>
  </clipPath>
 </defs>
 <defs>
  <pattern id="h76be909257" patternUnits="userSpaceOnUse" x="0" y="0" width="72" height="72">
   <rect x="0" y="0" width="73" height="73" fill="#c40d1e"/>
   <path d="M -36 36 
L 36 -36 
M -32 40 
L 40 -32 
M -28 44 
L 44 -28 
M -24 48 
L 48 -24 
M -20 52 
L 52 -20 
M -16 56 
L 56 -16 
M -12 60 
L 60 -12 
M -8 64 
L 64 -8 
M -4 68 
L 68 -4 
M 0 72 
L 72 0 
M 4 76 
L 76 4 
M 8 80 
L 80 8 
M 12 84 
L 84 12 
M 16 88 
L 88 16 
M 20 92 
L 92 20 
M 24 96 
L 96 24 
M 28 100 
L 100 28 
M 32 104 
L 104 32 
M 36 108 
L 108 36 
" style="fill: #ffffff; stroke: #ffffff; stroke-width: 0.5; stroke-linecap: butt; stroke-linejoin: miter"/>
  </pattern>
  <pattern id="h1bfc4a4b74" patternUnits="userSpaceOnUse" x="0" y="0" width="72" height="72">
   <rect x="0" y="0" width="73" height="73" fill="#ff6c00"/>
   <path d="M -36 36 
L 36 -36 
M -32 40 
L 40 -32 
M -28 44 
L 44 -28 
M -24 48 
L 48 -24 
M -20 52 
L 52 -20 
M -16 56 
L 56 -16 
M -12 60 
L 60 -12 
M -8 64 
L 64 -8 
M -4 68 
L 68 -4 
M 0 72 
L 72 0 
M 4 76 
L 76 4 
M 8 80 
L 80 8 
M 12 84 
L 84 12 
M 16 88 
L 88 16 
M 20 92 
L 92 20 
M 24 96 
L 96 24 
M 28 100 
L 100 28 
M 32 104 
L 104 32 
M 36 108 
L 108 36 
" style="fill: #ffffff; stroke: #ffffff; stroke-width: 0.5; stroke-linecap: butt; stroke-linejoin: miter"/>
  </pattern>
  <pattern id="h9e0bf42240" patternUnits="userSpaceOnUse" x="0" y="0" width="72" height="72">
   <rect x="0" y="0" width="73" height="73" fill="#e8a800"/>
   <path d="M -36 36 
L 36 -36 
M -32 40 
L 40 -32 
M -28 44 
L 44 -28 
M -24 48 
L 48 -24 
M -20 52 
L 52 -20 
M -16 56 
L 56 -16 
M -12 60 
L 60 -12 
M -8 64 
L 64 -8 
M -4 68 
L 68 -4 
M 0 72 
L 72 0 
M 4 76 
L 76 4 
M 8 80 
L 80 8 
M 12 84 
L 84 12 
M 16 88 
L 88 16 
M 20 92 
L 92 20 
M 24 96 
L 96 24 
M 28 100 
L 100 28 
M 32 104 
L 104 32 
M 36 108 
L 108 36 
" style="fill: #ffffff; stroke: #ffffff; stroke-width: 0.5; stroke-linecap: butt; stroke-linejoin: miter"/>
  </pattern>
  <pattern id="he59ce5a9c2" patternUnits="userSpaceOnUse" x="0" y="0" width="72" height="72">
   <rect x="0" y="0" width="73" height="73" fill="#b5297a"/>
   <path d="M -36 36 
L 36 -36 
M -32 40 
L 40 -32 
M -28 44 
L 44 -28 
M -24 48 
L 48 -24 
M -20 52 
L 52 -20 
M -16 56 
L 56 -16 
M -12 60 
L 60 -12 
M -8 64 
L 64 -8 
M -4 68 
L 68 -4 
M 0 72 
L 72 0 
M 4 76 
L 76 4 
M 8 80 
L 80 8 
M 12 84 
L 84 12 
M 16 88 
L 88 16 
M 20 92 
L 92 20 
M 24 96 
L 96 24 
M 28 100 
L 100 28 
M 32 104 
L 104 32 
M 36 108 
L 108 36 
" style="fill: #ffffff; stroke: #ffffff; stroke-width: 0.5; stroke-linecap: butt; stroke-linejoin: miter"/>
  </pattern>
  <pattern id="h8806979efd" patternUnits="userSpaceOnUse" x="0" y="0" width="72" height="72">
   <rect x="0" y="0" width="73" height="73" fill="#2f6fb0"/>
   <path d="M -36 36 
L 36 -36 
M -32 40 
L 40 -32 
M -28 44 
L 44 -28 
M -24 48 
L 48 -24 
M -20 52 
L 52 -20 
M -16 56 
L 56 -16 
M -12 60 
L 60 -12 
M -8 64 
L 64 -8 
M -4 68 
L 68 -4 
M 0 72 
L 72 0 
M 4 76 
L 76 4 
M 8 80 
L 80 8 
M 12 84 
L 84 12 
M 16 88 
L 88 16 
M 20 92 
L 92 20 
M 24 96 
L 96 24 
M 28 100 
L 100 28 
M 32 104 
L 104 32 
M 36 108 
L 108 36 
" style="fill: #ffffff; stroke: #ffffff; stroke-width: 0.5; stroke-linecap: butt; stroke-linejoin: miter"/>
  </pattern>
  <pattern id="hccc585c286" patternUnits="userSpaceOnUse" x="0" y="0" width="72" height="72">
   <rect x="0" y="0" width="73" height="73" fill="#898781"/>
   <path d="M -36 36 
L 36 -36 
M -32 40 
L 40 -32 
M -28 44 
L 44 -28 
M -24 48 
L 48 -24 
M -20 52 
L 52 -20 
M -16 56 
L 56 -16 
M -12 60 
L 60 -12 
M -8 64 
L 64 -8 
M -4 68 
L 68 -4 
M 0 72 
L 72 0 
M 4 76 
L 76 4 
M 8 80 
L 80 8 
M 12 84 
L 84 12 
M 16 88 
L 88 16 
M 20 92 
L 92 20 
M 24 96 
L 96 24 
M 28 100 
L 100 28 
M 32 104 
L 104 32 
M 36 108 
L 108 36 
" style="fill: #ffffff; stroke: #ffffff; stroke-width: 0.5; stroke-linecap: butt; stroke-linejoin: miter"/>
  </pattern>
 </defs>
</svg>
