<?xml version="1.0" encoding="utf-8" standalone="no"?>
<!DOCTYPE svg PUBLIC "-//W3C//DTD SVG 1.1//EN"
  "http://www.w3.org/Graphics/SVG/1.1/DTD/svg11.dtd">
<svg xmlns:xlink="http://www.w3.org/1999/xlink" width="540pt" height="324pt" viewBox="0 0 540 324" xmlns="http://www.w3.org/2000/svg" version="1.1">
 <metadata>
  <rdf:RDF xmlns:dc="http://purl.org/dc/elements/1.1/" xmlns:cc="http://creativecommons.org/ns#" xmlns:rdf="http://www.w3.org/1999/02/22-rdf-syntax-ns#">
   <cc:Work>
    <dc:type rdf:resource="http://purl.org/dc/dcmitype/StillImage"/>
    <dc:format>image/svg+xml</dc:format>
    <dc:creator>
     <cc:Agent>
      <dc:title>Matplotlib v3.10.9, https://matplotlib.org/</dc:title>
     </cc:Agent>
    </dc:creator>
   </cc:Work>
  </rdf:RDF>
 </metadata>
 <defs>
  <style type="text/css">*{stroke-linejoin: round; stroke-linecap: butt}</style>
 </defs>
 <g id="figure_1">
  <g id="patch_1">
   <path d="M 0 324 
L 540 324 
L 540 0 
L 0 0 
L 0 324 
z
" style="fill: none"/>
  </g>
  <g id="axes_1">
   <g id="patch_2">
    <path d="M 71.715 242.896283 
L 528.12 242.896283 
L 528.12 27.24 
L 71.715 27.24 
L 71.715 242.896283 
z
" style="fill: none"/>
   </g>
   <g id="matplotlib.axis_1">
    <g id="xtick_1">
     <g id="line2d_1"/>
     <g id="text_1">
      <text style="font-size: 9px; font-family: 'DejaVu Sans', 'Bitstream Vera Sans', 'Computer Modern Sans Serif', 'Lucida Grande', 'Verdana', 'Geneva', 'Lucid', 'Arial', 'Helvetica', 'Avant Garde', sans-serif; fill: #898781" transform="translate(53.991849 281.4953) rotate(-25)">ensemble_vote</text>
     </g>
    </g>
    <g id="xtick_2">
     <g id="line2d_2"/>
     <g id="text_2">
      <text style="font-size: 9px; font-family: 'DejaVu Sans', 'Bitstream Vera Sans', 'Computer Modern Sans Serif', 'Lucida Grande', 'Verdana', 'Geneva', 'Lucid', 'Arial', 'Helvetica', 'Avant Garde', sans-serif; fill: #898781" transform="translate(100.323826 288.342905) rotate(-25)">plan_then_execute</text>
     </g>
    </g>
    <g id="xtick_3">
     <g id="line2d_3"/>
     <g id="text_3">
      <text style="font-size: 9px; font-family: 'DejaVu Sans', 'Bitstream Vera Sans', 'Computer Modern Sans Serif', 'Lucida Grande', 'Verdana', 'Geneva', 'Lucid', 'Arial', 'Helvetica', 'Avant Garde', sans-serif; fill: #898781" transform="translate(159.850652 289.037649) rotate(-25)">write_then_critique</text>
     </g>
    </g>
    <g id="xtick_4">
     <g id="line2d_4"/>
     <g id="text_4">
      <text style="font-size: 9px; font-family: 'DejaVu Sans', 'Bitstream Vera Sans', 'Computer Modern Sans Serif', 'Lucida Grande', 'Verdana', 'Geneva', 'Lucid', 'Arial', 'Helvetica', 'Avant Garde', sans-serif; fill: #898781" transform="translate(221.81049 288.597862) rotate(-25)">plan_write_critique</text>
     </g>
    </g>
    <g id="xtick_5">
     <g id="line2d_5"/>
     <g id="text_5">
      <text style="font-size: 9px; font-family: 'DejaVu Sans', 'Bitstream Vera Sans', 'Computer Modern Sans Serif', 'Lucida Grande', 'Verdana', 'Geneva', 'Lucid', 'Arial', 'Helvetica', 'Avant Garde', sans-serif; fill: #898781" transform="translate(275.482284 292.022853) rotate(-25)">structured_per_table</text>
     </g>
    </g>
    <g id="xtick_6">
     <g id="line2d_6"/>
     <g id="text_6">
      <text style="font-size: 9px; font-family: 'DejaVu Sans', 'Bitstream Vera Sans', 'Computer Modern Sans Serif', 'Lucida Grande', 'Verdana', 'Geneva', 'Lucid', 'Arial', 'Helvetica', 'Avant Garde', sans-serif; fill: #898781" transform="translate(337.598885 291.509966) rotate(-25)">write_tools_freeform</text>
     </g>
    </g>
    <g id="xtick_7">
     <g id="line2d_7"/>
     <g id="text_7">
      <text style="font-size: 9px; font-family: 'DejaVu Sans', 'Bitstream Vera Sans', 'Computer Modern Sans Serif', 'Lucida Grande', 'Verdana', 'Geneva', 'Lucid', 'Arial', 'Helvetica', 'Avant Garde', sans-serif; fill: #898781" transform="translate(358.827127 310.063634) rotate(-25)">write_tools_freeform_inlinedbt</text>
     </g>
    </g>
   </g>
   <g id="matplotlib.axis_2">
    <g id="ytick_1">
     <g id="line2d_8">
      <path d="M 71.715 242.896283 
L 528.12 242.896283 
" clip-path="url(#pf4eed726dc)" style="fill: none; stroke: #898781; stroke-opacity: 0.18; stroke-width: 0.6; stroke-linecap: square"/>
     </g>
     <g id="line2d_9"/>
     <g id="text_8">
      <text style="font-size: 11px; font-family: 'DejaVu Sans', 'Bitstream Vera Sans', 'Computer Modern Sans Serif', 'Lucida Grande', 'Verdana', 'Geneva', 'Lucid', 'Arial', 'Helvetica', 'Avant Garde', sans-serif; text-anchor: end" x="68.215" y="247.075424" transform="rotate(-0 68.215 247.075424)">0</text>
     </g>
    </g>
    <g id="ytick_2">
     <g id="line2d_10">
      <path d="M 71.715 200.748977 
L 528.12 200.748977 
" clip-path="url(#pf4eed726dc)" style="fill: none; stroke: #898781; stroke-opacity: 0.18; stroke-width: 0.6; stroke-linecap: square"/>
     </g>
     <g id="line2d_11"/>
     <g id="text_9">
      <text style="font-size: 11px; font-family: 'DejaVu Sans', 'Bitstream Vera Sans', 'Computer Modern Sans Serif', 'Lucida Grande', 'Verdana', 'Geneva', 'Lucid', 'Arial', 'Helvetica', 'Avant Garde', sans-serif; text-anchor: end" x="68.215" y="204.928118" transform="rotate(-0 68.215 204.928118)">100000</text>
     </g>
    </g>
    <g id="ytick_3">
     <g id="line2d_12">
      <path d="M 71.715 158.601671 
L 528.12 158.601671 
" clip-path="url(#pf4eed726dc)" style="fill: none; stroke: #898781; stroke-opacity: 0.18; stroke-width: 0.6; stroke-linecap: square"/>
     </g>
     <g id="line2d_13"/>
     <g id="text_10">
      <text style="font-size: 11px; font-family: 'DejaVu Sans', 'Bitstream Vera Sans', 'Computer Modern Sans Serif', 'Lucida Grande', 'Verdana', 'Geneva', 'Lucid', 'Arial', 'Helvetica', 'Avant Garde', sans-serif; text-anchor: end" x="68.215" y="162.780812" transform="rotate(-0 68.215 162.780812)">200000</text>
     </g>
    </g>
    <g id="ytick_4">
     <g id="line2d_14">
      <path d="M 71.715 116.454365 
L 528.12 116.454365 
" clip-path="url(#pf4eed726dc)" style="fill: none; stroke: #898781; stroke-opacity: 0.18; stroke-width: 0.6; stroke-linecap: square"/>
     </g>
     <g id="line2d_15"/>
     <g id="text_11">
      <text style="font-size: 11px; font-family: 'DejaVu Sans', 'Bitstream Vera Sans', 'Computer Modern Sans Serif', 'Lucida Grande', 'Verdana', 'Geneva', 'Lucid', 'Arial', 'Helvetica', 'Avant Garde', sans-serif; text-anchor: end" x="68.215" y="120.633506" transform="rotate(-0 68.215 120.633506)">300000</text>
     </g>
    </g>
    <g id="ytick_5">
     <g id="line2d_16">
      <path d="M 71.715 74.307059 
L 528.12 74.307059 
" clip-path="url(#pf4eed726dc)" style="fill: none; stroke: #898781; stroke-opacity: 0.18; stroke-width: 0.6; stroke-linecap: square"/>
     </g>
     <g id="line2d_17"/>
     <g id="text_12">
      <text style="font-size: 11px; font-family: 'DejaVu Sans', 'Bitstream Vera Sans', 'Computer Modern Sans Serif', 'Lucida Grande', 'Verdana', 'Geneva', 'Lucid', 'Arial', 'Helvetica', 'Avant Garde', sans-serif; text-anchor: end" x="68.215" y="78.4862" transform="rotate(-0 68.215 78.4862)">400000</text>
     </g>
    </g>
    <g id="ytick_6">
     <g id="line2d_18">
      <path d="M 71.715 32.159753 
L 528.12 32.159753 
" clip-path="url(#pf4eed726dc)" style="fill: none; stroke: #898781; stroke-opacity: 0.18; stroke-width: 0.6; stroke-linecap: square"/>
     </g>
     <g id="line2d_19"/>
     <g id="text_13">
      <text style="font-size: 11px; font-family: 'DejaVu Sans', 'Bitstream Vera Sans', 'Computer Modern Sans Serif', 'Lucida Grande', 'Verdana', 'Geneva', 'Lucid', 'Arial', 'Helvetica', 'Avant Garde', sans-serif; text-anchor: end" x="68.215" y="36.338894" transform="rotate(-0 68.215 36.338894)">500000</text>
     </g>
    </g>
    <g id="text_14">
     <text style="font-size: 11px; font-family: 'DejaVu Sans', 'Bitstream Vera Sans', 'Computer Modern Sans Serif', 'Lucida Grande', 'Verdana', 'Geneva', 'Lucid', 'Arial', 'Helvetica', 'Avant Garde', sans-serif; text-anchor: middle; fill: #0b0b0b" x="19.934844" y="135.068142" transform="rotate(-90 19.934844 135.068142)">Tokens/run (in+out)</text>
    </g>
   </g>
   <g id="patch_3">
    <path d="M 71.715 242.896283 
L 71.715 27.24 
" style="fill: none; stroke: #000000; stroke-width: 0.8; stroke-linejoin: miter; stroke-linecap: square"/>
   </g>
   <g id="patch_4">
    <path d="M 71.715 242.896283 
L 528.12 242.896283 
" style="fill: none; stroke: #000000; stroke-width: 0.8; stroke-linejoin: miter; stroke-linecap: square"/>
   </g>
   <g id="patch_5">
    <path d="M 92.460682 242.896283 
L 116.867366 242.896283 
L 116.867366 191.179467 
L 92.460682 191.179467 
z
" clip-path="url(#pf4eed726dc)" style="fill: #c40d1e"/>
   </g>
   <g id="patch_6">
    <path d="M 153.477393 242.896283 
L 177.884078 242.896283 
L 177.884078 219.816261 
L 153.477393 219.816261 
z
" clip-path="url(#pf4eed726dc)" style="fill: #ff6c00"/>
   </g>
   <g id="patch_7">
    <path d="M 214.494104 242.896283 
L 238.900789 242.896283 
L 238.900789 196.538865 
L 214.494104 196.538865 
z
" clip-path="url(#pf4eed726dc)" style="fill: #e8a800"/>
   </g>
   <g id="patch_8">
    <path d="M 275.510816 242.896283 
L 299.9175 242.896283 
L 299.9175 196.184635 
L 275.510816 196.184635 
z
" clip-path="url(#pf4eed726dc)" style="fill: #4f9d2e"/>
   </g>
   <g id="patch_9">
    <path d="M 336.527527 242.896283 
L 360.934211 242.896283 
L 360.934211 223.12356 
L 336.527527 223.12356 
z
" clip-path="url(#pf4eed726dc)" style="fill: #b5297a"/>
   </g>
   <g id="patch_10">
    <path d="M 397.544238 242.896283 
L 421.950922 242.896283 
L 421.950922 216.013292 
L 397.544238 216.013292 
z
" clip-path="url(#pf4eed726dc)" style="fill: #2f6fb0"/>
   </g>
   <g id="patch_11">
    <path d="M 458.560949 242.896283 
L 482.967634 242.896283 
L 482.967634 190.372627 
L 458.560949 190.372627 
z
" clip-path="url(#pf4eed726dc)" style="fill: #7fb0dd"/>
   </g>
   <g id="patch_12">
    <path d="M 116.867366 242.896283 
L 141.274051 242.896283 
L 141.274051 139.875799 
L 116.867366 139.875799 
z
" clip-path="url(#pf4eed726dc)" style="fill: url(#h41277d54e4)"/>
   </g>
   <g id="patch_13">
    <path d="M 177.884078 242.896283 
L 202.290762 242.896283 
L 202.290762 218.899627 
L 177.884078 218.899627 
z
" clip-path="url(#pf4eed726dc)" style="fill: url(#h542b835107)"/>
   </g>
   <g id="patch_14">
    <path d="M 238.900789 242.896283 
L 263.307473 242.896283 
L 263.307473 162.196608 
L 238.900789 162.196608 
z
" clip-path="url(#pf4eed726dc)" style="fill: url(#ha5774d287d)"/>
   </g>
   <g id="patch_15">
    <path d="M 299.9175 242.896283 
L 324.324184 242.896283 
L 324.324184 55.36908 
L 299.9175 55.36908 
z
" clip-path="url(#pf4eed726dc)" style="fill: url(#ha9743de9c4)"/>
   </g>
   <g id="patch_16">
    <path d="M 360.934211 242.896283 
L 385.340896 242.896283 
L 385.340896 203.662498 
L 360.934211 203.662498 
z
" clip-path="url(#pf4eed726dc)" style="fill: url(#h3afb93b591)"/>
   </g>
   <g id="patch_17">
    <path d="M 421.950922 242.896283 
L 446.357607 242.896283 
L 446.357607 201.201376 
L 421.950922 201.201376 
z
" clip-path="url(#pf4eed726dc)" style="fill: url(#hefcd479e38)"/>
   </g>
   <g id="patch_18">
    <path d="M 482.967634 242.896283 
L 507.374318 242.896283 
L 507.374318 166.772664 
L 482.967634 166.772664 
z
" clip-path="url(#pf4eed726dc)" style="fill: url(#h2ab7523d89)"/>
   </g>
   <g id="text_15">
    <text style="font-size: 7px; font-family: 'DejaVu Sans', 'Bitstream Vera Sans', 'Computer Modern Sans Serif', 'Lucida Grande', 'Verdana', 'Geneva', 'Lucid', 'Arial', 'Helvetica', 'Avant Garde', sans-serif; text-anchor: middle; fill: #898781" x="104.664024" y="187.723685" transform="rotate(-0 104.664024 187.723685)">±17k</text>
   </g>
   <g id="text_16">
    <text style="font-size: 7px; font-family: 'DejaVu Sans', 'Bitstream Vera Sans', 'Computer Modern Sans Serif', 'Lucida Grande', 'Verdana', 'Geneva', 'Lucid', 'Arial', 'Helvetica', 'Avant Garde', sans-serif; text-anchor: middle; fill: #898781" x="165.680735" y="216.360479" transform="rotate(-0 165.680735 216.360479)">±23k</text>
   </g>
   <g id="text_17">
    <text style="font-size: 7px; font-family: 'DejaVu Sans', 'Bitstream Vera Sans', 'Computer Modern Sans Serif', 'Lucida Grande', 'Verdana', 'Geneva', 'Lucid', 'Arial', 'Helvetica', 'Avant Garde', sans-serif; text-anchor: middle; fill: #898781" x="226.697447" y="193.083084" transform="rotate(-0 226.697447 193.083084)">±35k</text>
   </g>
   <g id="text_18">
    <text style="font-size: 7px; font-family: 'DejaVu Sans', 'Bitstream Vera Sans', 'Computer Modern Sans Serif', 'Lucida Grande', 'Verdana', 'Geneva', 'Lucid', 'Arial', 'Helvetica', 'Avant Garde', sans-serif; text-anchor: middle; fill: #898781" x="287.714158" y="192.728854" transform="rotate(-0 287.714158 192.728854)">±50k</text>
   </g>
   <g id="text_19">
    <text style="font-size: 7px; font-family: 'DejaVu Sans', 'Bitstream Vera Sans', 'Computer Modern Sans Serif', 'Lucida Grande', 'Verdana', 'Geneva', 'Lucid', 'Arial', 'Helvetica', 'Avant Garde', sans-serif; text-anchor: middle; fill: #898781" x="348.730869" y="219.667778" transform="rotate(-0 348.730869 219.667778)">±31k</text>
   </g>
   <g id="text_20">
    <text style="font-size: 7px; font-family: 'DejaVu Sans', 'Bitstream Vera Sans', 'Computer Modern Sans Serif', 'Lucida Grande', 'Verdana', 'Geneva', 'Lucid', 'Arial', 'Helvetica', 'Avant Garde', sans-serif; text-anchor: middle; fill: #898781" x="409.74758" y="212.55751" transform="rotate(-0 409.74758 212.55751)">±26k</text>
   </g>
   <g id="text_21">
    <text style="font-size: 7px; font-family: 'DejaVu Sans', 'Bitstream Vera Sans', 'Computer Modern Sans Serif', 'Lucida Grande', 'Verdana', 'Geneva', 'Lucid', 'Arial', 'Helvetica', 'Avant Garde', sans-serif; text-anchor: middle; fill: #898781" x="470.764291" y="186.916845" transform="rotate(-0 470.764291 186.916845)">±77k</text>
   </g>
   <g id="text_22">
    <text style="font-size: 7px; font-family: 'DejaVu Sans', 'Bitstream Vera Sans', 'Computer Modern Sans Serif', 'Lucida Grande', 'Verdana', 'Geneva', 'Lucid', 'Arial', 'Helvetica', 'Avant Garde', sans-serif; text-anchor: middle; fill: #898781" x="129.070709" y="136.420018" transform="rotate(-0 129.070709 136.420018)">±43k</text>
   </g>
   <g id="text_23">
    <text style="font-size: 7px; font-family: 'DejaVu Sans', 'Bitstream Vera Sans', 'Computer Modern Sans Serif', 'Lucida Grande', 'Verdana', 'Geneva', 'Lucid', 'Arial', 'Helvetica', 'Avant Garde', sans-serif; text-anchor: middle; fill: #898781" x="190.08742" y="215.443846" transform="rotate(-0 190.08742 215.443846)">±27k</text>
   </g>
   <g id="text_24">
    <text style="font-size: 7px; font-family: 'DejaVu Sans', 'Bitstream Vera Sans', 'Computer Modern Sans Serif', 'Lucida Grande', 'Verdana', 'Geneva', 'Lucid', 'Arial', 'Helvetica', 'Avant Garde', sans-serif; text-anchor: middle; fill: #898781" x="251.104131" y="158.740827" transform="rotate(-0 251.104131 158.740827)">±50k</text>
   </g>
   <g id="text_25">
    <text style="font-size: 7px; font-family: 'DejaVu Sans', 'Bitstream Vera Sans', 'Computer Modern Sans Serif', 'Lucida Grande', 'Verdana', 'Geneva', 'Lucid', 'Arial', 'Helvetica', 'Avant Garde', sans-serif; text-anchor: middle; fill: #898781" x="312.120842" y="51.913299" transform="rotate(-0 312.120842 51.913299)">±273k</text>
   </g>
   <g id="text_26">
    <text style="font-size: 7px; font-family: 'DejaVu Sans', 'Bitstream Vera Sans', 'Computer Modern Sans Serif', 'Lucida Grande', 'Verdana', 'Geneva', 'Lucid', 'Arial', 'Helvetica', 'Avant Garde', sans-serif; text-anchor: middle; fill: #898781" x="373.137553" y="200.206716" transform="rotate(-0 373.137553 200.206716)">±59k</text>
   </g>
   <g id="text_27">
    <text style="font-size: 7px; font-family: 'DejaVu Sans', 'Bitstream Vera Sans', 'Computer Modern Sans Serif', 'Lucida Grande', 'Verdana', 'Geneva', 'Lucid', 'Arial', 'Helvetica', 'Avant Garde', sans-serif; text-anchor: middle; fill: #898781" x="434.154265" y="197.745595" transform="rotate(-0 434.154265 197.745595)">±52k</text>
   </g>
   <g id="text_28">
    <text style="font-size: 7px; font-family: 'DejaVu Sans', 'Bitstream Vera Sans', 'Computer Modern Sans Serif', 'Lucida Grande', 'Verdana', 'Geneva', 'Lucid', 'Arial', 'Helvetica', 'Avant Garde', sans-serif; text-anchor: middle; fill: #898781" x="495.170976" y="163.316883" transform="rotate(-0 495.170976 163.316883)">±137k</text>
   </g>
   <g id="text_29">
    <text style="font-size: 12px; font-family: 'DejaVu Sans', 'Bitstream Vera Sans', 'Computer Modern Sans Serif', 'Lucida Grande', 'Verdana', 'Geneva', 'Lucid', 'Arial', 'Helvetica', 'Avant Garde', sans-serif; text-anchor: start; fill: #0b0b0b" x="71.715" y="21.24" transform="rotate(-0 71.715 21.24)">Tokens/run (in+out) by strategy — context mode</text>
   </g>
   <g id="legend_1">
    <g id="patch_19">
     <path d="M 428.745937 42.178594 
L 446.745937 42.178594 
L 446.745937 35.878594 
L 428.745937 35.878594 
z
" style="fill: #898781"/>
    </g>
    <g id="text_30">
     <text style="font-size: 9px; font-family: 'DejaVu Sans', 'Bitstream Vera Sans', 'Computer Modern Sans Serif', 'Lucida Grande', 'Verdana', 'Geneva', 'Lucid', 'Arial', 'Helvetica', 'Avant Garde', sans-serif; text-anchor: start; fill: #0b0b0b" x="453.945937" y="42.178594" transform="rotate(-0 453.945937 42.178594)">metadata-only</text>
    </g>
    <g id="patch_20">
     <path d="M 428.745937 55.388906 
L 446.745937 55.388906 
L 446.745937 49.088906 
L 428.745937 49.088906 
z
" style="fill: url(#h96f8c48818)"/>
    </g>
    <g id="text_31">
     <text style="font-size: 9px; font-family: 'DejaVu Sans', 'Bitstream Vera Sans', 'Computer Modern Sans Serif', 'Lucida Grande', 'Verdana', 'Geneva', 'Lucid', 'Arial', 'Helvetica', 'Avant Garde', sans-serif; text-anchor: start; fill: #0b0b0b" x="453.945937" y="55.388906" transform="rotate(-0 453.945937 55.388906)">live-query</text>
    </g>
   </g>
  </g>
 </g>
 <defs>
  <clipPath id="pf4eed726dc">
   <rect x="71.715" y="27.24" width="456.405" height="215.656283"/>
  </clipPath>
 </defs>
 <defs>
  <pattern id="h41277d54e4" patternUnits="userSpaceOnUse" x="0" y="0" width="72" height="72">
   <rect x="0" y="0" width="73" height="73" fill="#c40d1e"/>
   <path d="M -36 36 
L 36 -36 
M -32 40 
L 40 -32 
M -28 44 
L 44 -28 
M -24 48 
L 48 -24 
M -20 52 
L 52 -20 
M -16 56 
L 56 -16 
M -12 60 
L 60 -12 
M -8 64 
L 64 -8 
M -4 68 
L 68 -4 
M 0 72 
L 72 0 
M 4 76 
L 76 4 
M 8 80 
L 80 8 
M 12 84 
L 84 12 
M 16 88 
L 88 16 
M 20 92 
L 92 20 
M 24 96 
L 96 24 
M 28 100 
L 100 28 
M 32 104 
L 104 32 
M 36 108 
L 108 36 
" style="fill: #ffffff; stroke: #ffffff; stroke-width: 0.5; stroke-linecap: butt; stroke-linejoin: miter"/>
  </pattern>
  <pattern id="h542b835107" patternUnits="userSpaceOnUse" x="0" y="0" width="72" height="72">
   <rect x="0" y="0" width="73" height="73" fill="#ff6c00"/>
   <path d="M -36 36 
L 36 -36 
M -32 40 
L 40 -32 
M -28 44 
L 44 -28 
M -24 48 
L 48 -24 
M -20 52 
L 52 -20 
M -16 56 
L 56 -16 
M -12 60 
L 60 -12 
M -8 64 
L 64 -8 
M -4 68 
L 68 -4 
M 0 72 
L 72 0 
M 4 76 
L 76 4 
M 8 80 
L 80 8 
M 12 84 
L 84 12 
M 16 88 
L 88 16 
M 20 92 
L 92 20 
M 24 96 
L 96 24 
M 28 100 
L 100 28 
M 32 104 
L 104 32 
M 36 108 
L 108 36 
" style="fill: #ffffff; stroke: #ffffff; stroke-width: 0.5; stroke-linecap: butt; stroke-linejoin: miter"/>
  </pattern>
  <pattern id="ha5774d287d" patternUnits="userSpaceOnUse" x="0" y="0" width="72" height="72">
   <rect x="0" y="0" width="73" height="73" fill="#e8a800"/>
   <path d="M -36 36 
L 36 -36 
M -32 40 
L 40 -32 
M -28 44 
L 44 -28 
M -24 48 
L 48 -24 
M -20 52 
L 52 -20 
M -16 56 
L 56 -16 
M -12 60 
L 60 -12 
M -8 64 
L 64 -8 
M -4 68 
L 68 -4 
M 0 72 
L 72 0 
M 4 76 
L 76 4 
M 8 80 
L 80 8 
M 12 84 
L 84 12 
M 16 88 
L 88 16 
M 20 92 
L 92 20 
M 24 96 
L 96 24 
M 28 100 
L 100 28 
M 32 104 
L 104 32 
M 36 108 
L 108 36 
" style="fill: #ffffff; stroke: #ffffff; stroke-width: 0.5; stroke-linecap: butt; stroke-linejoin: miter"/>
  </pattern>
  <pattern id="ha9743de9c4" patternUnits="userSpaceOnUse" x="0" y="0" width="72" height="72">
   <rect x="0" y="0" width="73" height="73" fill="#4f9d2e"/>
   <path d="M -36 36 
L 36 -36 
M -32 40 
L 40 -32 
M -28 44 
L 44 -28 
M -24 48 
L 48 -24 
M -20 52 
L 52 -20 
M -16 56 
L 56 -16 
M -12 60 
L 60 -12 
M -8 64 
L 64 -8 
M -4 68 
L 68 -4 
M 0 72 
L 72 0 
M 4 76 
L 76 4 
M 8 80 
L 80 8 
M 12 84 
L 84 12 
M 16 88 
L 88 16 
M 20 92 
L 92 20 
M 24 96 
L 96 24 
M 28 100 
L 100 28 
M 32 104 
L 104 32 
M 36 108 
L 108 36 
" style="fill: #ffffff; stroke: #ffffff; stroke-width: 0.5; stroke-linecap: butt; stroke-linejoin: miter"/>
  </pattern>
  <pattern id="h3afb93b591" patternUnits="userSpaceOnUse" x="0" y="0" width="72" height="72">
   <rect x="0" y="0" width="73" height="73" fill="#b5297a"/>
   <path d="M -36 36 
L 36 -36 
M -32 40 
L 40 -32 
M -28 44 
L 44 -28 
M -24 48 
L 48 -24 
M -20 52 
L 52 -20 
M -16 56 
L 56 -16 
M -12 60 
L 60 -12 
M -8 64 
L 64 -8 
M -4 68 
L 68 -4 
M 0 72 
L 72 0 
M 4 76 
L 76 4 
M 8 80 
L 80 8 
M 12 84 
L 84 12 
M 16 88 
L 88 16 
M 20 92 
L 92 20 
M 24 96 
L 96 24 
M 28 100 
L 100 28 
M 32 104 
L 104 32 
M 36 108 
L 108 36 
" style="fill: #ffffff; stroke: #ffffff; stroke-width: 0.5; stroke-linecap: butt; stroke-linejoin: miter"/>
  </pattern>
  <pattern id="hefcd479e38" patternUnits="userSpaceOnUse" x="0" y="0" width="72" height="72">
   <rect x="0" y="0" width="73" height="73" fill="#2f6fb0"/>
   <path d="M -36 36 
L 36 -36 
M -32 40 
L 40 -32 
M -28 44 
L 44 -28 
M -24 48 
L 48 -24 
M -20 52 
L 52 -20 
M -16 56 
L 56 -16 
M -12 60 
L 60 -12 
M -8 64 
L 64 -8 
M -4 68 
L 68 -4 
M 0 72 
L 72 0 
M 4 76 
L 76 4 
M 8 80 
L 80 8 
M 12 84 
L 84 12 
M 16 88 
L 88 16 
M 20 92 
L 92 20 
M 24 96 
L 96 24 
M 28 100 
L 100 28 
M 32 104 
L 104 32 
M 36 108 
L 108 36 
" style="fill: #ffffff; stroke: #ffffff; stroke-width: 0.5; stroke-linecap: butt; stroke-linejoin: miter"/>
  </pattern>
  <pattern id="h2ab7523d89" patternUnits="userSpaceOnUse" x="0" y="0" width="72" height="72">
   <rect x="0" y="0" width="73" height="73" fill="#7fb0dd"/>
   <path d="M -36 36 
L 36 -36 
M -32 40 
L 40 -32 
M -28 44 
L 44 -28 
M -24 48 
L 48 -24 
M -20 52 
L 52 -20 
M -16 56 
L 56 -16 
M -12 60 
L 60 -12 
M -8 64 
L 64 -8 
M -4 68 
L 68 -4 
M 0 72 
L 72 0 
M 4 76 
L 76 4 
M 8 80 
L 80 8 
M 12 84 
L 84 12 
M 16 88 
L 88 16 
M 20 92 
L 92 20 
M 24 96 
L 96 24 
M 28 100 
L 100 28 
M 32 104 
L 104 32 
M 36 108 
L 108 36 
" style="fill: #ffffff; stroke: #ffffff; stroke-width: 0.5; stroke-linecap: butt; stroke-linejoin: miter"/>
  </pattern>
  <pattern id="h96f8c48818" patternUnits="userSpaceOnUse" x="0" y="0" width="72" height="72">
   <rect x="0" y="0" width="73" height="73" fill="#898781"/>
   <path d="M -36 36 
L 36 -36 
M -32 40 
L 40 -32 
M -28 44 
L 44 -28 
M -24 48 
L 48 -24 
M -20 52 
L 52 -20 
M -16 56 
L 56 -16 
M -12 60 
L 60 -12 
M -8 64 
L 64 -8 
M -4 68 
L 68 -4 
M 0 72 
L 72 0 
M 4 76 
L 76 4 
M 8 80 
L 80 8 
M 12 84 
L 84 12 
M 16 88 
L 88 16 
M 20 92 
L 92 20 
M 24 96 
L 96 24 
M 28 100 
L 100 28 
M 32 104 
L 104 32 
M 36 108 
L 108 36 
" style="fill: #ffffff; stroke: #ffffff; stroke-width: 0.5; stroke-linecap: butt; stroke-linejoin: miter"/>
  </pattern>
 </defs>
</svg>
