<?xml version="1.0" encoding="utf-8" standalone="no"?>
<!DOCTYPE svg PUBLIC "-//W3C//DTD SVG 1.1//EN"
  "http://www.w3.org/Graphics/SVG/1.1/DTD/svg11.dtd">
<svg xmlns:xlink="http://www.w3.org/1999/xlink" width="540pt" height="324pt" viewBox="0 0 540 324" xmlns="http://www.w3.org/2000/svg" version="1.1">
 <metadata>
  <rdf:RDF xmlns:dc="http://purl.org/dc/elements/1.1/" xmlns:cc="http://creativecommons.org/ns#" xmlns:rdf="http://www.w3.org/1999/02/22-rdf-syntax-ns#">
   <cc:Work>
    <dc:type rdf:resource="http://purl.org/dc/dcmitype/StillImage"/>
    <dc:format>image/svg+xml</dc:format>
    <dc:creator>
     <cc:Agent>
      <dc:title>Matplotlib v3.10.9, https://matplotlib.org/</dc:title>
     </cc:Agent>
    </dc:creator>
   </cc:Work>
  </rdf:RDF>
 </metadata>
 <defs>
  <style type="text/css">*{stroke-linejoin: round; stroke-linecap: butt}</style>
 </defs>
 <g id="figure_1">
  <g id="patch_1">
   <path d="M 0 324 
L 540 324 
L 540 0 
L 0 0 
L 0 324 
z
" style="fill: none"/>
  </g>
  <g id="axes_1">
   <g id="patch_2">
    <path d="M 47.28 242.896283 
L 528.12 242.896283 
L 528.12 27.24 
L 47.28 27.24 
L 47.28 242.896283 
z
" style="fill: none"/>
   </g>
   <g id="matplotlib.axis_1">
    <g id="xtick_1">
     <g id="line2d_1"/>
     <g id="text_1">
      <text style="font-size: 9px; font-family: 'DejaVu Sans', 'Bitstream Vera Sans', 'Computer Modern Sans Serif', 'Lucida Grande', 'Verdana', 'Geneva', 'Lucid', 'Arial', 'Helvetica', 'Avant Garde', sans-serif; fill: #898781" transform="translate(31.974216 281.4953) rotate(-25)">ensemble_vote</text>
     </g>
    </g>
    <g id="xtick_2">
     <g id="line2d_2"/>
     <g id="text_2">
      <text style="font-size: 9px; font-family: 'DejaVu Sans', 'Bitstream Vera Sans', 'Computer Modern Sans Serif', 'Lucida Grande', 'Verdana', 'Geneva', 'Lucid', 'Arial', 'Helvetica', 'Avant Garde', sans-serif; fill: #898781" transform="translate(81.572903 288.342905) rotate(-25)">plan_then_execute</text>
     </g>
    </g>
    <g id="xtick_3">
     <g id="line2d_3"/>
     <g id="text_3">
      <text style="font-size: 9px; font-family: 'DejaVu Sans', 'Bitstream Vera Sans', 'Computer Modern Sans Serif', 'Lucida Grande', 'Verdana', 'Geneva', 'Lucid', 'Arial', 'Helvetica', 'Avant Garde', sans-serif; fill: #898781" transform="translate(144.366441 289.037649) rotate(-25)">write_then_critique</text>
     </g>
    </g>
    <g id="xtick_4">
     <g id="line2d_4"/>
     <g id="text_4">
      <text style="font-size: 9px; font-family: 'DejaVu Sans', 'Bitstream Vera Sans', 'Computer Modern Sans Serif', 'Lucida Grande', 'Verdana', 'Geneva', 'Lucid', 'Arial', 'Helvetica', 'Avant Garde', sans-serif; fill: #898781" transform="translate(209.59299 288.597862) rotate(-25)">plan_write_critique</text>
     </g>
    </g>
    <g id="xtick_5">
     <g id="line2d_5"/>
     <g id="text_5">
      <text style="font-size: 9px; font-family: 'DejaVu Sans', 'Bitstream Vera Sans', 'Computer Modern Sans Serif', 'Lucida Grande', 'Verdana', 'Geneva', 'Lucid', 'Arial', 'Helvetica', 'Avant Garde', sans-serif; fill: #898781" transform="translate(266.531495 292.022853) rotate(-25)">structured_per_table</text>
     </g>
    </g>
    <g id="xtick_6">
     <g id="line2d_6"/>
     <g id="text_6">
      <text style="font-size: 9px; font-family: 'DejaVu Sans', 'Bitstream Vera Sans', 'Computer Modern Sans Serif', 'Lucida Grande', 'Verdana', 'Geneva', 'Lucid', 'Arial', 'Helvetica', 'Avant Garde', sans-serif; fill: #898781" transform="translate(331.914807 291.509966) rotate(-25)">write_tools_freeform</text>
     </g>
    </g>
    <g id="xtick_7">
     <g id="line2d_7"/>
     <g id="text_7">
      <text style="font-size: 9px; font-family: 'DejaVu Sans', 'Bitstream Vera Sans', 'Computer Modern Sans Serif', 'Lucida Grande', 'Verdana', 'Geneva', 'Lucid', 'Arial', 'Helvetica', 'Avant Garde', sans-serif; fill: #898781" transform="translate(356.40976 310.063634) rotate(-25)">write_tools_freeform_inlinedbt</text>
     </g>
    </g>
   </g>
   <g id="matplotlib.axis_2">
    <g id="ytick_1">
     <g id="line2d_8">
      <path d="M 47.28 242.896283 
L 528.12 242.896283 
" clip-path="url(#p3eb28d59e7)" style="fill: none; stroke: #898781; stroke-opacity: 0.18; stroke-width: 0.6; stroke-linecap: square"/>
     </g>
     <g id="line2d_9"/>
     <g id="text_8">
      <text style="font-size: 11px; font-family: 'DejaVu Sans', 'Bitstream Vera Sans', 'Computer Modern Sans Serif', 'Lucida Grande', 'Verdana', 'Geneva', 'Lucid', 'Arial', 'Helvetica', 'Avant Garde', sans-serif; text-anchor: end" x="43.78" y="247.075424" transform="rotate(-0 43.78 247.075424)">0.0</text>
     </g>
    </g>
    <g id="ytick_2">
     <g id="line2d_10">
      <path d="M 47.28 205.390843 
L 528.12 205.390843 
" clip-path="url(#p3eb28d59e7)" style="fill: none; stroke: #898781; stroke-opacity: 0.18; stroke-width: 0.6; stroke-linecap: square"/>
     </g>
     <g id="line2d_11"/>
     <g id="text_9">
      <text style="font-size: 11px; font-family: 'DejaVu Sans', 'Bitstream Vera Sans', 'Computer Modern Sans Serif', 'Lucida Grande', 'Verdana', 'Geneva', 'Lucid', 'Arial', 'Helvetica', 'Avant Garde', sans-serif; text-anchor: end" x="43.78" y="209.569983" transform="rotate(-0 43.78 209.569983)">0.2</text>
     </g>
    </g>
    <g id="ytick_3">
     <g id="line2d_12">
      <path d="M 47.28 167.885402 
L 528.12 167.885402 
" clip-path="url(#p3eb28d59e7)" style="fill: none; stroke: #898781; stroke-opacity: 0.18; stroke-width: 0.6; stroke-linecap: square"/>
     </g>
     <g id="line2d_13"/>
     <g id="text_10">
      <text style="font-size: 11px; font-family: 'DejaVu Sans', 'Bitstream Vera Sans', 'Computer Modern Sans Serif', 'Lucida Grande', 'Verdana', 'Geneva', 'Lucid', 'Arial', 'Helvetica', 'Avant Garde', sans-serif; text-anchor: end" x="43.78" y="172.064543" transform="rotate(-0 43.78 172.064543)">0.4</text>
     </g>
    </g>
    <g id="ytick_4">
     <g id="line2d_14">
      <path d="M 47.28 130.379962 
L 528.12 130.379962 
" clip-path="url(#p3eb28d59e7)" style="fill: none; stroke: #898781; stroke-opacity: 0.18; stroke-width: 0.6; stroke-linecap: square"/>
     </g>
     <g id="line2d_15"/>
     <g id="text_11">
      <text style="font-size: 11px; font-family: 'DejaVu Sans', 'Bitstream Vera Sans', 'Computer Modern Sans Serif', 'Lucida Grande', 'Verdana', 'Geneva', 'Lucid', 'Arial', 'Helvetica', 'Avant Garde', sans-serif; text-anchor: end" x="43.78" y="134.559102" transform="rotate(-0 43.78 134.559102)">0.6</text>
     </g>
    </g>
    <g id="ytick_5">
     <g id="line2d_16">
      <path d="M 47.28 92.874521 
L 528.12 92.874521 
" clip-path="url(#p3eb28d59e7)" style="fill: none; stroke: #898781; stroke-opacity: 0.18; stroke-width: 0.6; stroke-linecap: square"/>
     </g>
     <g id="line2d_17"/>
     <g id="text_12">
      <text style="font-size: 11px; font-family: 'DejaVu Sans', 'Bitstream Vera Sans', 'Computer Modern Sans Serif', 'Lucida Grande', 'Verdana', 'Geneva', 'Lucid', 'Arial', 'Helvetica', 'Avant Garde', sans-serif; text-anchor: end" x="43.78" y="97.053662" transform="rotate(-0 43.78 97.053662)">0.8</text>
     </g>
    </g>
    <g id="ytick_6">
     <g id="line2d_18">
      <path d="M 47.28 55.36908 
L 528.12 55.36908 
" clip-path="url(#p3eb28d59e7)" style="fill: none; stroke: #898781; stroke-opacity: 0.18; stroke-width: 0.6; stroke-linecap: square"/>
     </g>
     <g id="line2d_19"/>
     <g id="text_13">
      <text style="font-size: 11px; font-family: 'DejaVu Sans', 'Bitstream Vera Sans', 'Computer Modern Sans Serif', 'Lucida Grande', 'Verdana', 'Geneva', 'Lucid', 'Arial', 'Helvetica', 'Avant Garde', sans-serif; text-anchor: end" x="43.78" y="59.548221" transform="rotate(-0 43.78 59.548221)">1.0</text>
     </g>
    </g>
    <g id="text_14">
     <text style="font-size: 11px; font-family: 'DejaVu Sans', 'Bitstream Vera Sans', 'Computer Modern Sans Serif', 'Lucida Grande', 'Verdana', 'Geneva', 'Lucid', 'Arial', 'Helvetica', 'Avant Garde', sans-serif; text-anchor: middle; fill: #0b0b0b" x="19.998906" y="135.068142" transform="rotate(-90 19.998906 135.068142)">Mat. rate</text>
    </g>
   </g>
   <g id="patch_3">
    <path d="M 47.28 242.896283 
L 47.28 27.24 
" style="fill: none; stroke: #000000; stroke-width: 0.8; stroke-linejoin: miter; stroke-linecap: square"/>
   </g>
   <g id="patch_4">
    <path d="M 47.28 242.896283 
L 528.12 242.896283 
" style="fill: none; stroke: #000000; stroke-width: 0.8; stroke-linejoin: miter; stroke-linecap: square"/>
   </g>
   <g id="patch_5">
    <path d="M 69.136364 242.896283 
L 94.849733 242.896283 
L 94.849733 72.559074 
L 69.136364 72.559074 
z
" clip-path="url(#p3eb28d59e7)" style="fill: #c40d1e"/>
   </g>
   <g id="patch_6">
    <path d="M 133.419786 242.896283 
L 159.133155 242.896283 
L 159.133155 91.311794 
L 133.419786 91.311794 
z
" clip-path="url(#p3eb28d59e7)" style="fill: #ff6c00"/>
   </g>
   <g id="patch_7">
    <path d="M 197.703209 242.896283 
L 223.416578 242.896283 
L 223.416578 117.878148 
L 197.703209 117.878148 
z
" clip-path="url(#p3eb28d59e7)" style="fill: #e8a800"/>
   </g>
   <g id="patch_8">
    <path d="M 261.986631 242.896283 
L 287.7 242.896283 
L 287.7 58.494534 
L 261.986631 58.494534 
z
" clip-path="url(#p3eb28d59e7)" style="fill: #4f9d2e"/>
   </g>
   <g id="patch_9">
    <path d="M 326.270053 242.896283 
L 351.983422 242.896283 
L 351.983422 124.129055 
L 326.270053 124.129055 
z
" clip-path="url(#p3eb28d59e7)" style="fill: #b5297a"/>
   </g>
   <g id="patch_10">
    <path d="M 390.553476 242.896283 
L 416.266845 242.896283 
L 416.266845 110.064515 
L 390.553476 110.064515 
z
" clip-path="url(#p3eb28d59e7)" style="fill: #2f6fb0"/>
   </g>
   <g id="patch_11">
    <path d="M 454.836898 242.896283 
L 480.550267 242.896283 
L 480.550267 86.623614 
L 454.836898 86.623614 
z
" clip-path="url(#p3eb28d59e7)" style="fill: #7fb0dd"/>
   </g>
   <g id="patch_12">
    <path d="M 94.849733 242.896283 
L 120.563102 242.896283 
L 120.563102 92.874521 
L 94.849733 92.874521 
z
" clip-path="url(#p3eb28d59e7)" style="fill: url(#h84538e04b4)"/>
   </g>
   <g id="patch_13">
    <path d="M 159.133155 242.896283 
L 184.846524 242.896283 
L 184.846524 102.250881 
L 159.133155 102.250881 
z
" clip-path="url(#p3eb28d59e7)" style="fill: url(#h8cca67a18c)"/>
   </g>
   <g id="patch_14">
    <path d="M 223.416578 242.896283 
L 249.129947 242.896283 
L 249.129947 74.121801 
L 223.416578 74.121801 
z
" clip-path="url(#p3eb28d59e7)" style="fill: url(#h2a14cbd247)"/>
   </g>
   <g id="patch_15">
    <path d="M 287.7 242.896283 
L 313.413369 242.896283 
L 313.413369 95.999974 
L 287.7 95.999974 
z
" clip-path="url(#p3eb28d59e7)" style="fill: url(#h4a5bd68726)"/>
   </g>
   <g id="patch_16">
    <path d="M 351.983422 242.896283 
L 377.696791 242.896283 
L 377.696791 99.125428 
L 351.983422 99.125428 
z
" clip-path="url(#p3eb28d59e7)" style="fill: url(#h89b58c58c6)"/>
   </g>
   <g id="patch_17">
    <path d="M 416.266845 242.896283 
L 441.980214 242.896283 
L 441.980214 95.999974 
L 416.266845 95.999974 
z
" clip-path="url(#p3eb28d59e7)" style="fill: url(#h058d5f73e6)"/>
   </g>
   <g id="patch_18">
    <path d="M 480.550267 242.896283 
L 506.263636 242.896283 
L 506.263636 117.878148 
L 480.550267 117.878148 
z
" clip-path="url(#p3eb28d59e7)" style="fill: url(#h7c9c75572d)"/>
   </g>
   <g id="text_15">
    <text style="font-size: 7px; font-family: 'DejaVu Sans', 'Bitstream Vera Sans', 'Computer Modern Sans Serif', 'Lucida Grande', 'Verdana', 'Geneva', 'Lucid', 'Arial', 'Helvetica', 'Avant Garde', sans-serif; text-anchor: middle; fill: #898781" x="81.993048" y="69.103293" transform="rotate(-0 81.993048 69.103293)">±0.21</text>
   </g>
   <g id="text_16">
    <text style="font-size: 7px; font-family: 'DejaVu Sans', 'Bitstream Vera Sans', 'Computer Modern Sans Serif', 'Lucida Grande', 'Verdana', 'Geneva', 'Lucid', 'Arial', 'Helvetica', 'Avant Garde', sans-serif; text-anchor: middle; fill: #898781" x="146.276471" y="87.856013" transform="rotate(-0 146.276471 87.856013)">±0.33</text>
   </g>
   <g id="text_17">
    <text style="font-size: 7px; font-family: 'DejaVu Sans', 'Bitstream Vera Sans', 'Computer Modern Sans Serif', 'Lucida Grande', 'Verdana', 'Geneva', 'Lucid', 'Arial', 'Helvetica', 'Avant Garde', sans-serif; text-anchor: middle; fill: #898781" x="210.559893" y="114.422367" transform="rotate(-0 210.559893 114.422367)">±0.39</text>
   </g>
   <g id="text_18">
    <text style="font-size: 7px; font-family: 'DejaVu Sans', 'Bitstream Vera Sans', 'Computer Modern Sans Serif', 'Lucida Grande', 'Verdana', 'Geneva', 'Lucid', 'Arial', 'Helvetica', 'Avant Garde', sans-serif; text-anchor: middle; fill: #898781" x="274.843316" y="55.038753" transform="rotate(-0 274.843316 55.038753)">±0.06</text>
   </g>
   <g id="text_19">
    <text style="font-size: 7px; font-family: 'DejaVu Sans', 'Bitstream Vera Sans', 'Computer Modern Sans Serif', 'Lucida Grande', 'Verdana', 'Geneva', 'Lucid', 'Arial', 'Helvetica', 'Avant Garde', sans-serif; text-anchor: middle; fill: #898781" x="339.126738" y="120.673274" transform="rotate(-0 339.126738 120.673274)">±0.39</text>
   </g>
   <g id="text_20">
    <text style="font-size: 7px; font-family: 'DejaVu Sans', 'Bitstream Vera Sans', 'Computer Modern Sans Serif', 'Lucida Grande', 'Verdana', 'Geneva', 'Lucid', 'Arial', 'Helvetica', 'Avant Garde', sans-serif; text-anchor: middle; fill: #898781" x="403.41016" y="106.608733" transform="rotate(-0 403.41016 106.608733)">±0.43</text>
   </g>
   <g id="text_21">
    <text style="font-size: 7px; font-family: 'DejaVu Sans', 'Bitstream Vera Sans', 'Computer Modern Sans Serif', 'Lucida Grande', 'Verdana', 'Geneva', 'Lucid', 'Arial', 'Helvetica', 'Avant Garde', sans-serif; text-anchor: middle; fill: #898781" x="467.693583" y="83.167833" transform="rotate(-0 467.693583 83.167833)">±0.37</text>
   </g>
   <g id="text_22">
    <text style="font-size: 7px; font-family: 'DejaVu Sans', 'Bitstream Vera Sans', 'Computer Modern Sans Serif', 'Lucida Grande', 'Verdana', 'Geneva', 'Lucid', 'Arial', 'Helvetica', 'Avant Garde', sans-serif; text-anchor: middle; fill: #898781" x="107.706417" y="89.41874" transform="rotate(-0 107.706417 89.41874)">±0.32</text>
   </g>
   <g id="text_23">
    <text style="font-size: 7px; font-family: 'DejaVu Sans', 'Bitstream Vera Sans', 'Computer Modern Sans Serif', 'Lucida Grande', 'Verdana', 'Geneva', 'Lucid', 'Arial', 'Helvetica', 'Avant Garde', sans-serif; text-anchor: middle; fill: #898781" x="171.98984" y="98.7951" transform="rotate(-0 171.98984 98.7951)">±0.37</text>
   </g>
   <g id="text_24">
    <text style="font-size: 7px; font-family: 'DejaVu Sans', 'Bitstream Vera Sans', 'Computer Modern Sans Serif', 'Lucida Grande', 'Verdana', 'Geneva', 'Lucid', 'Arial', 'Helvetica', 'Avant Garde', sans-serif; text-anchor: middle; fill: #898781" x="236.273262" y="70.666019" transform="rotate(-0 236.273262 70.666019)">±0.14</text>
   </g>
   <g id="text_25">
    <text style="font-size: 7px; font-family: 'DejaVu Sans', 'Bitstream Vera Sans', 'Computer Modern Sans Serif', 'Lucida Grande', 'Verdana', 'Geneva', 'Lucid', 'Arial', 'Helvetica', 'Avant Garde', sans-serif; text-anchor: middle; fill: #898781" x="300.556684" y="92.544193" transform="rotate(-0 300.556684 92.544193)">±0.26</text>
   </g>
   <g id="text_26">
    <text style="font-size: 7px; font-family: 'DejaVu Sans', 'Bitstream Vera Sans', 'Computer Modern Sans Serif', 'Lucida Grande', 'Verdana', 'Geneva', 'Lucid', 'Arial', 'Helvetica', 'Avant Garde', sans-serif; text-anchor: middle; fill: #898781" x="364.840107" y="95.669647" transform="rotate(-0 364.840107 95.669647)">±0.32</text>
   </g>
   <g id="text_27">
    <text style="font-size: 7px; font-family: 'DejaVu Sans', 'Bitstream Vera Sans', 'Computer Modern Sans Serif', 'Lucida Grande', 'Verdana', 'Geneva', 'Lucid', 'Arial', 'Helvetica', 'Avant Garde', sans-serif; text-anchor: middle; fill: #898781" x="429.123529" y="92.544193" transform="rotate(-0 429.123529 92.544193)">±0.40</text>
   </g>
   <g id="text_28">
    <text style="font-size: 7px; font-family: 'DejaVu Sans', 'Bitstream Vera Sans', 'Computer Modern Sans Serif', 'Lucida Grande', 'Verdana', 'Geneva', 'Lucid', 'Arial', 'Helvetica', 'Avant Garde', sans-serif; text-anchor: middle; fill: #898781" x="493.406952" y="114.422367" transform="rotate(-0 493.406952 114.422367)">±0.47</text>
   </g>
   <g id="text_29">
    <text style="font-size: 12px; font-family: 'DejaVu Sans', 'Bitstream Vera Sans', 'Computer Modern Sans Serif', 'Lucida Grande', 'Verdana', 'Geneva', 'Lucid', 'Arial', 'Helvetica', 'Avant Garde', sans-serif; text-anchor: start; fill: #0b0b0b" x="47.28" y="21.24" transform="rotate(-0 47.28 21.24)">Mat. rate by strategy — context mode</text>
   </g>
   <g id="legend_1">
    <g id="patch_19">
     <path d="M 428.745938 42.178594 
L 446.745938 42.178594 
L 446.745938 35.878594 
L 428.745938 35.878594 
z
" style="fill: #898781"/>
    </g>
    <g id="text_30">
     <text style="font-size: 9px; font-family: 'DejaVu Sans', 'Bitstream Vera Sans', 'Computer Modern Sans Serif', 'Lucida Grande', 'Verdana', 'Geneva', 'Lucid', 'Arial', 'Helvetica', 'Avant Garde', sans-serif; text-anchor: start; fill: #0b0b0b" x="453.945938" y="42.178594" transform="rotate(-0 453.945938 42.178594)">metadata-only</text>
    </g>
    <g id="patch_20">
     <path d="M 428.745938 55.388906 
L 446.745938 55.388906 
L 446.745938 49.088906 
L 428.745938 49.088906 
z
" style="fill: url(#h7199d5ccde)"/>
    </g>
    <g id="text_31">
     <text style="font-size: 9px; font-family: 'DejaVu Sans', 'Bitstream Vera Sans', 'Computer Modern Sans Serif', 'Lucida Grande', 'Verdana', 'Geneva', 'Lucid', 'Arial', 'Helvetica', 'Avant Garde', sans-serif; text-anchor: start; fill: #0b0b0b" x="453.945938" y="55.388906" transform="rotate(-0 453.945938 55.388906)">live-query</text>
    </g>
   </g>
  </g>
 </g>
 <defs>
  <clipPath id="p3eb28d59e7">
   <rect x="47.28" y="27.24" width="480.84" height="215.656283"/>
  </clipPath>
 </defs>
 <defs>
  <pattern id="h84538e04b4" patternUnits="userSpaceOnUse" x="0" y="0" width="72" height="72">
   <rect x="0" y="0" width="73" height="73" fill="#c40d1e"/>
   <path d="M -36 36 
L 36 -36 
M -32 40 
L 40 -32 
M -28 44 
L 44 -28 
M -24 48 
L 48 -24 
M -20 52 
L 52 -20 
M -16 56 
L 56 -16 
M -12 60 
L 60 -12 
M -8 64 
L 64 -8 
M -4 68 
L 68 -4 
M 0 72 
L 72 0 
M 4 76 
L 76 4 
M 8 80 
L 80 8 
M 12 84 
L 84 12 
M 16 88 
L 88 16 
M 20 92 
L 92 20 
M 24 96 
L 96 24 
M 28 100 
L 100 28 
M 32 104 
L 104 32 
M 36 108 
L 108 36 
" style="fill: #ffffff; stroke: #ffffff; stroke-width: 0.5; stroke-linecap: butt; stroke-linejoin: miter"/>
  </pattern>
  <pattern id="h8cca67a18c" patternUnits="userSpaceOnUse" x="0" y="0" width="72" height="72">
   <rect x="0" y="0" width="73" height="73" fill="#ff6c00"/>
   <path d="M -36 36 
L 36 -36 
M -32 40 
L 40 -32 
M -28 44 
L 44 -28 
M -24 48 
L 48 -24 
M -20 52 
L 52 -20 
M -16 56 
L 56 -16 
M -12 60 
L 60 -12 
M -8 64 
L 64 -8 
M -4 68 
L 68 -4 
M 0 72 
L 72 0 
M 4 76 
L 76 4 
M 8 80 
L 80 8 
M 12 84 
L 84 12 
M 16 88 
L 88 16 
M 20 92 
L 92 20 
M 24 96 
L 96 24 
M 28 100 
L 100 28 
M 32 104 
L 104 32 
M 36 108 
L 108 36 
" style="fill: #ffffff; stroke: #ffffff; stroke-width: 0.5; stroke-linecap: butt; stroke-linejoin: miter"/>
  </pattern>
  <pattern id="h2a14cbd247" patternUnits="userSpaceOnUse" x="0" y="0" width="72" height="72">
   <rect x="0" y="0" width="73" height="73" fill="#e8a800"/>
   <path d="M -36 36 
L 36 -36 
M -32 40 
L 40 -32 
M -28 44 
L 44 -28 
M -24 48 
L 48 -24 
M -20 52 
L 52 -20 
M -16 56 
L 56 -16 
M -12 60 
L 60 -12 
M -8 64 
L 64 -8 
M -4 68 
L 68 -4 
M 0 72 
L 72 0 
M 4 76 
L 76 4 
M 8 80 
L 80 8 
M 12 84 
L 84 12 
M 16 88 
L 88 16 
M 20 92 
L 92 20 
M 24 96 
L 96 24 
M 28 100 
L 100 28 
M 32 104 
L 104 32 
M 36 108 
L 108 36 
" style="fill: #ffffff; stroke: #ffffff; stroke-width: 0.5; stroke-linecap: butt; stroke-linejoin: miter"/>
  </pattern>
  <pattern id="h4a5bd68726" patternUnits="userSpaceOnUse" x="0" y="0" width="72" height="72">
   <rect x="0" y="0" width="73" height="73" fill="#4f9d2e"/>
   <path d="M -36 36 
L 36 -36 
M -32 40 
L 40 -32 
M -28 44 
L 44 -28 
M -24 48 
L 48 -24 
M -20 52 
L 52 -20 
M -16 56 
L 56 -16 
M -12 60 
L 60 -12 
M -8 64 
L 64 -8 
M -4 68 
L 68 -4 
M 0 72 
L 72 0 
M 4 76 
L 76 4 
M 8 80 
L 80 8 
M 12 84 
L 84 12 
M 16 88 
L 88 16 
M 20 92 
L 92 20 
M 24 96 
L 96 24 
M 28 100 
L 100 28 
M 32 104 
L 104 32 
M 36 108 
L 108 36 
" style="fill: #ffffff; stroke: #ffffff; stroke-width: 0.5; stroke-linecap: butt; stroke-linejoin: miter"/>
  </pattern>
  <pattern id="h89b58c58c6" patternUnits="userSpaceOnUse" x="0" y="0" width="72" height="72">
   <rect x="0" y="0" width="73" height="73" fill="#b5297a"/>
   <path d="M -36 36 
L 36 -36 
M -32 40 
L 40 -32 
M -28 44 
L 44 -28 
M -24 48 
L 48 -24 
M -20 52 
L 52 -20 
M -16 56 
L 56 -16 
M -12 60 
L 60 -12 
M -8 64 
L 64 -8 
M -4 68 
L 68 -4 
M 0 72 
L 72 0 
M 4 76 
L 76 4 
M 8 80 
L 80 8 
M 12 84 
L 84 12 
M 16 88 
L 88 16 
M 20 92 
L 92 20 
M 24 96 
L 96 24 
M 28 100 
L 100 28 
M 32 104 
L 104 32 
M 36 108 
L 108 36 
" style="fill: #ffffff; stroke: #ffffff; stroke-width: 0.5; stroke-linecap: butt; stroke-linejoin: miter"/>
  </pattern>
  <pattern id="h058d5f73e6" patternUnits="userSpaceOnUse" x="0" y="0" width="72" height="72">
   <rect x="0" y="0" width="73" height="73" fill="#2f6fb0"/>
   <path d="M -36 36 
L 36 -36 
M -32 40 
L 40 -32 
M -28 44 
L 44 -28 
M -24 48 
L 48 -24 
M -20 52 
L 52 -20 
M -16 56 
L 56 -16 
M -12 60 
L 60 -12 
M -8 64 
L 64 -8 
M -4 68 
L 68 -4 
M 0 72 
L 72 0 
M 4 76 
L 76 4 
M 8 80 
L 80 8 
M 12 84 
L 84 12 
M 16 88 
L 88 16 
M 20 92 
L 92 20 
M 24 96 
L 96 24 
M 28 100 
L 100 28 
M 32 104 
L 104 32 
M 36 108 
L 108 36 
" style="fill: #ffffff; stroke: #ffffff; stroke-width: 0.5; stroke-linecap: butt; stroke-linejoin: miter"/>
  </pattern>
  <pattern id="h7c9c75572d" patternUnits="userSpaceOnUse" x="0" y="0" width="72" height="72">
   <rect x="0" y="0" width="73" height="73" fill="#7fb0dd"/>
   <path d="M -36 36 
L 36 -36 
M -32 40 
L 40 -32 
M -28 44 
L 44 -28 
M -24 48 
L 48 -24 
M -20 52 
L 52 -20 
M -16 56 
L 56 -16 
M -12 60 
L 60 -12 
M -8 64 
L 64 -8 
M -4 68 
L 68 -4 
M 0 72 
L 72 0 
M 4 76 
L 76 4 
M 8 80 
L 80 8 
M 12 84 
L 84 12 
M 16 88 
L 88 16 
M 20 92 
L 92 20 
M 24 96 
L 96 24 
M 28 100 
L 100 28 
M 32 104 
L 104 32 
M 36 108 
L 108 36 
" style="fill: #ffffff; stroke: #ffffff; stroke-width: 0.5; stroke-linecap: butt; stroke-linejoin: miter"/>
  </pattern>
  <pattern id="h7199d5ccde" patternUnits="userSpaceOnUse" x="0" y="0" width="72" height="72">
   <rect x="0" y="0" width="73" height="73" fill="#898781"/>
   <path d="M -36 36 
L 36 -36 
M -32 40 
L 40 -32 
M -28 44 
L 44 -28 
M -24 48 
L 48 -24 
M -20 52 
L 52 -20 
M -16 56 
L 56 -16 
M -12 60 
L 60 -12 
M -8 64 
L 64 -8 
M -4 68 
L 68 -4 
M 0 72 
L 72 0 
M 4 76 
L 76 4 
M 8 80 
L 80 8 
M 12 84 
L 84 12 
M 16 88 
L 88 16 
M 20 92 
L 92 20 
M 24 96 
L 96 24 
M 28 100 
L 100 28 
M 32 104 
L 104 32 
M 36 108 
L 108 36 
" style="fill: #ffffff; stroke: #ffffff; stroke-width: 0.5; stroke-linecap: butt; stroke-linejoin: miter"/>
  </pattern>
 </defs>
</svg>
