<?xml version="1.0" encoding="utf-8" standalone="no"?>
<!DOCTYPE svg PUBLIC "-//W3C//DTD SVG 1.1//EN"
  "http://www.w3.org/Graphics/SVG/1.1/DTD/svg11.dtd">
<svg xmlns:xlink="http://www.w3.org/1999/xlink" width="540pt" height="324pt" viewBox="0 0 540 324" xmlns="http://www.w3.org/2000/svg" version="1.1">
 <metadata>
  <rdf:RDF xmlns:dc="http://purl.org/dc/elements/1.1/" xmlns:cc="http://creativecommons.org/ns#" xmlns:rdf="http://www.w3.org/1999/02/22-rdf-syntax-ns#">
   <cc:Work>
    <dc:type rdf:resource="http://purl.org/dc/dcmitype/StillImage"/>
    <dc:format>image/svg+xml</dc:format>
    <dc:creator>
     <cc:Agent>
      <dc:title>Matplotlib v3.10.9, https://matplotlib.org/</dc:title>
     </cc:Agent>
    </dc:creator>
   </cc:Work>
  </rdf:RDF>
 </metadata>
 <defs>
  <style type="text/css">*{stroke-linejoin: round; stroke-linecap: butt}</style>
 </defs>
 <g id="figure_1">
  <g id="patch_1">
   <path d="M 0 324 
L 540 324 
L 540 0 
L 0 0 
L 0 324 
z
" style="fill: none"/>
  </g>
  <g id="axes_1">
   <g id="patch_2">
    <path d="M 71.715 242.896283 
L 528.12 242.896283 
L 528.12 27.24 
L 71.715 27.24 
L 71.715 242.896283 
z
" style="fill: none"/>
   </g>
   <g id="matplotlib.axis_1">
    <g id="xtick_1">
     <g id="line2d_1"/>
     <g id="text_1">
      <text style="font-size: 9px; font-family: 'DejaVu Sans', 'Bitstream Vera Sans', 'Computer Modern Sans Serif', 'Lucida Grande', 'Verdana', 'Geneva', 'Lucid', 'Arial', 'Helvetica', 'Avant Garde', sans-serif; fill: #898781" transform="translate(53.991849 281.4953) rotate(-25)">ensemble_vote</text>
     </g>
    </g>
    <g id="xtick_2">
     <g id="line2d_2"/>
     <g id="text_2">
      <text style="font-size: 9px; font-family: 'DejaVu Sans', 'Bitstream Vera Sans', 'Computer Modern Sans Serif', 'Lucida Grande', 'Verdana', 'Geneva', 'Lucid', 'Arial', 'Helvetica', 'Avant Garde', sans-serif; fill: #898781" transform="translate(100.323826 288.342905) rotate(-25)">plan_then_execute</text>
     </g>
    </g>
    <g id="xtick_3">
     <g id="line2d_3"/>
     <g id="text_3">
      <text style="font-size: 9px; font-family: 'DejaVu Sans', 'Bitstream Vera Sans', 'Computer Modern Sans Serif', 'Lucida Grande', 'Verdana', 'Geneva', 'Lucid', 'Arial', 'Helvetica', 'Avant Garde', sans-serif; fill: #898781" transform="translate(159.850652 289.037649) rotate(-25)">write_then_critique</text>
     </g>
    </g>
    <g id="xtick_4">
     <g id="line2d_4"/>
     <g id="text_4">
      <text style="font-size: 9px; font-family: 'DejaVu Sans', 'Bitstream Vera Sans', 'Computer Modern Sans Serif', 'Lucida Grande', 'Verdana', 'Geneva', 'Lucid', 'Arial', 'Helvetica', 'Avant Garde', sans-serif; fill: #898781" transform="translate(221.81049 288.597862) rotate(-25)">plan_write_critique</text>
     </g>
    </g>
    <g id="xtick_5">
     <g id="line2d_5"/>
     <g id="text_5">
      <text style="font-size: 9px; font-family: 'DejaVu Sans', 'Bitstream Vera Sans', 'Computer Modern Sans Serif', 'Lucida Grande', 'Verdana', 'Geneva', 'Lucid', 'Arial', 'Helvetica', 'Avant Garde', sans-serif; fill: #898781" transform="translate(275.482284 292.022853) rotate(-25)">structured_per_table</text>
     </g>
    </g>
    <g id="xtick_6">
     <g id="line2d_6"/>
     <g id="text_6">
      <text style="font-size: 9px; font-family: 'DejaVu Sans', 'Bitstream Vera Sans', 'Computer Modern Sans Serif', 'Lucida Grande', 'Verdana', 'Geneva', 'Lucid', 'Arial', 'Helvetica', 'Avant Garde', sans-serif; fill: #898781" transform="translate(337.598885 291.509966) rotate(-25)">write_tools_freeform</text>
     </g>
    </g>
    <g id="xtick_7">
     <g id="line2d_7"/>
     <g id="text_7">
      <text style="font-size: 9px; font-family: 'DejaVu Sans', 'Bitstream Vera Sans', 'Computer Modern Sans Serif', 'Lucida Grande', 'Verdana', 'Geneva', 'Lucid', 'Arial', 'Helvetica', 'Avant Garde', sans-serif; fill: #898781" transform="translate(358.827127 310.063634) rotate(-25)">write_tools_freeform_inlinedbt</text>
     </g>
    </g>
   </g>
   <g id="matplotlib.axis_2">
    <g id="ytick_1">
     <g id="line2d_8">
      <path d="M 71.715 242.896283 
L 528.12 242.896283 
" clip-path="url(#p14ff52fc62)" style="fill: none; stroke: #898781; stroke-opacity: 0.18; stroke-width: 0.6; stroke-linecap: square"/>
     </g>
     <g id="line2d_9"/>
     <g id="text_8">
      <text style="font-size: 11px; font-family: 'DejaVu Sans', 'Bitstream Vera Sans', 'Computer Modern Sans Serif', 'Lucida Grande', 'Verdana', 'Geneva', 'Lucid', 'Arial', 'Helvetica', 'Avant Garde', sans-serif; text-anchor: end" x="68.215" y="247.075424" transform="rotate(-0 68.215 247.075424)">0</text>
     </g>
    </g>
    <g id="ytick_2">
     <g id="line2d_10">
      <path d="M 71.715 199.028979 
L 528.12 199.028979 
" clip-path="url(#p14ff52fc62)" style="fill: none; stroke: #898781; stroke-opacity: 0.18; stroke-width: 0.6; stroke-linecap: square"/>
     </g>
     <g id="line2d_11"/>
     <g id="text_9">
      <text style="font-size: 11px; font-family: 'DejaVu Sans', 'Bitstream Vera Sans', 'Computer Modern Sans Serif', 'Lucida Grande', 'Verdana', 'Geneva', 'Lucid', 'Arial', 'Helvetica', 'Avant Garde', sans-serif; text-anchor: end" x="68.215" y="203.20812" transform="rotate(-0 68.215 203.20812)">100000</text>
     </g>
    </g>
    <g id="ytick_3">
     <g id="line2d_12">
      <path d="M 71.715 155.161675 
L 528.12 155.161675 
" clip-path="url(#p14ff52fc62)" style="fill: none; stroke: #898781; stroke-opacity: 0.18; stroke-width: 0.6; stroke-linecap: square"/>
     </g>
     <g id="line2d_13"/>
     <g id="text_10">
      <text style="font-size: 11px; font-family: 'DejaVu Sans', 'Bitstream Vera Sans', 'Computer Modern Sans Serif', 'Lucida Grande', 'Verdana', 'Geneva', 'Lucid', 'Arial', 'Helvetica', 'Avant Garde', sans-serif; text-anchor: end" x="68.215" y="159.340816" transform="rotate(-0 68.215 159.340816)">200000</text>
     </g>
    </g>
    <g id="ytick_4">
     <g id="line2d_14">
      <path d="M 71.715 111.294371 
L 528.12 111.294371 
" clip-path="url(#p14ff52fc62)" style="fill: none; stroke: #898781; stroke-opacity: 0.18; stroke-width: 0.6; stroke-linecap: square"/>
     </g>
     <g id="line2d_15"/>
     <g id="text_11">
      <text style="font-size: 11px; font-family: 'DejaVu Sans', 'Bitstream Vera Sans', 'Computer Modern Sans Serif', 'Lucida Grande', 'Verdana', 'Geneva', 'Lucid', 'Arial', 'Helvetica', 'Avant Garde', sans-serif; text-anchor: end" x="68.215" y="115.473512" transform="rotate(-0 68.215 115.473512)">300000</text>
     </g>
    </g>
    <g id="ytick_5">
     <g id="line2d_16">
      <path d="M 71.715 67.427067 
L 528.12 67.427067 
" clip-path="url(#p14ff52fc62)" style="fill: none; stroke: #898781; stroke-opacity: 0.18; stroke-width: 0.6; stroke-linecap: square"/>
     </g>
     <g id="line2d_17"/>
     <g id="text_12">
      <text style="font-size: 11px; font-family: 'DejaVu Sans', 'Bitstream Vera Sans', 'Computer Modern Sans Serif', 'Lucida Grande', 'Verdana', 'Geneva', 'Lucid', 'Arial', 'Helvetica', 'Avant Garde', sans-serif; text-anchor: end" x="68.215" y="71.606208" transform="rotate(-0 68.215 71.606208)">400000</text>
     </g>
    </g>
    <g id="text_13">
     <text style="font-size: 11px; font-family: 'DejaVu Sans', 'Bitstream Vera Sans', 'Computer Modern Sans Serif', 'Lucida Grande', 'Verdana', 'Geneva', 'Lucid', 'Arial', 'Helvetica', 'Avant Garde', sans-serif; text-anchor: middle; fill: #0b0b0b" x="19.934844" y="135.068142" transform="rotate(-90 19.934844 135.068142)">Tokens/run (in+out)</text>
    </g>
   </g>
   <g id="patch_3">
    <path d="M 71.715 242.896283 
L 71.715 27.24 
" style="fill: none; stroke: #000000; stroke-width: 0.8; stroke-linejoin: miter; stroke-linecap: square"/>
   </g>
   <g id="patch_4">
    <path d="M 71.715 242.896283 
L 528.12 242.896283 
" style="fill: none; stroke: #000000; stroke-width: 0.8; stroke-linejoin: miter; stroke-linecap: square"/>
   </g>
   <g id="patch_5">
    <path d="M 92.460682 242.896283 
L 116.867366 242.896283 
L 116.867366 169.303617 
L 92.460682 169.303617 
z
" clip-path="url(#p14ff52fc62)" style="fill: #c40d1e"/>
   </g>
   <g id="patch_6">
    <path d="M 153.477393 242.896283 
L 177.884078 242.896283 
L 177.884078 226.357871 
L 153.477393 226.357871 
z
" clip-path="url(#p14ff52fc62)" style="fill: #ff6c00"/>
   </g>
   <g id="patch_7">
    <path d="M 214.494104 242.896283 
L 238.900789 242.896283 
L 238.900789 189.980251 
L 214.494104 189.980251 
z
" clip-path="url(#p14ff52fc62)" style="fill: #e8a800"/>
   </g>
   <g id="patch_8">
    <path d="M 336.527527 242.896283 
L 360.934211 242.896283 
L 360.934211 229.308167 
L 336.527527 229.308167 
z
" clip-path="url(#p14ff52fc62)" style="fill: #b5297a"/>
   </g>
   <g id="patch_9">
    <path d="M 397.544238 242.896283 
L 421.950922 242.896283 
L 421.950922 217.485709 
L 397.544238 217.485709 
z
" clip-path="url(#p14ff52fc62)" style="fill: #2f6fb0"/>
   </g>
   <g id="patch_10">
    <path d="M 116.867366 242.896283 
L 141.274051 242.896283 
L 141.274051 156.434266 
L 116.867366 156.434266 
z
" clip-path="url(#p14ff52fc62)" style="fill: url(#hc5d1e91f93)"/>
   </g>
   <g id="patch_11">
    <path d="M 177.884078 242.896283 
L 202.290762 242.896283 
L 202.290762 211.244488 
L 177.884078 211.244488 
z
" clip-path="url(#p14ff52fc62)" style="fill: url(#h522214b505)"/>
   </g>
   <g id="patch_12">
    <path d="M 238.900789 242.896283 
L 263.307473 242.896283 
L 263.307473 173.004482 
L 238.900789 173.004482 
z
" clip-path="url(#p14ff52fc62)" style="fill: url(#h5e85e630e4)"/>
   </g>
   <g id="patch_13">
    <path d="M 299.9175 242.896283 
L 324.324184 242.896283 
L 324.324184 177.270797 
L 299.9175 177.270797 
z
" clip-path="url(#p14ff52fc62)" style="fill: url(#ha923d75ee6)"/>
   </g>
   <g id="patch_14">
    <path d="M 360.934211 242.896283 
L 385.340896 242.896283 
L 385.340896 207.439219 
L 360.934211 207.439219 
z
" clip-path="url(#p14ff52fc62)" style="fill: url(#hd0d1d40f83)"/>
   </g>
   <g id="patch_15">
    <path d="M 421.950922 242.896283 
L 446.357607 242.896283 
L 446.357607 205.698564 
L 421.950922 205.698564 
z
" clip-path="url(#p14ff52fc62)" style="fill: url(#hb94e1d0dae)"/>
   </g>
   <g id="patch_16">
    <path d="M 482.967634 242.896283 
L 507.374318 242.896283 
L 507.374318 185.082028 
L 482.967634 185.082028 
z
" clip-path="url(#p14ff52fc62)" style="fill: url(#h9d7fa4021d)"/>
   </g>
   <g id="text_14">
    <text style="font-size: 12px; font-family: 'DejaVu Sans', 'Bitstream Vera Sans', 'Computer Modern Sans Serif', 'Lucida Grande', 'Verdana', 'Geneva', 'Lucid', 'Arial', 'Helvetica', 'Avant Garde', sans-serif; text-anchor: start; fill: #0b0b0b" x="71.715" y="21.24" transform="rotate(-0 71.715 21.24)">Tokens/run (in+out) by strategy — self-correction</text>
   </g>
   <g id="LineCollection_1">
    <path d="M 104.664024 190.05329 
L 104.664024 150.839649 
" clip-path="url(#p14ff52fc62)" style="fill: none; stroke: #898781; stroke-width: 0.9"/>
    <path d="M 165.680735 227.950693 
L 165.680735 223.256453 
" clip-path="url(#p14ff52fc62)" style="fill: none; stroke: #898781; stroke-width: 0.9"/>
    <path d="M 226.697447 199.018561 
L 226.697447 168.496678 
" clip-path="url(#p14ff52fc62)" style="fill: none; stroke: #898781; stroke-width: 0.9"/>
    <path d="M 348.730869 232.270855 
L 348.730869 217.961669 
" clip-path="url(#p14ff52fc62)" style="fill: none; stroke: #898781; stroke-width: 0.9"/>
    <path d="M 409.74758 222.32164 
L 409.74758 199.830654 
" clip-path="url(#p14ff52fc62)" style="fill: none; stroke: #898781; stroke-width: 0.9"/>
   </g>
   <g id="line2d_18">
    <defs>
     <path id="m263f5331f5" d="M 2 0 
L -2 -0 
" style="stroke: #898781"/>
    </defs>
    <g clip-path="url(#p14ff52fc62)">
     <use xlink:href="#m263f5331f5" x="104.664024" y="190.05329" style="fill: #1f77b4; stroke: #898781"/>
     <use xlink:href="#m263f5331f5" x="165.680735" y="227.950693" style="fill: #1f77b4; stroke: #898781"/>
     <use xlink:href="#m263f5331f5" x="226.697447" y="199.018561" style="fill: #1f77b4; stroke: #898781"/>
     <use xlink:href="#m263f5331f5" x="348.730869" y="232.270855" style="fill: #1f77b4; stroke: #898781"/>
     <use xlink:href="#m263f5331f5" x="409.74758" y="222.32164" style="fill: #1f77b4; stroke: #898781"/>
    </g>
   </g>
   <g id="line2d_19">
    <g clip-path="url(#p14ff52fc62)">
     <use xlink:href="#m263f5331f5" x="104.664024" y="150.839649" style="fill: #1f77b4; stroke: #898781"/>
     <use xlink:href="#m263f5331f5" x="165.680735" y="223.256453" style="fill: #1f77b4; stroke: #898781"/>
     <use xlink:href="#m263f5331f5" x="226.697447" y="168.496678" style="fill: #1f77b4; stroke: #898781"/>
     <use xlink:href="#m263f5331f5" x="348.730869" y="217.961669" style="fill: #1f77b4; stroke: #898781"/>
     <use xlink:href="#m263f5331f5" x="409.74758" y="199.830654" style="fill: #1f77b4; stroke: #898781"/>
    </g>
   </g>
   <g id="LineCollection_2">
    <path d="M 129.070709 190.447438 
L 129.070709 125.961405 
" clip-path="url(#p14ff52fc62)" style="fill: none; stroke: #898781; stroke-width: 0.9"/>
    <path d="M 190.08742 223.752153 
L 190.08742 201.176613 
" clip-path="url(#p14ff52fc62)" style="fill: none; stroke: #898781; stroke-width: 0.9"/>
    <path d="M 251.104131 190.310353 
L 251.104131 149.482395 
" clip-path="url(#p14ff52fc62)" style="fill: none; stroke: #898781; stroke-width: 0.9"/>
    <path d="M 312.120842 202.925383 
L 312.120842 37.509347 
" clip-path="url(#p14ff52fc62)" style="fill: none; stroke: #898781; stroke-width: 0.9"/>
    <path d="M 373.137553 220.915913 
L 373.137553 191.340576 
" clip-path="url(#p14ff52fc62)" style="fill: none; stroke: #898781; stroke-width: 0.9"/>
    <path d="M 434.154265 217.106476 
L 434.154265 194.384748 
" clip-path="url(#p14ff52fc62)" style="fill: none; stroke: #898781; stroke-width: 0.9"/>
    <path d="M 495.170976 214.321231 
L 495.170976 141.309916 
" clip-path="url(#p14ff52fc62)" style="fill: none; stroke: #898781; stroke-width: 0.9"/>
   </g>
   <g id="line2d_20">
    <g clip-path="url(#p14ff52fc62)">
     <use xlink:href="#m263f5331f5" x="129.070709" y="190.447438" style="fill: #1f77b4; stroke: #898781"/>
     <use xlink:href="#m263f5331f5" x="190.08742" y="223.752153" style="fill: #1f77b4; stroke: #898781"/>
     <use xlink:href="#m263f5331f5" x="251.104131" y="190.310353" style="fill: #1f77b4; stroke: #898781"/>
     <use xlink:href="#m263f5331f5" x="312.120842" y="202.925383" style="fill: #1f77b4; stroke: #898781"/>
     <use xlink:href="#m263f5331f5" x="373.137553" y="220.915913" style="fill: #1f77b4; stroke: #898781"/>
     <use xlink:href="#m263f5331f5" x="434.154265" y="217.106476" style="fill: #1f77b4; stroke: #898781"/>
     <use xlink:href="#m263f5331f5" x="495.170976" y="214.321231" style="fill: #1f77b4; stroke: #898781"/>
    </g>
   </g>
   <g id="line2d_21">
    <g clip-path="url(#p14ff52fc62)">
     <use xlink:href="#m263f5331f5" x="129.070709" y="125.961405" style="fill: #1f77b4; stroke: #898781"/>
     <use xlink:href="#m263f5331f5" x="190.08742" y="201.176613" style="fill: #1f77b4; stroke: #898781"/>
     <use xlink:href="#m263f5331f5" x="251.104131" y="149.482395" style="fill: #1f77b4; stroke: #898781"/>
     <use xlink:href="#m263f5331f5" x="312.120842" y="37.509347" style="fill: #1f77b4; stroke: #898781"/>
     <use xlink:href="#m263f5331f5" x="373.137553" y="191.340576" style="fill: #1f77b4; stroke: #898781"/>
     <use xlink:href="#m263f5331f5" x="434.154265" y="194.384748" style="fill: #1f77b4; stroke: #898781"/>
     <use xlink:href="#m263f5331f5" x="495.170976" y="141.309916" style="fill: #1f77b4; stroke: #898781"/>
    </g>
   </g>
   <g id="legend_1">
    <g id="patch_17">
     <path d="M 482.976562 42.178594 
L 500.976562 42.178594 
L 500.976562 35.878594 
L 482.976562 35.878594 
z
" style="fill: #898781"/>
    </g>
    <g id="text_15">
     <text style="font-size: 9px; font-family: 'DejaVu Sans', 'Bitstream Vera Sans', 'Computer Modern Sans Serif', 'Lucida Grande', 'Verdana', 'Geneva', 'Lucid', 'Arial', 'Helvetica', 'Avant Garde', sans-serif; text-anchor: start; fill: #0b0b0b" x="508.176562" y="42.178594" transform="rotate(-0 508.176562 42.178594)">off</text>
    </g>
    <g id="patch_18">
     <path d="M 482.976562 55.388906 
L 500.976562 55.388906 
L 500.976562 49.088906 
L 482.976562 49.088906 
z
" style="fill: url(#h97066932b5)"/>
    </g>
    <g id="text_16">
     <text style="font-size: 9px; font-family: 'DejaVu Sans', 'Bitstream Vera Sans', 'Computer Modern Sans Serif', 'Lucida Grande', 'Verdana', 'Geneva', 'Lucid', 'Arial', 'Helvetica', 'Avant Garde', sans-serif; text-anchor: start; fill: #0b0b0b" x="508.176562" y="55.388906" transform="rotate(-0 508.176562 55.388906)">on</text>
    </g>
   </g>
  </g>
 </g>
 <defs>
  <clipPath id="p14ff52fc62">
   <rect x="71.715" y="27.24" width="456.405" height="215.656283"/>
  </clipPath>
 </defs>
 <defs>
  <pattern id="hc5d1e91f93" patternUnits="userSpaceOnUse" x="0" y="0" width="72" height="72">
   <rect x="0" y="0" width="73" height="73" fill="#c40d1e"/>
   <path d="M -36 36 
L 36 -36 
M -32 40 
L 40 -32 
M -28 44 
L 44 -28 
M -24 48 
L 48 -24 
M -20 52 
L 52 -20 
M -16 56 
L 56 -16 
M -12 60 
L 60 -12 
M -8 64 
L 64 -8 
M -4 68 
L 68 -4 
M 0 72 
L 72 0 
M 4 76 
L 76 4 
M 8 80 
L 80 8 
M 12 84 
L 84 12 
M 16 88 
L 88 16 
M 20 92 
L 92 20 
M 24 96 
L 96 24 
M 28 100 
L 100 28 
M 32 104 
L 104 32 
M 36 108 
L 108 36 
" style="fill: #ffffff; stroke: #ffffff; stroke-width: 0.5; stroke-linecap: butt; stroke-linejoin: miter"/>
  </pattern>
  <pattern id="h522214b505" patternUnits="userSpaceOnUse" x="0" y="0" width="72" height="72">
   <rect x="0" y="0" width="73" height="73" fill="#ff6c00"/>
   <path d="M -36 36 
L 36 -36 
M -32 40 
L 40 -32 
M -28 44 
L 44 -28 
M -24 48 
L 48 -24 
M -20 52 
L 52 -20 
M -16 56 
L 56 -16 
M -12 60 
L 60 -12 
M -8 64 
L 64 -8 
M -4 68 
L 68 -4 
M 0 72 
L 72 0 
M 4 76 
L 76 4 
M 8 80 
L 80 8 
M 12 84 
L 84 12 
M 16 88 
L 88 16 
M 20 92 
L 92 20 
M 24 96 
L 96 24 
M 28 100 
L 100 28 
M 32 104 
L 104 32 
M 36 108 
L 108 36 
" style="fill: #ffffff; stroke: #ffffff; stroke-width: 0.5; stroke-linecap: butt; stroke-linejoin: miter"/>
  </pattern>
  <pattern id="h5e85e630e4" patternUnits="userSpaceOnUse" x="0" y="0" width="72" height="72">
   <rect x="0" y="0" width="73" height="73" fill="#e8a800"/>
   <path d="M -36 36 
L 36 -36 
M -32 40 
L 40 -32 
M -28 44 
L 44 -28 
M -24 48 
L 48 -24 
M -20 52 
L 52 -20 
M -16 56 
L 56 -16 
M -12 60 
L 60 -12 
M -8 64 
L 64 -8 
M -4 68 
L 68 -4 
M 0 72 
L 72 0 
M 4 76 
L 76 4 
M 8 80 
L 80 8 
M 12 84 
L 84 12 
M 16 88 
L 88 16 
M 20 92 
L 92 20 
M 24 96 
L 96 24 
M 28 100 
L 100 28 
M 32 104 
L 104 32 
M 36 108 
L 108 36 
" style="fill: #ffffff; stroke: #ffffff; stroke-width: 0.5; stroke-linecap: butt; stroke-linejoin: miter"/>
  </pattern>
  <pattern id="ha923d75ee6" patternUnits="userSpaceOnUse" x="0" y="0" width="72" height="72">
   <rect x="0" y="0" width="73" height="73" fill="#4f9d2e"/>
   <path d="M -36 36 
L 36 -36 
M -32 40 
L 40 -32 
M -28 44 
L 44 -28 
M -24 48 
L 48 -24 
M -20 52 
L 52 -20 
M -16 56 
L 56 -16 
M -12 60 
L 60 -12 
M -8 64 
L 64 -8 
M -4 68 
L 68 -4 
M 0 72 
L 72 0 
M 4 76 
L 76 4 
M 8 80 
L 80 8 
M 12 84 
L 84 12 
M 16 88 
L 88 16 
M 20 92 
L 92 20 
M 24 96 
L 96 24 
M 28 100 
L 100 28 
M 32 104 
L 104 32 
M 36 108 
L 108 36 
" style="fill: #ffffff; stroke: #ffffff; stroke-width: 0.5; stroke-linecap: butt; stroke-linejoin: miter"/>
  </pattern>
  <pattern id="hd0d1d40f83" patternUnits="userSpaceOnUse" x="0" y="0" width="72" height="72">
   <rect x="0" y="0" width="73" height="73" fill="#b5297a"/>
   <path d="M -36 36 
L 36 -36 
M -32 40 
L 40 -32 
M -28 44 
L 44 -28 
M -24 48 
L 48 -24 
M -20 52 
L 52 -20 
M -16 56 
L 56 -16 
M -12 60 
L 60 -12 
M -8 64 
L 64 -8 
M -4 68 
L 68 -4 
M 0 72 
L 72 0 
M 4 76 
L 76 4 
M 8 80 
L 80 8 
M 12 84 
L 84 12 
M 16 88 
L 88 16 
M 20 92 
L 92 20 
M 24 96 
L 96 24 
M 28 100 
L 100 28 
M 32 104 
L 104 32 
M 36 108 
L 108 36 
" style="fill: #ffffff; stroke: #ffffff; stroke-width: 0.5; stroke-linecap: butt; stroke-linejoin: miter"/>
  </pattern>
  <pattern id="hb94e1d0dae" patternUnits="userSpaceOnUse" x="0" y="0" width="72" height="72">
   <rect x="0" y="0" width="73" height="73" fill="#2f6fb0"/>
   <path d="M -36 36 
L 36 -36 
M -32 40 
L 40 -32 
M -28 44 
L 44 -28 
M -24 48 
L 48 -24 
M -20 52 
L 52 -20 
M -16 56 
L 56 -16 
M -12 60 
L 60 -12 
M -8 64 
L 64 -8 
M -4 68 
L 68 -4 
M 0 72 
L 72 0 
M 4 76 
L 76 4 
M 8 80 
L 80 8 
M 12 84 
L 84 12 
M 16 88 
L 88 16 
M 20 92 
L 92 20 
M 24 96 
L 96 24 
M 28 100 
L 100 28 
M 32 104 
L 104 32 
M 36 108 
L 108 36 
" style="fill: #ffffff; stroke: #ffffff; stroke-width: 0.5; stroke-linecap: butt; stroke-linejoin: miter"/>
  </pattern>
  <pattern id="h9d7fa4021d" patternUnits="userSpaceOnUse" x="0" y="0" width="72" height="72">
   <rect x="0" y="0" width="73" height="73" fill="#7fb0dd"/>
   <path d="M -36 36 
L 36 -36 
M -32 40 
L 40 -32 
M -28 44 
L 44 -28 
M -24 48 
L 48 -24 
M -20 52 
L 52 -20 
M -16 56 
L 56 -16 
M -12 60 
L 60 -12 
M -8 64 
L 64 -8 
M -4 68 
L 68 -4 
M 0 72 
L 72 0 
M 4 76 
L 76 4 
M 8 80 
L 80 8 
M 12 84 
L 84 12 
M 16 88 
L 88 16 
M 20 92 
L 92 20 
M 24 96 
L 96 24 
M 28 100 
L 100 28 
M 32 104 
L 104 32 
M 36 108 
L 108 36 
" style="fill: #ffffff; stroke: #ffffff; stroke-width: 0.5; stroke-linecap: butt; stroke-linejoin: miter"/>
  </pattern>
  <pattern id="h97066932b5" patternUnits="userSpaceOnUse" x="0" y="0" width="72" height="72">
   <rect x="0" y="0" width="73" height="73" fill="#898781"/>
   <path d="M -36 36 
L 36 -36 
M -32 40 
L 40 -32 
M -28 44 
L 44 -28 
M -24 48 
L 48 -24 
M -20 52 
L 52 -20 
M -16 56 
L 56 -16 
M -12 60 
L 60 -12 
M -8 64 
L 64 -8 
M -4 68 
L 68 -4 
M 0 72 
L 72 0 
M 4 76 
L 76 4 
M 8 80 
L 80 8 
M 12 84 
L 84 12 
M 16 88 
L 88 16 
M 20 92 
L 92 20 
M 24 96 
L 96 24 
M 28 100 
L 100 28 
M 32 104 
L 104 32 
M 36 108 
L 108 36 
" style="fill: #ffffff; stroke: #ffffff; stroke-width: 0.5; stroke-linecap: butt; stroke-linejoin: miter"/>
  </pattern>
 </defs>
</svg>
