<?xml version="1.0" encoding="utf-8" standalone="no"?>
<!DOCTYPE svg PUBLIC "-//W3C//DTD SVG 1.1//EN"
  "http://www.w3.org/Graphics/SVG/1.1/DTD/svg11.dtd">
<svg xmlns:xlink="http://www.w3.org/1999/xlink" width="540pt" height="324pt" viewBox="0 0 540 324" xmlns="http://www.w3.org/2000/svg" version="1.1">
 <metadata>
  <rdf:RDF xmlns:dc="http://purl.org/dc/elements/1.1/" xmlns:cc="http://creativecommons.org/ns#" xmlns:rdf="http://www.w3.org/1999/02/22-rdf-syntax-ns#">
   <cc:Work>
    <dc:type rdf:resource="http://purl.org/dc/dcmitype/StillImage"/>
    <dc:format>image/svg+xml</dc:format>
    <dc:creator>
     <cc:Agent>
      <dc:title>Matplotlib v3.10.9, https://matplotlib.org/</dc:title>
     </cc:Agent>
    </dc:creator>
   </cc:Work>
  </rdf:RDF>
 </metadata>
 <defs>
  <style type="text/css">*{stroke-linejoin: round; stroke-linecap: butt}</style>
 </defs>
 <g id="figure_1">
  <g id="patch_1">
   <path d="M 0 324 
L 540 324 
L 540 0 
L 0 0 
L 0 324 
z
" style="fill: none"/>
  </g>
  <g id="axes_1">
   <g id="patch_2">
    <path d="M 47.28 260.982232 
L 528.12 260.982232 
L 528.12 41.24 
L 47.28 41.24 
L 47.28 260.982232 
z
" style="fill: none"/>
   </g>
   <g id="matplotlib.axis_1">
    <g id="xtick_1">
     <g id="line2d_1"/>
     <g id="text_1">
      <text style="font-size: 9px; font-family: 'DejaVu Sans', 'Bitstream Vera Sans', 'Computer Modern Sans Serif', 'Lucida Grande', 'Verdana', 'Geneva', 'Lucid', 'Arial', 'Helvetica', 'Avant Garde', sans-serif; fill: #898781" transform="translate(42.68812 299.581249) rotate(-25)">ensemble_vote</text>
     </g>
    </g>
    <g id="xtick_2">
     <g id="line2d_2"/>
     <g id="text_2">
      <text style="font-size: 9px; font-family: 'DejaVu Sans', 'Bitstream Vera Sans', 'Computer Modern Sans Serif', 'Lucida Grande', 'Verdana', 'Geneva', 'Lucid', 'Arial', 'Helvetica', 'Avant Garde', sans-serif; fill: #898781" transform="translate(119.071566 306.428853) rotate(-25)">plan_then_execute</text>
     </g>
    </g>
    <g id="xtick_3">
     <g id="line2d_3"/>
     <g id="text_3">
      <text style="font-size: 9px; font-family: 'DejaVu Sans', 'Bitstream Vera Sans', 'Computer Modern Sans Serif', 'Lucida Grande', 'Verdana', 'Geneva', 'Lucid', 'Arial', 'Helvetica', 'Avant Garde', sans-serif; fill: #898781" transform="translate(208.649863 307.123598) rotate(-25)">write_then_critique</text>
     </g>
    </g>
    <g id="xtick_4">
     <g id="line2d_4"/>
     <g id="text_4">
      <text style="font-size: 9px; font-family: 'DejaVu Sans', 'Bitstream Vera Sans', 'Computer Modern Sans Serif', 'Lucida Grande', 'Verdana', 'Geneva', 'Lucid', 'Arial', 'Helvetica', 'Avant Garde', sans-serif; fill: #898781" transform="translate(293.316255 310.108802) rotate(-25)">structured_per_table</text>
     </g>
    </g>
    <g id="xtick_5">
     <g id="line2d_5"/>
     <g id="text_5">
      <text style="font-size: 9px; font-family: 'DejaVu Sans', 'Bitstream Vera Sans', 'Computer Modern Sans Serif', 'Lucida Grande', 'Verdana', 'Geneva', 'Lucid', 'Arial', 'Helvetica', 'Avant Garde', sans-serif; fill: #898781" transform="translate(385.484326 309.595915) rotate(-25)">write_tools_freeform</text>
     </g>
    </g>
   </g>
   <g id="matplotlib.axis_2">
    <g id="ytick_1">
     <g id="line2d_6">
      <path d="M 47.28 260.982232 
L 528.12 260.982232 
" clip-path="url(#pf424135721)" style="fill: none; stroke: #898781; stroke-opacity: 0.18; stroke-width: 0.6; stroke-linecap: square"/>
     </g>
     <g id="line2d_7"/>
     <g id="text_6">
      <text style="font-size: 11px; font-family: 'DejaVu Sans', 'Bitstream Vera Sans', 'Computer Modern Sans Serif', 'Lucida Grande', 'Verdana', 'Geneva', 'Lucid', 'Arial', 'Helvetica', 'Avant Garde', sans-serif; text-anchor: end" x="43.78" y="265.161373" transform="rotate(-0 43.78 265.161373)">0.0</text>
     </g>
    </g>
    <g id="ytick_2">
     <g id="line2d_8">
      <path d="M 47.28 219.126569 
L 528.12 219.126569 
" clip-path="url(#pf424135721)" style="fill: none; stroke: #898781; stroke-opacity: 0.18; stroke-width: 0.6; stroke-linecap: square"/>
     </g>
     <g id="line2d_9"/>
     <g id="text_7">
      <text style="font-size: 11px; font-family: 'DejaVu Sans', 'Bitstream Vera Sans', 'Computer Modern Sans Serif', 'Lucida Grande', 'Verdana', 'Geneva', 'Lucid', 'Arial', 'Helvetica', 'Avant Garde', sans-serif; text-anchor: end" x="43.78" y="223.305709" transform="rotate(-0 43.78 223.305709)">0.2</text>
     </g>
    </g>
    <g id="ytick_3">
     <g id="line2d_10">
      <path d="M 47.28 177.270905 
L 528.12 177.270905 
" clip-path="url(#pf424135721)" style="fill: none; stroke: #898781; stroke-opacity: 0.18; stroke-width: 0.6; stroke-linecap: square"/>
     </g>
     <g id="line2d_11"/>
     <g id="text_8">
      <text style="font-size: 11px; font-family: 'DejaVu Sans', 'Bitstream Vera Sans', 'Computer Modern Sans Serif', 'Lucida Grande', 'Verdana', 'Geneva', 'Lucid', 'Arial', 'Helvetica', 'Avant Garde', sans-serif; text-anchor: end" x="43.78" y="181.450046" transform="rotate(-0 43.78 181.450046)">0.4</text>
     </g>
    </g>
    <g id="ytick_4">
     <g id="line2d_12">
      <path d="M 47.28 135.415242 
L 528.12 135.415242 
" clip-path="url(#pf424135721)" style="fill: none; stroke: #898781; stroke-opacity: 0.18; stroke-width: 0.6; stroke-linecap: square"/>
     </g>
     <g id="line2d_13"/>
     <g id="text_9">
      <text style="font-size: 11px; font-family: 'DejaVu Sans', 'Bitstream Vera Sans', 'Computer Modern Sans Serif', 'Lucida Grande', 'Verdana', 'Geneva', 'Lucid', 'Arial', 'Helvetica', 'Avant Garde', sans-serif; text-anchor: end" x="43.78" y="139.594383" transform="rotate(-0 43.78 139.594383)">0.6</text>
     </g>
    </g>
    <g id="ytick_5">
     <g id="line2d_14">
      <path d="M 47.28 93.559579 
L 528.12 93.559579 
" clip-path="url(#pf424135721)" style="fill: none; stroke: #898781; stroke-opacity: 0.18; stroke-width: 0.6; stroke-linecap: square"/>
     </g>
     <g id="line2d_15"/>
     <g id="text_10">
      <text style="font-size: 11px; font-family: 'DejaVu Sans', 'Bitstream Vera Sans', 'Computer Modern Sans Serif', 'Lucida Grande', 'Verdana', 'Geneva', 'Lucid', 'Arial', 'Helvetica', 'Avant Garde', sans-serif; text-anchor: end" x="43.78" y="97.73872" transform="rotate(-0 43.78 97.73872)">0.8</text>
     </g>
    </g>
    <g id="ytick_6">
     <g id="line2d_16">
      <path d="M 47.28 51.703916 
L 528.12 51.703916 
" clip-path="url(#pf424135721)" style="fill: none; stroke: #898781; stroke-opacity: 0.18; stroke-width: 0.6; stroke-linecap: square"/>
     </g>
     <g id="line2d_17"/>
     <g id="text_11">
      <text style="font-size: 11px; font-family: 'DejaVu Sans', 'Bitstream Vera Sans', 'Computer Modern Sans Serif', 'Lucida Grande', 'Verdana', 'Geneva', 'Lucid', 'Arial', 'Helvetica', 'Avant Garde', sans-serif; text-anchor: end" x="43.78" y="55.883056" transform="rotate(-0 43.78 55.883056)">1.0</text>
     </g>
    </g>
    <g id="text_12">
     <text style="font-size: 11px; font-family: 'DejaVu Sans', 'Bitstream Vera Sans', 'Computer Modern Sans Serif', 'Lucida Grande', 'Verdana', 'Geneva', 'Lucid', 'Arial', 'Helvetica', 'Avant Garde', sans-serif; text-anchor: middle; fill: #0b0b0b" x="19.998906" y="151.111116" transform="rotate(-90 19.998906 151.111116)">FK integrity</text>
    </g>
   </g>
   <g id="patch_3">
    <path d="M 47.28 260.982232 
L 47.28 41.24 
" style="fill: none; stroke: #000000; stroke-width: 0.8; stroke-linejoin: miter; stroke-linecap: square"/>
   </g>
   <g id="patch_4">
    <path d="M 47.28 260.982232 
L 528.12 260.982232 
" style="fill: none; stroke: #000000; stroke-width: 0.8; stroke-linejoin: miter; stroke-linecap: square"/>
   </g>
   <g id="patch_5">
    <path d="M 69.136364 260.982232 
L 105.563636 260.982232 
L 105.563636 117.008225 
L 69.136364 117.008225 
z
" clip-path="url(#pf424135721)" style="fill: #c40d1e"/>
   </g>
   <g id="patch_6">
    <path d="M 160.204545 260.982232 
L 196.631818 260.982232 
L 196.631818 115.316403 
L 160.204545 115.316403 
z
" clip-path="url(#pf424135721)" style="fill: #ff6c00"/>
   </g>
   <g id="patch_7">
    <path d="M 251.272727 260.982232 
L 287.7 260.982232 
L 287.7 100.114903 
L 251.272727 100.114903 
z
" clip-path="url(#pf424135721)" style="fill: #e8a800"/>
   </g>
   <g id="patch_8">
    <path d="M 342.340909 260.982232 
L 378.768182 260.982232 
L 378.768182 141.046984 
L 342.340909 141.046984 
z
" clip-path="url(#pf424135721)" style="fill: #b5297a"/>
   </g>
   <g id="patch_9">
    <path d="M 433.409091 260.982232 
L 469.836364 260.982232 
L 469.836364 82.608884 
L 433.409091 82.608884 
z
" clip-path="url(#pf424135721)" style="fill: #2f6fb0"/>
   </g>
   <g id="patch_10">
    <path d="M 105.563636 260.982232 
L 141.990909 260.982232 
L 141.990909 117.008225 
L 105.563636 117.008225 
z
" clip-path="url(#pf424135721)" style="fill: url(#h99a31f6c6a)"/>
   </g>
   <g id="patch_11">
    <path d="M 196.631818 260.982232 
L 233.059091 260.982232 
L 233.059091 100.662079 
L 196.631818 100.662079 
z
" clip-path="url(#pf424135721)" style="fill: url(#hc2a7683744)"/>
   </g>
   <g id="patch_12">
    <path d="M 287.7 260.982232 
L 324.127273 260.982232 
L 324.127273 82.35579 
L 287.7 82.35579 
z
" clip-path="url(#pf424135721)" style="fill: url(#h84e3ab99b5)"/>
   </g>
   <g id="patch_13">
    <path d="M 378.768182 260.982232 
L 415.195455 260.982232 
L 415.195455 124.999547 
L 378.768182 124.999547 
z
" clip-path="url(#pf424135721)" style="fill: url(#h558947ee15)"/>
   </g>
   <g id="patch_14">
    <path d="M 469.836364 260.982232 
L 506.263636 260.982232 
L 506.263636 57.692802 
L 469.836364 57.692802 
z
" clip-path="url(#pf424135721)" style="fill: url(#h2519333bef)"/>
   </g>
   <g id="text_13">
    <text style="font-size: 9px; font-family: 'DejaVu Sans', 'Bitstream Vera Sans', 'Computer Modern Sans Serif', 'Lucida Grande', 'Verdana', 'Geneva', 'Lucid', 'Arial', 'Helvetica', 'Avant Garde', sans-serif; text-anchor: start; fill: #898781" x="47.28" y="36.072148" transform="rotate(-0 47.28 36.072148)">median per bar · n=17–24/bar · N=205 runs</text>
   </g>
   <g id="text_14">
    <text style="font-size: 12px; font-family: 'DejaVu Sans', 'Bitstream Vera Sans', 'Computer Modern Sans Serif', 'Lucida Grande', 'Verdana', 'Geneva', 'Lucid', 'Arial', 'Helvetica', 'Avant Garde', sans-serif; text-anchor: start; fill: #0b0b0b" x="47.28" y="21.24" transform="rotate(-0 47.28 21.24)">FK integrity by strategy — self-correction</text>
   </g>
   <g id="LineCollection_1">
    <path d="M 87.35 183.714203 
L 87.35 79.141214 
" clip-path="url(#pf424135721)" style="fill: none; stroke: #898781; stroke-width: 0.9"/>
    <path d="M 178.418182 136.434685 
L 178.418182 76.61468 
" clip-path="url(#pf424135721)" style="fill: none; stroke: #898781; stroke-width: 0.9"/>
    <path d="M 269.486364 141.046984 
L 269.486364 72.685894 
" clip-path="url(#pf424135721)" style="fill: none; stroke: #898781; stroke-width: 0.9"/>
    <path d="M 360.554545 204.090119 
L 360.554545 82.35579 
" clip-path="url(#pf424135721)" style="fill: none; stroke: #898781; stroke-width: 0.9"/>
    <path d="M 451.622727 131.050343 
L 451.622727 51.703916 
" clip-path="url(#pf424135721)" style="fill: none; stroke: #898781; stroke-width: 0.9"/>
   </g>
   <g id="line2d_18">
    <defs>
     <path id="md7efddf3b3" d="M 2 0 
L -2 -0 
" style="stroke: #898781"/>
    </defs>
    <g clip-path="url(#pf424135721)">
     <use xlink:href="#md7efddf3b3" x="87.35" y="183.714203" style="fill: #1f77b4; stroke: #898781"/>
     <use xlink:href="#md7efddf3b3" x="178.418182" y="136.434685" style="fill: #1f77b4; stroke: #898781"/>
     <use xlink:href="#md7efddf3b3" x="269.486364" y="141.046984" style="fill: #1f77b4; stroke: #898781"/>
     <use xlink:href="#md7efddf3b3" x="360.554545" y="204.090119" style="fill: #1f77b4; stroke: #898781"/>
     <use xlink:href="#md7efddf3b3" x="451.622727" y="131.050343" style="fill: #1f77b4; stroke: #898781"/>
    </g>
   </g>
   <g id="line2d_19">
    <g clip-path="url(#pf424135721)">
     <use xlink:href="#md7efddf3b3" x="87.35" y="79.141214" style="fill: #1f77b4; stroke: #898781"/>
     <use xlink:href="#md7efddf3b3" x="178.418182" y="76.61468" style="fill: #1f77b4; stroke: #898781"/>
     <use xlink:href="#md7efddf3b3" x="269.486364" y="72.685894" style="fill: #1f77b4; stroke: #898781"/>
     <use xlink:href="#md7efddf3b3" x="360.554545" y="82.35579" style="fill: #1f77b4; stroke: #898781"/>
     <use xlink:href="#md7efddf3b3" x="451.622727" y="51.703916" style="fill: #1f77b4; stroke: #898781"/>
    </g>
   </g>
   <g id="LineCollection_2">
    <path d="M 123.777273 171.267352 
L 123.777273 59.317112 
" clip-path="url(#pf424135721)" style="fill: none; stroke: #898781; stroke-width: 0.9"/>
    <path d="M 214.845455 127.556601 
L 214.845455 57.692802 
" clip-path="url(#pf424135721)" style="fill: none; stroke: #898781; stroke-width: 0.9"/>
    <path d="M 305.913636 115.316403 
L 305.913636 57.692802 
" clip-path="url(#pf424135721)" style="fill: none; stroke: #898781; stroke-width: 0.9"/>
    <path d="M 396.981818 183.51566 
L 396.981818 82.35579 
" clip-path="url(#pf424135721)" style="fill: none; stroke: #898781; stroke-width: 0.9"/>
    <path d="M 488.05 125.952805 
L 488.05 51.703916 
" clip-path="url(#pf424135721)" style="fill: none; stroke: #898781; stroke-width: 0.9"/>
   </g>
   <g id="line2d_20">
    <g clip-path="url(#pf424135721)">
     <use xlink:href="#md7efddf3b3" x="123.777273" y="171.267352" style="fill: #1f77b4; stroke: #898781"/>
     <use xlink:href="#md7efddf3b3" x="214.845455" y="127.556601" style="fill: #1f77b4; stroke: #898781"/>
     <use xlink:href="#md7efddf3b3" x="305.913636" y="115.316403" style="fill: #1f77b4; stroke: #898781"/>
     <use xlink:href="#md7efddf3b3" x="396.981818" y="183.51566" style="fill: #1f77b4; stroke: #898781"/>
     <use xlink:href="#md7efddf3b3" x="488.05" y="125.952805" style="fill: #1f77b4; stroke: #898781"/>
    </g>
   </g>
   <g id="line2d_21">
    <g clip-path="url(#pf424135721)">
     <use xlink:href="#md7efddf3b3" x="123.777273" y="59.317112" style="fill: #1f77b4; stroke: #898781"/>
     <use xlink:href="#md7efddf3b3" x="214.845455" y="57.692802" style="fill: #1f77b4; stroke: #898781"/>
     <use xlink:href="#md7efddf3b3" x="305.913636" y="57.692802" style="fill: #1f77b4; stroke: #898781"/>
     <use xlink:href="#md7efddf3b3" x="396.981818" y="82.35579" style="fill: #1f77b4; stroke: #898781"/>
     <use xlink:href="#md7efddf3b3" x="488.05" y="51.703916" style="fill: #1f77b4; stroke: #898781"/>
    </g>
   </g>
   <g id="legend_1">
    <g id="patch_15">
     <path d="M 55.38 56.178594 
L 73.38 56.178594 
L 73.38 49.878594 
L 55.38 49.878594 
z
" style="fill: #898781"/>
    </g>
    <g id="text_15">
     <text style="font-size: 9px; font-family: 'DejaVu Sans', 'Bitstream Vera Sans', 'Computer Modern Sans Serif', 'Lucida Grande', 'Verdana', 'Geneva', 'Lucid', 'Arial', 'Helvetica', 'Avant Garde', sans-serif; text-anchor: start; fill: #0b0b0b" x="80.58" y="56.178594" transform="rotate(-0 80.58 56.178594)">off</text>
    </g>
    <g id="patch_16">
     <path d="M 55.38 69.388906 
L 73.38 69.388906 
L 73.38 63.088906 
L 55.38 63.088906 
z
" style="fill: url(#heb9a7e76fd)"/>
    </g>
    <g id="text_16">
     <text style="font-size: 9px; font-family: 'DejaVu Sans', 'Bitstream Vera Sans', 'Computer Modern Sans Serif', 'Lucida Grande', 'Verdana', 'Geneva', 'Lucid', 'Arial', 'Helvetica', 'Avant Garde', sans-serif; text-anchor: start; fill: #0b0b0b" x="80.58" y="69.388906" transform="rotate(-0 80.58 69.388906)">on</text>
    </g>
   </g>
  </g>
 </g>
 <defs>
  <clipPath id="pf424135721">
   <rect x="47.28" y="41.24" width="480.84" height="219.742232"/>
  </clipPath>
 </defs>
 <defs>
  <pattern id="h99a31f6c6a" patternUnits="userSpaceOnUse" x="0" y="0" width="72" height="72">
   <rect x="0" y="0" width="73" height="73" fill="#c40d1e"/>
   <path d="M -36 36 
L 36 -36 
M -32 40 
L 40 -32 
M -28 44 
L 44 -28 
M -24 48 
L 48 -24 
M -20 52 
L 52 -20 
M -16 56 
L 56 -16 
M -12 60 
L 60 -12 
M -8 64 
L 64 -8 
M -4 68 
L 68 -4 
M 0 72 
L 72 0 
M 4 76 
L 76 4 
M 8 80 
L 80 8 
M 12 84 
L 84 12 
M 16 88 
L 88 16 
M 20 92 
L 92 20 
M 24 96 
L 96 24 
M 28 100 
L 100 28 
M 32 104 
L 104 32 
M 36 108 
L 108 36 
" style="fill: #ffffff; stroke: #ffffff; stroke-width: 0.5; stroke-linecap: butt; stroke-linejoin: miter"/>
  </pattern>
  <pattern id="hc2a7683744" patternUnits="userSpaceOnUse" x="0" y="0" width="72" height="72">
   <rect x="0" y="0" width="73" height="73" fill="#ff6c00"/>
   <path d="M -36 36 
L 36 -36 
M -32 40 
L 40 -32 
M -28 44 
L 44 -28 
M -24 48 
L 48 -24 
M -20 52 
L 52 -20 
M -16 56 
L 56 -16 
M -12 60 
L 60 -12 
M -8 64 
L 64 -8 
M -4 68 
L 68 -4 
M 0 72 
L 72 0 
M 4 76 
L 76 4 
M 8 80 
L 80 8 
M 12 84 
L 84 12 
M 16 88 
L 88 16 
M 20 92 
L 92 20 
M 24 96 
L 96 24 
M 28 100 
L 100 28 
M 32 104 
L 104 32 
M 36 108 
L 108 36 
" style="fill: #ffffff; stroke: #ffffff; stroke-width: 0.5; stroke-linecap: butt; stroke-linejoin: miter"/>
  </pattern>
  <pattern id="h84e3ab99b5" patternUnits="userSpaceOnUse" x="0" y="0" width="72" height="72">
   <rect x="0" y="0" width="73" height="73" fill="#e8a800"/>
   <path d="M -36 36 
L 36 -36 
M -32 40 
L 40 -32 
M -28 44 
L 44 -28 
M -24 48 
L 48 -24 
M -20 52 
L 52 -20 
M -16 56 
L 56 -16 
M -12 60 
L 60 -12 
M -8 64 
L 64 -8 
M -4 68 
L 68 -4 
M 0 72 
L 72 0 
M 4 76 
L 76 4 
M 8 80 
L 80 8 
M 12 84 
L 84 12 
M 16 88 
L 88 16 
M 20 92 
L 92 20 
M 24 96 
L 96 24 
M 28 100 
L 100 28 
M 32 104 
L 104 32 
M 36 108 
L 108 36 
" style="fill: #ffffff; stroke: #ffffff; stroke-width: 0.5; stroke-linecap: butt; stroke-linejoin: miter"/>
  </pattern>
  <pattern id="h558947ee15" patternUnits="userSpaceOnUse" x="0" y="0" width="72" height="72">
   <rect x="0" y="0" width="73" height="73" fill="#b5297a"/>
   <path d="M -36 36 
L 36 -36 
M -32 40 
L 40 -32 
M -28 44 
L 44 -28 
M -24 48 
L 48 -24 
M -20 52 
L 52 -20 
M -16 56 
L 56 -16 
M -12 60 
L 60 -12 
M -8 64 
L 64 -8 
M -4 68 
L 68 -4 
M 0 72 
L 72 0 
M 4 76 
L 76 4 
M 8 80 
L 80 8 
M 12 84 
L 84 12 
M 16 88 
L 88 16 
M 20 92 
L 92 20 
M 24 96 
L 96 24 
M 28 100 
L 100 28 
M 32 104 
L 104 32 
M 36 108 
L 108 36 
" style="fill: #ffffff; stroke: #ffffff; stroke-width: 0.5; stroke-linecap: butt; stroke-linejoin: miter"/>
  </pattern>
  <pattern id="h2519333bef" patternUnits="userSpaceOnUse" x="0" y="0" width="72" height="72">
   <rect x="0" y="0" width="73" height="73" fill="#2f6fb0"/>
   <path d="M -36 36 
L 36 -36 
M -32 40 
L 40 -32 
M -28 44 
L 44 -28 
M -24 48 
L 48 -24 
M -20 52 
L 52 -20 
M -16 56 
L 56 -16 
M -12 60 
L 60 -12 
M -8 64 
L 64 -8 
M -4 68 
L 68 -4 
M 0 72 
L 72 0 
M 4 76 
L 76 4 
M 8 80 
L 80 8 
M 12 84 
L 84 12 
M 16 88 
L 88 16 
M 20 92 
L 92 20 
M 24 96 
L 96 24 
M 28 100 
L 100 28 
M 32 104 
L 104 32 
M 36 108 
L 108 36 
" style="fill: #ffffff; stroke: #ffffff; stroke-width: 0.5; stroke-linecap: butt; stroke-linejoin: miter"/>
  </pattern>
  <pattern id="heb9a7e76fd" patternUnits="userSpaceOnUse" x="0" y="0" width="72" height="72">
   <rect x="0" y="0" width="73" height="73" fill="#898781"/>
   <path d="M -36 36 
L 36 -36 
M -32 40 
L 40 -32 
M -28 44 
L 44 -28 
M -24 48 
L 48 -24 
M -20 52 
L 52 -20 
M -16 56 
L 56 -16 
M -12 60 
L 60 -12 
M -8 64 
L 64 -8 
M -4 68 
L 68 -4 
M 0 72 
L 72 0 
M 4 76 
L 76 4 
M 8 80 
L 80 8 
M 12 84 
L 84 12 
M 16 88 
L 88 16 
M 20 92 
L 92 20 
M 24 96 
L 96 24 
M 28 100 
L 100 28 
M 32 104 
L 104 32 
M 36 108 
L 108 36 
" style="fill: #ffffff; stroke: #ffffff; stroke-width: 0.5; stroke-linecap: butt; stroke-linejoin: miter"/>
  </pattern>
 </defs>
</svg>
