<?xml version="1.0" encoding="utf-8" standalone="no"?>
<!DOCTYPE svg PUBLIC "-//W3C//DTD SVG 1.1//EN"
  "http://www.w3.org/Graphics/SVG/1.1/DTD/svg11.dtd">
<svg xmlns:xlink="http://www.w3.org/1999/xlink" width="540pt" height="324pt" viewBox="0 0 540 324" xmlns="http://www.w3.org/2000/svg" version="1.1">
 <metadata>
  <rdf:RDF xmlns:dc="http://purl.org/dc/elements/1.1/" xmlns:cc="http://creativecommons.org/ns#" xmlns:rdf="http://www.w3.org/1999/02/22-rdf-syntax-ns#">
   <cc:Work>
    <dc:type rdf:resource="http://purl.org/dc/dcmitype/StillImage"/>
    <dc:format>image/svg+xml</dc:format>
    <dc:creator>
     <cc:Agent>
      <dc:title>Matplotlib v3.10.9, https://matplotlib.org/</dc:title>
     </cc:Agent>
    </dc:creator>
   </cc:Work>
  </rdf:RDF>
 </metadata>
 <defs>
  <style type="text/css">*{stroke-linejoin: round; stroke-linecap: butt}</style>
 </defs>
 <g id="figure_1">
  <g id="patch_1">
   <path d="M 0 324 
L 540 324 
L 540 0 
L 0 0 
L 0 324 
z
" style="fill: none"/>
  </g>
  <g id="axes_1">
   <g id="patch_2">
    <path d="M 75.215 239.396283 
L 528.12 239.396283 
L 528.12 27.24 
L 75.215 27.24 
L 75.215 239.396283 
z
" style="fill: none"/>
   </g>
   <g id="matplotlib.axis_1">
    <g id="xtick_1">
     <g id="line2d_1">
      <path d="M 120.02111 239.396283 
L 120.02111 27.24 
" clip-path="url(#p9b7b1b1c2a)" style="fill: none; stroke: #b0b0b0; stroke-opacity: 0.3; stroke-width: 0.8; stroke-linecap: square"/>
     </g>
     <g id="line2d_2">
      <defs>
       <path id="mfaadffe8dd" d="M 0 0 
L 0 3.5 
" style="stroke: #000000; stroke-width: 0.8"/>
      </defs>
      <g>
       <use xlink:href="#mfaadffe8dd" x="120.02111" y="239.396283" style="stroke: #000000; stroke-width: 0.8"/>
      </g>
     </g>
     <g id="text_1">
      <text style="font-size: 9px; font-family: 'DejaVu Sans', 'Bitstream Vera Sans', 'Computer Modern Sans Serif', 'Lucida Grande', 'Verdana', 'Geneva', 'Lucid', 'Arial', 'Helvetica', 'Avant Garde', sans-serif; fill: #0b0b0b" transform="translate(57.145593 281.4953) rotate(-25)">ensemble_vote</text>
     </g>
    </g>
    <g id="xtick_2">
     <g id="line2d_3">
      <path d="M 180.569906 239.396283 
L 180.569906 27.24 
" clip-path="url(#p9b7b1b1c2a)" style="fill: none; stroke: #b0b0b0; stroke-opacity: 0.3; stroke-width: 0.8; stroke-linecap: square"/>
     </g>
     <g id="line2d_4">
      <g>
       <use xlink:href="#mfaadffe8dd" x="180.569906" y="239.396283" style="stroke: #000000; stroke-width: 0.8"/>
      </g>
     </g>
     <g id="text_2">
      <text style="font-size: 9px; font-family: 'DejaVu Sans', 'Bitstream Vera Sans', 'Computer Modern Sans Serif', 'Lucida Grande', 'Verdana', 'Geneva', 'Lucid', 'Arial', 'Helvetica', 'Avant Garde', sans-serif; fill: #0b0b0b" transform="translate(103.009654 288.342905) rotate(-25)">plan_then_execute</text>
     </g>
    </g>
    <g id="xtick_3">
     <g id="line2d_5">
      <path d="M 241.118703 239.396283 
L 241.118703 27.24 
" clip-path="url(#p9b7b1b1c2a)" style="fill: none; stroke: #b0b0b0; stroke-opacity: 0.3; stroke-width: 0.8; stroke-linecap: square"/>
     </g>
     <g id="line2d_6">
      <g>
       <use xlink:href="#mfaadffe8dd" x="241.118703" y="239.396283" style="stroke: #000000; stroke-width: 0.8"/>
      </g>
     </g>
     <g id="text_3">
      <text style="font-size: 9px; font-family: 'DejaVu Sans', 'Bitstream Vera Sans', 'Computer Modern Sans Serif', 'Lucida Grande', 'Verdana', 'Geneva', 'Lucid', 'Arial', 'Helvetica', 'Avant Garde', sans-serif; fill: #0b0b0b" transform="translate(162.068566 289.037649) rotate(-25)">write_then_critique</text>
     </g>
    </g>
    <g id="xtick_4">
     <g id="line2d_7">
      <path d="M 301.6675 239.396283 
L 301.6675 27.24 
" clip-path="url(#p9b7b1b1c2a)" style="fill: none; stroke: #b0b0b0; stroke-opacity: 0.3; stroke-width: 0.8; stroke-linecap: square"/>
     </g>
     <g id="line2d_8">
      <g>
       <use xlink:href="#mfaadffe8dd" x="301.6675" y="239.396283" style="stroke: #000000; stroke-width: 0.8"/>
      </g>
     </g>
     <g id="text_4">
      <text style="font-size: 9px; font-family: 'DejaVu Sans', 'Bitstream Vera Sans', 'Computer Modern Sans Serif', 'Lucida Grande', 'Verdana', 'Geneva', 'Lucid', 'Arial', 'Helvetica', 'Avant Garde', sans-serif; fill: #0b0b0b" transform="translate(223.56049 288.597862) rotate(-25)">plan_write_critique</text>
     </g>
    </g>
    <g id="xtick_5">
     <g id="line2d_9">
      <path d="M 362.216297 239.396283 
L 362.216297 27.24 
" clip-path="url(#p9b7b1b1c2a)" style="fill: none; stroke: #b0b0b0; stroke-opacity: 0.3; stroke-width: 0.8; stroke-linecap: square"/>
     </g>
     <g id="line2d_10">
      <g>
       <use xlink:href="#mfaadffe8dd" x="362.216297" y="239.396283" style="stroke: #000000; stroke-width: 0.8"/>
      </g>
     </g>
     <g id="text_5">
      <text style="font-size: 9px; font-family: 'DejaVu Sans', 'Bitstream Vera Sans', 'Computer Modern Sans Serif', 'Lucida Grande', 'Verdana', 'Geneva', 'Lucid', 'Arial', 'Helvetica', 'Avant Garde', sans-serif; fill: #0b0b0b" transform="translate(276.76437 292.022853) rotate(-25)">structured_per_table</text>
     </g>
    </g>
    <g id="xtick_6">
     <g id="line2d_11">
      <path d="M 422.765094 239.396283 
L 422.765094 27.24 
" clip-path="url(#p9b7b1b1c2a)" style="fill: none; stroke: #b0b0b0; stroke-opacity: 0.3; stroke-width: 0.8; stroke-linecap: square"/>
     </g>
     <g id="line2d_12">
      <g>
       <use xlink:href="#mfaadffe8dd" x="422.765094" y="239.396283" style="stroke: #000000; stroke-width: 0.8"/>
      </g>
     </g>
     <g id="text_6">
      <text style="font-size: 9px; font-family: 'DejaVu Sans', 'Bitstream Vera Sans', 'Computer Modern Sans Serif', 'Lucida Grande', 'Verdana', 'Geneva', 'Lucid', 'Arial', 'Helvetica', 'Avant Garde', sans-serif; fill: #0b0b0b" transform="translate(338.413056 291.509966) rotate(-25)">write_tools_freeform</text>
     </g>
    </g>
    <g id="xtick_7">
     <g id="line2d_13">
      <path d="M 483.31389 239.396283 
L 483.31389 27.24 
" clip-path="url(#p9b7b1b1c2a)" style="fill: none; stroke: #b0b0b0; stroke-opacity: 0.3; stroke-width: 0.8; stroke-linecap: square"/>
     </g>
     <g id="line2d_14">
      <g>
       <use xlink:href="#mfaadffe8dd" x="483.31389" y="239.396283" style="stroke: #000000; stroke-width: 0.8"/>
      </g>
     </g>
     <g id="text_7">
      <text style="font-size: 9px; font-family: 'DejaVu Sans', 'Bitstream Vera Sans', 'Computer Modern Sans Serif', 'Lucida Grande', 'Verdana', 'Geneva', 'Lucid', 'Arial', 'Helvetica', 'Avant Garde', sans-serif; fill: #0b0b0b" transform="translate(359.173383 310.063634) rotate(-25)">write_tools_freeform_inlinedbt</text>
     </g>
    </g>
   </g>
   <g id="matplotlib.axis_2">
    <g id="ytick_1">
     <g id="line2d_15">
      <path d="M 75.215 239.396283 
L 528.12 239.396283 
" clip-path="url(#p9b7b1b1c2a)" style="fill: none; stroke: #b0b0b0; stroke-opacity: 0.3; stroke-width: 0.8; stroke-linecap: square"/>
     </g>
     <g id="line2d_16">
      <defs>
       <path id="m8b97f7dc41" d="M 0 0 
L -3.5 0 
" style="stroke: #000000; stroke-width: 0.8"/>
      </defs>
      <g>
       <use xlink:href="#m8b97f7dc41" x="75.215" y="239.396283" style="stroke: #000000; stroke-width: 0.8"/>
      </g>
     </g>
     <g id="text_8">
      <text style="font-size: 11px; font-family: 'DejaVu Sans', 'Bitstream Vera Sans', 'Computer Modern Sans Serif', 'Lucida Grande', 'Verdana', 'Geneva', 'Lucid', 'Arial', 'Helvetica', 'Avant Garde', sans-serif; text-anchor: end" x="68.215" y="243.575424" transform="rotate(-0 68.215 243.575424)">0</text>
     </g>
    </g>
    <g id="ytick_2">
     <g id="line2d_17">
      <path d="M 75.215 212.705495 
L 528.12 212.705495 
" clip-path="url(#p9b7b1b1c2a)" style="fill: none; stroke: #b0b0b0; stroke-opacity: 0.3; stroke-width: 0.8; stroke-linecap: square"/>
     </g>
     <g id="line2d_18">
      <g>
       <use xlink:href="#m8b97f7dc41" x="75.215" y="212.705495" style="stroke: #000000; stroke-width: 0.8"/>
      </g>
     </g>
     <g id="text_9">
      <text style="font-size: 11px; font-family: 'DejaVu Sans', 'Bitstream Vera Sans', 'Computer Modern Sans Serif', 'Lucida Grande', 'Verdana', 'Geneva', 'Lucid', 'Arial', 'Helvetica', 'Avant Garde', sans-serif; text-anchor: end" x="68.215" y="216.884636" transform="rotate(-0 68.215 216.884636)">100000</text>
     </g>
    </g>
    <g id="ytick_3">
     <g id="line2d_19">
      <path d="M 75.215 186.014707 
L 528.12 186.014707 
" clip-path="url(#p9b7b1b1c2a)" style="fill: none; stroke: #b0b0b0; stroke-opacity: 0.3; stroke-width: 0.8; stroke-linecap: square"/>
     </g>
     <g id="line2d_20">
      <g>
       <use xlink:href="#m8b97f7dc41" x="75.215" y="186.014707" style="stroke: #000000; stroke-width: 0.8"/>
      </g>
     </g>
     <g id="text_10">
      <text style="font-size: 11px; font-family: 'DejaVu Sans', 'Bitstream Vera Sans', 'Computer Modern Sans Serif', 'Lucida Grande', 'Verdana', 'Geneva', 'Lucid', 'Arial', 'Helvetica', 'Avant Garde', sans-serif; text-anchor: end" x="68.215" y="190.193848" transform="rotate(-0 68.215 190.193848)">200000</text>
     </g>
    </g>
    <g id="ytick_4">
     <g id="line2d_21">
      <path d="M 75.215 159.323919 
L 528.12 159.323919 
" clip-path="url(#p9b7b1b1c2a)" style="fill: none; stroke: #b0b0b0; stroke-opacity: 0.3; stroke-width: 0.8; stroke-linecap: square"/>
     </g>
     <g id="line2d_22">
      <g>
       <use xlink:href="#m8b97f7dc41" x="75.215" y="159.323919" style="stroke: #000000; stroke-width: 0.8"/>
      </g>
     </g>
     <g id="text_11">
      <text style="font-size: 11px; font-family: 'DejaVu Sans', 'Bitstream Vera Sans', 'Computer Modern Sans Serif', 'Lucida Grande', 'Verdana', 'Geneva', 'Lucid', 'Arial', 'Helvetica', 'Avant Garde', sans-serif; text-anchor: end" x="68.215" y="163.50306" transform="rotate(-0 68.215 163.50306)">300000</text>
     </g>
    </g>
    <g id="ytick_5">
     <g id="line2d_23">
      <path d="M 75.215 132.633131 
L 528.12 132.633131 
" clip-path="url(#p9b7b1b1c2a)" style="fill: none; stroke: #b0b0b0; stroke-opacity: 0.3; stroke-width: 0.8; stroke-linecap: square"/>
     </g>
     <g id="line2d_24">
      <g>
       <use xlink:href="#m8b97f7dc41" x="75.215" y="132.633131" style="stroke: #000000; stroke-width: 0.8"/>
      </g>
     </g>
     <g id="text_12">
      <text style="font-size: 11px; font-family: 'DejaVu Sans', 'Bitstream Vera Sans', 'Computer Modern Sans Serif', 'Lucida Grande', 'Verdana', 'Geneva', 'Lucid', 'Arial', 'Helvetica', 'Avant Garde', sans-serif; text-anchor: end" x="68.215" y="136.812272" transform="rotate(-0 68.215 136.812272)">400000</text>
     </g>
    </g>
    <g id="ytick_6">
     <g id="line2d_25">
      <path d="M 75.215 105.942343 
L 528.12 105.942343 
" clip-path="url(#p9b7b1b1c2a)" style="fill: none; stroke: #b0b0b0; stroke-opacity: 0.3; stroke-width: 0.8; stroke-linecap: square"/>
     </g>
     <g id="line2d_26">
      <g>
       <use xlink:href="#m8b97f7dc41" x="75.215" y="105.942343" style="stroke: #000000; stroke-width: 0.8"/>
      </g>
     </g>
     <g id="text_13">
      <text style="font-size: 11px; font-family: 'DejaVu Sans', 'Bitstream Vera Sans', 'Computer Modern Sans Serif', 'Lucida Grande', 'Verdana', 'Geneva', 'Lucid', 'Arial', 'Helvetica', 'Avant Garde', sans-serif; text-anchor: end" x="68.215" y="110.121483" transform="rotate(-0 68.215 110.121483)">500000</text>
     </g>
    </g>
    <g id="ytick_7">
     <g id="line2d_27">
      <path d="M 75.215 79.251555 
L 528.12 79.251555 
" clip-path="url(#p9b7b1b1c2a)" style="fill: none; stroke: #b0b0b0; stroke-opacity: 0.3; stroke-width: 0.8; stroke-linecap: square"/>
     </g>
     <g id="line2d_28">
      <g>
       <use xlink:href="#m8b97f7dc41" x="75.215" y="79.251555" style="stroke: #000000; stroke-width: 0.8"/>
      </g>
     </g>
     <g id="text_14">
      <text style="font-size: 11px; font-family: 'DejaVu Sans', 'Bitstream Vera Sans', 'Computer Modern Sans Serif', 'Lucida Grande', 'Verdana', 'Geneva', 'Lucid', 'Arial', 'Helvetica', 'Avant Garde', sans-serif; text-anchor: end" x="68.215" y="83.430695" transform="rotate(-0 68.215 83.430695)">600000</text>
     </g>
    </g>
    <g id="ytick_8">
     <g id="line2d_29">
      <path d="M 75.215 52.560767 
L 528.12 52.560767 
" clip-path="url(#p9b7b1b1c2a)" style="fill: none; stroke: #b0b0b0; stroke-opacity: 0.3; stroke-width: 0.8; stroke-linecap: square"/>
     </g>
     <g id="line2d_30">
      <g>
       <use xlink:href="#m8b97f7dc41" x="75.215" y="52.560767" style="stroke: #000000; stroke-width: 0.8"/>
      </g>
     </g>
     <g id="text_15">
      <text style="font-size: 11px; font-family: 'DejaVu Sans', 'Bitstream Vera Sans', 'Computer Modern Sans Serif', 'Lucida Grande', 'Verdana', 'Geneva', 'Lucid', 'Arial', 'Helvetica', 'Avant Garde', sans-serif; text-anchor: end" x="68.215" y="56.739907" transform="rotate(-0 68.215 56.739907)">700000</text>
     </g>
    </g>
    <g id="text_16">
     <text style="font-size: 11px; font-family: 'DejaVu Sans', 'Bitstream Vera Sans', 'Computer Modern Sans Serif', 'Lucida Grande', 'Verdana', 'Geneva', 'Lucid', 'Arial', 'Helvetica', 'Avant Garde', sans-serif; text-anchor: middle; fill: #0b0b0b" x="19.934844" y="133.318142" transform="rotate(-90 19.934844 133.318142)">Tokens/run (in+out)</text>
    </g>
   </g>
   <g id="patch_3">
    <path d="M 75.215 239.396283 
L 75.215 27.24 
" style="fill: none; stroke: #000000; stroke-width: 0.8; stroke-linejoin: miter; stroke-linecap: square"/>
   </g>
   <g id="patch_4">
    <path d="M 75.215 239.396283 
L 528.12 239.396283 
" style="fill: none; stroke: #000000; stroke-width: 0.8; stroke-linejoin: miter; stroke-linecap: square"/>
   </g>
   <g id="patch_5">
    <path d="M 95.801591 239.396283 
L 120.02111 239.396283 
L 120.02111 207.179435 
L 95.801591 207.179435 
z
" clip-path="url(#p9b7b1b1c2a)" style="fill: #c40d1e; stroke: #0b0b0b; stroke-width: 0.6; stroke-linejoin: miter"/>
   </g>
   <g id="patch_6">
    <path d="M 156.350388 239.396283 
L 180.569906 239.396283 
L 180.569906 228.358175 
L 156.350388 228.358175 
z
" clip-path="url(#p9b7b1b1c2a)" style="fill: #ff6c00; stroke: #0b0b0b; stroke-width: 0.6; stroke-linejoin: miter"/>
   </g>
   <g id="patch_7">
    <path d="M 216.899184 239.396283 
L 241.118703 239.396283 
L 241.118703 208.907129 
L 216.899184 208.907129 
z
" clip-path="url(#p9b7b1b1c2a)" style="fill: #e8a800; stroke: #0b0b0b; stroke-width: 0.6; stroke-linejoin: miter"/>
   </g>
   <g id="patch_8">
    <path d="M 277.447981 239.396283 
L 301.6675 239.396283 
L 301.6675 212.561365 
L 277.447981 212.561365 
z
" clip-path="url(#p9b7b1b1c2a)" style="fill: #4f9d2e; stroke: #0b0b0b; stroke-width: 0.6; stroke-linejoin: miter"/>
   </g>
   <g id="patch_9">
    <path d="M 337.996778 239.396283 
L 362.216297 239.396283 
L 362.216297 232.454143 
L 337.996778 232.454143 
z
" clip-path="url(#p9b7b1b1c2a)" style="fill: #b5297a; stroke: #0b0b0b; stroke-width: 0.6; stroke-linejoin: miter"/>
   </g>
   <g id="patch_10">
    <path d="M 398.545575 239.396283 
L 422.765094 239.396283 
L 422.765094 223.969809 
L 398.545575 223.969809 
z
" clip-path="url(#p9b7b1b1c2a)" style="fill: #2f6fb0; stroke: #0b0b0b; stroke-width: 0.6; stroke-linejoin: miter"/>
   </g>
   <g id="patch_11">
    <path d="M 459.094372 239.396283 
L 483.31389 239.396283 
L 483.31389 210.492162 
L 459.094372 210.492162 
z
" clip-path="url(#p9b7b1b1c2a)" style="fill: #7fb0dd; stroke: #0b0b0b; stroke-width: 0.6; stroke-linejoin: miter"/>
   </g>
   <g id="patch_12">
    <path d="M 120.02111 239.396283 
L 144.240628 239.396283 
L 144.240628 175.416863 
L 120.02111 175.416863 
z
" clip-path="url(#p9b7b1b1c2a)" style="fill: url(#h11a96aaa0c); stroke: #0b0b0b; stroke-width: 0.6; stroke-linejoin: miter"/>
   </g>
   <g id="patch_13">
    <path d="M 180.569906 239.396283 
L 204.789425 239.396283 
L 204.789425 227.255978 
L 180.569906 227.255978 
z
" clip-path="url(#p9b7b1b1c2a)" style="fill: url(#ha8b2f19a7d); stroke: #0b0b0b; stroke-width: 0.6; stroke-linejoin: miter"/>
   </g>
   <g id="patch_14">
    <path d="M 241.118703 239.396283 
L 265.338222 239.396283 
L 265.338222 191.936993 
L 241.118703 191.936993 
z
" clip-path="url(#p9b7b1b1c2a)" style="fill: url(#h76f86c35a9); stroke: #0b0b0b; stroke-width: 0.6; stroke-linejoin: miter"/>
   </g>
   <g id="patch_15">
    <path d="M 301.6675 239.396283 
L 325.887019 239.396283 
L 325.887019 130.101243 
L 301.6675 130.101243 
z
" clip-path="url(#p9b7b1b1c2a)" style="fill: url(#h221fd787f4); stroke: #0b0b0b; stroke-width: 0.6; stroke-linejoin: miter"/>
   </g>
   <g id="patch_16">
    <path d="M 362.216297 239.396283 
L 386.435816 239.396283 
L 386.435816 222.136151 
L 362.216297 222.136151 
z
" clip-path="url(#p9b7b1b1c2a)" style="fill: url(#hc8286a66ed); stroke: #0b0b0b; stroke-width: 0.6; stroke-linejoin: miter"/>
   </g>
   <g id="patch_17">
    <path d="M 422.765094 239.396283 
L 446.984612 239.396283 
L 446.984612 215.368302 
L 422.765094 215.368302 
z
" clip-path="url(#p9b7b1b1c2a)" style="fill: url(#h0a2399e4f5); stroke: #0b0b0b; stroke-width: 0.6; stroke-linejoin: miter"/>
   </g>
   <g id="patch_18">
    <path d="M 483.31389 239.396283 
L 507.533409 239.396283 
L 507.533409 204.21956 
L 483.31389 204.21956 
z
" clip-path="url(#p9b7b1b1c2a)" style="fill: url(#hb215989ab7); stroke: #0b0b0b; stroke-width: 0.6; stroke-linejoin: miter"/>
   </g>
   <g id="text_17">
    <text style="font-size: 12px; font-family: 'DejaVu Sans', 'Bitstream Vera Sans', 'Computer Modern Sans Serif', 'Lucida Grande', 'Verdana', 'Geneva', 'Lucid', 'Arial', 'Helvetica', 'Avant Garde', sans-serif; text-anchor: start; fill: #0b0b0b" x="75.215" y="21.24" transform="rotate(-0 75.215 21.24)">Tokens/run (in+out) by strategy — context mode</text>
   </g>
   <g id="LineCollection_1">
    <path d="M 107.91135 209.668617 
L 107.91135 205.444934 
" clip-path="url(#p9b7b1b1c2a)" style="fill: none; stroke: #52514e"/>
    <path d="M 168.460147 229.761376 
L 168.460147 219.995684 
" clip-path="url(#p9b7b1b1c2a)" style="fill: none; stroke: #52514e"/>
    <path d="M 229.008944 215.016851 
L 229.008944 206.339809 
" clip-path="url(#p9b7b1b1c2a)" style="fill: none; stroke: #52514e"/>
    <path d="M 289.557741 219.527661 
L 289.557741 202.371156 
" clip-path="url(#p9b7b1b1c2a)" style="fill: none; stroke: #52514e"/>
    <path d="M 350.106537 232.931307 
L 350.106537 217.895853 
" clip-path="url(#p9b7b1b1c2a)" style="fill: none; stroke: #52514e"/>
    <path d="M 410.655334 226.221377 
L 410.655334 217.101602 
" clip-path="url(#p9b7b1b1c2a)" style="fill: none; stroke: #52514e"/>
    <path d="M 471.204131 223.533347 
L 471.204131 181.010918 
" clip-path="url(#p9b7b1b1c2a)" style="fill: none; stroke: #52514e"/>
   </g>
   <g id="line2d_31">
    <defs>
     <path id="m3495add18a" d="M 3 0 
L -3 -0 
" style="stroke: #52514e"/>
    </defs>
    <g clip-path="url(#p9b7b1b1c2a)">
     <use xlink:href="#m3495add18a" x="107.91135" y="209.668617" style="fill: #1f77b4; stroke: #52514e"/>
     <use xlink:href="#m3495add18a" x="168.460147" y="229.761376" style="fill: #1f77b4; stroke: #52514e"/>
     <use xlink:href="#m3495add18a" x="229.008944" y="215.016851" style="fill: #1f77b4; stroke: #52514e"/>
     <use xlink:href="#m3495add18a" x="289.557741" y="219.527661" style="fill: #1f77b4; stroke: #52514e"/>
     <use xlink:href="#m3495add18a" x="350.106537" y="232.931307" style="fill: #1f77b4; stroke: #52514e"/>
     <use xlink:href="#m3495add18a" x="410.655334" y="226.221377" style="fill: #1f77b4; stroke: #52514e"/>
     <use xlink:href="#m3495add18a" x="471.204131" y="223.533347" style="fill: #1f77b4; stroke: #52514e"/>
    </g>
   </g>
   <g id="line2d_32">
    <g clip-path="url(#p9b7b1b1c2a)">
     <use xlink:href="#m3495add18a" x="107.91135" y="205.444934" style="fill: #1f77b4; stroke: #52514e"/>
     <use xlink:href="#m3495add18a" x="168.460147" y="219.995684" style="fill: #1f77b4; stroke: #52514e"/>
     <use xlink:href="#m3495add18a" x="229.008944" y="206.339809" style="fill: #1f77b4; stroke: #52514e"/>
     <use xlink:href="#m3495add18a" x="289.557741" y="202.371156" style="fill: #1f77b4; stroke: #52514e"/>
     <use xlink:href="#m3495add18a" x="350.106537" y="217.895853" style="fill: #1f77b4; stroke: #52514e"/>
     <use xlink:href="#m3495add18a" x="410.655334" y="217.101602" style="fill: #1f77b4; stroke: #52514e"/>
     <use xlink:href="#m3495add18a" x="471.204131" y="181.010918" style="fill: #1f77b4; stroke: #52514e"/>
    </g>
   </g>
   <g id="LineCollection_2">
    <path d="M 132.130869 184.385034 
L 132.130869 167.184423 
" clip-path="url(#p9b7b1b1c2a)" style="fill: none; stroke: #52514e"/>
    <path d="M 192.679666 230.084601 
L 192.679666 219.76621 
" clip-path="url(#p9b7b1b1c2a)" style="fill: none; stroke: #52514e"/>
    <path d="M 253.228463 197.06456 
L 253.228463 179.181398 
" clip-path="url(#p9b7b1b1c2a)" style="fill: none; stroke: #52514e"/>
    <path d="M 313.777259 195.583822 
L 313.777259 37.34268 
" clip-path="url(#p9b7b1b1c2a)" style="fill: none; stroke: #52514e"/>
    <path d="M 374.326056 225.241758 
L 374.326056 208.027534 
" clip-path="url(#p9b7b1b1c2a)" style="fill: none; stroke: #52514e"/>
    <path d="M 434.874853 223.849767 
L 434.874853 201.537135 
" clip-path="url(#p9b7b1b1c2a)" style="fill: none; stroke: #52514e"/>
    <path d="M 495.42365 220.575074 
L 495.42365 168.348208 
" clip-path="url(#p9b7b1b1c2a)" style="fill: none; stroke: #52514e"/>
   </g>
   <g id="line2d_33">
    <g clip-path="url(#p9b7b1b1c2a)">
     <use xlink:href="#m3495add18a" x="132.130869" y="184.385034" style="fill: #1f77b4; stroke: #52514e"/>
     <use xlink:href="#m3495add18a" x="192.679666" y="230.084601" style="fill: #1f77b4; stroke: #52514e"/>
     <use xlink:href="#m3495add18a" x="253.228463" y="197.06456" style="fill: #1f77b4; stroke: #52514e"/>
     <use xlink:href="#m3495add18a" x="313.777259" y="195.583822" style="fill: #1f77b4; stroke: #52514e"/>
     <use xlink:href="#m3495add18a" x="374.326056" y="225.241758" style="fill: #1f77b4; stroke: #52514e"/>
     <use xlink:href="#m3495add18a" x="434.874853" y="223.849767" style="fill: #1f77b4; stroke: #52514e"/>
     <use xlink:href="#m3495add18a" x="495.42365" y="220.575074" style="fill: #1f77b4; stroke: #52514e"/>
    </g>
   </g>
   <g id="line2d_34">
    <g clip-path="url(#p9b7b1b1c2a)">
     <use xlink:href="#m3495add18a" x="132.130869" y="167.184423" style="fill: #1f77b4; stroke: #52514e"/>
     <use xlink:href="#m3495add18a" x="192.679666" y="219.76621" style="fill: #1f77b4; stroke: #52514e"/>
     <use xlink:href="#m3495add18a" x="253.228463" y="179.181398" style="fill: #1f77b4; stroke: #52514e"/>
     <use xlink:href="#m3495add18a" x="313.777259" y="37.34268" style="fill: #1f77b4; stroke: #52514e"/>
     <use xlink:href="#m3495add18a" x="374.326056" y="208.027534" style="fill: #1f77b4; stroke: #52514e"/>
     <use xlink:href="#m3495add18a" x="434.874853" y="201.537135" style="fill: #1f77b4; stroke: #52514e"/>
     <use xlink:href="#m3495add18a" x="495.42365" y="168.348208" style="fill: #1f77b4; stroke: #52514e"/>
    </g>
   </g>
   <g id="legend_1">
    <g id="patch_19">
     <path d="M 428.745937 42.178594 
L 446.745937 42.178594 
L 446.745937 35.878594 
L 428.745937 35.878594 
z
" style="fill: #898781; stroke: #0b0b0b; stroke-linejoin: miter"/>
    </g>
    <g id="text_18">
     <text style="font-size: 9px; font-family: 'DejaVu Sans', 'Bitstream Vera Sans', 'Computer Modern Sans Serif', 'Lucida Grande', 'Verdana', 'Geneva', 'Lucid', 'Arial', 'Helvetica', 'Avant Garde', sans-serif; text-anchor: start; fill: #0b0b0b" x="453.945937" y="42.178594" transform="rotate(-0 453.945937 42.178594)">metadata-only</text>
    </g>
    <g id="patch_20">
     <path d="M 428.745937 55.388906 
L 446.745937 55.388906 
L 446.745937 49.088906 
L 428.745937 49.088906 
z
" style="fill: url(#hf8597e3108); stroke: #0b0b0b; stroke-linejoin: miter"/>
    </g>
    <g id="text_19">
     <text style="font-size: 9px; font-family: 'DejaVu Sans', 'Bitstream Vera Sans', 'Computer Modern Sans Serif', 'Lucida Grande', 'Verdana', 'Geneva', 'Lucid', 'Arial', 'Helvetica', 'Avant Garde', sans-serif; text-anchor: start; fill: #0b0b0b" x="453.945937" y="55.388906" transform="rotate(-0 453.945937 55.388906)">live-query</text>
    </g>
   </g>
  </g>
 </g>
 <defs>
  <clipPath id="p9b7b1b1c2a">
   <rect x="75.215" y="27.24" width="452.905" height="212.156283"/>
  </clipPath>
 </defs>
 <defs>
  <pattern id="h11a96aaa0c" patternUnits="userSpaceOnUse" x="0" y="0" width="72" height="72">
   <rect x="0" y="0" width="73" height="73" fill="#c40d1e"/>
   <path d="M -36 36 
L 36 -36 
M -32 40 
L 40 -32 
M -28 44 
L 44 -28 
M -24 48 
L 48 -24 
M -20 52 
L 52 -20 
M -16 56 
L 56 -16 
M -12 60 
L 60 -12 
M -8 64 
L 64 -8 
M -4 68 
L 68 -4 
M 0 72 
L 72 0 
M 4 76 
L 76 4 
M 8 80 
L 80 8 
M 12 84 
L 84 12 
M 16 88 
L 88 16 
M 20 92 
L 92 20 
M 24 96 
L 96 24 
M 28 100 
L 100 28 
M 32 104 
L 104 32 
M 36 108 
L 108 36 
" style="fill: #0b0b0b; stroke: #0b0b0b; stroke-width: 1.0; stroke-linecap: butt; stroke-linejoin: miter"/>
  </pattern>
  <pattern id="ha8b2f19a7d" patternUnits="userSpaceOnUse" x="0" y="0" width="72" height="72">
   <rect x="0" y="0" width="73" height="73" fill="#ff6c00"/>
   <path d="M -36 36 
L 36 -36 
M -32 40 
L 40 -32 
M -28 44 
L 44 -28 
M -24 48 
L 48 -24 
M -20 52 
L 52 -20 
M -16 56 
L 56 -16 
M -12 60 
L 60 -12 
M -8 64 
L 64 -8 
M -4 68 
L 68 -4 
M 0 72 
L 72 0 
M 4 76 
L 76 4 
M 8 80 
L 80 8 
M 12 84 
L 84 12 
M 16 88 
L 88 16 
M 20 92 
L 92 20 
M 24 96 
L 96 24 
M 28 100 
L 100 28 
M 32 104 
L 104 32 
M 36 108 
L 108 36 
" style="fill: #0b0b0b; stroke: #0b0b0b; stroke-width: 1.0; stroke-linecap: butt; stroke-linejoin: miter"/>
  </pattern>
  <pattern id="h76f86c35a9" patternUnits="userSpaceOnUse" x="0" y="0" width="72" height="72">
   <rect x="0" y="0" width="73" height="73" fill="#e8a800"/>
   <path d="M -36 36 
L 36 -36 
M -32 40 
L 40 -32 
M -28 44 
L 44 -28 
M -24 48 
L 48 -24 
M -20 52 
L 52 -20 
M -16 56 
L 56 -16 
M -12 60 
L 60 -12 
M -8 64 
L 64 -8 
M -4 68 
L 68 -4 
M 0 72 
L 72 0 
M 4 76 
L 76 4 
M 8 80 
L 80 8 
M 12 84 
L 84 12 
M 16 88 
L 88 16 
M 20 92 
L 92 20 
M 24 96 
L 96 24 
M 28 100 
L 100 28 
M 32 104 
L 104 32 
M 36 108 
L 108 36 
" style="fill: #0b0b0b; stroke: #0b0b0b; stroke-width: 1.0; stroke-linecap: butt; stroke-linejoin: miter"/>
  </pattern>
  <pattern id="h221fd787f4" patternUnits="userSpaceOnUse" x="0" y="0" width="72" height="72">
   <rect x="0" y="0" width="73" height="73" fill="#4f9d2e"/>
   <path d="M -36 36 
L 36 -36 
M -32 40 
L 40 -32 
M -28 44 
L 44 -28 
M -24 48 
L 48 -24 
M -20 52 
L 52 -20 
M -16 56 
L 56 -16 
M -12 60 
L 60 -12 
M -8 64 
L 64 -8 
M -4 68 
L 68 -4 
M 0 72 
L 72 0 
M 4 76 
L 76 4 
M 8 80 
L 80 8 
M 12 84 
L 84 12 
M 16 88 
L 88 16 
M 20 92 
L 92 20 
M 24 96 
L 96 24 
M 28 100 
L 100 28 
M 32 104 
L 104 32 
M 36 108 
L 108 36 
" style="fill: #0b0b0b; stroke: #0b0b0b; stroke-width: 1.0; stroke-linecap: butt; stroke-linejoin: miter"/>
  </pattern>
  <pattern id="hc8286a66ed" patternUnits="userSpaceOnUse" x="0" y="0" width="72" height="72">
   <rect x="0" y="0" width="73" height="73" fill="#b5297a"/>
   <path d="M -36 36 
L 36 -36 
M -32 40 
L 40 -32 
M -28 44 
L 44 -28 
M -24 48 
L 48 -24 
M -20 52 
L 52 -20 
M -16 56 
L 56 -16 
M -12 60 
L 60 -12 
M -8 64 
L 64 -8 
M -4 68 
L 68 -4 
M 0 72 
L 72 0 
M 4 76 
L 76 4 
M 8 80 
L 80 8 
M 12 84 
L 84 12 
M 16 88 
L 88 16 
M 20 92 
L 92 20 
M 24 96 
L 96 24 
M 28 100 
L 100 28 
M 32 104 
L 104 32 
M 36 108 
L 108 36 
" style="fill: #0b0b0b; stroke: #0b0b0b; stroke-width: 1.0; stroke-linecap: butt; stroke-linejoin: miter"/>
  </pattern>
  <pattern id="h0a2399e4f5" patternUnits="userSpaceOnUse" x="0" y="0" width="72" height="72">
   <rect x="0" y="0" width="73" height="73" fill="#2f6fb0"/>
   <path d="M -36 36 
L 36 -36 
M -32 40 
L 40 -32 
M -28 44 
L 44 -28 
M -24 48 
L 48 -24 
M -20 52 
L 52 -20 
M -16 56 
L 56 -16 
M -12 60 
L 60 -12 
M -8 64 
L 64 -8 
M -4 68 
L 68 -4 
M 0 72 
L 72 0 
M 4 76 
L 76 4 
M 8 80 
L 80 8 
M 12 84 
L 84 12 
M 16 88 
L 88 16 
M 20 92 
L 92 20 
M 24 96 
L 96 24 
M 28 100 
L 100 28 
M 32 104 
L 104 32 
M 36 108 
L 108 36 
" style="fill: #0b0b0b; stroke: #0b0b0b; stroke-width: 1.0; stroke-linecap: butt; stroke-linejoin: miter"/>
  </pattern>
  <pattern id="hb215989ab7" patternUnits="userSpaceOnUse" x="0" y="0" width="72" height="72">
   <rect x="0" y="0" width="73" height="73" fill="#7fb0dd"/>
   <path d="M -36 36 
L 36 -36 
M -32 40 
L 40 -32 
M -28 44 
L 44 -28 
M -24 48 
L 48 -24 
M -20 52 
L 52 -20 
M -16 56 
L 56 -16 
M -12 60 
L 60 -12 
M -8 64 
L 64 -8 
M -4 68 
L 68 -4 
M 0 72 
L 72 0 
M 4 76 
L 76 4 
M 8 80 
L 80 8 
M 12 84 
L 84 12 
M 16 88 
L 88 16 
M 20 92 
L 92 20 
M 24 96 
L 96 24 
M 28 100 
L 100 28 
M 32 104 
L 104 32 
M 36 108 
L 108 36 
" style="fill: #0b0b0b; stroke: #0b0b0b; stroke-width: 1.0; stroke-linecap: butt; stroke-linejoin: miter"/>
  </pattern>
  <pattern id="hf8597e3108" patternUnits="userSpaceOnUse" x="0" y="0" width="72" height="72">
   <rect x="0" y="0" width="73" height="73" fill="#898781"/>
   <path d="M -36 36 
L 36 -36 
M -32 40 
L 40 -32 
M -28 44 
L 44 -28 
M -24 48 
L 48 -24 
M -20 52 
L 52 -20 
M -16 56 
L 56 -16 
M -12 60 
L 60 -12 
M -8 64 
L 64 -8 
M -4 68 
L 68 -4 
M 0 72 
L 72 0 
M 4 76 
L 76 4 
M 8 80 
L 80 8 
M 12 84 
L 84 12 
M 16 88 
L 88 16 
M 20 92 
L 92 20 
M 24 96 
L 96 24 
M 28 100 
L 100 28 
M 32 104 
L 104 32 
M 36 108 
L 108 36 
" style="fill: #0b0b0b; stroke: #0b0b0b; stroke-width: 1.0; stroke-linecap: butt; stroke-linejoin: miter"/>
  </pattern>
 </defs>
</svg>
