<?xml version="1.0" encoding="utf-8" standalone="no"?>
<!DOCTYPE svg PUBLIC "-//W3C//DTD SVG 1.1//EN"
  "http://www.w3.org/Graphics/SVG/1.1/DTD/svg11.dtd">
<svg xmlns:xlink="http://www.w3.org/1999/xlink" width="540pt" height="324pt" viewBox="0 0 540 324" xmlns="http://www.w3.org/2000/svg" version="1.1">
 <metadata>
  <rdf:RDF xmlns:dc="http://purl.org/dc/elements/1.1/" xmlns:cc="http://creativecommons.org/ns#" xmlns:rdf="http://www.w3.org/1999/02/22-rdf-syntax-ns#">
   <cc:Work>
    <dc:type rdf:resource="http://purl.org/dc/dcmitype/StillImage"/>
    <dc:format>image/svg+xml</dc:format>
    <dc:creator>
     <cc:Agent>
      <dc:title>Matplotlib v3.10.9, https://matplotlib.org/</dc:title>
     </cc:Agent>
    </dc:creator>
   </cc:Work>
  </rdf:RDF>
 </metadata>
 <defs>
  <style type="text/css">*{stroke-linejoin: round; stroke-linecap: butt}</style>
 </defs>
 <g id="figure_1">
  <g id="patch_1">
   <path d="M 0 324 
L 540 324 
L 540 0 
L 0 0 
L 0 324 
z
" style="fill: none"/>
  </g>
  <g id="axes_1">
   <g id="patch_2">
    <path d="M 50.78 239.396283 
L 528.12 239.396283 
L 528.12 27.24 
L 50.78 27.24 
L 50.78 239.396283 
z
" style="fill: none"/>
   </g>
   <g id="matplotlib.axis_1">
    <g id="xtick_1">
     <g id="line2d_1">
      <path d="M 98.003476 239.396283 
L 98.003476 27.24 
" clip-path="url(#p33e7f4a52e)" style="fill: none; stroke: #b0b0b0; stroke-opacity: 0.3; stroke-width: 0.8; stroke-linecap: square"/>
     </g>
     <g id="line2d_2">
      <defs>
       <path id="ma29bfba323" d="M 0 0 
L 0 3.5 
" style="stroke: #000000; stroke-width: 0.8"/>
      </defs>
      <g>
       <use xlink:href="#ma29bfba323" x="98.003476" y="239.396283" style="stroke: #000000; stroke-width: 0.8"/>
      </g>
     </g>
     <g id="text_1">
      <text style="font-size: 9px; font-family: 'DejaVu Sans', 'Bitstream Vera Sans', 'Computer Modern Sans Serif', 'Lucida Grande', 'Verdana', 'Geneva', 'Lucid', 'Arial', 'Helvetica', 'Avant Garde', sans-serif; fill: #0b0b0b" transform="translate(35.127959 281.4953) rotate(-25)">ensemble_vote</text>
     </g>
    </g>
    <g id="xtick_2">
     <g id="line2d_3">
      <path d="M 161.818984 239.396283 
L 161.818984 27.24 
" clip-path="url(#p33e7f4a52e)" style="fill: none; stroke: #b0b0b0; stroke-opacity: 0.3; stroke-width: 0.8; stroke-linecap: square"/>
     </g>
     <g id="line2d_4">
      <g>
       <use xlink:href="#ma29bfba323" x="161.818984" y="239.396283" style="stroke: #000000; stroke-width: 0.8"/>
      </g>
     </g>
     <g id="text_2">
      <text style="font-size: 9px; font-family: 'DejaVu Sans', 'Bitstream Vera Sans', 'Computer Modern Sans Serif', 'Lucida Grande', 'Verdana', 'Geneva', 'Lucid', 'Arial', 'Helvetica', 'Avant Garde', sans-serif; fill: #0b0b0b" transform="translate(84.258732 288.342905) rotate(-25)">plan_then_execute</text>
     </g>
    </g>
    <g id="xtick_3">
     <g id="line2d_5">
      <path d="M 225.634492 239.396283 
L 225.634492 27.24 
" clip-path="url(#p33e7f4a52e)" style="fill: none; stroke: #b0b0b0; stroke-opacity: 0.3; stroke-width: 0.8; stroke-linecap: square"/>
     </g>
     <g id="line2d_6">
      <g>
       <use xlink:href="#ma29bfba323" x="225.634492" y="239.396283" style="stroke: #000000; stroke-width: 0.8"/>
      </g>
     </g>
     <g id="text_3">
      <text style="font-size: 9px; font-family: 'DejaVu Sans', 'Bitstream Vera Sans', 'Computer Modern Sans Serif', 'Lucida Grande', 'Verdana', 'Geneva', 'Lucid', 'Arial', 'Helvetica', 'Avant Garde', sans-serif; fill: #0b0b0b" transform="translate(146.584355 289.037649) rotate(-25)">write_then_critique</text>
     </g>
    </g>
    <g id="xtick_4">
     <g id="line2d_7">
      <path d="M 289.45 239.396283 
L 289.45 27.24 
" clip-path="url(#p33e7f4a52e)" style="fill: none; stroke: #b0b0b0; stroke-opacity: 0.3; stroke-width: 0.8; stroke-linecap: square"/>
     </g>
     <g id="line2d_8">
      <g>
       <use xlink:href="#ma29bfba323" x="289.45" y="239.396283" style="stroke: #000000; stroke-width: 0.8"/>
      </g>
     </g>
     <g id="text_4">
      <text style="font-size: 9px; font-family: 'DejaVu Sans', 'Bitstream Vera Sans', 'Computer Modern Sans Serif', 'Lucida Grande', 'Verdana', 'Geneva', 'Lucid', 'Arial', 'Helvetica', 'Avant Garde', sans-serif; fill: #0b0b0b" transform="translate(211.34299 288.597862) rotate(-25)">plan_write_critique</text>
     </g>
    </g>
    <g id="xtick_5">
     <g id="line2d_9">
      <path d="M 353.265508 239.396283 
L 353.265508 27.24 
" clip-path="url(#p33e7f4a52e)" style="fill: none; stroke: #b0b0b0; stroke-opacity: 0.3; stroke-width: 0.8; stroke-linecap: square"/>
     </g>
     <g id="line2d_10">
      <g>
       <use xlink:href="#ma29bfba323" x="353.265508" y="239.396283" style="stroke: #000000; stroke-width: 0.8"/>
      </g>
     </g>
     <g id="text_5">
      <text style="font-size: 9px; font-family: 'DejaVu Sans', 'Bitstream Vera Sans', 'Computer Modern Sans Serif', 'Lucida Grande', 'Verdana', 'Geneva', 'Lucid', 'Arial', 'Helvetica', 'Avant Garde', sans-serif; fill: #0b0b0b" transform="translate(267.813581 292.022853) rotate(-25)">structured_per_table</text>
     </g>
    </g>
    <g id="xtick_6">
     <g id="line2d_11">
      <path d="M 417.081016 239.396283 
L 417.081016 27.24 
" clip-path="url(#p33e7f4a52e)" style="fill: none; stroke: #b0b0b0; stroke-opacity: 0.3; stroke-width: 0.8; stroke-linecap: square"/>
     </g>
     <g id="line2d_12">
      <g>
       <use xlink:href="#ma29bfba323" x="417.081016" y="239.396283" style="stroke: #000000; stroke-width: 0.8"/>
      </g>
     </g>
     <g id="text_6">
      <text style="font-size: 9px; font-family: 'DejaVu Sans', 'Bitstream Vera Sans', 'Computer Modern Sans Serif', 'Lucida Grande', 'Verdana', 'Geneva', 'Lucid', 'Arial', 'Helvetica', 'Avant Garde', sans-serif; fill: #0b0b0b" transform="translate(332.728978 291.509966) rotate(-25)">write_tools_freeform</text>
     </g>
    </g>
    <g id="xtick_7">
     <g id="line2d_13">
      <path d="M 480.896524 239.396283 
L 480.896524 27.24 
" clip-path="url(#p33e7f4a52e)" style="fill: none; stroke: #b0b0b0; stroke-opacity: 0.3; stroke-width: 0.8; stroke-linecap: square"/>
     </g>
     <g id="line2d_14">
      <g>
       <use xlink:href="#ma29bfba323" x="480.896524" y="239.396283" style="stroke: #000000; stroke-width: 0.8"/>
      </g>
     </g>
     <g id="text_7">
      <text style="font-size: 9px; font-family: 'DejaVu Sans', 'Bitstream Vera Sans', 'Computer Modern Sans Serif', 'Lucida Grande', 'Verdana', 'Geneva', 'Lucid', 'Arial', 'Helvetica', 'Avant Garde', sans-serif; fill: #0b0b0b" transform="translate(356.756017 310.063634) rotate(-25)">write_tools_freeform_inlinedbt</text>
     </g>
    </g>
   </g>
   <g id="matplotlib.axis_2">
    <g id="ytick_1">
     <g id="line2d_15">
      <path d="M 50.78 239.396283 
L 528.12 239.396283 
" clip-path="url(#p33e7f4a52e)" style="fill: none; stroke: #b0b0b0; stroke-opacity: 0.3; stroke-width: 0.8; stroke-linecap: square"/>
     </g>
     <g id="line2d_16">
      <defs>
       <path id="mc2a0a3f7ff" d="M 0 0 
L -3.5 0 
" style="stroke: #000000; stroke-width: 0.8"/>
      </defs>
      <g>
       <use xlink:href="#mc2a0a3f7ff" x="50.78" y="239.396283" style="stroke: #000000; stroke-width: 0.8"/>
      </g>
     </g>
     <g id="text_8">
      <text style="font-size: 11px; font-family: 'DejaVu Sans', 'Bitstream Vera Sans', 'Computer Modern Sans Serif', 'Lucida Grande', 'Verdana', 'Geneva', 'Lucid', 'Arial', 'Helvetica', 'Avant Garde', sans-serif; text-anchor: end" x="43.78" y="243.575424" transform="rotate(-0 43.78 243.575424)">0.0</text>
     </g>
    </g>
    <g id="ytick_2">
     <g id="line2d_17">
      <path d="M 50.78 198.985563 
L 528.12 198.985563 
" clip-path="url(#p33e7f4a52e)" style="fill: none; stroke: #b0b0b0; stroke-opacity: 0.3; stroke-width: 0.8; stroke-linecap: square"/>
     </g>
     <g id="line2d_18">
      <g>
       <use xlink:href="#mc2a0a3f7ff" x="50.78" y="198.985563" style="stroke: #000000; stroke-width: 0.8"/>
      </g>
     </g>
     <g id="text_9">
      <text style="font-size: 11px; font-family: 'DejaVu Sans', 'Bitstream Vera Sans', 'Computer Modern Sans Serif', 'Lucida Grande', 'Verdana', 'Geneva', 'Lucid', 'Arial', 'Helvetica', 'Avant Garde', sans-serif; text-anchor: end" x="43.78" y="203.164703" transform="rotate(-0 43.78 203.164703)">0.2</text>
     </g>
    </g>
    <g id="ytick_3">
     <g id="line2d_19">
      <path d="M 50.78 158.574842 
L 528.12 158.574842 
" clip-path="url(#p33e7f4a52e)" style="fill: none; stroke: #b0b0b0; stroke-opacity: 0.3; stroke-width: 0.8; stroke-linecap: square"/>
     </g>
     <g id="line2d_20">
      <g>
       <use xlink:href="#mc2a0a3f7ff" x="50.78" y="158.574842" style="stroke: #000000; stroke-width: 0.8"/>
      </g>
     </g>
     <g id="text_10">
      <text style="font-size: 11px; font-family: 'DejaVu Sans', 'Bitstream Vera Sans', 'Computer Modern Sans Serif', 'Lucida Grande', 'Verdana', 'Geneva', 'Lucid', 'Arial', 'Helvetica', 'Avant Garde', sans-serif; text-anchor: end" x="43.78" y="162.753983" transform="rotate(-0 43.78 162.753983)">0.4</text>
     </g>
    </g>
    <g id="ytick_4">
     <g id="line2d_21">
      <path d="M 50.78 118.164121 
L 528.12 118.164121 
" clip-path="url(#p33e7f4a52e)" style="fill: none; stroke: #b0b0b0; stroke-opacity: 0.3; stroke-width: 0.8; stroke-linecap: square"/>
     </g>
     <g id="line2d_22">
      <g>
       <use xlink:href="#mc2a0a3f7ff" x="50.78" y="118.164121" style="stroke: #000000; stroke-width: 0.8"/>
      </g>
     </g>
     <g id="text_11">
      <text style="font-size: 11px; font-family: 'DejaVu Sans', 'Bitstream Vera Sans', 'Computer Modern Sans Serif', 'Lucida Grande', 'Verdana', 'Geneva', 'Lucid', 'Arial', 'Helvetica', 'Avant Garde', sans-serif; text-anchor: end" x="43.78" y="122.343262" transform="rotate(-0 43.78 122.343262)">0.6</text>
     </g>
    </g>
    <g id="ytick_5">
     <g id="line2d_23">
      <path d="M 50.78 77.753401 
L 528.12 77.753401 
" clip-path="url(#p33e7f4a52e)" style="fill: none; stroke: #b0b0b0; stroke-opacity: 0.3; stroke-width: 0.8; stroke-linecap: square"/>
     </g>
     <g id="line2d_24">
      <g>
       <use xlink:href="#mc2a0a3f7ff" x="50.78" y="77.753401" style="stroke: #000000; stroke-width: 0.8"/>
      </g>
     </g>
     <g id="text_12">
      <text style="font-size: 11px; font-family: 'DejaVu Sans', 'Bitstream Vera Sans', 'Computer Modern Sans Serif', 'Lucida Grande', 'Verdana', 'Geneva', 'Lucid', 'Arial', 'Helvetica', 'Avant Garde', sans-serif; text-anchor: end" x="43.78" y="81.932541" transform="rotate(-0 43.78 81.932541)">0.8</text>
     </g>
    </g>
    <g id="ytick_6">
     <g id="line2d_25">
      <path d="M 50.78 37.34268 
L 528.12 37.34268 
" clip-path="url(#p33e7f4a52e)" style="fill: none; stroke: #b0b0b0; stroke-opacity: 0.3; stroke-width: 0.8; stroke-linecap: square"/>
     </g>
     <g id="line2d_26">
      <g>
       <use xlink:href="#mc2a0a3f7ff" x="50.78" y="37.34268" style="stroke: #000000; stroke-width: 0.8"/>
      </g>
     </g>
     <g id="text_13">
      <text style="font-size: 11px; font-family: 'DejaVu Sans', 'Bitstream Vera Sans', 'Computer Modern Sans Serif', 'Lucida Grande', 'Verdana', 'Geneva', 'Lucid', 'Arial', 'Helvetica', 'Avant Garde', sans-serif; text-anchor: end" x="43.78" y="41.521821" transform="rotate(-0 43.78 41.521821)">1.0</text>
     </g>
    </g>
    <g id="text_14">
     <text style="font-size: 11px; font-family: 'DejaVu Sans', 'Bitstream Vera Sans', 'Computer Modern Sans Serif', 'Lucida Grande', 'Verdana', 'Geneva', 'Lucid', 'Arial', 'Helvetica', 'Avant Garde', sans-serif; text-anchor: middle; fill: #0b0b0b" x="19.998906" y="133.318142" transform="rotate(-90 19.998906 133.318142)">Recall</text>
    </g>
   </g>
   <g id="patch_3">
    <path d="M 50.78 239.396283 
L 50.78 27.24 
" style="fill: none; stroke: #000000; stroke-width: 0.8; stroke-linejoin: miter; stroke-linecap: square"/>
   </g>
   <g id="patch_4">
    <path d="M 50.78 239.396283 
L 528.12 239.396283 
" style="fill: none; stroke: #000000; stroke-width: 0.8; stroke-linejoin: miter; stroke-linecap: square"/>
   </g>
   <g id="patch_5">
    <path d="M 72.477273 239.396283 
L 98.003476 239.396283 
L 98.003476 37.34268 
L 72.477273 37.34268 
z
" clip-path="url(#p33e7f4a52e)" style="fill: #c40d1e; stroke: #0b0b0b; stroke-width: 0.6; stroke-linejoin: miter"/>
   </g>
   <g id="patch_6">
    <path d="M 136.292781 239.396283 
L 161.818984 239.396283 
L 161.818984 37.34268 
L 136.292781 37.34268 
z
" clip-path="url(#p33e7f4a52e)" style="fill: #ff6c00; stroke: #0b0b0b; stroke-width: 0.6; stroke-linejoin: miter"/>
   </g>
   <g id="patch_7">
    <path d="M 200.108289 239.396283 
L 225.634492 239.396283 
L 225.634492 85.620975 
L 200.108289 85.620975 
z
" clip-path="url(#p33e7f4a52e)" style="fill: #e8a800; stroke: #0b0b0b; stroke-width: 0.6; stroke-linejoin: miter"/>
   </g>
   <g id="patch_8">
    <path d="M 263.923797 239.396283 
L 289.45 239.396283 
L 289.45 37.34268 
L 263.923797 37.34268 
z
" clip-path="url(#p33e7f4a52e)" style="fill: #4f9d2e; stroke: #0b0b0b; stroke-width: 0.6; stroke-linejoin: miter"/>
   </g>
   <g id="patch_9">
    <path d="M 327.739305 239.396283 
L 353.265508 239.396283 
L 353.265508 83.133437 
L 327.739305 83.133437 
z
" clip-path="url(#p33e7f4a52e)" style="fill: #b5297a; stroke: #0b0b0b; stroke-width: 0.6; stroke-linejoin: miter"/>
   </g>
   <g id="patch_10">
    <path d="M 391.554813 239.396283 
L 417.081016 239.396283 
L 417.081016 37.34268 
L 391.554813 37.34268 
z
" clip-path="url(#p33e7f4a52e)" style="fill: #2f6fb0; stroke: #0b0b0b; stroke-width: 0.6; stroke-linejoin: miter"/>
   </g>
   <g id="patch_11">
    <path d="M 455.370321 239.396283 
L 480.896524 239.396283 
L 480.896524 37.34268 
L 455.370321 37.34268 
z
" clip-path="url(#p33e7f4a52e)" style="fill: #7fb0dd; stroke: #0b0b0b; stroke-width: 0.6; stroke-linejoin: miter"/>
   </g>
   <g id="patch_12">
    <path d="M 98.003476 239.396283 
L 123.529679 239.396283 
L 123.529679 37.744999 
L 98.003476 37.744999 
z
" clip-path="url(#p33e7f4a52e)" style="fill: url(#hc9a7f6a26d); stroke: #0b0b0b; stroke-width: 0.6; stroke-linejoin: miter"/>
   </g>
   <g id="patch_13">
    <path d="M 161.818984 239.396283 
L 187.345187 239.396283 
L 187.345187 37.34268 
L 161.818984 37.34268 
z
" clip-path="url(#p33e7f4a52e)" style="fill: url(#he3d2849441); stroke: #0b0b0b; stroke-width: 0.6; stroke-linejoin: miter"/>
   </g>
   <g id="patch_14">
    <path d="M 225.634492 239.396283 
L 251.160695 239.396283 
L 251.160695 37.34268 
L 225.634492 37.34268 
z
" clip-path="url(#p33e7f4a52e)" style="fill: url(#hda05e5e8dd); stroke: #0b0b0b; stroke-width: 0.6; stroke-linejoin: miter"/>
   </g>
   <g id="patch_15">
    <path d="M 289.45 239.396283 
L 314.976203 239.396283 
L 314.976203 84.377206 
L 289.45 84.377206 
z
" clip-path="url(#p33e7f4a52e)" style="fill: url(#h0d2cba1922); stroke: #0b0b0b; stroke-width: 0.6; stroke-linejoin: miter"/>
   </g>
   <g id="patch_16">
    <path d="M 353.265508 239.396283 
L 378.791711 239.396283 
L 378.791711 83.133437 
L 353.265508 83.133437 
z
" clip-path="url(#p33e7f4a52e)" style="fill: url(#h1993c916d5); stroke: #0b0b0b; stroke-width: 0.6; stroke-linejoin: miter"/>
   </g>
   <g id="patch_17">
    <path d="M 417.081016 239.396283 
L 442.607219 239.396283 
L 442.607219 37.34268 
L 417.081016 37.34268 
z
" clip-path="url(#p33e7f4a52e)" style="fill: url(#h02635d6bda); stroke: #0b0b0b; stroke-width: 0.6; stroke-linejoin: miter"/>
   </g>
   <g id="patch_18">
    <path d="M 480.896524 239.396283 
L 506.422727 239.396283 
L 506.422727 37.34268 
L 480.896524 37.34268 
z
" clip-path="url(#p33e7f4a52e)" style="fill: url(#h32070c27fa); stroke: #0b0b0b; stroke-width: 0.6; stroke-linejoin: miter"/>
   </g>
   <g id="text_15">
    <text style="font-size: 12px; font-family: 'DejaVu Sans', 'Bitstream Vera Sans', 'Computer Modern Sans Serif', 'Lucida Grande', 'Verdana', 'Geneva', 'Lucid', 'Arial', 'Helvetica', 'Avant Garde', sans-serif; text-anchor: start; fill: #0b0b0b" x="50.78" y="21.24" transform="rotate(-0 50.78 21.24)">Recall by strategy — context mode</text>
   </g>
   <g id="LineCollection_1">
    <path d="M 85.240374 79.290564 
L 85.240374 37.34268 
" clip-path="url(#p33e7f4a52e)" style="fill: none; stroke: #52514e"/>
    <path d="M 149.055882 85.620975 
L 149.055882 37.34268 
" clip-path="url(#p33e7f4a52e)" style="fill: none; stroke: #52514e"/>
    <path d="M 212.87139 200.129634 
L 212.87139 37.34268 
" clip-path="url(#p33e7f4a52e)" style="fill: none; stroke: #52514e"/>
    <path d="M 276.686898 37.34268 
L 276.686898 37.34268 
" clip-path="url(#p33e7f4a52e)" style="fill: none; stroke: #52514e"/>
    <path d="M 340.502406 199.921828 
L 340.502406 37.34268 
" clip-path="url(#p33e7f4a52e)" style="fill: none; stroke: #52514e"/>
    <path d="M 404.317914 185.485521 
L 404.317914 37.34268 
" clip-path="url(#p33e7f4a52e)" style="fill: none; stroke: #52514e"/>
    <path d="M 468.133422 37.34268 
L 468.133422 37.34268 
" clip-path="url(#p33e7f4a52e)" style="fill: none; stroke: #52514e"/>
   </g>
   <g id="line2d_27">
    <defs>
     <path id="m31a27afe0b" d="M 3 0 
L -3 -0 
" style="stroke: #52514e"/>
    </defs>
    <g clip-path="url(#p33e7f4a52e)">
     <use xlink:href="#m31a27afe0b" x="85.240374" y="79.290564" style="fill: #1f77b4; stroke: #52514e"/>
     <use xlink:href="#m31a27afe0b" x="149.055882" y="85.620975" style="fill: #1f77b4; stroke: #52514e"/>
     <use xlink:href="#m31a27afe0b" x="212.87139" y="200.129634" style="fill: #1f77b4; stroke: #52514e"/>
     <use xlink:href="#m31a27afe0b" x="276.686898" y="37.34268" style="fill: #1f77b4; stroke: #52514e"/>
     <use xlink:href="#m31a27afe0b" x="340.502406" y="199.921828" style="fill: #1f77b4; stroke: #52514e"/>
     <use xlink:href="#m31a27afe0b" x="404.317914" y="185.485521" style="fill: #1f77b4; stroke: #52514e"/>
     <use xlink:href="#m31a27afe0b" x="468.133422" y="37.34268" style="fill: #1f77b4; stroke: #52514e"/>
    </g>
   </g>
   <g id="line2d_28">
    <g clip-path="url(#p33e7f4a52e)">
     <use xlink:href="#m31a27afe0b" x="85.240374" y="37.34268" style="fill: #1f77b4; stroke: #52514e"/>
     <use xlink:href="#m31a27afe0b" x="149.055882" y="37.34268" style="fill: #1f77b4; stroke: #52514e"/>
     <use xlink:href="#m31a27afe0b" x="212.87139" y="37.34268" style="fill: #1f77b4; stroke: #52514e"/>
     <use xlink:href="#m31a27afe0b" x="276.686898" y="37.34268" style="fill: #1f77b4; stroke: #52514e"/>
     <use xlink:href="#m31a27afe0b" x="340.502406" y="37.34268" style="fill: #1f77b4; stroke: #52514e"/>
     <use xlink:href="#m31a27afe0b" x="404.317914" y="37.34268" style="fill: #1f77b4; stroke: #52514e"/>
     <use xlink:href="#m31a27afe0b" x="468.133422" y="37.34268" style="fill: #1f77b4; stroke: #52514e"/>
    </g>
   </g>
   <g id="LineCollection_2">
    <path d="M 110.766578 84.99909 
L 110.766578 37.34268 
" clip-path="url(#p33e7f4a52e)" style="fill: none; stroke: #52514e"/>
    <path d="M 174.582086 117.058061 
L 174.582086 37.34268 
" clip-path="url(#p33e7f4a52e)" style="fill: none; stroke: #52514e"/>
    <path d="M 238.397594 84.99909 
L 238.397594 37.34268 
" clip-path="url(#p33e7f4a52e)" style="fill: none; stroke: #52514e"/>
    <path d="M 302.213102 104.206451 
L 302.213102 37.34268 
" clip-path="url(#p33e7f4a52e)" style="fill: none; stroke: #52514e"/>
    <path d="M 366.02861 113.071994 
L 366.02861 37.34268 
" clip-path="url(#p33e7f4a52e)" style="fill: none; stroke: #52514e"/>
    <path d="M 429.844118 37.34268 
L 429.844118 37.34268 
" clip-path="url(#p33e7f4a52e)" style="fill: none; stroke: #52514e"/>
    <path d="M 493.659626 87.856081 
L 493.659626 37.34268 
" clip-path="url(#p33e7f4a52e)" style="fill: none; stroke: #52514e"/>
   </g>
   <g id="line2d_29">
    <g clip-path="url(#p33e7f4a52e)">
     <use xlink:href="#m31a27afe0b" x="110.766578" y="84.99909" style="fill: #1f77b4; stroke: #52514e"/>
     <use xlink:href="#m31a27afe0b" x="174.582086" y="117.058061" style="fill: #1f77b4; stroke: #52514e"/>
     <use xlink:href="#m31a27afe0b" x="238.397594" y="84.99909" style="fill: #1f77b4; stroke: #52514e"/>
     <use xlink:href="#m31a27afe0b" x="302.213102" y="104.206451" style="fill: #1f77b4; stroke: #52514e"/>
     <use xlink:href="#m31a27afe0b" x="366.02861" y="113.071994" style="fill: #1f77b4; stroke: #52514e"/>
     <use xlink:href="#m31a27afe0b" x="429.844118" y="37.34268" style="fill: #1f77b4; stroke: #52514e"/>
     <use xlink:href="#m31a27afe0b" x="493.659626" y="87.856081" style="fill: #1f77b4; stroke: #52514e"/>
    </g>
   </g>
   <g id="line2d_30">
    <g clip-path="url(#p33e7f4a52e)">
     <use xlink:href="#m31a27afe0b" x="110.766578" y="37.34268" style="fill: #1f77b4; stroke: #52514e"/>
     <use xlink:href="#m31a27afe0b" x="174.582086" y="37.34268" style="fill: #1f77b4; stroke: #52514e"/>
     <use xlink:href="#m31a27afe0b" x="238.397594" y="37.34268" style="fill: #1f77b4; stroke: #52514e"/>
     <use xlink:href="#m31a27afe0b" x="302.213102" y="37.34268" style="fill: #1f77b4; stroke: #52514e"/>
     <use xlink:href="#m31a27afe0b" x="366.02861" y="37.34268" style="fill: #1f77b4; stroke: #52514e"/>
     <use xlink:href="#m31a27afe0b" x="429.844118" y="37.34268" style="fill: #1f77b4; stroke: #52514e"/>
     <use xlink:href="#m31a27afe0b" x="493.659626" y="37.34268" style="fill: #1f77b4; stroke: #52514e"/>
    </g>
   </g>
   <g id="legend_1">
    <g id="patch_19">
     <path d="M 58.88 216.214252 
L 76.88 216.214252 
L 76.88 209.914252 
L 58.88 209.914252 
z
" style="fill: #898781; stroke: #0b0b0b; stroke-linejoin: miter"/>
    </g>
    <g id="text_16">
     <text style="font-size: 9px; font-family: 'DejaVu Sans', 'Bitstream Vera Sans', 'Computer Modern Sans Serif', 'Lucida Grande', 'Verdana', 'Geneva', 'Lucid', 'Arial', 'Helvetica', 'Avant Garde', sans-serif; text-anchor: start; fill: #0b0b0b" x="84.08" y="216.214252" transform="rotate(-0 84.08 216.214252)">metadata-only</text>
    </g>
    <g id="patch_20">
     <path d="M 58.88 229.424565 
L 76.88 229.424565 
L 76.88 223.124565 
L 58.88 223.124565 
z
" style="fill: url(#h29f367d835); stroke: #0b0b0b; stroke-linejoin: miter"/>
    </g>
    <g id="text_17">
     <text style="font-size: 9px; font-family: 'DejaVu Sans', 'Bitstream Vera Sans', 'Computer Modern Sans Serif', 'Lucida Grande', 'Verdana', 'Geneva', 'Lucid', 'Arial', 'Helvetica', 'Avant Garde', sans-serif; text-anchor: start; fill: #0b0b0b" x="84.08" y="229.424565" transform="rotate(-0 84.08 229.424565)">live-query</text>
    </g>
   </g>
  </g>
 </g>
 <defs>
  <clipPath id="p33e7f4a52e">
   <rect x="50.78" y="27.24" width="477.34" height="212.156283"/>
  </clipPath>
 </defs>
 <defs>
  <pattern id="hc9a7f6a26d" patternUnits="userSpaceOnUse" x="0" y="0" width="72" height="72">
   <rect x="0" y="0" width="73" height="73" fill="#c40d1e"/>
   <path d="M -36 36 
L 36 -36 
M -32 40 
L 40 -32 
M -28 44 
L 44 -28 
M -24 48 
L 48 -24 
M -20 52 
L 52 -20 
M -16 56 
L 56 -16 
M -12 60 
L 60 -12 
M -8 64 
L 64 -8 
M -4 68 
L 68 -4 
M 0 72 
L 72 0 
M 4 76 
L 76 4 
M 8 80 
L 80 8 
M 12 84 
L 84 12 
M 16 88 
L 88 16 
M 20 92 
L 92 20 
M 24 96 
L 96 24 
M 28 100 
L 100 28 
M 32 104 
L 104 32 
M 36 108 
L 108 36 
" style="fill: #0b0b0b; stroke: #0b0b0b; stroke-width: 1.0; stroke-linecap: butt; stroke-linejoin: miter"/>
  </pattern>
  <pattern id="he3d2849441" patternUnits="userSpaceOnUse" x="0" y="0" width="72" height="72">
   <rect x="0" y="0" width="73" height="73" fill="#ff6c00"/>
   <path d="M -36 36 
L 36 -36 
M -32 40 
L 40 -32 
M -28 44 
L 44 -28 
M -24 48 
L 48 -24 
M -20 52 
L 52 -20 
M -16 56 
L 56 -16 
M -12 60 
L 60 -12 
M -8 64 
L 64 -8 
M -4 68 
L 68 -4 
M 0 72 
L 72 0 
M 4 76 
L 76 4 
M 8 80 
L 80 8 
M 12 84 
L 84 12 
M 16 88 
L 88 16 
M 20 92 
L 92 20 
M 24 96 
L 96 24 
M 28 100 
L 100 28 
M 32 104 
L 104 32 
M 36 108 
L 108 36 
" style="fill: #0b0b0b; stroke: #0b0b0b; stroke-width: 1.0; stroke-linecap: butt; stroke-linejoin: miter"/>
  </pattern>
  <pattern id="hda05e5e8dd" patternUnits="userSpaceOnUse" x="0" y="0" width="72" height="72">
   <rect x="0" y="0" width="73" height="73" fill="#e8a800"/>
   <path d="M -36 36 
L 36 -36 
M -32 40 
L 40 -32 
M -28 44 
L 44 -28 
M -24 48 
L 48 -24 
M -20 52 
L 52 -20 
M -16 56 
L 56 -16 
M -12 60 
L 60 -12 
M -8 64 
L 64 -8 
M -4 68 
L 68 -4 
M 0 72 
L 72 0 
M 4 76 
L 76 4 
M 8 80 
L 80 8 
M 12 84 
L 84 12 
M 16 88 
L 88 16 
M 20 92 
L 92 20 
M 24 96 
L 96 24 
M 28 100 
L 100 28 
M 32 104 
L 104 32 
M 36 108 
L 108 36 
" style="fill: #0b0b0b; stroke: #0b0b0b; stroke-width: 1.0; stroke-linecap: butt; stroke-linejoin: miter"/>
  </pattern>
  <pattern id="h0d2cba1922" patternUnits="userSpaceOnUse" x="0" y="0" width="72" height="72">
   <rect x="0" y="0" width="73" height="73" fill="#4f9d2e"/>
   <path d="M -36 36 
L 36 -36 
M -32 40 
L 40 -32 
M -28 44 
L 44 -28 
M -24 48 
L 48 -24 
M -20 52 
L 52 -20 
M -16 56 
L 56 -16 
M -12 60 
L 60 -12 
M -8 64 
L 64 -8 
M -4 68 
L 68 -4 
M 0 72 
L 72 0 
M 4 76 
L 76 4 
M 8 80 
L 80 8 
M 12 84 
L 84 12 
M 16 88 
L 88 16 
M 20 92 
L 92 20 
M 24 96 
L 96 24 
M 28 100 
L 100 28 
M 32 104 
L 104 32 
M 36 108 
L 108 36 
" style="fill: #0b0b0b; stroke: #0b0b0b; stroke-width: 1.0; stroke-linecap: butt; stroke-linejoin: miter"/>
  </pattern>
  <pattern id="h1993c916d5" patternUnits="userSpaceOnUse" x="0" y="0" width="72" height="72">
   <rect x="0" y="0" width="73" height="73" fill="#b5297a"/>
   <path d="M -36 36 
L 36 -36 
M -32 40 
L 40 -32 
M -28 44 
L 44 -28 
M -24 48 
L 48 -24 
M -20 52 
L 52 -20 
M -16 56 
L 56 -16 
M -12 60 
L 60 -12 
M -8 64 
L 64 -8 
M -4 68 
L 68 -4 
M 0 72 
L 72 0 
M 4 76 
L 76 4 
M 8 80 
L 80 8 
M 12 84 
L 84 12 
M 16 88 
L 88 16 
M 20 92 
L 92 20 
M 24 96 
L 96 24 
M 28 100 
L 100 28 
M 32 104 
L 104 32 
M 36 108 
L 108 36 
" style="fill: #0b0b0b; stroke: #0b0b0b; stroke-width: 1.0; stroke-linecap: butt; stroke-linejoin: miter"/>
  </pattern>
  <pattern id="h02635d6bda" patternUnits="userSpaceOnUse" x="0" y="0" width="72" height="72">
   <rect x="0" y="0" width="73" height="73" fill="#2f6fb0"/>
   <path d="M -36 36 
L 36 -36 
M -32 40 
L 40 -32 
M -28 44 
L 44 -28 
M -24 48 
L 48 -24 
M -20 52 
L 52 -20 
M -16 56 
L 56 -16 
M -12 60 
L 60 -12 
M -8 64 
L 64 -8 
M -4 68 
L 68 -4 
M 0 72 
L 72 0 
M 4 76 
L 76 4 
M 8 80 
L 80 8 
M 12 84 
L 84 12 
M 16 88 
L 88 16 
M 20 92 
L 92 20 
M 24 96 
L 96 24 
M 28 100 
L 100 28 
M 32 104 
L 104 32 
M 36 108 
L 108 36 
" style="fill: #0b0b0b; stroke: #0b0b0b; stroke-width: 1.0; stroke-linecap: butt; stroke-linejoin: miter"/>
  </pattern>
  <pattern id="h32070c27fa" patternUnits="userSpaceOnUse" x="0" y="0" width="72" height="72">
   <rect x="0" y="0" width="73" height="73" fill="#7fb0dd"/>
   <path d="M -36 36 
L 36 -36 
M -32 40 
L 40 -32 
M -28 44 
L 44 -28 
M -24 48 
L 48 -24 
M -20 52 
L 52 -20 
M -16 56 
L 56 -16 
M -12 60 
L 60 -12 
M -8 64 
L 64 -8 
M -4 68 
L 68 -4 
M 0 72 
L 72 0 
M 4 76 
L 76 4 
M 8 80 
L 80 8 
M 12 84 
L 84 12 
M 16 88 
L 88 16 
M 20 92 
L 92 20 
M 24 96 
L 96 24 
M 28 100 
L 100 28 
M 32 104 
L 104 32 
M 36 108 
L 108 36 
" style="fill: #0b0b0b; stroke: #0b0b0b; stroke-width: 1.0; stroke-linecap: butt; stroke-linejoin: miter"/>
  </pattern>
  <pattern id="h29f367d835" patternUnits="userSpaceOnUse" x="0" y="0" width="72" height="72">
   <rect x="0" y="0" width="73" height="73" fill="#898781"/>
   <path d="M -36 36 
L 36 -36 
M -32 40 
L 40 -32 
M -28 44 
L 44 -28 
M -24 48 
L 48 -24 
M -20 52 
L 52 -20 
M -16 56 
L 56 -16 
M -12 60 
L 60 -12 
M -8 64 
L 64 -8 
M -4 68 
L 68 -4 
M 0 72 
L 72 0 
M 4 76 
L 76 4 
M 8 80 
L 80 8 
M 12 84 
L 84 12 
M 16 88 
L 88 16 
M 20 92 
L 92 20 
M 24 96 
L 96 24 
M 28 100 
L 100 28 
M 32 104 
L 104 32 
M 36 108 
L 108 36 
" style="fill: #0b0b0b; stroke: #0b0b0b; stroke-width: 1.0; stroke-linecap: butt; stroke-linejoin: miter"/>
  </pattern>
 </defs>
</svg>
