<?xml version="1.0" encoding="utf-8" standalone="no"?>
<!DOCTYPE svg PUBLIC "-//W3C//DTD SVG 1.1//EN"
  "http://www.w3.org/Graphics/SVG/1.1/DTD/svg11.dtd">
<svg xmlns:xlink="http://www.w3.org/1999/xlink" width="540pt" height="324pt" viewBox="0 0 540 324" xmlns="http://www.w3.org/2000/svg" version="1.1">
 <metadata>
  <rdf:RDF xmlns:dc="http://purl.org/dc/elements/1.1/" xmlns:cc="http://creativecommons.org/ns#" xmlns:rdf="http://www.w3.org/1999/02/22-rdf-syntax-ns#">
   <cc:Work>
    <dc:type rdf:resource="http://purl.org/dc/dcmitype/StillImage"/>
    <dc:format>image/svg+xml</dc:format>
    <dc:creator>
     <cc:Agent>
      <dc:title>Matplotlib v3.10.9, https://matplotlib.org/</dc:title>
     </cc:Agent>
    </dc:creator>
   </cc:Work>
  </rdf:RDF>
 </metadata>
 <defs>
  <style type="text/css">*{stroke-linejoin: round; stroke-linecap: butt}</style>
 </defs>
 <g id="figure_1">
  <g id="patch_1">
   <path d="M 0 324 
L 540 324 
L 540 0 
L 0 0 
L 0 324 
z
" style="fill: none"/>
  </g>
  <g id="axes_1">
   <g id="patch_2">
    <path d="M 47.28 242.896283 
L 528.12 242.896283 
L 528.12 27.24 
L 47.28 27.24 
L 47.28 242.896283 
z
" style="fill: none"/>
   </g>
   <g id="matplotlib.axis_1">
    <g id="xtick_1">
     <g id="line2d_1"/>
     <g id="text_1">
      <text style="font-size: 9px; font-family: 'DejaVu Sans', 'Bitstream Vera Sans', 'Computer Modern Sans Serif', 'Lucida Grande', 'Verdana', 'Geneva', 'Lucid', 'Arial', 'Helvetica', 'Avant Garde', sans-serif; fill: #898781" transform="translate(31.974216 281.4953) rotate(-25)">ensemble_vote</text>
     </g>
    </g>
    <g id="xtick_2">
     <g id="line2d_2"/>
     <g id="text_2">
      <text style="font-size: 9px; font-family: 'DejaVu Sans', 'Bitstream Vera Sans', 'Computer Modern Sans Serif', 'Lucida Grande', 'Verdana', 'Geneva', 'Lucid', 'Arial', 'Helvetica', 'Avant Garde', sans-serif; fill: #898781" transform="translate(81.572903 288.342905) rotate(-25)">plan_then_execute</text>
     </g>
    </g>
    <g id="xtick_3">
     <g id="line2d_3"/>
     <g id="text_3">
      <text style="font-size: 9px; font-family: 'DejaVu Sans', 'Bitstream Vera Sans', 'Computer Modern Sans Serif', 'Lucida Grande', 'Verdana', 'Geneva', 'Lucid', 'Arial', 'Helvetica', 'Avant Garde', sans-serif; fill: #898781" transform="translate(144.366441 289.037649) rotate(-25)">write_then_critique</text>
     </g>
    </g>
    <g id="xtick_4">
     <g id="line2d_4"/>
     <g id="text_4">
      <text style="font-size: 9px; font-family: 'DejaVu Sans', 'Bitstream Vera Sans', 'Computer Modern Sans Serif', 'Lucida Grande', 'Verdana', 'Geneva', 'Lucid', 'Arial', 'Helvetica', 'Avant Garde', sans-serif; fill: #898781" transform="translate(209.59299 288.597862) rotate(-25)">plan_write_critique</text>
     </g>
    </g>
    <g id="xtick_5">
     <g id="line2d_5"/>
     <g id="text_5">
      <text style="font-size: 9px; font-family: 'DejaVu Sans', 'Bitstream Vera Sans', 'Computer Modern Sans Serif', 'Lucida Grande', 'Verdana', 'Geneva', 'Lucid', 'Arial', 'Helvetica', 'Avant Garde', sans-serif; fill: #898781" transform="translate(266.531495 292.022853) rotate(-25)">structured_per_table</text>
     </g>
    </g>
    <g id="xtick_6">
     <g id="line2d_6"/>
     <g id="text_6">
      <text style="font-size: 9px; font-family: 'DejaVu Sans', 'Bitstream Vera Sans', 'Computer Modern Sans Serif', 'Lucida Grande', 'Verdana', 'Geneva', 'Lucid', 'Arial', 'Helvetica', 'Avant Garde', sans-serif; fill: #898781" transform="translate(331.914807 291.509966) rotate(-25)">write_tools_freeform</text>
     </g>
    </g>
    <g id="xtick_7">
     <g id="line2d_7"/>
     <g id="text_7">
      <text style="font-size: 9px; font-family: 'DejaVu Sans', 'Bitstream Vera Sans', 'Computer Modern Sans Serif', 'Lucida Grande', 'Verdana', 'Geneva', 'Lucid', 'Arial', 'Helvetica', 'Avant Garde', sans-serif; fill: #898781" transform="translate(356.40976 310.063634) rotate(-25)">write_tools_freeform_inlinedbt</text>
     </g>
    </g>
   </g>
   <g id="matplotlib.axis_2">
    <g id="ytick_1">
     <g id="line2d_8">
      <path d="M 47.28 242.896283 
L 528.12 242.896283 
" clip-path="url(#pacd8333e46)" style="fill: none; stroke: #898781; stroke-opacity: 0.18; stroke-width: 0.6; stroke-linecap: square"/>
     </g>
     <g id="line2d_9"/>
     <g id="text_8">
      <text style="font-size: 11px; font-family: 'DejaVu Sans', 'Bitstream Vera Sans', 'Computer Modern Sans Serif', 'Lucida Grande', 'Verdana', 'Geneva', 'Lucid', 'Arial', 'Helvetica', 'Avant Garde', sans-serif; text-anchor: end" x="43.78" y="247.075424" transform="rotate(-0 43.78 247.075424)">0.0</text>
     </g>
    </g>
    <g id="ytick_2">
     <g id="line2d_10">
      <path d="M 47.28 201.818896 
L 528.12 201.818896 
" clip-path="url(#pacd8333e46)" style="fill: none; stroke: #898781; stroke-opacity: 0.18; stroke-width: 0.6; stroke-linecap: square"/>
     </g>
     <g id="line2d_11"/>
     <g id="text_9">
      <text style="font-size: 11px; font-family: 'DejaVu Sans', 'Bitstream Vera Sans', 'Computer Modern Sans Serif', 'Lucida Grande', 'Verdana', 'Geneva', 'Lucid', 'Arial', 'Helvetica', 'Avant Garde', sans-serif; text-anchor: end" x="43.78" y="205.998037" transform="rotate(-0 43.78 205.998037)">0.2</text>
     </g>
    </g>
    <g id="ytick_3">
     <g id="line2d_12">
      <path d="M 47.28 160.741509 
L 528.12 160.741509 
" clip-path="url(#pacd8333e46)" style="fill: none; stroke: #898781; stroke-opacity: 0.18; stroke-width: 0.6; stroke-linecap: square"/>
     </g>
     <g id="line2d_13"/>
     <g id="text_10">
      <text style="font-size: 11px; font-family: 'DejaVu Sans', 'Bitstream Vera Sans', 'Computer Modern Sans Serif', 'Lucida Grande', 'Verdana', 'Geneva', 'Lucid', 'Arial', 'Helvetica', 'Avant Garde', sans-serif; text-anchor: end" x="43.78" y="164.920649" transform="rotate(-0 43.78 164.920649)">0.4</text>
     </g>
    </g>
    <g id="ytick_4">
     <g id="line2d_14">
      <path d="M 47.28 119.664121 
L 528.12 119.664121 
" clip-path="url(#pacd8333e46)" style="fill: none; stroke: #898781; stroke-opacity: 0.18; stroke-width: 0.6; stroke-linecap: square"/>
     </g>
     <g id="line2d_15"/>
     <g id="text_11">
      <text style="font-size: 11px; font-family: 'DejaVu Sans', 'Bitstream Vera Sans', 'Computer Modern Sans Serif', 'Lucida Grande', 'Verdana', 'Geneva', 'Lucid', 'Arial', 'Helvetica', 'Avant Garde', sans-serif; text-anchor: end" x="43.78" y="123.843262" transform="rotate(-0 43.78 123.843262)">0.6</text>
     </g>
    </g>
    <g id="ytick_5">
     <g id="line2d_16">
      <path d="M 47.28 78.586734 
L 528.12 78.586734 
" clip-path="url(#pacd8333e46)" style="fill: none; stroke: #898781; stroke-opacity: 0.18; stroke-width: 0.6; stroke-linecap: square"/>
     </g>
     <g id="line2d_17"/>
     <g id="text_12">
      <text style="font-size: 11px; font-family: 'DejaVu Sans', 'Bitstream Vera Sans', 'Computer Modern Sans Serif', 'Lucida Grande', 'Verdana', 'Geneva', 'Lucid', 'Arial', 'Helvetica', 'Avant Garde', sans-serif; text-anchor: end" x="43.78" y="82.765875" transform="rotate(-0 43.78 82.765875)">0.8</text>
     </g>
    </g>
    <g id="ytick_6">
     <g id="line2d_18">
      <path d="M 47.28 37.509347 
L 528.12 37.509347 
" clip-path="url(#pacd8333e46)" style="fill: none; stroke: #898781; stroke-opacity: 0.18; stroke-width: 0.6; stroke-linecap: square"/>
     </g>
     <g id="line2d_19"/>
     <g id="text_13">
      <text style="font-size: 11px; font-family: 'DejaVu Sans', 'Bitstream Vera Sans', 'Computer Modern Sans Serif', 'Lucida Grande', 'Verdana', 'Geneva', 'Lucid', 'Arial', 'Helvetica', 'Avant Garde', sans-serif; text-anchor: end" x="43.78" y="41.688487" transform="rotate(-0 43.78 41.688487)">1.0</text>
     </g>
    </g>
    <g id="text_14">
     <text style="font-size: 11px; font-family: 'DejaVu Sans', 'Bitstream Vera Sans', 'Computer Modern Sans Serif', 'Lucida Grande', 'Verdana', 'Geneva', 'Lucid', 'Arial', 'Helvetica', 'Avant Garde', sans-serif; text-anchor: middle; fill: #0b0b0b" x="19.998906" y="135.068142" transform="rotate(-90 19.998906 135.068142)">Field accuracy</text>
    </g>
   </g>
   <g id="patch_3">
    <path d="M 47.28 242.896283 
L 47.28 27.24 
" style="fill: none; stroke: #000000; stroke-width: 0.8; stroke-linejoin: miter; stroke-linecap: square"/>
   </g>
   <g id="patch_4">
    <path d="M 47.28 242.896283 
L 528.12 242.896283 
" style="fill: none; stroke: #000000; stroke-width: 0.8; stroke-linejoin: miter; stroke-linecap: square"/>
   </g>
   <g id="patch_5">
    <path d="M 69.136364 242.896283 
L 94.849733 242.896283 
L 94.849733 102.876556 
L 69.136364 102.876556 
z
" clip-path="url(#pacd8333e46)" style="fill: #c40d1e"/>
   </g>
   <g id="patch_6">
    <path d="M 133.419786 242.896283 
L 159.133155 242.896283 
L 159.133155 106.564333 
L 133.419786 106.564333 
z
" clip-path="url(#pacd8333e46)" style="fill: #ff6c00"/>
   </g>
   <g id="patch_7">
    <path d="M 197.703209 242.896283 
L 223.416578 242.896283 
L 223.416578 95.507582 
L 197.703209 95.507582 
z
" clip-path="url(#pacd8333e46)" style="fill: #e8a800"/>
   </g>
   <g id="patch_8">
    <path d="M 326.270053 242.896283 
L 351.983422 242.896283 
L 351.983422 94.992917 
L 326.270053 94.992917 
z
" clip-path="url(#pacd8333e46)" style="fill: #b5297a"/>
   </g>
   <g id="patch_9">
    <path d="M 390.553476 242.896283 
L 416.266845 242.896283 
L 416.266845 99.948686 
L 390.553476 99.948686 
z
" clip-path="url(#pacd8333e46)" style="fill: #2f6fb0"/>
   </g>
   <g id="patch_10">
    <path d="M 94.849733 242.896283 
L 120.563102 242.896283 
L 120.563102 100.297666 
L 94.849733 100.297666 
z
" clip-path="url(#pacd8333e46)" style="fill: url(#h6b8c85486f)"/>
   </g>
   <g id="patch_11">
    <path d="M 159.133155 242.896283 
L 184.846524 242.896283 
L 184.846524 106.188878 
L 159.133155 106.188878 
z
" clip-path="url(#pacd8333e46)" style="fill: url(#hb08d887a91)"/>
   </g>
   <g id="patch_12">
    <path d="M 223.416578 242.896283 
L 249.129947 242.896283 
L 249.129947 98.359889 
L 223.416578 98.359889 
z
" clip-path="url(#pacd8333e46)" style="fill: url(#h8e8b3c0068)"/>
   </g>
   <g id="patch_13">
    <path d="M 287.7 242.896283 
L 313.413369 242.896283 
L 313.413369 104.845634 
L 287.7 104.845634 
z
" clip-path="url(#pacd8333e46)" style="fill: url(#ha631a99e13)"/>
   </g>
   <g id="patch_14">
    <path d="M 351.983422 242.896283 
L 377.696791 242.896283 
L 377.696791 104.226841 
L 351.983422 104.226841 
z
" clip-path="url(#pacd8333e46)" style="fill: url(#h893b482fe6)"/>
   </g>
   <g id="patch_15">
    <path d="M 416.266845 242.896283 
L 441.980214 242.896283 
L 441.980214 104.436824 
L 416.266845 104.436824 
z
" clip-path="url(#pacd8333e46)" style="fill: url(#h6bd0ace717)"/>
   </g>
   <g id="patch_16">
    <path d="M 480.550267 242.896283 
L 506.263636 242.896283 
L 506.263636 110.148318 
L 480.550267 110.148318 
z
" clip-path="url(#pacd8333e46)" style="fill: url(#haa70980b10)"/>
   </g>
   <g id="text_15">
    <text style="font-size: 12px; font-family: 'DejaVu Sans', 'Bitstream Vera Sans', 'Computer Modern Sans Serif', 'Lucida Grande', 'Verdana', 'Geneva', 'Lucid', 'Arial', 'Helvetica', 'Avant Garde', sans-serif; text-anchor: start; fill: #0b0b0b" x="47.28" y="21.24" transform="rotate(-0 47.28 21.24)">Field accuracy by strategy — self-correction</text>
   </g>
   <g id="LineCollection_1">
    <path d="M 81.993048 119.085265 
L 81.993048 84.822795 
" clip-path="url(#pacd8333e46)" style="fill: none; stroke: #898781; stroke-width: 0.9"/>
    <path d="M 146.276471 121.020026 
L 146.276471 99.158802 
" clip-path="url(#pacd8333e46)" style="fill: none; stroke: #898781; stroke-width: 0.9"/>
    <path d="M 210.559893 113.970022 
L 210.559893 80.256943 
" clip-path="url(#pacd8333e46)" style="fill: none; stroke: #898781; stroke-width: 0.9"/>
    <path d="M 339.126738 105.299552 
L 339.126738 78.832642 
" clip-path="url(#pacd8333e46)" style="fill: none; stroke: #898781; stroke-width: 0.9"/>
    <path d="M 403.41016 123.546254 
L 403.41016 78.859372 
" clip-path="url(#pacd8333e46)" style="fill: none; stroke: #898781; stroke-width: 0.9"/>
   </g>
   <g id="line2d_20">
    <defs>
     <path id="m1816195746" d="M 2 0 
L -2 -0 
" style="stroke: #898781"/>
    </defs>
    <g clip-path="url(#pacd8333e46)">
     <use xlink:href="#m1816195746" x="81.993048" y="119.085265" style="fill: #1f77b4; stroke: #898781"/>
     <use xlink:href="#m1816195746" x="146.276471" y="121.020026" style="fill: #1f77b4; stroke: #898781"/>
     <use xlink:href="#m1816195746" x="210.559893" y="113.970022" style="fill: #1f77b4; stroke: #898781"/>
     <use xlink:href="#m1816195746" x="339.126738" y="105.299552" style="fill: #1f77b4; stroke: #898781"/>
     <use xlink:href="#m1816195746" x="403.41016" y="123.546254" style="fill: #1f77b4; stroke: #898781"/>
    </g>
   </g>
   <g id="line2d_21">
    <g clip-path="url(#pacd8333e46)">
     <use xlink:href="#m1816195746" x="81.993048" y="84.822795" style="fill: #1f77b4; stroke: #898781"/>
     <use xlink:href="#m1816195746" x="146.276471" y="99.158802" style="fill: #1f77b4; stroke: #898781"/>
     <use xlink:href="#m1816195746" x="210.559893" y="80.256943" style="fill: #1f77b4; stroke: #898781"/>
     <use xlink:href="#m1816195746" x="339.126738" y="78.832642" style="fill: #1f77b4; stroke: #898781"/>
     <use xlink:href="#m1816195746" x="403.41016" y="78.859372" style="fill: #1f77b4; stroke: #898781"/>
    </g>
   </g>
   <g id="LineCollection_2">
    <path d="M 107.706417 118.082487 
L 107.706417 85.677581 
" clip-path="url(#pacd8333e46)" style="fill: none; stroke: #898781; stroke-width: 0.9"/>
    <path d="M 171.98984 119.909442 
L 171.98984 96.027568 
" clip-path="url(#pacd8333e46)" style="fill: none; stroke: #898781; stroke-width: 0.9"/>
    <path d="M 236.273262 115.960744 
L 236.273262 89.52431 
" clip-path="url(#pacd8333e46)" style="fill: none; stroke: #898781; stroke-width: 0.9"/>
    <path d="M 300.556684 120.462317 
L 300.556684 99.761582 
" clip-path="url(#pacd8333e46)" style="fill: none; stroke: #898781; stroke-width: 0.9"/>
    <path d="M 364.840107 111.91144 
L 364.840107 83.670622 
" clip-path="url(#pacd8333e46)" style="fill: none; stroke: #898781; stroke-width: 0.9"/>
    <path d="M 429.123529 119.847459 
L 429.123529 78.832642 
" clip-path="url(#pacd8333e46)" style="fill: none; stroke: #898781; stroke-width: 0.9"/>
    <path d="M 493.406952 122.127973 
L 493.406952 91.936776 
" clip-path="url(#pacd8333e46)" style="fill: none; stroke: #898781; stroke-width: 0.9"/>
   </g>
   <g id="line2d_22">
    <g clip-path="url(#pacd8333e46)">
     <use xlink:href="#m1816195746" x="107.706417" y="118.082487" style="fill: #1f77b4; stroke: #898781"/>
     <use xlink:href="#m1816195746" x="171.98984" y="119.909442" style="fill: #1f77b4; stroke: #898781"/>
     <use xlink:href="#m1816195746" x="236.273262" y="115.960744" style="fill: #1f77b4; stroke: #898781"/>
     <use xlink:href="#m1816195746" x="300.556684" y="120.462317" style="fill: #1f77b4; stroke: #898781"/>
     <use xlink:href="#m1816195746" x="364.840107" y="111.91144" style="fill: #1f77b4; stroke: #898781"/>
     <use xlink:href="#m1816195746" x="429.123529" y="119.847459" style="fill: #1f77b4; stroke: #898781"/>
     <use xlink:href="#m1816195746" x="493.406952" y="122.127973" style="fill: #1f77b4; stroke: #898781"/>
    </g>
   </g>
   <g id="line2d_23">
    <g clip-path="url(#pacd8333e46)">
     <use xlink:href="#m1816195746" x="107.706417" y="85.677581" style="fill: #1f77b4; stroke: #898781"/>
     <use xlink:href="#m1816195746" x="171.98984" y="96.027568" style="fill: #1f77b4; stroke: #898781"/>
     <use xlink:href="#m1816195746" x="236.273262" y="89.52431" style="fill: #1f77b4; stroke: #898781"/>
     <use xlink:href="#m1816195746" x="300.556684" y="99.761582" style="fill: #1f77b4; stroke: #898781"/>
     <use xlink:href="#m1816195746" x="364.840107" y="83.670622" style="fill: #1f77b4; stroke: #898781"/>
     <use xlink:href="#m1816195746" x="429.123529" y="78.832642" style="fill: #1f77b4; stroke: #898781"/>
     <use xlink:href="#m1816195746" x="493.406952" y="91.936776" style="fill: #1f77b4; stroke: #898781"/>
    </g>
   </g>
   <g id="legend_1">
    <g id="patch_17">
     <path d="M 482.976563 42.178594 
L 500.976563 42.178594 
L 500.976563 35.878594 
L 482.976563 35.878594 
z
" style="fill: #898781"/>
    </g>
    <g id="text_16">
     <text style="font-size: 9px; font-family: 'DejaVu Sans', 'Bitstream Vera Sans', 'Computer Modern Sans Serif', 'Lucida Grande', 'Verdana', 'Geneva', 'Lucid', 'Arial', 'Helvetica', 'Avant Garde', sans-serif; text-anchor: start; fill: #0b0b0b" x="508.176563" y="42.178594" transform="rotate(-0 508.176563 42.178594)">off</text>
    </g>
    <g id="patch_18">
     <path d="M 482.976563 55.388906 
L 500.976563 55.388906 
L 500.976563 49.088906 
L 482.976563 49.088906 
z
" style="fill: url(#h42c1aa26ce)"/>
    </g>
    <g id="text_17">
     <text style="font-size: 9px; font-family: 'DejaVu Sans', 'Bitstream Vera Sans', 'Computer Modern Sans Serif', 'Lucida Grande', 'Verdana', 'Geneva', 'Lucid', 'Arial', 'Helvetica', 'Avant Garde', sans-serif; text-anchor: start; fill: #0b0b0b" x="508.176563" y="55.388906" transform="rotate(-0 508.176563 55.388906)">on</text>
    </g>
   </g>
  </g>
 </g>
 <defs>
  <clipPath id="pacd8333e46">
   <rect x="47.28" y="27.24" width="480.84" height="215.656283"/>
  </clipPath>
 </defs>
 <defs>
  <pattern id="h6b8c85486f" patternUnits="userSpaceOnUse" x="0" y="0" width="72" height="72">
   <rect x="0" y="0" width="73" height="73" fill="#c40d1e"/>
   <path d="M -36 36 
L 36 -36 
M -32 40 
L 40 -32 
M -28 44 
L 44 -28 
M -24 48 
L 48 -24 
M -20 52 
L 52 -20 
M -16 56 
L 56 -16 
M -12 60 
L 60 -12 
M -8 64 
L 64 -8 
M -4 68 
L 68 -4 
M 0 72 
L 72 0 
M 4 76 
L 76 4 
M 8 80 
L 80 8 
M 12 84 
L 84 12 
M 16 88 
L 88 16 
M 20 92 
L 92 20 
M 24 96 
L 96 24 
M 28 100 
L 100 28 
M 32 104 
L 104 32 
M 36 108 
L 108 36 
" style="fill: #ffffff; stroke: #ffffff; stroke-width: 0.5; stroke-linecap: butt; stroke-linejoin: miter"/>
  </pattern>
  <pattern id="hb08d887a91" patternUnits="userSpaceOnUse" x="0" y="0" width="72" height="72">
   <rect x="0" y="0" width="73" height="73" fill="#ff6c00"/>
   <path d="M -36 36 
L 36 -36 
M -32 40 
L 40 -32 
M -28 44 
L 44 -28 
M -24 48 
L 48 -24 
M -20 52 
L 52 -20 
M -16 56 
L 56 -16 
M -12 60 
L 60 -12 
M -8 64 
L 64 -8 
M -4 68 
L 68 -4 
M 0 72 
L 72 0 
M 4 76 
L 76 4 
M 8 80 
L 80 8 
M 12 84 
L 84 12 
M 16 88 
L 88 16 
M 20 92 
L 92 20 
M 24 96 
L 96 24 
M 28 100 
L 100 28 
M 32 104 
L 104 32 
M 36 108 
L 108 36 
" style="fill: #ffffff; stroke: #ffffff; stroke-width: 0.5; stroke-linecap: butt; stroke-linejoin: miter"/>
  </pattern>
  <pattern id="h8e8b3c0068" patternUnits="userSpaceOnUse" x="0" y="0" width="72" height="72">
   <rect x="0" y="0" width="73" height="73" fill="#e8a800"/>
   <path d="M -36 36 
L 36 -36 
M -32 40 
L 40 -32 
M -28 44 
L 44 -28 
M -24 48 
L 48 -24 
M -20 52 
L 52 -20 
M -16 56 
L 56 -16 
M -12 60 
L 60 -12 
M -8 64 
L 64 -8 
M -4 68 
L 68 -4 
M 0 72 
L 72 0 
M 4 76 
L 76 4 
M 8 80 
L 80 8 
M 12 84 
L 84 12 
M 16 88 
L 88 16 
M 20 92 
L 92 20 
M 24 96 
L 96 24 
M 28 100 
L 100 28 
M 32 104 
L 104 32 
M 36 108 
L 108 36 
" style="fill: #ffffff; stroke: #ffffff; stroke-width: 0.5; stroke-linecap: butt; stroke-linejoin: miter"/>
  </pattern>
  <pattern id="ha631a99e13" patternUnits="userSpaceOnUse" x="0" y="0" width="72" height="72">
   <rect x="0" y="0" width="73" height="73" fill="#4f9d2e"/>
   <path d="M -36 36 
L 36 -36 
M -32 40 
L 40 -32 
M -28 44 
L 44 -28 
M -24 48 
L 48 -24 
M -20 52 
L 52 -20 
M -16 56 
L 56 -16 
M -12 60 
L 60 -12 
M -8 64 
L 64 -8 
M -4 68 
L 68 -4 
M 0 72 
L 72 0 
M 4 76 
L 76 4 
M 8 80 
L 80 8 
M 12 84 
L 84 12 
M 16 88 
L 88 16 
M 20 92 
L 92 20 
M 24 96 
L 96 24 
M 28 100 
L 100 28 
M 32 104 
L 104 32 
M 36 108 
L 108 36 
" style="fill: #ffffff; stroke: #ffffff; stroke-width: 0.5; stroke-linecap: butt; stroke-linejoin: miter"/>
  </pattern>
  <pattern id="h893b482fe6" patternUnits="userSpaceOnUse" x="0" y="0" width="72" height="72">
   <rect x="0" y="0" width="73" height="73" fill="#b5297a"/>
   <path d="M -36 36 
L 36 -36 
M -32 40 
L 40 -32 
M -28 44 
L 44 -28 
M -24 48 
L 48 -24 
M -20 52 
L 52 -20 
M -16 56 
L 56 -16 
M -12 60 
L 60 -12 
M -8 64 
L 64 -8 
M -4 68 
L 68 -4 
M 0 72 
L 72 0 
M 4 76 
L 76 4 
M 8 80 
L 80 8 
M 12 84 
L 84 12 
M 16 88 
L 88 16 
M 20 92 
L 92 20 
M 24 96 
L 96 24 
M 28 100 
L 100 28 
M 32 104 
L 104 32 
M 36 108 
L 108 36 
" style="fill: #ffffff; stroke: #ffffff; stroke-width: 0.5; stroke-linecap: butt; stroke-linejoin: miter"/>
  </pattern>
  <pattern id="h6bd0ace717" patternUnits="userSpaceOnUse" x="0" y="0" width="72" height="72">
   <rect x="0" y="0" width="73" height="73" fill="#2f6fb0"/>
   <path d="M -36 36 
L 36 -36 
M -32 40 
L 40 -32 
M -28 44 
L 44 -28 
M -24 48 
L 48 -24 
M -20 52 
L 52 -20 
M -16 56 
L 56 -16 
M -12 60 
L 60 -12 
M -8 64 
L 64 -8 
M -4 68 
L 68 -4 
M 0 72 
L 72 0 
M 4 76 
L 76 4 
M 8 80 
L 80 8 
M 12 84 
L 84 12 
M 16 88 
L 88 16 
M 20 92 
L 92 20 
M 24 96 
L 96 24 
M 28 100 
L 100 28 
M 32 104 
L 104 32 
M 36 108 
L 108 36 
" style="fill: #ffffff; stroke: #ffffff; stroke-width: 0.5; stroke-linecap: butt; stroke-linejoin: miter"/>
  </pattern>
  <pattern id="haa70980b10" patternUnits="userSpaceOnUse" x="0" y="0" width="72" height="72">
   <rect x="0" y="0" width="73" height="73" fill="#7fb0dd"/>
   <path d="M -36 36 
L 36 -36 
M -32 40 
L 40 -32 
M -28 44 
L 44 -28 
M -24 48 
L 48 -24 
M -20 52 
L 52 -20 
M -16 56 
L 56 -16 
M -12 60 
L 60 -12 
M -8 64 
L 64 -8 
M -4 68 
L 68 -4 
M 0 72 
L 72 0 
M 4 76 
L 76 4 
M 8 80 
L 80 8 
M 12 84 
L 84 12 
M 16 88 
L 88 16 
M 20 92 
L 92 20 
M 24 96 
L 96 24 
M 28 100 
L 100 28 
M 32 104 
L 104 32 
M 36 108 
L 108 36 
" style="fill: #ffffff; stroke: #ffffff; stroke-width: 0.5; stroke-linecap: butt; stroke-linejoin: miter"/>
  </pattern>
  <pattern id="h42c1aa26ce" patternUnits="userSpaceOnUse" x="0" y="0" width="72" height="72">
   <rect x="0" y="0" width="73" height="73" fill="#898781"/>
   <path d="M -36 36 
L 36 -36 
M -32 40 
L 40 -32 
M -28 44 
L 44 -28 
M -24 48 
L 48 -24 
M -20 52 
L 52 -20 
M -16 56 
L 56 -16 
M -12 60 
L 60 -12 
M -8 64 
L 64 -8 
M -4 68 
L 68 -4 
M 0 72 
L 72 0 
M 4 76 
L 76 4 
M 8 80 
L 80 8 
M 12 84 
L 84 12 
M 16 88 
L 88 16 
M 20 92 
L 92 20 
M 24 96 
L 96 24 
M 28 100 
L 100 28 
M 32 104 
L 104 32 
M 36 108 
L 108 36 
" style="fill: #ffffff; stroke: #ffffff; stroke-width: 0.5; stroke-linecap: butt; stroke-linejoin: miter"/>
  </pattern>
 </defs>
</svg>
