<?xml version="1.0" encoding="utf-8" standalone="no"?>
<!DOCTYPE svg PUBLIC "-//W3C//DTD SVG 1.1//EN"
  "http://www.w3.org/Graphics/SVG/1.1/DTD/svg11.dtd">
<svg xmlns:xlink="http://www.w3.org/1999/xlink" width="540pt" height="324pt" viewBox="0 0 540 324" xmlns="http://www.w3.org/2000/svg" version="1.1">
 <metadata>
  <rdf:RDF xmlns:dc="http://purl.org/dc/elements/1.1/" xmlns:cc="http://creativecommons.org/ns#" xmlns:rdf="http://www.w3.org/1999/02/22-rdf-syntax-ns#">
   <cc:Work>
    <dc:type rdf:resource="http://purl.org/dc/dcmitype/StillImage"/>
    <dc:format>image/svg+xml</dc:format>
    <dc:creator>
     <cc:Agent>
      <dc:title>Matplotlib v3.10.9, https://matplotlib.org/</dc:title>
     </cc:Agent>
    </dc:creator>
   </cc:Work>
  </rdf:RDF>
 </metadata>
 <defs>
  <style type="text/css">*{stroke-linejoin: round; stroke-linecap: butt}</style>
 </defs>
 <g id="figure_1">
  <g id="patch_1">
   <path d="M 0 324 
L 540 324 
L 540 0 
L 0 0 
L 0 324 
z
" style="fill: none"/>
  </g>
  <g id="axes_1">
   <g id="patch_2">
    <path d="M 71.715 260.982232 
L 528.12 260.982232 
L 528.12 41.24 
L 71.715 41.24 
L 71.715 260.982232 
z
" style="fill: none"/>
   </g>
   <g id="matplotlib.axis_1">
    <g id="xtick_1">
     <g id="line2d_1"/>
     <g id="text_1">
      <text style="font-size: 9px; font-family: 'DejaVu Sans', 'Bitstream Vera Sans', 'Computer Modern Sans Serif', 'Lucida Grande', 'Verdana', 'Geneva', 'Lucid', 'Arial', 'Helvetica', 'Avant Garde', sans-serif; fill: #898781" transform="translate(58.199899 299.581249) rotate(-25)">ensemble_vote</text>
     </g>
    </g>
    <g id="xtick_2">
     <g id="line2d_2"/>
     <g id="text_2">
      <text style="font-size: 9px; font-family: 'DejaVu Sans', 'Bitstream Vera Sans', 'Computer Modern Sans Serif', 'Lucida Grande', 'Verdana', 'Geneva', 'Lucid', 'Arial', 'Helvetica', 'Avant Garde', sans-serif; fill: #898781" transform="translate(115.051997 306.428853) rotate(-25)">plan_then_execute</text>
     </g>
    </g>
    <g id="xtick_3">
     <g id="line2d_3"/>
     <g id="text_3">
      <text style="font-size: 9px; font-family: 'DejaVu Sans', 'Bitstream Vera Sans', 'Computer Modern Sans Serif', 'Lucida Grande', 'Verdana', 'Geneva', 'Lucid', 'Arial', 'Helvetica', 'Avant Garde', sans-serif; fill: #898781" transform="translate(185.098946 307.123598) rotate(-25)">write_then_critique</text>
     </g>
    </g>
    <g id="xtick_4">
     <g id="line2d_4"/>
     <g id="text_4">
      <text style="font-size: 9px; font-family: 'DejaVu Sans', 'Bitstream Vera Sans', 'Computer Modern Sans Serif', 'Lucida Grande', 'Verdana', 'Geneva', 'Lucid', 'Arial', 'Helvetica', 'Avant Garde', sans-serif; fill: #898781" transform="translate(257.578906 306.683811) rotate(-25)">plan_write_critique</text>
     </g>
    </g>
    <g id="xtick_5">
     <g id="line2d_5"/>
     <g id="text_5">
      <text style="font-size: 9px; font-family: 'DejaVu Sans', 'Bitstream Vera Sans', 'Computer Modern Sans Serif', 'Lucida Grande', 'Verdana', 'Geneva', 'Lucid', 'Arial', 'Helvetica', 'Avant Garde', sans-serif; fill: #898781" transform="translate(321.770824 310.108802) rotate(-25)">structured_per_table</text>
     </g>
    </g>
    <g id="xtick_6">
     <g id="line2d_6"/>
     <g id="text_6">
      <text style="font-size: 9px; font-family: 'DejaVu Sans', 'Bitstream Vera Sans', 'Computer Modern Sans Serif', 'Lucida Grande', 'Verdana', 'Geneva', 'Lucid', 'Arial', 'Helvetica', 'Avant Garde', sans-serif; fill: #898781" transform="translate(394.407547 309.595915) rotate(-25)">write_tools_freeform</text>
     </g>
    </g>
   </g>
   <g id="matplotlib.axis_2">
    <g id="ytick_1">
     <g id="line2d_7">
      <path d="M 71.715 260.982232 
L 528.12 260.982232 
" clip-path="url(#p277f4dc346)" style="fill: none; stroke: #898781; stroke-opacity: 0.18; stroke-width: 0.6; stroke-linecap: square"/>
     </g>
     <g id="line2d_8"/>
     <g id="text_7">
      <text style="font-size: 11px; font-family: 'DejaVu Sans', 'Bitstream Vera Sans', 'Computer Modern Sans Serif', 'Lucida Grande', 'Verdana', 'Geneva', 'Lucid', 'Arial', 'Helvetica', 'Avant Garde', sans-serif; text-anchor: end" x="68.215" y="265.161373" transform="rotate(-0 68.215 265.161373)">0</text>
     </g>
    </g>
    <g id="ytick_2">
     <g id="line2d_9">
      <path d="M 71.715 233.337077 
L 528.12 233.337077 
" clip-path="url(#p277f4dc346)" style="fill: none; stroke: #898781; stroke-opacity: 0.18; stroke-width: 0.6; stroke-linecap: square"/>
     </g>
     <g id="line2d_10"/>
     <g id="text_8">
      <text style="font-size: 11px; font-family: 'DejaVu Sans', 'Bitstream Vera Sans', 'Computer Modern Sans Serif', 'Lucida Grande', 'Verdana', 'Geneva', 'Lucid', 'Arial', 'Helvetica', 'Avant Garde', sans-serif; text-anchor: end" x="68.215" y="237.516217" transform="rotate(-0 68.215 237.516217)">100000</text>
     </g>
    </g>
    <g id="ytick_3">
     <g id="line2d_11">
      <path d="M 71.715 205.691922 
L 528.12 205.691922 
" clip-path="url(#p277f4dc346)" style="fill: none; stroke: #898781; stroke-opacity: 0.18; stroke-width: 0.6; stroke-linecap: square"/>
     </g>
     <g id="line2d_12"/>
     <g id="text_9">
      <text style="font-size: 11px; font-family: 'DejaVu Sans', 'Bitstream Vera Sans', 'Computer Modern Sans Serif', 'Lucida Grande', 'Verdana', 'Geneva', 'Lucid', 'Arial', 'Helvetica', 'Avant Garde', sans-serif; text-anchor: end" x="68.215" y="209.871062" transform="rotate(-0 68.215 209.871062)">200000</text>
     </g>
    </g>
    <g id="ytick_4">
     <g id="line2d_13">
      <path d="M 71.715 178.046767 
L 528.12 178.046767 
" clip-path="url(#p277f4dc346)" style="fill: none; stroke: #898781; stroke-opacity: 0.18; stroke-width: 0.6; stroke-linecap: square"/>
     </g>
     <g id="line2d_14"/>
     <g id="text_10">
      <text style="font-size: 11px; font-family: 'DejaVu Sans', 'Bitstream Vera Sans', 'Computer Modern Sans Serif', 'Lucida Grande', 'Verdana', 'Geneva', 'Lucid', 'Arial', 'Helvetica', 'Avant Garde', sans-serif; text-anchor: end" x="68.215" y="182.225907" transform="rotate(-0 68.215 182.225907)">300000</text>
     </g>
    </g>
    <g id="ytick_5">
     <g id="line2d_15">
      <path d="M 71.715 150.401612 
L 528.12 150.401612 
" clip-path="url(#p277f4dc346)" style="fill: none; stroke: #898781; stroke-opacity: 0.18; stroke-width: 0.6; stroke-linecap: square"/>
     </g>
     <g id="line2d_16"/>
     <g id="text_11">
      <text style="font-size: 11px; font-family: 'DejaVu Sans', 'Bitstream Vera Sans', 'Computer Modern Sans Serif', 'Lucida Grande', 'Verdana', 'Geneva', 'Lucid', 'Arial', 'Helvetica', 'Avant Garde', sans-serif; text-anchor: end" x="68.215" y="154.580752" transform="rotate(-0 68.215 154.580752)">400000</text>
     </g>
    </g>
    <g id="ytick_6">
     <g id="line2d_17">
      <path d="M 71.715 122.756457 
L 528.12 122.756457 
" clip-path="url(#p277f4dc346)" style="fill: none; stroke: #898781; stroke-opacity: 0.18; stroke-width: 0.6; stroke-linecap: square"/>
     </g>
     <g id="line2d_18"/>
     <g id="text_12">
      <text style="font-size: 11px; font-family: 'DejaVu Sans', 'Bitstream Vera Sans', 'Computer Modern Sans Serif', 'Lucida Grande', 'Verdana', 'Geneva', 'Lucid', 'Arial', 'Helvetica', 'Avant Garde', sans-serif; text-anchor: end" x="68.215" y="126.935597" transform="rotate(-0 68.215 126.935597)">500000</text>
     </g>
    </g>
    <g id="ytick_7">
     <g id="line2d_19">
      <path d="M 71.715 95.111302 
L 528.12 95.111302 
" clip-path="url(#p277f4dc346)" style="fill: none; stroke: #898781; stroke-opacity: 0.18; stroke-width: 0.6; stroke-linecap: square"/>
     </g>
     <g id="line2d_20"/>
     <g id="text_13">
      <text style="font-size: 11px; font-family: 'DejaVu Sans', 'Bitstream Vera Sans', 'Computer Modern Sans Serif', 'Lucida Grande', 'Verdana', 'Geneva', 'Lucid', 'Arial', 'Helvetica', 'Avant Garde', sans-serif; text-anchor: end" x="68.215" y="99.290442" transform="rotate(-0 68.215 99.290442)">600000</text>
     </g>
    </g>
    <g id="ytick_8">
     <g id="line2d_21">
      <path d="M 71.715 67.466147 
L 528.12 67.466147 
" clip-path="url(#p277f4dc346)" style="fill: none; stroke: #898781; stroke-opacity: 0.18; stroke-width: 0.6; stroke-linecap: square"/>
     </g>
     <g id="line2d_22"/>
     <g id="text_14">
      <text style="font-size: 11px; font-family: 'DejaVu Sans', 'Bitstream Vera Sans', 'Computer Modern Sans Serif', 'Lucida Grande', 'Verdana', 'Geneva', 'Lucid', 'Arial', 'Helvetica', 'Avant Garde', sans-serif; text-anchor: end" x="68.215" y="71.645287" transform="rotate(-0 68.215 71.645287)">700000</text>
     </g>
    </g>
    <g id="text_15">
     <text style="font-size: 11px; font-family: 'DejaVu Sans', 'Bitstream Vera Sans', 'Computer Modern Sans Serif', 'Lucida Grande', 'Verdana', 'Geneva', 'Lucid', 'Arial', 'Helvetica', 'Avant Garde', sans-serif; text-anchor: middle; fill: #0b0b0b" x="19.934844" y="151.111116" transform="rotate(-90 19.934844 151.111116)">Tokens/run (in+out)</text>
    </g>
   </g>
   <g id="patch_3">
    <path d="M 71.715 260.982232 
L 71.715 41.24 
" style="fill: none; stroke: #000000; stroke-width: 0.8; stroke-linejoin: miter; stroke-linecap: square"/>
   </g>
   <g id="patch_4">
    <path d="M 71.715 260.982232 
L 528.12 260.982232 
" style="fill: none; stroke: #000000; stroke-width: 0.8; stroke-linejoin: miter; stroke-linecap: square"/>
   </g>
   <g id="patch_5">
    <path d="M 92.460682 260.982232 
L 121.075415 260.982232 
L 121.075415 227.613424 
L 92.460682 227.613424 
z
" clip-path="url(#p277f4dc346)" style="fill: #c40d1e"/>
   </g>
   <g id="patch_6">
    <path d="M 163.997516 260.982232 
L 192.612249 260.982232 
L 192.612249 249.54944 
L 163.997516 249.54944 
z
" clip-path="url(#p277f4dc346)" style="fill: #ff6c00"/>
   </g>
   <g id="patch_7">
    <path d="M 235.53435 260.982232 
L 264.149083 260.982232 
L 264.149083 229.402895 
L 235.53435 229.402895 
z
" clip-path="url(#p277f4dc346)" style="fill: #e8a800"/>
   </g>
   <g id="patch_8">
    <path d="M 307.071183 260.982232 
L 335.685917 260.982232 
L 335.685917 233.187793 
L 307.071183 233.187793 
z
" clip-path="url(#p277f4dc346)" style="fill: #4f9d2e"/>
   </g>
   <g id="patch_9">
    <path d="M 378.608017 260.982232 
L 407.222751 260.982232 
L 407.222751 253.791865 
L 378.608017 253.791865 
z
" clip-path="url(#p277f4dc346)" style="fill: #b5297a"/>
   </g>
   <g id="patch_10">
    <path d="M 450.144851 260.982232 
L 478.759585 260.982232 
L 478.759585 245.004162 
L 450.144851 245.004162 
z
" clip-path="url(#p277f4dc346)" style="fill: #2f6fb0"/>
   </g>
   <g id="patch_11">
    <path d="M 121.075415 260.982232 
L 149.690149 260.982232 
L 149.690149 194.715137 
L 121.075415 194.715137 
z
" clip-path="url(#p277f4dc346)" style="fill: url(#hcba8cc28bb)"/>
   </g>
   <g id="patch_12">
    <path d="M 192.612249 260.982232 
L 221.226983 260.982232 
L 221.226983 248.407833 
L 192.612249 248.407833 
z
" clip-path="url(#p277f4dc346)" style="fill: url(#hc1fb8087d0)"/>
   </g>
   <g id="patch_13">
    <path d="M 264.149083 260.982232 
L 292.763817 260.982232 
L 292.763817 211.825967 
L 264.149083 211.825967 
z
" clip-path="url(#p277f4dc346)" style="fill: url(#ha0a8144cd5)"/>
   </g>
   <g id="patch_14">
    <path d="M 335.685917 260.982232 
L 364.30065 260.982232 
L 364.30065 147.779192 
L 335.685917 147.779192 
z
" clip-path="url(#p277f4dc346)" style="fill: url(#hc50275a0da)"/>
   </g>
   <g id="patch_15">
    <path d="M 407.222751 260.982232 
L 435.837484 260.982232 
L 435.837484 243.104939 
L 407.222751 243.104939 
z
" clip-path="url(#p277f4dc346)" style="fill: url(#h35fdb5e346)"/>
   </g>
   <g id="patch_16">
    <path d="M 478.759585 260.982232 
L 507.374318 260.982232 
L 507.374318 236.095096 
L 478.759585 236.095096 
z
" clip-path="url(#p277f4dc346)" style="fill: url(#h4886ff7825)"/>
   </g>
   <g id="text_16">
    <text style="font-size: 9px; font-family: 'DejaVu Sans', 'Bitstream Vera Sans', 'Computer Modern Sans Serif', 'Lucida Grande', 'Verdana', 'Geneva', 'Lucid', 'Arial', 'Helvetica', 'Avant Garde', sans-serif; text-anchor: start; fill: #898781" x="71.715" y="36.072148" transform="rotate(-0 71.715 36.072148)">median per bar · n=12–24/bar · N=264 runs</text>
   </g>
   <g id="text_17">
    <text style="font-size: 12px; font-family: 'DejaVu Sans', 'Bitstream Vera Sans', 'Computer Modern Sans Serif', 'Lucida Grande', 'Verdana', 'Geneva', 'Lucid', 'Arial', 'Helvetica', 'Avant Garde', sans-serif; text-anchor: start; fill: #0b0b0b" x="71.715" y="21.24" transform="rotate(-0 71.715 21.24)">Tokens/run (in+out) by strategy — context mode</text>
   </g>
   <g id="LineCollection_1">
    <path d="M 106.768049 230.191611 
L 106.768049 225.816904 
" clip-path="url(#p277f4dc346)" style="fill: none; stroke: #898781; stroke-width: 0.9"/>
    <path d="M 178.304882 251.002815 
L 178.304882 240.887936 
" clip-path="url(#p277f4dc346)" style="fill: none; stroke: #898781; stroke-width: 0.9"/>
    <path d="M 249.841716 235.731078 
L 249.841716 226.743776 
" clip-path="url(#p277f4dc346)" style="fill: none; stroke: #898781; stroke-width: 0.9"/>
    <path d="M 321.37855 240.403178 
L 321.37855 222.633218 
" clip-path="url(#p277f4dc346)" style="fill: none; stroke: #898781; stroke-width: 0.9"/>
    <path d="M 392.915384 254.286092 
L 392.915384 238.713023 
" clip-path="url(#p277f4dc346)" style="fill: none; stroke: #898781; stroke-width: 0.9"/>
    <path d="M 464.452218 247.336238 
L 464.452218 237.890372 
" clip-path="url(#p277f4dc346)" style="fill: none; stroke: #898781; stroke-width: 0.9"/>
   </g>
   <g id="line2d_23">
    <defs>
     <path id="mc4c6ca10a4" d="M 2 0 
L -2 -0 
" style="stroke: #898781"/>
    </defs>
    <g clip-path="url(#p277f4dc346)">
     <use xlink:href="#mc4c6ca10a4" x="106.768049" y="230.191611" style="fill: #1f77b4; stroke: #898781"/>
     <use xlink:href="#mc4c6ca10a4" x="178.304882" y="251.002815" style="fill: #1f77b4; stroke: #898781"/>
     <use xlink:href="#mc4c6ca10a4" x="249.841716" y="235.731078" style="fill: #1f77b4; stroke: #898781"/>
     <use xlink:href="#mc4c6ca10a4" x="321.37855" y="240.403178" style="fill: #1f77b4; stroke: #898781"/>
     <use xlink:href="#mc4c6ca10a4" x="392.915384" y="254.286092" style="fill: #1f77b4; stroke: #898781"/>
     <use xlink:href="#mc4c6ca10a4" x="464.452218" y="247.336238" style="fill: #1f77b4; stroke: #898781"/>
    </g>
   </g>
   <g id="line2d_24">
    <g clip-path="url(#p277f4dc346)">
     <use xlink:href="#mc4c6ca10a4" x="106.768049" y="225.816904" style="fill: #1f77b4; stroke: #898781"/>
     <use xlink:href="#mc4c6ca10a4" x="178.304882" y="240.887936" style="fill: #1f77b4; stroke: #898781"/>
     <use xlink:href="#mc4c6ca10a4" x="249.841716" y="226.743776" style="fill: #1f77b4; stroke: #898781"/>
     <use xlink:href="#mc4c6ca10a4" x="321.37855" y="222.633218" style="fill: #1f77b4; stroke: #898781"/>
     <use xlink:href="#mc4c6ca10a4" x="392.915384" y="238.713023" style="fill: #1f77b4; stroke: #898781"/>
     <use xlink:href="#mc4c6ca10a4" x="464.452218" y="237.890372" style="fill: #1f77b4; stroke: #898781"/>
    </g>
   </g>
   <g id="LineCollection_2">
    <path d="M 135.382782 204.003978 
L 135.382782 186.188334 
" clip-path="url(#p277f4dc346)" style="fill: none; stroke: #898781; stroke-width: 0.9"/>
    <path d="M 206.919616 251.337598 
L 206.919616 240.650257 
" clip-path="url(#p277f4dc346)" style="fill: none; stroke: #898781; stroke-width: 0.9"/>
    <path d="M 278.45645 217.136878 
L 278.45645 198.614278 
" clip-path="url(#p277f4dc346)" style="fill: none; stroke: #898781; stroke-width: 0.9"/>
    <path d="M 349.993284 215.603194 
L 349.993284 51.703916 
" clip-path="url(#p277f4dc346)" style="fill: none; stroke: #898781; stroke-width: 0.9"/>
    <path d="M 421.530118 246.321592 
L 421.530118 228.491849 
" clip-path="url(#p277f4dc346)" style="fill: none; stroke: #898781; stroke-width: 0.9"/>
    <path d="M 493.066951 244.879828 
L 493.066951 221.769376 
" clip-path="url(#p277f4dc346)" style="fill: none; stroke: #898781; stroke-width: 0.9"/>
   </g>
   <g id="line2d_25">
    <g clip-path="url(#p277f4dc346)">
     <use xlink:href="#mc4c6ca10a4" x="135.382782" y="204.003978" style="fill: #1f77b4; stroke: #898781"/>
     <use xlink:href="#mc4c6ca10a4" x="206.919616" y="251.337598" style="fill: #1f77b4; stroke: #898781"/>
     <use xlink:href="#mc4c6ca10a4" x="278.45645" y="217.136878" style="fill: #1f77b4; stroke: #898781"/>
     <use xlink:href="#mc4c6ca10a4" x="349.993284" y="215.603194" style="fill: #1f77b4; stroke: #898781"/>
     <use xlink:href="#mc4c6ca10a4" x="421.530118" y="246.321592" style="fill: #1f77b4; stroke: #898781"/>
     <use xlink:href="#mc4c6ca10a4" x="493.066951" y="244.879828" style="fill: #1f77b4; stroke: #898781"/>
    </g>
   </g>
   <g id="line2d_26">
    <g clip-path="url(#p277f4dc346)">
     <use xlink:href="#mc4c6ca10a4" x="135.382782" y="186.188334" style="fill: #1f77b4; stroke: #898781"/>
     <use xlink:href="#mc4c6ca10a4" x="206.919616" y="240.650257" style="fill: #1f77b4; stroke: #898781"/>
     <use xlink:href="#mc4c6ca10a4" x="278.45645" y="198.614278" style="fill: #1f77b4; stroke: #898781"/>
     <use xlink:href="#mc4c6ca10a4" x="349.993284" y="51.703916" style="fill: #1f77b4; stroke: #898781"/>
     <use xlink:href="#mc4c6ca10a4" x="421.530118" y="228.491849" style="fill: #1f77b4; stroke: #898781"/>
     <use xlink:href="#mc4c6ca10a4" x="493.066951" y="221.769376" style="fill: #1f77b4; stroke: #898781"/>
    </g>
   </g>
   <g id="legend_1">
    <g id="patch_17">
     <path d="M 428.745937 56.178594 
L 446.745937 56.178594 
L 446.745937 49.878594 
L 428.745937 49.878594 
z
" style="fill: #898781"/>
    </g>
    <g id="text_18">
     <text style="font-size: 9px; font-family: 'DejaVu Sans', 'Bitstream Vera Sans', 'Computer Modern Sans Serif', 'Lucida Grande', 'Verdana', 'Geneva', 'Lucid', 'Arial', 'Helvetica', 'Avant Garde', sans-serif; text-anchor: start; fill: #0b0b0b" x="453.945937" y="56.178594" transform="rotate(-0 453.945937 56.178594)">metadata-only</text>
    </g>
    <g id="patch_18">
     <path d="M 428.745937 69.388906 
L 446.745937 69.388906 
L 446.745937 63.088906 
L 428.745937 63.088906 
z
" style="fill: url(#he0562b2c9b)"/>
    </g>
    <g id="text_19">
     <text style="font-size: 9px; font-family: 'DejaVu Sans', 'Bitstream Vera Sans', 'Computer Modern Sans Serif', 'Lucida Grande', 'Verdana', 'Geneva', 'Lucid', 'Arial', 'Helvetica', 'Avant Garde', sans-serif; text-anchor: start; fill: #0b0b0b" x="453.945937" y="69.388906" transform="rotate(-0 453.945937 69.388906)">live-query</text>
    </g>
   </g>
  </g>
 </g>
 <defs>
  <clipPath id="p277f4dc346">
   <rect x="71.715" y="41.24" width="456.405" height="219.742232"/>
  </clipPath>
 </defs>
 <defs>
  <pattern id="hcba8cc28bb" patternUnits="userSpaceOnUse" x="0" y="0" width="72" height="72">
   <rect x="0" y="0" width="73" height="73" fill="#c40d1e"/>
   <path d="M -36 36 
L 36 -36 
M -32 40 
L 40 -32 
M -28 44 
L 44 -28 
M -24 48 
L 48 -24 
M -20 52 
L 52 -20 
M -16 56 
L 56 -16 
M -12 60 
L 60 -12 
M -8 64 
L 64 -8 
M -4 68 
L 68 -4 
M 0 72 
L 72 0 
M 4 76 
L 76 4 
M 8 80 
L 80 8 
M 12 84 
L 84 12 
M 16 88 
L 88 16 
M 20 92 
L 92 20 
M 24 96 
L 96 24 
M 28 100 
L 100 28 
M 32 104 
L 104 32 
M 36 108 
L 108 36 
" style="fill: #ffffff; stroke: #ffffff; stroke-width: 0.5; stroke-linecap: butt; stroke-linejoin: miter"/>
  </pattern>
  <pattern id="hc1fb8087d0" patternUnits="userSpaceOnUse" x="0" y="0" width="72" height="72">
   <rect x="0" y="0" width="73" height="73" fill="#ff6c00"/>
   <path d="M -36 36 
L 36 -36 
M -32 40 
L 40 -32 
M -28 44 
L 44 -28 
M -24 48 
L 48 -24 
M -20 52 
L 52 -20 
M -16 56 
L 56 -16 
M -12 60 
L 60 -12 
M -8 64 
L 64 -8 
M -4 68 
L 68 -4 
M 0 72 
L 72 0 
M 4 76 
L 76 4 
M 8 80 
L 80 8 
M 12 84 
L 84 12 
M 16 88 
L 88 16 
M 20 92 
L 92 20 
M 24 96 
L 96 24 
M 28 100 
L 100 28 
M 32 104 
L 104 32 
M 36 108 
L 108 36 
" style="fill: #ffffff; stroke: #ffffff; stroke-width: 0.5; stroke-linecap: butt; stroke-linejoin: miter"/>
  </pattern>
  <pattern id="ha0a8144cd5" patternUnits="userSpaceOnUse" x="0" y="0" width="72" height="72">
   <rect x="0" y="0" width="73" height="73" fill="#e8a800"/>
   <path d="M -36 36 
L 36 -36 
M -32 40 
L 40 -32 
M -28 44 
L 44 -28 
M -24 48 
L 48 -24 
M -20 52 
L 52 -20 
M -16 56 
L 56 -16 
M -12 60 
L 60 -12 
M -8 64 
L 64 -8 
M -4 68 
L 68 -4 
M 0 72 
L 72 0 
M 4 76 
L 76 4 
M 8 80 
L 80 8 
M 12 84 
L 84 12 
M 16 88 
L 88 16 
M 20 92 
L 92 20 
M 24 96 
L 96 24 
M 28 100 
L 100 28 
M 32 104 
L 104 32 
M 36 108 
L 108 36 
" style="fill: #ffffff; stroke: #ffffff; stroke-width: 0.5; stroke-linecap: butt; stroke-linejoin: miter"/>
  </pattern>
  <pattern id="hc50275a0da" patternUnits="userSpaceOnUse" x="0" y="0" width="72" height="72">
   <rect x="0" y="0" width="73" height="73" fill="#4f9d2e"/>
   <path d="M -36 36 
L 36 -36 
M -32 40 
L 40 -32 
M -28 44 
L 44 -28 
M -24 48 
L 48 -24 
M -20 52 
L 52 -20 
M -16 56 
L 56 -16 
M -12 60 
L 60 -12 
M -8 64 
L 64 -8 
M -4 68 
L 68 -4 
M 0 72 
L 72 0 
M 4 76 
L 76 4 
M 8 80 
L 80 8 
M 12 84 
L 84 12 
M 16 88 
L 88 16 
M 20 92 
L 92 20 
M 24 96 
L 96 24 
M 28 100 
L 100 28 
M 32 104 
L 104 32 
M 36 108 
L 108 36 
" style="fill: #ffffff; stroke: #ffffff; stroke-width: 0.5; stroke-linecap: butt; stroke-linejoin: miter"/>
  </pattern>
  <pattern id="h35fdb5e346" patternUnits="userSpaceOnUse" x="0" y="0" width="72" height="72">
   <rect x="0" y="0" width="73" height="73" fill="#b5297a"/>
   <path d="M -36 36 
L 36 -36 
M -32 40 
L 40 -32 
M -28 44 
L 44 -28 
M -24 48 
L 48 -24 
M -20 52 
L 52 -20 
M -16 56 
L 56 -16 
M -12 60 
L 60 -12 
M -8 64 
L 64 -8 
M -4 68 
L 68 -4 
M 0 72 
L 72 0 
M 4 76 
L 76 4 
M 8 80 
L 80 8 
M 12 84 
L 84 12 
M 16 88 
L 88 16 
M 20 92 
L 92 20 
M 24 96 
L 96 24 
M 28 100 
L 100 28 
M 32 104 
L 104 32 
M 36 108 
L 108 36 
" style="fill: #ffffff; stroke: #ffffff; stroke-width: 0.5; stroke-linecap: butt; stroke-linejoin: miter"/>
  </pattern>
  <pattern id="h4886ff7825" patternUnits="userSpaceOnUse" x="0" y="0" width="72" height="72">
   <rect x="0" y="0" width="73" height="73" fill="#2f6fb0"/>
   <path d="M -36 36 
L 36 -36 
M -32 40 
L 40 -32 
M -28 44 
L 44 -28 
M -24 48 
L 48 -24 
M -20 52 
L 52 -20 
M -16 56 
L 56 -16 
M -12 60 
L 60 -12 
M -8 64 
L 64 -8 
M -4 68 
L 68 -4 
M 0 72 
L 72 0 
M 4 76 
L 76 4 
M 8 80 
L 80 8 
M 12 84 
L 84 12 
M 16 88 
L 88 16 
M 20 92 
L 92 20 
M 24 96 
L 96 24 
M 28 100 
L 100 28 
M 32 104 
L 104 32 
M 36 108 
L 108 36 
" style="fill: #ffffff; stroke: #ffffff; stroke-width: 0.5; stroke-linecap: butt; stroke-linejoin: miter"/>
  </pattern>
  <pattern id="he0562b2c9b" patternUnits="userSpaceOnUse" x="0" y="0" width="72" height="72">
   <rect x="0" y="0" width="73" height="73" fill="#898781"/>
   <path d="M -36 36 
L 36 -36 
M -32 40 
L 40 -32 
M -28 44 
L 44 -28 
M -24 48 
L 48 -24 
M -20 52 
L 52 -20 
M -16 56 
L 56 -16 
M -12 60 
L 60 -12 
M -8 64 
L 64 -8 
M -4 68 
L 68 -4 
M 0 72 
L 72 0 
M 4 76 
L 76 4 
M 8 80 
L 80 8 
M 12 84 
L 84 12 
M 16 88 
L 88 16 
M 20 92 
L 92 20 
M 24 96 
L 96 24 
M 28 100 
L 100 28 
M 32 104 
L 104 32 
M 36 108 
L 108 36 
" style="fill: #ffffff; stroke: #ffffff; stroke-width: 0.5; stroke-linecap: butt; stroke-linejoin: miter"/>
  </pattern>
 </defs>
</svg>
