<?xml version="1.0" encoding="utf-8" standalone="no"?>
<!DOCTYPE svg PUBLIC "-//W3C//DTD SVG 1.1//EN"
  "http://www.w3.org/Graphics/SVG/1.1/DTD/svg11.dtd">
<svg xmlns:xlink="http://www.w3.org/1999/xlink" width="540pt" height="324pt" viewBox="0 0 540 324" xmlns="http://www.w3.org/2000/svg" version="1.1">
 <metadata>
  <rdf:RDF xmlns:dc="http://purl.org/dc/elements/1.1/" xmlns:cc="http://creativecommons.org/ns#" xmlns:rdf="http://www.w3.org/1999/02/22-rdf-syntax-ns#">
   <cc:Work>
    <dc:type rdf:resource="http://purl.org/dc/dcmitype/StillImage"/>
    <dc:format>image/svg+xml</dc:format>
    <dc:creator>
     <cc:Agent>
      <dc:title>Matplotlib v3.10.9, https://matplotlib.org/</dc:title>
     </cc:Agent>
    </dc:creator>
   </cc:Work>
  </rdf:RDF>
 </metadata>
 <defs>
  <style type="text/css">*{stroke-linejoin: round; stroke-linecap: butt}</style>
 </defs>
 <g id="figure_1">
  <g id="patch_1">
   <path d="M 0 324 
L 540 324 
L 540 0 
L 0 0 
L 0 324 
z
" style="fill: none"/>
  </g>
  <g id="axes_1">
   <g id="patch_2">
    <path d="M 71.715 242.896283 
L 528.12 242.896283 
L 528.12 27.24 
L 71.715 27.24 
L 71.715 242.896283 
z
" style="fill: none"/>
   </g>
   <g id="matplotlib.axis_1">
    <g id="xtick_1">
     <g id="line2d_1"/>
     <g id="text_1">
      <text style="font-size: 9px; font-family: 'DejaVu Sans', 'Bitstream Vera Sans', 'Computer Modern Sans Serif', 'Lucida Grande', 'Verdana', 'Geneva', 'Lucid', 'Arial', 'Helvetica', 'Avant Garde', sans-serif; fill: #898781" transform="translate(53.991849 281.4953) rotate(-25)">ensemble_vote</text>
     </g>
    </g>
    <g id="xtick_2">
     <g id="line2d_2"/>
     <g id="text_2">
      <text style="font-size: 9px; font-family: 'DejaVu Sans', 'Bitstream Vera Sans', 'Computer Modern Sans Serif', 'Lucida Grande', 'Verdana', 'Geneva', 'Lucid', 'Arial', 'Helvetica', 'Avant Garde', sans-serif; fill: #898781" transform="translate(100.323826 288.342905) rotate(-25)">plan_then_execute</text>
     </g>
    </g>
    <g id="xtick_3">
     <g id="line2d_3"/>
     <g id="text_3">
      <text style="font-size: 9px; font-family: 'DejaVu Sans', 'Bitstream Vera Sans', 'Computer Modern Sans Serif', 'Lucida Grande', 'Verdana', 'Geneva', 'Lucid', 'Arial', 'Helvetica', 'Avant Garde', sans-serif; fill: #898781" transform="translate(159.850652 289.037649) rotate(-25)">write_then_critique</text>
     </g>
    </g>
    <g id="xtick_4">
     <g id="line2d_4"/>
     <g id="text_4">
      <text style="font-size: 9px; font-family: 'DejaVu Sans', 'Bitstream Vera Sans', 'Computer Modern Sans Serif', 'Lucida Grande', 'Verdana', 'Geneva', 'Lucid', 'Arial', 'Helvetica', 'Avant Garde', sans-serif; fill: #898781" transform="translate(221.81049 288.597862) rotate(-25)">plan_write_critique</text>
     </g>
    </g>
    <g id="xtick_5">
     <g id="line2d_5"/>
     <g id="text_5">
      <text style="font-size: 9px; font-family: 'DejaVu Sans', 'Bitstream Vera Sans', 'Computer Modern Sans Serif', 'Lucida Grande', 'Verdana', 'Geneva', 'Lucid', 'Arial', 'Helvetica', 'Avant Garde', sans-serif; fill: #898781" transform="translate(275.482284 292.022853) rotate(-25)">structured_per_table</text>
     </g>
    </g>
    <g id="xtick_6">
     <g id="line2d_6"/>
     <g id="text_6">
      <text style="font-size: 9px; font-family: 'DejaVu Sans', 'Bitstream Vera Sans', 'Computer Modern Sans Serif', 'Lucida Grande', 'Verdana', 'Geneva', 'Lucid', 'Arial', 'Helvetica', 'Avant Garde', sans-serif; fill: #898781" transform="translate(337.598885 291.509966) rotate(-25)">write_tools_freeform</text>
     </g>
    </g>
    <g id="xtick_7">
     <g id="line2d_7"/>
     <g id="text_7">
      <text style="font-size: 9px; font-family: 'DejaVu Sans', 'Bitstream Vera Sans', 'Computer Modern Sans Serif', 'Lucida Grande', 'Verdana', 'Geneva', 'Lucid', 'Arial', 'Helvetica', 'Avant Garde', sans-serif; fill: #898781" transform="translate(358.827127 310.063634) rotate(-25)">write_tools_freeform_inlinedbt</text>
     </g>
    </g>
   </g>
   <g id="matplotlib.axis_2">
    <g id="ytick_1">
     <g id="line2d_8">
      <path d="M 71.715 242.896283 
L 528.12 242.896283 
" clip-path="url(#p737ac78ea9)" style="fill: none; stroke: #898781; stroke-opacity: 0.18; stroke-width: 0.6; stroke-linecap: square"/>
     </g>
     <g id="line2d_9"/>
     <g id="text_8">
      <text style="font-size: 11px; font-family: 'DejaVu Sans', 'Bitstream Vera Sans', 'Computer Modern Sans Serif', 'Lucida Grande', 'Verdana', 'Geneva', 'Lucid', 'Arial', 'Helvetica', 'Avant Garde', sans-serif; text-anchor: end" x="68.215" y="247.075424" transform="rotate(-0 68.215 247.075424)">0</text>
     </g>
    </g>
    <g id="ytick_2">
     <g id="line2d_10">
      <path d="M 71.715 215.76517 
L 528.12 215.76517 
" clip-path="url(#p737ac78ea9)" style="fill: none; stroke: #898781; stroke-opacity: 0.18; stroke-width: 0.6; stroke-linecap: square"/>
     </g>
     <g id="line2d_11"/>
     <g id="text_9">
      <text style="font-size: 11px; font-family: 'DejaVu Sans', 'Bitstream Vera Sans', 'Computer Modern Sans Serif', 'Lucida Grande', 'Verdana', 'Geneva', 'Lucid', 'Arial', 'Helvetica', 'Avant Garde', sans-serif; text-anchor: end" x="68.215" y="219.944311" transform="rotate(-0 68.215 219.944311)">100000</text>
     </g>
    </g>
    <g id="ytick_3">
     <g id="line2d_12">
      <path d="M 71.715 188.634057 
L 528.12 188.634057 
" clip-path="url(#p737ac78ea9)" style="fill: none; stroke: #898781; stroke-opacity: 0.18; stroke-width: 0.6; stroke-linecap: square"/>
     </g>
     <g id="line2d_13"/>
     <g id="text_10">
      <text style="font-size: 11px; font-family: 'DejaVu Sans', 'Bitstream Vera Sans', 'Computer Modern Sans Serif', 'Lucida Grande', 'Verdana', 'Geneva', 'Lucid', 'Arial', 'Helvetica', 'Avant Garde', sans-serif; text-anchor: end" x="68.215" y="192.813197" transform="rotate(-0 68.215 192.813197)">200000</text>
     </g>
    </g>
    <g id="ytick_4">
     <g id="line2d_14">
      <path d="M 71.715 161.502943 
L 528.12 161.502943 
" clip-path="url(#p737ac78ea9)" style="fill: none; stroke: #898781; stroke-opacity: 0.18; stroke-width: 0.6; stroke-linecap: square"/>
     </g>
     <g id="line2d_15"/>
     <g id="text_11">
      <text style="font-size: 11px; font-family: 'DejaVu Sans', 'Bitstream Vera Sans', 'Computer Modern Sans Serif', 'Lucida Grande', 'Verdana', 'Geneva', 'Lucid', 'Arial', 'Helvetica', 'Avant Garde', sans-serif; text-anchor: end" x="68.215" y="165.682084" transform="rotate(-0 68.215 165.682084)">300000</text>
     </g>
    </g>
    <g id="ytick_5">
     <g id="line2d_16">
      <path d="M 71.715 134.37183 
L 528.12 134.37183 
" clip-path="url(#p737ac78ea9)" style="fill: none; stroke: #898781; stroke-opacity: 0.18; stroke-width: 0.6; stroke-linecap: square"/>
     </g>
     <g id="line2d_17"/>
     <g id="text_12">
      <text style="font-size: 11px; font-family: 'DejaVu Sans', 'Bitstream Vera Sans', 'Computer Modern Sans Serif', 'Lucida Grande', 'Verdana', 'Geneva', 'Lucid', 'Arial', 'Helvetica', 'Avant Garde', sans-serif; text-anchor: end" x="68.215" y="138.550971" transform="rotate(-0 68.215 138.550971)">400000</text>
     </g>
    </g>
    <g id="ytick_6">
     <g id="line2d_18">
      <path d="M 71.715 107.240717 
L 528.12 107.240717 
" clip-path="url(#p737ac78ea9)" style="fill: none; stroke: #898781; stroke-opacity: 0.18; stroke-width: 0.6; stroke-linecap: square"/>
     </g>
     <g id="line2d_19"/>
     <g id="text_13">
      <text style="font-size: 11px; font-family: 'DejaVu Sans', 'Bitstream Vera Sans', 'Computer Modern Sans Serif', 'Lucida Grande', 'Verdana', 'Geneva', 'Lucid', 'Arial', 'Helvetica', 'Avant Garde', sans-serif; text-anchor: end" x="68.215" y="111.419857" transform="rotate(-0 68.215 111.419857)">500000</text>
     </g>
    </g>
    <g id="ytick_7">
     <g id="line2d_20">
      <path d="M 71.715 80.109604 
L 528.12 80.109604 
" clip-path="url(#p737ac78ea9)" style="fill: none; stroke: #898781; stroke-opacity: 0.18; stroke-width: 0.6; stroke-linecap: square"/>
     </g>
     <g id="line2d_21"/>
     <g id="text_14">
      <text style="font-size: 11px; font-family: 'DejaVu Sans', 'Bitstream Vera Sans', 'Computer Modern Sans Serif', 'Lucida Grande', 'Verdana', 'Geneva', 'Lucid', 'Arial', 'Helvetica', 'Avant Garde', sans-serif; text-anchor: end" x="68.215" y="84.288744" transform="rotate(-0 68.215 84.288744)">600000</text>
     </g>
    </g>
    <g id="ytick_8">
     <g id="line2d_22">
      <path d="M 71.715 52.97849 
L 528.12 52.97849 
" clip-path="url(#p737ac78ea9)" style="fill: none; stroke: #898781; stroke-opacity: 0.18; stroke-width: 0.6; stroke-linecap: square"/>
     </g>
     <g id="line2d_23"/>
     <g id="text_15">
      <text style="font-size: 11px; font-family: 'DejaVu Sans', 'Bitstream Vera Sans', 'Computer Modern Sans Serif', 'Lucida Grande', 'Verdana', 'Geneva', 'Lucid', 'Arial', 'Helvetica', 'Avant Garde', sans-serif; text-anchor: end" x="68.215" y="57.157631" transform="rotate(-0 68.215 57.157631)">700000</text>
     </g>
    </g>
    <g id="text_16">
     <text style="font-size: 11px; font-family: 'DejaVu Sans', 'Bitstream Vera Sans', 'Computer Modern Sans Serif', 'Lucida Grande', 'Verdana', 'Geneva', 'Lucid', 'Arial', 'Helvetica', 'Avant Garde', sans-serif; text-anchor: middle; fill: #0b0b0b" x="19.934844" y="135.068142" transform="rotate(-90 19.934844 135.068142)">Tokens/run (in+out)</text>
    </g>
   </g>
   <g id="patch_3">
    <path d="M 71.715 242.896283 
L 71.715 27.24 
" style="fill: none; stroke: #000000; stroke-width: 0.8; stroke-linejoin: miter; stroke-linecap: square"/>
   </g>
   <g id="patch_4">
    <path d="M 71.715 242.896283 
L 528.12 242.896283 
" style="fill: none; stroke: #000000; stroke-width: 0.8; stroke-linejoin: miter; stroke-linecap: square"/>
   </g>
   <g id="patch_5">
    <path d="M 92.460682 242.896283 
L 116.867366 242.896283 
L 116.867366 210.147944 
L 92.460682 210.147944 
z
" clip-path="url(#p737ac78ea9)" style="fill: #c40d1e"/>
   </g>
   <g id="patch_6">
    <path d="M 153.477393 242.896283 
L 177.884078 242.896283 
L 177.884078 231.676076 
L 153.477393 231.676076 
z
" clip-path="url(#p737ac78ea9)" style="fill: #ff6c00"/>
   </g>
   <g id="patch_7">
    <path d="M 214.494104 242.896283 
L 238.900789 242.896283 
L 238.900789 211.904141 
L 214.494104 211.904141 
z
" clip-path="url(#p737ac78ea9)" style="fill: #e8a800"/>
   </g>
   <g id="patch_8">
    <path d="M 275.510816 242.896283 
L 299.9175 242.896283 
L 299.9175 215.618662 
L 275.510816 215.618662 
z
" clip-path="url(#p737ac78ea9)" style="fill: #4f9d2e"/>
   </g>
   <g id="patch_9">
    <path d="M 336.527527 242.896283 
L 360.934211 242.896283 
L 360.934211 235.839616 
L 336.527527 235.839616 
z
" clip-path="url(#p737ac78ea9)" style="fill: #b5297a"/>
   </g>
   <g id="patch_10">
    <path d="M 397.544238 242.896283 
L 421.950922 242.896283 
L 421.950922 227.215314 
L 397.544238 227.215314 
z
" clip-path="url(#p737ac78ea9)" style="fill: #2f6fb0"/>
   </g>
   <g id="patch_11">
    <path d="M 458.560949 242.896283 
L 482.967634 242.896283 
L 482.967634 213.515323 
L 458.560949 213.515323 
z
" clip-path="url(#p737ac78ea9)" style="fill: #7fb0dd"/>
   </g>
   <g id="patch_12">
    <path d="M 116.867366 242.896283 
L 141.274051 242.896283 
L 141.274051 177.861377 
L 116.867366 177.861377 
z
" clip-path="url(#p737ac78ea9)" style="fill: url(#hcba8cc28bb)"/>
   </g>
   <g id="patch_13">
    <path d="M 177.884078 242.896283 
L 202.290762 242.896283 
L 202.290762 230.555697 
L 177.884078 230.555697 
z
" clip-path="url(#p737ac78ea9)" style="fill: url(#hc1fb8087d0)"/>
   </g>
   <g id="patch_14">
    <path d="M 238.900789 242.896283 
L 263.307473 242.896283 
L 263.307473 194.654044 
L 238.900789 194.654044 
z
" clip-path="url(#p737ac78ea9)" style="fill: url(#ha0a8144cd5)"/>
   </g>
   <g id="patch_15">
    <path d="M 299.9175 242.896283 
L 324.324184 242.896283 
L 324.324184 131.798173 
L 299.9175 131.798173 
z
" clip-path="url(#p737ac78ea9)" style="fill: url(#hc50275a0da)"/>
   </g>
   <g id="patch_16">
    <path d="M 360.934211 242.896283 
L 385.340896 242.896283 
L 385.340896 225.351406 
L 360.934211 225.351406 
z
" clip-path="url(#p737ac78ea9)" style="fill: url(#h35fdb5e346)"/>
   </g>
   <g id="patch_17">
    <path d="M 421.950922 242.896283 
L 446.357607 242.896283 
L 446.357607 218.471906 
L 421.950922 218.471906 
z
" clip-path="url(#p737ac78ea9)" style="fill: url(#h4886ff7825)"/>
   </g>
   <g id="patch_18">
    <path d="M 482.967634 242.896283 
L 507.374318 242.896283 
L 507.374318 207.13924 
L 482.967634 207.13924 
z
" clip-path="url(#p737ac78ea9)" style="fill: url(#hd88f27817c)"/>
   </g>
   <g id="text_17">
    <text style="font-size: 12px; font-family: 'DejaVu Sans', 'Bitstream Vera Sans', 'Computer Modern Sans Serif', 'Lucida Grande', 'Verdana', 'Geneva', 'Lucid', 'Arial', 'Helvetica', 'Avant Garde', sans-serif; text-anchor: start; fill: #0b0b0b" x="71.715" y="21.24" transform="rotate(-0 71.715 21.24)">Tokens/run (in+out) by strategy — context mode</text>
   </g>
   <g id="LineCollection_1">
    <path d="M 104.664024 212.678192 
L 104.664024 208.384829 
" clip-path="url(#p737ac78ea9)" style="fill: none; stroke: #898781; stroke-width: 0.9"/>
    <path d="M 165.680735 233.102426 
L 165.680735 223.175627 
" clip-path="url(#p737ac78ea9)" style="fill: none; stroke: #898781; stroke-width: 0.9"/>
    <path d="M 226.697447 218.114657 
L 226.697447 209.294467 
" clip-path="url(#p737ac78ea9)" style="fill: none; stroke: #898781; stroke-width: 0.9"/>
    <path d="M 287.714158 222.699883 
L 287.714158 205.260342 
" clip-path="url(#p737ac78ea9)" style="fill: none; stroke: #898781; stroke-width: 0.9"/>
    <path d="M 348.730869 236.324653 
L 348.730869 221.041154 
" clip-path="url(#p737ac78ea9)" style="fill: none; stroke: #898781; stroke-width: 0.9"/>
    <path d="M 409.74758 229.504027 
L 409.74758 220.2338 
" clip-path="url(#p737ac78ea9)" style="fill: none; stroke: #898781; stroke-width: 0.9"/>
    <path d="M 470.764291 226.771652 
L 470.764291 183.547719 
" clip-path="url(#p737ac78ea9)" style="fill: none; stroke: #898781; stroke-width: 0.9"/>
   </g>
   <g id="line2d_24">
    <defs>
     <path id="mc4c6ca10a4" d="M 2 0 
L -2 -0 
" style="stroke: #898781"/>
    </defs>
    <g clip-path="url(#p737ac78ea9)">
     <use xlink:href="#mc4c6ca10a4" x="104.664024" y="212.678192" style="fill: #1f77b4; stroke: #898781"/>
     <use xlink:href="#mc4c6ca10a4" x="165.680735" y="233.102426" style="fill: #1f77b4; stroke: #898781"/>
     <use xlink:href="#mc4c6ca10a4" x="226.697447" y="218.114657" style="fill: #1f77b4; stroke: #898781"/>
     <use xlink:href="#mc4c6ca10a4" x="287.714158" y="222.699883" style="fill: #1f77b4; stroke: #898781"/>
     <use xlink:href="#mc4c6ca10a4" x="348.730869" y="236.324653" style="fill: #1f77b4; stroke: #898781"/>
     <use xlink:href="#mc4c6ca10a4" x="409.74758" y="229.504027" style="fill: #1f77b4; stroke: #898781"/>
     <use xlink:href="#mc4c6ca10a4" x="470.764291" y="226.771652" style="fill: #1f77b4; stroke: #898781"/>
    </g>
   </g>
   <g id="line2d_25">
    <g clip-path="url(#p737ac78ea9)">
     <use xlink:href="#mc4c6ca10a4" x="104.664024" y="208.384829" style="fill: #1f77b4; stroke: #898781"/>
     <use xlink:href="#mc4c6ca10a4" x="165.680735" y="223.175627" style="fill: #1f77b4; stroke: #898781"/>
     <use xlink:href="#mc4c6ca10a4" x="226.697447" y="209.294467" style="fill: #1f77b4; stroke: #898781"/>
     <use xlink:href="#mc4c6ca10a4" x="287.714158" y="205.260342" style="fill: #1f77b4; stroke: #898781"/>
     <use xlink:href="#mc4c6ca10a4" x="348.730869" y="221.041154" style="fill: #1f77b4; stroke: #898781"/>
     <use xlink:href="#mc4c6ca10a4" x="409.74758" y="220.2338" style="fill: #1f77b4; stroke: #898781"/>
     <use xlink:href="#mc4c6ca10a4" x="470.764291" y="183.547719" style="fill: #1f77b4; stroke: #898781"/>
    </g>
   </g>
   <g id="LineCollection_2">
    <path d="M 129.070709 186.977499 
L 129.070709 169.493124 
" clip-path="url(#p737ac78ea9)" style="fill: none; stroke: #898781; stroke-width: 0.9"/>
    <path d="M 190.08742 233.430984 
L 190.08742 222.942367 
" clip-path="url(#p737ac78ea9)" style="fill: none; stroke: #898781; stroke-width: 0.9"/>
    <path d="M 251.104131 199.866202 
L 251.104131 181.688017 
" clip-path="url(#p737ac78ea9)" style="fill: none; stroke: #898781; stroke-width: 0.9"/>
    <path d="M 312.120842 198.361036 
L 312.120842 37.509347 
" clip-path="url(#p737ac78ea9)" style="fill: none; stroke: #898781; stroke-width: 0.9"/>
    <path d="M 373.137553 228.508247 
L 373.137553 211.010036 
" clip-path="url(#p737ac78ea9)" style="fill: none; stroke: #898781; stroke-width: 0.9"/>
    <path d="M 434.154265 227.093292 
L 434.154265 204.412563 
" clip-path="url(#p737ac78ea9)" style="fill: none; stroke: #898781; stroke-width: 0.9"/>
    <path d="M 495.170976 223.764575 
L 495.170976 170.676109 
" clip-path="url(#p737ac78ea9)" style="fill: none; stroke: #898781; stroke-width: 0.9"/>
   </g>
   <g id="line2d_26">
    <g clip-path="url(#p737ac78ea9)">
     <use xlink:href="#mc4c6ca10a4" x="129.070709" y="186.977499" style="fill: #1f77b4; stroke: #898781"/>
     <use xlink:href="#mc4c6ca10a4" x="190.08742" y="233.430984" style="fill: #1f77b4; stroke: #898781"/>
     <use xlink:href="#mc4c6ca10a4" x="251.104131" y="199.866202" style="fill: #1f77b4; stroke: #898781"/>
     <use xlink:href="#mc4c6ca10a4" x="312.120842" y="198.361036" style="fill: #1f77b4; stroke: #898781"/>
     <use xlink:href="#mc4c6ca10a4" x="373.137553" y="228.508247" style="fill: #1f77b4; stroke: #898781"/>
     <use xlink:href="#mc4c6ca10a4" x="434.154265" y="227.093292" style="fill: #1f77b4; stroke: #898781"/>
     <use xlink:href="#mc4c6ca10a4" x="495.170976" y="223.764575" style="fill: #1f77b4; stroke: #898781"/>
    </g>
   </g>
   <g id="line2d_27">
    <g clip-path="url(#p737ac78ea9)">
     <use xlink:href="#mc4c6ca10a4" x="129.070709" y="169.493124" style="fill: #1f77b4; stroke: #898781"/>
     <use xlink:href="#mc4c6ca10a4" x="190.08742" y="222.942367" style="fill: #1f77b4; stroke: #898781"/>
     <use xlink:href="#mc4c6ca10a4" x="251.104131" y="181.688017" style="fill: #1f77b4; stroke: #898781"/>
     <use xlink:href="#mc4c6ca10a4" x="312.120842" y="37.509347" style="fill: #1f77b4; stroke: #898781"/>
     <use xlink:href="#mc4c6ca10a4" x="373.137553" y="211.010036" style="fill: #1f77b4; stroke: #898781"/>
     <use xlink:href="#mc4c6ca10a4" x="434.154265" y="204.412563" style="fill: #1f77b4; stroke: #898781"/>
     <use xlink:href="#mc4c6ca10a4" x="495.170976" y="170.676109" style="fill: #1f77b4; stroke: #898781"/>
    </g>
   </g>
   <g id="legend_1">
    <g id="patch_19">
     <path d="M 428.745937 42.178594 
L 446.745937 42.178594 
L 446.745937 35.878594 
L 428.745937 35.878594 
z
" style="fill: #898781"/>
    </g>
    <g id="text_18">
     <text style="font-size: 9px; font-family: 'DejaVu Sans', 'Bitstream Vera Sans', 'Computer Modern Sans Serif', 'Lucida Grande', 'Verdana', 'Geneva', 'Lucid', 'Arial', 'Helvetica', 'Avant Garde', sans-serif; text-anchor: start; fill: #0b0b0b" x="453.945937" y="42.178594" transform="rotate(-0 453.945937 42.178594)">metadata-only</text>
    </g>
    <g id="patch_20">
     <path d="M 428.745937 55.388906 
L 446.745937 55.388906 
L 446.745937 49.088906 
L 428.745937 49.088906 
z
" style="fill: url(#he0562b2c9b)"/>
    </g>
    <g id="text_19">
     <text style="font-size: 9px; font-family: 'DejaVu Sans', 'Bitstream Vera Sans', 'Computer Modern Sans Serif', 'Lucida Grande', 'Verdana', 'Geneva', 'Lucid', 'Arial', 'Helvetica', 'Avant Garde', sans-serif; text-anchor: start; fill: #0b0b0b" x="453.945937" y="55.388906" transform="rotate(-0 453.945937 55.388906)">live-query</text>
    </g>
   </g>
  </g>
 </g>
 <defs>
  <clipPath id="p737ac78ea9">
   <rect x="71.715" y="27.24" width="456.405" height="215.656283"/>
  </clipPath>
 </defs>
 <defs>
  <pattern id="hcba8cc28bb" patternUnits="userSpaceOnUse" x="0" y="0" width="72" height="72">
   <rect x="0" y="0" width="73" height="73" fill="#c40d1e"/>
   <path d="M -36 36 
L 36 -36 
M -32 40 
L 40 -32 
M -28 44 
L 44 -28 
M -24 48 
L 48 -24 
M -20 52 
L 52 -20 
M -16 56 
L 56 -16 
M -12 60 
L 60 -12 
M -8 64 
L 64 -8 
M -4 68 
L 68 -4 
M 0 72 
L 72 0 
M 4 76 
L 76 4 
M 8 80 
L 80 8 
M 12 84 
L 84 12 
M 16 88 
L 88 16 
M 20 92 
L 92 20 
M 24 96 
L 96 24 
M 28 100 
L 100 28 
M 32 104 
L 104 32 
M 36 108 
L 108 36 
" style="fill: #ffffff; stroke: #ffffff; stroke-width: 0.5; stroke-linecap: butt; stroke-linejoin: miter"/>
  </pattern>
  <pattern id="hc1fb8087d0" patternUnits="userSpaceOnUse" x="0" y="0" width="72" height="72">
   <rect x="0" y="0" width="73" height="73" fill="#ff6c00"/>
   <path d="M -36 36 
L 36 -36 
M -32 40 
L 40 -32 
M -28 44 
L 44 -28 
M -24 48 
L 48 -24 
M -20 52 
L 52 -20 
M -16 56 
L 56 -16 
M -12 60 
L 60 -12 
M -8 64 
L 64 -8 
M -4 68 
L 68 -4 
M 0 72 
L 72 0 
M 4 76 
L 76 4 
M 8 80 
L 80 8 
M 12 84 
L 84 12 
M 16 88 
L 88 16 
M 20 92 
L 92 20 
M 24 96 
L 96 24 
M 28 100 
L 100 28 
M 32 104 
L 104 32 
M 36 108 
L 108 36 
" style="fill: #ffffff; stroke: #ffffff; stroke-width: 0.5; stroke-linecap: butt; stroke-linejoin: miter"/>
  </pattern>
  <pattern id="ha0a8144cd5" patternUnits="userSpaceOnUse" x="0" y="0" width="72" height="72">
   <rect x="0" y="0" width="73" height="73" fill="#e8a800"/>
   <path d="M -36 36 
L 36 -36 
M -32 40 
L 40 -32 
M -28 44 
L 44 -28 
M -24 48 
L 48 -24 
M -20 52 
L 52 -20 
M -16 56 
L 56 -16 
M -12 60 
L 60 -12 
M -8 64 
L 64 -8 
M -4 68 
L 68 -4 
M 0 72 
L 72 0 
M 4 76 
L 76 4 
M 8 80 
L 80 8 
M 12 84 
L 84 12 
M 16 88 
L 88 16 
M 20 92 
L 92 20 
M 24 96 
L 96 24 
M 28 100 
L 100 28 
M 32 104 
L 104 32 
M 36 108 
L 108 36 
" style="fill: #ffffff; stroke: #ffffff; stroke-width: 0.5; stroke-linecap: butt; stroke-linejoin: miter"/>
  </pattern>
  <pattern id="hc50275a0da" patternUnits="userSpaceOnUse" x="0" y="0" width="72" height="72">
   <rect x="0" y="0" width="73" height="73" fill="#4f9d2e"/>
   <path d="M -36 36 
L 36 -36 
M -32 40 
L 40 -32 
M -28 44 
L 44 -28 
M -24 48 
L 48 -24 
M -20 52 
L 52 -20 
M -16 56 
L 56 -16 
M -12 60 
L 60 -12 
M -8 64 
L 64 -8 
M -4 68 
L 68 -4 
M 0 72 
L 72 0 
M 4 76 
L 76 4 
M 8 80 
L 80 8 
M 12 84 
L 84 12 
M 16 88 
L 88 16 
M 20 92 
L 92 20 
M 24 96 
L 96 24 
M 28 100 
L 100 28 
M 32 104 
L 104 32 
M 36 108 
L 108 36 
" style="fill: #ffffff; stroke: #ffffff; stroke-width: 0.5; stroke-linecap: butt; stroke-linejoin: miter"/>
  </pattern>
  <pattern id="h35fdb5e346" patternUnits="userSpaceOnUse" x="0" y="0" width="72" height="72">
   <rect x="0" y="0" width="73" height="73" fill="#b5297a"/>
   <path d="M -36 36 
L 36 -36 
M -32 40 
L 40 -32 
M -28 44 
L 44 -28 
M -24 48 
L 48 -24 
M -20 52 
L 52 -20 
M -16 56 
L 56 -16 
M -12 60 
L 60 -12 
M -8 64 
L 64 -8 
M -4 68 
L 68 -4 
M 0 72 
L 72 0 
M 4 76 
L 76 4 
M 8 80 
L 80 8 
M 12 84 
L 84 12 
M 16 88 
L 88 16 
M 20 92 
L 92 20 
M 24 96 
L 96 24 
M 28 100 
L 100 28 
M 32 104 
L 104 32 
M 36 108 
L 108 36 
" style="fill: #ffffff; stroke: #ffffff; stroke-width: 0.5; stroke-linecap: butt; stroke-linejoin: miter"/>
  </pattern>
  <pattern id="h4886ff7825" patternUnits="userSpaceOnUse" x="0" y="0" width="72" height="72">
   <rect x="0" y="0" width="73" height="73" fill="#2f6fb0"/>
   <path d="M -36 36 
L 36 -36 
M -32 40 
L 40 -32 
M -28 44 
L 44 -28 
M -24 48 
L 48 -24 
M -20 52 
L 52 -20 
M -16 56 
L 56 -16 
M -12 60 
L 60 -12 
M -8 64 
L 64 -8 
M -4 68 
L 68 -4 
M 0 72 
L 72 0 
M 4 76 
L 76 4 
M 8 80 
L 80 8 
M 12 84 
L 84 12 
M 16 88 
L 88 16 
M 20 92 
L 92 20 
M 24 96 
L 96 24 
M 28 100 
L 100 28 
M 32 104 
L 104 32 
M 36 108 
L 108 36 
" style="fill: #ffffff; stroke: #ffffff; stroke-width: 0.5; stroke-linecap: butt; stroke-linejoin: miter"/>
  </pattern>
  <pattern id="hd88f27817c" patternUnits="userSpaceOnUse" x="0" y="0" width="72" height="72">
   <rect x="0" y="0" width="73" height="73" fill="#7fb0dd"/>
   <path d="M -36 36 
L 36 -36 
M -32 40 
L 40 -32 
M -28 44 
L 44 -28 
M -24 48 
L 48 -24 
M -20 52 
L 52 -20 
M -16 56 
L 56 -16 
M -12 60 
L 60 -12 
M -8 64 
L 64 -8 
M -4 68 
L 68 -4 
M 0 72 
L 72 0 
M 4 76 
L 76 4 
M 8 80 
L 80 8 
M 12 84 
L 84 12 
M 16 88 
L 88 16 
M 20 92 
L 92 20 
M 24 96 
L 96 24 
M 28 100 
L 100 28 
M 32 104 
L 104 32 
M 36 108 
L 108 36 
" style="fill: #ffffff; stroke: #ffffff; stroke-width: 0.5; stroke-linecap: butt; stroke-linejoin: miter"/>
  </pattern>
  <pattern id="he0562b2c9b" patternUnits="userSpaceOnUse" x="0" y="0" width="72" height="72">
   <rect x="0" y="0" width="73" height="73" fill="#898781"/>
   <path d="M -36 36 
L 36 -36 
M -32 40 
L 40 -32 
M -28 44 
L 44 -28 
M -24 48 
L 48 -24 
M -20 52 
L 52 -20 
M -16 56 
L 56 -16 
M -12 60 
L 60 -12 
M -8 64 
L 64 -8 
M -4 68 
L 68 -4 
M 0 72 
L 72 0 
M 4 76 
L 76 4 
M 8 80 
L 80 8 
M 12 84 
L 84 12 
M 16 88 
L 88 16 
M 20 92 
L 92 20 
M 24 96 
L 96 24 
M 28 100 
L 100 28 
M 32 104 
L 104 32 
M 36 108 
L 108 36 
" style="fill: #ffffff; stroke: #ffffff; stroke-width: 0.5; stroke-linecap: butt; stroke-linejoin: miter"/>
  </pattern>
 </defs>
</svg>
