<?xml version="1.0" encoding="utf-8" standalone="no"?>
<!DOCTYPE svg PUBLIC "-//W3C//DTD SVG 1.1//EN"
  "http://www.w3.org/Graphics/SVG/1.1/DTD/svg11.dtd">
<svg xmlns:xlink="http://www.w3.org/1999/xlink" width="540pt" height="324pt" viewBox="0 0 540 324" xmlns="http://www.w3.org/2000/svg" version="1.1">
 <metadata>
  <rdf:RDF xmlns:dc="http://purl.org/dc/elements/1.1/" xmlns:cc="http://creativecommons.org/ns#" xmlns:rdf="http://www.w3.org/1999/02/22-rdf-syntax-ns#">
   <cc:Work>
    <dc:type rdf:resource="http://purl.org/dc/dcmitype/StillImage"/>
    <dc:format>image/svg+xml</dc:format>
    <dc:creator>
     <cc:Agent>
      <dc:title>Matplotlib v3.10.9, https://matplotlib.org/</dc:title>
     </cc:Agent>
    </dc:creator>
   </cc:Work>
  </rdf:RDF>
 </metadata>
 <defs>
  <style type="text/css">*{stroke-linejoin: round; stroke-linecap: butt}</style>
 </defs>
 <g id="figure_1">
  <g id="patch_1">
   <path d="M 0 324 
L 540 324 
L 540 0 
L 0 0 
L 0 324 
z
" style="fill: none"/>
  </g>
  <g id="axes_1">
   <g id="patch_2">
    <path d="M 75.215 239.396283 
L 528.12 239.396283 
L 528.12 27.24 
L 75.215 27.24 
L 75.215 239.396283 
z
" style="fill: none"/>
   </g>
   <g id="matplotlib.axis_1">
    <g id="xtick_1">
     <g id="line2d_1">
      <path d="M 120.02111 239.396283 
L 120.02111 27.24 
" clip-path="url(#p0359bf51c5)" style="fill: none; stroke: #b0b0b0; stroke-opacity: 0.3; stroke-width: 0.8; stroke-linecap: square"/>
     </g>
     <g id="line2d_2">
      <defs>
       <path id="m5b5fbc821a" d="M 0 0 
L 0 3.5 
" style="stroke: #000000; stroke-width: 0.8"/>
      </defs>
      <g>
       <use xlink:href="#m5b5fbc821a" x="120.02111" y="239.396283" style="stroke: #000000; stroke-width: 0.8"/>
      </g>
     </g>
     <g id="text_1">
      <text style="font-size: 9px; font-family: 'DejaVu Sans', 'Bitstream Vera Sans', 'Computer Modern Sans Serif', 'Lucida Grande', 'Verdana', 'Geneva', 'Lucid', 'Arial', 'Helvetica', 'Avant Garde', sans-serif; fill: #0b0b0b" transform="translate(57.145593 281.4953) rotate(-25)">ensemble_vote</text>
     </g>
    </g>
    <g id="xtick_2">
     <g id="line2d_3">
      <path d="M 180.569906 239.396283 
L 180.569906 27.24 
" clip-path="url(#p0359bf51c5)" style="fill: none; stroke: #b0b0b0; stroke-opacity: 0.3; stroke-width: 0.8; stroke-linecap: square"/>
     </g>
     <g id="line2d_4">
      <g>
       <use xlink:href="#m5b5fbc821a" x="180.569906" y="239.396283" style="stroke: #000000; stroke-width: 0.8"/>
      </g>
     </g>
     <g id="text_2">
      <text style="font-size: 9px; font-family: 'DejaVu Sans', 'Bitstream Vera Sans', 'Computer Modern Sans Serif', 'Lucida Grande', 'Verdana', 'Geneva', 'Lucid', 'Arial', 'Helvetica', 'Avant Garde', sans-serif; fill: #0b0b0b" transform="translate(103.009654 288.342905) rotate(-25)">plan_then_execute</text>
     </g>
    </g>
    <g id="xtick_3">
     <g id="line2d_5">
      <path d="M 241.118703 239.396283 
L 241.118703 27.24 
" clip-path="url(#p0359bf51c5)" style="fill: none; stroke: #b0b0b0; stroke-opacity: 0.3; stroke-width: 0.8; stroke-linecap: square"/>
     </g>
     <g id="line2d_6">
      <g>
       <use xlink:href="#m5b5fbc821a" x="241.118703" y="239.396283" style="stroke: #000000; stroke-width: 0.8"/>
      </g>
     </g>
     <g id="text_3">
      <text style="font-size: 9px; font-family: 'DejaVu Sans', 'Bitstream Vera Sans', 'Computer Modern Sans Serif', 'Lucida Grande', 'Verdana', 'Geneva', 'Lucid', 'Arial', 'Helvetica', 'Avant Garde', sans-serif; fill: #0b0b0b" transform="translate(162.068566 289.037649) rotate(-25)">write_then_critique</text>
     </g>
    </g>
    <g id="xtick_4">
     <g id="line2d_7">
      <path d="M 301.6675 239.396283 
L 301.6675 27.24 
" clip-path="url(#p0359bf51c5)" style="fill: none; stroke: #b0b0b0; stroke-opacity: 0.3; stroke-width: 0.8; stroke-linecap: square"/>
     </g>
     <g id="line2d_8">
      <g>
       <use xlink:href="#m5b5fbc821a" x="301.6675" y="239.396283" style="stroke: #000000; stroke-width: 0.8"/>
      </g>
     </g>
     <g id="text_4">
      <text style="font-size: 9px; font-family: 'DejaVu Sans', 'Bitstream Vera Sans', 'Computer Modern Sans Serif', 'Lucida Grande', 'Verdana', 'Geneva', 'Lucid', 'Arial', 'Helvetica', 'Avant Garde', sans-serif; fill: #0b0b0b" transform="translate(223.56049 288.597862) rotate(-25)">plan_write_critique</text>
     </g>
    </g>
    <g id="xtick_5">
     <g id="line2d_9">
      <path d="M 362.216297 239.396283 
L 362.216297 27.24 
" clip-path="url(#p0359bf51c5)" style="fill: none; stroke: #b0b0b0; stroke-opacity: 0.3; stroke-width: 0.8; stroke-linecap: square"/>
     </g>
     <g id="line2d_10">
      <g>
       <use xlink:href="#m5b5fbc821a" x="362.216297" y="239.396283" style="stroke: #000000; stroke-width: 0.8"/>
      </g>
     </g>
     <g id="text_5">
      <text style="font-size: 9px; font-family: 'DejaVu Sans', 'Bitstream Vera Sans', 'Computer Modern Sans Serif', 'Lucida Grande', 'Verdana', 'Geneva', 'Lucid', 'Arial', 'Helvetica', 'Avant Garde', sans-serif; fill: #0b0b0b" transform="translate(276.76437 292.022853) rotate(-25)">structured_per_table</text>
     </g>
    </g>
    <g id="xtick_6">
     <g id="line2d_11">
      <path d="M 422.765094 239.396283 
L 422.765094 27.24 
" clip-path="url(#p0359bf51c5)" style="fill: none; stroke: #b0b0b0; stroke-opacity: 0.3; stroke-width: 0.8; stroke-linecap: square"/>
     </g>
     <g id="line2d_12">
      <g>
       <use xlink:href="#m5b5fbc821a" x="422.765094" y="239.396283" style="stroke: #000000; stroke-width: 0.8"/>
      </g>
     </g>
     <g id="text_6">
      <text style="font-size: 9px; font-family: 'DejaVu Sans', 'Bitstream Vera Sans', 'Computer Modern Sans Serif', 'Lucida Grande', 'Verdana', 'Geneva', 'Lucid', 'Arial', 'Helvetica', 'Avant Garde', sans-serif; fill: #0b0b0b" transform="translate(338.413056 291.509966) rotate(-25)">write_tools_freeform</text>
     </g>
    </g>
    <g id="xtick_7">
     <g id="line2d_13">
      <path d="M 483.31389 239.396283 
L 483.31389 27.24 
" clip-path="url(#p0359bf51c5)" style="fill: none; stroke: #b0b0b0; stroke-opacity: 0.3; stroke-width: 0.8; stroke-linecap: square"/>
     </g>
     <g id="line2d_14">
      <g>
       <use xlink:href="#m5b5fbc821a" x="483.31389" y="239.396283" style="stroke: #000000; stroke-width: 0.8"/>
      </g>
     </g>
     <g id="text_7">
      <text style="font-size: 9px; font-family: 'DejaVu Sans', 'Bitstream Vera Sans', 'Computer Modern Sans Serif', 'Lucida Grande', 'Verdana', 'Geneva', 'Lucid', 'Arial', 'Helvetica', 'Avant Garde', sans-serif; fill: #0b0b0b" transform="translate(359.173383 310.063634) rotate(-25)">write_tools_freeform_inlinedbt</text>
     </g>
    </g>
   </g>
   <g id="matplotlib.axis_2">
    <g id="ytick_1">
     <g id="line2d_15">
      <path d="M 75.215 239.396283 
L 528.12 239.396283 
" clip-path="url(#p0359bf51c5)" style="fill: none; stroke: #b0b0b0; stroke-opacity: 0.3; stroke-width: 0.8; stroke-linecap: square"/>
     </g>
     <g id="line2d_16">
      <defs>
       <path id="mc419931492" d="M 0 0 
L -3.5 0 
" style="stroke: #000000; stroke-width: 0.8"/>
      </defs>
      <g>
       <use xlink:href="#mc419931492" x="75.215" y="239.396283" style="stroke: #000000; stroke-width: 0.8"/>
      </g>
     </g>
     <g id="text_8">
      <text style="font-size: 11px; font-family: 'DejaVu Sans', 'Bitstream Vera Sans', 'Computer Modern Sans Serif', 'Lucida Grande', 'Verdana', 'Geneva', 'Lucid', 'Arial', 'Helvetica', 'Avant Garde', sans-serif; text-anchor: end" x="68.215" y="243.575424" transform="rotate(-0 68.215 243.575424)">0</text>
     </g>
    </g>
    <g id="ytick_2">
     <g id="line2d_17">
      <path d="M 75.215 196.240925 
L 528.12 196.240925 
" clip-path="url(#p0359bf51c5)" style="fill: none; stroke: #b0b0b0; stroke-opacity: 0.3; stroke-width: 0.8; stroke-linecap: square"/>
     </g>
     <g id="line2d_18">
      <g>
       <use xlink:href="#mc419931492" x="75.215" y="196.240925" style="stroke: #000000; stroke-width: 0.8"/>
      </g>
     </g>
     <g id="text_9">
      <text style="font-size: 11px; font-family: 'DejaVu Sans', 'Bitstream Vera Sans', 'Computer Modern Sans Serif', 'Lucida Grande', 'Verdana', 'Geneva', 'Lucid', 'Arial', 'Helvetica', 'Avant Garde', sans-serif; text-anchor: end" x="68.215" y="200.420066" transform="rotate(-0 68.215 200.420066)">100000</text>
     </g>
    </g>
    <g id="ytick_3">
     <g id="line2d_19">
      <path d="M 75.215 153.085567 
L 528.12 153.085567 
" clip-path="url(#p0359bf51c5)" style="fill: none; stroke: #b0b0b0; stroke-opacity: 0.3; stroke-width: 0.8; stroke-linecap: square"/>
     </g>
     <g id="line2d_20">
      <g>
       <use xlink:href="#mc419931492" x="75.215" y="153.085567" style="stroke: #000000; stroke-width: 0.8"/>
      </g>
     </g>
     <g id="text_10">
      <text style="font-size: 11px; font-family: 'DejaVu Sans', 'Bitstream Vera Sans', 'Computer Modern Sans Serif', 'Lucida Grande', 'Verdana', 'Geneva', 'Lucid', 'Arial', 'Helvetica', 'Avant Garde', sans-serif; text-anchor: end" x="68.215" y="157.264707" transform="rotate(-0 68.215 157.264707)">200000</text>
     </g>
    </g>
    <g id="ytick_4">
     <g id="line2d_21">
      <path d="M 75.215 109.930209 
L 528.12 109.930209 
" clip-path="url(#p0359bf51c5)" style="fill: none; stroke: #b0b0b0; stroke-opacity: 0.3; stroke-width: 0.8; stroke-linecap: square"/>
     </g>
     <g id="line2d_22">
      <g>
       <use xlink:href="#mc419931492" x="75.215" y="109.930209" style="stroke: #000000; stroke-width: 0.8"/>
      </g>
     </g>
     <g id="text_11">
      <text style="font-size: 11px; font-family: 'DejaVu Sans', 'Bitstream Vera Sans', 'Computer Modern Sans Serif', 'Lucida Grande', 'Verdana', 'Geneva', 'Lucid', 'Arial', 'Helvetica', 'Avant Garde', sans-serif; text-anchor: end" x="68.215" y="114.109349" transform="rotate(-0 68.215 114.109349)">300000</text>
     </g>
    </g>
    <g id="ytick_5">
     <g id="line2d_23">
      <path d="M 75.215 66.77485 
L 528.12 66.77485 
" clip-path="url(#p0359bf51c5)" style="fill: none; stroke: #b0b0b0; stroke-opacity: 0.3; stroke-width: 0.8; stroke-linecap: square"/>
     </g>
     <g id="line2d_24">
      <g>
       <use xlink:href="#mc419931492" x="75.215" y="66.77485" style="stroke: #000000; stroke-width: 0.8"/>
      </g>
     </g>
     <g id="text_12">
      <text style="font-size: 11px; font-family: 'DejaVu Sans', 'Bitstream Vera Sans', 'Computer Modern Sans Serif', 'Lucida Grande', 'Verdana', 'Geneva', 'Lucid', 'Arial', 'Helvetica', 'Avant Garde', sans-serif; text-anchor: end" x="68.215" y="70.953991" transform="rotate(-0 68.215 70.953991)">400000</text>
     </g>
    </g>
    <g id="text_13">
     <text style="font-size: 11px; font-family: 'DejaVu Sans', 'Bitstream Vera Sans', 'Computer Modern Sans Serif', 'Lucida Grande', 'Verdana', 'Geneva', 'Lucid', 'Arial', 'Helvetica', 'Avant Garde', sans-serif; text-anchor: middle; fill: #0b0b0b" x="19.934844" y="133.318142" transform="rotate(-90 19.934844 133.318142)">Tokens/run (in+out)</text>
    </g>
   </g>
   <g id="patch_3">
    <path d="M 75.215 239.396283 
L 75.215 27.24 
" style="fill: none; stroke: #000000; stroke-width: 0.8; stroke-linejoin: miter; stroke-linecap: square"/>
   </g>
   <g id="patch_4">
    <path d="M 75.215 239.396283 
L 528.12 239.396283 
" style="fill: none; stroke: #000000; stroke-width: 0.8; stroke-linejoin: miter; stroke-linecap: square"/>
   </g>
   <g id="patch_5">
    <path d="M 95.801591 239.396283 
L 120.02111 239.396283 
L 120.02111 166.997991 
L 95.801591 166.997991 
z
" clip-path="url(#p0359bf51c5)" style="fill: #c40d1e; stroke: #0b0b0b; stroke-width: 0.6; stroke-linejoin: miter"/>
   </g>
   <g id="patch_6">
    <path d="M 156.350388 239.396283 
L 180.569906 239.396283 
L 180.569906 223.126282 
L 156.350388 223.126282 
z
" clip-path="url(#p0359bf51c5)" style="fill: #ff6c00; stroke: #0b0b0b; stroke-width: 0.6; stroke-linejoin: miter"/>
   </g>
   <g id="patch_7">
    <path d="M 216.899184 239.396283 
L 241.118703 239.396283 
L 241.118703 187.339054 
L 216.899184 187.339054 
z
" clip-path="url(#p0359bf51c5)" style="fill: #e8a800; stroke: #0b0b0b; stroke-width: 0.6; stroke-linejoin: miter"/>
   </g>
   <g id="patch_8">
    <path d="M 337.996778 239.396283 
L 362.216297 239.396283 
L 362.216297 226.028695 
L 337.996778 226.028695 
z
" clip-path="url(#p0359bf51c5)" style="fill: #b5297a; stroke: #0b0b0b; stroke-width: 0.6; stroke-linejoin: miter"/>
   </g>
   <g id="patch_9">
    <path d="M 398.545575 239.396283 
L 422.765094 239.396283 
L 422.765094 214.398111 
L 398.545575 214.398111 
z
" clip-path="url(#p0359bf51c5)" style="fill: #2f6fb0; stroke: #0b0b0b; stroke-width: 0.6; stroke-linejoin: miter"/>
   </g>
   <g id="patch_10">
    <path d="M 120.02111 239.396283 
L 144.240628 239.396283 
L 144.240628 154.337504 
L 120.02111 154.337504 
z
" clip-path="url(#p0359bf51c5)" style="fill: url(#h2c4f3e213c); stroke: #0b0b0b; stroke-width: 0.6; stroke-linejoin: miter"/>
   </g>
   <g id="patch_11">
    <path d="M 180.569906 239.396283 
L 204.789425 239.396283 
L 204.789425 208.258182 
L 180.569906 208.258182 
z
" clip-path="url(#p0359bf51c5)" style="fill: url(#hde1c5deb5b); stroke: #0b0b0b; stroke-width: 0.6; stroke-linejoin: miter"/>
   </g>
   <g id="patch_12">
    <path d="M 241.118703 239.396283 
L 265.338222 239.396283 
L 265.338222 170.638793 
L 241.118703 170.638793 
z
" clip-path="url(#p0359bf51c5)" style="fill: url(#h3b040b09d2); stroke: #0b0b0b; stroke-width: 0.6; stroke-linejoin: miter"/>
   </g>
   <g id="patch_13">
    <path d="M 301.6675 239.396283 
L 325.887019 239.396283 
L 325.887019 174.835867 
L 301.6675 174.835867 
z
" clip-path="url(#p0359bf51c5)" style="fill: url(#h760d38279b); stroke: #0b0b0b; stroke-width: 0.6; stroke-linejoin: miter"/>
   </g>
   <g id="patch_14">
    <path d="M 362.216297 239.396283 
L 386.435816 239.396283 
L 386.435816 204.51467 
L 362.216297 204.51467 
z
" clip-path="url(#p0359bf51c5)" style="fill: url(#hb948ce9db8); stroke: #0b0b0b; stroke-width: 0.6; stroke-linejoin: miter"/>
   </g>
   <g id="patch_15">
    <path d="M 422.765094 239.396283 
L 446.984612 239.396283 
L 446.984612 202.802266 
L 422.765094 202.802266 
z
" clip-path="url(#p0359bf51c5)" style="fill: url(#ha77093a1e9); stroke: #0b0b0b; stroke-width: 0.6; stroke-linejoin: miter"/>
   </g>
   <g id="patch_16">
    <path d="M 483.31389 239.396283 
L 507.533409 239.396283 
L 507.533409 182.520326 
L 483.31389 182.520326 
z
" clip-path="url(#p0359bf51c5)" style="fill: url(#h92202bc8c5); stroke: #0b0b0b; stroke-width: 0.6; stroke-linejoin: miter"/>
   </g>
   <g id="text_14">
    <text style="font-size: 12px; font-family: 'DejaVu Sans', 'Bitstream Vera Sans', 'Computer Modern Sans Serif', 'Lucida Grande', 'Verdana', 'Geneva', 'Lucid', 'Arial', 'Helvetica', 'Avant Garde', sans-serif; text-anchor: start; fill: #0b0b0b" x="75.215" y="21.24" transform="rotate(-0 75.215 21.24)">Tokens/run (in+out) by strategy — self-correction</text>
   </g>
   <g id="LineCollection_1">
    <path d="M 107.91135 187.410907 
L 107.91135 148.833685 
" clip-path="url(#p0359bf51c5)" style="fill: none; stroke: #52514e"/>
    <path d="M 168.460147 224.693253 
L 168.460147 220.075198 
" clip-path="url(#p0359bf51c5)" style="fill: none; stroke: #52514e"/>
    <path d="M 229.008944 196.230676 
L 229.008944 166.204148 
" clip-path="url(#p0359bf51c5)" style="fill: none; stroke: #52514e"/>
    <path d="M 350.106537 228.9433 
L 350.106537 214.866346 
" clip-path="url(#p0359bf51c5)" style="fill: none; stroke: #52514e"/>
    <path d="M 410.655334 219.155557 
L 410.655334 197.029589 
" clip-path="url(#p0359bf51c5)" style="fill: none; stroke: #52514e"/>
   </g>
   <g id="line2d_25">
    <defs>
     <path id="m75f439a4e9" d="M 3 0 
L -3 -0 
" style="stroke: #52514e"/>
    </defs>
    <g clip-path="url(#p0359bf51c5)">
     <use xlink:href="#m75f439a4e9" x="107.91135" y="187.410907" style="fill: #1f77b4; stroke: #52514e"/>
     <use xlink:href="#m75f439a4e9" x="168.460147" y="224.693253" style="fill: #1f77b4; stroke: #52514e"/>
     <use xlink:href="#m75f439a4e9" x="229.008944" y="196.230676" style="fill: #1f77b4; stroke: #52514e"/>
     <use xlink:href="#m75f439a4e9" x="350.106537" y="228.9433" style="fill: #1f77b4; stroke: #52514e"/>
     <use xlink:href="#m75f439a4e9" x="410.655334" y="219.155557" style="fill: #1f77b4; stroke: #52514e"/>
    </g>
   </g>
   <g id="line2d_26">
    <g clip-path="url(#p0359bf51c5)">
     <use xlink:href="#m75f439a4e9" x="107.91135" y="148.833685" style="fill: #1f77b4; stroke: #52514e"/>
     <use xlink:href="#m75f439a4e9" x="168.460147" y="220.075198" style="fill: #1f77b4; stroke: #52514e"/>
     <use xlink:href="#m75f439a4e9" x="229.008944" y="166.204148" style="fill: #1f77b4; stroke: #52514e"/>
     <use xlink:href="#m75f439a4e9" x="350.106537" y="214.866346" style="fill: #1f77b4; stroke: #52514e"/>
     <use xlink:href="#m75f439a4e9" x="410.655334" y="197.029589" style="fill: #1f77b4; stroke: #52514e"/>
    </g>
   </g>
   <g id="LineCollection_2">
    <path d="M 132.130869 187.798658 
L 132.130869 124.359203 
" clip-path="url(#p0359bf51c5)" style="fill: none; stroke: #52514e"/>
    <path d="M 192.679666 220.562853 
L 192.679666 198.353704 
" clip-path="url(#p0359bf51c5)" style="fill: none; stroke: #52514e"/>
    <path d="M 253.228463 187.663798 
L 253.228463 147.498458 
" clip-path="url(#p0359bf51c5)" style="fill: none; stroke: #52514e"/>
    <path d="M 313.777259 200.074092 
L 313.777259 37.34268 
" clip-path="url(#p0359bf51c5)" style="fill: none; stroke: #52514e"/>
    <path d="M 374.326056 217.772644 
L 374.326056 188.677301 
" clip-path="url(#p0359bf51c5)" style="fill: none; stroke: #52514e"/>
    <path d="M 434.874853 214.025032 
L 434.874853 191.672067 
" clip-path="url(#p0359bf51c5)" style="fill: none; stroke: #52514e"/>
    <path d="M 495.42365 211.284991 
L 495.42365 139.458615 
" clip-path="url(#p0359bf51c5)" style="fill: none; stroke: #52514e"/>
   </g>
   <g id="line2d_27">
    <g clip-path="url(#p0359bf51c5)">
     <use xlink:href="#m75f439a4e9" x="132.130869" y="187.798658" style="fill: #1f77b4; stroke: #52514e"/>
     <use xlink:href="#m75f439a4e9" x="192.679666" y="220.562853" style="fill: #1f77b4; stroke: #52514e"/>
     <use xlink:href="#m75f439a4e9" x="253.228463" y="187.663798" style="fill: #1f77b4; stroke: #52514e"/>
     <use xlink:href="#m75f439a4e9" x="313.777259" y="200.074092" style="fill: #1f77b4; stroke: #52514e"/>
     <use xlink:href="#m75f439a4e9" x="374.326056" y="217.772644" style="fill: #1f77b4; stroke: #52514e"/>
     <use xlink:href="#m75f439a4e9" x="434.874853" y="214.025032" style="fill: #1f77b4; stroke: #52514e"/>
     <use xlink:href="#m75f439a4e9" x="495.42365" y="211.284991" style="fill: #1f77b4; stroke: #52514e"/>
    </g>
   </g>
   <g id="line2d_28">
    <g clip-path="url(#p0359bf51c5)">
     <use xlink:href="#m75f439a4e9" x="132.130869" y="124.359203" style="fill: #1f77b4; stroke: #52514e"/>
     <use xlink:href="#m75f439a4e9" x="192.679666" y="198.353704" style="fill: #1f77b4; stroke: #52514e"/>
     <use xlink:href="#m75f439a4e9" x="253.228463" y="147.498458" style="fill: #1f77b4; stroke: #52514e"/>
     <use xlink:href="#m75f439a4e9" x="313.777259" y="37.34268" style="fill: #1f77b4; stroke: #52514e"/>
     <use xlink:href="#m75f439a4e9" x="374.326056" y="188.677301" style="fill: #1f77b4; stroke: #52514e"/>
     <use xlink:href="#m75f439a4e9" x="434.874853" y="191.672067" style="fill: #1f77b4; stroke: #52514e"/>
     <use xlink:href="#m75f439a4e9" x="495.42365" y="139.458615" style="fill: #1f77b4; stroke: #52514e"/>
    </g>
   </g>
   <g id="legend_1">
    <g id="patch_17">
     <path d="M 482.976562 42.178594 
L 500.976562 42.178594 
L 500.976562 35.878594 
L 482.976562 35.878594 
z
" style="fill: #898781; stroke: #0b0b0b; stroke-linejoin: miter"/>
    </g>
    <g id="text_15">
     <text style="font-size: 9px; font-family: 'DejaVu Sans', 'Bitstream Vera Sans', 'Computer Modern Sans Serif', 'Lucida Grande', 'Verdana', 'Geneva', 'Lucid', 'Arial', 'Helvetica', 'Avant Garde', sans-serif; text-anchor: start; fill: #0b0b0b" x="508.176562" y="42.178594" transform="rotate(-0 508.176562 42.178594)">off</text>
    </g>
    <g id="patch_18">
     <path d="M 482.976562 55.388906 
L 500.976562 55.388906 
L 500.976562 49.088906 
L 482.976562 49.088906 
z
" style="fill: url(#h681232c560); stroke: #0b0b0b; stroke-linejoin: miter"/>
    </g>
    <g id="text_16">
     <text style="font-size: 9px; font-family: 'DejaVu Sans', 'Bitstream Vera Sans', 'Computer Modern Sans Serif', 'Lucida Grande', 'Verdana', 'Geneva', 'Lucid', 'Arial', 'Helvetica', 'Avant Garde', sans-serif; text-anchor: start; fill: #0b0b0b" x="508.176562" y="55.388906" transform="rotate(-0 508.176562 55.388906)">on</text>
    </g>
   </g>
  </g>
 </g>
 <defs>
  <clipPath id="p0359bf51c5">
   <rect x="75.215" y="27.24" width="452.905" height="212.156283"/>
  </clipPath>
 </defs>
 <defs>
  <pattern id="h2c4f3e213c" patternUnits="userSpaceOnUse" x="0" y="0" width="72" height="72">
   <rect x="0" y="0" width="73" height="73" fill="#c40d1e"/>
   <path d="M -36 36 
L 36 -36 
M -32 40 
L 40 -32 
M -28 44 
L 44 -28 
M -24 48 
L 48 -24 
M -20 52 
L 52 -20 
M -16 56 
L 56 -16 
M -12 60 
L 60 -12 
M -8 64 
L 64 -8 
M -4 68 
L 68 -4 
M 0 72 
L 72 0 
M 4 76 
L 76 4 
M 8 80 
L 80 8 
M 12 84 
L 84 12 
M 16 88 
L 88 16 
M 20 92 
L 92 20 
M 24 96 
L 96 24 
M 28 100 
L 100 28 
M 32 104 
L 104 32 
M 36 108 
L 108 36 
" style="fill: #0b0b0b; stroke: #0b0b0b; stroke-width: 1.0; stroke-linecap: butt; stroke-linejoin: miter"/>
  </pattern>
  <pattern id="hde1c5deb5b" patternUnits="userSpaceOnUse" x="0" y="0" width="72" height="72">
   <rect x="0" y="0" width="73" height="73" fill="#ff6c00"/>
   <path d="M -36 36 
L 36 -36 
M -32 40 
L 40 -32 
M -28 44 
L 44 -28 
M -24 48 
L 48 -24 
M -20 52 
L 52 -20 
M -16 56 
L 56 -16 
M -12 60 
L 60 -12 
M -8 64 
L 64 -8 
M -4 68 
L 68 -4 
M 0 72 
L 72 0 
M 4 76 
L 76 4 
M 8 80 
L 80 8 
M 12 84 
L 84 12 
M 16 88 
L 88 16 
M 20 92 
L 92 20 
M 24 96 
L 96 24 
M 28 100 
L 100 28 
M 32 104 
L 104 32 
M 36 108 
L 108 36 
" style="fill: #0b0b0b; stroke: #0b0b0b; stroke-width: 1.0; stroke-linecap: butt; stroke-linejoin: miter"/>
  </pattern>
  <pattern id="h3b040b09d2" patternUnits="userSpaceOnUse" x="0" y="0" width="72" height="72">
   <rect x="0" y="0" width="73" height="73" fill="#e8a800"/>
   <path d="M -36 36 
L 36 -36 
M -32 40 
L 40 -32 
M -28 44 
L 44 -28 
M -24 48 
L 48 -24 
M -20 52 
L 52 -20 
M -16 56 
L 56 -16 
M -12 60 
L 60 -12 
M -8 64 
L 64 -8 
M -4 68 
L 68 -4 
M 0 72 
L 72 0 
M 4 76 
L 76 4 
M 8 80 
L 80 8 
M 12 84 
L 84 12 
M 16 88 
L 88 16 
M 20 92 
L 92 20 
M 24 96 
L 96 24 
M 28 100 
L 100 28 
M 32 104 
L 104 32 
M 36 108 
L 108 36 
" style="fill: #0b0b0b; stroke: #0b0b0b; stroke-width: 1.0; stroke-linecap: butt; stroke-linejoin: miter"/>
  </pattern>
  <pattern id="h760d38279b" patternUnits="userSpaceOnUse" x="0" y="0" width="72" height="72">
   <rect x="0" y="0" width="73" height="73" fill="#4f9d2e"/>
   <path d="M -36 36 
L 36 -36 
M -32 40 
L 40 -32 
M -28 44 
L 44 -28 
M -24 48 
L 48 -24 
M -20 52 
L 52 -20 
M -16 56 
L 56 -16 
M -12 60 
L 60 -12 
M -8 64 
L 64 -8 
M -4 68 
L 68 -4 
M 0 72 
L 72 0 
M 4 76 
L 76 4 
M 8 80 
L 80 8 
M 12 84 
L 84 12 
M 16 88 
L 88 16 
M 20 92 
L 92 20 
M 24 96 
L 96 24 
M 28 100 
L 100 28 
M 32 104 
L 104 32 
M 36 108 
L 108 36 
" style="fill: #0b0b0b; stroke: #0b0b0b; stroke-width: 1.0; stroke-linecap: butt; stroke-linejoin: miter"/>
  </pattern>
  <pattern id="hb948ce9db8" patternUnits="userSpaceOnUse" x="0" y="0" width="72" height="72">
   <rect x="0" y="0" width="73" height="73" fill="#b5297a"/>
   <path d="M -36 36 
L 36 -36 
M -32 40 
L 40 -32 
M -28 44 
L 44 -28 
M -24 48 
L 48 -24 
M -20 52 
L 52 -20 
M -16 56 
L 56 -16 
M -12 60 
L 60 -12 
M -8 64 
L 64 -8 
M -4 68 
L 68 -4 
M 0 72 
L 72 0 
M 4 76 
L 76 4 
M 8 80 
L 80 8 
M 12 84 
L 84 12 
M 16 88 
L 88 16 
M 20 92 
L 92 20 
M 24 96 
L 96 24 
M 28 100 
L 100 28 
M 32 104 
L 104 32 
M 36 108 
L 108 36 
" style="fill: #0b0b0b; stroke: #0b0b0b; stroke-width: 1.0; stroke-linecap: butt; stroke-linejoin: miter"/>
  </pattern>
  <pattern id="ha77093a1e9" patternUnits="userSpaceOnUse" x="0" y="0" width="72" height="72">
   <rect x="0" y="0" width="73" height="73" fill="#2f6fb0"/>
   <path d="M -36 36 
L 36 -36 
M -32 40 
L 40 -32 
M -28 44 
L 44 -28 
M -24 48 
L 48 -24 
M -20 52 
L 52 -20 
M -16 56 
L 56 -16 
M -12 60 
L 60 -12 
M -8 64 
L 64 -8 
M -4 68 
L 68 -4 
M 0 72 
L 72 0 
M 4 76 
L 76 4 
M 8 80 
L 80 8 
M 12 84 
L 84 12 
M 16 88 
L 88 16 
M 20 92 
L 92 20 
M 24 96 
L 96 24 
M 28 100 
L 100 28 
M 32 104 
L 104 32 
M 36 108 
L 108 36 
" style="fill: #0b0b0b; stroke: #0b0b0b; stroke-width: 1.0; stroke-linecap: butt; stroke-linejoin: miter"/>
  </pattern>
  <pattern id="h92202bc8c5" patternUnits="userSpaceOnUse" x="0" y="0" width="72" height="72">
   <rect x="0" y="0" width="73" height="73" fill="#7fb0dd"/>
   <path d="M -36 36 
L 36 -36 
M -32 40 
L 40 -32 
M -28 44 
L 44 -28 
M -24 48 
L 48 -24 
M -20 52 
L 52 -20 
M -16 56 
L 56 -16 
M -12 60 
L 60 -12 
M -8 64 
L 64 -8 
M -4 68 
L 68 -4 
M 0 72 
L 72 0 
M 4 76 
L 76 4 
M 8 80 
L 80 8 
M 12 84 
L 84 12 
M 16 88 
L 88 16 
M 20 92 
L 92 20 
M 24 96 
L 96 24 
M 28 100 
L 100 28 
M 32 104 
L 104 32 
M 36 108 
L 108 36 
" style="fill: #0b0b0b; stroke: #0b0b0b; stroke-width: 1.0; stroke-linecap: butt; stroke-linejoin: miter"/>
  </pattern>
  <pattern id="h681232c560" patternUnits="userSpaceOnUse" x="0" y="0" width="72" height="72">
   <rect x="0" y="0" width="73" height="73" fill="#898781"/>
   <path d="M -36 36 
L 36 -36 
M -32 40 
L 40 -32 
M -28 44 
L 44 -28 
M -24 48 
L 48 -24 
M -20 52 
L 52 -20 
M -16 56 
L 56 -16 
M -12 60 
L 60 -12 
M -8 64 
L 64 -8 
M -4 68 
L 68 -4 
M 0 72 
L 72 0 
M 4 76 
L 76 4 
M 8 80 
L 80 8 
M 12 84 
L 84 12 
M 16 88 
L 88 16 
M 20 92 
L 92 20 
M 24 96 
L 96 24 
M 28 100 
L 100 28 
M 32 104 
L 104 32 
M 36 108 
L 108 36 
" style="fill: #0b0b0b; stroke: #0b0b0b; stroke-width: 1.0; stroke-linecap: butt; stroke-linejoin: miter"/>
  </pattern>
 </defs>
</svg>
