<?xml version="1.0" encoding="utf-8" standalone="no"?>
<!DOCTYPE svg PUBLIC "-//W3C//DTD SVG 1.1//EN"
  "http://www.w3.org/Graphics/SVG/1.1/DTD/svg11.dtd">
<svg xmlns:xlink="http://www.w3.org/1999/xlink" width="403.2pt" height="302.4pt" viewBox="0 0 403.2 302.4" xmlns="http://www.w3.org/2000/svg" version="1.1">
 <metadata>
  <rdf:RDF xmlns:dc="http://purl.org/dc/elements/1.1/" xmlns:cc="http://creativecommons.org/ns#" xmlns:rdf="http://www.w3.org/1999/02/22-rdf-syntax-ns#">
   <cc:Work>
    <dc:type rdf:resource="http://purl.org/dc/dcmitype/StillImage"/>
    <dc:format>image/svg+xml</dc:format>
    <dc:creator>
     <cc:Agent>
      <dc:title>Matplotlib v3.10.9, https://matplotlib.org/</dc:title>
     </cc:Agent>
    </dc:creator>
   </cc:Work>
  </rdf:RDF>
 </metadata>
 <defs>
  <style type="text/css">*{stroke-linejoin: round; stroke-linecap: butt}</style>
 </defs>
 <g id="figure_1">
  <g id="patch_1">
   <path d="M 0 302.4 
L 403.2 302.4 
L 403.2 0 
L 0 0 
L 0 302.4 
z
" style="fill: none"/>
  </g>
  <g id="axes_1">
   <g id="patch_2">
    <path d="M 40.32 241.92 
L 395.136 241.92 
L 395.136 24.192 
L 40.32 24.192 
L 40.32 241.92 
z
" style="fill: none"/>
   </g>
   <g id="matplotlib.axis_1">
    <g id="xtick_1">
     <g id="line2d_1">
      <path d="M 91.008 241.92 
L 91.008 24.192 
" clip-path="url(#p7c5b37e0a0)" style="fill: none; stroke: #b0b0b0; stroke-opacity: 0.3; stroke-width: 0.8; stroke-linecap: square"/>
     </g>
     <g id="line2d_2">
      <defs>
       <path id="md7770b79b8" d="M 0 0 
L 0 3.5 
" style="stroke: #000000; stroke-width: 0.8"/>
      </defs>
      <g>
       <use xlink:href="#md7770b79b8" x="91.008" y="241.92" style="stroke: #000000; stroke-width: 0.8"/>
      </g>
     </g>
     <g id="text_1">
      <text style="font-size: 9px; font-family: 'DejaVu Sans', 'Bitstream Vera Sans', 'Computer Modern Sans Serif', 'Lucida Grande', 'Verdana', 'Geneva', 'Lucid', 'Arial', 'Helvetica', 'Avant Garde', sans-serif; fill: #0b0b0b" transform="translate(61.454167 268.53019) rotate(-25)">master</text>
     </g>
    </g>
    <g id="xtick_2">
     <g id="line2d_3">
      <path d="M 175.488 241.92 
L 175.488 24.192 
" clip-path="url(#p7c5b37e0a0)" style="fill: none; stroke: #b0b0b0; stroke-opacity: 0.3; stroke-width: 0.8; stroke-linecap: square"/>
     </g>
     <g id="line2d_4">
      <g>
       <use xlink:href="#md7770b79b8" x="175.488" y="241.92" style="stroke: #000000; stroke-width: 0.8"/>
      </g>
     </g>
     <g id="text_2">
      <text style="font-size: 9px; font-family: 'DejaVu Sans', 'Bitstream Vera Sans', 'Computer Modern Sans Serif', 'Lucida Grande', 'Verdana', 'Geneva', 'Lucid', 'Arial', 'Helvetica', 'Avant Garde', sans-serif; fill: #0b0b0b" transform="translate(103.863073 288.098934) rotate(-25)">missing_relations</text>
     </g>
    </g>
    <g id="xtick_3">
     <g id="line2d_5">
      <path d="M 259.968 241.92 
L 259.968 24.192 
" clip-path="url(#p7c5b37e0a0)" style="fill: none; stroke: #b0b0b0; stroke-opacity: 0.3; stroke-width: 0.8; stroke-linecap: square"/>
     </g>
     <g id="line2d_6">
      <g>
       <use xlink:href="#md7770b79b8" x="259.968" y="241.92" style="stroke: #000000; stroke-width: 0.8"/>
      </g>
     </g>
     <g id="text_3">
      <text style="font-size: 9px; font-family: 'DejaVu Sans', 'Bitstream Vera Sans', 'Computer Modern Sans Serif', 'Lucida Grande', 'Verdana', 'Geneva', 'Lucid', 'Arial', 'Helvetica', 'Avant Garde', sans-serif; fill: #0b0b0b" transform="translate(210.329392 277.846545) rotate(-25)">messy_data</text>
     </g>
    </g>
    <g id="xtick_4">
     <g id="line2d_7">
      <path d="M 344.448 241.92 
L 344.448 24.192 
" clip-path="url(#p7c5b37e0a0)" style="fill: none; stroke: #b0b0b0; stroke-opacity: 0.3; stroke-width: 0.8; stroke-linecap: square"/>
     </g>
     <g id="line2d_8">
      <g>
       <use xlink:href="#md7770b79b8" x="344.448" y="241.92" style="stroke: #000000; stroke-width: 0.8"/>
      </g>
     </g>
     <g id="text_4">
      <text style="font-size: 9px; font-family: 'DejaVu Sans', 'Bitstream Vera Sans', 'Computer Modern Sans Serif', 'Lucida Grande', 'Verdana', 'Geneva', 'Lucid', 'Arial', 'Helvetica', 'Avant Garde', sans-serif; fill: #0b0b0b" transform="translate(265.233453 291.638032) rotate(-25)">wrong_field_names</text>
     </g>
    </g>
   </g>
   <g id="matplotlib.axis_2">
    <g id="ytick_1">
     <g id="line2d_9">
      <path d="M 40.32 232.286018 
L 395.136 232.286018 
" clip-path="url(#p7c5b37e0a0)" style="fill: none; stroke: #b0b0b0; stroke-opacity: 0.3; stroke-width: 0.8; stroke-linecap: square"/>
     </g>
     <g id="line2d_10">
      <defs>
       <path id="m91d58daf4d" d="M 0 0 
L -3.5 0 
" style="stroke: #000000; stroke-width: 0.8"/>
      </defs>
      <g>
       <use xlink:href="#m91d58daf4d" x="40.32" y="232.286018" style="stroke: #000000; stroke-width: 0.8"/>
      </g>
     </g>
     <g id="text_5">
      <text style="font-size: 11px; font-family: 'DejaVu Sans', 'Bitstream Vera Sans', 'Computer Modern Sans Serif', 'Lucida Grande', 'Verdana', 'Geneva', 'Lucid', 'Arial', 'Helvetica', 'Avant Garde', sans-serif; text-anchor: end" x="33.32" y="236.465158" transform="rotate(-0 33.32 236.465158)">0.0</text>
     </g>
    </g>
    <g id="ytick_2">
     <g id="line2d_11">
      <path d="M 40.32 193.750088 
L 395.136 193.750088 
" clip-path="url(#p7c5b37e0a0)" style="fill: none; stroke: #b0b0b0; stroke-opacity: 0.3; stroke-width: 0.8; stroke-linecap: square"/>
     </g>
     <g id="line2d_12">
      <g>
       <use xlink:href="#m91d58daf4d" x="40.32" y="193.750088" style="stroke: #000000; stroke-width: 0.8"/>
      </g>
     </g>
     <g id="text_6">
      <text style="font-size: 11px; font-family: 'DejaVu Sans', 'Bitstream Vera Sans', 'Computer Modern Sans Serif', 'Lucida Grande', 'Verdana', 'Geneva', 'Lucid', 'Arial', 'Helvetica', 'Avant Garde', sans-serif; text-anchor: end" x="33.32" y="197.929229" transform="rotate(-0 33.32 197.929229)">0.2</text>
     </g>
    </g>
    <g id="ytick_3">
     <g id="line2d_13">
      <path d="M 40.32 155.214159 
L 395.136 155.214159 
" clip-path="url(#p7c5b37e0a0)" style="fill: none; stroke: #b0b0b0; stroke-opacity: 0.3; stroke-width: 0.8; stroke-linecap: square"/>
     </g>
     <g id="line2d_14">
      <g>
       <use xlink:href="#m91d58daf4d" x="40.32" y="155.214159" style="stroke: #000000; stroke-width: 0.8"/>
      </g>
     </g>
     <g id="text_7">
      <text style="font-size: 11px; font-family: 'DejaVu Sans', 'Bitstream Vera Sans', 'Computer Modern Sans Serif', 'Lucida Grande', 'Verdana', 'Geneva', 'Lucid', 'Arial', 'Helvetica', 'Avant Garde', sans-serif; text-anchor: end" x="33.32" y="159.3933" transform="rotate(-0 33.32 159.3933)">0.4</text>
     </g>
    </g>
    <g id="ytick_4">
     <g id="line2d_15">
      <path d="M 40.32 116.67823 
L 395.136 116.67823 
" clip-path="url(#p7c5b37e0a0)" style="fill: none; stroke: #b0b0b0; stroke-opacity: 0.3; stroke-width: 0.8; stroke-linecap: square"/>
     </g>
     <g id="line2d_16">
      <g>
       <use xlink:href="#m91d58daf4d" x="40.32" y="116.67823" style="stroke: #000000; stroke-width: 0.8"/>
      </g>
     </g>
     <g id="text_8">
      <text style="font-size: 11px; font-family: 'DejaVu Sans', 'Bitstream Vera Sans', 'Computer Modern Sans Serif', 'Lucida Grande', 'Verdana', 'Geneva', 'Lucid', 'Arial', 'Helvetica', 'Avant Garde', sans-serif; text-anchor: end" x="33.32" y="120.857371" transform="rotate(-0 33.32 120.857371)">0.6</text>
     </g>
    </g>
    <g id="ytick_5">
     <g id="line2d_17">
      <path d="M 40.32 78.142301 
L 395.136 78.142301 
" clip-path="url(#p7c5b37e0a0)" style="fill: none; stroke: #b0b0b0; stroke-opacity: 0.3; stroke-width: 0.8; stroke-linecap: square"/>
     </g>
     <g id="line2d_18">
      <g>
       <use xlink:href="#m91d58daf4d" x="40.32" y="78.142301" style="stroke: #000000; stroke-width: 0.8"/>
      </g>
     </g>
     <g id="text_9">
      <text style="font-size: 11px; font-family: 'DejaVu Sans', 'Bitstream Vera Sans', 'Computer Modern Sans Serif', 'Lucida Grande', 'Verdana', 'Geneva', 'Lucid', 'Arial', 'Helvetica', 'Avant Garde', sans-serif; text-anchor: end" x="33.32" y="82.321442" transform="rotate(-0 33.32 82.321442)">0.8</text>
     </g>
    </g>
    <g id="ytick_6">
     <g id="line2d_19">
      <path d="M 40.32 39.606372 
L 395.136 39.606372 
" clip-path="url(#p7c5b37e0a0)" style="fill: none; stroke: #b0b0b0; stroke-opacity: 0.3; stroke-width: 0.8; stroke-linecap: square"/>
     </g>
     <g id="line2d_20">
      <g>
       <use xlink:href="#m91d58daf4d" x="40.32" y="39.606372" style="stroke: #000000; stroke-width: 0.8"/>
      </g>
     </g>
     <g id="text_10">
      <text style="font-size: 11px; font-family: 'DejaVu Sans', 'Bitstream Vera Sans', 'Computer Modern Sans Serif', 'Lucida Grande', 'Verdana', 'Geneva', 'Lucid', 'Arial', 'Helvetica', 'Avant Garde', sans-serif; text-anchor: end" x="33.32" y="43.785512" transform="rotate(-0 33.32 43.785512)">1.0</text>
     </g>
    </g>
    <g id="text_11">
     <text style="font-size: 11px; font-family: 'DejaVu Sans', 'Bitstream Vera Sans', 'Computer Modern Sans Serif', 'Lucida Grande', 'Verdana', 'Geneva', 'Lucid', 'Arial', 'Helvetica', 'Avant Garde', sans-serif; text-anchor: middle; fill: #0b0b0b" x="9.538906" y="133.056" transform="rotate(-90 9.538906 133.056)">FK integrity</text>
    </g>
   </g>
   <g id="FillBetweenPolyCollection_1">
    <defs>
     <path id="m3a03328ff8" d="M 105.523887 -72.721859 
L 76.492113 -72.721859 
L 75.925065 -74.346553 
L 75.367758 -75.971246 
L 74.82168 -77.59594 
L 74.288186 -79.220634 
L 73.76849 -80.845327 
L 73.263666 -82.470021 
L 72.774657 -84.094715 
L 72.302277 -85.719408 
L 71.847229 -87.344102 
L 71.410114 -88.968796 
L 70.991446 -90.593489 
L 70.591672 -92.218183 
L 70.211186 -93.842877 
L 69.850345 -95.46757 
L 69.509485 -97.092264 
L 69.188934 -98.716957 
L 68.889018 -100.341651 
L 68.610075 -101.966345 
L 68.352449 -103.591038 
L 68.116495 -105.215732 
L 67.902571 -106.840426 
L 67.711025 -108.465119 
L 67.542181 -110.089813 
L 67.396321 -111.714507 
L 67.273661 -113.3392 
L 67.17432 -114.963894 
L 67.098297 -116.588588 
L 67.045435 -118.213281 
L 67.015395 -119.837975 
L 67.007615 -121.462668 
L 67.021291 -123.087362 
L 67.055341 -124.712056 
L 67.108387 -126.336749 
L 67.178731 -127.961443 
L 67.264349 -129.586137 
L 67.362875 -131.21083 
L 67.471612 -132.835524 
L 67.587535 -134.460218 
L 67.707311 -136.084911 
L 67.827326 -137.709605 
L 67.943722 -139.334299 
L 68.052437 -140.958992 
L 68.149264 -142.583686 
L 68.229907 -144.20838 
L 68.290045 -145.833073 
L 68.325414 -147.457767 
L 68.331872 -149.08246 
L 68.305486 -150.707154 
L 68.242611 -152.331848 
L 68.139967 -153.956541 
L 67.994719 -155.581235 
L 67.804551 -157.205929 
L 67.567732 -158.830622 
L 67.283177 -160.455316 
L 66.9505 -162.08001 
L 66.57005 -163.704703 
L 66.142948 -165.329397 
L 65.671094 -166.954091 
L 65.157181 -168.578784 
L 64.604676 -170.203478 
L 64.0178 -171.828171 
L 63.40149 -173.452865 
L 62.761346 -175.077559 
L 62.10357 -176.702252 
L 61.434886 -178.326946 
L 60.762461 -179.95164 
L 60.093803 -181.576333 
L 59.436666 -183.201027 
L 58.798939 -184.825721 
L 58.188537 -186.450414 
L 57.613288 -188.075108 
L 57.080826 -189.699802 
L 56.598478 -191.324495 
L 56.173161 -192.949189 
L 55.811288 -194.573882 
L 55.518673 -196.198576 
L 55.300456 -197.82327 
L 55.161034 -199.447963 
L 55.104 -201.072657 
L 55.132103 -202.697351 
L 55.247216 -204.322044 
L 55.450318 -205.946738 
L 55.741491 -207.571432 
L 56.119933 -209.196125 
L 56.583975 -210.820819 
L 57.131121 -212.445513 
L 57.758094 -214.070206 
L 58.460893 -215.6949 
L 59.234857 -217.319594 
L 60.07474 -218.944287 
L 60.974791 -220.568981 
L 61.928839 -222.193674 
L 62.930378 -223.818368 
L 63.972659 -225.443062 
L 65.048778 -227.067755 
L 66.151761 -228.692449 
L 67.274651 -230.317143 
L 68.41059 -231.941836 
L 69.552889 -233.56653 
L 112.463111 -233.56653 
L 112.463111 -233.56653 
L 113.60541 -231.941836 
L 114.741349 -230.317143 
L 115.864239 -228.692449 
L 116.967222 -227.067755 
L 118.043341 -225.443062 
L 119.085622 -223.818368 
L 120.087161 -222.193674 
L 121.041209 -220.568981 
L 121.94126 -218.944287 
L 122.781143 -217.319594 
L 123.555107 -215.6949 
L 124.257906 -214.070206 
L 124.884879 -212.445513 
L 125.432025 -210.820819 
L 125.896067 -209.196125 
L 126.274509 -207.571432 
L 126.565682 -205.946738 
L 126.768784 -204.322044 
L 126.883897 -202.697351 
L 126.912 -201.072657 
L 126.854966 -199.447963 
L 126.715544 -197.82327 
L 126.497327 -196.198576 
L 126.204712 -194.573882 
L 125.842839 -192.949189 
L 125.417522 -191.324495 
L 124.935174 -189.699802 
L 124.402712 -188.075108 
L 123.827463 -186.450414 
L 123.217061 -184.825721 
L 122.579334 -183.201027 
L 121.922197 -181.576333 
L 121.253539 -179.95164 
L 120.581114 -178.326946 
L 119.91243 -176.702252 
L 119.254654 -175.077559 
L 118.61451 -173.452865 
L 117.9982 -171.828171 
L 117.411324 -170.203478 
L 116.858819 -168.578784 
L 116.344906 -166.954091 
L 115.873052 -165.329397 
L 115.44595 -163.704703 
L 115.0655 -162.08001 
L 114.732823 -160.455316 
L 114.448268 -158.830622 
L 114.211449 -157.205929 
L 114.021281 -155.581235 
L 113.876033 -153.956541 
L 113.773389 -152.331848 
L 113.710514 -150.707154 
L 113.684128 -149.08246 
L 113.690586 -147.457767 
L 113.725955 -145.833073 
L 113.786093 -144.20838 
L 113.866736 -142.583686 
L 113.963563 -140.958992 
L 114.072278 -139.334299 
L 114.188674 -137.709605 
L 114.308689 -136.084911 
L 114.428465 -134.460218 
L 114.544388 -132.835524 
L 114.653125 -131.21083 
L 114.751651 -129.586137 
L 114.837269 -127.961443 
L 114.907613 -126.336749 
L 114.960659 -124.712056 
L 114.994709 -123.087362 
L 115.008385 -121.462668 
L 115.000605 -119.837975 
L 114.970565 -118.213281 
L 114.917703 -116.588588 
L 114.84168 -114.963894 
L 114.742339 -113.3392 
L 114.619679 -111.714507 
L 114.473819 -110.089813 
L 114.304975 -108.465119 
L 114.113429 -106.840426 
L 113.899505 -105.215732 
L 113.663551 -103.591038 
L 113.405925 -101.966345 
L 113.126982 -100.341651 
L 112.827066 -98.716957 
L 112.506515 -97.092264 
L 112.165655 -95.46757 
L 111.804814 -93.842877 
L 111.424328 -92.218183 
L 111.024554 -90.593489 
L 110.605886 -88.968796 
L 110.168771 -87.344102 
L 109.713723 -85.719408 
L 109.241343 -84.094715 
L 108.752334 -82.470021 
L 108.24751 -80.845327 
L 107.727814 -79.220634 
L 107.19432 -77.59594 
L 106.648242 -75.971246 
L 106.090935 -74.346553 
L 105.523887 -72.721859 
z
" style="stroke: #4c78a8; stroke-opacity: 0.28; stroke-width: 1.1"/>
    </defs>
    <g clip-path="url(#p7c5b37e0a0)">
     <use xlink:href="#m3a03328ff8" x="0" y="302.4" style="fill: #4c78a8; fill-opacity: 0.28; stroke: #4c78a8; stroke-opacity: 0.28; stroke-width: 1.1"/>
    </g>
   </g>
   <g id="FillBetweenPolyCollection_2">
    <defs>
     <path id="mfd60755ebe" d="M 206.786183 -189.740472 
L 144.189817 -189.740472 
L 143.351539 -190.453209 
L 142.58571 -191.165946 
L 141.897847 -191.878683 
L 141.292849 -192.591419 
L 140.774929 -193.304156 
L 140.347548 -194.016893 
L 140.013372 -194.72963 
L 139.774228 -195.442366 
L 139.631078 -196.155103 
L 139.584 -196.86784 
L 139.632185 -197.580576 
L 139.77394 -198.293313 
L 140.006713 -199.00605 
L 140.327118 -199.718787 
L 140.730982 -200.431523 
L 141.213395 -201.14426 
L 141.768778 -201.856997 
L 142.39095 -202.569734 
L 143.073214 -203.28247 
L 143.808443 -203.995207 
L 144.589173 -204.707944 
L 145.4077 -205.420681 
L 146.256182 -206.133417 
L 147.126739 -206.846154 
L 148.011554 -207.558891 
L 148.902968 -208.271628 
L 149.793579 -208.984364 
L 150.676328 -209.697101 
L 151.544579 -210.409838 
L 152.392197 -211.122575 
L 153.213612 -211.835311 
L 154.003869 -212.548048 
L 154.758677 -213.260785 
L 155.474437 -213.973522 
L 156.148264 -214.686258 
L 156.777996 -215.398995 
L 157.362186 -216.111732 
L 157.900092 -216.824469 
L 158.391649 -217.537205 
L 158.837432 -218.249942 
L 159.238611 -218.962679 
L 159.5969 -219.675415 
L 159.914497 -220.388152 
L 160.194015 -221.100889 
L 160.438417 -221.813626 
L 160.650944 -222.526362 
L 160.83504 -223.239099 
L 160.994279 -223.951836 
L 161.132297 -224.664573 
L 161.252723 -225.377309 
L 161.359114 -226.090046 
L 161.454896 -226.802783 
L 161.543309 -227.51552 
L 161.627368 -228.228256 
L 161.709813 -228.940993 
L 161.793085 -229.65373 
L 161.879301 -230.366467 
L 161.970236 -231.079203 
L 162.067315 -231.79194 
L 162.171616 -232.504677 
L 162.283874 -233.217414 
L 162.404494 -233.93015 
L 162.533576 -234.642887 
L 162.670934 -235.355624 
L 162.816133 -236.068361 
L 162.968519 -236.781097 
L 163.127258 -237.493834 
L 163.291376 -238.206571 
L 163.459799 -238.919308 
L 163.631396 -239.632044 
L 163.805016 -240.344781 
L 163.979532 -241.057518 
L 164.153872 -241.770254 
L 164.327056 -242.482991 
L 164.498223 -243.195728 
L 164.666658 -243.908465 
L 164.83181 -244.621201 
L 164.993307 -245.333938 
L 165.150967 -246.046675 
L 165.304797 -246.759412 
L 165.454993 -247.472148 
L 165.601934 -248.184885 
L 165.746166 -248.897622 
L 165.888385 -249.610359 
L 166.029419 -250.323095 
L 166.170196 -251.035832 
L 166.311724 -251.748569 
L 166.455057 -252.461306 
L 166.601265 -253.174042 
L 166.751403 -253.886779 
L 166.906484 -254.599516 
L 167.067447 -255.312253 
L 167.235132 -256.024989 
L 167.410257 -256.737726 
L 167.593397 -257.450463 
L 167.78497 -258.1632 
L 167.985222 -258.875936 
L 168.194224 -259.588673 
L 168.411864 -260.30141 
L 182.564136 -260.30141 
L 182.564136 -260.30141 
L 182.781776 -259.588673 
L 182.990778 -258.875936 
L 183.19103 -258.1632 
L 183.382603 -257.450463 
L 183.565743 -256.737726 
L 183.740868 -256.024989 
L 183.908553 -255.312253 
L 184.069516 -254.599516 
L 184.224597 -253.886779 
L 184.374735 -253.174042 
L 184.520943 -252.461306 
L 184.664276 -251.748569 
L 184.805804 -251.035832 
L 184.946581 -250.323095 
L 185.087615 -249.610359 
L 185.229834 -248.897622 
L 185.374066 -248.184885 
L 185.521007 -247.472148 
L 185.671203 -246.759412 
L 185.825033 -246.046675 
L 185.982693 -245.333938 
L 186.14419 -244.621201 
L 186.309342 -243.908465 
L 186.477777 -243.195728 
L 186.648944 -242.482991 
L 186.822128 -241.770254 
L 186.996468 -241.057518 
L 187.170984 -240.344781 
L 187.344604 -239.632044 
L 187.516201 -238.919308 
L 187.684624 -238.206571 
L 187.848742 -237.493834 
L 188.007481 -236.781097 
L 188.159867 -236.068361 
L 188.305066 -235.355624 
L 188.442424 -234.642887 
L 188.571506 -233.93015 
L 188.692126 -233.217414 
L 188.804384 -232.504677 
L 188.908685 -231.79194 
L 189.005764 -231.079203 
L 189.096699 -230.366467 
L 189.182915 -229.65373 
L 189.266187 -228.940993 
L 189.348632 -228.228256 
L 189.432691 -227.51552 
L 189.521104 -226.802783 
L 189.616886 -226.090046 
L 189.723277 -225.377309 
L 189.843703 -224.664573 
L 189.981721 -223.951836 
L 190.14096 -223.239099 
L 190.325056 -222.526362 
L 190.537583 -221.813626 
L 190.781985 -221.100889 
L 191.061503 -220.388152 
L 191.3791 -219.675415 
L 191.737389 -218.962679 
L 192.138568 -218.249942 
L 192.584351 -217.537205 
L 193.075908 -216.824469 
L 193.613814 -216.111732 
L 194.198004 -215.398995 
L 194.827736 -214.686258 
L 195.501563 -213.973522 
L 196.217323 -213.260785 
L 196.972131 -212.548048 
L 197.762388 -211.835311 
L 198.583803 -211.122575 
L 199.431421 -210.409838 
L 200.299672 -209.697101 
L 201.182421 -208.984364 
L 202.073032 -208.271628 
L 202.964446 -207.558891 
L 203.849261 -206.846154 
L 204.719818 -206.133417 
L 205.5683 -205.420681 
L 206.386827 -204.707944 
L 207.167557 -203.995207 
L 207.902786 -203.28247 
L 208.58505 -202.569734 
L 209.207222 -201.856997 
L 209.762605 -201.14426 
L 210.245018 -200.431523 
L 210.648882 -199.718787 
L 210.969287 -199.00605 
L 211.20206 -198.293313 
L 211.343815 -197.580576 
L 211.392 -196.86784 
L 211.344922 -196.155103 
L 211.201772 -195.442366 
L 210.962628 -194.72963 
L 210.628452 -194.016893 
L 210.201071 -193.304156 
L 209.683151 -192.591419 
L 209.078153 -191.878683 
L 208.39029 -191.165946 
L 207.624461 -190.453209 
L 206.786183 -189.740472 
z
" style="stroke: #f58518; stroke-opacity: 0.28; stroke-width: 1.1"/>
    </defs>
    <g clip-path="url(#p7c5b37e0a0)">
     <use xlink:href="#mfd60755ebe" x="0" y="302.4" style="fill: #f58518; fill-opacity: 0.28; stroke: #f58518; stroke-opacity: 0.28; stroke-width: 1.1"/>
    </g>
   </g>
   <g id="FillBetweenPolyCollection_3">
    <defs>
     <path id="m8f1976114b" d="M 261.75816 -198.258298 
L 258.17784 -198.258298 
L 258.183911 -198.854474 
L 258.202036 -199.450651 
L 258.231841 -200.046827 
L 258.27272 -200.643003 
L 258.323849 -201.239179 
L 258.384219 -201.835355 
L 258.45266 -202.431532 
L 258.527882 -203.027708 
L 258.608504 -203.623884 
L 258.693097 -204.22006 
L 258.780215 -204.816237 
L 258.86843 -205.412413 
L 258.956355 -206.008589 
L 259.042669 -206.604765 
L 259.12613 -207.200941 
L 259.205581 -207.797118 
L 259.27995 -208.393294 
L 259.348246 -208.98947 
L 259.409537 -209.585646 
L 259.462933 -210.181822 
L 259.507558 -210.777999 
L 259.542517 -211.374175 
L 259.566866 -211.970351 
L 259.57957 -212.566527 
L 259.579475 -213.162704 
L 259.565271 -213.75888 
L 259.53547 -214.355056 
L 259.488376 -214.951232 
L 259.422085 -215.547408 
L 259.334474 -216.143585 
L 259.22322 -216.739761 
L 259.085824 -217.335937 
L 258.919652 -217.932113 
L 258.722002 -218.528289 
L 258.490173 -219.124466 
L 258.221565 -219.720642 
L 257.913787 -220.316818 
L 257.564778 -220.912994 
L 257.172944 -221.509171 
L 256.737292 -222.105347 
L 256.257568 -222.701523 
L 255.734392 -223.297699 
L 255.169375 -223.893875 
L 254.565218 -224.490052 
L 253.925779 -225.086228 
L 253.256116 -225.682404 
L 252.562475 -226.27858 
L 251.852245 -226.874756 
L 251.133853 -227.470933 
L 250.416623 -228.067109 
L 249.710568 -228.663285 
L 249.026151 -229.259461 
L 248.374 -229.855638 
L 247.76459 -230.451814 
L 247.207909 -231.04799 
L 246.713106 -231.644166 
L 246.288149 -232.240342 
L 245.939495 -232.836519 
L 245.671794 -233.432695 
L 245.487631 -234.028871 
L 245.387323 -234.625047 
L 245.368777 -235.221223 
L 245.427419 -235.8174 
L 245.556195 -236.413576 
L 245.745648 -237.009752 
L 245.984064 -237.605928 
L 246.257702 -238.202105 
L 246.551072 -238.798281 
L 246.847284 -239.394457 
L 247.128443 -239.990633 
L 247.37608 -240.586809 
L 247.571622 -241.182986 
L 247.696876 -241.779162 
L 247.734521 -242.375338 
L 247.668604 -242.971514 
L 247.485023 -243.56769 
L 247.171983 -244.163867 
L 246.720421 -244.760043 
L 246.124391 -245.356219 
L 245.381379 -245.952395 
L 244.492563 -246.548572 
L 243.462987 -247.144748 
L 242.301642 -247.740924 
L 241.021449 -248.3371 
L 239.639137 -248.933276 
L 238.174996 -249.529453 
L 236.65253 -250.125629 
L 235.09798 -250.721805 
L 233.539757 -251.317981 
L 232.007764 -251.914157 
L 230.532656 -252.510334 
L 229.145029 -253.10651 
L 227.874593 -253.702686 
L 226.749331 -254.298862 
L 225.794697 -254.895039 
L 225.032869 -255.491215 
L 224.482097 -256.087391 
L 224.156166 -256.683567 
L 224.064 -257.279743 
L 295.872 -257.279743 
L 295.872 -257.279743 
L 295.779834 -256.683567 
L 295.453903 -256.087391 
L 294.903131 -255.491215 
L 294.141303 -254.895039 
L 293.186669 -254.298862 
L 292.061407 -253.702686 
L 290.790971 -253.10651 
L 289.403344 -252.510334 
L 287.928236 -251.914157 
L 286.396243 -251.317981 
L 284.83802 -250.721805 
L 283.28347 -250.125629 
L 281.761004 -249.529453 
L 280.296863 -248.933276 
L 278.914551 -248.3371 
L 277.634358 -247.740924 
L 276.473013 -247.144748 
L 275.443437 -246.548572 
L 274.554621 -245.952395 
L 273.811609 -245.356219 
L 273.215579 -244.760043 
L 272.764017 -244.163867 
L 272.450977 -243.56769 
L 272.267396 -242.971514 
L 272.201479 -242.375338 
L 272.239124 -241.779162 
L 272.364378 -241.182986 
L 272.55992 -240.586809 
L 272.807557 -239.990633 
L 273.088716 -239.394457 
L 273.384928 -238.798281 
L 273.678298 -238.202105 
L 273.951936 -237.605928 
L 274.190352 -237.009752 
L 274.379805 -236.413576 
L 274.508581 -235.8174 
L 274.567223 -235.221223 
L 274.548677 -234.625047 
L 274.448369 -234.028871 
L 274.264206 -233.432695 
L 273.996505 -232.836519 
L 273.647851 -232.240342 
L 273.222894 -231.644166 
L 272.728091 -231.04799 
L 272.17141 -230.451814 
L 271.562 -229.855638 
L 270.909849 -229.259461 
L 270.225432 -228.663285 
L 269.519377 -228.067109 
L 268.802147 -227.470933 
L 268.083755 -226.874756 
L 267.373525 -226.27858 
L 266.679884 -225.682404 
L 266.010221 -225.086228 
L 265.370782 -224.490052 
L 264.766625 -223.893875 
L 264.201608 -223.297699 
L 263.678432 -222.701523 
L 263.198708 -222.105347 
L 262.763056 -221.509171 
L 262.371222 -220.912994 
L 262.022213 -220.316818 
L 261.714435 -219.720642 
L 261.445827 -219.124466 
L 261.213998 -218.528289 
L 261.016348 -217.932113 
L 260.850176 -217.335937 
L 260.71278 -216.739761 
L 260.601526 -216.143585 
L 260.513915 -215.547408 
L 260.447624 -214.951232 
L 260.40053 -214.355056 
L 260.370729 -213.75888 
L 260.356525 -213.162704 
L 260.35643 -212.566527 
L 260.369134 -211.970351 
L 260.393483 -211.374175 
L 260.428442 -210.777999 
L 260.473067 -210.181822 
L 260.526463 -209.585646 
L 260.587754 -208.98947 
L 260.65605 -208.393294 
L 260.730419 -207.797118 
L 260.80987 -207.200941 
L 260.893331 -206.604765 
L 260.979645 -206.008589 
L 261.06757 -205.412413 
L 261.155785 -204.816237 
L 261.242903 -204.22006 
L 261.327496 -203.623884 
L 261.408118 -203.027708 
L 261.48334 -202.431532 
L 261.551781 -201.835355 
L 261.612151 -201.239179 
L 261.66328 -200.643003 
L 261.704159 -200.046827 
L 261.733964 -199.450651 
L 261.752089 -198.854474 
L 261.75816 -198.258298 
z
" style="stroke: #54a24b; stroke-opacity: 0.28; stroke-width: 1.1"/>
    </defs>
    <g clip-path="url(#p7c5b37e0a0)">
     <use xlink:href="#m8f1976114b" x="0" y="302.4" style="fill: #54a24b; fill-opacity: 0.28; stroke: #54a24b; stroke-opacity: 0.28; stroke-width: 1.1"/>
    </g>
   </g>
   <g id="FillBetweenPolyCollection_4">
    <defs>
     <path id="m5c70f62bad" d="M 346.856061 -70.113982 
L 342.039939 -70.113982 
L 342.005017 -72.060241 
L 341.973632 -74.0065 
L 341.944351 -75.952759 
L 341.915454 -77.899019 
L 341.884947 -79.845278 
L 341.850579 -81.791537 
L 341.80986 -83.737796 
L 341.760096 -85.684055 
L 341.698414 -87.630314 
L 341.621811 -89.576573 
L 341.527193 -91.522832 
L 341.411423 -93.469091 
L 341.271377 -95.41535 
L 341.103996 -97.361609 
L 340.906345 -99.307868 
L 340.675671 -101.254127 
L 340.409463 -103.200386 
L 340.105514 -105.146645 
L 339.761974 -107.092904 
L 339.377406 -109.039163 
L 338.950844 -110.985422 
L 338.481833 -112.931681 
L 337.970474 -114.87794 
L 337.417461 -116.8242 
L 336.824105 -118.770459 
L 336.19235 -120.716718 
L 335.524787 -122.662977 
L 334.824646 -124.609236 
L 334.095779 -126.555495 
L 333.342638 -128.501754 
L 332.57023 -130.448013 
L 331.784069 -132.394272 
L 330.990106 -134.340531 
L 330.194652 -136.28679 
L 329.404296 -138.233049 
L 328.625798 -140.179308 
L 327.865993 -142.125567 
L 327.131669 -144.071826 
L 326.42946 -146.018085 
L 325.765723 -147.964344 
L 325.146421 -149.910603 
L 324.577012 -151.856862 
L 324.062342 -153.803121 
L 323.606542 -155.749381 
L 323.212944 -157.69564 
L 322.884007 -159.641899 
L 322.621254 -161.588158 
L 322.425229 -163.534417 
L 322.295475 -165.480676 
L 322.230522 -167.426935 
L 322.227898 -169.373194 
L 322.284158 -171.319453 
L 322.394928 -173.265712 
L 322.554967 -175.211971 
L 322.758238 -177.15823 
L 322.998001 -179.104489 
L 323.266906 -181.050748 
L 323.557101 -182.997007 
L 323.860344 -184.943266 
L 324.168117 -186.889525 
L 324.471747 -188.835784 
L 324.762524 -190.782043 
L 325.031816 -192.728302 
L 325.271189 -194.674562 
L 325.472517 -196.620821 
L 325.628088 -198.56708 
L 325.730718 -200.513339 
L 325.773841 -202.459598 
L 325.751617 -204.405857 
L 325.659016 -206.352116 
L 325.491915 -208.298375 
L 325.247178 -210.244634 
L 324.922737 -212.190893 
L 324.517666 -214.137152 
L 324.032249 -216.083411 
L 323.468037 -218.02967 
L 322.827895 -219.975929 
L 322.116035 -221.922188 
L 321.338034 -223.868447 
L 320.50083 -225.814706 
L 319.612698 -227.760965 
L 318.683201 -229.707224 
L 317.723108 -231.653484 
L 316.744292 -233.599743 
L 315.759588 -235.546002 
L 314.782628 -237.492261 
L 313.827641 -239.43852 
L 312.909231 -241.384779 
L 312.042126 -243.331038 
L 311.240913 -245.277297 
L 310.51976 -247.223556 
L 309.892128 -249.169815 
L 309.370487 -251.116074 
L 308.966049 -253.062333 
L 308.688509 -255.008592 
L 308.54582 -256.954851 
L 308.544 -258.90111 
L 308.686984 -260.847369 
L 308.976518 -262.793628 
L 379.919482 -262.793628 
L 379.919482 -262.793628 
L 380.209016 -260.847369 
L 380.352 -258.90111 
L 380.35018 -256.954851 
L 380.207491 -255.008592 
L 379.929951 -253.062333 
L 379.525513 -251.116074 
L 379.003872 -249.169815 
L 378.37624 -247.223556 
L 377.655087 -245.277297 
L 376.853874 -243.331038 
L 375.986769 -241.384779 
L 375.068359 -239.43852 
L 374.113372 -237.492261 
L 373.136412 -235.546002 
L 372.151708 -233.599743 
L 371.172892 -231.653484 
L 370.212799 -229.707224 
L 369.283302 -227.760965 
L 368.39517 -225.814706 
L 367.557966 -223.868447 
L 366.779965 -221.922188 
L 366.068105 -219.975929 
L 365.427963 -218.02967 
L 364.863751 -216.083411 
L 364.378334 -214.137152 
L 363.973263 -212.190893 
L 363.648822 -210.244634 
L 363.404085 -208.298375 
L 363.236984 -206.352116 
L 363.144383 -204.405857 
L 363.122159 -202.459598 
L 363.165282 -200.513339 
L 363.267912 -198.56708 
L 363.423483 -196.620821 
L 363.624811 -194.674562 
L 363.864184 -192.728302 
L 364.133476 -190.782043 
L 364.424253 -188.835784 
L 364.727883 -186.889525 
L 365.035656 -184.943266 
L 365.338899 -182.997007 
L 365.629094 -181.050748 
L 365.897999 -179.104489 
L 366.137762 -177.15823 
L 366.341033 -175.211971 
L 366.501072 -173.265712 
L 366.611842 -171.319453 
L 366.668102 -169.373194 
L 366.665478 -167.426935 
L 366.600525 -165.480676 
L 366.470771 -163.534417 
L 366.274746 -161.588158 
L 366.011993 -159.641899 
L 365.683056 -157.69564 
L 365.289458 -155.749381 
L 364.833658 -153.803121 
L 364.318988 -151.856862 
L 363.749579 -149.910603 
L 363.130277 -147.964344 
L 362.46654 -146.018085 
L 361.764331 -144.071826 
L 361.030007 -142.125567 
L 360.270202 -140.179308 
L 359.491704 -138.233049 
L 358.701348 -136.28679 
L 357.905894 -134.340531 
L 357.111931 -132.394272 
L 356.32577 -130.448013 
L 355.553362 -128.501754 
L 354.800221 -126.555495 
L 354.071354 -124.609236 
L 353.371213 -122.662977 
L 352.70365 -120.716718 
L 352.071895 -118.770459 
L 351.478539 -116.8242 
L 350.925526 -114.87794 
L 350.414167 -112.931681 
L 349.945156 -110.985422 
L 349.518594 -109.039163 
L 349.134026 -107.092904 
L 348.790486 -105.146645 
L 348.486537 -103.200386 
L 348.220329 -101.254127 
L 347.989655 -99.307868 
L 347.792004 -97.361609 
L 347.624623 -95.41535 
L 347.484577 -93.469091 
L 347.368807 -91.522832 
L 347.274189 -89.576573 
L 347.197586 -87.630314 
L 347.135904 -85.684055 
L 347.08614 -83.737796 
L 347.045421 -81.791537 
L 347.011053 -79.845278 
L 346.980546 -77.899019 
L 346.951649 -75.952759 
L 346.922368 -74.0065 
L 346.890983 -72.060241 
L 346.856061 -70.113982 
z
" style="stroke: #b279a2; stroke-opacity: 0.28; stroke-width: 1.1"/>
    </defs>
    <g clip-path="url(#p7c5b37e0a0)">
     <use xlink:href="#m5c70f62bad" x="0" y="302.4" style="fill: #b279a2; fill-opacity: 0.28; stroke: #b279a2; stroke-opacity: 0.28; stroke-width: 1.1"/>
    </g>
   </g>
   <g id="patch_3">
    <path d="M 40.32 241.92 
L 40.32 24.192 
" style="fill: none; stroke: #000000; stroke-width: 0.8; stroke-linejoin: miter; stroke-linecap: square"/>
   </g>
   <g id="patch_4">
    <path d="M 40.32 241.92 
L 395.136 241.92 
" style="fill: none; stroke: #000000; stroke-width: 0.8; stroke-linejoin: miter; stroke-linecap: square"/>
   </g>
   <g id="patch_5">
    <path d="M 85.9392 178.984494 
L 96.0768 178.984494 
L 96.0768 93.886599 
L 85.9392 93.886599 
L 85.9392 178.984494 
z
" clip-path="url(#p7c5b37e0a0)" style="fill: #fcfcfb; stroke: #0b0b0b; stroke-width: 0.9; stroke-linejoin: miter"/>
   </g>
   <g id="line2d_21">
    <path d="M 91.008 178.984494 
L 91.008 229.678141 
" clip-path="url(#p7c5b37e0a0)" style="fill: none; stroke: #0b0b0b; stroke-width: 0.9; stroke-linecap: square"/>
   </g>
   <g id="line2d_22">
    <path d="M 91.008 93.886599 
L 91.008 68.83347 
" clip-path="url(#p7c5b37e0a0)" style="fill: none; stroke: #0b0b0b; stroke-width: 0.9; stroke-linecap: square"/>
   </g>
   <g id="line2d_23">
    <path d="M 88.4736 229.678141 
L 93.5424 229.678141 
" clip-path="url(#p7c5b37e0a0)" style="fill: none; stroke: #0b0b0b; stroke-width: 0.9; stroke-linecap: square"/>
   </g>
   <g id="line2d_24">
    <path d="M 88.4736 68.83347 
L 93.5424 68.83347 
" clip-path="url(#p7c5b37e0a0)" style="fill: none; stroke: #0b0b0b; stroke-width: 0.9; stroke-linecap: square"/>
   </g>
   <g id="line2d_25"/>
   <g id="patch_6">
    <path d="M 170.4192 107.92704 
L 180.5568 107.92704 
L 180.5568 76.678122 
L 170.4192 76.678122 
L 170.4192 107.92704 
z
" clip-path="url(#p7c5b37e0a0)" style="fill: #fcfcfb; stroke: #0b0b0b; stroke-width: 0.9; stroke-linejoin: miter"/>
   </g>
   <g id="line2d_26">
    <path d="M 175.488 107.92704 
L 175.488 112.659528 
" clip-path="url(#p7c5b37e0a0)" style="fill: none; stroke: #0b0b0b; stroke-width: 0.9; stroke-linecap: square"/>
   </g>
   <g id="line2d_27">
    <path d="M 175.488 76.678122 
L 175.488 42.09859 
" clip-path="url(#p7c5b37e0a0)" style="fill: none; stroke: #0b0b0b; stroke-width: 0.9; stroke-linecap: square"/>
   </g>
   <g id="line2d_28">
    <path d="M 172.9536 112.659528 
L 178.0224 112.659528 
" clip-path="url(#p7c5b37e0a0)" style="fill: none; stroke: #0b0b0b; stroke-width: 0.9; stroke-linecap: square"/>
   </g>
   <g id="line2d_29">
    <path d="M 172.9536 42.09859 
L 178.0224 42.09859 
" clip-path="url(#p7c5b37e0a0)" style="fill: none; stroke: #0b0b0b; stroke-width: 0.9; stroke-linecap: square"/>
   </g>
   <g id="line2d_30"/>
   <g id="patch_7">
    <path d="M 254.8992 67.827128 
L 265.0368 67.827128 
L 265.0368 45.120257 
L 254.8992 45.120257 
L 254.8992 67.827128 
z
" clip-path="url(#p7c5b37e0a0)" style="fill: #fcfcfb; stroke: #0b0b0b; stroke-width: 0.9; stroke-linejoin: miter"/>
   </g>
   <g id="line2d_31">
    <path d="M 259.968 67.827128 
L 259.968 67.827128 
" clip-path="url(#p7c5b37e0a0)" style="fill: none; stroke: #0b0b0b; stroke-width: 0.9; stroke-linecap: square"/>
   </g>
   <g id="line2d_32">
    <path d="M 259.968 45.120257 
L 259.968 45.120257 
" clip-path="url(#p7c5b37e0a0)" style="fill: none; stroke: #0b0b0b; stroke-width: 0.9; stroke-linecap: square"/>
   </g>
   <g id="line2d_33">
    <path d="M 257.4336 67.827128 
L 262.5024 67.827128 
" clip-path="url(#p7c5b37e0a0)" style="fill: none; stroke: #0b0b0b; stroke-width: 0.9; stroke-linecap: square"/>
   </g>
   <g id="line2d_34">
    <path d="M 257.4336 45.120257 
L 262.5024 45.120257 
" clip-path="url(#p7c5b37e0a0)" style="fill: none; stroke: #0b0b0b; stroke-width: 0.9; stroke-linecap: square"/>
   </g>
   <g id="line2d_35">
    <defs>
     <path id="m670cc5a2ec" d="M 0 1.25 
C 0.331504 1.25 0.649475 1.118292 0.883883 0.883883 
C 1.118292 0.649475 1.25 0.331504 1.25 0 
C 1.25 -0.331504 1.118292 -0.649475 0.883883 -0.883883 
C 0.649475 -1.118292 0.331504 -1.25 0 -1.25 
C -0.331504 -1.25 -0.649475 -1.118292 -0.883883 -0.883883 
C -1.118292 -0.649475 -1.25 -0.331504 -1.25 0 
C -1.25 0.331504 -1.118292 0.649475 -0.883883 0.883883 
C -0.649475 1.118292 -0.331504 1.25 0 1.25 
z
" style="stroke: #0b0b0b"/>
    </defs>
    <g clip-path="url(#p7c5b37e0a0)">
     <use xlink:href="#m670cc5a2ec" x="259.968" y="104.141702" style="fill: #0b0b0b; stroke: #0b0b0b"/>
    </g>
   </g>
   <g id="patch_8">
    <path d="M 339.3792 136.507035 
L 349.5168 136.507035 
L 349.5168 39.606372 
L 339.3792 39.606372 
L 339.3792 136.507035 
z
" clip-path="url(#p7c5b37e0a0)" style="fill: #fcfcfb; stroke: #0b0b0b; stroke-width: 0.9; stroke-linejoin: miter"/>
   </g>
   <g id="line2d_36">
    <path d="M 344.448 136.507035 
L 344.448 232.286018 
" clip-path="url(#p7c5b37e0a0)" style="fill: none; stroke: #0b0b0b; stroke-width: 0.9; stroke-linecap: square"/>
   </g>
   <g id="line2d_37">
    <path d="M 344.448 39.606372 
L 344.448 39.606372 
" clip-path="url(#p7c5b37e0a0)" style="fill: none; stroke: #0b0b0b; stroke-width: 0.9; stroke-linecap: square"/>
   </g>
   <g id="line2d_38">
    <path d="M 341.9136 232.286018 
L 346.9824 232.286018 
" clip-path="url(#p7c5b37e0a0)" style="fill: none; stroke: #0b0b0b; stroke-width: 0.9; stroke-linecap: square"/>
   </g>
   <g id="line2d_39">
    <path d="M 341.9136 39.606372 
L 346.9824 39.606372 
" clip-path="url(#p7c5b37e0a0)" style="fill: none; stroke: #0b0b0b; stroke-width: 0.9; stroke-linecap: square"/>
   </g>
   <g id="line2d_40"/>
   <g id="line2d_41">
    <path d="M 85.9392 117.600084 
L 96.0768 117.600084 
" clip-path="url(#p7c5b37e0a0)" style="fill: none; stroke: #0b0b0b; stroke-width: 1.3"/>
   </g>
   <g id="line2d_42">
    <path d="M 170.4192 101.288781 
L 180.5568 101.288781 
" clip-path="url(#p7c5b37e0a0)" style="fill: none; stroke: #0b0b0b; stroke-width: 1.3"/>
   </g>
   <g id="line2d_43">
    <path d="M 254.8992 45.120257 
L 265.0368 45.120257 
" clip-path="url(#p7c5b37e0a0)" style="fill: none; stroke: #0b0b0b; stroke-width: 1.3"/>
   </g>
   <g id="line2d_44">
    <path d="M 339.3792 64.657218 
L 349.5168 64.657218 
" clip-path="url(#p7c5b37e0a0)" style="fill: none; stroke: #0b0b0b; stroke-width: 1.3"/>
   </g>
  </g>
  <g id="text_12">
   <text style="font-size: 12px; font-family: 'DejaVu Sans', 'Bitstream Vera Sans', 'Computer Modern Sans Serif', 'Lucida Grande', 'Verdana', 'Geneva', 'Lucid', 'Arial', 'Helvetica', 'Avant Garde', sans-serif; text-anchor: start; fill: #0b0b0b" x="8.064" y="15.166125" transform="rotate(-0 8.064 15.166125)">FK integrity by fixture (self-correction on) — violin + box over every run</text>
  </g>
 </g>
 <defs>
  <clipPath id="p7c5b37e0a0">
   <rect x="40.32" y="24.192" width="354.816" height="217.728"/>
  </clipPath>
 </defs>
</svg>
