<?xml version="1.0" encoding="utf-8" standalone="no"?>
<!DOCTYPE svg PUBLIC "-//W3C//DTD SVG 1.1//EN"
  "http://www.w3.org/Graphics/SVG/1.1/DTD/svg11.dtd">
<svg xmlns:xlink="http://www.w3.org/1999/xlink" width="468pt" height="302.4pt" viewBox="0 0 468 302.4" xmlns="http://www.w3.org/2000/svg" version="1.1">
 <metadata>
  <rdf:RDF xmlns:dc="http://purl.org/dc/elements/1.1/" xmlns:cc="http://creativecommons.org/ns#" xmlns:rdf="http://www.w3.org/1999/02/22-rdf-syntax-ns#">
   <cc:Work>
    <dc:type rdf:resource="http://purl.org/dc/dcmitype/StillImage"/>
    <dc:format>image/svg+xml</dc:format>
    <dc:creator>
     <cc:Agent>
      <dc:title>Matplotlib v3.10.9, https://matplotlib.org/</dc:title>
     </cc:Agent>
    </dc:creator>
   </cc:Work>
  </rdf:RDF>
 </metadata>
 <defs>
  <style type="text/css">*{stroke-linejoin: round; stroke-linecap: butt}</style>
 </defs>
 <g id="figure_1">
  <g id="patch_1">
   <path d="M 0 302.4 
L 468 302.4 
L 468 0 
L 0 0 
L 0 302.4 
z
" style="fill: none"/>
  </g>
  <g id="axes_1">
   <g id="patch_2">
    <path d="M 46.8 241.92 
L 458.64 241.92 
L 458.64 24.192 
L 46.8 24.192 
L 46.8 241.92 
z
" style="fill: none"/>
   </g>
   <g id="matplotlib.axis_1">
    <g id="xtick_1">
     <g id="line2d_1">
      <path d="M 94.32 241.92 
L 94.32 24.192 
" clip-path="url(#p7123ebbcfd)" style="fill: none; stroke: #b0b0b0; stroke-opacity: 0.3; stroke-width: 0.8; stroke-linecap: square"/>
     </g>
     <g id="line2d_2">
      <defs>
       <path id="m5d2824273e" d="M 0 0 
L 0 3.5 
" style="stroke: #000000; stroke-width: 0.8"/>
      </defs>
      <g>
       <use xlink:href="#m5d2824273e" x="94.32" y="241.92" style="stroke: #000000; stroke-width: 0.8"/>
      </g>
     </g>
     <g id="text_1">
      <text style="font-size: 9px; font-family: 'DejaVu Sans', 'Bitstream Vera Sans', 'Computer Modern Sans Serif', 'Lucida Grande', 'Verdana', 'Geneva', 'Lucid', 'Arial', 'Helvetica', 'Avant Garde', sans-serif; fill: #0b0b0b" transform="translate(9.967962 294.033683) rotate(-25)">write_tools_freeform</text>
     </g>
    </g>
    <g id="xtick_2">
     <g id="line2d_3">
      <path d="M 173.52 241.92 
L 173.52 24.192 
" clip-path="url(#p7123ebbcfd)" style="fill: none; stroke: #b0b0b0; stroke-opacity: 0.3; stroke-width: 0.8; stroke-linecap: square"/>
     </g>
     <g id="line2d_4">
      <g>
       <use xlink:href="#m5d2824273e" x="173.52" y="241.92" style="stroke: #000000; stroke-width: 0.8"/>
      </g>
     </g>
     <g id="text_2">
      <text style="font-size: 9px; font-family: 'DejaVu Sans', 'Bitstream Vera Sans', 'Computer Modern Sans Serif', 'Lucida Grande', 'Verdana', 'Geneva', 'Lucid', 'Arial', 'Helvetica', 'Avant Garde', sans-serif; fill: #0b0b0b" transform="translate(94.469863 291.561366) rotate(-25)">write_then_critique</text>
     </g>
    </g>
    <g id="xtick_3">
     <g id="line2d_5">
      <path d="M 252.72 241.92 
L 252.72 24.192 
" clip-path="url(#p7123ebbcfd)" style="fill: none; stroke: #b0b0b0; stroke-opacity: 0.3; stroke-width: 0.8; stroke-linecap: square"/>
     </g>
     <g id="line2d_6">
      <g>
       <use xlink:href="#m5d2824273e" x="252.72" y="241.92" style="stroke: #000000; stroke-width: 0.8"/>
      </g>
     </g>
     <g id="text_3">
      <text style="font-size: 9px; font-family: 'DejaVu Sans', 'Bitstream Vera Sans', 'Computer Modern Sans Serif', 'Lucida Grande', 'Verdana', 'Geneva', 'Lucid', 'Arial', 'Helvetica', 'Avant Garde', sans-serif; fill: #0b0b0b" transform="translate(175.159748 290.866621) rotate(-25)">plan_then_execute</text>
     </g>
    </g>
    <g id="xtick_4">
     <g id="line2d_7">
      <path d="M 331.92 241.92 
L 331.92 24.192 
" clip-path="url(#p7123ebbcfd)" style="fill: none; stroke: #b0b0b0; stroke-opacity: 0.3; stroke-width: 0.8; stroke-linecap: square"/>
     </g>
     <g id="line2d_8">
      <g>
       <use xlink:href="#m5d2824273e" x="331.92" y="241.92" style="stroke: #000000; stroke-width: 0.8"/>
      </g>
     </g>
     <g id="text_4">
      <text style="font-size: 9px; font-family: 'DejaVu Sans', 'Bitstream Vera Sans', 'Computer Modern Sans Serif', 'Lucida Grande', 'Verdana', 'Geneva', 'Lucid', 'Arial', 'Helvetica', 'Avant Garde', sans-serif; fill: #0b0b0b" transform="translate(269.044483 284.019017) rotate(-25)">ensemble_vote</text>
     </g>
    </g>
    <g id="xtick_5">
     <g id="line2d_9">
      <path d="M 411.12 241.92 
L 411.12 24.192 
" clip-path="url(#p7123ebbcfd)" style="fill: none; stroke: #b0b0b0; stroke-opacity: 0.3; stroke-width: 0.8; stroke-linecap: square"/>
     </g>
     <g id="line2d_10">
      <g>
       <use xlink:href="#m5d2824273e" x="411.12" y="241.92" style="stroke: #000000; stroke-width: 0.8"/>
      </g>
     </g>
     <g id="text_5">
      <text style="font-size: 9px; font-family: 'DejaVu Sans', 'Bitstream Vera Sans', 'Computer Modern Sans Serif', 'Lucida Grande', 'Verdana', 'Geneva', 'Lucid', 'Arial', 'Helvetica', 'Avant Garde', sans-serif; fill: #0b0b0b" transform="translate(325.668073 294.54657) rotate(-25)">structured_per_table</text>
     </g>
    </g>
   </g>
   <g id="matplotlib.axis_2">
    <g id="ytick_1">
     <g id="line2d_11">
      <path d="M 46.8 232.286018 
L 458.64 232.286018 
" clip-path="url(#p7123ebbcfd)" style="fill: none; stroke: #b0b0b0; stroke-opacity: 0.3; stroke-width: 0.8; stroke-linecap: square"/>
     </g>
     <g id="line2d_12">
      <defs>
       <path id="m1aadde956b" d="M 0 0 
L -3.5 0 
" style="stroke: #000000; stroke-width: 0.8"/>
      </defs>
      <g>
       <use xlink:href="#m1aadde956b" x="46.8" y="232.286018" style="stroke: #000000; stroke-width: 0.8"/>
      </g>
     </g>
     <g id="text_6">
      <text style="font-size: 11px; font-family: 'DejaVu Sans', 'Bitstream Vera Sans', 'Computer Modern Sans Serif', 'Lucida Grande', 'Verdana', 'Geneva', 'Lucid', 'Arial', 'Helvetica', 'Avant Garde', sans-serif; text-anchor: end" x="39.8" y="236.465158" transform="rotate(-0 39.8 236.465158)">0.0</text>
     </g>
    </g>
    <g id="ytick_2">
     <g id="line2d_13">
      <path d="M 46.8 193.750088 
L 458.64 193.750088 
" clip-path="url(#p7123ebbcfd)" style="fill: none; stroke: #b0b0b0; stroke-opacity: 0.3; stroke-width: 0.8; stroke-linecap: square"/>
     </g>
     <g id="line2d_14">
      <g>
       <use xlink:href="#m1aadde956b" x="46.8" y="193.750088" style="stroke: #000000; stroke-width: 0.8"/>
      </g>
     </g>
     <g id="text_7">
      <text style="font-size: 11px; font-family: 'DejaVu Sans', 'Bitstream Vera Sans', 'Computer Modern Sans Serif', 'Lucida Grande', 'Verdana', 'Geneva', 'Lucid', 'Arial', 'Helvetica', 'Avant Garde', sans-serif; text-anchor: end" x="39.8" y="197.929229" transform="rotate(-0 39.8 197.929229)">0.2</text>
     </g>
    </g>
    <g id="ytick_3">
     <g id="line2d_15">
      <path d="M 46.8 155.214159 
L 458.64 155.214159 
" clip-path="url(#p7123ebbcfd)" style="fill: none; stroke: #b0b0b0; stroke-opacity: 0.3; stroke-width: 0.8; stroke-linecap: square"/>
     </g>
     <g id="line2d_16">
      <g>
       <use xlink:href="#m1aadde956b" x="46.8" y="155.214159" style="stroke: #000000; stroke-width: 0.8"/>
      </g>
     </g>
     <g id="text_8">
      <text style="font-size: 11px; font-family: 'DejaVu Sans', 'Bitstream Vera Sans', 'Computer Modern Sans Serif', 'Lucida Grande', 'Verdana', 'Geneva', 'Lucid', 'Arial', 'Helvetica', 'Avant Garde', sans-serif; text-anchor: end" x="39.8" y="159.3933" transform="rotate(-0 39.8 159.3933)">0.4</text>
     </g>
    </g>
    <g id="ytick_4">
     <g id="line2d_17">
      <path d="M 46.8 116.67823 
L 458.64 116.67823 
" clip-path="url(#p7123ebbcfd)" style="fill: none; stroke: #b0b0b0; stroke-opacity: 0.3; stroke-width: 0.8; stroke-linecap: square"/>
     </g>
     <g id="line2d_18">
      <g>
       <use xlink:href="#m1aadde956b" x="46.8" y="116.67823" style="stroke: #000000; stroke-width: 0.8"/>
      </g>
     </g>
     <g id="text_9">
      <text style="font-size: 11px; font-family: 'DejaVu Sans', 'Bitstream Vera Sans', 'Computer Modern Sans Serif', 'Lucida Grande', 'Verdana', 'Geneva', 'Lucid', 'Arial', 'Helvetica', 'Avant Garde', sans-serif; text-anchor: end" x="39.8" y="120.857371" transform="rotate(-0 39.8 120.857371)">0.6</text>
     </g>
    </g>
    <g id="ytick_5">
     <g id="line2d_19">
      <path d="M 46.8 78.142301 
L 458.64 78.142301 
" clip-path="url(#p7123ebbcfd)" style="fill: none; stroke: #b0b0b0; stroke-opacity: 0.3; stroke-width: 0.8; stroke-linecap: square"/>
     </g>
     <g id="line2d_20">
      <g>
       <use xlink:href="#m1aadde956b" x="46.8" y="78.142301" style="stroke: #000000; stroke-width: 0.8"/>
      </g>
     </g>
     <g id="text_10">
      <text style="font-size: 11px; font-family: 'DejaVu Sans', 'Bitstream Vera Sans', 'Computer Modern Sans Serif', 'Lucida Grande', 'Verdana', 'Geneva', 'Lucid', 'Arial', 'Helvetica', 'Avant Garde', sans-serif; text-anchor: end" x="39.8" y="82.321442" transform="rotate(-0 39.8 82.321442)">0.8</text>
     </g>
    </g>
    <g id="ytick_6">
     <g id="line2d_21">
      <path d="M 46.8 39.606372 
L 458.64 39.606372 
" clip-path="url(#p7123ebbcfd)" style="fill: none; stroke: #b0b0b0; stroke-opacity: 0.3; stroke-width: 0.8; stroke-linecap: square"/>
     </g>
     <g id="line2d_22">
      <g>
       <use xlink:href="#m1aadde956b" x="46.8" y="39.606372" style="stroke: #000000; stroke-width: 0.8"/>
      </g>
     </g>
     <g id="text_11">
      <text style="font-size: 11px; font-family: 'DejaVu Sans', 'Bitstream Vera Sans', 'Computer Modern Sans Serif', 'Lucida Grande', 'Verdana', 'Geneva', 'Lucid', 'Arial', 'Helvetica', 'Avant Garde', sans-serif; text-anchor: end" x="39.8" y="43.785512" transform="rotate(-0 39.8 43.785512)">1.0</text>
     </g>
    </g>
    <g id="text_12">
     <text style="font-size: 11px; font-family: 'DejaVu Sans', 'Bitstream Vera Sans', 'Computer Modern Sans Serif', 'Lucida Grande', 'Verdana', 'Geneva', 'Lucid', 'Arial', 'Helvetica', 'Avant Garde', sans-serif; text-anchor: middle; fill: #0b0b0b" x="16.018906" y="133.056" transform="rotate(-90 16.018906 133.056)">FK integrity</text>
    </g>
   </g>
   <g id="FillBetweenPolyCollection_1">
    <defs>
     <path id="m94b87e1e28" d="M 116.805039 -189.740472 
L 71.834961 -189.740472 
L 71.536593 -190.478383 
L 71.263786 -191.216294 
L 71.017343 -191.954204 
L 70.797964 -192.692115 
L 70.606246 -193.430026 
L 70.442673 -194.167936 
L 70.307621 -194.905847 
L 70.201349 -195.643758 
L 70.123999 -196.381668 
L 70.075595 -197.119579 
L 70.056043 -197.85749 
L 70.065125 -198.5954 
L 70.102505 -199.333311 
L 70.167727 -200.071222 
L 70.260214 -200.809132 
L 70.379273 -201.547043 
L 70.52409 -202.284954 
L 70.69374 -203.022864 
L 70.887183 -203.760775 
L 71.103269 -204.498686 
L 71.340742 -205.236596 
L 71.598242 -205.974507 
L 71.874309 -206.712418 
L 72.167388 -207.450328 
L 72.475833 -208.188239 
L 72.797911 -208.92615 
L 73.131809 -209.66406 
L 73.475641 -210.401971 
L 73.82745 -211.139882 
L 74.185218 -211.877792 
L 74.546871 -212.615703 
L 74.910287 -213.353614 
L 75.273307 -214.091524 
L 75.633738 -214.829435 
L 75.989363 -215.567346 
L 76.337955 -216.305256 
L 76.677278 -217.043167 
L 77.005106 -217.781078 
L 77.319225 -218.518988 
L 77.617449 -219.256899 
L 77.897631 -219.99481 
L 78.157669 -220.73272 
L 78.395523 -221.470631 
L 78.609226 -222.208542 
L 78.79689 -222.946452 
L 78.956727 -223.684363 
L 79.087054 -224.422274 
L 79.186305 -225.160184 
L 79.253048 -225.898095 
L 79.28599 -226.636006 
L 79.283994 -227.373916 
L 79.246084 -228.111827 
L 79.171459 -228.849738 
L 79.059504 -229.587648 
L 78.909794 -230.325559 
L 78.722105 -231.06347 
L 78.496421 -231.80138 
L 78.232942 -232.539291 
L 77.932086 -233.277202 
L 77.594493 -234.015112 
L 77.22103 -234.753023 
L 76.812791 -235.490934 
L 76.371096 -236.228844 
L 75.89749 -236.966755 
L 75.393739 -237.704666 
L 74.861826 -238.442576 
L 74.303944 -239.180487 
L 73.722485 -239.918398 
L 73.120035 -240.656308 
L 72.499358 -241.394219 
L 71.863384 -242.13213 
L 71.215194 -242.87004 
L 70.558004 -243.607951 
L 69.895147 -244.345862 
L 69.230052 -245.083772 
L 68.566228 -245.821683 
L 67.907237 -246.559594 
L 67.256676 -247.297504 
L 66.618151 -248.035415 
L 65.995255 -248.773326 
L 65.391546 -249.511236 
L 64.810518 -250.249147 
L 64.255581 -250.987058 
L 63.730036 -251.724968 
L 63.237053 -252.462879 
L 62.779646 -253.20079 
L 62.360656 -253.9387 
L 61.982726 -254.676611 
L 61.648285 -255.414522 
L 61.359532 -256.152432 
L 61.118417 -256.890343 
L 60.92663 -257.628254 
L 60.785588 -258.366164 
L 60.696429 -259.104075 
L 60.66 -259.841986 
L 60.676856 -260.579896 
L 60.747257 -261.317807 
L 60.871167 -262.055718 
L 61.048258 -262.793628 
L 127.591742 -262.793628 
L 127.591742 -262.793628 
L 127.768833 -262.055718 
L 127.892743 -261.317807 
L 127.963144 -260.579896 
L 127.98 -259.841986 
L 127.943571 -259.104075 
L 127.854412 -258.366164 
L 127.71337 -257.628254 
L 127.521583 -256.890343 
L 127.280468 -256.152432 
L 126.991715 -255.414522 
L 126.657274 -254.676611 
L 126.279344 -253.9387 
L 125.860354 -253.20079 
L 125.402947 -252.462879 
L 124.909964 -251.724968 
L 124.384419 -250.987058 
L 123.829482 -250.249147 
L 123.248454 -249.511236 
L 122.644745 -248.773326 
L 122.021849 -248.035415 
L 121.383324 -247.297504 
L 120.732763 -246.559594 
L 120.073772 -245.821683 
L 119.409948 -245.083772 
L 118.744853 -244.345862 
L 118.081996 -243.607951 
L 117.424806 -242.87004 
L 116.776616 -242.13213 
L 116.140642 -241.394219 
L 115.519965 -240.656308 
L 114.917515 -239.918398 
L 114.336056 -239.180487 
L 113.778174 -238.442576 
L 113.246261 -237.704666 
L 112.74251 -236.966755 
L 112.268904 -236.228844 
L 111.827209 -235.490934 
L 111.41897 -234.753023 
L 111.045507 -234.015112 
L 110.707914 -233.277202 
L 110.407058 -232.539291 
L 110.143579 -231.80138 
L 109.917895 -231.06347 
L 109.730206 -230.325559 
L 109.580496 -229.587648 
L 109.468541 -228.849738 
L 109.393916 -228.111827 
L 109.356006 -227.373916 
L 109.35401 -226.636006 
L 109.386952 -225.898095 
L 109.453695 -225.160184 
L 109.552946 -224.422274 
L 109.683273 -223.684363 
L 109.84311 -222.946452 
L 110.030774 -222.208542 
L 110.244477 -221.470631 
L 110.482331 -220.73272 
L 110.742369 -219.99481 
L 111.022551 -219.256899 
L 111.320775 -218.518988 
L 111.634894 -217.781078 
L 111.962722 -217.043167 
L 112.302045 -216.305256 
L 112.650637 -215.567346 
L 113.006262 -214.829435 
L 113.366693 -214.091524 
L 113.729713 -213.353614 
L 114.093129 -212.615703 
L 114.454782 -211.877792 
L 114.81255 -211.139882 
L 115.164359 -210.401971 
L 115.508191 -209.66406 
L 115.842089 -208.92615 
L 116.164167 -208.188239 
L 116.472612 -207.450328 
L 116.765691 -206.712418 
L 117.041758 -205.974507 
L 117.299258 -205.236596 
L 117.536731 -204.498686 
L 117.752817 -203.760775 
L 117.94626 -203.022864 
L 118.11591 -202.284954 
L 118.260727 -201.547043 
L 118.379786 -200.809132 
L 118.472273 -200.071222 
L 118.537495 -199.333311 
L 118.574875 -198.5954 
L 118.583957 -197.85749 
L 118.564405 -197.119579 
L 118.516001 -196.381668 
L 118.438651 -195.643758 
L 118.332379 -194.905847 
L 118.197327 -194.167936 
L 118.033754 -193.430026 
L 117.842036 -192.692115 
L 117.622657 -191.954204 
L 117.376214 -191.216294 
L 117.103407 -190.478383 
L 116.805039 -189.740472 
z
" style="stroke: #2f6fb0; stroke-opacity: 0.28; stroke-width: 1.1"/>
    </defs>
    <g clip-path="url(#p7123ebbcfd)">
     <use xlink:href="#m94b87e1e28" x="0" y="302.4" style="fill: #2f6fb0; fill-opacity: 0.28; stroke: #2f6fb0; stroke-opacity: 0.28; stroke-width: 1.1"/>
    </g>
   </g>
   <g id="FillBetweenPolyCollection_2">
    <defs>
     <path id="m8a269a773b" d="M 177.347896 -146.835116 
L 169.692104 -146.835116 
L 169.551354 -148.006414 
L 169.405404 -149.177712 
L 169.252725 -150.34901 
L 169.091666 -151.520308 
L 168.920491 -152.691606 
L 168.737412 -153.862904 
L 168.540631 -155.034202 
L 168.328385 -156.2055 
L 168.098989 -157.376799 
L 167.850882 -158.548097 
L 167.582675 -159.719395 
L 167.293194 -160.890693 
L 166.981519 -162.061991 
L 166.64702 -163.233289 
L 166.28939 -164.404587 
L 165.908671 -165.575885 
L 165.505265 -166.747183 
L 165.07995 -167.918481 
L 164.633877 -169.08978 
L 164.168564 -170.261078 
L 163.685878 -171.432376 
L 163.188012 -172.603674 
L 162.677455 -173.774972 
L 162.156945 -174.94627 
L 161.62943 -176.117568 
L 161.098012 -177.288866 
L 160.565893 -178.460164 
L 160.036316 -179.631463 
L 159.512504 -180.802761 
L 158.997598 -181.974059 
L 158.494602 -183.145357 
L 158.006317 -184.316655 
L 157.535296 -185.487953 
L 157.083787 -186.659251 
L 156.653696 -187.830549 
L 156.246543 -189.001847 
L 155.863441 -190.173146 
L 155.505067 -191.344444 
L 155.171654 -192.515742 
L 154.862984 -193.68704 
L 154.578397 -194.858338 
L 154.316799 -196.029636 
L 154.076687 -197.200934 
L 153.856181 -198.372232 
L 153.653057 -199.54353 
L 153.464796 -200.714829 
L 153.288631 -201.886127 
L 153.1216 -203.057425 
L 152.96061 -204.228723 
L 152.802491 -205.400021 
L 152.64406 -206.571319 
L 152.482183 -207.742617 
L 152.313827 -208.913915 
L 152.136125 -210.085213 
L 151.946417 -211.256512 
L 151.742302 -212.42781 
L 151.521674 -213.599108 
L 151.282753 -214.770406 
L 151.024109 -215.941704 
L 150.744677 -217.113002 
L 150.443765 -218.2843 
L 150.121057 -219.455598 
L 149.776603 -220.626896 
L 149.410809 -221.798195 
L 149.024421 -222.969493 
L 148.618502 -224.140791 
L 148.194417 -225.312089 
L 147.753804 -226.483387 
L 147.298554 -227.654685 
L 146.830796 -228.825983 
L 146.352878 -229.997281 
L 145.867354 -231.168579 
L 145.376977 -232.339877 
L 144.884694 -233.511176 
L 144.393647 -234.682474 
L 143.907173 -235.853772 
L 143.428807 -237.02507 
L 142.96229 -238.196368 
L 142.511564 -239.367666 
L 142.080774 -240.538964 
L 141.674259 -241.710262 
L 141.296539 -242.88156 
L 140.952287 -244.052859 
L 140.646299 -245.224157 
L 140.383445 -246.395455 
L 140.168617 -247.566753 
L 140.006657 -248.738051 
L 139.902283 -249.909349 
L 139.86 -251.080647 
L 139.884011 -252.251945 
L 139.978118 -253.423243 
L 140.145624 -254.594542 
L 140.389241 -255.76584 
L 140.710997 -256.937138 
L 141.112158 -258.108436 
L 141.59316 -259.279734 
L 142.153555 -260.451032 
L 142.791976 -261.62233 
L 143.506125 -262.793628 
L 203.533875 -262.793628 
L 203.533875 -262.793628 
L 204.248024 -261.62233 
L 204.886445 -260.451032 
L 205.44684 -259.279734 
L 205.927842 -258.108436 
L 206.329003 -256.937138 
L 206.650759 -255.76584 
L 206.894376 -254.594542 
L 207.061882 -253.423243 
L 207.155989 -252.251945 
L 207.18 -251.080647 
L 207.137717 -249.909349 
L 207.033343 -248.738051 
L 206.871383 -247.566753 
L 206.656555 -246.395455 
L 206.393701 -245.224157 
L 206.087713 -244.052859 
L 205.743461 -242.88156 
L 205.365741 -241.710262 
L 204.959226 -240.538964 
L 204.528436 -239.367666 
L 204.07771 -238.196368 
L 203.611193 -237.02507 
L 203.132827 -235.853772 
L 202.646353 -234.682474 
L 202.155306 -233.511176 
L 201.663023 -232.339877 
L 201.172646 -231.168579 
L 200.687122 -229.997281 
L 200.209204 -228.825983 
L 199.741446 -227.654685 
L 199.286196 -226.483387 
L 198.845583 -225.312089 
L 198.421498 -224.140791 
L 198.015579 -222.969493 
L 197.629191 -221.798195 
L 197.263397 -220.626896 
L 196.918943 -219.455598 
L 196.596235 -218.2843 
L 196.295323 -217.113002 
L 196.015891 -215.941704 
L 195.757247 -214.770406 
L 195.518326 -213.599108 
L 195.297698 -212.42781 
L 195.093583 -211.256512 
L 194.903875 -210.085213 
L 194.726173 -208.913915 
L 194.557817 -207.742617 
L 194.39594 -206.571319 
L 194.237509 -205.400021 
L 194.07939 -204.228723 
L 193.9184 -203.057425 
L 193.751369 -201.886127 
L 193.575204 -200.714829 
L 193.386943 -199.54353 
L 193.183819 -198.372232 
L 192.963313 -197.200934 
L 192.723201 -196.029636 
L 192.461603 -194.858338 
L 192.177016 -193.68704 
L 191.868346 -192.515742 
L 191.534933 -191.344444 
L 191.176559 -190.173146 
L 190.793457 -189.001847 
L 190.386304 -187.830549 
L 189.956213 -186.659251 
L 189.504704 -185.487953 
L 189.033683 -184.316655 
L 188.545398 -183.145357 
L 188.042402 -181.974059 
L 187.527496 -180.802761 
L 187.003684 -179.631463 
L 186.474107 -178.460164 
L 185.941988 -177.288866 
L 185.41057 -176.117568 
L 184.883055 -174.94627 
L 184.362545 -173.774972 
L 183.851988 -172.603674 
L 183.354122 -171.432376 
L 182.871436 -170.261078 
L 182.406123 -169.08978 
L 181.96005 -167.918481 
L 181.534735 -166.747183 
L 181.131329 -165.575885 
L 180.75061 -164.404587 
L 180.39298 -163.233289 
L 180.058481 -162.061991 
L 179.746806 -160.890693 
L 179.457325 -159.719395 
L 179.189118 -158.548097 
L 178.941011 -157.376799 
L 178.711615 -156.2055 
L 178.499369 -155.034202 
L 178.302588 -153.862904 
L 178.119509 -152.691606 
L 177.948334 -151.520308 
L 177.787275 -150.34901 
L 177.634596 -149.177712 
L 177.488646 -148.006414 
L 177.347896 -146.835116 
z
" style="stroke: #e8a800; stroke-opacity: 0.28; stroke-width: 1.1"/>
    </defs>
    <g clip-path="url(#p7123ebbcfd)">
     <use xlink:href="#m8a269a773b" x="0" y="302.4" style="fill: #e8a800; fill-opacity: 0.28; stroke: #e8a800; stroke-opacity: 0.28; stroke-width: 1.1"/>
    </g>
   </g>
   <g id="FillBetweenPolyCollection_3">
    <defs>
     <path id="m07b571f845" d="M 259.100713 -120.45207 
L 246.339287 -120.45207 
L 246.092943 -121.889864 
L 245.855736 -123.327658 
L 245.628679 -124.765451 
L 245.412606 -126.203245 
L 245.208133 -127.641038 
L 245.015634 -129.078832 
L 244.835203 -130.516625 
L 244.666634 -131.954419 
L 244.509389 -133.392212 
L 244.362579 -134.830006 
L 244.224946 -136.267799 
L 244.094853 -137.705593 
L 243.970276 -139.143386 
L 243.84881 -140.58118 
L 243.727676 -142.018973 
L 243.603745 -143.456767 
L 243.473567 -144.89456 
L 243.33341 -146.332354 
L 243.179314 -147.770147 
L 243.007145 -149.207941 
L 242.812674 -150.645734 
L 242.591648 -152.083528 
L 242.339883 -153.521321 
L 242.05335 -154.959115 
L 241.728276 -156.396908 
L 241.361237 -157.834702 
L 240.94926 -159.272495 
L 240.489911 -160.710289 
L 239.981386 -162.148082 
L 239.422587 -163.585876 
L 238.813186 -165.023669 
L 238.153684 -166.461463 
L 237.445437 -167.899256 
L 236.690682 -169.33705 
L 235.892528 -170.774843 
L 235.054937 -172.212637 
L 234.18268 -173.65043 
L 233.281273 -175.088224 
L 232.356891 -176.526018 
L 231.416274 -177.963811 
L 230.466603 -179.401605 
L 229.515379 -180.839398 
L 228.570277 -182.277192 
L 227.639012 -183.714985 
L 226.729183 -185.152779 
L 225.848134 -186.590572 
L 225.002817 -188.028366 
L 224.199656 -189.466159 
L 223.444436 -190.903953 
L 222.742197 -192.341746 
L 222.097151 -193.77954 
L 221.512618 -195.217333 
L 220.990982 -196.655127 
L 220.533666 -198.09292 
L 220.141133 -199.530714 
L 219.812905 -200.968507 
L 219.547601 -202.406301 
L 219.342994 -203.844094 
L 219.196083 -205.281888 
L 219.103178 -206.719681 
L 219.06 -208.157475 
L 219.061783 -209.595268 
L 219.103389 -211.033062 
L 219.179417 -212.470855 
L 219.284328 -213.908649 
L 219.412553 -215.346442 
L 219.558609 -216.784236 
L 219.717208 -218.222029 
L 219.883357 -219.659823 
L 220.052456 -221.097616 
L 220.220382 -222.53541 
L 220.383571 -223.973203 
L 220.539081 -225.410997 
L 220.684651 -226.84879 
L 220.818745 -228.286584 
L 220.940585 -229.724378 
L 221.050166 -231.162171 
L 221.148263 -232.599965 
L 221.23642 -234.037758 
L 221.316924 -235.475552 
L 221.39276 -236.913345 
L 221.46756 -238.351139 
L 221.545526 -239.788932 
L 221.631345 -241.226726 
L 221.730086 -242.664519 
L 221.847094 -244.102313 
L 221.987861 -245.540106 
L 222.157902 -246.9779 
L 222.362618 -248.415693 
L 222.607166 -249.853487 
L 222.896318 -251.29128 
L 223.234344 -252.729074 
L 223.624888 -254.166867 
L 224.070867 -255.604661 
L 224.574378 -257.042454 
L 225.136634 -258.480248 
L 225.757911 -259.918041 
L 226.437523 -261.355835 
L 227.173818 -262.793628 
L 278.266182 -262.793628 
L 278.266182 -262.793628 
L 279.002477 -261.355835 
L 279.682089 -259.918041 
L 280.303366 -258.480248 
L 280.865622 -257.042454 
L 281.369133 -255.604661 
L 281.815112 -254.166867 
L 282.205656 -252.729074 
L 282.543682 -251.29128 
L 282.832834 -249.853487 
L 283.077382 -248.415693 
L 283.282098 -246.9779 
L 283.452139 -245.540106 
L 283.592906 -244.102313 
L 283.709914 -242.664519 
L 283.808655 -241.226726 
L 283.894474 -239.788932 
L 283.97244 -238.351139 
L 284.04724 -236.913345 
L 284.123076 -235.475552 
L 284.20358 -234.037758 
L 284.291737 -232.599965 
L 284.389834 -231.162171 
L 284.499415 -229.724378 
L 284.621255 -228.286584 
L 284.755349 -226.84879 
L 284.900919 -225.410997 
L 285.056429 -223.973203 
L 285.219618 -222.53541 
L 285.387544 -221.097616 
L 285.556643 -219.659823 
L 285.722792 -218.222029 
L 285.881391 -216.784236 
L 286.027447 -215.346442 
L 286.155672 -213.908649 
L 286.260583 -212.470855 
L 286.336611 -211.033062 
L 286.378217 -209.595268 
L 286.38 -208.157475 
L 286.336822 -206.719681 
L 286.243917 -205.281888 
L 286.097006 -203.844094 
L 285.892399 -202.406301 
L 285.627095 -200.968507 
L 285.298867 -199.530714 
L 284.906334 -198.09292 
L 284.449018 -196.655127 
L 283.927382 -195.217333 
L 283.342849 -193.77954 
L 282.697803 -192.341746 
L 281.995564 -190.903953 
L 281.240344 -189.466159 
L 280.437183 -188.028366 
L 279.591866 -186.590572 
L 278.710817 -185.152779 
L 277.800988 -183.714985 
L 276.869723 -182.277192 
L 275.924621 -180.839398 
L 274.973397 -179.401605 
L 274.023726 -177.963811 
L 273.083109 -176.526018 
L 272.158727 -175.088224 
L 271.25732 -173.65043 
L 270.385063 -172.212637 
L 269.547472 -170.774843 
L 268.749318 -169.33705 
L 267.994563 -167.899256 
L 267.286316 -166.461463 
L 266.626814 -165.023669 
L 266.017413 -163.585876 
L 265.458614 -162.148082 
L 264.950089 -160.710289 
L 264.49074 -159.272495 
L 264.078763 -157.834702 
L 263.711724 -156.396908 
L 263.38665 -154.959115 
L 263.100117 -153.521321 
L 262.848352 -152.083528 
L 262.627326 -150.645734 
L 262.432855 -149.207941 
L 262.260686 -147.770147 
L 262.10659 -146.332354 
L 261.966433 -144.89456 
L 261.836255 -143.456767 
L 261.712324 -142.018973 
L 261.59119 -140.58118 
L 261.469724 -139.143386 
L 261.345147 -137.705593 
L 261.215054 -136.267799 
L 261.077421 -134.830006 
L 260.930611 -133.392212 
L 260.773366 -131.954419 
L 260.604797 -130.516625 
L 260.424366 -129.078832 
L 260.231867 -127.641038 
L 260.027394 -126.203245 
L 259.811321 -124.765451 
L 259.584264 -123.327658 
L 259.347057 -121.889864 
L 259.100713 -120.45207 
z
" style="stroke: #ff6c00; stroke-opacity: 0.28; stroke-width: 1.1"/>
    </defs>
    <g clip-path="url(#p7123ebbcfd)">
     <use xlink:href="#m07b571f845" x="0" y="302.4" style="fill: #ff6c00; fill-opacity: 0.28; stroke: #ff6c00; stroke-opacity: 0.28; stroke-width: 1.1"/>
    </g>
   </g>
   <g id="FillBetweenPolyCollection_4">
    <defs>
     <path id="med516a8bde" d="M 340.919342 -72.721859 
L 322.920658 -72.721859 
L 322.582435 -74.641776 
L 322.249818 -76.561693 
L 321.923497 -78.48161 
L 321.604055 -80.401527 
L 321.291962 -82.321443 
L 320.98757 -84.24136 
L 320.691118 -86.161277 
L 320.402722 -88.081194 
L 320.122386 -90.001111 
L 319.85 -91.921028 
L 319.585346 -93.840945 
L 319.328103 -95.760861 
L 319.077856 -97.680778 
L 318.834098 -99.600695 
L 318.596245 -101.520612 
L 318.363639 -103.440529 
L 318.135561 -105.360446 
L 317.911238 -107.280363 
L 317.689855 -109.20028 
L 317.470562 -111.120196 
L 317.252488 -113.040113 
L 317.034749 -114.96003 
L 316.816459 -116.879947 
L 316.59674 -118.799864 
L 316.374735 -120.719781 
L 316.149616 -122.639698 
L 315.920595 -124.559614 
L 315.686937 -126.479531 
L 315.447967 -128.399448 
L 315.203082 -130.319365 
L 314.951757 -132.239282 
L 314.693555 -134.159199 
L 314.428137 -136.079116 
L 314.155261 -137.999032 
L 313.874792 -139.918949 
L 313.5867 -141.838866 
L 313.291066 -143.758783 
L 312.988074 -145.6787 
L 312.678011 -147.598617 
L 312.361262 -149.518534 
L 312.038296 -151.43845 
L 311.709663 -153.358367 
L 311.375973 -155.278284 
L 311.037889 -157.198201 
L 310.696105 -159.118118 
L 310.351331 -161.038035 
L 310.004275 -162.957952 
L 309.655625 -164.877868 
L 309.306029 -166.797785 
L 308.956078 -168.717702 
L 308.606292 -170.637619 
L 308.257104 -172.557536 
L 307.908851 -174.477453 
L 307.561765 -176.39737 
L 307.215967 -178.317286 
L 306.871471 -180.237203 
L 306.528183 -182.15712 
L 306.185914 -184.077037 
L 305.844394 -185.996954 
L 305.503286 -187.916871 
L 305.162213 -189.836788 
L 304.820783 -191.756704 
L 304.478618 -193.676621 
L 304.13539 -195.596538 
L 303.790858 -197.516455 
L 303.4449 -199.436372 
L 303.097555 -201.356289 
L 302.749057 -203.276206 
L 302.399873 -205.196123 
L 302.050731 -207.116039 
L 301.702653 -209.035956 
L 301.356972 -210.955873 
L 301.015355 -212.87579 
L 300.679807 -214.795707 
L 300.352677 -216.715624 
L 300.036648 -218.635541 
L 299.734724 -220.555457 
L 299.450204 -222.475374 
L 299.18665 -224.395291 
L 298.947841 -226.315208 
L 298.73773 -228.235125 
L 298.560378 -230.155042 
L 298.419894 -232.074959 
L 298.320369 -233.994875 
L 298.265796 -235.914792 
L 298.26 -237.834709 
L 298.306562 -239.754626 
L 298.408745 -241.674543 
L 298.569419 -243.59446 
L 298.791 -245.514377 
L 299.075388 -247.434293 
L 299.423915 -249.35421 
L 299.837301 -251.274127 
L 300.315624 -253.194044 
L 300.858299 -255.113961 
L 301.464069 -257.033878 
L 302.131008 -258.953795 
L 302.856538 -260.873711 
L 303.637456 -262.793628 
L 360.202544 -262.793628 
L 360.202544 -262.793628 
L 360.983462 -260.873711 
L 361.708992 -258.953795 
L 362.375931 -257.033878 
L 362.981701 -255.113961 
L 363.524376 -253.194044 
L 364.002699 -251.274127 
L 364.416085 -249.35421 
L 364.764612 -247.434293 
L 365.049 -245.514377 
L 365.270581 -243.59446 
L 365.431255 -241.674543 
L 365.533438 -239.754626 
L 365.58 -237.834709 
L 365.574204 -235.914792 
L 365.519631 -233.994875 
L 365.420106 -232.074959 
L 365.279622 -230.155042 
L 365.10227 -228.235125 
L 364.892159 -226.315208 
L 364.65335 -224.395291 
L 364.389796 -222.475374 
L 364.105276 -220.555457 
L 363.803352 -218.635541 
L 363.487323 -216.715624 
L 363.160193 -214.795707 
L 362.824645 -212.87579 
L 362.483028 -210.955873 
L 362.137347 -209.035956 
L 361.789269 -207.116039 
L 361.440127 -205.196123 
L 361.090943 -203.276206 
L 360.742445 -201.356289 
L 360.3951 -199.436372 
L 360.049142 -197.516455 
L 359.70461 -195.596538 
L 359.361382 -193.676621 
L 359.019217 -191.756704 
L 358.677787 -189.836788 
L 358.336714 -187.916871 
L 357.995606 -185.996954 
L 357.654086 -184.077037 
L 357.311817 -182.15712 
L 356.968529 -180.237203 
L 356.624033 -178.317286 
L 356.278235 -176.39737 
L 355.931149 -174.477453 
L 355.582896 -172.557536 
L 355.233708 -170.637619 
L 354.883922 -168.717702 
L 354.533971 -166.797785 
L 354.184375 -164.877868 
L 353.835725 -162.957952 
L 353.488669 -161.038035 
L 353.143895 -159.118118 
L 352.802111 -157.198201 
L 352.464027 -155.278284 
L 352.130337 -153.358367 
L 351.801704 -151.43845 
L 351.478738 -149.518534 
L 351.161989 -147.598617 
L 350.851926 -145.6787 
L 350.548934 -143.758783 
L 350.2533 -141.838866 
L 349.965208 -139.918949 
L 349.684739 -137.999032 
L 349.411863 -136.079116 
L 349.146445 -134.159199 
L 348.888243 -132.239282 
L 348.636918 -130.319365 
L 348.392033 -128.399448 
L 348.153063 -126.479531 
L 347.919405 -124.559614 
L 347.690384 -122.639698 
L 347.465265 -120.719781 
L 347.24326 -118.799864 
L 347.023541 -116.879947 
L 346.805251 -114.96003 
L 346.587512 -113.040113 
L 346.369438 -111.120196 
L 346.150145 -109.20028 
L 345.928762 -107.280363 
L 345.704439 -105.360446 
L 345.476361 -103.440529 
L 345.243755 -101.520612 
L 345.005902 -99.600695 
L 344.762144 -97.680778 
L 344.511897 -95.760861 
L 344.254654 -93.840945 
L 343.99 -91.921028 
L 343.717614 -90.001111 
L 343.437278 -88.081194 
L 343.148882 -86.161277 
L 342.85243 -84.24136 
L 342.548038 -82.321443 
L 342.235945 -80.401527 
L 341.916503 -78.48161 
L 341.590182 -76.561693 
L 341.257565 -74.641776 
L 340.919342 -72.721859 
z
" style="stroke: #c40d1e; stroke-opacity: 0.28; stroke-width: 1.1"/>
    </defs>
    <g clip-path="url(#p7123ebbcfd)">
     <use xlink:href="#med516a8bde" x="0" y="302.4" style="fill: #c40d1e; fill-opacity: 0.28; stroke: #c40d1e; stroke-opacity: 0.28; stroke-width: 1.1"/>
    </g>
   </g>
   <g id="FillBetweenPolyCollection_5">
    <defs>
     <path id="mb6886cd97d" d="M 423.14113 -70.113982 
L 399.09887 -70.113982 
L 398.711373 -72.060241 
L 398.33737 -74.0065 
L 397.977463 -75.952759 
L 397.632005 -77.899019 
L 397.301094 -79.845278 
L 396.984573 -81.791537 
L 396.682036 -83.737796 
L 396.392836 -85.684055 
L 396.116099 -87.630314 
L 395.850747 -89.576573 
L 395.595518 -91.522832 
L 395.348993 -93.469091 
L 395.109631 -95.41535 
L 394.875796 -97.361609 
L 394.645792 -99.307868 
L 394.417902 -101.254127 
L 394.190417 -103.200386 
L 393.961673 -105.146645 
L 393.730083 -107.092904 
L 393.494166 -109.039163 
L 393.252574 -110.985422 
L 393.004113 -112.931681 
L 392.747765 -114.87794 
L 392.482699 -116.8242 
L 392.20828 -118.770459 
L 391.924078 -120.716718 
L 391.629861 -122.662977 
L 391.325593 -124.609236 
L 391.011425 -126.555495 
L 390.68768 -128.501754 
L 390.354836 -130.448013 
L 390.013505 -132.394272 
L 389.664413 -134.340531 
L 389.308375 -136.28679 
L 388.946271 -138.233049 
L 388.579022 -140.179308 
L 388.207566 -142.125567 
L 387.832836 -144.071826 
L 387.455744 -146.018085 
L 387.07716 -147.964344 
L 386.697899 -149.910603 
L 386.318711 -151.856862 
L 385.940277 -153.803121 
L 385.563201 -155.749381 
L 385.188016 -157.69564 
L 384.815183 -159.641899 
L 384.445102 -161.588158 
L 384.078123 -163.534417 
L 383.714553 -165.480676 
L 383.354677 -167.426935 
L 382.998769 -169.373194 
L 382.647112 -171.319453 
L 382.300011 -173.265712 
L 381.957813 -175.211971 
L 381.62092 -177.15823 
L 381.289806 -179.104489 
L 380.965026 -181.050748 
L 380.647232 -182.997007 
L 380.337178 -184.943266 
L 380.035727 -186.889525 
L 379.743858 -188.835784 
L 379.462664 -190.782043 
L 379.193357 -192.728302 
L 378.937259 -194.674562 
L 378.695803 -196.620821 
L 378.470523 -198.56708 
L 378.263047 -200.513339 
L 378.075084 -202.459598 
L 377.908418 -204.405857 
L 377.764886 -206.352116 
L 377.646369 -208.298375 
L 377.554775 -210.244634 
L 377.492017 -212.190893 
L 377.46 -214.137152 
L 377.460595 -216.083411 
L 377.495622 -218.02967 
L 377.566824 -219.975929 
L 377.675847 -221.922188 
L 377.824215 -223.868447 
L 378.013306 -225.814706 
L 378.244327 -227.760965 
L 378.51829 -229.707224 
L 378.835993 -231.653484 
L 379.197989 -233.599743 
L 379.604576 -235.546002 
L 380.055772 -237.492261 
L 380.551297 -239.43852 
L 381.09057 -241.384779 
L 381.672688 -243.331038 
L 382.296428 -245.277297 
L 382.960245 -247.223556 
L 383.662271 -249.169815 
L 384.400329 -251.116074 
L 385.171942 -253.062333 
L 385.974351 -255.008592 
L 386.804537 -256.954851 
L 387.659251 -258.90111 
L 388.535039 -260.847369 
L 389.42828 -262.793628 
L 432.81172 -262.793628 
L 432.81172 -262.793628 
L 433.704961 -260.847369 
L 434.580749 -258.90111 
L 435.435463 -256.954851 
L 436.265649 -255.008592 
L 437.068058 -253.062333 
L 437.839671 -251.116074 
L 438.577729 -249.169815 
L 439.279755 -247.223556 
L 439.943572 -245.277297 
L 440.567312 -243.331038 
L 441.14943 -241.384779 
L 441.688703 -239.43852 
L 442.184228 -237.492261 
L 442.635424 -235.546002 
L 443.042011 -233.599743 
L 443.404007 -231.653484 
L 443.72171 -229.707224 
L 443.995673 -227.760965 
L 444.226694 -225.814706 
L 444.415785 -223.868447 
L 444.564153 -221.922188 
L 444.673176 -219.975929 
L 444.744378 -218.02967 
L 444.779405 -216.083411 
L 444.78 -214.137152 
L 444.747983 -212.190893 
L 444.685225 -210.244634 
L 444.593631 -208.298375 
L 444.475114 -206.352116 
L 444.331582 -204.405857 
L 444.164916 -202.459598 
L 443.976953 -200.513339 
L 443.769477 -198.56708 
L 443.544197 -196.620821 
L 443.302741 -194.674562 
L 443.046643 -192.728302 
L 442.777336 -190.782043 
L 442.496142 -188.835784 
L 442.204273 -186.889525 
L 441.902822 -184.943266 
L 441.592768 -182.997007 
L 441.274974 -181.050748 
L 440.950194 -179.104489 
L 440.61908 -177.15823 
L 440.282187 -175.211971 
L 439.939989 -173.265712 
L 439.592888 -171.319453 
L 439.241231 -169.373194 
L 438.885323 -167.426935 
L 438.525447 -165.480676 
L 438.161877 -163.534417 
L 437.794898 -161.588158 
L 437.424817 -159.641899 
L 437.051984 -157.69564 
L 436.676799 -155.749381 
L 436.299723 -153.803121 
L 435.921289 -151.856862 
L 435.542101 -149.910603 
L 435.16284 -147.964344 
L 434.784256 -146.018085 
L 434.407164 -144.071826 
L 434.032434 -142.125567 
L 433.660978 -140.179308 
L 433.293729 -138.233049 
L 432.931625 -136.28679 
L 432.575587 -134.340531 
L 432.226495 -132.394272 
L 431.885164 -130.448013 
L 431.55232 -128.501754 
L 431.228575 -126.555495 
L 430.914407 -124.609236 
L 430.610139 -122.662977 
L 430.315922 -120.716718 
L 430.03172 -118.770459 
L 429.757301 -116.8242 
L 429.492235 -114.87794 
L 429.235887 -112.931681 
L 428.987426 -110.985422 
L 428.745834 -109.039163 
L 428.509917 -107.092904 
L 428.278327 -105.146645 
L 428.049583 -103.200386 
L 427.822098 -101.254127 
L 427.594208 -99.307868 
L 427.364204 -97.361609 
L 427.130369 -95.41535 
L 426.891007 -93.469091 
L 426.644482 -91.522832 
L 426.389253 -89.576573 
L 426.123901 -87.630314 
L 425.847164 -85.684055 
L 425.557964 -83.737796 
L 425.255427 -81.791537 
L 424.938906 -79.845278 
L 424.607995 -77.899019 
L 424.262537 -75.952759 
L 423.90263 -74.0065 
L 423.528627 -72.060241 
L 423.14113 -70.113982 
z
" style="stroke: #b5297a; stroke-opacity: 0.28; stroke-width: 1.1"/>
    </defs>
    <g clip-path="url(#p7123ebbcfd)">
     <use xlink:href="#mb6886cd97d" x="0" y="302.4" style="fill: #b5297a; fill-opacity: 0.28; stroke: #b5297a; stroke-opacity: 0.28; stroke-width: 1.1"/>
    </g>
   </g>
   <g id="patch_3">
    <path d="M 46.8 241.92 
L 46.8 24.192 
" style="fill: none; stroke: #000000; stroke-width: 0.8; stroke-linejoin: miter; stroke-linecap: square"/>
   </g>
   <g id="patch_4">
    <path d="M 46.8 241.92 
L 458.64 241.92 
" style="fill: none; stroke: #000000; stroke-width: 0.8; stroke-linejoin: miter; stroke-linecap: square"/>
   </g>
   <g id="patch_5">
    <path d="M 89.568 98.579831 
L 99.072 98.579831 
L 99.072 39.606372 
L 89.568 39.606372 
L 89.568 98.579831 
z
" clip-path="url(#p7123ebbcfd)" style="fill: #fcfcfb; stroke: #0b0b0b; stroke-width: 0.9; stroke-linejoin: miter"/>
   </g>
   <g id="line2d_23">
    <path d="M 94.32 98.579831 
L 94.32 112.659528 
" clip-path="url(#p7123ebbcfd)" style="fill: none; stroke: #0b0b0b; stroke-width: 0.9; stroke-linecap: square"/>
   </g>
   <g id="line2d_24">
    <path d="M 94.32 39.606372 
L 94.32 39.606372 
" clip-path="url(#p7123ebbcfd)" style="fill: none; stroke: #0b0b0b; stroke-width: 0.9; stroke-linecap: square"/>
   </g>
   <g id="line2d_25">
    <path d="M 91.944 112.659528 
L 96.696 112.659528 
" clip-path="url(#p7123ebbcfd)" style="fill: none; stroke: #0b0b0b; stroke-width: 0.9; stroke-linecap: square"/>
   </g>
   <g id="line2d_26">
    <path d="M 91.944 39.606372 
L 96.696 39.606372 
" clip-path="url(#p7123ebbcfd)" style="fill: none; stroke: #0b0b0b; stroke-width: 0.9; stroke-linecap: square"/>
   </g>
   <g id="line2d_27"/>
   <g id="patch_6">
    <path d="M 168.768 97.39464 
L 178.272 97.39464 
L 178.272 45.120257 
L 168.768 45.120257 
L 168.768 97.39464 
z
" clip-path="url(#p7123ebbcfd)" style="fill: #fcfcfb; stroke: #0b0b0b; stroke-width: 0.9; stroke-linejoin: miter"/>
   </g>
   <g id="line2d_28">
    <path d="M 173.52 97.39464 
L 173.52 155.564884 
" clip-path="url(#p7123ebbcfd)" style="fill: none; stroke: #0b0b0b; stroke-width: 0.9; stroke-linecap: square"/>
   </g>
   <g id="line2d_29">
    <path d="M 173.52 45.120257 
L 173.52 39.606372 
" clip-path="url(#p7123ebbcfd)" style="fill: none; stroke: #0b0b0b; stroke-width: 0.9; stroke-linecap: square"/>
   </g>
   <g id="line2d_30">
    <path d="M 171.144 155.564884 
L 175.896 155.564884 
" clip-path="url(#p7123ebbcfd)" style="fill: none; stroke: #0b0b0b; stroke-width: 0.9; stroke-linecap: square"/>
   </g>
   <g id="line2d_31">
    <path d="M 171.144 39.606372 
L 175.896 39.606372 
" clip-path="url(#p7123ebbcfd)" style="fill: none; stroke: #0b0b0b; stroke-width: 0.9; stroke-linecap: square"/>
   </g>
   <g id="line2d_32"/>
   <g id="patch_7">
    <path d="M 247.968 109.38224 
L 257.472 109.38224 
L 257.472 45.120257 
L 247.968 45.120257 
L 247.968 109.38224 
z
" clip-path="url(#p7123ebbcfd)" style="fill: #fcfcfb; stroke: #0b0b0b; stroke-width: 0.9; stroke-linejoin: miter"/>
   </g>
   <g id="line2d_33">
    <path d="M 252.72 109.38224 
L 252.72 181.94793 
" clip-path="url(#p7123ebbcfd)" style="fill: none; stroke: #0b0b0b; stroke-width: 0.9; stroke-linecap: square"/>
   </g>
   <g id="line2d_34">
    <path d="M 252.72 45.120257 
L 252.72 39.606372 
" clip-path="url(#p7123ebbcfd)" style="fill: none; stroke: #0b0b0b; stroke-width: 0.9; stroke-linecap: square"/>
   </g>
   <g id="line2d_35">
    <path d="M 250.344 181.94793 
L 255.096 181.94793 
" clip-path="url(#p7123ebbcfd)" style="fill: none; stroke: #0b0b0b; stroke-width: 0.9; stroke-linecap: square"/>
   </g>
   <g id="line2d_36">
    <path d="M 250.344 39.606372 
L 255.096 39.606372 
" clip-path="url(#p7123ebbcfd)" style="fill: none; stroke: #0b0b0b; stroke-width: 0.9; stroke-linecap: square"/>
   </g>
   <g id="line2d_37"/>
   <g id="patch_8">
    <path d="M 327.168 142.769746 
L 336.672 142.769746 
L 336.672 48.173373 
L 327.168 48.173373 
L 327.168 142.769746 
z
" clip-path="url(#p7123ebbcfd)" style="fill: #fcfcfb; stroke: #0b0b0b; stroke-width: 0.9; stroke-linejoin: miter"/>
   </g>
   <g id="line2d_38">
    <path d="M 331.92 142.769746 
L 331.92 229.678141 
" clip-path="url(#p7123ebbcfd)" style="fill: none; stroke: #0b0b0b; stroke-width: 0.9; stroke-linecap: square"/>
   </g>
   <g id="line2d_39">
    <path d="M 331.92 48.173373 
L 331.92 39.606372 
" clip-path="url(#p7123ebbcfd)" style="fill: none; stroke: #0b0b0b; stroke-width: 0.9; stroke-linecap: square"/>
   </g>
   <g id="line2d_40">
    <path d="M 329.544 229.678141 
L 334.296 229.678141 
" clip-path="url(#p7123ebbcfd)" style="fill: none; stroke: #0b0b0b; stroke-width: 0.9; stroke-linecap: square"/>
   </g>
   <g id="line2d_41">
    <path d="M 329.544 39.606372 
L 334.296 39.606372 
" clip-path="url(#p7123ebbcfd)" style="fill: none; stroke: #0b0b0b; stroke-width: 0.9; stroke-linecap: square"/>
   </g>
   <g id="line2d_42"/>
   <g id="patch_9">
    <path d="M 406.368 158.519988 
L 415.872 158.519988 
L 415.872 67.827128 
L 406.368 67.827128 
L 406.368 158.519988 
z
" clip-path="url(#p7123ebbcfd)" style="fill: #fcfcfb; stroke: #0b0b0b; stroke-width: 0.9; stroke-linejoin: miter"/>
   </g>
   <g id="line2d_43">
    <path d="M 411.12 158.519988 
L 411.12 232.286018 
" clip-path="url(#p7123ebbcfd)" style="fill: none; stroke: #0b0b0b; stroke-width: 0.9; stroke-linecap: square"/>
   </g>
   <g id="line2d_44">
    <path d="M 411.12 67.827128 
L 411.12 39.606372 
" clip-path="url(#p7123ebbcfd)" style="fill: none; stroke: #0b0b0b; stroke-width: 0.9; stroke-linecap: square"/>
   </g>
   <g id="line2d_45">
    <path d="M 408.744 232.286018 
L 413.496 232.286018 
" clip-path="url(#p7123ebbcfd)" style="fill: none; stroke: #0b0b0b; stroke-width: 0.9; stroke-linecap: square"/>
   </g>
   <g id="line2d_46">
    <path d="M 408.744 39.606372 
L 413.496 39.606372 
" clip-path="url(#p7123ebbcfd)" style="fill: none; stroke: #0b0b0b; stroke-width: 0.9; stroke-linecap: square"/>
   </g>
   <g id="line2d_47"/>
   <g id="line2d_48">
    <path d="M 89.568 45.120257 
L 99.072 45.120257 
" clip-path="url(#p7123ebbcfd)" style="fill: none; stroke: #0b0b0b; stroke-width: 1.3"/>
   </g>
   <g id="line2d_49">
    <path d="M 168.768 67.827128 
L 178.272 67.827128 
" clip-path="url(#p7123ebbcfd)" style="fill: none; stroke: #0b0b0b; stroke-width: 1.3"/>
   </g>
   <g id="line2d_50">
    <path d="M 247.968 84.681474 
L 257.472 84.681474 
" clip-path="url(#p7123ebbcfd)" style="fill: none; stroke: #0b0b0b; stroke-width: 1.3"/>
   </g>
   <g id="line2d_51">
    <path d="M 327.168 99.731144 
L 336.672 99.731144 
" clip-path="url(#p7123ebbcfd)" style="fill: none; stroke: #0b0b0b; stroke-width: 1.3"/>
   </g>
   <g id="line2d_52">
    <path d="M 406.368 107.088644 
L 415.872 107.088644 
" clip-path="url(#p7123ebbcfd)" style="fill: none; stroke: #0b0b0b; stroke-width: 1.3"/>
   </g>
  </g>
  <g id="text_13">
   <text style="font-size: 12px; font-family: 'DejaVu Sans', 'Bitstream Vera Sans', 'Computer Modern Sans Serif', 'Lucida Grande', 'Verdana', 'Geneva', 'Lucid', 'Arial', 'Helvetica', 'Avant Garde', sans-serif; text-anchor: start; fill: #0b0b0b" x="9.36" y="15.166125" transform="rotate(-0 9.36 15.166125)">FK integrity by strategy (self-correction on) — violin + box over every run</text>
  </g>
 </g>
 <defs>
  <clipPath id="p7123ebbcfd">
   <rect x="46.8" y="24.192" width="411.84" height="217.728"/>
  </clipPath>
 </defs>
</svg>
