<?xml version="1.0" encoding="utf-8" standalone="no"?>
<!DOCTYPE svg PUBLIC "-//W3C//DTD SVG 1.1//EN"
  "http://www.w3.org/Graphics/SVG/1.1/DTD/svg11.dtd">
<svg xmlns:xlink="http://www.w3.org/1999/xlink" width="403.2pt" height="302.4pt" viewBox="0 0 403.2 302.4" xmlns="http://www.w3.org/2000/svg" version="1.1">
 <metadata>
  <rdf:RDF xmlns:dc="http://purl.org/dc/elements/1.1/" xmlns:cc="http://creativecommons.org/ns#" xmlns:rdf="http://www.w3.org/1999/02/22-rdf-syntax-ns#">
   <cc:Work>
    <dc:type rdf:resource="http://purl.org/dc/dcmitype/StillImage"/>
    <dc:format>image/svg+xml</dc:format>
    <dc:creator>
     <cc:Agent>
      <dc:title>Matplotlib v3.10.9, https://matplotlib.org/</dc:title>
     </cc:Agent>
    </dc:creator>
   </cc:Work>
  </rdf:RDF>
 </metadata>
 <defs>
  <style type="text/css">*{stroke-linejoin: round; stroke-linecap: butt}</style>
 </defs>
 <g id="figure_1">
  <g id="patch_1">
   <path d="M 0 302.4 
L 403.2 302.4 
L 403.2 0 
L 0 0 
L 0 302.4 
z
" style="fill: none"/>
  </g>
  <g id="axes_1">
   <g id="patch_2">
    <path d="M 40.32 241.92 
L 395.136 241.92 
L 395.136 30.24 
L 40.32 30.24 
L 40.32 241.92 
z
" style="fill: none"/>
   </g>
   <g id="matplotlib.axis_1">
    <g id="xtick_1">
     <g id="line2d_1">
      <path d="M 91.008 241.92 
L 91.008 30.24 
" clip-path="url(#p5503b30aca)" style="fill: none; stroke: #b0b0b0; stroke-opacity: 0.3; stroke-width: 0.8; stroke-linecap: square"/>
     </g>
     <g id="line2d_2">
      <defs>
       <path id="md7770b79b8" d="M 0 0 
L 0 3.5 
" style="stroke: #000000; stroke-width: 0.8"/>
      </defs>
      <g>
       <use xlink:href="#md7770b79b8" x="91.008" y="241.92" style="stroke: #000000; stroke-width: 0.8"/>
      </g>
     </g>
     <g id="text_1">
      <text style="font-size: 9px; font-family: 'DejaVu Sans', 'Bitstream Vera Sans', 'Computer Modern Sans Serif', 'Lucida Grande', 'Verdana', 'Geneva', 'Lucid', 'Arial', 'Helvetica', 'Avant Garde', sans-serif; fill: #0b0b0b" transform="translate(61.454167 268.53019) rotate(-25)">master</text>
     </g>
    </g>
    <g id="xtick_2">
     <g id="line2d_3">
      <path d="M 175.488 241.92 
L 175.488 30.24 
" clip-path="url(#p5503b30aca)" style="fill: none; stroke: #b0b0b0; stroke-opacity: 0.3; stroke-width: 0.8; stroke-linecap: square"/>
     </g>
     <g id="line2d_4">
      <g>
       <use xlink:href="#md7770b79b8" x="175.488" y="241.92" style="stroke: #000000; stroke-width: 0.8"/>
      </g>
     </g>
     <g id="text_2">
      <text style="font-size: 9px; font-family: 'DejaVu Sans', 'Bitstream Vera Sans', 'Computer Modern Sans Serif', 'Lucida Grande', 'Verdana', 'Geneva', 'Lucid', 'Arial', 'Helvetica', 'Avant Garde', sans-serif; fill: #0b0b0b" transform="translate(103.863073 288.098934) rotate(-25)">missing_relations</text>
     </g>
    </g>
    <g id="xtick_3">
     <g id="line2d_5">
      <path d="M 259.968 241.92 
L 259.968 30.24 
" clip-path="url(#p5503b30aca)" style="fill: none; stroke: #b0b0b0; stroke-opacity: 0.3; stroke-width: 0.8; stroke-linecap: square"/>
     </g>
     <g id="line2d_6">
      <g>
       <use xlink:href="#md7770b79b8" x="259.968" y="241.92" style="stroke: #000000; stroke-width: 0.8"/>
      </g>
     </g>
     <g id="text_3">
      <text style="font-size: 9px; font-family: 'DejaVu Sans', 'Bitstream Vera Sans', 'Computer Modern Sans Serif', 'Lucida Grande', 'Verdana', 'Geneva', 'Lucid', 'Arial', 'Helvetica', 'Avant Garde', sans-serif; fill: #0b0b0b" transform="translate(210.329392 277.846545) rotate(-25)">messy_data</text>
     </g>
    </g>
    <g id="xtick_4">
     <g id="line2d_7">
      <path d="M 344.448 241.92 
L 344.448 30.24 
" clip-path="url(#p5503b30aca)" style="fill: none; stroke: #b0b0b0; stroke-opacity: 0.3; stroke-width: 0.8; stroke-linecap: square"/>
     </g>
     <g id="line2d_8">
      <g>
       <use xlink:href="#md7770b79b8" x="344.448" y="241.92" style="stroke: #000000; stroke-width: 0.8"/>
      </g>
     </g>
     <g id="text_4">
      <text style="font-size: 9px; font-family: 'DejaVu Sans', 'Bitstream Vera Sans', 'Computer Modern Sans Serif', 'Lucida Grande', 'Verdana', 'Geneva', 'Lucid', 'Arial', 'Helvetica', 'Avant Garde', sans-serif; fill: #0b0b0b" transform="translate(265.233453 291.638032) rotate(-25)">wrong_field_names</text>
     </g>
    </g>
   </g>
   <g id="matplotlib.axis_2">
    <g id="ytick_1">
     <g id="line2d_9">
      <path d="M 40.32 232.553628 
L 395.136 232.553628 
" clip-path="url(#p5503b30aca)" style="fill: none; stroke: #b0b0b0; stroke-opacity: 0.3; stroke-width: 0.8; stroke-linecap: square"/>
     </g>
     <g id="line2d_10">
      <defs>
       <path id="m91d58daf4d" d="M 0 0 
L -3.5 0 
" style="stroke: #000000; stroke-width: 0.8"/>
      </defs>
      <g>
       <use xlink:href="#m91d58daf4d" x="40.32" y="232.553628" style="stroke: #000000; stroke-width: 0.8"/>
      </g>
     </g>
     <g id="text_5">
      <text style="font-size: 11px; font-family: 'DejaVu Sans', 'Bitstream Vera Sans', 'Computer Modern Sans Serif', 'Lucida Grande', 'Verdana', 'Geneva', 'Lucid', 'Arial', 'Helvetica', 'Avant Garde', sans-serif; text-anchor: end" x="33.32" y="236.732769" transform="rotate(-0 33.32 236.732769)">0.0</text>
     </g>
    </g>
    <g id="ytick_2">
     <g id="line2d_11">
      <path d="M 40.32 195.088142 
L 395.136 195.088142 
" clip-path="url(#p5503b30aca)" style="fill: none; stroke: #b0b0b0; stroke-opacity: 0.3; stroke-width: 0.8; stroke-linecap: square"/>
     </g>
     <g id="line2d_12">
      <g>
       <use xlink:href="#m91d58daf4d" x="40.32" y="195.088142" style="stroke: #000000; stroke-width: 0.8"/>
      </g>
     </g>
     <g id="text_6">
      <text style="font-size: 11px; font-family: 'DejaVu Sans', 'Bitstream Vera Sans', 'Computer Modern Sans Serif', 'Lucida Grande', 'Verdana', 'Geneva', 'Lucid', 'Arial', 'Helvetica', 'Avant Garde', sans-serif; text-anchor: end" x="33.32" y="199.267282" transform="rotate(-0 33.32 199.267282)">0.2</text>
     </g>
    </g>
    <g id="ytick_3">
     <g id="line2d_13">
      <path d="M 40.32 157.622655 
L 395.136 157.622655 
" clip-path="url(#p5503b30aca)" style="fill: none; stroke: #b0b0b0; stroke-opacity: 0.3; stroke-width: 0.8; stroke-linecap: square"/>
     </g>
     <g id="line2d_14">
      <g>
       <use xlink:href="#m91d58daf4d" x="40.32" y="157.622655" style="stroke: #000000; stroke-width: 0.8"/>
      </g>
     </g>
     <g id="text_7">
      <text style="font-size: 11px; font-family: 'DejaVu Sans', 'Bitstream Vera Sans', 'Computer Modern Sans Serif', 'Lucida Grande', 'Verdana', 'Geneva', 'Lucid', 'Arial', 'Helvetica', 'Avant Garde', sans-serif; text-anchor: end" x="33.32" y="161.801795" transform="rotate(-0 33.32 161.801795)">0.4</text>
     </g>
    </g>
    <g id="ytick_4">
     <g id="line2d_15">
      <path d="M 40.32 120.157168 
L 395.136 120.157168 
" clip-path="url(#p5503b30aca)" style="fill: none; stroke: #b0b0b0; stroke-opacity: 0.3; stroke-width: 0.8; stroke-linecap: square"/>
     </g>
     <g id="line2d_16">
      <g>
       <use xlink:href="#m91d58daf4d" x="40.32" y="120.157168" style="stroke: #000000; stroke-width: 0.8"/>
      </g>
     </g>
     <g id="text_8">
      <text style="font-size: 11px; font-family: 'DejaVu Sans', 'Bitstream Vera Sans', 'Computer Modern Sans Serif', 'Lucida Grande', 'Verdana', 'Geneva', 'Lucid', 'Arial', 'Helvetica', 'Avant Garde', sans-serif; text-anchor: end" x="33.32" y="124.336309" transform="rotate(-0 33.32 124.336309)">0.6</text>
     </g>
    </g>
    <g id="ytick_5">
     <g id="line2d_17">
      <path d="M 40.32 82.691681 
L 395.136 82.691681 
" clip-path="url(#p5503b30aca)" style="fill: none; stroke: #b0b0b0; stroke-opacity: 0.3; stroke-width: 0.8; stroke-linecap: square"/>
     </g>
     <g id="line2d_18">
      <g>
       <use xlink:href="#m91d58daf4d" x="40.32" y="82.691681" style="stroke: #000000; stroke-width: 0.8"/>
      </g>
     </g>
     <g id="text_9">
      <text style="font-size: 11px; font-family: 'DejaVu Sans', 'Bitstream Vera Sans', 'Computer Modern Sans Serif', 'Lucida Grande', 'Verdana', 'Geneva', 'Lucid', 'Arial', 'Helvetica', 'Avant Garde', sans-serif; text-anchor: end" x="33.32" y="86.870822" transform="rotate(-0 33.32 86.870822)">0.8</text>
     </g>
    </g>
    <g id="ytick_6">
     <g id="line2d_19">
      <path d="M 40.32 45.226195 
L 395.136 45.226195 
" clip-path="url(#p5503b30aca)" style="fill: none; stroke: #b0b0b0; stroke-opacity: 0.3; stroke-width: 0.8; stroke-linecap: square"/>
     </g>
     <g id="line2d_20">
      <g>
       <use xlink:href="#m91d58daf4d" x="40.32" y="45.226195" style="stroke: #000000; stroke-width: 0.8"/>
      </g>
     </g>
     <g id="text_10">
      <text style="font-size: 11px; font-family: 'DejaVu Sans', 'Bitstream Vera Sans', 'Computer Modern Sans Serif', 'Lucida Grande', 'Verdana', 'Geneva', 'Lucid', 'Arial', 'Helvetica', 'Avant Garde', sans-serif; text-anchor: end" x="33.32" y="49.405335" transform="rotate(-0 33.32 49.405335)">1.0</text>
     </g>
    </g>
    <g id="text_11">
     <text style="font-size: 11px; font-family: 'DejaVu Sans', 'Bitstream Vera Sans', 'Computer Modern Sans Serif', 'Lucida Grande', 'Verdana', 'Geneva', 'Lucid', 'Arial', 'Helvetica', 'Avant Garde', sans-serif; text-anchor: middle; fill: #0b0b0b" x="9.538906" y="136.08" transform="rotate(-90 9.538906 136.08)">FK integrity</text>
    </g>
   </g>
   <g id="FillBetweenPolyCollection_1">
    <defs>
     <path id="m2a8b998a12" d="M 105.523887 -72.381808 
L 76.492113 -72.381808 
L 75.925065 -73.961371 
L 75.367758 -75.540934 
L 74.82168 -77.120497 
L 74.288186 -78.700061 
L 73.76849 -80.279624 
L 73.263666 -81.859187 
L 72.774657 -83.43875 
L 72.302277 -85.018314 
L 71.847229 -86.597877 
L 71.410114 -88.17744 
L 70.991446 -89.757003 
L 70.591672 -91.336567 
L 70.211186 -92.91613 
L 69.850345 -94.495693 
L 69.509485 -96.075256 
L 69.188934 -97.65482 
L 68.889018 -99.234383 
L 68.610075 -100.813946 
L 68.352449 -102.39351 
L 68.116495 -103.973073 
L 67.902571 -105.552636 
L 67.711025 -107.132199 
L 67.542181 -108.711763 
L 67.396321 -110.291326 
L 67.273661 -111.870889 
L 67.17432 -113.450452 
L 67.098297 -115.030016 
L 67.045435 -116.609579 
L 67.015395 -118.189142 
L 67.007615 -119.768705 
L 67.021291 -121.348269 
L 67.055341 -122.927832 
L 67.108387 -124.507395 
L 67.178731 -126.086959 
L 67.264349 -127.666522 
L 67.362875 -129.246085 
L 67.471612 -130.825648 
L 67.587535 -132.405212 
L 67.707311 -133.984775 
L 67.827326 -135.564338 
L 67.943722 -137.143901 
L 68.052437 -138.723465 
L 68.149264 -140.303028 
L 68.229907 -141.882591 
L 68.290045 -143.462154 
L 68.325414 -145.041718 
L 68.331872 -146.621281 
L 68.305486 -148.200844 
L 68.242611 -149.780408 
L 68.139967 -151.359971 
L 67.994719 -152.939534 
L 67.804551 -154.519097 
L 67.567732 -156.098661 
L 67.283177 -157.678224 
L 66.9505 -159.257787 
L 66.57005 -160.83735 
L 66.142948 -162.416914 
L 65.671094 -163.996477 
L 65.157181 -165.57604 
L 64.604676 -167.155603 
L 64.0178 -168.735167 
L 63.40149 -170.31473 
L 62.761346 -171.894293 
L 62.10357 -173.473856 
L 61.434886 -175.05342 
L 60.762461 -176.632983 
L 60.093803 -178.212546 
L 59.436666 -179.79211 
L 58.798939 -181.371673 
L 58.188537 -182.951236 
L 57.613288 -184.530799 
L 57.080826 -186.110363 
L 56.598478 -187.689926 
L 56.173161 -189.269489 
L 55.811288 -190.849052 
L 55.518673 -192.428616 
L 55.300456 -194.008179 
L 55.161034 -195.587742 
L 55.104 -197.167305 
L 55.132103 -198.746869 
L 55.247216 -200.326432 
L 55.450318 -201.905995 
L 55.741491 -203.485559 
L 56.119933 -205.065122 
L 56.583975 -206.644685 
L 57.131121 -208.224248 
L 57.758094 -209.803812 
L 58.460893 -211.383375 
L 59.234857 -212.962938 
L 60.07474 -214.542501 
L 60.974791 -216.122065 
L 61.928839 -217.701628 
L 62.930378 -219.281191 
L 63.972659 -220.860754 
L 65.048778 -222.440318 
L 66.151761 -224.019881 
L 67.274651 -225.599444 
L 68.41059 -227.179008 
L 69.552889 -228.758571 
L 112.463111 -228.758571 
L 112.463111 -228.758571 
L 113.60541 -227.179008 
L 114.741349 -225.599444 
L 115.864239 -224.019881 
L 116.967222 -222.440318 
L 118.043341 -220.860754 
L 119.085622 -219.281191 
L 120.087161 -217.701628 
L 121.041209 -216.122065 
L 121.94126 -214.542501 
L 122.781143 -212.962938 
L 123.555107 -211.383375 
L 124.257906 -209.803812 
L 124.884879 -208.224248 
L 125.432025 -206.644685 
L 125.896067 -205.065122 
L 126.274509 -203.485559 
L 126.565682 -201.905995 
L 126.768784 -200.326432 
L 126.883897 -198.746869 
L 126.912 -197.167305 
L 126.854966 -195.587742 
L 126.715544 -194.008179 
L 126.497327 -192.428616 
L 126.204712 -190.849052 
L 125.842839 -189.269489 
L 125.417522 -187.689926 
L 124.935174 -186.110363 
L 124.402712 -184.530799 
L 123.827463 -182.951236 
L 123.217061 -181.371673 
L 122.579334 -179.79211 
L 121.922197 -178.212546 
L 121.253539 -176.632983 
L 120.581114 -175.05342 
L 119.91243 -173.473856 
L 119.254654 -171.894293 
L 118.61451 -170.31473 
L 117.9982 -168.735167 
L 117.411324 -167.155603 
L 116.858819 -165.57604 
L 116.344906 -163.996477 
L 115.873052 -162.416914 
L 115.44595 -160.83735 
L 115.0655 -159.257787 
L 114.732823 -157.678224 
L 114.448268 -156.098661 
L 114.211449 -154.519097 
L 114.021281 -152.939534 
L 113.876033 -151.359971 
L 113.773389 -149.780408 
L 113.710514 -148.200844 
L 113.684128 -146.621281 
L 113.690586 -145.041718 
L 113.725955 -143.462154 
L 113.786093 -141.882591 
L 113.866736 -140.303028 
L 113.963563 -138.723465 
L 114.072278 -137.143901 
L 114.188674 -135.564338 
L 114.308689 -133.984775 
L 114.428465 -132.405212 
L 114.544388 -130.825648 
L 114.653125 -129.246085 
L 114.751651 -127.666522 
L 114.837269 -126.086959 
L 114.907613 -124.507395 
L 114.960659 -122.927832 
L 114.994709 -121.348269 
L 115.008385 -119.768705 
L 115.000605 -118.189142 
L 114.970565 -116.609579 
L 114.917703 -115.030016 
L 114.84168 -113.450452 
L 114.742339 -111.870889 
L 114.619679 -110.291326 
L 114.473819 -108.711763 
L 114.304975 -107.132199 
L 114.113429 -105.552636 
L 113.899505 -103.973073 
L 113.663551 -102.39351 
L 113.405925 -100.813946 
L 113.126982 -99.234383 
L 112.827066 -97.65482 
L 112.506515 -96.075256 
L 112.165655 -94.495693 
L 111.804814 -92.91613 
L 111.424328 -91.336567 
L 111.024554 -89.757003 
L 110.605886 -88.17744 
L 110.168771 -86.597877 
L 109.713723 -85.018314 
L 109.241343 -83.43875 
L 108.752334 -81.859187 
L 108.24751 -80.279624 
L 107.727814 -78.700061 
L 107.19432 -77.120497 
L 106.648242 -75.540934 
L 106.090935 -73.961371 
L 105.523887 -72.381808 
z
" style="stroke: #4c78a8; stroke-opacity: 0.28; stroke-width: 1.1"/>
    </defs>
    <g clip-path="url(#p5503b30aca)">
     <use xlink:href="#m2a8b998a12" x="0" y="302.4" style="fill: #4c78a8; fill-opacity: 0.28; stroke: #4c78a8; stroke-opacity: 0.28; stroke-width: 1.1"/>
    </g>
   </g>
   <g id="FillBetweenPolyCollection_2">
    <defs>
     <path id="mbf4d9386d8" d="M 206.786183 -186.149904 
L 144.189817 -186.149904 
L 143.351539 -186.842842 
L 142.58571 -187.535781 
L 141.897847 -188.228719 
L 141.292849 -188.921658 
L 140.774929 -189.614596 
L 140.347548 -190.307535 
L 140.013372 -191.000473 
L 139.774228 -191.693412 
L 139.631078 -192.38635 
L 139.584 -193.079289 
L 139.632185 -193.772227 
L 139.77394 -194.465166 
L 140.006713 -195.158104 
L 140.327118 -195.851043 
L 140.730982 -196.543981 
L 141.213395 -197.23692 
L 141.768778 -197.929858 
L 142.39095 -198.622797 
L 143.073214 -199.315735 
L 143.808443 -200.008674 
L 144.589173 -200.701612 
L 145.4077 -201.394551 
L 146.256182 -202.087489 
L 147.126739 -202.780428 
L 148.011554 -203.473366 
L 148.902968 -204.166305 
L 149.793579 -204.859243 
L 150.676328 -205.552182 
L 151.544579 -206.24512 
L 152.392197 -206.938059 
L 153.213612 -207.630997 
L 154.003869 -208.323936 
L 154.758677 -209.016874 
L 155.474437 -209.709813 
L 156.148264 -210.402751 
L 156.777996 -211.09569 
L 157.362186 -211.788628 
L 157.900092 -212.481567 
L 158.391649 -213.174505 
L 158.837432 -213.867444 
L 159.238611 -214.560382 
L 159.5969 -215.253321 
L 159.914497 -215.946259 
L 160.194015 -216.639198 
L 160.438417 -217.332136 
L 160.650944 -218.025075 
L 160.83504 -218.718013 
L 160.994279 -219.410952 
L 161.132297 -220.10389 
L 161.252723 -220.796829 
L 161.359114 -221.489767 
L 161.454896 -222.182706 
L 161.543309 -222.875644 
L 161.627368 -223.568583 
L 161.709813 -224.261521 
L 161.793085 -224.95446 
L 161.879301 -225.647398 
L 161.970236 -226.340337 
L 162.067315 -227.033275 
L 162.171616 -227.726214 
L 162.283874 -228.419152 
L 162.404494 -229.112091 
L 162.533576 -229.805029 
L 162.670934 -230.497968 
L 162.816133 -231.190906 
L 162.968519 -231.883845 
L 163.127258 -232.576783 
L 163.291376 -233.269722 
L 163.459799 -233.96266 
L 163.631396 -234.655599 
L 163.805016 -235.348537 
L 163.979532 -236.041476 
L 164.153872 -236.734414 
L 164.327056 -237.427353 
L 164.498223 -238.120291 
L 164.666658 -238.81323 
L 164.83181 -239.506168 
L 164.993307 -240.199107 
L 165.150967 -240.892045 
L 165.304797 -241.584984 
L 165.454993 -242.277922 
L 165.601934 -242.970861 
L 165.746166 -243.663799 
L 165.888385 -244.356738 
L 166.029419 -245.049676 
L 166.170196 -245.742615 
L 166.311724 -246.435553 
L 166.455057 -247.128492 
L 166.601265 -247.82143 
L 166.751403 -248.514369 
L 166.906484 -249.207307 
L 167.067447 -249.900246 
L 167.235132 -250.593184 
L 167.410257 -251.286123 
L 167.593397 -251.979061 
L 167.78497 -252.672 
L 167.985222 -253.364938 
L 168.194224 -254.057877 
L 168.411864 -254.750815 
L 182.564136 -254.750815 
L 182.564136 -254.750815 
L 182.781776 -254.057877 
L 182.990778 -253.364938 
L 183.19103 -252.672 
L 183.382603 -251.979061 
L 183.565743 -251.286123 
L 183.740868 -250.593184 
L 183.908553 -249.900246 
L 184.069516 -249.207307 
L 184.224597 -248.514369 
L 184.374735 -247.82143 
L 184.520943 -247.128492 
L 184.664276 -246.435553 
L 184.805804 -245.742615 
L 184.946581 -245.049676 
L 185.087615 -244.356738 
L 185.229834 -243.663799 
L 185.374066 -242.970861 
L 185.521007 -242.277922 
L 185.671203 -241.584984 
L 185.825033 -240.892045 
L 185.982693 -240.199107 
L 186.14419 -239.506168 
L 186.309342 -238.81323 
L 186.477777 -238.120291 
L 186.648944 -237.427353 
L 186.822128 -236.734414 
L 186.996468 -236.041476 
L 187.170984 -235.348537 
L 187.344604 -234.655599 
L 187.516201 -233.96266 
L 187.684624 -233.269722 
L 187.848742 -232.576783 
L 188.007481 -231.883845 
L 188.159867 -231.190906 
L 188.305066 -230.497968 
L 188.442424 -229.805029 
L 188.571506 -229.112091 
L 188.692126 -228.419152 
L 188.804384 -227.726214 
L 188.908685 -227.033275 
L 189.005764 -226.340337 
L 189.096699 -225.647398 
L 189.182915 -224.95446 
L 189.266187 -224.261521 
L 189.348632 -223.568583 
L 189.432691 -222.875644 
L 189.521104 -222.182706 
L 189.616886 -221.489767 
L 189.723277 -220.796829 
L 189.843703 -220.10389 
L 189.981721 -219.410952 
L 190.14096 -218.718013 
L 190.325056 -218.025075 
L 190.537583 -217.332136 
L 190.781985 -216.639198 
L 191.061503 -215.946259 
L 191.3791 -215.253321 
L 191.737389 -214.560382 
L 192.138568 -213.867444 
L 192.584351 -213.174505 
L 193.075908 -212.481567 
L 193.613814 -211.788628 
L 194.198004 -211.09569 
L 194.827736 -210.402751 
L 195.501563 -209.709813 
L 196.217323 -209.016874 
L 196.972131 -208.323936 
L 197.762388 -207.630997 
L 198.583803 -206.938059 
L 199.431421 -206.24512 
L 200.299672 -205.552182 
L 201.182421 -204.859243 
L 202.073032 -204.166305 
L 202.964446 -203.473366 
L 203.849261 -202.780428 
L 204.719818 -202.087489 
L 205.5683 -201.394551 
L 206.386827 -200.701612 
L 207.167557 -200.008674 
L 207.902786 -199.315735 
L 208.58505 -198.622797 
L 209.207222 -197.929858 
L 209.762605 -197.23692 
L 210.245018 -196.543981 
L 210.648882 -195.851043 
L 210.969287 -195.158104 
L 211.20206 -194.465166 
L 211.343815 -193.772227 
L 211.392 -193.079289 
L 211.344922 -192.38635 
L 211.201772 -191.693412 
L 210.962628 -191.000473 
L 210.628452 -190.307535 
L 210.201071 -189.614596 
L 209.683151 -188.921658 
L 209.078153 -188.228719 
L 208.39029 -187.535781 
L 207.624461 -186.842842 
L 206.786183 -186.149904 
z
" style="stroke: #f58518; stroke-opacity: 0.28; stroke-width: 1.1"/>
    </defs>
    <g clip-path="url(#p5503b30aca)">
     <use xlink:href="#mbf4d9386d8" x="0" y="302.4" style="fill: #f58518; fill-opacity: 0.28; stroke: #f58518; stroke-opacity: 0.28; stroke-width: 1.1"/>
    </g>
   </g>
   <g id="FillBetweenPolyCollection_3">
    <defs>
     <path id="mbad2d33019" d="M 261.75816 -194.431123 
L 258.17784 -194.431123 
L 258.183911 -195.010739 
L 258.202036 -195.590355 
L 258.231841 -196.169971 
L 258.27272 -196.749586 
L 258.323849 -197.329202 
L 258.384219 -197.908818 
L 258.45266 -198.488434 
L 258.527882 -199.068049 
L 258.608504 -199.647665 
L 258.693097 -200.227281 
L 258.780215 -200.806897 
L 258.86843 -201.386512 
L 258.956355 -201.966128 
L 259.042669 -202.545744 
L 259.12613 -203.12536 
L 259.205581 -203.704975 
L 259.27995 -204.284591 
L 259.348246 -204.864207 
L 259.409537 -205.443823 
L 259.462933 -206.023438 
L 259.507558 -206.603054 
L 259.542517 -207.18267 
L 259.566866 -207.762286 
L 259.57957 -208.341902 
L 259.579475 -208.921517 
L 259.565271 -209.501133 
L 259.53547 -210.080749 
L 259.488376 -210.660365 
L 259.422085 -211.23998 
L 259.334474 -211.819596 
L 259.22322 -212.399212 
L 259.085824 -212.978828 
L 258.919652 -213.558443 
L 258.722002 -214.138059 
L 258.490173 -214.717675 
L 258.221565 -215.297291 
L 257.913787 -215.876906 
L 257.564778 -216.456522 
L 257.172944 -217.036138 
L 256.737292 -217.615754 
L 256.257568 -218.19537 
L 255.734392 -218.774985 
L 255.169375 -219.354601 
L 254.565218 -219.934217 
L 253.925779 -220.513833 
L 253.256116 -221.093448 
L 252.562475 -221.673064 
L 251.852245 -222.25268 
L 251.133853 -222.832296 
L 250.416623 -223.411911 
L 249.710568 -223.991527 
L 249.026151 -224.571143 
L 248.374 -225.150759 
L 247.76459 -225.730374 
L 247.207909 -226.30999 
L 246.713106 -226.889606 
L 246.288149 -227.469222 
L 245.939495 -228.048838 
L 245.671794 -228.628453 
L 245.487631 -229.208069 
L 245.387323 -229.787685 
L 245.368777 -230.367301 
L 245.427419 -230.946916 
L 245.556195 -231.526532 
L 245.745648 -232.106148 
L 245.984064 -232.685764 
L 246.257702 -233.265379 
L 246.551072 -233.844995 
L 246.847284 -234.424611 
L 247.128443 -235.004227 
L 247.37608 -235.583842 
L 247.571622 -236.163458 
L 247.696876 -236.743074 
L 247.734521 -237.32269 
L 247.668604 -237.902306 
L 247.485023 -238.481921 
L 247.171983 -239.061537 
L 246.720421 -239.641153 
L 246.124391 -240.220769 
L 245.381379 -240.800384 
L 244.492563 -241.38 
L 243.462987 -241.959616 
L 242.301642 -242.539232 
L 241.021449 -243.118847 
L 239.639137 -243.698463 
L 238.174996 -244.278079 
L 236.65253 -244.857695 
L 235.09798 -245.43731 
L 233.539757 -246.016926 
L 232.007764 -246.596542 
L 230.532656 -247.176158 
L 229.145029 -247.755773 
L 227.874593 -248.335389 
L 226.749331 -248.915005 
L 225.794697 -249.494621 
L 225.032869 -250.074237 
L 224.482097 -250.653852 
L 224.156166 -251.233468 
L 224.064 -251.813084 
L 295.872 -251.813084 
L 295.872 -251.813084 
L 295.779834 -251.233468 
L 295.453903 -250.653852 
L 294.903131 -250.074237 
L 294.141303 -249.494621 
L 293.186669 -248.915005 
L 292.061407 -248.335389 
L 290.790971 -247.755773 
L 289.403344 -247.176158 
L 287.928236 -246.596542 
L 286.396243 -246.016926 
L 284.83802 -245.43731 
L 283.28347 -244.857695 
L 281.761004 -244.278079 
L 280.296863 -243.698463 
L 278.914551 -243.118847 
L 277.634358 -242.539232 
L 276.473013 -241.959616 
L 275.443437 -241.38 
L 274.554621 -240.800384 
L 273.811609 -240.220769 
L 273.215579 -239.641153 
L 272.764017 -239.061537 
L 272.450977 -238.481921 
L 272.267396 -237.902306 
L 272.201479 -237.32269 
L 272.239124 -236.743074 
L 272.364378 -236.163458 
L 272.55992 -235.583842 
L 272.807557 -235.004227 
L 273.088716 -234.424611 
L 273.384928 -233.844995 
L 273.678298 -233.265379 
L 273.951936 -232.685764 
L 274.190352 -232.106148 
L 274.379805 -231.526532 
L 274.508581 -230.946916 
L 274.567223 -230.367301 
L 274.548677 -229.787685 
L 274.448369 -229.208069 
L 274.264206 -228.628453 
L 273.996505 -228.048838 
L 273.647851 -227.469222 
L 273.222894 -226.889606 
L 272.728091 -226.30999 
L 272.17141 -225.730374 
L 271.562 -225.150759 
L 270.909849 -224.571143 
L 270.225432 -223.991527 
L 269.519377 -223.411911 
L 268.802147 -222.832296 
L 268.083755 -222.25268 
L 267.373525 -221.673064 
L 266.679884 -221.093448 
L 266.010221 -220.513833 
L 265.370782 -219.934217 
L 264.766625 -219.354601 
L 264.201608 -218.774985 
L 263.678432 -218.19537 
L 263.198708 -217.615754 
L 262.763056 -217.036138 
L 262.371222 -216.456522 
L 262.022213 -215.876906 
L 261.714435 -215.297291 
L 261.445827 -214.717675 
L 261.213998 -214.138059 
L 261.016348 -213.558443 
L 260.850176 -212.978828 
L 260.71278 -212.399212 
L 260.601526 -211.819596 
L 260.513915 -211.23998 
L 260.447624 -210.660365 
L 260.40053 -210.080749 
L 260.370729 -209.501133 
L 260.356525 -208.921517 
L 260.35643 -208.341902 
L 260.369134 -207.762286 
L 260.393483 -207.18267 
L 260.428442 -206.603054 
L 260.473067 -206.023438 
L 260.526463 -205.443823 
L 260.587754 -204.864207 
L 260.65605 -204.284591 
L 260.730419 -203.704975 
L 260.80987 -203.12536 
L 260.893331 -202.545744 
L 260.979645 -201.966128 
L 261.06757 -201.386512 
L 261.155785 -200.806897 
L 261.242903 -200.227281 
L 261.327496 -199.647665 
L 261.408118 -199.068049 
L 261.48334 -198.488434 
L 261.551781 -197.908818 
L 261.612151 -197.329202 
L 261.66328 -196.749586 
L 261.704159 -196.169971 
L 261.733964 -195.590355 
L 261.752089 -195.010739 
L 261.75816 -194.431123 
z
" style="stroke: #54a24b; stroke-opacity: 0.28; stroke-width: 1.1"/>
    </defs>
    <g clip-path="url(#p5503b30aca)">
     <use xlink:href="#mbad2d33019" x="0" y="302.4" style="fill: #54a24b; fill-opacity: 0.28; stroke: #54a24b; stroke-opacity: 0.28; stroke-width: 1.1"/>
    </g>
   </g>
   <g id="FillBetweenPolyCollection_4">
    <defs>
     <path id="mdc643fb47b" d="M 346.856061 -69.846372 
L 342.039939 -69.846372 
L 342.005017 -71.738568 
L 341.973632 -73.630764 
L 341.944351 -75.522961 
L 341.915454 -77.415157 
L 341.884947 -79.307353 
L 341.850579 -81.199549 
L 341.80986 -83.091746 
L 341.760096 -84.983942 
L 341.698414 -86.876138 
L 341.621811 -88.768335 
L 341.527193 -90.660531 
L 341.411423 -92.552727 
L 341.271377 -94.444924 
L 341.103996 -96.33712 
L 340.906345 -98.229316 
L 340.675671 -100.121512 
L 340.409463 -102.013709 
L 340.105514 -103.905905 
L 339.761974 -105.798101 
L 339.377406 -107.690298 
L 338.950844 -109.582494 
L 338.481833 -111.47469 
L 337.970474 -113.366887 
L 337.417461 -115.259083 
L 336.824105 -117.151279 
L 336.19235 -119.043475 
L 335.524787 -120.935672 
L 334.824646 -122.827868 
L 334.095779 -124.720064 
L 333.342638 -126.612261 
L 332.57023 -128.504457 
L 331.784069 -130.396653 
L 330.990106 -132.28885 
L 330.194652 -134.181046 
L 329.404296 -136.073242 
L 328.625798 -137.965438 
L 327.865993 -139.857635 
L 327.131669 -141.749831 
L 326.42946 -143.642027 
L 325.765723 -145.534224 
L 325.146421 -147.42642 
L 324.577012 -149.318616 
L 324.062342 -151.210813 
L 323.606542 -153.103009 
L 323.212944 -154.995205 
L 322.884007 -156.887401 
L 322.621254 -158.779598 
L 322.425229 -160.671794 
L 322.295475 -162.56399 
L 322.230522 -164.456187 
L 322.227898 -166.348383 
L 322.284158 -168.240579 
L 322.394928 -170.132776 
L 322.554967 -172.024972 
L 322.758238 -173.917168 
L 322.998001 -175.809364 
L 323.266906 -177.701561 
L 323.557101 -179.593757 
L 323.860344 -181.485953 
L 324.168117 -183.37815 
L 324.471747 -185.270346 
L 324.762524 -187.162542 
L 325.031816 -189.054739 
L 325.271189 -190.946935 
L 325.472517 -192.839131 
L 325.628088 -194.731327 
L 325.730718 -196.623524 
L 325.773841 -198.51572 
L 325.751617 -200.407916 
L 325.659016 -202.300113 
L 325.491915 -204.192309 
L 325.247178 -206.084505 
L 324.922737 -207.976702 
L 324.517666 -209.868898 
L 324.032249 -211.761094 
L 323.468037 -213.65329 
L 322.827895 -215.545487 
L 322.116035 -217.437683 
L 321.338034 -219.329879 
L 320.50083 -221.222076 
L 319.612698 -223.114272 
L 318.683201 -225.006468 
L 317.723108 -226.898665 
L 316.744292 -228.790861 
L 315.759588 -230.683057 
L 314.782628 -232.575253 
L 313.827641 -234.46745 
L 312.909231 -236.359646 
L 312.042126 -238.251842 
L 311.240913 -240.144039 
L 310.51976 -242.036235 
L 309.892128 -243.928431 
L 309.370487 -245.820628 
L 308.966049 -247.712824 
L 308.688509 -249.60502 
L 308.54582 -251.497216 
L 308.544 -253.389413 
L 308.686984 -255.281609 
L 308.976518 -257.173805 
L 379.919482 -257.173805 
L 379.919482 -257.173805 
L 380.209016 -255.281609 
L 380.352 -253.389413 
L 380.35018 -251.497216 
L 380.207491 -249.60502 
L 379.929951 -247.712824 
L 379.525513 -245.820628 
L 379.003872 -243.928431 
L 378.37624 -242.036235 
L 377.655087 -240.144039 
L 376.853874 -238.251842 
L 375.986769 -236.359646 
L 375.068359 -234.46745 
L 374.113372 -232.575253 
L 373.136412 -230.683057 
L 372.151708 -228.790861 
L 371.172892 -226.898665 
L 370.212799 -225.006468 
L 369.283302 -223.114272 
L 368.39517 -221.222076 
L 367.557966 -219.329879 
L 366.779965 -217.437683 
L 366.068105 -215.545487 
L 365.427963 -213.65329 
L 364.863751 -211.761094 
L 364.378334 -209.868898 
L 363.973263 -207.976702 
L 363.648822 -206.084505 
L 363.404085 -204.192309 
L 363.236984 -202.300113 
L 363.144383 -200.407916 
L 363.122159 -198.51572 
L 363.165282 -196.623524 
L 363.267912 -194.731327 
L 363.423483 -192.839131 
L 363.624811 -190.946935 
L 363.864184 -189.054739 
L 364.133476 -187.162542 
L 364.424253 -185.270346 
L 364.727883 -183.37815 
L 365.035656 -181.485953 
L 365.338899 -179.593757 
L 365.629094 -177.701561 
L 365.897999 -175.809364 
L 366.137762 -173.917168 
L 366.341033 -172.024972 
L 366.501072 -170.132776 
L 366.611842 -168.240579 
L 366.668102 -166.348383 
L 366.665478 -164.456187 
L 366.600525 -162.56399 
L 366.470771 -160.671794 
L 366.274746 -158.779598 
L 366.011993 -156.887401 
L 365.683056 -154.995205 
L 365.289458 -153.103009 
L 364.833658 -151.210813 
L 364.318988 -149.318616 
L 363.749579 -147.42642 
L 363.130277 -145.534224 
L 362.46654 -143.642027 
L 361.764331 -141.749831 
L 361.030007 -139.857635 
L 360.270202 -137.965438 
L 359.491704 -136.073242 
L 358.701348 -134.181046 
L 357.905894 -132.28885 
L 357.111931 -130.396653 
L 356.32577 -128.504457 
L 355.553362 -126.612261 
L 354.800221 -124.720064 
L 354.071354 -122.827868 
L 353.371213 -120.935672 
L 352.70365 -119.043475 
L 352.071895 -117.151279 
L 351.478539 -115.259083 
L 350.925526 -113.366887 
L 350.414167 -111.47469 
L 349.945156 -109.582494 
L 349.518594 -107.690298 
L 349.134026 -105.798101 
L 348.790486 -103.905905 
L 348.486537 -102.013709 
L 348.220329 -100.121512 
L 347.989655 -98.229316 
L 347.792004 -96.33712 
L 347.624623 -94.444924 
L 347.484577 -92.552727 
L 347.368807 -90.660531 
L 347.274189 -88.768335 
L 347.197586 -86.876138 
L 347.135904 -84.983942 
L 347.08614 -83.091746 
L 347.045421 -81.199549 
L 347.011053 -79.307353 
L 346.980546 -77.415157 
L 346.951649 -75.522961 
L 346.922368 -73.630764 
L 346.890983 -71.738568 
L 346.856061 -69.846372 
z
" style="stroke: #b279a2; stroke-opacity: 0.28; stroke-width: 1.1"/>
    </defs>
    <g clip-path="url(#p5503b30aca)">
     <use xlink:href="#mdc643fb47b" x="0" y="302.4" style="fill: #b279a2; fill-opacity: 0.28; stroke: #b279a2; stroke-opacity: 0.28; stroke-width: 1.1"/>
    </g>
   </g>
   <g id="patch_3">
    <path d="M 40.32 241.92 
L 40.32 30.24 
" style="fill: none; stroke: #000000; stroke-width: 0.8; stroke-linejoin: miter; stroke-linecap: square"/>
   </g>
   <g id="patch_4">
    <path d="M 40.32 241.92 
L 395.136 241.92 
" style="fill: none; stroke: #000000; stroke-width: 0.8; stroke-linejoin: miter; stroke-linecap: square"/>
   </g>
   <g id="patch_5">
    <path d="M 85.9392 180.732703 
L 96.0768 180.732703 
L 96.0768 97.998638 
L 85.9392 97.998638 
L 85.9392 180.732703 
z
" clip-path="url(#p5503b30aca)" style="fill: #fcfcfb; stroke: #0b0b0b; stroke-width: 0.9; stroke-linejoin: miter"/>
   </g>
   <g id="line2d_21">
    <path d="M 91.008 180.732703 
L 91.008 230.018192 
" clip-path="url(#p5503b30aca)" style="fill: none; stroke: #0b0b0b; stroke-width: 0.9; stroke-linecap: square"/>
   </g>
   <g id="line2d_22">
    <path d="M 91.008 97.998638 
L 91.008 73.641429 
" clip-path="url(#p5503b30aca)" style="fill: none; stroke: #0b0b0b; stroke-width: 0.9; stroke-linecap: square"/>
   </g>
   <g id="line2d_23">
    <path d="M 88.4736 230.018192 
L 93.5424 230.018192 
" clip-path="url(#p5503b30aca)" style="fill: none; stroke: #0b0b0b; stroke-width: 0.9; stroke-linecap: square"/>
   </g>
   <g id="line2d_24">
    <path d="M 88.4736 73.641429 
L 93.5424 73.641429 
" clip-path="url(#p5503b30aca)" style="fill: none; stroke: #0b0b0b; stroke-width: 0.9; stroke-linecap: square"/>
   </g>
   <g id="line2d_25"/>
   <g id="patch_6">
    <path d="M 170.4192 111.649067 
L 180.5568 111.649067 
L 180.5568 81.268175 
L 170.4192 81.268175 
L 170.4192 111.649067 
z
" clip-path="url(#p5503b30aca)" style="fill: #fcfcfb; stroke: #0b0b0b; stroke-width: 0.9; stroke-linejoin: miter"/>
   </g>
   <g id="line2d_26">
    <path d="M 175.488 111.649067 
L 175.488 116.250096 
" clip-path="url(#p5503b30aca)" style="fill: none; stroke: #0b0b0b; stroke-width: 0.9; stroke-linecap: square"/>
   </g>
   <g id="line2d_27">
    <path d="M 175.488 81.268175 
L 175.488 47.649185 
" clip-path="url(#p5503b30aca)" style="fill: none; stroke: #0b0b0b; stroke-width: 0.9; stroke-linecap: square"/>
   </g>
   <g id="line2d_28">
    <path d="M 172.9536 116.250096 
L 178.0224 116.250096 
" clip-path="url(#p5503b30aca)" style="fill: none; stroke: #0b0b0b; stroke-width: 0.9; stroke-linecap: square"/>
   </g>
   <g id="line2d_29">
    <path d="M 172.9536 47.649185 
L 178.0224 47.649185 
" clip-path="url(#p5503b30aca)" style="fill: none; stroke: #0b0b0b; stroke-width: 0.9; stroke-linecap: square"/>
   </g>
   <g id="line2d_30"/>
   <g id="patch_7">
    <path d="M 254.8992 72.663041 
L 265.0368 72.663041 
L 265.0368 50.586916 
L 254.8992 50.586916 
L 254.8992 72.663041 
z
" clip-path="url(#p5503b30aca)" style="fill: #fcfcfb; stroke: #0b0b0b; stroke-width: 0.9; stroke-linejoin: miter"/>
   </g>
   <g id="line2d_31">
    <path d="M 259.968 72.663041 
L 259.968 72.663041 
" clip-path="url(#p5503b30aca)" style="fill: none; stroke: #0b0b0b; stroke-width: 0.9; stroke-linecap: square"/>
   </g>
   <g id="line2d_32">
    <path d="M 259.968 50.586916 
L 259.968 50.586916 
" clip-path="url(#p5503b30aca)" style="fill: none; stroke: #0b0b0b; stroke-width: 0.9; stroke-linecap: square"/>
   </g>
   <g id="line2d_33">
    <path d="M 257.4336 72.663041 
L 262.5024 72.663041 
" clip-path="url(#p5503b30aca)" style="fill: none; stroke: #0b0b0b; stroke-width: 0.9; stroke-linecap: square"/>
   </g>
   <g id="line2d_34">
    <path d="M 257.4336 50.586916 
L 262.5024 50.586916 
" clip-path="url(#p5503b30aca)" style="fill: none; stroke: #0b0b0b; stroke-width: 0.9; stroke-linecap: square"/>
   </g>
   <g id="line2d_35">
    <defs>
     <path id="m670cc5a2ec" d="M 0 1.25 
C 0.331504 1.25 0.649475 1.118292 0.883883 0.883883 
C 1.118292 0.649475 1.25 0.331504 1.25 0 
C 1.25 -0.331504 1.118292 -0.649475 0.883883 -0.883883 
C 0.649475 -1.118292 0.331504 -1.25 0 -1.25 
C -0.331504 -1.25 -0.649475 -1.118292 -0.883883 -0.883883 
C -1.118292 -0.649475 -1.25 -0.331504 -1.25 0 
C -1.25 0.331504 -1.118292 0.649475 -0.883883 0.883883 
C -0.649475 1.118292 -0.331504 1.25 0 1.25 
z
" style="stroke: #0b0b0b"/>
    </defs>
    <g clip-path="url(#p5503b30aca)">
     <use xlink:href="#m670cc5a2ec" x="259.968" y="107.968877" style="fill: #0b0b0b; stroke: #0b0b0b"/>
    </g>
   </g>
   <g id="patch_8">
    <path d="M 339.3792 139.435172 
L 349.5168 139.435172 
L 349.5168 45.226195 
L 339.3792 45.226195 
L 339.3792 139.435172 
z
" clip-path="url(#p5503b30aca)" style="fill: #fcfcfb; stroke: #0b0b0b; stroke-width: 0.9; stroke-linejoin: miter"/>
   </g>
   <g id="line2d_36">
    <path d="M 344.448 139.435172 
L 344.448 232.553628 
" clip-path="url(#p5503b30aca)" style="fill: none; stroke: #0b0b0b; stroke-width: 0.9; stroke-linecap: square"/>
   </g>
   <g id="line2d_37">
    <path d="M 344.448 45.226195 
L 344.448 45.226195 
" clip-path="url(#p5503b30aca)" style="fill: none; stroke: #0b0b0b; stroke-width: 0.9; stroke-linecap: square"/>
   </g>
   <g id="line2d_38">
    <path d="M 341.9136 232.553628 
L 346.9824 232.553628 
" clip-path="url(#p5503b30aca)" style="fill: none; stroke: #0b0b0b; stroke-width: 0.9; stroke-linecap: square"/>
   </g>
   <g id="line2d_39">
    <path d="M 341.9136 45.226195 
L 346.9824 45.226195 
" clip-path="url(#p5503b30aca)" style="fill: none; stroke: #0b0b0b; stroke-width: 0.9; stroke-linecap: square"/>
   </g>
   <g id="line2d_40"/>
   <g id="line2d_41">
    <path d="M 85.9392 121.053415 
L 96.0768 121.053415 
" clip-path="url(#p5503b30aca)" style="fill: none; stroke: #0b0b0b; stroke-width: 1.3"/>
   </g>
   <g id="line2d_42">
    <path d="M 170.4192 105.195203 
L 180.5568 105.195203 
" clip-path="url(#p5503b30aca)" style="fill: none; stroke: #0b0b0b; stroke-width: 1.3"/>
   </g>
   <g id="line2d_43">
    <path d="M 254.8992 50.586916 
L 265.0368 50.586916 
" clip-path="url(#p5503b30aca)" style="fill: none; stroke: #0b0b0b; stroke-width: 1.3"/>
   </g>
   <g id="line2d_44">
    <path d="M 339.3792 69.581184 
L 349.5168 69.581184 
" clip-path="url(#p5503b30aca)" style="fill: none; stroke: #0b0b0b; stroke-width: 1.3"/>
   </g>
  </g>
  <g id="text_12">
   <text style="font-size: 12px; font-family: 'DejaVu Sans', 'Bitstream Vera Sans', 'Computer Modern Sans Serif', 'Lucida Grande', 'Verdana', 'Geneva', 'Lucid', 'Arial', 'Helvetica', 'Avant Garde', sans-serif; text-anchor: start; fill: #0b0b0b" x="8.064" y="13.654125" transform="rotate(-0 8.064 13.654125)">FK integrity by fixture (self-correction on)</text>
  </g>
  <g id="text_13">
   <text style="font-size: 9px; font-family: 'DejaVu Sans', 'Bitstream Vera Sans', 'Computer Modern Sans Serif', 'Lucida Grande', 'Verdana', 'Geneva', 'Lucid', 'Arial', 'Helvetica', 'Avant Garde', sans-serif; text-anchor: start; fill: #898781" x="8.064" y="23.470594" transform="rotate(-0 8.064 23.470594)">N=114 runs · n=27–30/fixture</text>
  </g>
 </g>
 <defs>
  <clipPath id="p5503b30aca">
   <rect x="40.32" y="30.24" width="354.816" height="211.68"/>
  </clipPath>
 </defs>
</svg>
