<?xml version="1.0" encoding="utf-8" standalone="no"?>
<!DOCTYPE svg PUBLIC "-//W3C//DTD SVG 1.1//EN"
  "http://www.w3.org/Graphics/SVG/1.1/DTD/svg11.dtd">
<svg xmlns:xlink="http://www.w3.org/1999/xlink" width="468pt" height="302.4pt" viewBox="0 0 468 302.4" xmlns="http://www.w3.org/2000/svg" version="1.1">
 <metadata>
  <rdf:RDF xmlns:dc="http://purl.org/dc/elements/1.1/" xmlns:cc="http://creativecommons.org/ns#" xmlns:rdf="http://www.w3.org/1999/02/22-rdf-syntax-ns#">
   <cc:Work>
    <dc:type rdf:resource="http://purl.org/dc/dcmitype/StillImage"/>
    <dc:format>image/svg+xml</dc:format>
    <dc:creator>
     <cc:Agent>
      <dc:title>Matplotlib v3.10.9, https://matplotlib.org/</dc:title>
     </cc:Agent>
    </dc:creator>
   </cc:Work>
  </rdf:RDF>
 </metadata>
 <defs>
  <style type="text/css">*{stroke-linejoin: round; stroke-linecap: butt}</style>
 </defs>
 <g id="figure_1">
  <g id="patch_1">
   <path d="M 0 302.4 
L 468 302.4 
L 468 0 
L 0 0 
L 0 302.4 
z
" style="fill: none"/>
  </g>
  <g id="axes_1">
   <g id="patch_2">
    <path d="M 46.8 241.92 
L 458.64 241.92 
L 458.64 24.192 
L 46.8 24.192 
L 46.8 241.92 
z
" style="fill: none"/>
   </g>
   <g id="matplotlib.axis_1">
    <g id="xtick_1">
     <g id="line2d_1">
      <path d="M 94.32 241.92 
L 94.32 24.192 
" clip-path="url(#p7123ebbcfd)" style="fill: none; stroke: #b0b0b0; stroke-opacity: 0.3; stroke-width: 0.8; stroke-linecap: square"/>
     </g>
     <g id="line2d_2">
      <defs>
       <path id="m5d2824273e" d="M 0 0 
L 0 3.5 
" style="stroke: #000000; stroke-width: 0.8"/>
      </defs>
      <g>
       <use xlink:href="#m5d2824273e" x="94.32" y="241.92" style="stroke: #000000; stroke-width: 0.8"/>
      </g>
     </g>
     <g id="text_1">
      <text style="font-size: 9px; font-family: 'DejaVu Sans', 'Bitstream Vera Sans', 'Computer Modern Sans Serif', 'Lucida Grande', 'Verdana', 'Geneva', 'Lucid', 'Arial', 'Helvetica', 'Avant Garde', sans-serif; fill: #0b0b0b" transform="translate(31.444483 284.019017) rotate(-25)">ensemble_vote</text>
     </g>
    </g>
    <g id="xtick_2">
     <g id="line2d_3">
      <path d="M 173.52 241.92 
L 173.52 24.192 
" clip-path="url(#p7123ebbcfd)" style="fill: none; stroke: #b0b0b0; stroke-opacity: 0.3; stroke-width: 0.8; stroke-linecap: square"/>
     </g>
     <g id="line2d_4">
      <g>
       <use xlink:href="#m5d2824273e" x="173.52" y="241.92" style="stroke: #000000; stroke-width: 0.8"/>
      </g>
     </g>
     <g id="text_2">
      <text style="font-size: 9px; font-family: 'DejaVu Sans', 'Bitstream Vera Sans', 'Computer Modern Sans Serif', 'Lucida Grande', 'Verdana', 'Geneva', 'Lucid', 'Arial', 'Helvetica', 'Avant Garde', sans-serif; fill: #0b0b0b" transform="translate(95.959748 290.866621) rotate(-25)">plan_then_execute</text>
     </g>
    </g>
    <g id="xtick_3">
     <g id="line2d_5">
      <path d="M 252.72 241.92 
L 252.72 24.192 
" clip-path="url(#p7123ebbcfd)" style="fill: none; stroke: #b0b0b0; stroke-opacity: 0.3; stroke-width: 0.8; stroke-linecap: square"/>
     </g>
     <g id="line2d_6">
      <g>
       <use xlink:href="#m5d2824273e" x="252.72" y="241.92" style="stroke: #000000; stroke-width: 0.8"/>
      </g>
     </g>
     <g id="text_3">
      <text style="font-size: 9px; font-family: 'DejaVu Sans', 'Bitstream Vera Sans', 'Computer Modern Sans Serif', 'Lucida Grande', 'Verdana', 'Geneva', 'Lucid', 'Arial', 'Helvetica', 'Avant Garde', sans-serif; fill: #0b0b0b" transform="translate(173.669863 291.561366) rotate(-25)">write_then_critique</text>
     </g>
    </g>
    <g id="xtick_4">
     <g id="line2d_7">
      <path d="M 331.92 241.92 
L 331.92 24.192 
" clip-path="url(#p7123ebbcfd)" style="fill: none; stroke: #b0b0b0; stroke-opacity: 0.3; stroke-width: 0.8; stroke-linecap: square"/>
     </g>
     <g id="line2d_8">
      <g>
       <use xlink:href="#m5d2824273e" x="331.92" y="241.92" style="stroke: #000000; stroke-width: 0.8"/>
      </g>
     </g>
     <g id="text_4">
      <text style="font-size: 9px; font-family: 'DejaVu Sans', 'Bitstream Vera Sans', 'Computer Modern Sans Serif', 'Lucida Grande', 'Verdana', 'Geneva', 'Lucid', 'Arial', 'Helvetica', 'Avant Garde', sans-serif; fill: #0b0b0b" transform="translate(246.468073 294.54657) rotate(-25)">structured_per_table</text>
     </g>
    </g>
    <g id="xtick_5">
     <g id="line2d_9">
      <path d="M 411.12 241.92 
L 411.12 24.192 
" clip-path="url(#p7123ebbcfd)" style="fill: none; stroke: #b0b0b0; stroke-opacity: 0.3; stroke-width: 0.8; stroke-linecap: square"/>
     </g>
     <g id="line2d_10">
      <g>
       <use xlink:href="#m5d2824273e" x="411.12" y="241.92" style="stroke: #000000; stroke-width: 0.8"/>
      </g>
     </g>
     <g id="text_5">
      <text style="font-size: 9px; font-family: 'DejaVu Sans', 'Bitstream Vera Sans', 'Computer Modern Sans Serif', 'Lucida Grande', 'Verdana', 'Geneva', 'Lucid', 'Arial', 'Helvetica', 'Avant Garde', sans-serif; fill: #0b0b0b" transform="translate(326.767962 294.033683) rotate(-25)">write_tools_freeform</text>
     </g>
    </g>
   </g>
   <g id="matplotlib.axis_2">
    <g id="ytick_1">
     <g id="line2d_11">
      <path d="M 46.8 232.286018 
L 458.64 232.286018 
" clip-path="url(#p7123ebbcfd)" style="fill: none; stroke: #b0b0b0; stroke-opacity: 0.3; stroke-width: 0.8; stroke-linecap: square"/>
     </g>
     <g id="line2d_12">
      <defs>
       <path id="m1aadde956b" d="M 0 0 
L -3.5 0 
" style="stroke: #000000; stroke-width: 0.8"/>
      </defs>
      <g>
       <use xlink:href="#m1aadde956b" x="46.8" y="232.286018" style="stroke: #000000; stroke-width: 0.8"/>
      </g>
     </g>
     <g id="text_6">
      <text style="font-size: 11px; font-family: 'DejaVu Sans', 'Bitstream Vera Sans', 'Computer Modern Sans Serif', 'Lucida Grande', 'Verdana', 'Geneva', 'Lucid', 'Arial', 'Helvetica', 'Avant Garde', sans-serif; text-anchor: end" x="39.8" y="236.465158" transform="rotate(-0 39.8 236.465158)">0.0</text>
     </g>
    </g>
    <g id="ytick_2">
     <g id="line2d_13">
      <path d="M 46.8 193.750088 
L 458.64 193.750088 
" clip-path="url(#p7123ebbcfd)" style="fill: none; stroke: #b0b0b0; stroke-opacity: 0.3; stroke-width: 0.8; stroke-linecap: square"/>
     </g>
     <g id="line2d_14">
      <g>
       <use xlink:href="#m1aadde956b" x="46.8" y="193.750088" style="stroke: #000000; stroke-width: 0.8"/>
      </g>
     </g>
     <g id="text_7">
      <text style="font-size: 11px; font-family: 'DejaVu Sans', 'Bitstream Vera Sans', 'Computer Modern Sans Serif', 'Lucida Grande', 'Verdana', 'Geneva', 'Lucid', 'Arial', 'Helvetica', 'Avant Garde', sans-serif; text-anchor: end" x="39.8" y="197.929229" transform="rotate(-0 39.8 197.929229)">0.2</text>
     </g>
    </g>
    <g id="ytick_3">
     <g id="line2d_15">
      <path d="M 46.8 155.214159 
L 458.64 155.214159 
" clip-path="url(#p7123ebbcfd)" style="fill: none; stroke: #b0b0b0; stroke-opacity: 0.3; stroke-width: 0.8; stroke-linecap: square"/>
     </g>
     <g id="line2d_16">
      <g>
       <use xlink:href="#m1aadde956b" x="46.8" y="155.214159" style="stroke: #000000; stroke-width: 0.8"/>
      </g>
     </g>
     <g id="text_8">
      <text style="font-size: 11px; font-family: 'DejaVu Sans', 'Bitstream Vera Sans', 'Computer Modern Sans Serif', 'Lucida Grande', 'Verdana', 'Geneva', 'Lucid', 'Arial', 'Helvetica', 'Avant Garde', sans-serif; text-anchor: end" x="39.8" y="159.3933" transform="rotate(-0 39.8 159.3933)">0.4</text>
     </g>
    </g>
    <g id="ytick_4">
     <g id="line2d_17">
      <path d="M 46.8 116.67823 
L 458.64 116.67823 
" clip-path="url(#p7123ebbcfd)" style="fill: none; stroke: #b0b0b0; stroke-opacity: 0.3; stroke-width: 0.8; stroke-linecap: square"/>
     </g>
     <g id="line2d_18">
      <g>
       <use xlink:href="#m1aadde956b" x="46.8" y="116.67823" style="stroke: #000000; stroke-width: 0.8"/>
      </g>
     </g>
     <g id="text_9">
      <text style="font-size: 11px; font-family: 'DejaVu Sans', 'Bitstream Vera Sans', 'Computer Modern Sans Serif', 'Lucida Grande', 'Verdana', 'Geneva', 'Lucid', 'Arial', 'Helvetica', 'Avant Garde', sans-serif; text-anchor: end" x="39.8" y="120.857371" transform="rotate(-0 39.8 120.857371)">0.6</text>
     </g>
    </g>
    <g id="ytick_5">
     <g id="line2d_19">
      <path d="M 46.8 78.142301 
L 458.64 78.142301 
" clip-path="url(#p7123ebbcfd)" style="fill: none; stroke: #b0b0b0; stroke-opacity: 0.3; stroke-width: 0.8; stroke-linecap: square"/>
     </g>
     <g id="line2d_20">
      <g>
       <use xlink:href="#m1aadde956b" x="46.8" y="78.142301" style="stroke: #000000; stroke-width: 0.8"/>
      </g>
     </g>
     <g id="text_10">
      <text style="font-size: 11px; font-family: 'DejaVu Sans', 'Bitstream Vera Sans', 'Computer Modern Sans Serif', 'Lucida Grande', 'Verdana', 'Geneva', 'Lucid', 'Arial', 'Helvetica', 'Avant Garde', sans-serif; text-anchor: end" x="39.8" y="82.321442" transform="rotate(-0 39.8 82.321442)">0.8</text>
     </g>
    </g>
    <g id="ytick_6">
     <g id="line2d_21">
      <path d="M 46.8 39.606372 
L 458.64 39.606372 
" clip-path="url(#p7123ebbcfd)" style="fill: none; stroke: #b0b0b0; stroke-opacity: 0.3; stroke-width: 0.8; stroke-linecap: square"/>
     </g>
     <g id="line2d_22">
      <g>
       <use xlink:href="#m1aadde956b" x="46.8" y="39.606372" style="stroke: #000000; stroke-width: 0.8"/>
      </g>
     </g>
     <g id="text_11">
      <text style="font-size: 11px; font-family: 'DejaVu Sans', 'Bitstream Vera Sans', 'Computer Modern Sans Serif', 'Lucida Grande', 'Verdana', 'Geneva', 'Lucid', 'Arial', 'Helvetica', 'Avant Garde', sans-serif; text-anchor: end" x="39.8" y="43.785512" transform="rotate(-0 39.8 43.785512)">1.0</text>
     </g>
    </g>
    <g id="text_12">
     <text style="font-size: 11px; font-family: 'DejaVu Sans', 'Bitstream Vera Sans', 'Computer Modern Sans Serif', 'Lucida Grande', 'Verdana', 'Geneva', 'Lucid', 'Arial', 'Helvetica', 'Avant Garde', sans-serif; text-anchor: middle; fill: #0b0b0b" x="16.018906" y="133.056" transform="rotate(-90 16.018906 133.056)">FK integrity</text>
    </g>
   </g>
   <g id="FillBetweenPolyCollection_1">
    <defs>
     <path id="m8443f92f83" d="M 103.319342 -72.721859 
L 85.320658 -72.721859 
L 84.982435 -74.641776 
L 84.649818 -76.561693 
L 84.323497 -78.48161 
L 84.004055 -80.401527 
L 83.691962 -82.321443 
L 83.38757 -84.24136 
L 83.091118 -86.161277 
L 82.802722 -88.081194 
L 82.522386 -90.001111 
L 82.25 -91.921028 
L 81.985346 -93.840945 
L 81.728103 -95.760861 
L 81.477856 -97.680778 
L 81.234098 -99.600695 
L 80.996245 -101.520612 
L 80.763639 -103.440529 
L 80.535561 -105.360446 
L 80.311238 -107.280363 
L 80.089855 -109.20028 
L 79.870562 -111.120196 
L 79.652488 -113.040113 
L 79.434749 -114.96003 
L 79.216459 -116.879947 
L 78.99674 -118.799864 
L 78.774735 -120.719781 
L 78.549616 -122.639698 
L 78.320595 -124.559614 
L 78.086937 -126.479531 
L 77.847967 -128.399448 
L 77.603082 -130.319365 
L 77.351757 -132.239282 
L 77.093555 -134.159199 
L 76.828137 -136.079116 
L 76.555261 -137.999032 
L 76.274792 -139.918949 
L 75.9867 -141.838866 
L 75.691066 -143.758783 
L 75.388074 -145.6787 
L 75.078011 -147.598617 
L 74.761262 -149.518534 
L 74.438296 -151.43845 
L 74.109663 -153.358367 
L 73.775973 -155.278284 
L 73.437889 -157.198201 
L 73.096105 -159.118118 
L 72.751331 -161.038035 
L 72.404275 -162.957952 
L 72.055625 -164.877868 
L 71.706029 -166.797785 
L 71.356078 -168.717702 
L 71.006292 -170.637619 
L 70.657104 -172.557536 
L 70.308851 -174.477453 
L 69.961765 -176.39737 
L 69.615967 -178.317286 
L 69.271471 -180.237203 
L 68.928183 -182.15712 
L 68.585914 -184.077037 
L 68.244394 -185.996954 
L 67.903286 -187.916871 
L 67.562213 -189.836788 
L 67.220783 -191.756704 
L 66.878618 -193.676621 
L 66.53539 -195.596538 
L 66.190858 -197.516455 
L 65.8449 -199.436372 
L 65.497555 -201.356289 
L 65.149057 -203.276206 
L 64.799873 -205.196123 
L 64.450731 -207.116039 
L 64.102653 -209.035956 
L 63.756972 -210.955873 
L 63.415355 -212.87579 
L 63.079807 -214.795707 
L 62.752677 -216.715624 
L 62.436648 -218.635541 
L 62.134724 -220.555457 
L 61.850204 -222.475374 
L 61.58665 -224.395291 
L 61.347841 -226.315208 
L 61.13773 -228.235125 
L 60.960378 -230.155042 
L 60.819894 -232.074959 
L 60.720369 -233.994875 
L 60.665796 -235.914792 
L 60.66 -237.834709 
L 60.706562 -239.754626 
L 60.808745 -241.674543 
L 60.969419 -243.59446 
L 61.191 -245.514377 
L 61.475388 -247.434293 
L 61.823915 -249.35421 
L 62.237301 -251.274127 
L 62.715624 -253.194044 
L 63.258299 -255.113961 
L 63.864069 -257.033878 
L 64.531008 -258.953795 
L 65.256538 -260.873711 
L 66.037456 -262.793628 
L 122.602544 -262.793628 
L 122.602544 -262.793628 
L 123.383462 -260.873711 
L 124.108992 -258.953795 
L 124.775931 -257.033878 
L 125.381701 -255.113961 
L 125.924376 -253.194044 
L 126.402699 -251.274127 
L 126.816085 -249.35421 
L 127.164612 -247.434293 
L 127.449 -245.514377 
L 127.670581 -243.59446 
L 127.831255 -241.674543 
L 127.933438 -239.754626 
L 127.98 -237.834709 
L 127.974204 -235.914792 
L 127.919631 -233.994875 
L 127.820106 -232.074959 
L 127.679622 -230.155042 
L 127.50227 -228.235125 
L 127.292159 -226.315208 
L 127.05335 -224.395291 
L 126.789796 -222.475374 
L 126.505276 -220.555457 
L 126.203352 -218.635541 
L 125.887323 -216.715624 
L 125.560193 -214.795707 
L 125.224645 -212.87579 
L 124.883028 -210.955873 
L 124.537347 -209.035956 
L 124.189269 -207.116039 
L 123.840127 -205.196123 
L 123.490943 -203.276206 
L 123.142445 -201.356289 
L 122.7951 -199.436372 
L 122.449142 -197.516455 
L 122.10461 -195.596538 
L 121.761382 -193.676621 
L 121.419217 -191.756704 
L 121.077787 -189.836788 
L 120.736714 -187.916871 
L 120.395606 -185.996954 
L 120.054086 -184.077037 
L 119.711817 -182.15712 
L 119.368529 -180.237203 
L 119.024033 -178.317286 
L 118.678235 -176.39737 
L 118.331149 -174.477453 
L 117.982896 -172.557536 
L 117.633708 -170.637619 
L 117.283922 -168.717702 
L 116.933971 -166.797785 
L 116.584375 -164.877868 
L 116.235725 -162.957952 
L 115.888669 -161.038035 
L 115.543895 -159.118118 
L 115.202111 -157.198201 
L 114.864027 -155.278284 
L 114.530337 -153.358367 
L 114.201704 -151.43845 
L 113.878738 -149.518534 
L 113.561989 -147.598617 
L 113.251926 -145.6787 
L 112.948934 -143.758783 
L 112.6533 -141.838866 
L 112.365208 -139.918949 
L 112.084739 -137.999032 
L 111.811863 -136.079116 
L 111.546445 -134.159199 
L 111.288243 -132.239282 
L 111.036918 -130.319365 
L 110.792033 -128.399448 
L 110.553063 -126.479531 
L 110.319405 -124.559614 
L 110.090384 -122.639698 
L 109.865265 -120.719781 
L 109.64326 -118.799864 
L 109.423541 -116.879947 
L 109.205251 -114.96003 
L 108.987512 -113.040113 
L 108.769438 -111.120196 
L 108.550145 -109.20028 
L 108.328762 -107.280363 
L 108.104439 -105.360446 
L 107.876361 -103.440529 
L 107.643755 -101.520612 
L 107.405902 -99.600695 
L 107.162144 -97.680778 
L 106.911897 -95.760861 
L 106.654654 -93.840945 
L 106.39 -91.921028 
L 106.117614 -90.001111 
L 105.837278 -88.081194 
L 105.548882 -86.161277 
L 105.25243 -84.24136 
L 104.948038 -82.321443 
L 104.635945 -80.401527 
L 104.316503 -78.48161 
L 103.990182 -76.561693 
L 103.657565 -74.641776 
L 103.319342 -72.721859 
z
" style="stroke: #c40d1e; stroke-opacity: 0.28; stroke-width: 1.1"/>
    </defs>
    <g clip-path="url(#p7123ebbcfd)">
     <use xlink:href="#m8443f92f83" x="0" y="302.4" style="fill: #c40d1e; fill-opacity: 0.28; stroke: #c40d1e; stroke-opacity: 0.28; stroke-width: 1.1"/>
    </g>
   </g>
   <g id="FillBetweenPolyCollection_2">
    <defs>
     <path id="mb36218d70b" d="M 179.900713 -120.45207 
L 167.139287 -120.45207 
L 166.892943 -121.889864 
L 166.655736 -123.327658 
L 166.428679 -124.765451 
L 166.212606 -126.203245 
L 166.008133 -127.641038 
L 165.815634 -129.078832 
L 165.635203 -130.516625 
L 165.466634 -131.954419 
L 165.309389 -133.392212 
L 165.162579 -134.830006 
L 165.024946 -136.267799 
L 164.894853 -137.705593 
L 164.770276 -139.143386 
L 164.64881 -140.58118 
L 164.527676 -142.018973 
L 164.403745 -143.456767 
L 164.273567 -144.89456 
L 164.13341 -146.332354 
L 163.979314 -147.770147 
L 163.807145 -149.207941 
L 163.612674 -150.645734 
L 163.391648 -152.083528 
L 163.139883 -153.521321 
L 162.85335 -154.959115 
L 162.528276 -156.396908 
L 162.161237 -157.834702 
L 161.74926 -159.272495 
L 161.289911 -160.710289 
L 160.781386 -162.148082 
L 160.222587 -163.585876 
L 159.613186 -165.023669 
L 158.953684 -166.461463 
L 158.245437 -167.899256 
L 157.490682 -169.33705 
L 156.692528 -170.774843 
L 155.854937 -172.212637 
L 154.98268 -173.65043 
L 154.081273 -175.088224 
L 153.156891 -176.526018 
L 152.216274 -177.963811 
L 151.266603 -179.401605 
L 150.315379 -180.839398 
L 149.370277 -182.277192 
L 148.439012 -183.714985 
L 147.529183 -185.152779 
L 146.648134 -186.590572 
L 145.802817 -188.028366 
L 144.999656 -189.466159 
L 144.244436 -190.903953 
L 143.542197 -192.341746 
L 142.897151 -193.77954 
L 142.312618 -195.217333 
L 141.790982 -196.655127 
L 141.333666 -198.09292 
L 140.941133 -199.530714 
L 140.612905 -200.968507 
L 140.347601 -202.406301 
L 140.142994 -203.844094 
L 139.996083 -205.281888 
L 139.903178 -206.719681 
L 139.86 -208.157475 
L 139.861783 -209.595268 
L 139.903389 -211.033062 
L 139.979417 -212.470855 
L 140.084328 -213.908649 
L 140.212553 -215.346442 
L 140.358609 -216.784236 
L 140.517208 -218.222029 
L 140.683357 -219.659823 
L 140.852456 -221.097616 
L 141.020382 -222.53541 
L 141.183571 -223.973203 
L 141.339081 -225.410997 
L 141.484651 -226.84879 
L 141.618745 -228.286584 
L 141.740585 -229.724378 
L 141.850166 -231.162171 
L 141.948263 -232.599965 
L 142.03642 -234.037758 
L 142.116924 -235.475552 
L 142.19276 -236.913345 
L 142.26756 -238.351139 
L 142.345526 -239.788932 
L 142.431345 -241.226726 
L 142.530086 -242.664519 
L 142.647094 -244.102313 
L 142.787861 -245.540106 
L 142.957902 -246.9779 
L 143.162618 -248.415693 
L 143.407166 -249.853487 
L 143.696318 -251.29128 
L 144.034344 -252.729074 
L 144.424888 -254.166867 
L 144.870867 -255.604661 
L 145.374378 -257.042454 
L 145.936634 -258.480248 
L 146.557911 -259.918041 
L 147.237523 -261.355835 
L 147.973818 -262.793628 
L 199.066182 -262.793628 
L 199.066182 -262.793628 
L 199.802477 -261.355835 
L 200.482089 -259.918041 
L 201.103366 -258.480248 
L 201.665622 -257.042454 
L 202.169133 -255.604661 
L 202.615112 -254.166867 
L 203.005656 -252.729074 
L 203.343682 -251.29128 
L 203.632834 -249.853487 
L 203.877382 -248.415693 
L 204.082098 -246.9779 
L 204.252139 -245.540106 
L 204.392906 -244.102313 
L 204.509914 -242.664519 
L 204.608655 -241.226726 
L 204.694474 -239.788932 
L 204.77244 -238.351139 
L 204.84724 -236.913345 
L 204.923076 -235.475552 
L 205.00358 -234.037758 
L 205.091737 -232.599965 
L 205.189834 -231.162171 
L 205.299415 -229.724378 
L 205.421255 -228.286584 
L 205.555349 -226.84879 
L 205.700919 -225.410997 
L 205.856429 -223.973203 
L 206.019618 -222.53541 
L 206.187544 -221.097616 
L 206.356643 -219.659823 
L 206.522792 -218.222029 
L 206.681391 -216.784236 
L 206.827447 -215.346442 
L 206.955672 -213.908649 
L 207.060583 -212.470855 
L 207.136611 -211.033062 
L 207.178217 -209.595268 
L 207.18 -208.157475 
L 207.136822 -206.719681 
L 207.043917 -205.281888 
L 206.897006 -203.844094 
L 206.692399 -202.406301 
L 206.427095 -200.968507 
L 206.098867 -199.530714 
L 205.706334 -198.09292 
L 205.249018 -196.655127 
L 204.727382 -195.217333 
L 204.142849 -193.77954 
L 203.497803 -192.341746 
L 202.795564 -190.903953 
L 202.040344 -189.466159 
L 201.237183 -188.028366 
L 200.391866 -186.590572 
L 199.510817 -185.152779 
L 198.600988 -183.714985 
L 197.669723 -182.277192 
L 196.724621 -180.839398 
L 195.773397 -179.401605 
L 194.823726 -177.963811 
L 193.883109 -176.526018 
L 192.958727 -175.088224 
L 192.05732 -173.65043 
L 191.185063 -172.212637 
L 190.347472 -170.774843 
L 189.549318 -169.33705 
L 188.794563 -167.899256 
L 188.086316 -166.461463 
L 187.426814 -165.023669 
L 186.817413 -163.585876 
L 186.258614 -162.148082 
L 185.750089 -160.710289 
L 185.29074 -159.272495 
L 184.878763 -157.834702 
L 184.511724 -156.396908 
L 184.18665 -154.959115 
L 183.900117 -153.521321 
L 183.648352 -152.083528 
L 183.427326 -150.645734 
L 183.232855 -149.207941 
L 183.060686 -147.770147 
L 182.90659 -146.332354 
L 182.766433 -144.89456 
L 182.636255 -143.456767 
L 182.512324 -142.018973 
L 182.39119 -140.58118 
L 182.269724 -139.143386 
L 182.145147 -137.705593 
L 182.015054 -136.267799 
L 181.877421 -134.830006 
L 181.730611 -133.392212 
L 181.573366 -131.954419 
L 181.404797 -130.516625 
L 181.224366 -129.078832 
L 181.031867 -127.641038 
L 180.827394 -126.203245 
L 180.611321 -124.765451 
L 180.384264 -123.327658 
L 180.147057 -121.889864 
L 179.900713 -120.45207 
z
" style="stroke: #ff6c00; stroke-opacity: 0.28; stroke-width: 1.1"/>
    </defs>
    <g clip-path="url(#p7123ebbcfd)">
     <use xlink:href="#mb36218d70b" x="0" y="302.4" style="fill: #ff6c00; fill-opacity: 0.28; stroke: #ff6c00; stroke-opacity: 0.28; stroke-width: 1.1"/>
    </g>
   </g>
   <g id="FillBetweenPolyCollection_3">
    <defs>
     <path id="m89dea85fb9" d="M 256.547896 -146.835116 
L 248.892104 -146.835116 
L 248.751354 -148.006414 
L 248.605404 -149.177712 
L 248.452725 -150.34901 
L 248.291666 -151.520308 
L 248.120491 -152.691606 
L 247.937412 -153.862904 
L 247.740631 -155.034202 
L 247.528385 -156.2055 
L 247.298989 -157.376799 
L 247.050882 -158.548097 
L 246.782675 -159.719395 
L 246.493194 -160.890693 
L 246.181519 -162.061991 
L 245.84702 -163.233289 
L 245.48939 -164.404587 
L 245.108671 -165.575885 
L 244.705265 -166.747183 
L 244.27995 -167.918481 
L 243.833877 -169.08978 
L 243.368564 -170.261078 
L 242.885878 -171.432376 
L 242.388012 -172.603674 
L 241.877455 -173.774972 
L 241.356945 -174.94627 
L 240.82943 -176.117568 
L 240.298012 -177.288866 
L 239.765893 -178.460164 
L 239.236316 -179.631463 
L 238.712504 -180.802761 
L 238.197598 -181.974059 
L 237.694602 -183.145357 
L 237.206317 -184.316655 
L 236.735296 -185.487953 
L 236.283787 -186.659251 
L 235.853696 -187.830549 
L 235.446543 -189.001847 
L 235.063441 -190.173146 
L 234.705067 -191.344444 
L 234.371654 -192.515742 
L 234.062984 -193.68704 
L 233.778397 -194.858338 
L 233.516799 -196.029636 
L 233.276687 -197.200934 
L 233.056181 -198.372232 
L 232.853057 -199.54353 
L 232.664796 -200.714829 
L 232.488631 -201.886127 
L 232.3216 -203.057425 
L 232.16061 -204.228723 
L 232.002491 -205.400021 
L 231.84406 -206.571319 
L 231.682183 -207.742617 
L 231.513827 -208.913915 
L 231.336125 -210.085213 
L 231.146417 -211.256512 
L 230.942302 -212.42781 
L 230.721674 -213.599108 
L 230.482753 -214.770406 
L 230.224109 -215.941704 
L 229.944677 -217.113002 
L 229.643765 -218.2843 
L 229.321057 -219.455598 
L 228.976603 -220.626896 
L 228.610809 -221.798195 
L 228.224421 -222.969493 
L 227.818502 -224.140791 
L 227.394417 -225.312089 
L 226.953804 -226.483387 
L 226.498554 -227.654685 
L 226.030796 -228.825983 
L 225.552878 -229.997281 
L 225.067354 -231.168579 
L 224.576977 -232.339877 
L 224.084694 -233.511176 
L 223.593647 -234.682474 
L 223.107173 -235.853772 
L 222.628807 -237.02507 
L 222.16229 -238.196368 
L 221.711564 -239.367666 
L 221.280774 -240.538964 
L 220.874259 -241.710262 
L 220.496539 -242.88156 
L 220.152287 -244.052859 
L 219.846299 -245.224157 
L 219.583445 -246.395455 
L 219.368617 -247.566753 
L 219.206657 -248.738051 
L 219.102283 -249.909349 
L 219.06 -251.080647 
L 219.084011 -252.251945 
L 219.178118 -253.423243 
L 219.345624 -254.594542 
L 219.589241 -255.76584 
L 219.910997 -256.937138 
L 220.312158 -258.108436 
L 220.79316 -259.279734 
L 221.353555 -260.451032 
L 221.991976 -261.62233 
L 222.706125 -262.793628 
L 282.733875 -262.793628 
L 282.733875 -262.793628 
L 283.448024 -261.62233 
L 284.086445 -260.451032 
L 284.64684 -259.279734 
L 285.127842 -258.108436 
L 285.529003 -256.937138 
L 285.850759 -255.76584 
L 286.094376 -254.594542 
L 286.261882 -253.423243 
L 286.355989 -252.251945 
L 286.38 -251.080647 
L 286.337717 -249.909349 
L 286.233343 -248.738051 
L 286.071383 -247.566753 
L 285.856555 -246.395455 
L 285.593701 -245.224157 
L 285.287713 -244.052859 
L 284.943461 -242.88156 
L 284.565741 -241.710262 
L 284.159226 -240.538964 
L 283.728436 -239.367666 
L 283.27771 -238.196368 
L 282.811193 -237.02507 
L 282.332827 -235.853772 
L 281.846353 -234.682474 
L 281.355306 -233.511176 
L 280.863023 -232.339877 
L 280.372646 -231.168579 
L 279.887122 -229.997281 
L 279.409204 -228.825983 
L 278.941446 -227.654685 
L 278.486196 -226.483387 
L 278.045583 -225.312089 
L 277.621498 -224.140791 
L 277.215579 -222.969493 
L 276.829191 -221.798195 
L 276.463397 -220.626896 
L 276.118943 -219.455598 
L 275.796235 -218.2843 
L 275.495323 -217.113002 
L 275.215891 -215.941704 
L 274.957247 -214.770406 
L 274.718326 -213.599108 
L 274.497698 -212.42781 
L 274.293583 -211.256512 
L 274.103875 -210.085213 
L 273.926173 -208.913915 
L 273.757817 -207.742617 
L 273.59594 -206.571319 
L 273.437509 -205.400021 
L 273.27939 -204.228723 
L 273.1184 -203.057425 
L 272.951369 -201.886127 
L 272.775204 -200.714829 
L 272.586943 -199.54353 
L 272.383819 -198.372232 
L 272.163313 -197.200934 
L 271.923201 -196.029636 
L 271.661603 -194.858338 
L 271.377016 -193.68704 
L 271.068346 -192.515742 
L 270.734933 -191.344444 
L 270.376559 -190.173146 
L 269.993457 -189.001847 
L 269.586304 -187.830549 
L 269.156213 -186.659251 
L 268.704704 -185.487953 
L 268.233683 -184.316655 
L 267.745398 -183.145357 
L 267.242402 -181.974059 
L 266.727496 -180.802761 
L 266.203684 -179.631463 
L 265.674107 -178.460164 
L 265.141988 -177.288866 
L 264.61057 -176.117568 
L 264.083055 -174.94627 
L 263.562545 -173.774972 
L 263.051988 -172.603674 
L 262.554122 -171.432376 
L 262.071436 -170.261078 
L 261.606123 -169.08978 
L 261.16005 -167.918481 
L 260.734735 -166.747183 
L 260.331329 -165.575885 
L 259.95061 -164.404587 
L 259.59298 -163.233289 
L 259.258481 -162.061991 
L 258.946806 -160.890693 
L 258.657325 -159.719395 
L 258.389118 -158.548097 
L 258.141011 -157.376799 
L 257.911615 -156.2055 
L 257.699369 -155.034202 
L 257.502588 -153.862904 
L 257.319509 -152.691606 
L 257.148334 -151.520308 
L 256.987275 -150.34901 
L 256.834596 -149.177712 
L 256.688646 -148.006414 
L 256.547896 -146.835116 
z
" style="stroke: #e8a800; stroke-opacity: 0.28; stroke-width: 1.1"/>
    </defs>
    <g clip-path="url(#p7123ebbcfd)">
     <use xlink:href="#m89dea85fb9" x="0" y="302.4" style="fill: #e8a800; fill-opacity: 0.28; stroke: #e8a800; stroke-opacity: 0.28; stroke-width: 1.1"/>
    </g>
   </g>
   <g id="FillBetweenPolyCollection_4">
    <defs>
     <path id="m95a0056d24" d="M 343.94113 -70.113982 
L 319.89887 -70.113982 
L 319.511373 -72.060241 
L 319.13737 -74.0065 
L 318.777463 -75.952759 
L 318.432005 -77.899019 
L 318.101094 -79.845278 
L 317.784573 -81.791537 
L 317.482036 -83.737796 
L 317.192836 -85.684055 
L 316.916099 -87.630314 
L 316.650747 -89.576573 
L 316.395518 -91.522832 
L 316.148993 -93.469091 
L 315.909631 -95.41535 
L 315.675796 -97.361609 
L 315.445792 -99.307868 
L 315.217902 -101.254127 
L 314.990417 -103.200386 
L 314.761673 -105.146645 
L 314.530083 -107.092904 
L 314.294166 -109.039163 
L 314.052574 -110.985422 
L 313.804113 -112.931681 
L 313.547765 -114.87794 
L 313.282699 -116.8242 
L 313.00828 -118.770459 
L 312.724078 -120.716718 
L 312.429861 -122.662977 
L 312.125593 -124.609236 
L 311.811425 -126.555495 
L 311.48768 -128.501754 
L 311.154836 -130.448013 
L 310.813505 -132.394272 
L 310.464413 -134.340531 
L 310.108375 -136.28679 
L 309.746271 -138.233049 
L 309.379022 -140.179308 
L 309.007566 -142.125567 
L 308.632836 -144.071826 
L 308.255744 -146.018085 
L 307.87716 -147.964344 
L 307.497899 -149.910603 
L 307.118711 -151.856862 
L 306.740277 -153.803121 
L 306.363201 -155.749381 
L 305.988016 -157.69564 
L 305.615183 -159.641899 
L 305.245102 -161.588158 
L 304.878123 -163.534417 
L 304.514553 -165.480676 
L 304.154677 -167.426935 
L 303.798769 -169.373194 
L 303.447112 -171.319453 
L 303.100011 -173.265712 
L 302.757813 -175.211971 
L 302.42092 -177.15823 
L 302.089806 -179.104489 
L 301.765026 -181.050748 
L 301.447232 -182.997007 
L 301.137178 -184.943266 
L 300.835727 -186.889525 
L 300.543858 -188.835784 
L 300.262664 -190.782043 
L 299.993357 -192.728302 
L 299.737259 -194.674562 
L 299.495803 -196.620821 
L 299.270523 -198.56708 
L 299.063047 -200.513339 
L 298.875084 -202.459598 
L 298.708418 -204.405857 
L 298.564886 -206.352116 
L 298.446369 -208.298375 
L 298.354775 -210.244634 
L 298.292017 -212.190893 
L 298.26 -214.137152 
L 298.260595 -216.083411 
L 298.295622 -218.02967 
L 298.366824 -219.975929 
L 298.475847 -221.922188 
L 298.624215 -223.868447 
L 298.813306 -225.814706 
L 299.044327 -227.760965 
L 299.31829 -229.707224 
L 299.635993 -231.653484 
L 299.997989 -233.599743 
L 300.404576 -235.546002 
L 300.855772 -237.492261 
L 301.351297 -239.43852 
L 301.89057 -241.384779 
L 302.472688 -243.331038 
L 303.096428 -245.277297 
L 303.760245 -247.223556 
L 304.462271 -249.169815 
L 305.200329 -251.116074 
L 305.971942 -253.062333 
L 306.774351 -255.008592 
L 307.604537 -256.954851 
L 308.459251 -258.90111 
L 309.335039 -260.847369 
L 310.22828 -262.793628 
L 353.61172 -262.793628 
L 353.61172 -262.793628 
L 354.504961 -260.847369 
L 355.380749 -258.90111 
L 356.235463 -256.954851 
L 357.065649 -255.008592 
L 357.868058 -253.062333 
L 358.639671 -251.116074 
L 359.377729 -249.169815 
L 360.079755 -247.223556 
L 360.743572 -245.277297 
L 361.367312 -243.331038 
L 361.94943 -241.384779 
L 362.488703 -239.43852 
L 362.984228 -237.492261 
L 363.435424 -235.546002 
L 363.842011 -233.599743 
L 364.204007 -231.653484 
L 364.52171 -229.707224 
L 364.795673 -227.760965 
L 365.026694 -225.814706 
L 365.215785 -223.868447 
L 365.364153 -221.922188 
L 365.473176 -219.975929 
L 365.544378 -218.02967 
L 365.579405 -216.083411 
L 365.58 -214.137152 
L 365.547983 -212.190893 
L 365.485225 -210.244634 
L 365.393631 -208.298375 
L 365.275114 -206.352116 
L 365.131582 -204.405857 
L 364.964916 -202.459598 
L 364.776953 -200.513339 
L 364.569477 -198.56708 
L 364.344197 -196.620821 
L 364.102741 -194.674562 
L 363.846643 -192.728302 
L 363.577336 -190.782043 
L 363.296142 -188.835784 
L 363.004273 -186.889525 
L 362.702822 -184.943266 
L 362.392768 -182.997007 
L 362.074974 -181.050748 
L 361.750194 -179.104489 
L 361.41908 -177.15823 
L 361.082187 -175.211971 
L 360.739989 -173.265712 
L 360.392888 -171.319453 
L 360.041231 -169.373194 
L 359.685323 -167.426935 
L 359.325447 -165.480676 
L 358.961877 -163.534417 
L 358.594898 -161.588158 
L 358.224817 -159.641899 
L 357.851984 -157.69564 
L 357.476799 -155.749381 
L 357.099723 -153.803121 
L 356.721289 -151.856862 
L 356.342101 -149.910603 
L 355.96284 -147.964344 
L 355.584256 -146.018085 
L 355.207164 -144.071826 
L 354.832434 -142.125567 
L 354.460978 -140.179308 
L 354.093729 -138.233049 
L 353.731625 -136.28679 
L 353.375587 -134.340531 
L 353.026495 -132.394272 
L 352.685164 -130.448013 
L 352.35232 -128.501754 
L 352.028575 -126.555495 
L 351.714407 -124.609236 
L 351.410139 -122.662977 
L 351.115922 -120.716718 
L 350.83172 -118.770459 
L 350.557301 -116.8242 
L 350.292235 -114.87794 
L 350.035887 -112.931681 
L 349.787426 -110.985422 
L 349.545834 -109.039163 
L 349.309917 -107.092904 
L 349.078327 -105.146645 
L 348.849583 -103.200386 
L 348.622098 -101.254127 
L 348.394208 -99.307868 
L 348.164204 -97.361609 
L 347.930369 -95.41535 
L 347.691007 -93.469091 
L 347.444482 -91.522832 
L 347.189253 -89.576573 
L 346.923901 -87.630314 
L 346.647164 -85.684055 
L 346.357964 -83.737796 
L 346.055427 -81.791537 
L 345.738906 -79.845278 
L 345.407995 -77.899019 
L 345.062537 -75.952759 
L 344.70263 -74.0065 
L 344.328627 -72.060241 
L 343.94113 -70.113982 
z
" style="stroke: #b5297a; stroke-opacity: 0.28; stroke-width: 1.1"/>
    </defs>
    <g clip-path="url(#p7123ebbcfd)">
     <use xlink:href="#m95a0056d24" x="0" y="302.4" style="fill: #b5297a; fill-opacity: 0.28; stroke: #b5297a; stroke-opacity: 0.28; stroke-width: 1.1"/>
    </g>
   </g>
   <g id="FillBetweenPolyCollection_5">
    <defs>
     <path id="mcfcc691d39" d="M 433.605039 -189.740472 
L 388.634961 -189.740472 
L 388.336593 -190.478383 
L 388.063786 -191.216294 
L 387.817343 -191.954204 
L 387.597964 -192.692115 
L 387.406246 -193.430026 
L 387.242673 -194.167936 
L 387.107621 -194.905847 
L 387.001349 -195.643758 
L 386.923999 -196.381668 
L 386.875595 -197.119579 
L 386.856043 -197.85749 
L 386.865125 -198.5954 
L 386.902505 -199.333311 
L 386.967727 -200.071222 
L 387.060214 -200.809132 
L 387.179273 -201.547043 
L 387.32409 -202.284954 
L 387.49374 -203.022864 
L 387.687183 -203.760775 
L 387.903269 -204.498686 
L 388.140742 -205.236596 
L 388.398242 -205.974507 
L 388.674309 -206.712418 
L 388.967388 -207.450328 
L 389.275833 -208.188239 
L 389.597911 -208.92615 
L 389.931809 -209.66406 
L 390.275641 -210.401971 
L 390.62745 -211.139882 
L 390.985218 -211.877792 
L 391.346871 -212.615703 
L 391.710287 -213.353614 
L 392.073307 -214.091524 
L 392.433738 -214.829435 
L 392.789363 -215.567346 
L 393.137955 -216.305256 
L 393.477278 -217.043167 
L 393.805106 -217.781078 
L 394.119225 -218.518988 
L 394.417449 -219.256899 
L 394.697631 -219.99481 
L 394.957669 -220.73272 
L 395.195523 -221.470631 
L 395.409226 -222.208542 
L 395.59689 -222.946452 
L 395.756727 -223.684363 
L 395.887054 -224.422274 
L 395.986305 -225.160184 
L 396.053048 -225.898095 
L 396.08599 -226.636006 
L 396.083994 -227.373916 
L 396.046084 -228.111827 
L 395.971459 -228.849738 
L 395.859504 -229.587648 
L 395.709794 -230.325559 
L 395.522105 -231.06347 
L 395.296421 -231.80138 
L 395.032942 -232.539291 
L 394.732086 -233.277202 
L 394.394493 -234.015112 
L 394.02103 -234.753023 
L 393.612791 -235.490934 
L 393.171096 -236.228844 
L 392.69749 -236.966755 
L 392.193739 -237.704666 
L 391.661826 -238.442576 
L 391.103944 -239.180487 
L 390.522485 -239.918398 
L 389.920035 -240.656308 
L 389.299358 -241.394219 
L 388.663384 -242.13213 
L 388.015194 -242.87004 
L 387.358004 -243.607951 
L 386.695147 -244.345862 
L 386.030052 -245.083772 
L 385.366228 -245.821683 
L 384.707237 -246.559594 
L 384.056676 -247.297504 
L 383.418151 -248.035415 
L 382.795255 -248.773326 
L 382.191546 -249.511236 
L 381.610518 -250.249147 
L 381.055581 -250.987058 
L 380.530036 -251.724968 
L 380.037053 -252.462879 
L 379.579646 -253.20079 
L 379.160656 -253.9387 
L 378.782726 -254.676611 
L 378.448285 -255.414522 
L 378.159532 -256.152432 
L 377.918417 -256.890343 
L 377.72663 -257.628254 
L 377.585588 -258.366164 
L 377.496429 -259.104075 
L 377.46 -259.841986 
L 377.476856 -260.579896 
L 377.547257 -261.317807 
L 377.671167 -262.055718 
L 377.848258 -262.793628 
L 444.391742 -262.793628 
L 444.391742 -262.793628 
L 444.568833 -262.055718 
L 444.692743 -261.317807 
L 444.763144 -260.579896 
L 444.78 -259.841986 
L 444.743571 -259.104075 
L 444.654412 -258.366164 
L 444.51337 -257.628254 
L 444.321583 -256.890343 
L 444.080468 -256.152432 
L 443.791715 -255.414522 
L 443.457274 -254.676611 
L 443.079344 -253.9387 
L 442.660354 -253.20079 
L 442.202947 -252.462879 
L 441.709964 -251.724968 
L 441.184419 -250.987058 
L 440.629482 -250.249147 
L 440.048454 -249.511236 
L 439.444745 -248.773326 
L 438.821849 -248.035415 
L 438.183324 -247.297504 
L 437.532763 -246.559594 
L 436.873772 -245.821683 
L 436.209948 -245.083772 
L 435.544853 -244.345862 
L 434.881996 -243.607951 
L 434.224806 -242.87004 
L 433.576616 -242.13213 
L 432.940642 -241.394219 
L 432.319965 -240.656308 
L 431.717515 -239.918398 
L 431.136056 -239.180487 
L 430.578174 -238.442576 
L 430.046261 -237.704666 
L 429.54251 -236.966755 
L 429.068904 -236.228844 
L 428.627209 -235.490934 
L 428.21897 -234.753023 
L 427.845507 -234.015112 
L 427.507914 -233.277202 
L 427.207058 -232.539291 
L 426.943579 -231.80138 
L 426.717895 -231.06347 
L 426.530206 -230.325559 
L 426.380496 -229.587648 
L 426.268541 -228.849738 
L 426.193916 -228.111827 
L 426.156006 -227.373916 
L 426.15401 -226.636006 
L 426.186952 -225.898095 
L 426.253695 -225.160184 
L 426.352946 -224.422274 
L 426.483273 -223.684363 
L 426.64311 -222.946452 
L 426.830774 -222.208542 
L 427.044477 -221.470631 
L 427.282331 -220.73272 
L 427.542369 -219.99481 
L 427.822551 -219.256899 
L 428.120775 -218.518988 
L 428.434894 -217.781078 
L 428.762722 -217.043167 
L 429.102045 -216.305256 
L 429.450637 -215.567346 
L 429.806262 -214.829435 
L 430.166693 -214.091524 
L 430.529713 -213.353614 
L 430.893129 -212.615703 
L 431.254782 -211.877792 
L 431.61255 -211.139882 
L 431.964359 -210.401971 
L 432.308191 -209.66406 
L 432.642089 -208.92615 
L 432.964167 -208.188239 
L 433.272612 -207.450328 
L 433.565691 -206.712418 
L 433.841758 -205.974507 
L 434.099258 -205.236596 
L 434.336731 -204.498686 
L 434.552817 -203.760775 
L 434.74626 -203.022864 
L 434.91591 -202.284954 
L 435.060727 -201.547043 
L 435.179786 -200.809132 
L 435.272273 -200.071222 
L 435.337495 -199.333311 
L 435.374875 -198.5954 
L 435.383957 -197.85749 
L 435.364405 -197.119579 
L 435.316001 -196.381668 
L 435.238651 -195.643758 
L 435.132379 -194.905847 
L 434.997327 -194.167936 
L 434.833754 -193.430026 
L 434.642036 -192.692115 
L 434.422657 -191.954204 
L 434.176214 -191.216294 
L 433.903407 -190.478383 
L 433.605039 -189.740472 
z
" style="stroke: #2f6fb0; stroke-opacity: 0.28; stroke-width: 1.1"/>
    </defs>
    <g clip-path="url(#p7123ebbcfd)">
     <use xlink:href="#mcfcc691d39" x="0" y="302.4" style="fill: #2f6fb0; fill-opacity: 0.28; stroke: #2f6fb0; stroke-opacity: 0.28; stroke-width: 1.1"/>
    </g>
   </g>
   <g id="patch_3">
    <path d="M 46.8 241.92 
L 46.8 24.192 
" style="fill: none; stroke: #000000; stroke-width: 0.8; stroke-linejoin: miter; stroke-linecap: square"/>
   </g>
   <g id="patch_4">
    <path d="M 46.8 241.92 
L 458.64 241.92 
" style="fill: none; stroke: #000000; stroke-width: 0.8; stroke-linejoin: miter; stroke-linecap: square"/>
   </g>
   <g id="patch_5">
    <path d="M 89.568 142.769746 
L 99.072 142.769746 
L 99.072 48.173373 
L 89.568 48.173373 
L 89.568 142.769746 
z
" clip-path="url(#p7123ebbcfd)" style="fill: #fcfcfb; stroke: #0b0b0b; stroke-width: 0.9; stroke-linejoin: miter"/>
   </g>
   <g id="line2d_23">
    <path d="M 94.32 142.769746 
L 94.32 229.678141 
" clip-path="url(#p7123ebbcfd)" style="fill: none; stroke: #0b0b0b; stroke-width: 0.9; stroke-linecap: square"/>
   </g>
   <g id="line2d_24">
    <path d="M 94.32 48.173373 
L 94.32 39.606372 
" clip-path="url(#p7123ebbcfd)" style="fill: none; stroke: #0b0b0b; stroke-width: 0.9; stroke-linecap: square"/>
   </g>
   <g id="line2d_25">
    <path d="M 91.944 229.678141 
L 96.696 229.678141 
" clip-path="url(#p7123ebbcfd)" style="fill: none; stroke: #0b0b0b; stroke-width: 0.9; stroke-linecap: square"/>
   </g>
   <g id="line2d_26">
    <path d="M 91.944 39.606372 
L 96.696 39.606372 
" clip-path="url(#p7123ebbcfd)" style="fill: none; stroke: #0b0b0b; stroke-width: 0.9; stroke-linecap: square"/>
   </g>
   <g id="line2d_27"/>
   <g id="patch_6">
    <path d="M 168.768 109.38224 
L 178.272 109.38224 
L 178.272 45.120257 
L 168.768 45.120257 
L 168.768 109.38224 
z
" clip-path="url(#p7123ebbcfd)" style="fill: #fcfcfb; stroke: #0b0b0b; stroke-width: 0.9; stroke-linejoin: miter"/>
   </g>
   <g id="line2d_28">
    <path d="M 173.52 109.38224 
L 173.52 181.94793 
" clip-path="url(#p7123ebbcfd)" style="fill: none; stroke: #0b0b0b; stroke-width: 0.9; stroke-linecap: square"/>
   </g>
   <g id="line2d_29">
    <path d="M 173.52 45.120257 
L 173.52 39.606372 
" clip-path="url(#p7123ebbcfd)" style="fill: none; stroke: #0b0b0b; stroke-width: 0.9; stroke-linecap: square"/>
   </g>
   <g id="line2d_30">
    <path d="M 171.144 181.94793 
L 175.896 181.94793 
" clip-path="url(#p7123ebbcfd)" style="fill: none; stroke: #0b0b0b; stroke-width: 0.9; stroke-linecap: square"/>
   </g>
   <g id="line2d_31">
    <path d="M 171.144 39.606372 
L 175.896 39.606372 
" clip-path="url(#p7123ebbcfd)" style="fill: none; stroke: #0b0b0b; stroke-width: 0.9; stroke-linecap: square"/>
   </g>
   <g id="line2d_32"/>
   <g id="patch_7">
    <path d="M 247.968 97.39464 
L 257.472 97.39464 
L 257.472 45.120257 
L 247.968 45.120257 
L 247.968 97.39464 
z
" clip-path="url(#p7123ebbcfd)" style="fill: #fcfcfb; stroke: #0b0b0b; stroke-width: 0.9; stroke-linejoin: miter"/>
   </g>
   <g id="line2d_33">
    <path d="M 252.72 97.39464 
L 252.72 155.564884 
" clip-path="url(#p7123ebbcfd)" style="fill: none; stroke: #0b0b0b; stroke-width: 0.9; stroke-linecap: square"/>
   </g>
   <g id="line2d_34">
    <path d="M 252.72 45.120257 
L 252.72 39.606372 
" clip-path="url(#p7123ebbcfd)" style="fill: none; stroke: #0b0b0b; stroke-width: 0.9; stroke-linecap: square"/>
   </g>
   <g id="line2d_35">
    <path d="M 250.344 155.564884 
L 255.096 155.564884 
" clip-path="url(#p7123ebbcfd)" style="fill: none; stroke: #0b0b0b; stroke-width: 0.9; stroke-linecap: square"/>
   </g>
   <g id="line2d_36">
    <path d="M 250.344 39.606372 
L 255.096 39.606372 
" clip-path="url(#p7123ebbcfd)" style="fill: none; stroke: #0b0b0b; stroke-width: 0.9; stroke-linecap: square"/>
   </g>
   <g id="line2d_37"/>
   <g id="patch_8">
    <path d="M 327.168 158.519988 
L 336.672 158.519988 
L 336.672 67.827128 
L 327.168 67.827128 
L 327.168 158.519988 
z
" clip-path="url(#p7123ebbcfd)" style="fill: #fcfcfb; stroke: #0b0b0b; stroke-width: 0.9; stroke-linejoin: miter"/>
   </g>
   <g id="line2d_38">
    <path d="M 331.92 158.519988 
L 331.92 232.286018 
" clip-path="url(#p7123ebbcfd)" style="fill: none; stroke: #0b0b0b; stroke-width: 0.9; stroke-linecap: square"/>
   </g>
   <g id="line2d_39">
    <path d="M 331.92 67.827128 
L 331.92 39.606372 
" clip-path="url(#p7123ebbcfd)" style="fill: none; stroke: #0b0b0b; stroke-width: 0.9; stroke-linecap: square"/>
   </g>
   <g id="line2d_40">
    <path d="M 329.544 232.286018 
L 334.296 232.286018 
" clip-path="url(#p7123ebbcfd)" style="fill: none; stroke: #0b0b0b; stroke-width: 0.9; stroke-linecap: square"/>
   </g>
   <g id="line2d_41">
    <path d="M 329.544 39.606372 
L 334.296 39.606372 
" clip-path="url(#p7123ebbcfd)" style="fill: none; stroke: #0b0b0b; stroke-width: 0.9; stroke-linecap: square"/>
   </g>
   <g id="line2d_42"/>
   <g id="patch_9">
    <path d="M 406.368 98.579831 
L 415.872 98.579831 
L 415.872 39.606372 
L 406.368 39.606372 
L 406.368 98.579831 
z
" clip-path="url(#p7123ebbcfd)" style="fill: #fcfcfb; stroke: #0b0b0b; stroke-width: 0.9; stroke-linejoin: miter"/>
   </g>
   <g id="line2d_43">
    <path d="M 411.12 98.579831 
L 411.12 112.659528 
" clip-path="url(#p7123ebbcfd)" style="fill: none; stroke: #0b0b0b; stroke-width: 0.9; stroke-linecap: square"/>
   </g>
   <g id="line2d_44">
    <path d="M 411.12 39.606372 
L 411.12 39.606372 
" clip-path="url(#p7123ebbcfd)" style="fill: none; stroke: #0b0b0b; stroke-width: 0.9; stroke-linecap: square"/>
   </g>
   <g id="line2d_45">
    <path d="M 408.744 112.659528 
L 413.496 112.659528 
" clip-path="url(#p7123ebbcfd)" style="fill: none; stroke: #0b0b0b; stroke-width: 0.9; stroke-linecap: square"/>
   </g>
   <g id="line2d_46">
    <path d="M 408.744 39.606372 
L 413.496 39.606372 
" clip-path="url(#p7123ebbcfd)" style="fill: none; stroke: #0b0b0b; stroke-width: 0.9; stroke-linecap: square"/>
   </g>
   <g id="line2d_47"/>
   <g id="line2d_48">
    <path d="M 89.568 99.731144 
L 99.072 99.731144 
" clip-path="url(#p7123ebbcfd)" style="fill: none; stroke: #0b0b0b; stroke-width: 1.3"/>
   </g>
   <g id="line2d_49">
    <path d="M 168.768 84.681474 
L 178.272 84.681474 
" clip-path="url(#p7123ebbcfd)" style="fill: none; stroke: #0b0b0b; stroke-width: 1.3"/>
   </g>
   <g id="line2d_50">
    <path d="M 247.968 67.827128 
L 257.472 67.827128 
" clip-path="url(#p7123ebbcfd)" style="fill: none; stroke: #0b0b0b; stroke-width: 1.3"/>
   </g>
   <g id="line2d_51">
    <path d="M 327.168 107.088644 
L 336.672 107.088644 
" clip-path="url(#p7123ebbcfd)" style="fill: none; stroke: #0b0b0b; stroke-width: 1.3"/>
   </g>
   <g id="line2d_52">
    <path d="M 406.368 45.120257 
L 415.872 45.120257 
" clip-path="url(#p7123ebbcfd)" style="fill: none; stroke: #0b0b0b; stroke-width: 1.3"/>
   </g>
  </g>
  <g id="text_13">
   <text style="font-size: 12px; font-family: 'DejaVu Sans', 'Bitstream Vera Sans', 'Computer Modern Sans Serif', 'Lucida Grande', 'Verdana', 'Geneva', 'Lucid', 'Arial', 'Helvetica', 'Avant Garde', sans-serif; text-anchor: start; fill: #0b0b0b" x="9.36" y="15.166125" transform="rotate(-0 9.36 15.166125)">FK integrity by strategy (self-correction on) — violin + box over every run</text>
  </g>
 </g>
 <defs>
  <clipPath id="p7123ebbcfd">
   <rect x="46.8" y="24.192" width="411.84" height="217.728"/>
  </clipPath>
 </defs>
</svg>
