<?xml version="1.0" encoding="utf-8" standalone="no"?>
<!DOCTYPE svg PUBLIC "-//W3C//DTD SVG 1.1//EN"
  "http://www.w3.org/Graphics/SVG/1.1/DTD/svg11.dtd">
<svg xmlns:xlink="http://www.w3.org/1999/xlink" width="518.4pt" height="741.6pt" viewBox="0 0 518.4 741.6" xmlns="http://www.w3.org/2000/svg" version="1.1">
 <metadata>
  <rdf:RDF xmlns:dc="http://purl.org/dc/elements/1.1/" xmlns:cc="http://creativecommons.org/ns#" xmlns:rdf="http://www.w3.org/1999/02/22-rdf-syntax-ns#">
   <cc:Work>
    <dc:type rdf:resource="http://purl.org/dc/dcmitype/StillImage"/>
    <dc:format>image/svg+xml</dc:format>
    <dc:creator>
     <cc:Agent>
      <dc:title>Matplotlib v3.10.9, https://matplotlib.org/</dc:title>
     </cc:Agent>
    </dc:creator>
   </cc:Work>
  </rdf:RDF>
 </metadata>
 <defs>
  <style type="text/css">*{stroke-linejoin: round; stroke-linecap: butt}</style>
 </defs>
 <g id="figure_1">
  <g id="patch_1">
   <path d="M 0 741.6 
L 518.4 741.6 
L 518.4 0 
L 0 0 
L 0 741.6 
z
" style="fill: none"/>
  </g>
  <g id="axes_1">
   <g id="patch_2">
    <path d="M 64.8 181.878261 
L 496.8 181.878261 
L 496.8 50.4 
L 64.8 50.4 
L 64.8 181.878261 
z
" style="fill: none"/>
   </g>
   <g id="matplotlib.axis_1">
    <g id="xtick_1">
     <g id="line2d_1">
      <path d="M 153.741176 181.878261 
L 153.741176 50.4 
" clip-path="url(#pcc9664dae0)" style="fill: none; stroke: #b0b0b0; stroke-opacity: 0.3; stroke-width: 0.8; stroke-linecap: square"/>
     </g>
     <g id="line2d_2">
      <defs>
       <path id="mf56a56b80a" d="M 0 0 
L 0 3.5 
" style="stroke: #000000; stroke-width: 0.8"/>
      </defs>
      <g>
       <use xlink:href="#mf56a56b80a" x="153.741176" y="181.878261" style="stroke: #000000; stroke-width: 0.8"/>
      </g>
     </g>
    </g>
    <g id="xtick_2">
     <g id="line2d_3">
      <path d="M 407.858824 181.878261 
L 407.858824 50.4 
" clip-path="url(#pcc9664dae0)" style="fill: none; stroke: #b0b0b0; stroke-opacity: 0.3; stroke-width: 0.8; stroke-linecap: square"/>
     </g>
     <g id="line2d_4">
      <g>
       <use xlink:href="#mf56a56b80a" x="407.858824" y="181.878261" style="stroke: #000000; stroke-width: 0.8"/>
      </g>
     </g>
    </g>
   </g>
   <g id="matplotlib.axis_2">
    <g id="ytick_1">
     <g id="line2d_5">
      <path d="M 64.8 178.157178 
L 496.8 178.157178 
" clip-path="url(#pcc9664dae0)" style="fill: none; stroke: #b0b0b0; stroke-opacity: 0.3; stroke-width: 0.8; stroke-linecap: square"/>
     </g>
     <g id="line2d_6">
      <defs>
       <path id="m84a299cfe8" d="M 0 0 
L -3.5 0 
" style="stroke: #000000; stroke-width: 0.8"/>
      </defs>
      <g>
       <use xlink:href="#m84a299cfe8" x="64.8" y="178.157178" style="stroke: #000000; stroke-width: 0.8"/>
      </g>
     </g>
     <g id="text_1">
      <text style="font-size: 11px; font-family: 'DejaVu Sans', 'Bitstream Vera Sans', 'Computer Modern Sans Serif', 'Lucida Grande', 'Verdana', 'Geneva', 'Lucid', 'Arial', 'Helvetica', 'Avant Garde', sans-serif; text-anchor: end" x="57.8" y="182.336319" transform="rotate(-0 57.8 182.336319)">0.00</text>
     </g>
    </g>
    <g id="ytick_2">
     <g id="line2d_7">
      <path d="M 64.8 147.148154 
L 496.8 147.148154 
" clip-path="url(#pcc9664dae0)" style="fill: none; stroke: #b0b0b0; stroke-opacity: 0.3; stroke-width: 0.8; stroke-linecap: square"/>
     </g>
     <g id="line2d_8">
      <g>
       <use xlink:href="#m84a299cfe8" x="64.8" y="147.148154" style="stroke: #000000; stroke-width: 0.8"/>
      </g>
     </g>
     <g id="text_2">
      <text style="font-size: 11px; font-family: 'DejaVu Sans', 'Bitstream Vera Sans', 'Computer Modern Sans Serif', 'Lucida Grande', 'Verdana', 'Geneva', 'Lucid', 'Arial', 'Helvetica', 'Avant Garde', sans-serif; text-anchor: end" x="57.8" y="151.327295" transform="rotate(-0 57.8 151.327295)">0.25</text>
     </g>
    </g>
    <g id="ytick_3">
     <g id="line2d_9">
      <path d="M 64.8 116.13913 
L 496.8 116.13913 
" clip-path="url(#pcc9664dae0)" style="fill: none; stroke: #b0b0b0; stroke-opacity: 0.3; stroke-width: 0.8; stroke-linecap: square"/>
     </g>
     <g id="line2d_10">
      <g>
       <use xlink:href="#m84a299cfe8" x="64.8" y="116.13913" style="stroke: #000000; stroke-width: 0.8"/>
      </g>
     </g>
     <g id="text_3">
      <text style="font-size: 11px; font-family: 'DejaVu Sans', 'Bitstream Vera Sans', 'Computer Modern Sans Serif', 'Lucida Grande', 'Verdana', 'Geneva', 'Lucid', 'Arial', 'Helvetica', 'Avant Garde', sans-serif; text-anchor: end" x="57.8" y="120.318271" transform="rotate(-0 57.8 120.318271)">0.50</text>
     </g>
    </g>
    <g id="ytick_4">
     <g id="line2d_11">
      <path d="M 64.8 85.130107 
L 496.8 85.130107 
" clip-path="url(#pcc9664dae0)" style="fill: none; stroke: #b0b0b0; stroke-opacity: 0.3; stroke-width: 0.8; stroke-linecap: square"/>
     </g>
     <g id="line2d_12">
      <g>
       <use xlink:href="#m84a299cfe8" x="64.8" y="85.130107" style="stroke: #000000; stroke-width: 0.8"/>
      </g>
     </g>
     <g id="text_4">
      <text style="font-size: 11px; font-family: 'DejaVu Sans', 'Bitstream Vera Sans', 'Computer Modern Sans Serif', 'Lucida Grande', 'Verdana', 'Geneva', 'Lucid', 'Arial', 'Helvetica', 'Avant Garde', sans-serif; text-anchor: end" x="57.8" y="89.309247" transform="rotate(-0 57.8 89.309247)">0.75</text>
     </g>
    </g>
    <g id="ytick_5">
     <g id="line2d_13">
      <path d="M 64.8 54.121083 
L 496.8 54.121083 
" clip-path="url(#pcc9664dae0)" style="fill: none; stroke: #b0b0b0; stroke-opacity: 0.3; stroke-width: 0.8; stroke-linecap: square"/>
     </g>
     <g id="line2d_14">
      <g>
       <use xlink:href="#m84a299cfe8" x="64.8" y="54.121083" style="stroke: #000000; stroke-width: 0.8"/>
      </g>
     </g>
     <g id="text_5">
      <text style="font-size: 11px; font-family: 'DejaVu Sans', 'Bitstream Vera Sans', 'Computer Modern Sans Serif', 'Lucida Grande', 'Verdana', 'Geneva', 'Lucid', 'Arial', 'Helvetica', 'Avant Garde', sans-serif; text-anchor: end" x="57.8" y="58.300223" transform="rotate(-0 57.8 58.300223)">1.00</text>
     </g>
    </g>
    <g id="text_6">
     <text style="font-size: 11px; font-family: 'DejaVu Sans', 'Bitstream Vera Sans', 'Computer Modern Sans Serif', 'Lucida Grande', 'Verdana', 'Geneva', 'Lucid', 'Arial', 'Helvetica', 'Avant Garde', sans-serif; text-anchor: middle" x="27.020156" y="116.13913" transform="rotate(-90 27.020156 116.13913)">Recall</text>
    </g>
   </g>
   <g id="patch_3">
    <path d="M 64.8 181.878261 
L 64.8 50.4 
" style="fill: none; stroke: #000000; stroke-width: 0.8; stroke-linejoin: miter; stroke-linecap: square"/>
   </g>
   <g id="patch_4">
    <path d="M 64.8 181.878261 
L 496.8 181.878261 
" style="fill: none; stroke: #000000; stroke-width: 0.8; stroke-linejoin: miter; stroke-linecap: square"/>
   </g>
   <g id="line2d_15">
    <path d="M 153.741176 90.263602 
L 407.858824 57.719028 
" clip-path="url(#pcc9664dae0)" style="fill: none; stroke: #c40d1e; stroke-width: 2; stroke-linecap: square"/>
    <defs>
     <path id="mbc314d3eef" d="M 0 3.5 
C 0.928211 3.5 1.81853 3.131218 2.474874 2.474874 
C 3.131218 1.81853 3.5 0.928211 3.5 0 
C 3.5 -0.928211 3.131218 -1.81853 2.474874 -2.474874 
C 1.81853 -3.131218 0.928211 -3.5 0 -3.5 
C -0.928211 -3.5 -1.81853 -3.131218 -2.474874 -2.474874 
C -3.131218 -1.81853 -3.5 -0.928211 -3.5 0 
C -3.5 0.928211 -3.131218 1.81853 -2.474874 2.474874 
C -1.81853 3.131218 -0.928211 3.5 0 3.5 
z
" style="stroke: #fcfcfb"/>
    </defs>
    <g clip-path="url(#pcc9664dae0)">
     <use xlink:href="#mbc314d3eef" x="153.741176" y="90.263602" style="fill: #c40d1e; stroke: #fcfcfb"/>
     <use xlink:href="#mbc314d3eef" x="407.858824" y="57.719028" style="fill: #c40d1e; stroke: #fcfcfb"/>
    </g>
   </g>
   <g id="line2d_16">
    <path d="M 153.741176 106.584465 
L 407.858824 58.356642 
" clip-path="url(#pcc9664dae0)" style="fill: none; stroke: #ff6c00; stroke-width: 2; stroke-linecap: square"/>
    <defs>
     <path id="md618fbd0b2" d="M 0 3.5 
C 0.928211 3.5 1.81853 3.131218 2.474874 2.474874 
C 3.131218 1.81853 3.5 0.928211 3.5 0 
C 3.5 -0.928211 3.131218 -1.81853 2.474874 -2.474874 
C 1.81853 -3.131218 0.928211 -3.5 0 -3.5 
C -0.928211 -3.5 -1.81853 -3.131218 -2.474874 -2.474874 
C -3.131218 -1.81853 -3.5 -0.928211 -3.5 0 
C -3.5 0.928211 -3.131218 1.81853 -2.474874 2.474874 
C -1.81853 3.131218 -0.928211 3.5 0 3.5 
z
" style="stroke: #fcfcfb"/>
    </defs>
    <g clip-path="url(#pcc9664dae0)">
     <use xlink:href="#md618fbd0b2" x="153.741176" y="106.584465" style="fill: #ff6c00; stroke: #fcfcfb"/>
     <use xlink:href="#md618fbd0b2" x="407.858824" y="58.356642" style="fill: #ff6c00; stroke: #fcfcfb"/>
    </g>
   </g>
   <g id="line2d_17">
    <path d="M 153.741176 98.439979 
L 407.858824 67.296152 
" clip-path="url(#pcc9664dae0)" style="fill: none; stroke: #e8a800; stroke-width: 2; stroke-linecap: square"/>
    <defs>
     <path id="mbc503ea236" d="M 0 3.5 
C 0.928211 3.5 1.81853 3.131218 2.474874 2.474874 
C 3.131218 1.81853 3.5 0.928211 3.5 0 
C 3.5 -0.928211 3.131218 -1.81853 2.474874 -2.474874 
C 1.81853 -3.131218 0.928211 -3.5 0 -3.5 
C -0.928211 -3.5 -1.81853 -3.131218 -2.474874 -2.474874 
C -3.131218 -1.81853 -3.5 -0.928211 -3.5 0 
C -3.5 0.928211 -3.131218 1.81853 -2.474874 2.474874 
C -1.81853 3.131218 -0.928211 3.5 0 3.5 
z
" style="stroke: #fcfcfb"/>
    </defs>
    <g clip-path="url(#pcc9664dae0)">
     <use xlink:href="#mbc503ea236" x="153.741176" y="98.439979" style="fill: #e8a800; stroke: #fcfcfb"/>
     <use xlink:href="#mbc503ea236" x="407.858824" y="67.296152" style="fill: #e8a800; stroke: #fcfcfb"/>
    </g>
   </g>
   <g id="line2d_18">
    <path d="M 153.741176 116.426426 
L 407.858824 71.309575 
" clip-path="url(#pcc9664dae0)" style="fill: none; stroke: #b5297a; stroke-width: 2; stroke-linecap: square"/>
    <defs>
     <path id="m327f49152a" d="M 0 3.5 
C 0.928211 3.5 1.81853 3.131218 2.474874 2.474874 
C 3.131218 1.81853 3.5 0.928211 3.5 0 
C 3.5 -0.928211 3.131218 -1.81853 2.474874 -2.474874 
C 1.81853 -3.131218 0.928211 -3.5 0 -3.5 
C -0.928211 -3.5 -1.81853 -3.131218 -2.474874 -2.474874 
C -3.131218 -1.81853 -3.5 -0.928211 -3.5 0 
C -3.5 0.928211 -3.131218 1.81853 -2.474874 2.474874 
C -1.81853 3.131218 -0.928211 3.5 0 3.5 
z
" style="stroke: #fcfcfb"/>
    </defs>
    <g clip-path="url(#pcc9664dae0)">
     <use xlink:href="#m327f49152a" x="153.741176" y="116.426426" style="fill: #b5297a; stroke: #fcfcfb"/>
     <use xlink:href="#m327f49152a" x="407.858824" y="71.309575" style="fill: #b5297a; stroke: #fcfcfb"/>
    </g>
   </g>
   <g id="line2d_19">
    <path d="M 153.741176 92.433074 
L 407.858824 70.299704 
" clip-path="url(#pcc9664dae0)" style="fill: none; stroke: #2f6fb0; stroke-width: 2; stroke-linecap: square"/>
    <defs>
     <path id="m12447f533a" d="M 0 3.5 
C 0.928211 3.5 1.81853 3.131218 2.474874 2.474874 
C 3.131218 1.81853 3.5 0.928211 3.5 0 
C 3.5 -0.928211 3.131218 -1.81853 2.474874 -2.474874 
C 1.81853 -3.131218 0.928211 -3.5 0 -3.5 
C -0.928211 -3.5 -1.81853 -3.131218 -2.474874 -2.474874 
C -3.131218 -1.81853 -3.5 -0.928211 -3.5 0 
C -3.5 0.928211 -3.131218 1.81853 -2.474874 2.474874 
C -1.81853 3.131218 -0.928211 3.5 0 3.5 
z
" style="stroke: #fcfcfb"/>
    </defs>
    <g clip-path="url(#pcc9664dae0)">
     <use xlink:href="#m12447f533a" x="153.741176" y="92.433074" style="fill: #2f6fb0; stroke: #fcfcfb"/>
     <use xlink:href="#m12447f533a" x="407.858824" y="70.299704" style="fill: #2f6fb0; stroke: #fcfcfb"/>
    </g>
   </g>
   <g id="line2d_20">
    <path d="M 153.741176 100.829509 
L 407.858824 65.844522 
" clip-path="url(#pcc9664dae0)" style="fill: none; stroke-dasharray: 9.25,4; stroke-dashoffset: 0; stroke: #52514e; stroke-opacity: 0.85; stroke-width: 2.5"/>
    <defs>
     <path id="mc7e902bf51" d="M -0 4.242641 
L 4.242641 0 
L 0 -4.242641 
L -4.242641 -0 
z
" style="stroke: #52514e; stroke-opacity: 0.85; stroke-linejoin: miter"/>
    </defs>
    <g clip-path="url(#pcc9664dae0)">
     <use xlink:href="#mc7e902bf51" x="153.741176" y="100.829509" style="fill: #52514e; fill-opacity: 0.85; stroke: #52514e; stroke-opacity: 0.85; stroke-linejoin: miter"/>
     <use xlink:href="#mc7e902bf51" x="407.858824" y="65.844522" style="fill: #52514e; fill-opacity: 0.85; stroke: #52514e; stroke-opacity: 0.85; stroke-linejoin: miter"/>
    </g>
   </g>
  </g>
  <g id="axes_2">
   <g id="patch_5">
    <path d="M 64.8 339.652174 
L 496.8 339.652174 
L 496.8 208.173913 
L 64.8 208.173913 
L 64.8 339.652174 
z
" style="fill: none"/>
   </g>
   <g id="matplotlib.axis_3">
    <g id="xtick_3">
     <g id="line2d_21">
      <path d="M 153.741176 339.652174 
L 153.741176 208.173913 
" clip-path="url(#p0531eba573)" style="fill: none; stroke: #b0b0b0; stroke-opacity: 0.3; stroke-width: 0.8; stroke-linecap: square"/>
     </g>
     <g id="line2d_22">
      <g>
       <use xlink:href="#mf56a56b80a" x="153.741176" y="339.652174" style="stroke: #000000; stroke-width: 0.8"/>
      </g>
     </g>
    </g>
    <g id="xtick_4">
     <g id="line2d_23">
      <path d="M 407.858824 339.652174 
L 407.858824 208.173913 
" clip-path="url(#p0531eba573)" style="fill: none; stroke: #b0b0b0; stroke-opacity: 0.3; stroke-width: 0.8; stroke-linecap: square"/>
     </g>
     <g id="line2d_24">
      <g>
       <use xlink:href="#mf56a56b80a" x="407.858824" y="339.652174" style="stroke: #000000; stroke-width: 0.8"/>
      </g>
     </g>
    </g>
   </g>
   <g id="matplotlib.axis_4">
    <g id="ytick_6">
     <g id="line2d_25">
      <path d="M 64.8 335.931091 
L 496.8 335.931091 
" clip-path="url(#p0531eba573)" style="fill: none; stroke: #b0b0b0; stroke-opacity: 0.3; stroke-width: 0.8; stroke-linecap: square"/>
     </g>
     <g id="line2d_26">
      <g>
       <use xlink:href="#m84a299cfe8" x="64.8" y="335.931091" style="stroke: #000000; stroke-width: 0.8"/>
      </g>
     </g>
     <g id="text_7">
      <text style="font-size: 11px; font-family: 'DejaVu Sans', 'Bitstream Vera Sans', 'Computer Modern Sans Serif', 'Lucida Grande', 'Verdana', 'Geneva', 'Lucid', 'Arial', 'Helvetica', 'Avant Garde', sans-serif; text-anchor: end" x="57.8" y="340.110232" transform="rotate(-0 57.8 340.110232)">0.00</text>
     </g>
    </g>
    <g id="ytick_7">
     <g id="line2d_27">
      <path d="M 64.8 304.922067 
L 496.8 304.922067 
" clip-path="url(#p0531eba573)" style="fill: none; stroke: #b0b0b0; stroke-opacity: 0.3; stroke-width: 0.8; stroke-linecap: square"/>
     </g>
     <g id="line2d_28">
      <g>
       <use xlink:href="#m84a299cfe8" x="64.8" y="304.922067" style="stroke: #000000; stroke-width: 0.8"/>
      </g>
     </g>
     <g id="text_8">
      <text style="font-size: 11px; font-family: 'DejaVu Sans', 'Bitstream Vera Sans', 'Computer Modern Sans Serif', 'Lucida Grande', 'Verdana', 'Geneva', 'Lucid', 'Arial', 'Helvetica', 'Avant Garde', sans-serif; text-anchor: end" x="57.8" y="309.101208" transform="rotate(-0 57.8 309.101208)">0.25</text>
     </g>
    </g>
    <g id="ytick_8">
     <g id="line2d_29">
      <path d="M 64.8 273.913043 
L 496.8 273.913043 
" clip-path="url(#p0531eba573)" style="fill: none; stroke: #b0b0b0; stroke-opacity: 0.3; stroke-width: 0.8; stroke-linecap: square"/>
     </g>
     <g id="line2d_30">
      <g>
       <use xlink:href="#m84a299cfe8" x="64.8" y="273.913043" style="stroke: #000000; stroke-width: 0.8"/>
      </g>
     </g>
     <g id="text_9">
      <text style="font-size: 11px; font-family: 'DejaVu Sans', 'Bitstream Vera Sans', 'Computer Modern Sans Serif', 'Lucida Grande', 'Verdana', 'Geneva', 'Lucid', 'Arial', 'Helvetica', 'Avant Garde', sans-serif; text-anchor: end" x="57.8" y="278.092184" transform="rotate(-0 57.8 278.092184)">0.50</text>
     </g>
    </g>
    <g id="ytick_9">
     <g id="line2d_31">
      <path d="M 64.8 242.90402 
L 496.8 242.90402 
" clip-path="url(#p0531eba573)" style="fill: none; stroke: #b0b0b0; stroke-opacity: 0.3; stroke-width: 0.8; stroke-linecap: square"/>
     </g>
     <g id="line2d_32">
      <g>
       <use xlink:href="#m84a299cfe8" x="64.8" y="242.90402" style="stroke: #000000; stroke-width: 0.8"/>
      </g>
     </g>
     <g id="text_10">
      <text style="font-size: 11px; font-family: 'DejaVu Sans', 'Bitstream Vera Sans', 'Computer Modern Sans Serif', 'Lucida Grande', 'Verdana', 'Geneva', 'Lucid', 'Arial', 'Helvetica', 'Avant Garde', sans-serif; text-anchor: end" x="57.8" y="247.08316" transform="rotate(-0 57.8 247.08316)">0.75</text>
     </g>
    </g>
    <g id="ytick_10">
     <g id="line2d_33">
      <path d="M 64.8 211.894996 
L 496.8 211.894996 
" clip-path="url(#p0531eba573)" style="fill: none; stroke: #b0b0b0; stroke-opacity: 0.3; stroke-width: 0.8; stroke-linecap: square"/>
     </g>
     <g id="line2d_34">
      <g>
       <use xlink:href="#m84a299cfe8" x="64.8" y="211.894996" style="stroke: #000000; stroke-width: 0.8"/>
      </g>
     </g>
     <g id="text_11">
      <text style="font-size: 11px; font-family: 'DejaVu Sans', 'Bitstream Vera Sans', 'Computer Modern Sans Serif', 'Lucida Grande', 'Verdana', 'Geneva', 'Lucid', 'Arial', 'Helvetica', 'Avant Garde', sans-serif; text-anchor: end" x="57.8" y="216.074137" transform="rotate(-0 57.8 216.074137)">1.00</text>
     </g>
    </g>
    <g id="text_12">
     <text style="font-size: 11px; font-family: 'DejaVu Sans', 'Bitstream Vera Sans', 'Computer Modern Sans Serif', 'Lucida Grande', 'Verdana', 'Geneva', 'Lucid', 'Arial', 'Helvetica', 'Avant Garde', sans-serif; text-anchor: middle" x="27.020156" y="273.913043" transform="rotate(-90 27.020156 273.913043)">Field accuracy</text>
    </g>
   </g>
   <g id="patch_6">
    <path d="M 64.8 339.652174 
L 64.8 208.173913 
" style="fill: none; stroke: #000000; stroke-width: 0.8; stroke-linejoin: miter; stroke-linecap: square"/>
   </g>
   <g id="patch_7">
    <path d="M 64.8 339.652174 
L 496.8 339.652174 
" style="fill: none; stroke: #000000; stroke-width: 0.8; stroke-linejoin: miter; stroke-linecap: square"/>
   </g>
   <g id="line2d_35">
    <path d="M 153.741176 229.467428 
L 407.858824 229.485424 
" clip-path="url(#p0531eba573)" style="fill: none; stroke: #c40d1e; stroke-width: 2; stroke-linecap: square"/>
    <g clip-path="url(#p0531eba573)">
     <use xlink:href="#mbc314d3eef" x="153.741176" y="229.467428" style="fill: #c40d1e; stroke: #fcfcfb"/>
     <use xlink:href="#mbc314d3eef" x="407.858824" y="229.485424" style="fill: #c40d1e; stroke: #fcfcfb"/>
    </g>
   </g>
   <g id="line2d_36">
    <path d="M 153.741176 233.573634 
L 407.858824 232.98587 
" clip-path="url(#p0531eba573)" style="fill: none; stroke: #ff6c00; stroke-width: 2; stroke-linecap: square"/>
    <g clip-path="url(#p0531eba573)">
     <use xlink:href="#md618fbd0b2" x="153.741176" y="233.573634" style="fill: #ff6c00; stroke: #fcfcfb"/>
     <use xlink:href="#md618fbd0b2" x="407.858824" y="232.98587" style="fill: #ff6c00; stroke: #fcfcfb"/>
    </g>
   </g>
   <g id="line2d_37">
    <path d="M 153.741176 227.577411 
L 407.858824 230.01328 
" clip-path="url(#p0531eba573)" style="fill: none; stroke: #e8a800; stroke-width: 2; stroke-linecap: square"/>
    <g clip-path="url(#p0531eba573)">
     <use xlink:href="#mbc503ea236" x="153.741176" y="227.577411" style="fill: #e8a800; stroke: #fcfcfb"/>
     <use xlink:href="#mbc503ea236" x="407.858824" y="230.01328" style="fill: #e8a800; stroke: #fcfcfb"/>
    </g>
   </g>
   <g id="line2d_38">
    <path d="M 153.741176 226.059898 
L 407.858824 228.39424 
" clip-path="url(#p0531eba573)" style="fill: none; stroke: #b5297a; stroke-width: 2; stroke-linecap: square"/>
    <g clip-path="url(#p0531eba573)">
     <use xlink:href="#m327f49152a" x="153.741176" y="226.059898" style="fill: #b5297a; stroke: #fcfcfb"/>
     <use xlink:href="#m327f49152a" x="407.858824" y="228.39424" style="fill: #b5297a; stroke: #fcfcfb"/>
    </g>
   </g>
   <g id="line2d_39">
    <path d="M 153.741176 230.213293 
L 407.858824 229.179476 
" clip-path="url(#p0531eba573)" style="fill: none; stroke: #2f6fb0; stroke-width: 2; stroke-linecap: square"/>
    <g clip-path="url(#p0531eba573)">
     <use xlink:href="#m12447f533a" x="153.741176" y="230.213293" style="fill: #2f6fb0; stroke: #fcfcfb"/>
     <use xlink:href="#m12447f533a" x="407.858824" y="229.179476" style="fill: #2f6fb0; stroke: #fcfcfb"/>
    </g>
   </g>
   <g id="line2d_40">
    <path d="M 153.741176 229.331588 
L 407.858824 230.44866 
" clip-path="url(#p0531eba573)" style="fill: none; stroke-dasharray: 9.25,4; stroke-dashoffset: 0; stroke: #52514e; stroke-opacity: 0.85; stroke-width: 2.5"/>
    <g clip-path="url(#p0531eba573)">
     <use xlink:href="#mc7e902bf51" x="153.741176" y="229.331588" style="fill: #52514e; fill-opacity: 0.85; stroke: #52514e; stroke-opacity: 0.85; stroke-linejoin: miter"/>
     <use xlink:href="#mc7e902bf51" x="407.858824" y="230.44866" style="fill: #52514e; fill-opacity: 0.85; stroke: #52514e; stroke-opacity: 0.85; stroke-linejoin: miter"/>
    </g>
   </g>
  </g>
  <g id="axes_3">
   <g id="patch_8">
    <path d="M 64.8 497.426087 
L 496.8 497.426087 
L 496.8 365.947826 
L 64.8 365.947826 
L 64.8 497.426087 
z
" style="fill: none"/>
   </g>
   <g id="matplotlib.axis_5">
    <g id="xtick_5">
     <g id="line2d_41">
      <path d="M 153.741176 497.426087 
L 153.741176 365.947826 
" clip-path="url(#p40c6ade644)" style="fill: none; stroke: #b0b0b0; stroke-opacity: 0.3; stroke-width: 0.8; stroke-linecap: square"/>
     </g>
     <g id="line2d_42">
      <g>
       <use xlink:href="#mf56a56b80a" x="153.741176" y="497.426087" style="stroke: #000000; stroke-width: 0.8"/>
      </g>
     </g>
    </g>
    <g id="xtick_6">
     <g id="line2d_43">
      <path d="M 407.858824 497.426087 
L 407.858824 365.947826 
" clip-path="url(#p40c6ade644)" style="fill: none; stroke: #b0b0b0; stroke-opacity: 0.3; stroke-width: 0.8; stroke-linecap: square"/>
     </g>
     <g id="line2d_44">
      <g>
       <use xlink:href="#mf56a56b80a" x="407.858824" y="497.426087" style="stroke: #000000; stroke-width: 0.8"/>
      </g>
     </g>
    </g>
   </g>
   <g id="matplotlib.axis_6">
    <g id="ytick_11">
     <g id="line2d_45">
      <path d="M 64.8 493.705004 
L 496.8 493.705004 
" clip-path="url(#p40c6ade644)" style="fill: none; stroke: #b0b0b0; stroke-opacity: 0.3; stroke-width: 0.8; stroke-linecap: square"/>
     </g>
     <g id="line2d_46">
      <g>
       <use xlink:href="#m84a299cfe8" x="64.8" y="493.705004" style="stroke: #000000; stroke-width: 0.8"/>
      </g>
     </g>
     <g id="text_13">
      <text style="font-size: 11px; font-family: 'DejaVu Sans', 'Bitstream Vera Sans', 'Computer Modern Sans Serif', 'Lucida Grande', 'Verdana', 'Geneva', 'Lucid', 'Arial', 'Helvetica', 'Avant Garde', sans-serif; text-anchor: end" x="57.8" y="497.884145" transform="rotate(-0 57.8 497.884145)">0.00</text>
     </g>
    </g>
    <g id="ytick_12">
     <g id="line2d_47">
      <path d="M 64.8 462.69598 
L 496.8 462.69598 
" clip-path="url(#p40c6ade644)" style="fill: none; stroke: #b0b0b0; stroke-opacity: 0.3; stroke-width: 0.8; stroke-linecap: square"/>
     </g>
     <g id="line2d_48">
      <g>
       <use xlink:href="#m84a299cfe8" x="64.8" y="462.69598" style="stroke: #000000; stroke-width: 0.8"/>
      </g>
     </g>
     <g id="text_14">
      <text style="font-size: 11px; font-family: 'DejaVu Sans', 'Bitstream Vera Sans', 'Computer Modern Sans Serif', 'Lucida Grande', 'Verdana', 'Geneva', 'Lucid', 'Arial', 'Helvetica', 'Avant Garde', sans-serif; text-anchor: end" x="57.8" y="466.875121" transform="rotate(-0 57.8 466.875121)">0.25</text>
     </g>
    </g>
    <g id="ytick_13">
     <g id="line2d_49">
      <path d="M 64.8 431.686957 
L 496.8 431.686957 
" clip-path="url(#p40c6ade644)" style="fill: none; stroke: #b0b0b0; stroke-opacity: 0.3; stroke-width: 0.8; stroke-linecap: square"/>
     </g>
     <g id="line2d_50">
      <g>
       <use xlink:href="#m84a299cfe8" x="64.8" y="431.686957" style="stroke: #000000; stroke-width: 0.8"/>
      </g>
     </g>
     <g id="text_15">
      <text style="font-size: 11px; font-family: 'DejaVu Sans', 'Bitstream Vera Sans', 'Computer Modern Sans Serif', 'Lucida Grande', 'Verdana', 'Geneva', 'Lucid', 'Arial', 'Helvetica', 'Avant Garde', sans-serif; text-anchor: end" x="57.8" y="435.866097" transform="rotate(-0 57.8 435.866097)">0.50</text>
     </g>
    </g>
    <g id="ytick_14">
     <g id="line2d_51">
      <path d="M 64.8 400.677933 
L 496.8 400.677933 
" clip-path="url(#p40c6ade644)" style="fill: none; stroke: #b0b0b0; stroke-opacity: 0.3; stroke-width: 0.8; stroke-linecap: square"/>
     </g>
     <g id="line2d_52">
      <g>
       <use xlink:href="#m84a299cfe8" x="64.8" y="400.677933" style="stroke: #000000; stroke-width: 0.8"/>
      </g>
     </g>
     <g id="text_16">
      <text style="font-size: 11px; font-family: 'DejaVu Sans', 'Bitstream Vera Sans', 'Computer Modern Sans Serif', 'Lucida Grande', 'Verdana', 'Geneva', 'Lucid', 'Arial', 'Helvetica', 'Avant Garde', sans-serif; text-anchor: end" x="57.8" y="404.857073" transform="rotate(-0 57.8 404.857073)">0.75</text>
     </g>
    </g>
    <g id="ytick_15">
     <g id="line2d_53">
      <path d="M 64.8 369.668909 
L 496.8 369.668909 
" clip-path="url(#p40c6ade644)" style="fill: none; stroke: #b0b0b0; stroke-opacity: 0.3; stroke-width: 0.8; stroke-linecap: square"/>
     </g>
     <g id="line2d_54">
      <g>
       <use xlink:href="#m84a299cfe8" x="64.8" y="369.668909" style="stroke: #000000; stroke-width: 0.8"/>
      </g>
     </g>
     <g id="text_17">
      <text style="font-size: 11px; font-family: 'DejaVu Sans', 'Bitstream Vera Sans', 'Computer Modern Sans Serif', 'Lucida Grande', 'Verdana', 'Geneva', 'Lucid', 'Arial', 'Helvetica', 'Avant Garde', sans-serif; text-anchor: end" x="57.8" y="373.84805" transform="rotate(-0 57.8 373.84805)">1.00</text>
     </g>
    </g>
    <g id="text_18">
     <text style="font-size: 11px; font-family: 'DejaVu Sans', 'Bitstream Vera Sans', 'Computer Modern Sans Serif', 'Lucida Grande', 'Verdana', 'Geneva', 'Lucid', 'Arial', 'Helvetica', 'Avant Garde', sans-serif; text-anchor: middle" x="27.020156" y="431.686957" transform="rotate(-90 27.020156 431.686957)">Mat. rate</text>
    </g>
   </g>
   <g id="patch_9">
    <path d="M 64.8 497.426087 
L 64.8 365.947826 
" style="fill: none; stroke: #000000; stroke-width: 0.8; stroke-linejoin: miter; stroke-linecap: square"/>
   </g>
   <g id="patch_10">
    <path d="M 64.8 497.426087 
L 496.8 497.426087 
" style="fill: none; stroke: #000000; stroke-width: 0.8; stroke-linejoin: miter; stroke-linecap: square"/>
   </g>
   <g id="line2d_55">
    <path d="M 153.741176 402.745201 
L 407.858824 372.769811 
" clip-path="url(#p40c6ade644)" style="fill: none; stroke: #c40d1e; stroke-width: 2; stroke-linecap: square"/>
    <g clip-path="url(#p40c6ade644)">
     <use xlink:href="#mbc314d3eef" x="153.741176" y="402.745201" style="fill: #c40d1e; stroke: #fcfcfb"/>
     <use xlink:href="#mbc314d3eef" x="407.858824" y="372.769811" style="fill: #c40d1e; stroke: #fcfcfb"/>
    </g>
   </g>
   <g id="line2d_56">
    <path d="M 153.741176 421.350615 
L 407.858824 372.769811 
" clip-path="url(#p40c6ade644)" style="fill: none; stroke: #ff6c00; stroke-width: 2; stroke-linecap: square"/>
    <g clip-path="url(#p40c6ade644)">
     <use xlink:href="#md618fbd0b2" x="153.741176" y="421.350615" style="fill: #ff6c00; stroke: #fcfcfb"/>
     <use xlink:href="#md618fbd0b2" x="407.858824" y="372.769811" style="fill: #ff6c00; stroke: #fcfcfb"/>
    </g>
   </g>
   <g id="line2d_57">
    <path d="M 153.741176 412.047908 
L 407.858824 381.038884 
" clip-path="url(#p40c6ade644)" style="fill: none; stroke: #e8a800; stroke-width: 2; stroke-linecap: square"/>
    <g clip-path="url(#p40c6ade644)">
     <use xlink:href="#mbc503ea236" x="153.741176" y="412.047908" style="fill: #e8a800; stroke: #fcfcfb"/>
     <use xlink:href="#mbc503ea236" x="407.858824" y="381.038884" style="fill: #e8a800; stroke: #fcfcfb"/>
    </g>
   </g>
   <g id="line2d_58">
    <path d="M 153.741176 428.586054 
L 407.858824 385.173421 
" clip-path="url(#p40c6ade644)" style="fill: none; stroke: #b5297a; stroke-width: 2; stroke-linecap: square"/>
    <g clip-path="url(#p40c6ade644)">
     <use xlink:href="#m327f49152a" x="153.741176" y="428.586054" style="fill: #b5297a; stroke: #fcfcfb"/>
     <use xlink:href="#m327f49152a" x="407.858824" y="385.173421" style="fill: #b5297a; stroke: #fcfcfb"/>
    </g>
   </g>
   <g id="line2d_59">
    <path d="M 153.741176 406.879737 
L 407.858824 390.341591 
" clip-path="url(#p40c6ade644)" style="fill: none; stroke: #2f6fb0; stroke-width: 2; stroke-linecap: square"/>
    <g clip-path="url(#p40c6ade644)">
     <use xlink:href="#m12447f533a" x="153.741176" y="406.879737" style="fill: #2f6fb0; stroke: #fcfcfb"/>
     <use xlink:href="#m12447f533a" x="407.858824" y="390.341591" style="fill: #2f6fb0; stroke: #fcfcfb"/>
    </g>
   </g>
   <g id="line2d_60">
    <path d="M 153.741176 414.321903 
L 407.858824 381.038884 
" clip-path="url(#p40c6ade644)" style="fill: none; stroke-dasharray: 9.25,4; stroke-dashoffset: 0; stroke: #52514e; stroke-opacity: 0.85; stroke-width: 2.5"/>
    <g clip-path="url(#p40c6ade644)">
     <use xlink:href="#mc7e902bf51" x="153.741176" y="414.321903" style="fill: #52514e; fill-opacity: 0.85; stroke: #52514e; stroke-opacity: 0.85; stroke-linejoin: miter"/>
     <use xlink:href="#mc7e902bf51" x="407.858824" y="381.038884" style="fill: #52514e; fill-opacity: 0.85; stroke: #52514e; stroke-opacity: 0.85; stroke-linejoin: miter"/>
    </g>
   </g>
  </g>
  <g id="axes_4">
   <g id="patch_11">
    <path d="M 64.8 655.2 
L 496.8 655.2 
L 496.8 523.721739 
L 64.8 523.721739 
L 64.8 655.2 
z
" style="fill: none"/>
   </g>
   <g id="matplotlib.axis_7">
    <g id="xtick_7">
     <g id="line2d_61">
      <path d="M 153.741176 655.2 
L 153.741176 523.721739 
" clip-path="url(#p9c1a95b756)" style="fill: none; stroke: #b0b0b0; stroke-opacity: 0.3; stroke-width: 0.8; stroke-linecap: square"/>
     </g>
     <g id="line2d_62">
      <g>
       <use xlink:href="#mf56a56b80a" x="153.741176" y="655.2" style="stroke: #000000; stroke-width: 0.8"/>
      </g>
     </g>
     <g id="text_19">
      <text style="font-size: 11px; font-family: 'DejaVu Sans', 'Bitstream Vera Sans', 'Computer Modern Sans Serif', 'Lucida Grande', 'Verdana', 'Geneva', 'Lucid', 'Arial', 'Helvetica', 'Avant Garde', sans-serif; text-anchor: middle" x="153.741176" y="670.558281" transform="rotate(-0 153.741176 670.558281)">off</text>
     </g>
    </g>
    <g id="xtick_8">
     <g id="line2d_63">
      <path d="M 407.858824 655.2 
L 407.858824 523.721739 
" clip-path="url(#p9c1a95b756)" style="fill: none; stroke: #b0b0b0; stroke-opacity: 0.3; stroke-width: 0.8; stroke-linecap: square"/>
     </g>
     <g id="line2d_64">
      <g>
       <use xlink:href="#mf56a56b80a" x="407.858824" y="655.2" style="stroke: #000000; stroke-width: 0.8"/>
      </g>
     </g>
     <g id="text_20">
      <text style="font-size: 11px; font-family: 'DejaVu Sans', 'Bitstream Vera Sans', 'Computer Modern Sans Serif', 'Lucida Grande', 'Verdana', 'Geneva', 'Lucid', 'Arial', 'Helvetica', 'Avant Garde', sans-serif; text-anchor: middle" x="407.858824" y="670.558281" transform="rotate(-0 407.858824 670.558281)">on</text>
     </g>
    </g>
   </g>
   <g id="matplotlib.axis_8">
    <g id="ytick_16">
     <g id="line2d_65">
      <path d="M 64.8 655.2 
L 496.8 655.2 
" clip-path="url(#p9c1a95b756)" style="fill: none; stroke: #b0b0b0; stroke-opacity: 0.3; stroke-width: 0.8; stroke-linecap: square"/>
     </g>
     <g id="line2d_66">
      <g>
       <use xlink:href="#m84a299cfe8" x="64.8" y="655.2" style="stroke: #000000; stroke-width: 0.8"/>
      </g>
     </g>
     <g id="text_21">
      <text style="font-size: 11px; font-family: 'DejaVu Sans', 'Bitstream Vera Sans', 'Computer Modern Sans Serif', 'Lucida Grande', 'Verdana', 'Geneva', 'Lucid', 'Arial', 'Helvetica', 'Avant Garde', sans-serif; text-anchor: end" x="57.8" y="659.379141" transform="rotate(-0 57.8 659.379141)">0</text>
     </g>
    </g>
    <g id="ytick_17">
     <g id="line2d_67">
      <path d="M 64.8 622.919519 
L 496.8 622.919519 
" clip-path="url(#p9c1a95b756)" style="fill: none; stroke: #b0b0b0; stroke-opacity: 0.3; stroke-width: 0.8; stroke-linecap: square"/>
     </g>
     <g id="line2d_68">
      <g>
       <use xlink:href="#m84a299cfe8" x="64.8" y="622.919519" style="stroke: #000000; stroke-width: 0.8"/>
      </g>
     </g>
     <g id="text_22">
      <text style="font-size: 11px; font-family: 'DejaVu Sans', 'Bitstream Vera Sans', 'Computer Modern Sans Serif', 'Lucida Grande', 'Verdana', 'Geneva', 'Lucid', 'Arial', 'Helvetica', 'Avant Garde', sans-serif; text-anchor: end" x="57.8" y="627.098659" transform="rotate(-0 57.8 627.098659)">50000</text>
     </g>
    </g>
    <g id="ytick_18">
     <g id="line2d_69">
      <path d="M 64.8 590.639037 
L 496.8 590.639037 
" clip-path="url(#p9c1a95b756)" style="fill: none; stroke: #b0b0b0; stroke-opacity: 0.3; stroke-width: 0.8; stroke-linecap: square"/>
     </g>
     <g id="line2d_70">
      <g>
       <use xlink:href="#m84a299cfe8" x="64.8" y="590.639037" style="stroke: #000000; stroke-width: 0.8"/>
      </g>
     </g>
     <g id="text_23">
      <text style="font-size: 11px; font-family: 'DejaVu Sans', 'Bitstream Vera Sans', 'Computer Modern Sans Serif', 'Lucida Grande', 'Verdana', 'Geneva', 'Lucid', 'Arial', 'Helvetica', 'Avant Garde', sans-serif; text-anchor: end" x="57.8" y="594.818178" transform="rotate(-0 57.8 594.818178)">100000</text>
     </g>
    </g>
    <g id="ytick_19">
     <g id="line2d_71">
      <path d="M 64.8 558.358556 
L 496.8 558.358556 
" clip-path="url(#p9c1a95b756)" style="fill: none; stroke: #b0b0b0; stroke-opacity: 0.3; stroke-width: 0.8; stroke-linecap: square"/>
     </g>
     <g id="line2d_72">
      <g>
       <use xlink:href="#m84a299cfe8" x="64.8" y="558.358556" style="stroke: #000000; stroke-width: 0.8"/>
      </g>
     </g>
     <g id="text_24">
      <text style="font-size: 11px; font-family: 'DejaVu Sans', 'Bitstream Vera Sans', 'Computer Modern Sans Serif', 'Lucida Grande', 'Verdana', 'Geneva', 'Lucid', 'Arial', 'Helvetica', 'Avant Garde', sans-serif; text-anchor: end" x="57.8" y="562.537696" transform="rotate(-0 57.8 562.537696)">150000</text>
     </g>
    </g>
    <g id="ytick_20">
     <g id="line2d_73">
      <path d="M 64.8 526.078074 
L 496.8 526.078074 
" clip-path="url(#p9c1a95b756)" style="fill: none; stroke: #b0b0b0; stroke-opacity: 0.3; stroke-width: 0.8; stroke-linecap: square"/>
     </g>
     <g id="line2d_74">
      <g>
       <use xlink:href="#m84a299cfe8" x="64.8" y="526.078074" style="stroke: #000000; stroke-width: 0.8"/>
      </g>
     </g>
     <g id="text_25">
      <text style="font-size: 11px; font-family: 'DejaVu Sans', 'Bitstream Vera Sans', 'Computer Modern Sans Serif', 'Lucida Grande', 'Verdana', 'Geneva', 'Lucid', 'Arial', 'Helvetica', 'Avant Garde', sans-serif; text-anchor: end" x="57.8" y="530.257215" transform="rotate(-0 57.8 530.257215)">200000</text>
     </g>
    </g>
    <g id="text_26">
     <text style="font-size: 11px; font-family: 'DejaVu Sans', 'Bitstream Vera Sans', 'Computer Modern Sans Serif', 'Lucida Grande', 'Verdana', 'Geneva', 'Lucid', 'Arial', 'Helvetica', 'Avant Garde', sans-serif; text-anchor: middle" x="9.519844" y="589.46087" transform="rotate(-90 9.519844 589.46087)">Mean tokens/run (in+out)</text>
    </g>
   </g>
   <g id="patch_12">
    <path d="M 64.8 655.2 
L 64.8 523.721739 
" style="fill: none; stroke: #000000; stroke-width: 0.8; stroke-linejoin: miter; stroke-linecap: square"/>
   </g>
   <g id="patch_13">
    <path d="M 64.8 655.2 
L 496.8 655.2 
" style="fill: none; stroke: #000000; stroke-width: 0.8; stroke-linejoin: miter; stroke-linecap: square"/>
   </g>
   <g id="line2d_75">
    <path d="M 153.741176 544.629425 
L 407.858824 528.745007 
" clip-path="url(#p9c1a95b756)" style="fill: none; stroke: #c40d1e; stroke-width: 2; stroke-linecap: square"/>
    <g clip-path="url(#p9c1a95b756)">
     <use xlink:href="#mbc314d3eef" x="153.741176" y="544.629425" style="fill: #c40d1e; stroke: #fcfcfb"/>
     <use xlink:href="#mbc314d3eef" x="407.858824" y="528.745007" style="fill: #c40d1e; stroke: #fcfcfb"/>
    </g>
   </g>
   <g id="line2d_76">
    <path d="M 153.741176 629.210366 
L 407.858824 609.07789 
" clip-path="url(#p9c1a95b756)" style="fill: none; stroke: #ff6c00; stroke-width: 2; stroke-linecap: square"/>
    <g clip-path="url(#p9c1a95b756)">
     <use xlink:href="#md618fbd0b2" x="153.741176" y="629.210366" style="fill: #ff6c00; stroke: #fcfcfb"/>
     <use xlink:href="#md618fbd0b2" x="407.858824" y="609.07789" style="fill: #ff6c00; stroke: #fcfcfb"/>
    </g>
   </g>
   <g id="line2d_77">
    <path d="M 153.741176 567.709781 
L 407.858824 548.06501 
" clip-path="url(#p9c1a95b756)" style="fill: none; stroke: #e8a800; stroke-width: 2; stroke-linecap: square"/>
    <g clip-path="url(#p9c1a95b756)">
     <use xlink:href="#mbc503ea236" x="153.741176" y="567.709781" style="fill: #e8a800; stroke: #fcfcfb"/>
     <use xlink:href="#mbc503ea236" x="407.858824" y="548.06501" style="fill: #e8a800; stroke: #fcfcfb"/>
    </g>
   </g>
   <g id="line2d_78">
    <path d="M 153.741176 625.737336 
L 407.858824 594.276886 
" clip-path="url(#p9c1a95b756)" style="fill: none; stroke: #b5297a; stroke-width: 2; stroke-linecap: square"/>
    <g clip-path="url(#p9c1a95b756)">
     <use xlink:href="#m327f49152a" x="153.741176" y="625.737336" style="fill: #b5297a; stroke: #fcfcfb"/>
     <use xlink:href="#m327f49152a" x="407.858824" y="594.276886" style="fill: #b5297a; stroke: #fcfcfb"/>
    </g>
   </g>
   <g id="line2d_79">
    <path d="M 153.741176 610.243996 
L 407.858824 595.108835 
" clip-path="url(#p9c1a95b756)" style="fill: none; stroke: #2f6fb0; stroke-width: 2; stroke-linecap: square"/>
    <g clip-path="url(#p9c1a95b756)">
     <use xlink:href="#m12447f533a" x="153.741176" y="610.243996" style="fill: #2f6fb0; stroke: #fcfcfb"/>
     <use xlink:href="#m12447f533a" x="407.858824" y="595.108835" style="fill: #2f6fb0; stroke: #fcfcfb"/>
    </g>
   </g>
   <g id="line2d_80">
    <path d="M 153.741176 595.506181 
L 407.858824 558.511812 
" clip-path="url(#p9c1a95b756)" style="fill: none; stroke-dasharray: 9.25,4; stroke-dashoffset: 0; stroke: #52514e; stroke-opacity: 0.85; stroke-width: 2.5"/>
    <g clip-path="url(#p9c1a95b756)">
     <use xlink:href="#mc7e902bf51" x="153.741176" y="595.506181" style="fill: #52514e; fill-opacity: 0.85; stroke: #52514e; stroke-opacity: 0.85; stroke-linejoin: miter"/>
     <use xlink:href="#mc7e902bf51" x="407.858824" y="558.511812" style="fill: #52514e; fill-opacity: 0.85; stroke: #52514e; stroke-opacity: 0.85; stroke-linejoin: miter"/>
    </g>
   </g>
  </g>
  <g id="text_27">
   <text style="font-size: 13px; font-family: 'DejaVu Sans', 'Bitstream Vera Sans', 'Computer Modern Sans Serif', 'Lucida Grande', 'Verdana', 'Geneva', 'Lucid', 'Arial', 'Helvetica', 'Avant Garde', sans-serif; text-anchor: start; fill: #0b0b0b" x="25.92" y="17.293969" transform="rotate(-0 25.92 17.293969)">Lever: self-correction (off -&gt; on)</text>
  </g>
  <g id="legend_1">
   <g id="text_28">
    <text style="font-size: 11px; font-family: 'DejaVu Sans', 'Bitstream Vera Sans', 'Computer Modern Sans Serif', 'Lucida Grande', 'Verdana', 'Geneva', 'Lucid', 'Arial', 'Helvetica', 'Avant Garde', sans-serif; text-anchor: start; fill: #0b0b0b" x="220.129375" y="689.815906" transform="rotate(-0 220.129375 689.815906)">Strategy (cell)</text>
   </g>
   <g id="line2d_81">
    <defs>
     <path id="mfa5043466f" d="M 0 4 
C 1.060812 4 2.078319 3.578535 2.828427 2.828427 
C 3.578535 2.078319 4 1.060812 4 0 
C 4 -1.060812 3.578535 -2.078319 2.828427 -2.828427 
C 2.078319 -3.578535 1.060812 -4 0 -4 
C -1.060812 -4 -2.078319 -3.578535 -2.828427 -2.828427 
C -3.578535 -2.078319 -4 -1.060812 -4 0 
C -4 1.060812 -3.578535 2.078319 -2.828427 2.828427 
C -2.078319 3.578535 -1.060812 4 0 4 
z
" style="stroke: #fcfcfb"/>
    </defs>
    <g>
     <use xlink:href="#mfa5043466f" x="154.872461" y="699.837234" style="fill: #c40d1e; stroke: #fcfcfb"/>
    </g>
   </g>
   <g id="text_29">
    <text style="font-size: 8.5px; font-family: 'DejaVu Sans', 'Bitstream Vera Sans', 'Computer Modern Sans Serif', 'Lucida Grande', 'Verdana', 'Geneva', 'Lucid', 'Arial', 'Helvetica', 'Avant Garde', sans-serif; text-anchor: start; fill: #0b0b0b" x="167.622461" y="702.812234" transform="rotate(-0 167.622461 702.812234)">ensemble_vote</text>
   </g>
   <g id="line2d_82">
    <defs>
     <path id="m39a702f022" d="M 0 4 
C 1.060812 4 2.078319 3.578535 2.828427 2.828427 
C 3.578535 2.078319 4 1.060812 4 0 
C 4 -1.060812 3.578535 -2.078319 2.828427 -2.828427 
C 2.078319 -3.578535 1.060812 -4 0 -4 
C -1.060812 -4 -2.078319 -3.578535 -2.828427 -2.828427 
C -3.578535 -2.078319 -4 -1.060812 -4 0 
C -4 1.060812 -3.578535 2.078319 -2.828427 2.828427 
C -2.078319 3.578535 -1.060812 4 0 4 
z
" style="stroke: #fcfcfb"/>
    </defs>
    <g>
     <use xlink:href="#m39a702f022" x="154.872461" y="712.550047" style="fill: #ff6c00; stroke: #fcfcfb"/>
    </g>
   </g>
   <g id="text_30">
    <text style="font-size: 8.5px; font-family: 'DejaVu Sans', 'Bitstream Vera Sans', 'Computer Modern Sans Serif', 'Lucida Grande', 'Verdana', 'Geneva', 'Lucid', 'Arial', 'Helvetica', 'Avant Garde', sans-serif; text-anchor: start; fill: #0b0b0b" x="167.622461" y="715.525047" transform="rotate(-0 167.622461 715.525047)">plan_then_execute</text>
   </g>
   <g id="line2d_83">
    <defs>
     <path id="m30dbc8b435" d="M 0 4 
C 1.060812 4 2.078319 3.578535 2.828427 2.828427 
C 3.578535 2.078319 4 1.060812 4 0 
C 4 -1.060812 3.578535 -2.078319 2.828427 -2.828427 
C 2.078319 -3.578535 1.060812 -4 0 -4 
C -1.060812 -4 -2.078319 -3.578535 -2.828427 -2.828427 
C -3.578535 -2.078319 -4 -1.060812 -4 0 
C -4 1.060812 -3.578535 2.078319 -2.828427 2.828427 
C -2.078319 3.578535 -1.060812 4 0 4 
z
" style="stroke: #fcfcfb"/>
    </defs>
    <g>
     <use xlink:href="#m30dbc8b435" x="154.872461" y="725.262859" style="fill: #e8a800; stroke: #fcfcfb"/>
    </g>
   </g>
   <g id="text_31">
    <text style="font-size: 8.5px; font-family: 'DejaVu Sans', 'Bitstream Vera Sans', 'Computer Modern Sans Serif', 'Lucida Grande', 'Verdana', 'Geneva', 'Lucid', 'Arial', 'Helvetica', 'Avant Garde', sans-serif; text-anchor: start; fill: #0b0b0b" x="167.622461" y="728.237859" transform="rotate(-0 167.622461 728.237859)">write_then_critique</text>
   </g>
   <g id="line2d_84">
    <defs>
     <path id="m33f1dc7afb" d="M 0 4 
C 1.060812 4 2.078319 3.578535 2.828427 2.828427 
C 3.578535 2.078319 4 1.060812 4 0 
C 4 -1.060812 3.578535 -2.078319 2.828427 -2.828427 
C 2.078319 -3.578535 1.060812 -4 0 -4 
C -1.060812 -4 -2.078319 -3.578535 -2.828427 -2.828427 
C -3.578535 -2.078319 -4 -1.060812 -4 0 
C -4 1.060812 -3.578535 2.078319 -2.828427 2.828427 
C -2.078319 3.578535 -1.060812 4 0 4 
z
" style="stroke: #fcfcfb"/>
    </defs>
    <g>
     <use xlink:href="#m33f1dc7afb" x="271.164414" y="699.837234" style="fill: #b5297a; stroke: #fcfcfb"/>
    </g>
   </g>
   <g id="text_32">
    <text style="font-size: 8.5px; font-family: 'DejaVu Sans', 'Bitstream Vera Sans', 'Computer Modern Sans Serif', 'Lucida Grande', 'Verdana', 'Geneva', 'Lucid', 'Arial', 'Helvetica', 'Avant Garde', sans-serif; text-anchor: start; fill: #0b0b0b" x="283.914414" y="702.812234" transform="rotate(-0 283.914414 702.812234)">structured_per_table</text>
   </g>
   <g id="line2d_85">
    <defs>
     <path id="m4bd01b8c69" d="M 0 4 
C 1.060812 4 2.078319 3.578535 2.828427 2.828427 
C 3.578535 2.078319 4 1.060812 4 0 
C 4 -1.060812 3.578535 -2.078319 2.828427 -2.828427 
C 2.078319 -3.578535 1.060812 -4 0 -4 
C -1.060812 -4 -2.078319 -3.578535 -2.828427 -2.828427 
C -3.578535 -2.078319 -4 -1.060812 -4 0 
C -4 1.060812 -3.578535 2.078319 -2.828427 2.828427 
C -2.078319 3.578535 -1.060812 4 0 4 
z
" style="stroke: #fcfcfb"/>
    </defs>
    <g>
     <use xlink:href="#m4bd01b8c69" x="271.164414" y="712.550047" style="fill: #2f6fb0; stroke: #fcfcfb"/>
    </g>
   </g>
   <g id="text_33">
    <text style="font-size: 8.5px; font-family: 'DejaVu Sans', 'Bitstream Vera Sans', 'Computer Modern Sans Serif', 'Lucida Grande', 'Verdana', 'Geneva', 'Lucid', 'Arial', 'Helvetica', 'Avant Garde', sans-serif; text-anchor: start; fill: #0b0b0b" x="283.914414" y="715.525047" transform="rotate(-0 283.914414 715.525047)">write_tools_freeform</text>
   </g>
   <g id="line2d_86">
    <path d="M 262.664414 725.262859 
L 271.164414 725.262859 
L 279.664414 725.262859 
" style="fill: none; stroke-dasharray: 9.25,4; stroke-dashoffset: 0; stroke: #52514e; stroke-opacity: 0.85; stroke-width: 2.5"/>
    <g>
     <use xlink:href="#mc7e902bf51" x="271.164414" y="725.262859" style="fill: #52514e; fill-opacity: 0.85; stroke: #52514e; stroke-opacity: 0.85; stroke-linejoin: miter"/>
    </g>
   </g>
   <g id="text_34">
    <text style="font-size: 8.5px; font-family: 'DejaVu Sans', 'Bitstream Vera Sans', 'Computer Modern Sans Serif', 'Lucida Grande', 'Verdana', 'Geneva', 'Lucid', 'Arial', 'Helvetica', 'Avant Garde', sans-serif; text-anchor: start; fill: #0b0b0b" x="283.914414" y="728.237859" transform="rotate(-0 283.914414 728.237859)">overall mean</text>
   </g>
  </g>
 </g>
 <defs>
  <clipPath id="pcc9664dae0">
   <rect x="64.8" y="50.4" width="432" height="131.478261"/>
  </clipPath>
  <clipPath id="p0531eba573">
   <rect x="64.8" y="208.173913" width="432" height="131.478261"/>
  </clipPath>
  <clipPath id="p40c6ade644">
   <rect x="64.8" y="365.947826" width="432" height="131.478261"/>
  </clipPath>
  <clipPath id="p9c1a95b756">
   <rect x="64.8" y="523.721739" width="432" height="131.478261"/>
  </clipPath>
 </defs>
</svg>
