<?xml version="1.0" encoding="utf-8" standalone="no"?>
<!DOCTYPE svg PUBLIC "-//W3C//DTD SVG 1.1//EN"
  "http://www.w3.org/Graphics/SVG/1.1/DTD/svg11.dtd">
<svg xmlns:xlink="http://www.w3.org/1999/xlink" width="518.4pt" height="756pt" viewBox="0 0 518.4 756" xmlns="http://www.w3.org/2000/svg" version="1.1">
 <metadata>
  <rdf:RDF xmlns:dc="http://purl.org/dc/elements/1.1/" xmlns:cc="http://creativecommons.org/ns#" xmlns:rdf="http://www.w3.org/1999/02/22-rdf-syntax-ns#">
   <cc:Work>
    <dc:type rdf:resource="http://purl.org/dc/dcmitype/StillImage"/>
    <dc:format>image/svg+xml</dc:format>
    <dc:creator>
     <cc:Agent>
      <dc:title>Matplotlib v3.10.9, https://matplotlib.org/</dc:title>
     </cc:Agent>
    </dc:creator>
   </cc:Work>
  </rdf:RDF>
 </metadata>
 <defs>
  <style type="text/css">*{stroke-linejoin: round; stroke-linecap: butt}</style>
 </defs>
 <g id="figure_1">
  <g id="patch_1">
   <path d="M 0 756 
L 518.4 756 
L 518.4 0 
L 0 0 
L 0 756 
z
" style="fill: none"/>
  </g>
  <g id="axes_1">
   <g id="patch_2">
    <path d="M 64.8 181.878261 
L 496.8 181.878261 
L 496.8 50.4 
L 64.8 50.4 
L 64.8 181.878261 
z
" style="fill: none"/>
   </g>
   <g id="matplotlib.axis_1">
    <g id="xtick_1">
     <g id="line2d_1">
      <path d="M 153.741176 181.878261 
L 153.741176 50.4 
" clip-path="url(#pfc80f25740)" style="fill: none; stroke: #b0b0b0; stroke-opacity: 0.3; stroke-width: 0.8; stroke-linecap: square"/>
     </g>
     <g id="line2d_2">
      <defs>
       <path id="mab7c8b2458" d="M 0 0 
L 0 3.5 
" style="stroke: #000000; stroke-width: 0.8"/>
      </defs>
      <g>
       <use xlink:href="#mab7c8b2458" x="153.741176" y="181.878261" style="stroke: #000000; stroke-width: 0.8"/>
      </g>
     </g>
    </g>
    <g id="xtick_2">
     <g id="line2d_3">
      <path d="M 407.858824 181.878261 
L 407.858824 50.4 
" clip-path="url(#pfc80f25740)" style="fill: none; stroke: #b0b0b0; stroke-opacity: 0.3; stroke-width: 0.8; stroke-linecap: square"/>
     </g>
     <g id="line2d_4">
      <g>
       <use xlink:href="#mab7c8b2458" x="407.858824" y="181.878261" style="stroke: #000000; stroke-width: 0.8"/>
      </g>
     </g>
    </g>
   </g>
   <g id="matplotlib.axis_2">
    <g id="ytick_1">
     <g id="line2d_5">
      <path d="M 64.8 178.157178 
L 496.8 178.157178 
" clip-path="url(#pfc80f25740)" style="fill: none; stroke: #b0b0b0; stroke-opacity: 0.3; stroke-width: 0.8; stroke-linecap: square"/>
     </g>
     <g id="line2d_6">
      <defs>
       <path id="me994716147" d="M 0 0 
L -3.5 0 
" style="stroke: #000000; stroke-width: 0.8"/>
      </defs>
      <g>
       <use xlink:href="#me994716147" x="64.8" y="178.157178" style="stroke: #000000; stroke-width: 0.8"/>
      </g>
     </g>
     <g id="text_1">
      <text style="font-size: 11px; font-family: 'DejaVu Sans', 'Bitstream Vera Sans', 'Computer Modern Sans Serif', 'Lucida Grande', 'Verdana', 'Geneva', 'Lucid', 'Arial', 'Helvetica', 'Avant Garde', sans-serif; text-anchor: end" x="57.8" y="182.336319" transform="rotate(-0 57.8 182.336319)">0.00</text>
     </g>
    </g>
    <g id="ytick_2">
     <g id="line2d_7">
      <path d="M 64.8 147.148154 
L 496.8 147.148154 
" clip-path="url(#pfc80f25740)" style="fill: none; stroke: #b0b0b0; stroke-opacity: 0.3; stroke-width: 0.8; stroke-linecap: square"/>
     </g>
     <g id="line2d_8">
      <g>
       <use xlink:href="#me994716147" x="64.8" y="147.148154" style="stroke: #000000; stroke-width: 0.8"/>
      </g>
     </g>
     <g id="text_2">
      <text style="font-size: 11px; font-family: 'DejaVu Sans', 'Bitstream Vera Sans', 'Computer Modern Sans Serif', 'Lucida Grande', 'Verdana', 'Geneva', 'Lucid', 'Arial', 'Helvetica', 'Avant Garde', sans-serif; text-anchor: end" x="57.8" y="151.327295" transform="rotate(-0 57.8 151.327295)">0.25</text>
     </g>
    </g>
    <g id="ytick_3">
     <g id="line2d_9">
      <path d="M 64.8 116.13913 
L 496.8 116.13913 
" clip-path="url(#pfc80f25740)" style="fill: none; stroke: #b0b0b0; stroke-opacity: 0.3; stroke-width: 0.8; stroke-linecap: square"/>
     </g>
     <g id="line2d_10">
      <g>
       <use xlink:href="#me994716147" x="64.8" y="116.13913" style="stroke: #000000; stroke-width: 0.8"/>
      </g>
     </g>
     <g id="text_3">
      <text style="font-size: 11px; font-family: 'DejaVu Sans', 'Bitstream Vera Sans', 'Computer Modern Sans Serif', 'Lucida Grande', 'Verdana', 'Geneva', 'Lucid', 'Arial', 'Helvetica', 'Avant Garde', sans-serif; text-anchor: end" x="57.8" y="120.318271" transform="rotate(-0 57.8 120.318271)">0.50</text>
     </g>
    </g>
    <g id="ytick_4">
     <g id="line2d_11">
      <path d="M 64.8 85.130107 
L 496.8 85.130107 
" clip-path="url(#pfc80f25740)" style="fill: none; stroke: #b0b0b0; stroke-opacity: 0.3; stroke-width: 0.8; stroke-linecap: square"/>
     </g>
     <g id="line2d_12">
      <g>
       <use xlink:href="#me994716147" x="64.8" y="85.130107" style="stroke: #000000; stroke-width: 0.8"/>
      </g>
     </g>
     <g id="text_4">
      <text style="font-size: 11px; font-family: 'DejaVu Sans', 'Bitstream Vera Sans', 'Computer Modern Sans Serif', 'Lucida Grande', 'Verdana', 'Geneva', 'Lucid', 'Arial', 'Helvetica', 'Avant Garde', sans-serif; text-anchor: end" x="57.8" y="89.309247" transform="rotate(-0 57.8 89.309247)">0.75</text>
     </g>
    </g>
    <g id="ytick_5">
     <g id="line2d_13">
      <path d="M 64.8 54.121083 
L 496.8 54.121083 
" clip-path="url(#pfc80f25740)" style="fill: none; stroke: #b0b0b0; stroke-opacity: 0.3; stroke-width: 0.8; stroke-linecap: square"/>
     </g>
     <g id="line2d_14">
      <g>
       <use xlink:href="#me994716147" x="64.8" y="54.121083" style="stroke: #000000; stroke-width: 0.8"/>
      </g>
     </g>
     <g id="text_5">
      <text style="font-size: 11px; font-family: 'DejaVu Sans', 'Bitstream Vera Sans', 'Computer Modern Sans Serif', 'Lucida Grande', 'Verdana', 'Geneva', 'Lucid', 'Arial', 'Helvetica', 'Avant Garde', sans-serif; text-anchor: end" x="57.8" y="58.300223" transform="rotate(-0 57.8 58.300223)">1.00</text>
     </g>
    </g>
    <g id="text_6">
     <text style="font-size: 11px; font-family: 'DejaVu Sans', 'Bitstream Vera Sans', 'Computer Modern Sans Serif', 'Lucida Grande', 'Verdana', 'Geneva', 'Lucid', 'Arial', 'Helvetica', 'Avant Garde', sans-serif; text-anchor: middle" x="27.020156" y="116.13913" transform="rotate(-90 27.020156 116.13913)">Recall</text>
    </g>
   </g>
   <g id="patch_3">
    <path d="M 64.8 181.878261 
L 64.8 50.4 
" style="fill: none; stroke: #000000; stroke-width: 0.8; stroke-linejoin: miter; stroke-linecap: square"/>
   </g>
   <g id="patch_4">
    <path d="M 64.8 181.878261 
L 496.8 181.878261 
" style="fill: none; stroke: #000000; stroke-width: 0.8; stroke-linejoin: miter; stroke-linecap: square"/>
   </g>
   <g id="line2d_15">
    <path d="M 153.741176 66.890456 
L 407.858824 81.092174 
" clip-path="url(#pfc80f25740)" style="fill: none; stroke: #c40d1e; stroke-width: 2; stroke-linecap: square"/>
    <defs>
     <path id="mb82155f2a3" d="M 0 3.5 
C 0.928211 3.5 1.81853 3.131218 2.474874 2.474874 
C 3.131218 1.81853 3.5 0.928211 3.5 0 
C 3.5 -0.928211 3.131218 -1.81853 2.474874 -2.474874 
C 1.81853 -3.131218 0.928211 -3.5 0 -3.5 
C -0.928211 -3.5 -1.81853 -3.131218 -2.474874 -2.474874 
C -3.131218 -1.81853 -3.5 -0.928211 -3.5 0 
C -3.5 0.928211 -3.131218 1.81853 -2.474874 2.474874 
C -1.81853 3.131218 -0.928211 3.5 0 3.5 
z
" style="stroke: #fcfcfb"/>
    </defs>
    <g clip-path="url(#pfc80f25740)">
     <use xlink:href="#mb82155f2a3" x="153.741176" y="66.890456" style="fill: #c40d1e; stroke: #fcfcfb"/>
     <use xlink:href="#mb82155f2a3" x="407.858824" y="81.092174" style="fill: #c40d1e; stroke: #fcfcfb"/>
    </g>
   </g>
   <g id="line2d_16">
    <path d="M 153.741176 77.280159 
L 407.858824 87.660948 
" clip-path="url(#pfc80f25740)" style="fill: none; stroke: #ff6c00; stroke-width: 2; stroke-linecap: square"/>
    <defs>
     <path id="m23a7f481c8" d="M 0 3.5 
C 0.928211 3.5 1.81853 3.131218 2.474874 2.474874 
C 3.131218 1.81853 3.5 0.928211 3.5 0 
C 3.5 -0.928211 3.131218 -1.81853 2.474874 -2.474874 
C 1.81853 -3.131218 0.928211 -3.5 0 -3.5 
C -0.928211 -3.5 -1.81853 -3.131218 -2.474874 -2.474874 
C -3.131218 -1.81853 -3.5 -0.928211 -3.5 0 
C -3.5 0.928211 -3.131218 1.81853 -2.474874 2.474874 
C -1.81853 3.131218 -0.928211 3.5 0 3.5 
z
" style="stroke: #fcfcfb"/>
    </defs>
    <g clip-path="url(#pfc80f25740)">
     <use xlink:href="#m23a7f481c8" x="153.741176" y="77.280159" style="fill: #ff6c00; stroke: #fcfcfb"/>
     <use xlink:href="#m23a7f481c8" x="407.858824" y="87.660948" style="fill: #ff6c00; stroke: #fcfcfb"/>
    </g>
   </g>
   <g id="line2d_17">
    <path d="M 153.741176 99.492969 
L 407.858824 66.243162 
" clip-path="url(#pfc80f25740)" style="fill: none; stroke: #e8a800; stroke-width: 2; stroke-linecap: square"/>
    <defs>
     <path id="mca14276732" d="M 0 3.5 
C 0.928211 3.5 1.81853 3.131218 2.474874 2.474874 
C 3.131218 1.81853 3.5 0.928211 3.5 0 
C 3.5 -0.928211 3.131218 -1.81853 2.474874 -2.474874 
C 1.81853 -3.131218 0.928211 -3.5 0 -3.5 
C -0.928211 -3.5 -1.81853 -3.131218 -2.474874 -2.474874 
C -3.131218 -1.81853 -3.5 -0.928211 -3.5 0 
C -3.5 0.928211 -3.131218 1.81853 -2.474874 2.474874 
C -1.81853 3.131218 -0.928211 3.5 0 3.5 
z
" style="stroke: #fcfcfb"/>
    </defs>
    <g clip-path="url(#pfc80f25740)">
     <use xlink:href="#mca14276732" x="153.741176" y="99.492969" style="fill: #e8a800; stroke: #fcfcfb"/>
     <use xlink:href="#mca14276732" x="407.858824" y="66.243162" style="fill: #e8a800; stroke: #fcfcfb"/>
    </g>
   </g>
   <g id="line2d_18">
    <path d="M 153.741176 56.463575 
L 407.858824 84.079753 
" clip-path="url(#pfc80f25740)" style="fill: none; stroke: #4f9d2e; stroke-width: 2; stroke-linecap: square"/>
    <defs>
     <path id="m067ead72c9" d="M 0 3.5 
C 0.928211 3.5 1.81853 3.131218 2.474874 2.474874 
C 3.131218 1.81853 3.5 0.928211 3.5 0 
C 3.5 -0.928211 3.131218 -1.81853 2.474874 -2.474874 
C 1.81853 -3.131218 0.928211 -3.5 0 -3.5 
C -0.928211 -3.5 -1.81853 -3.131218 -2.474874 -2.474874 
C -3.131218 -1.81853 -3.5 -0.928211 -3.5 0 
C -3.5 0.928211 -3.131218 1.81853 -2.474874 2.474874 
C -1.81853 3.131218 -0.928211 3.5 0 3.5 
z
" style="stroke: #fcfcfb"/>
    </defs>
    <g clip-path="url(#pfc80f25740)">
     <use xlink:href="#m067ead72c9" x="153.741176" y="56.463575" style="fill: #4f9d2e; stroke: #fcfcfb"/>
     <use xlink:href="#m067ead72c9" x="407.858824" y="84.079753" style="fill: #4f9d2e; stroke: #fcfcfb"/>
    </g>
   </g>
   <g id="line2d_19">
    <path d="M 153.741176 100.972547 
L 407.858824 86.763454 
" clip-path="url(#pfc80f25740)" style="fill: none; stroke: #b5297a; stroke-width: 2; stroke-linecap: square"/>
    <defs>
     <path id="mf9ee417e8b" d="M 0 3.5 
C 0.928211 3.5 1.81853 3.131218 2.474874 2.474874 
C 3.131218 1.81853 3.5 0.928211 3.5 0 
C 3.5 -0.928211 3.131218 -1.81853 2.474874 -2.474874 
C 1.81853 -3.131218 0.928211 -3.5 0 -3.5 
C -0.928211 -3.5 -1.81853 -3.131218 -2.474874 -2.474874 
C -3.131218 -1.81853 -3.5 -0.928211 -3.5 0 
C -3.5 0.928211 -3.131218 1.81853 -2.474874 2.474874 
C -1.81853 3.131218 -0.928211 3.5 0 3.5 
z
" style="stroke: #fcfcfb"/>
    </defs>
    <g clip-path="url(#pfc80f25740)">
     <use xlink:href="#mf9ee417e8b" x="153.741176" y="100.972547" style="fill: #b5297a; stroke: #fcfcfb"/>
     <use xlink:href="#mf9ee417e8b" x="407.858824" y="86.763454" style="fill: #b5297a; stroke: #fcfcfb"/>
    </g>
   </g>
   <g id="line2d_20">
    <path d="M 153.741176 86.093657 
L 407.858824 76.914747 
" clip-path="url(#pfc80f25740)" style="fill: none; stroke: #2f6fb0; stroke-width: 2; stroke-linecap: square"/>
    <defs>
     <path id="m67c263d3b4" d="M 0 3.5 
C 0.928211 3.5 1.81853 3.131218 2.474874 2.474874 
C 3.131218 1.81853 3.5 0.928211 3.5 0 
C 3.5 -0.928211 3.131218 -1.81853 2.474874 -2.474874 
C 1.81853 -3.131218 0.928211 -3.5 0 -3.5 
C -0.928211 -3.5 -1.81853 -3.131218 -2.474874 -2.474874 
C -3.131218 -1.81853 -3.5 -0.928211 -3.5 0 
C -3.5 0.928211 -3.131218 1.81853 -2.474874 2.474874 
C -1.81853 3.131218 -0.928211 3.5 0 3.5 
z
" style="stroke: #fcfcfb"/>
    </defs>
    <g clip-path="url(#pfc80f25740)">
     <use xlink:href="#m67c263d3b4" x="153.741176" y="86.093657" style="fill: #2f6fb0; stroke: #fcfcfb"/>
     <use xlink:href="#m67c263d3b4" x="407.858824" y="76.914747" style="fill: #2f6fb0; stroke: #fcfcfb"/>
    </g>
   </g>
   <g id="text_7">
    <text style="font-size: 9.5px; font-family: 'DejaVu Sans', 'Bitstream Vera Sans', 'Computer Modern Sans Serif', 'Lucida Grande', 'Verdana', 'Geneva', 'Lucid', 'Arial', 'Helvetica', 'Avant Garde', sans-serif; text-anchor: start; fill: #898781" x="64.8" y="44.4" transform="rotate(-0 64.8 44.4)">Mean cost/run: metadata-only $0.155, live-query $0.175 (Δ +$0.020)</text>
   </g>
   <g id="line2d_21">
    <path d="M 153.741176 83.447559 
L 407.858824 80.154427 
" clip-path="url(#pfc80f25740)" style="fill: none; stroke-dasharray: 9.25,4; stroke-dashoffset: 0; stroke: #52514e; stroke-opacity: 0.85; stroke-width: 2.5"/>
    <defs>
     <path id="m7656a440a8" d="M -0 4.242641 
L 4.242641 0 
L 0 -4.242641 
L -4.242641 -0 
z
" style="stroke: #52514e; stroke-opacity: 0.85; stroke-linejoin: miter"/>
    </defs>
    <g clip-path="url(#pfc80f25740)">
     <use xlink:href="#m7656a440a8" x="153.741176" y="83.447559" style="fill: #52514e; fill-opacity: 0.85; stroke: #52514e; stroke-opacity: 0.85; stroke-linejoin: miter"/>
     <use xlink:href="#m7656a440a8" x="407.858824" y="80.154427" style="fill: #52514e; fill-opacity: 0.85; stroke: #52514e; stroke-opacity: 0.85; stroke-linejoin: miter"/>
    </g>
   </g>
  </g>
  <g id="axes_2">
   <g id="patch_5">
    <path d="M 64.8 339.652174 
L 496.8 339.652174 
L 496.8 208.173913 
L 64.8 208.173913 
L 64.8 339.652174 
z
" style="fill: none"/>
   </g>
   <g id="matplotlib.axis_3">
    <g id="xtick_3">
     <g id="line2d_22">
      <path d="M 153.741176 339.652174 
L 153.741176 208.173913 
" clip-path="url(#pe743749d34)" style="fill: none; stroke: #b0b0b0; stroke-opacity: 0.3; stroke-width: 0.8; stroke-linecap: square"/>
     </g>
     <g id="line2d_23">
      <g>
       <use xlink:href="#mab7c8b2458" x="153.741176" y="339.652174" style="stroke: #000000; stroke-width: 0.8"/>
      </g>
     </g>
    </g>
    <g id="xtick_4">
     <g id="line2d_24">
      <path d="M 407.858824 339.652174 
L 407.858824 208.173913 
" clip-path="url(#pe743749d34)" style="fill: none; stroke: #b0b0b0; stroke-opacity: 0.3; stroke-width: 0.8; stroke-linecap: square"/>
     </g>
     <g id="line2d_25">
      <g>
       <use xlink:href="#mab7c8b2458" x="407.858824" y="339.652174" style="stroke: #000000; stroke-width: 0.8"/>
      </g>
     </g>
    </g>
   </g>
   <g id="matplotlib.axis_4">
    <g id="ytick_6">
     <g id="line2d_26">
      <path d="M 64.8 335.931091 
L 496.8 335.931091 
" clip-path="url(#pe743749d34)" style="fill: none; stroke: #b0b0b0; stroke-opacity: 0.3; stroke-width: 0.8; stroke-linecap: square"/>
     </g>
     <g id="line2d_27">
      <g>
       <use xlink:href="#me994716147" x="64.8" y="335.931091" style="stroke: #000000; stroke-width: 0.8"/>
      </g>
     </g>
     <g id="text_8">
      <text style="font-size: 11px; font-family: 'DejaVu Sans', 'Bitstream Vera Sans', 'Computer Modern Sans Serif', 'Lucida Grande', 'Verdana', 'Geneva', 'Lucid', 'Arial', 'Helvetica', 'Avant Garde', sans-serif; text-anchor: end" x="57.8" y="340.110232" transform="rotate(-0 57.8 340.110232)">0.00</text>
     </g>
    </g>
    <g id="ytick_7">
     <g id="line2d_28">
      <path d="M 64.8 304.922067 
L 496.8 304.922067 
" clip-path="url(#pe743749d34)" style="fill: none; stroke: #b0b0b0; stroke-opacity: 0.3; stroke-width: 0.8; stroke-linecap: square"/>
     </g>
     <g id="line2d_29">
      <g>
       <use xlink:href="#me994716147" x="64.8" y="304.922067" style="stroke: #000000; stroke-width: 0.8"/>
      </g>
     </g>
     <g id="text_9">
      <text style="font-size: 11px; font-family: 'DejaVu Sans', 'Bitstream Vera Sans', 'Computer Modern Sans Serif', 'Lucida Grande', 'Verdana', 'Geneva', 'Lucid', 'Arial', 'Helvetica', 'Avant Garde', sans-serif; text-anchor: end" x="57.8" y="309.101208" transform="rotate(-0 57.8 309.101208)">0.25</text>
     </g>
    </g>
    <g id="ytick_8">
     <g id="line2d_30">
      <path d="M 64.8 273.913043 
L 496.8 273.913043 
" clip-path="url(#pe743749d34)" style="fill: none; stroke: #b0b0b0; stroke-opacity: 0.3; stroke-width: 0.8; stroke-linecap: square"/>
     </g>
     <g id="line2d_31">
      <g>
       <use xlink:href="#me994716147" x="64.8" y="273.913043" style="stroke: #000000; stroke-width: 0.8"/>
      </g>
     </g>
     <g id="text_10">
      <text style="font-size: 11px; font-family: 'DejaVu Sans', 'Bitstream Vera Sans', 'Computer Modern Sans Serif', 'Lucida Grande', 'Verdana', 'Geneva', 'Lucid', 'Arial', 'Helvetica', 'Avant Garde', sans-serif; text-anchor: end" x="57.8" y="278.092184" transform="rotate(-0 57.8 278.092184)">0.50</text>
     </g>
    </g>
    <g id="ytick_9">
     <g id="line2d_32">
      <path d="M 64.8 242.90402 
L 496.8 242.90402 
" clip-path="url(#pe743749d34)" style="fill: none; stroke: #b0b0b0; stroke-opacity: 0.3; stroke-width: 0.8; stroke-linecap: square"/>
     </g>
     <g id="line2d_33">
      <g>
       <use xlink:href="#me994716147" x="64.8" y="242.90402" style="stroke: #000000; stroke-width: 0.8"/>
      </g>
     </g>
     <g id="text_11">
      <text style="font-size: 11px; font-family: 'DejaVu Sans', 'Bitstream Vera Sans', 'Computer Modern Sans Serif', 'Lucida Grande', 'Verdana', 'Geneva', 'Lucid', 'Arial', 'Helvetica', 'Avant Garde', sans-serif; text-anchor: end" x="57.8" y="247.08316" transform="rotate(-0 57.8 247.08316)">0.75</text>
     </g>
    </g>
    <g id="ytick_10">
     <g id="line2d_34">
      <path d="M 64.8 211.894996 
L 496.8 211.894996 
" clip-path="url(#pe743749d34)" style="fill: none; stroke: #b0b0b0; stroke-opacity: 0.3; stroke-width: 0.8; stroke-linecap: square"/>
     </g>
     <g id="line2d_35">
      <g>
       <use xlink:href="#me994716147" x="64.8" y="211.894996" style="stroke: #000000; stroke-width: 0.8"/>
      </g>
     </g>
     <g id="text_12">
      <text style="font-size: 11px; font-family: 'DejaVu Sans', 'Bitstream Vera Sans', 'Computer Modern Sans Serif', 'Lucida Grande', 'Verdana', 'Geneva', 'Lucid', 'Arial', 'Helvetica', 'Avant Garde', sans-serif; text-anchor: end" x="57.8" y="216.074137" transform="rotate(-0 57.8 216.074137)">1.00</text>
     </g>
    </g>
    <g id="text_13">
     <text style="font-size: 11px; font-family: 'DejaVu Sans', 'Bitstream Vera Sans', 'Computer Modern Sans Serif', 'Lucida Grande', 'Verdana', 'Geneva', 'Lucid', 'Arial', 'Helvetica', 'Avant Garde', sans-serif; text-anchor: middle" x="27.020156" y="273.913043" transform="rotate(-90 27.020156 273.913043)">Field accuracy</text>
    </g>
   </g>
   <g id="patch_6">
    <path d="M 64.8 339.652174 
L 64.8 208.173913 
" style="fill: none; stroke: #000000; stroke-width: 0.8; stroke-linejoin: miter; stroke-linecap: square"/>
   </g>
   <g id="patch_7">
    <path d="M 64.8 339.652174 
L 496.8 339.652174 
" style="fill: none; stroke: #000000; stroke-width: 0.8; stroke-linejoin: miter; stroke-linecap: square"/>
   </g>
   <g id="line2d_36">
    <path d="M 153.741176 232.609812 
L 407.858824 226.046336 
" clip-path="url(#pe743749d34)" style="fill: none; stroke: #c40d1e; stroke-width: 2; stroke-linecap: square"/>
    <g clip-path="url(#pe743749d34)">
     <use xlink:href="#mb82155f2a3" x="153.741176" y="232.609812" style="fill: #c40d1e; stroke: #fcfcfb"/>
     <use xlink:href="#mb82155f2a3" x="407.858824" y="226.046336" style="fill: #c40d1e; stroke: #fcfcfb"/>
    </g>
   </g>
   <g id="line2d_37">
    <path d="M 153.741176 233.405612 
L 407.858824 233.044741 
" clip-path="url(#pe743749d34)" style="fill: none; stroke: #ff6c00; stroke-width: 2; stroke-linecap: square"/>
    <g clip-path="url(#pe743749d34)">
     <use xlink:href="#m23a7f481c8" x="153.741176" y="233.405612" style="fill: #ff6c00; stroke: #fcfcfb"/>
     <use xlink:href="#m23a7f481c8" x="407.858824" y="233.044741" style="fill: #ff6c00; stroke: #fcfcfb"/>
    </g>
   </g>
   <g id="line2d_38">
    <path d="M 153.741176 231.236061 
L 407.858824 227.015354 
" clip-path="url(#pe743749d34)" style="fill: none; stroke: #e8a800; stroke-width: 2; stroke-linecap: square"/>
    <g clip-path="url(#pe743749d34)">
     <use xlink:href="#mca14276732" x="153.741176" y="231.236061" style="fill: #e8a800; stroke: #fcfcfb"/>
     <use xlink:href="#mca14276732" x="407.858824" y="227.015354" style="fill: #e8a800; stroke: #fcfcfb"/>
    </g>
   </g>
   <g id="line2d_39">
    <path d="M 153.741176 234.677658 
L 407.858824 229.914637 
" clip-path="url(#pe743749d34)" style="fill: none; stroke: #4f9d2e; stroke-width: 2; stroke-linecap: square"/>
    <g clip-path="url(#pe743749d34)">
     <use xlink:href="#m067ead72c9" x="153.741176" y="234.677658" style="fill: #4f9d2e; stroke: #fcfcfb"/>
     <use xlink:href="#m067ead72c9" x="407.858824" y="229.914637" style="fill: #4f9d2e; stroke: #fcfcfb"/>
    </g>
   </g>
   <g id="line2d_40">
    <path d="M 153.741176 229.862897 
L 407.858824 225.17575 
" clip-path="url(#pe743749d34)" style="fill: none; stroke: #b5297a; stroke-width: 2; stroke-linecap: square"/>
    <g clip-path="url(#pe743749d34)">
     <use xlink:href="#mf9ee417e8b" x="153.741176" y="229.862897" style="fill: #b5297a; stroke: #fcfcfb"/>
     <use xlink:href="#mf9ee417e8b" x="407.858824" y="225.17575" style="fill: #b5297a; stroke: #fcfcfb"/>
    </g>
   </g>
   <g id="line2d_41">
    <path d="M 153.741176 231.551495 
L 407.858824 227.786863 
" clip-path="url(#pe743749d34)" style="fill: none; stroke: #2f6fb0; stroke-width: 2; stroke-linecap: square"/>
    <g clip-path="url(#pe743749d34)">
     <use xlink:href="#m67c263d3b4" x="153.741176" y="231.551495" style="fill: #2f6fb0; stroke: #fcfcfb"/>
     <use xlink:href="#m67c263d3b4" x="407.858824" y="227.786863" style="fill: #2f6fb0; stroke: #fcfcfb"/>
    </g>
   </g>
   <g id="line2d_42">
    <path d="M 153.741176 232.106496 
L 407.858824 227.947746 
" clip-path="url(#pe743749d34)" style="fill: none; stroke-dasharray: 9.25,4; stroke-dashoffset: 0; stroke: #52514e; stroke-opacity: 0.85; stroke-width: 2.5"/>
    <g clip-path="url(#pe743749d34)">
     <use xlink:href="#m7656a440a8" x="153.741176" y="232.106496" style="fill: #52514e; fill-opacity: 0.85; stroke: #52514e; stroke-opacity: 0.85; stroke-linejoin: miter"/>
     <use xlink:href="#m7656a440a8" x="407.858824" y="227.947746" style="fill: #52514e; fill-opacity: 0.85; stroke: #52514e; stroke-opacity: 0.85; stroke-linejoin: miter"/>
    </g>
   </g>
  </g>
  <g id="axes_3">
   <g id="patch_8">
    <path d="M 64.8 497.426087 
L 496.8 497.426087 
L 496.8 365.947826 
L 64.8 365.947826 
L 64.8 497.426087 
z
" style="fill: none"/>
   </g>
   <g id="matplotlib.axis_5">
    <g id="xtick_5">
     <g id="line2d_43">
      <path d="M 153.741176 497.426087 
L 153.741176 365.947826 
" clip-path="url(#p0beac7aa7e)" style="fill: none; stroke: #b0b0b0; stroke-opacity: 0.3; stroke-width: 0.8; stroke-linecap: square"/>
     </g>
     <g id="line2d_44">
      <g>
       <use xlink:href="#mab7c8b2458" x="153.741176" y="497.426087" style="stroke: #000000; stroke-width: 0.8"/>
      </g>
     </g>
    </g>
    <g id="xtick_6">
     <g id="line2d_45">
      <path d="M 407.858824 497.426087 
L 407.858824 365.947826 
" clip-path="url(#p0beac7aa7e)" style="fill: none; stroke: #b0b0b0; stroke-opacity: 0.3; stroke-width: 0.8; stroke-linecap: square"/>
     </g>
     <g id="line2d_46">
      <g>
       <use xlink:href="#mab7c8b2458" x="407.858824" y="497.426087" style="stroke: #000000; stroke-width: 0.8"/>
      </g>
     </g>
    </g>
   </g>
   <g id="matplotlib.axis_6">
    <g id="ytick_11">
     <g id="line2d_47">
      <path d="M 64.8 493.705004 
L 496.8 493.705004 
" clip-path="url(#p0beac7aa7e)" style="fill: none; stroke: #b0b0b0; stroke-opacity: 0.3; stroke-width: 0.8; stroke-linecap: square"/>
     </g>
     <g id="line2d_48">
      <g>
       <use xlink:href="#me994716147" x="64.8" y="493.705004" style="stroke: #000000; stroke-width: 0.8"/>
      </g>
     </g>
     <g id="text_14">
      <text style="font-size: 11px; font-family: 'DejaVu Sans', 'Bitstream Vera Sans', 'Computer Modern Sans Serif', 'Lucida Grande', 'Verdana', 'Geneva', 'Lucid', 'Arial', 'Helvetica', 'Avant Garde', sans-serif; text-anchor: end" x="57.8" y="497.884145" transform="rotate(-0 57.8 497.884145)">0.00</text>
     </g>
    </g>
    <g id="ytick_12">
     <g id="line2d_49">
      <path d="M 64.8 462.69598 
L 496.8 462.69598 
" clip-path="url(#p0beac7aa7e)" style="fill: none; stroke: #b0b0b0; stroke-opacity: 0.3; stroke-width: 0.8; stroke-linecap: square"/>
     </g>
     <g id="line2d_50">
      <g>
       <use xlink:href="#me994716147" x="64.8" y="462.69598" style="stroke: #000000; stroke-width: 0.8"/>
      </g>
     </g>
     <g id="text_15">
      <text style="font-size: 11px; font-family: 'DejaVu Sans', 'Bitstream Vera Sans', 'Computer Modern Sans Serif', 'Lucida Grande', 'Verdana', 'Geneva', 'Lucid', 'Arial', 'Helvetica', 'Avant Garde', sans-serif; text-anchor: end" x="57.8" y="466.875121" transform="rotate(-0 57.8 466.875121)">0.25</text>
     </g>
    </g>
    <g id="ytick_13">
     <g id="line2d_51">
      <path d="M 64.8 431.686957 
L 496.8 431.686957 
" clip-path="url(#p0beac7aa7e)" style="fill: none; stroke: #b0b0b0; stroke-opacity: 0.3; stroke-width: 0.8; stroke-linecap: square"/>
     </g>
     <g id="line2d_52">
      <g>
       <use xlink:href="#me994716147" x="64.8" y="431.686957" style="stroke: #000000; stroke-width: 0.8"/>
      </g>
     </g>
     <g id="text_16">
      <text style="font-size: 11px; font-family: 'DejaVu Sans', 'Bitstream Vera Sans', 'Computer Modern Sans Serif', 'Lucida Grande', 'Verdana', 'Geneva', 'Lucid', 'Arial', 'Helvetica', 'Avant Garde', sans-serif; text-anchor: end" x="57.8" y="435.866097" transform="rotate(-0 57.8 435.866097)">0.50</text>
     </g>
    </g>
    <g id="ytick_14">
     <g id="line2d_53">
      <path d="M 64.8 400.677933 
L 496.8 400.677933 
" clip-path="url(#p0beac7aa7e)" style="fill: none; stroke: #b0b0b0; stroke-opacity: 0.3; stroke-width: 0.8; stroke-linecap: square"/>
     </g>
     <g id="line2d_54">
      <g>
       <use xlink:href="#me994716147" x="64.8" y="400.677933" style="stroke: #000000; stroke-width: 0.8"/>
      </g>
     </g>
     <g id="text_17">
      <text style="font-size: 11px; font-family: 'DejaVu Sans', 'Bitstream Vera Sans', 'Computer Modern Sans Serif', 'Lucida Grande', 'Verdana', 'Geneva', 'Lucid', 'Arial', 'Helvetica', 'Avant Garde', sans-serif; text-anchor: end" x="57.8" y="404.857073" transform="rotate(-0 57.8 404.857073)">0.75</text>
     </g>
    </g>
    <g id="ytick_15">
     <g id="line2d_55">
      <path d="M 64.8 369.668909 
L 496.8 369.668909 
" clip-path="url(#p0beac7aa7e)" style="fill: none; stroke: #b0b0b0; stroke-opacity: 0.3; stroke-width: 0.8; stroke-linecap: square"/>
     </g>
     <g id="line2d_56">
      <g>
       <use xlink:href="#me994716147" x="64.8" y="369.668909" style="stroke: #000000; stroke-width: 0.8"/>
      </g>
     </g>
     <g id="text_18">
      <text style="font-size: 11px; font-family: 'DejaVu Sans', 'Bitstream Vera Sans', 'Computer Modern Sans Serif', 'Lucida Grande', 'Verdana', 'Geneva', 'Lucid', 'Arial', 'Helvetica', 'Avant Garde', sans-serif; text-anchor: end" x="57.8" y="373.84805" transform="rotate(-0 57.8 373.84805)">1.00</text>
     </g>
    </g>
    <g id="text_19">
     <text style="font-size: 11px; font-family: 'DejaVu Sans', 'Bitstream Vera Sans', 'Computer Modern Sans Serif', 'Lucida Grande', 'Verdana', 'Geneva', 'Lucid', 'Arial', 'Helvetica', 'Avant Garde', sans-serif; text-anchor: middle" x="27.020156" y="431.686957" transform="rotate(-90 27.020156 431.686957)">Mat. rate</text>
    </g>
   </g>
   <g id="patch_9">
    <path d="M 64.8 497.426087 
L 64.8 365.947826 
" style="fill: none; stroke: #000000; stroke-width: 0.8; stroke-linejoin: miter; stroke-linecap: square"/>
   </g>
   <g id="patch_10">
    <path d="M 64.8 497.426087 
L 496.8 497.426087 
" style="fill: none; stroke: #000000; stroke-width: 0.8; stroke-linejoin: miter; stroke-linecap: square"/>
   </g>
   <g id="line2d_57">
    <path d="M 153.741176 381.038884 
L 407.858824 394.476128 
" clip-path="url(#p0beac7aa7e)" style="fill: none; stroke: #c40d1e; stroke-width: 2; stroke-linecap: square"/>
    <g clip-path="url(#p0beac7aa7e)">
     <use xlink:href="#mb82155f2a3" x="153.741176" y="381.038884" style="fill: #c40d1e; stroke: #fcfcfb"/>
     <use xlink:href="#mb82155f2a3" x="407.858824" y="394.476128" style="fill: #c40d1e; stroke: #fcfcfb"/>
    </g>
   </g>
   <g id="line2d_58">
    <path d="M 153.741176 393.442494 
L 407.858824 400.677933 
" clip-path="url(#p0beac7aa7e)" style="fill: none; stroke: #ff6c00; stroke-width: 2; stroke-linecap: square"/>
    <g clip-path="url(#p0beac7aa7e)">
     <use xlink:href="#m23a7f481c8" x="153.741176" y="393.442494" style="fill: #ff6c00; stroke: #fcfcfb"/>
     <use xlink:href="#m23a7f481c8" x="407.858824" y="400.677933" style="fill: #ff6c00; stroke: #fcfcfb"/>
    </g>
   </g>
   <g id="line2d_59">
    <path d="M 153.741176 411.014274 
L 407.858824 382.072518 
" clip-path="url(#p0beac7aa7e)" style="fill: none; stroke: #e8a800; stroke-width: 2; stroke-linecap: square"/>
    <g clip-path="url(#p0beac7aa7e)">
     <use xlink:href="#mca14276732" x="153.741176" y="411.014274" style="fill: #e8a800; stroke: #fcfcfb"/>
     <use xlink:href="#mca14276732" x="407.858824" y="382.072518" style="fill: #e8a800; stroke: #fcfcfb"/>
    </g>
   </g>
   <g id="line2d_60">
    <path d="M 153.741176 371.736177 
L 407.858824 396.543396 
" clip-path="url(#p0beac7aa7e)" style="fill: none; stroke: #4f9d2e; stroke-width: 2; stroke-linecap: square"/>
    <g clip-path="url(#p0beac7aa7e)">
     <use xlink:href="#m067ead72c9" x="153.741176" y="371.736177" style="fill: #4f9d2e; stroke: #fcfcfb"/>
     <use xlink:href="#m067ead72c9" x="407.858824" y="396.543396" style="fill: #4f9d2e; stroke: #fcfcfb"/>
    </g>
   </g>
   <g id="line2d_61">
    <path d="M 153.741176 415.148811 
L 407.858824 398.610664 
" clip-path="url(#p0beac7aa7e)" style="fill: none; stroke: #b5297a; stroke-width: 2; stroke-linecap: square"/>
    <g clip-path="url(#p0beac7aa7e)">
     <use xlink:href="#mf9ee417e8b" x="153.741176" y="415.148811" style="fill: #b5297a; stroke: #fcfcfb"/>
     <use xlink:href="#mf9ee417e8b" x="407.858824" y="398.610664" style="fill: #b5297a; stroke: #fcfcfb"/>
    </g>
   </g>
   <g id="line2d_62">
    <path d="M 153.741176 400.677933 
L 407.858824 396.543396 
" clip-path="url(#p0beac7aa7e)" style="fill: none; stroke: #2f6fb0; stroke-width: 2; stroke-linecap: square"/>
    <g clip-path="url(#p0beac7aa7e)">
     <use xlink:href="#m67c263d3b4" x="153.741176" y="400.677933" style="fill: #2f6fb0; stroke: #fcfcfb"/>
     <use xlink:href="#m67c263d3b4" x="407.858824" y="396.543396" style="fill: #2f6fb0; stroke: #fcfcfb"/>
    </g>
   </g>
   <g id="line2d_63">
    <path d="M 153.741176 397.670997 
L 407.858824 394.664061 
" clip-path="url(#p0beac7aa7e)" style="fill: none; stroke-dasharray: 9.25,4; stroke-dashoffset: 0; stroke: #52514e; stroke-opacity: 0.85; stroke-width: 2.5"/>
    <g clip-path="url(#p0beac7aa7e)">
     <use xlink:href="#m7656a440a8" x="153.741176" y="397.670997" style="fill: #52514e; fill-opacity: 0.85; stroke: #52514e; stroke-opacity: 0.85; stroke-linejoin: miter"/>
     <use xlink:href="#m7656a440a8" x="407.858824" y="394.664061" style="fill: #52514e; fill-opacity: 0.85; stroke: #52514e; stroke-opacity: 0.85; stroke-linejoin: miter"/>
    </g>
   </g>
  </g>
  <g id="axes_4">
   <g id="patch_11">
    <path d="M 64.8 655.2 
L 496.8 655.2 
L 496.8 523.721739 
L 64.8 523.721739 
L 64.8 655.2 
z
" style="fill: none"/>
   </g>
   <g id="matplotlib.axis_7">
    <g id="xtick_7">
     <g id="line2d_64">
      <path d="M 153.741176 655.2 
L 153.741176 523.721739 
" clip-path="url(#pf99fab5baa)" style="fill: none; stroke: #b0b0b0; stroke-opacity: 0.3; stroke-width: 0.8; stroke-linecap: square"/>
     </g>
     <g id="line2d_65">
      <g>
       <use xlink:href="#mab7c8b2458" x="153.741176" y="655.2" style="stroke: #000000; stroke-width: 0.8"/>
      </g>
     </g>
     <g id="text_20">
      <text style="font-size: 11px; font-family: 'DejaVu Sans', 'Bitstream Vera Sans', 'Computer Modern Sans Serif', 'Lucida Grande', 'Verdana', 'Geneva', 'Lucid', 'Arial', 'Helvetica', 'Avant Garde', sans-serif; text-anchor: middle" x="153.741176" y="670.558281" transform="rotate(-0 153.741176 670.558281)">metadata-only</text>
     </g>
    </g>
    <g id="xtick_8">
     <g id="line2d_66">
      <path d="M 407.858824 655.2 
L 407.858824 523.721739 
" clip-path="url(#pf99fab5baa)" style="fill: none; stroke: #b0b0b0; stroke-opacity: 0.3; stroke-width: 0.8; stroke-linecap: square"/>
     </g>
     <g id="line2d_67">
      <g>
       <use xlink:href="#mab7c8b2458" x="407.858824" y="655.2" style="stroke: #000000; stroke-width: 0.8"/>
      </g>
     </g>
     <g id="text_21">
      <text style="font-size: 11px; font-family: 'DejaVu Sans', 'Bitstream Vera Sans', 'Computer Modern Sans Serif', 'Lucida Grande', 'Verdana', 'Geneva', 'Lucid', 'Arial', 'Helvetica', 'Avant Garde', sans-serif; text-anchor: middle" x="407.858824" y="670.558281" transform="rotate(-0 407.858824 670.558281)">live-query</text>
     </g>
    </g>
   </g>
   <g id="matplotlib.axis_8">
    <g id="ytick_16">
     <g id="line2d_68">
      <path d="M 64.8 655.2 
L 496.8 655.2 
" clip-path="url(#pf99fab5baa)" style="fill: none; stroke: #b0b0b0; stroke-opacity: 0.3; stroke-width: 0.8; stroke-linecap: square"/>
     </g>
     <g id="line2d_69">
      <g>
       <use xlink:href="#me994716147" x="64.8" y="655.2" style="stroke: #000000; stroke-width: 0.8"/>
      </g>
     </g>
     <g id="text_22">
      <text style="font-size: 11px; font-family: 'DejaVu Sans', 'Bitstream Vera Sans', 'Computer Modern Sans Serif', 'Lucida Grande', 'Verdana', 'Geneva', 'Lucid', 'Arial', 'Helvetica', 'Avant Garde', sans-serif; text-anchor: end" x="57.8" y="659.379141" transform="rotate(-0 57.8 659.379141)">0</text>
     </g>
    </g>
    <g id="ytick_17">
     <g id="line2d_70">
      <path d="M 64.8 626.914996 
L 496.8 626.914996 
" clip-path="url(#pf99fab5baa)" style="fill: none; stroke: #b0b0b0; stroke-opacity: 0.3; stroke-width: 0.8; stroke-linecap: square"/>
     </g>
     <g id="line2d_71">
      <g>
       <use xlink:href="#me994716147" x="64.8" y="626.914996" style="stroke: #000000; stroke-width: 0.8"/>
      </g>
     </g>
     <g id="text_23">
      <text style="font-size: 11px; font-family: 'DejaVu Sans', 'Bitstream Vera Sans', 'Computer Modern Sans Serif', 'Lucida Grande', 'Verdana', 'Geneva', 'Lucid', 'Arial', 'Helvetica', 'Avant Garde', sans-serif; text-anchor: end" x="57.8" y="631.094137" transform="rotate(-0 57.8 631.094137)">100000</text>
     </g>
    </g>
    <g id="ytick_18">
     <g id="line2d_72">
      <path d="M 64.8 598.629992 
L 496.8 598.629992 
" clip-path="url(#pf99fab5baa)" style="fill: none; stroke: #b0b0b0; stroke-opacity: 0.3; stroke-width: 0.8; stroke-linecap: square"/>
     </g>
     <g id="line2d_73">
      <g>
       <use xlink:href="#me994716147" x="64.8" y="598.629992" style="stroke: #000000; stroke-width: 0.8"/>
      </g>
     </g>
     <g id="text_24">
      <text style="font-size: 11px; font-family: 'DejaVu Sans', 'Bitstream Vera Sans', 'Computer Modern Sans Serif', 'Lucida Grande', 'Verdana', 'Geneva', 'Lucid', 'Arial', 'Helvetica', 'Avant Garde', sans-serif; text-anchor: end" x="57.8" y="602.809133" transform="rotate(-0 57.8 602.809133)">200000</text>
     </g>
    </g>
    <g id="ytick_19">
     <g id="line2d_74">
      <path d="M 64.8 570.344988 
L 496.8 570.344988 
" clip-path="url(#pf99fab5baa)" style="fill: none; stroke: #b0b0b0; stroke-opacity: 0.3; stroke-width: 0.8; stroke-linecap: square"/>
     </g>
     <g id="line2d_75">
      <g>
       <use xlink:href="#me994716147" x="64.8" y="570.344988" style="stroke: #000000; stroke-width: 0.8"/>
      </g>
     </g>
     <g id="text_25">
      <text style="font-size: 11px; font-family: 'DejaVu Sans', 'Bitstream Vera Sans', 'Computer Modern Sans Serif', 'Lucida Grande', 'Verdana', 'Geneva', 'Lucid', 'Arial', 'Helvetica', 'Avant Garde', sans-serif; text-anchor: end" x="57.8" y="574.524129" transform="rotate(-0 57.8 574.524129)">300000</text>
     </g>
    </g>
    <g id="ytick_20">
     <g id="line2d_76">
      <path d="M 64.8 542.059984 
L 496.8 542.059984 
" clip-path="url(#pf99fab5baa)" style="fill: none; stroke: #b0b0b0; stroke-opacity: 0.3; stroke-width: 0.8; stroke-linecap: square"/>
     </g>
     <g id="line2d_77">
      <g>
       <use xlink:href="#me994716147" x="64.8" y="542.059984" style="stroke: #000000; stroke-width: 0.8"/>
      </g>
     </g>
     <g id="text_26">
      <text style="font-size: 11px; font-family: 'DejaVu Sans', 'Bitstream Vera Sans', 'Computer Modern Sans Serif', 'Lucida Grande', 'Verdana', 'Geneva', 'Lucid', 'Arial', 'Helvetica', 'Avant Garde', sans-serif; text-anchor: end" x="57.8" y="546.239124" transform="rotate(-0 57.8 546.239124)">400000</text>
     </g>
    </g>
    <g id="text_27">
     <text style="font-size: 11px; font-family: 'DejaVu Sans', 'Bitstream Vera Sans', 'Computer Modern Sans Serif', 'Lucida Grande', 'Verdana', 'Geneva', 'Lucid', 'Arial', 'Helvetica', 'Avant Garde', sans-serif; text-anchor: middle" x="9.519844" y="589.46087" transform="rotate(-90 9.519844 589.46087)">Mean tokens/run (in+out)</text>
    </g>
   </g>
   <g id="patch_12">
    <path d="M 64.8 655.2 
L 64.8 523.721739 
" style="fill: none; stroke: #000000; stroke-width: 0.8; stroke-linejoin: miter; stroke-linecap: square"/>
   </g>
   <g id="patch_13">
    <path d="M 64.8 655.2 
L 496.8 655.2 
" style="fill: none; stroke: #000000; stroke-width: 0.8; stroke-linejoin: miter; stroke-linecap: square"/>
   </g>
   <g id="line2d_78">
    <path d="M 153.741176 620.492909 
L 407.858824 586.063082 
" clip-path="url(#pf99fab5baa)" style="fill: none; stroke: #c40d1e; stroke-width: 2; stroke-linecap: square"/>
    <g clip-path="url(#pf99fab5baa)">
     <use xlink:href="#mb82155f2a3" x="153.741176" y="620.492909" style="fill: #c40d1e; stroke: #fcfcfb"/>
     <use xlink:href="#mb82155f2a3" x="407.858824" y="586.063082" style="fill: #c40d1e; stroke: #fcfcfb"/>
    </g>
   </g>
   <g id="line2d_79">
    <path d="M 153.741176 639.711026 
L 407.858824 639.095874 
" clip-path="url(#pf99fab5baa)" style="fill: none; stroke: #ff6c00; stroke-width: 2; stroke-linecap: square"/>
    <g clip-path="url(#pf99fab5baa)">
     <use xlink:href="#m23a7f481c8" x="153.741176" y="639.711026" style="fill: #ff6c00; stroke: #fcfcfb"/>
     <use xlink:href="#m23a7f481c8" x="407.858824" y="639.095874" style="fill: #ff6c00; stroke: #fcfcfb"/>
    </g>
   </g>
   <g id="line2d_80">
    <path d="M 153.741176 624.089595 
L 407.858824 601.04255 
" clip-path="url(#pf99fab5baa)" style="fill: none; stroke: #e8a800; stroke-width: 2; stroke-linecap: square"/>
    <g clip-path="url(#pf99fab5baa)">
     <use xlink:href="#mca14276732" x="153.741176" y="624.089595" style="fill: #e8a800; stroke: #fcfcfb"/>
     <use xlink:href="#mca14276732" x="407.858824" y="601.04255" style="fill: #e8a800; stroke: #fcfcfb"/>
    </g>
   </g>
   <g id="line2d_81">
    <path d="M 153.741176 623.851871 
L 407.858824 529.35073 
" clip-path="url(#pf99fab5baa)" style="fill: none; stroke: #4f9d2e; stroke-width: 2; stroke-linecap: square"/>
    <g clip-path="url(#pf99fab5baa)">
     <use xlink:href="#m067ead72c9" x="153.741176" y="623.851871" style="fill: #4f9d2e; stroke: #fcfcfb"/>
     <use xlink:href="#m067ead72c9" x="407.858824" y="529.35073" style="fill: #4f9d2e; stroke: #fcfcfb"/>
    </g>
   </g>
   <g id="line2d_82">
    <path d="M 153.741176 641.93055 
L 407.858824 628.870256 
" clip-path="url(#pf99fab5baa)" style="fill: none; stroke: #b5297a; stroke-width: 2; stroke-linecap: square"/>
    <g clip-path="url(#pf99fab5baa)">
     <use xlink:href="#mf9ee417e8b" x="153.741176" y="641.93055" style="fill: #b5297a; stroke: #fcfcfb"/>
     <use xlink:href="#mf9ee417e8b" x="407.858824" y="628.870256" style="fill: #b5297a; stroke: #fcfcfb"/>
    </g>
   </g>
   <g id="line2d_83">
    <path d="M 153.741176 637.158858 
L 407.858824 627.2186 
" clip-path="url(#pf99fab5baa)" style="fill: none; stroke: #2f6fb0; stroke-width: 2; stroke-linecap: square"/>
    <g clip-path="url(#pf99fab5baa)">
     <use xlink:href="#m67c263d3b4" x="153.741176" y="637.158858" style="fill: #2f6fb0; stroke: #fcfcfb"/>
     <use xlink:href="#m67c263d3b4" x="407.858824" y="627.2186" style="fill: #2f6fb0; stroke: #fcfcfb"/>
    </g>
   </g>
   <g id="line2d_84">
    <path d="M 153.741176 631.874341 
L 407.858824 608.539223 
" clip-path="url(#pf99fab5baa)" style="fill: none; stroke-dasharray: 9.25,4; stroke-dashoffset: 0; stroke: #52514e; stroke-opacity: 0.85; stroke-width: 2.5"/>
    <g clip-path="url(#pf99fab5baa)">
     <use xlink:href="#m7656a440a8" x="153.741176" y="631.874341" style="fill: #52514e; fill-opacity: 0.85; stroke: #52514e; stroke-opacity: 0.85; stroke-linejoin: miter"/>
     <use xlink:href="#m7656a440a8" x="407.858824" y="608.539223" style="fill: #52514e; fill-opacity: 0.85; stroke: #52514e; stroke-opacity: 0.85; stroke-linejoin: miter"/>
    </g>
   </g>
  </g>
  <g id="text_28">
   <text style="font-size: 13px; font-family: 'DejaVu Sans', 'Bitstream Vera Sans', 'Computer Modern Sans Serif', 'Lucida Grande', 'Verdana', 'Geneva', 'Lucid', 'Arial', 'Helvetica', 'Avant Garde', sans-serif; text-anchor: start; fill: #0b0b0b" x="25.92" y="17.437969" transform="rotate(-0 25.92 17.437969)">Lever: context mode (metadata-only -&gt; live-query)</text>
  </g>
  <g id="legend_1">
   <g id="text_29">
    <text style="font-size: 11px; font-family: 'DejaVu Sans', 'Bitstream Vera Sans', 'Computer Modern Sans Serif', 'Lucida Grande', 'Verdana', 'Geneva', 'Lucid', 'Arial', 'Helvetica', 'Avant Garde', sans-serif; text-anchor: start; fill: #0b0b0b" x="220.129375" y="691.431094" transform="rotate(-0 220.129375 691.431094)">Strategy (cell)</text>
   </g>
   <g id="line2d_85">
    <defs>
     <path id="m589d546c89" d="M 0 4 
C 1.060812 4 2.078319 3.578535 2.828427 2.828427 
C 3.578535 2.078319 4 1.060812 4 0 
C 4 -1.060812 3.578535 -2.078319 2.828427 -2.828427 
C 2.078319 -3.578535 1.060812 -4 0 -4 
C -1.060812 -4 -2.078319 -3.578535 -2.828427 -2.828427 
C -3.578535 -2.078319 -4 -1.060812 -4 0 
C -4 1.060812 -3.578535 2.078319 -2.828427 2.828427 
C -2.078319 3.578535 -1.060812 4 0 4 
z
" style="stroke: #fcfcfb"/>
    </defs>
    <g>
     <use xlink:href="#m589d546c89" x="154.872461" y="701.452422" style="fill: #c40d1e; stroke: #fcfcfb"/>
    </g>
   </g>
   <g id="text_30">
    <text style="font-size: 8.5px; font-family: 'DejaVu Sans', 'Bitstream Vera Sans', 'Computer Modern Sans Serif', 'Lucida Grande', 'Verdana', 'Geneva', 'Lucid', 'Arial', 'Helvetica', 'Avant Garde', sans-serif; text-anchor: start; fill: #0b0b0b" x="167.622461" y="704.427422" transform="rotate(-0 167.622461 704.427422)">ensemble_vote</text>
   </g>
   <g id="line2d_86">
    <defs>
     <path id="mad262bc29c" d="M 0 4 
C 1.060812 4 2.078319 3.578535 2.828427 2.828427 
C 3.578535 2.078319 4 1.060812 4 0 
C 4 -1.060812 3.578535 -2.078319 2.828427 -2.828427 
C 2.078319 -3.578535 1.060812 -4 0 -4 
C -1.060812 -4 -2.078319 -3.578535 -2.828427 -2.828427 
C -3.578535 -2.078319 -4 -1.060812 -4 0 
C -4 1.060812 -3.578535 2.078319 -2.828427 2.828427 
C -2.078319 3.578535 -1.060812 4 0 4 
z
" style="stroke: #fcfcfb"/>
    </defs>
    <g>
     <use xlink:href="#mad262bc29c" x="154.872461" y="714.165234" style="fill: #ff6c00; stroke: #fcfcfb"/>
    </g>
   </g>
   <g id="text_31">
    <text style="font-size: 8.5px; font-family: 'DejaVu Sans', 'Bitstream Vera Sans', 'Computer Modern Sans Serif', 'Lucida Grande', 'Verdana', 'Geneva', 'Lucid', 'Arial', 'Helvetica', 'Avant Garde', sans-serif; text-anchor: start; fill: #0b0b0b" x="167.622461" y="717.140234" transform="rotate(-0 167.622461 717.140234)">plan_then_execute</text>
   </g>
   <g id="line2d_87">
    <defs>
     <path id="m3d865f5af3" d="M 0 4 
C 1.060812 4 2.078319 3.578535 2.828427 2.828427 
C 3.578535 2.078319 4 1.060812 4 0 
C 4 -1.060812 3.578535 -2.078319 2.828427 -2.828427 
C 2.078319 -3.578535 1.060812 -4 0 -4 
C -1.060812 -4 -2.078319 -3.578535 -2.828427 -2.828427 
C -3.578535 -2.078319 -4 -1.060812 -4 0 
C -4 1.060812 -3.578535 2.078319 -2.828427 2.828427 
C -2.078319 3.578535 -1.060812 4 0 4 
z
" style="stroke: #fcfcfb"/>
    </defs>
    <g>
     <use xlink:href="#m3d865f5af3" x="154.872461" y="726.878047" style="fill: #e8a800; stroke: #fcfcfb"/>
    </g>
   </g>
   <g id="text_32">
    <text style="font-size: 8.5px; font-family: 'DejaVu Sans', 'Bitstream Vera Sans', 'Computer Modern Sans Serif', 'Lucida Grande', 'Verdana', 'Geneva', 'Lucid', 'Arial', 'Helvetica', 'Avant Garde', sans-serif; text-anchor: start; fill: #0b0b0b" x="167.622461" y="729.853047" transform="rotate(-0 167.622461 729.853047)">write_then_critique</text>
   </g>
   <g id="line2d_88">
    <defs>
     <path id="m362559c096" d="M 0 4 
C 1.060812 4 2.078319 3.578535 2.828427 2.828427 
C 3.578535 2.078319 4 1.060812 4 0 
C 4 -1.060812 3.578535 -2.078319 2.828427 -2.828427 
C 2.078319 -3.578535 1.060812 -4 0 -4 
C -1.060812 -4 -2.078319 -3.578535 -2.828427 -2.828427 
C -3.578535 -2.078319 -4 -1.060812 -4 0 
C -4 1.060812 -3.578535 2.078319 -2.828427 2.828427 
C -2.078319 3.578535 -1.060812 4 0 4 
z
" style="stroke: #fcfcfb"/>
    </defs>
    <g>
     <use xlink:href="#m362559c096" x="154.872461" y="739.590859" style="fill: #4f9d2e; stroke: #fcfcfb"/>
    </g>
   </g>
   <g id="text_33">
    <text style="font-size: 8.5px; font-family: 'DejaVu Sans', 'Bitstream Vera Sans', 'Computer Modern Sans Serif', 'Lucida Grande', 'Verdana', 'Geneva', 'Lucid', 'Arial', 'Helvetica', 'Avant Garde', sans-serif; text-anchor: start; fill: #0b0b0b" x="167.622461" y="742.565859" transform="rotate(-0 167.622461 742.565859)">plan_write_critique</text>
   </g>
   <g id="line2d_89">
    <defs>
     <path id="mad1a9036d4" d="M 0 4 
C 1.060812 4 2.078319 3.578535 2.828427 2.828427 
C 3.578535 2.078319 4 1.060812 4 0 
C 4 -1.060812 3.578535 -2.078319 2.828427 -2.828427 
C 2.078319 -3.578535 1.060812 -4 0 -4 
C -1.060812 -4 -2.078319 -3.578535 -2.828427 -2.828427 
C -3.578535 -2.078319 -4 -1.060812 -4 0 
C -4 1.060812 -3.578535 2.078319 -2.828427 2.828427 
C -2.078319 3.578535 -1.060812 4 0 4 
z
" style="stroke: #fcfcfb"/>
    </defs>
    <g>
     <use xlink:href="#mad1a9036d4" x="271.164414" y="701.452422" style="fill: #b5297a; stroke: #fcfcfb"/>
    </g>
   </g>
   <g id="text_34">
    <text style="font-size: 8.5px; font-family: 'DejaVu Sans', 'Bitstream Vera Sans', 'Computer Modern Sans Serif', 'Lucida Grande', 'Verdana', 'Geneva', 'Lucid', 'Arial', 'Helvetica', 'Avant Garde', sans-serif; text-anchor: start; fill: #0b0b0b" x="283.914414" y="704.427422" transform="rotate(-0 283.914414 704.427422)">structured_per_table</text>
   </g>
   <g id="line2d_90">
    <defs>
     <path id="m0050ccec6b" d="M 0 4 
C 1.060812 4 2.078319 3.578535 2.828427 2.828427 
C 3.578535 2.078319 4 1.060812 4 0 
C 4 -1.060812 3.578535 -2.078319 2.828427 -2.828427 
C 2.078319 -3.578535 1.060812 -4 0 -4 
C -1.060812 -4 -2.078319 -3.578535 -2.828427 -2.828427 
C -3.578535 -2.078319 -4 -1.060812 -4 0 
C -4 1.060812 -3.578535 2.078319 -2.828427 2.828427 
C -2.078319 3.578535 -1.060812 4 0 4 
z
" style="stroke: #fcfcfb"/>
    </defs>
    <g>
     <use xlink:href="#m0050ccec6b" x="271.164414" y="714.165234" style="fill: #2f6fb0; stroke: #fcfcfb"/>
    </g>
   </g>
   <g id="text_35">
    <text style="font-size: 8.5px; font-family: 'DejaVu Sans', 'Bitstream Vera Sans', 'Computer Modern Sans Serif', 'Lucida Grande', 'Verdana', 'Geneva', 'Lucid', 'Arial', 'Helvetica', 'Avant Garde', sans-serif; text-anchor: start; fill: #0b0b0b" x="283.914414" y="717.140234" transform="rotate(-0 283.914414 717.140234)">write_tools_freeform</text>
   </g>
   <g id="line2d_91">
    <path d="M 262.664414 726.878047 
L 271.164414 726.878047 
L 279.664414 726.878047 
" style="fill: none; stroke-dasharray: 9.25,4; stroke-dashoffset: 0; stroke: #52514e; stroke-opacity: 0.85; stroke-width: 2.5"/>
    <g>
     <use xlink:href="#m7656a440a8" x="271.164414" y="726.878047" style="fill: #52514e; fill-opacity: 0.85; stroke: #52514e; stroke-opacity: 0.85; stroke-linejoin: miter"/>
    </g>
   </g>
   <g id="text_36">
    <text style="font-size: 8.5px; font-family: 'DejaVu Sans', 'Bitstream Vera Sans', 'Computer Modern Sans Serif', 'Lucida Grande', 'Verdana', 'Geneva', 'Lucid', 'Arial', 'Helvetica', 'Avant Garde', sans-serif; text-anchor: start; fill: #0b0b0b" x="283.914414" y="729.853047" transform="rotate(-0 283.914414 729.853047)">overall mean</text>
   </g>
  </g>
 </g>
 <defs>
  <clipPath id="pfc80f25740">
   <rect x="64.8" y="50.4" width="432" height="131.478261"/>
  </clipPath>
  <clipPath id="pe743749d34">
   <rect x="64.8" y="208.173913" width="432" height="131.478261"/>
  </clipPath>
  <clipPath id="p0beac7aa7e">
   <rect x="64.8" y="365.947826" width="432" height="131.478261"/>
  </clipPath>
  <clipPath id="pf99fab5baa">
   <rect x="64.8" y="523.721739" width="432" height="131.478261"/>
  </clipPath>
 </defs>
</svg>
