<?xml version="1.0" encoding="utf-8" standalone="no"?>
<!DOCTYPE svg PUBLIC "-//W3C//DTD SVG 1.1//EN"
  "http://www.w3.org/Graphics/SVG/1.1/DTD/svg11.dtd">
<svg xmlns:xlink="http://www.w3.org/1999/xlink" width="518.4pt" height="756pt" viewBox="0 0 518.4 756" xmlns="http://www.w3.org/2000/svg" version="1.1">
 <metadata>
  <rdf:RDF xmlns:dc="http://purl.org/dc/elements/1.1/" xmlns:cc="http://creativecommons.org/ns#" xmlns:rdf="http://www.w3.org/1999/02/22-rdf-syntax-ns#">
   <cc:Work>
    <dc:type rdf:resource="http://purl.org/dc/dcmitype/StillImage"/>
    <dc:format>image/svg+xml</dc:format>
    <dc:creator>
     <cc:Agent>
      <dc:title>Matplotlib v3.10.9, https://matplotlib.org/</dc:title>
     </cc:Agent>
    </dc:creator>
   </cc:Work>
  </rdf:RDF>
 </metadata>
 <defs>
  <style type="text/css">*{stroke-linejoin: round; stroke-linecap: butt}</style>
 </defs>
 <g id="figure_1">
  <g id="patch_1">
   <path d="M 0 756 
L 518.4 756 
L 518.4 0 
L 0 0 
L 0 756 
z
" style="fill: none"/>
  </g>
  <g id="axes_1">
   <g id="patch_2">
    <path d="M 64.8 181.878261 
L 496.8 181.878261 
L 496.8 50.4 
L 64.8 50.4 
L 64.8 181.878261 
z
" style="fill: none"/>
   </g>
   <g id="matplotlib.axis_1">
    <g id="xtick_1">
     <g id="line2d_1">
      <path d="M 153.741176 181.878261 
L 153.741176 50.4 
" clip-path="url(#pcc9664dae0)" style="fill: none; stroke: #b0b0b0; stroke-opacity: 0.3; stroke-width: 0.8; stroke-linecap: square"/>
     </g>
     <g id="line2d_2">
      <defs>
       <path id="mf56a56b80a" d="M 0 0 
L 0 3.5 
" style="stroke: #000000; stroke-width: 0.8"/>
      </defs>
      <g>
       <use xlink:href="#mf56a56b80a" x="153.741176" y="181.878261" style="stroke: #000000; stroke-width: 0.8"/>
      </g>
     </g>
    </g>
    <g id="xtick_2">
     <g id="line2d_3">
      <path d="M 407.858824 181.878261 
L 407.858824 50.4 
" clip-path="url(#pcc9664dae0)" style="fill: none; stroke: #b0b0b0; stroke-opacity: 0.3; stroke-width: 0.8; stroke-linecap: square"/>
     </g>
     <g id="line2d_4">
      <g>
       <use xlink:href="#mf56a56b80a" x="407.858824" y="181.878261" style="stroke: #000000; stroke-width: 0.8"/>
      </g>
     </g>
    </g>
   </g>
   <g id="matplotlib.axis_2">
    <g id="ytick_1">
     <g id="line2d_5">
      <path d="M 64.8 178.157178 
L 496.8 178.157178 
" clip-path="url(#pcc9664dae0)" style="fill: none; stroke: #b0b0b0; stroke-opacity: 0.3; stroke-width: 0.8; stroke-linecap: square"/>
     </g>
     <g id="line2d_6">
      <defs>
       <path id="m84a299cfe8" d="M 0 0 
L -3.5 0 
" style="stroke: #000000; stroke-width: 0.8"/>
      </defs>
      <g>
       <use xlink:href="#m84a299cfe8" x="64.8" y="178.157178" style="stroke: #000000; stroke-width: 0.8"/>
      </g>
     </g>
     <g id="text_1">
      <text style="font-size: 11px; font-family: 'DejaVu Sans', 'Bitstream Vera Sans', 'Computer Modern Sans Serif', 'Lucida Grande', 'Verdana', 'Geneva', 'Lucid', 'Arial', 'Helvetica', 'Avant Garde', sans-serif; text-anchor: end" x="57.8" y="182.336319" transform="rotate(-0 57.8 182.336319)">0.00</text>
     </g>
    </g>
    <g id="ytick_2">
     <g id="line2d_7">
      <path d="M 64.8 147.148154 
L 496.8 147.148154 
" clip-path="url(#pcc9664dae0)" style="fill: none; stroke: #b0b0b0; stroke-opacity: 0.3; stroke-width: 0.8; stroke-linecap: square"/>
     </g>
     <g id="line2d_8">
      <g>
       <use xlink:href="#m84a299cfe8" x="64.8" y="147.148154" style="stroke: #000000; stroke-width: 0.8"/>
      </g>
     </g>
     <g id="text_2">
      <text style="font-size: 11px; font-family: 'DejaVu Sans', 'Bitstream Vera Sans', 'Computer Modern Sans Serif', 'Lucida Grande', 'Verdana', 'Geneva', 'Lucid', 'Arial', 'Helvetica', 'Avant Garde', sans-serif; text-anchor: end" x="57.8" y="151.327295" transform="rotate(-0 57.8 151.327295)">0.25</text>
     </g>
    </g>
    <g id="ytick_3">
     <g id="line2d_9">
      <path d="M 64.8 116.13913 
L 496.8 116.13913 
" clip-path="url(#pcc9664dae0)" style="fill: none; stroke: #b0b0b0; stroke-opacity: 0.3; stroke-width: 0.8; stroke-linecap: square"/>
     </g>
     <g id="line2d_10">
      <g>
       <use xlink:href="#m84a299cfe8" x="64.8" y="116.13913" style="stroke: #000000; stroke-width: 0.8"/>
      </g>
     </g>
     <g id="text_3">
      <text style="font-size: 11px; font-family: 'DejaVu Sans', 'Bitstream Vera Sans', 'Computer Modern Sans Serif', 'Lucida Grande', 'Verdana', 'Geneva', 'Lucid', 'Arial', 'Helvetica', 'Avant Garde', sans-serif; text-anchor: end" x="57.8" y="120.318271" transform="rotate(-0 57.8 120.318271)">0.50</text>
     </g>
    </g>
    <g id="ytick_4">
     <g id="line2d_11">
      <path d="M 64.8 85.130107 
L 496.8 85.130107 
" clip-path="url(#pcc9664dae0)" style="fill: none; stroke: #b0b0b0; stroke-opacity: 0.3; stroke-width: 0.8; stroke-linecap: square"/>
     </g>
     <g id="line2d_12">
      <g>
       <use xlink:href="#m84a299cfe8" x="64.8" y="85.130107" style="stroke: #000000; stroke-width: 0.8"/>
      </g>
     </g>
     <g id="text_4">
      <text style="font-size: 11px; font-family: 'DejaVu Sans', 'Bitstream Vera Sans', 'Computer Modern Sans Serif', 'Lucida Grande', 'Verdana', 'Geneva', 'Lucid', 'Arial', 'Helvetica', 'Avant Garde', sans-serif; text-anchor: end" x="57.8" y="89.309247" transform="rotate(-0 57.8 89.309247)">0.75</text>
     </g>
    </g>
    <g id="ytick_5">
     <g id="line2d_13">
      <path d="M 64.8 54.121083 
L 496.8 54.121083 
" clip-path="url(#pcc9664dae0)" style="fill: none; stroke: #b0b0b0; stroke-opacity: 0.3; stroke-width: 0.8; stroke-linecap: square"/>
     </g>
     <g id="line2d_14">
      <g>
       <use xlink:href="#m84a299cfe8" x="64.8" y="54.121083" style="stroke: #000000; stroke-width: 0.8"/>
      </g>
     </g>
     <g id="text_5">
      <text style="font-size: 11px; font-family: 'DejaVu Sans', 'Bitstream Vera Sans', 'Computer Modern Sans Serif', 'Lucida Grande', 'Verdana', 'Geneva', 'Lucid', 'Arial', 'Helvetica', 'Avant Garde', sans-serif; text-anchor: end" x="57.8" y="58.300223" transform="rotate(-0 57.8 58.300223)">1.00</text>
     </g>
    </g>
    <g id="text_6">
     <text style="font-size: 11px; font-family: 'DejaVu Sans', 'Bitstream Vera Sans', 'Computer Modern Sans Serif', 'Lucida Grande', 'Verdana', 'Geneva', 'Lucid', 'Arial', 'Helvetica', 'Avant Garde', sans-serif; text-anchor: middle" x="27.020156" y="116.13913" transform="rotate(-90 27.020156 116.13913)">Recall</text>
    </g>
   </g>
   <g id="patch_3">
    <path d="M 64.8 181.878261 
L 64.8 50.4 
" style="fill: none; stroke: #000000; stroke-width: 0.8; stroke-linejoin: miter; stroke-linecap: square"/>
   </g>
   <g id="patch_4">
    <path d="M 64.8 181.878261 
L 496.8 181.878261 
" style="fill: none; stroke: #000000; stroke-width: 0.8; stroke-linejoin: miter; stroke-linecap: square"/>
   </g>
   <g id="line2d_15">
    <path d="M 153.741176 90.263602 
L 407.858824 57.719028 
" clip-path="url(#pcc9664dae0)" style="fill: none; stroke: #f58518; stroke-width: 2; stroke-linecap: square"/>
    <defs>
     <path id="mfa3e1f313a" d="M 0 3.5 
C 0.928211 3.5 1.81853 3.131218 2.474874 2.474874 
C 3.131218 1.81853 3.5 0.928211 3.5 0 
C 3.5 -0.928211 3.131218 -1.81853 2.474874 -2.474874 
C 1.81853 -3.131218 0.928211 -3.5 0 -3.5 
C -0.928211 -3.5 -1.81853 -3.131218 -2.474874 -2.474874 
C -3.131218 -1.81853 -3.5 -0.928211 -3.5 0 
C -3.5 0.928211 -3.131218 1.81853 -2.474874 2.474874 
C -1.81853 3.131218 -0.928211 3.5 0 3.5 
z
" style="stroke: #fcfcfb"/>
    </defs>
    <g clip-path="url(#pcc9664dae0)">
     <use xlink:href="#mfa3e1f313a" x="153.741176" y="90.263602" style="fill: #f58518; stroke: #fcfcfb"/>
     <use xlink:href="#mfa3e1f313a" x="407.858824" y="57.719028" style="fill: #f58518; stroke: #fcfcfb"/>
    </g>
   </g>
   <g id="line2d_16">
    <path d="M 153.741176 106.584465 
L 407.858824 58.356642 
" clip-path="url(#pcc9664dae0)" style="fill: none; stroke: #b279a2; stroke-width: 2; stroke-linecap: square"/>
    <defs>
     <path id="m46d7c122ce" d="M 0 3.5 
C 0.928211 3.5 1.81853 3.131218 2.474874 2.474874 
C 3.131218 1.81853 3.5 0.928211 3.5 0 
C 3.5 -0.928211 3.131218 -1.81853 2.474874 -2.474874 
C 1.81853 -3.131218 0.928211 -3.5 0 -3.5 
C -0.928211 -3.5 -1.81853 -3.131218 -2.474874 -2.474874 
C -3.131218 -1.81853 -3.5 -0.928211 -3.5 0 
C -3.5 0.928211 -3.131218 1.81853 -2.474874 2.474874 
C -1.81853 3.131218 -0.928211 3.5 0 3.5 
z
" style="stroke: #fcfcfb"/>
    </defs>
    <g clip-path="url(#pcc9664dae0)">
     <use xlink:href="#m46d7c122ce" x="153.741176" y="106.584465" style="fill: #b279a2; stroke: #fcfcfb"/>
     <use xlink:href="#m46d7c122ce" x="407.858824" y="58.356642" style="fill: #b279a2; stroke: #fcfcfb"/>
    </g>
   </g>
   <g id="PathCollection_1">
    <defs>
     <path id="m158ca34fc0" d="M 0 3.535534 
C 0.937635 3.535534 1.836992 3.163008 2.5 2.5 
C 3.163008 1.836992 3.535534 0.937635 3.535534 0 
C 3.535534 -0.937635 3.163008 -1.836992 2.5 -2.5 
C 1.836992 -3.163008 0.937635 -3.535534 0 -3.535534 
C -0.937635 -3.535534 -1.836992 -3.163008 -2.5 -2.5 
C -3.163008 -1.836992 -3.535534 -0.937635 -3.535534 0 
C -3.535534 0.937635 -3.163008 1.836992 -2.5 2.5 
C -1.836992 3.163008 -0.937635 3.535534 0 3.535534 
z
" style="stroke: #fcfcfb"/>
    </defs>
    <g clip-path="url(#pcc9664dae0)">
     <use xlink:href="#m158ca34fc0" x="407.858824" y="70.271664" style="fill: #e45756; stroke: #fcfcfb"/>
    </g>
   </g>
   <g id="line2d_17">
    <path d="M 153.741176 116.426426 
L 407.858824 71.309575 
" clip-path="url(#pcc9664dae0)" style="fill: none; stroke: #54a24b; stroke-width: 2; stroke-linecap: square"/>
    <defs>
     <path id="m04703664bd" d="M 0 3.5 
C 0.928211 3.5 1.81853 3.131218 2.474874 2.474874 
C 3.131218 1.81853 3.5 0.928211 3.5 0 
C 3.5 -0.928211 3.131218 -1.81853 2.474874 -2.474874 
C 1.81853 -3.131218 0.928211 -3.5 0 -3.5 
C -0.928211 -3.5 -1.81853 -3.131218 -2.474874 -2.474874 
C -3.131218 -1.81853 -3.5 -0.928211 -3.5 0 
C -3.5 0.928211 -3.131218 1.81853 -2.474874 2.474874 
C -1.81853 3.131218 -0.928211 3.5 0 3.5 
z
" style="stroke: #fcfcfb"/>
    </defs>
    <g clip-path="url(#pcc9664dae0)">
     <use xlink:href="#m04703664bd" x="153.741176" y="116.426426" style="fill: #54a24b; stroke: #fcfcfb"/>
     <use xlink:href="#m04703664bd" x="407.858824" y="71.309575" style="fill: #54a24b; stroke: #fcfcfb"/>
    </g>
   </g>
   <g id="line2d_18">
    <path d="M 153.741176 98.439979 
L 407.858824 67.296152 
" clip-path="url(#pcc9664dae0)" style="fill: none; stroke: #eeca3b; stroke-width: 2; stroke-linecap: square"/>
    <defs>
     <path id="m05f092767a" d="M 0 3.5 
C 0.928211 3.5 1.81853 3.131218 2.474874 2.474874 
C 3.131218 1.81853 3.5 0.928211 3.5 0 
C 3.5 -0.928211 3.131218 -1.81853 2.474874 -2.474874 
C 1.81853 -3.131218 0.928211 -3.5 0 -3.5 
C -0.928211 -3.5 -1.81853 -3.131218 -2.474874 -2.474874 
C -3.131218 -1.81853 -3.5 -0.928211 -3.5 0 
C -3.5 0.928211 -3.131218 1.81853 -2.474874 2.474874 
C -1.81853 3.131218 -0.928211 3.5 0 3.5 
z
" style="stroke: #fcfcfb"/>
    </defs>
    <g clip-path="url(#pcc9664dae0)">
     <use xlink:href="#m05f092767a" x="153.741176" y="98.439979" style="fill: #eeca3b; stroke: #fcfcfb"/>
     <use xlink:href="#m05f092767a" x="407.858824" y="67.296152" style="fill: #eeca3b; stroke: #fcfcfb"/>
    </g>
   </g>
   <g id="line2d_19">
    <path d="M 153.741176 94.098812 
L 407.858824 70.299704 
" clip-path="url(#pcc9664dae0)" style="fill: none; stroke: #4c78a8; stroke-width: 2; stroke-linecap: square"/>
    <defs>
     <path id="me1c3f8a202" d="M 0 3.5 
C 0.928211 3.5 1.81853 3.131218 2.474874 2.474874 
C 3.131218 1.81853 3.5 0.928211 3.5 0 
C 3.5 -0.928211 3.131218 -1.81853 2.474874 -2.474874 
C 1.81853 -3.131218 0.928211 -3.5 0 -3.5 
C -0.928211 -3.5 -1.81853 -3.131218 -2.474874 -2.474874 
C -3.131218 -1.81853 -3.5 -0.928211 -3.5 0 
C -3.5 0.928211 -3.131218 1.81853 -2.474874 2.474874 
C -1.81853 3.131218 -0.928211 3.5 0 3.5 
z
" style="stroke: #fcfcfb"/>
    </defs>
    <g clip-path="url(#pcc9664dae0)">
     <use xlink:href="#me1c3f8a202" x="153.741176" y="94.098812" style="fill: #4c78a8; stroke: #fcfcfb"/>
     <use xlink:href="#me1c3f8a202" x="407.858824" y="70.299704" style="fill: #4c78a8; stroke: #fcfcfb"/>
    </g>
   </g>
   <g id="PathCollection_2">
    <defs>
     <path id="m44ce75e8b5" d="M 0 3.535534 
C 0.937635 3.535534 1.836992 3.163008 2.5 2.5 
C 3.163008 1.836992 3.535534 0.937635 3.535534 0 
C 3.535534 -0.937635 3.163008 -1.836992 2.5 -2.5 
C 1.836992 -3.163008 0.937635 -3.535534 0 -3.535534 
C -0.937635 -3.535534 -1.836992 -3.163008 -2.5 -2.5 
C -3.163008 -1.836992 -3.535534 -0.937635 -3.535534 0 
C -3.535534 0.937635 -3.163008 1.836992 -2.5 2.5 
C -1.836992 3.163008 -0.937635 3.535534 0 3.535534 
z
" style="stroke: #fcfcfb"/>
    </defs>
    <g clip-path="url(#pcc9664dae0)">
     <use xlink:href="#m44ce75e8b5" x="407.858824" y="76.6731" style="fill: #72b7b2; stroke: #fcfcfb"/>
    </g>
   </g>
   <g id="line2d_20">
    <path d="M 153.741176 101.222017 
L 407.858824 67.288332 
" clip-path="url(#pcc9664dae0)" style="fill: none; stroke-dasharray: 9.25,4; stroke-dashoffset: 0; stroke: #52514e; stroke-opacity: 0.85; stroke-width: 2.5"/>
    <defs>
     <path id="mc7e902bf51" d="M -0 4.242641 
L 4.242641 0 
L 0 -4.242641 
L -4.242641 -0 
z
" style="stroke: #52514e; stroke-opacity: 0.85; stroke-linejoin: miter"/>
    </defs>
    <g clip-path="url(#pcc9664dae0)">
     <use xlink:href="#mc7e902bf51" x="153.741176" y="101.222017" style="fill: #52514e; fill-opacity: 0.85; stroke: #52514e; stroke-opacity: 0.85; stroke-linejoin: miter"/>
     <use xlink:href="#mc7e902bf51" x="407.858824" y="67.288332" style="fill: #52514e; fill-opacity: 0.85; stroke: #52514e; stroke-opacity: 0.85; stroke-linejoin: miter"/>
    </g>
   </g>
  </g>
  <g id="axes_2">
   <g id="patch_5">
    <path d="M 64.8 339.652174 
L 496.8 339.652174 
L 496.8 208.173913 
L 64.8 208.173913 
L 64.8 339.652174 
z
" style="fill: none"/>
   </g>
   <g id="matplotlib.axis_3">
    <g id="xtick_3">
     <g id="line2d_21">
      <path d="M 153.741176 339.652174 
L 153.741176 208.173913 
" clip-path="url(#pb3f5249c8e)" style="fill: none; stroke: #b0b0b0; stroke-opacity: 0.3; stroke-width: 0.8; stroke-linecap: square"/>
     </g>
     <g id="line2d_22">
      <g>
       <use xlink:href="#mf56a56b80a" x="153.741176" y="339.652174" style="stroke: #000000; stroke-width: 0.8"/>
      </g>
     </g>
    </g>
    <g id="xtick_4">
     <g id="line2d_23">
      <path d="M 407.858824 339.652174 
L 407.858824 208.173913 
" clip-path="url(#pb3f5249c8e)" style="fill: none; stroke: #b0b0b0; stroke-opacity: 0.3; stroke-width: 0.8; stroke-linecap: square"/>
     </g>
     <g id="line2d_24">
      <g>
       <use xlink:href="#mf56a56b80a" x="407.858824" y="339.652174" style="stroke: #000000; stroke-width: 0.8"/>
      </g>
     </g>
    </g>
   </g>
   <g id="matplotlib.axis_4">
    <g id="ytick_6">
     <g id="line2d_25">
      <path d="M 64.8 335.931091 
L 496.8 335.931091 
" clip-path="url(#pb3f5249c8e)" style="fill: none; stroke: #b0b0b0; stroke-opacity: 0.3; stroke-width: 0.8; stroke-linecap: square"/>
     </g>
     <g id="line2d_26">
      <g>
       <use xlink:href="#m84a299cfe8" x="64.8" y="335.931091" style="stroke: #000000; stroke-width: 0.8"/>
      </g>
     </g>
     <g id="text_7">
      <text style="font-size: 11px; font-family: 'DejaVu Sans', 'Bitstream Vera Sans', 'Computer Modern Sans Serif', 'Lucida Grande', 'Verdana', 'Geneva', 'Lucid', 'Arial', 'Helvetica', 'Avant Garde', sans-serif; text-anchor: end" x="57.8" y="340.110232" transform="rotate(-0 57.8 340.110232)">0.00</text>
     </g>
    </g>
    <g id="ytick_7">
     <g id="line2d_27">
      <path d="M 64.8 304.922067 
L 496.8 304.922067 
" clip-path="url(#pb3f5249c8e)" style="fill: none; stroke: #b0b0b0; stroke-opacity: 0.3; stroke-width: 0.8; stroke-linecap: square"/>
     </g>
     <g id="line2d_28">
      <g>
       <use xlink:href="#m84a299cfe8" x="64.8" y="304.922067" style="stroke: #000000; stroke-width: 0.8"/>
      </g>
     </g>
     <g id="text_8">
      <text style="font-size: 11px; font-family: 'DejaVu Sans', 'Bitstream Vera Sans', 'Computer Modern Sans Serif', 'Lucida Grande', 'Verdana', 'Geneva', 'Lucid', 'Arial', 'Helvetica', 'Avant Garde', sans-serif; text-anchor: end" x="57.8" y="309.101208" transform="rotate(-0 57.8 309.101208)">0.25</text>
     </g>
    </g>
    <g id="ytick_8">
     <g id="line2d_29">
      <path d="M 64.8 273.913043 
L 496.8 273.913043 
" clip-path="url(#pb3f5249c8e)" style="fill: none; stroke: #b0b0b0; stroke-opacity: 0.3; stroke-width: 0.8; stroke-linecap: square"/>
     </g>
     <g id="line2d_30">
      <g>
       <use xlink:href="#m84a299cfe8" x="64.8" y="273.913043" style="stroke: #000000; stroke-width: 0.8"/>
      </g>
     </g>
     <g id="text_9">
      <text style="font-size: 11px; font-family: 'DejaVu Sans', 'Bitstream Vera Sans', 'Computer Modern Sans Serif', 'Lucida Grande', 'Verdana', 'Geneva', 'Lucid', 'Arial', 'Helvetica', 'Avant Garde', sans-serif; text-anchor: end" x="57.8" y="278.092184" transform="rotate(-0 57.8 278.092184)">0.50</text>
     </g>
    </g>
    <g id="ytick_9">
     <g id="line2d_31">
      <path d="M 64.8 242.90402 
L 496.8 242.90402 
" clip-path="url(#pb3f5249c8e)" style="fill: none; stroke: #b0b0b0; stroke-opacity: 0.3; stroke-width: 0.8; stroke-linecap: square"/>
     </g>
     <g id="line2d_32">
      <g>
       <use xlink:href="#m84a299cfe8" x="64.8" y="242.90402" style="stroke: #000000; stroke-width: 0.8"/>
      </g>
     </g>
     <g id="text_10">
      <text style="font-size: 11px; font-family: 'DejaVu Sans', 'Bitstream Vera Sans', 'Computer Modern Sans Serif', 'Lucida Grande', 'Verdana', 'Geneva', 'Lucid', 'Arial', 'Helvetica', 'Avant Garde', sans-serif; text-anchor: end" x="57.8" y="247.08316" transform="rotate(-0 57.8 247.08316)">0.75</text>
     </g>
    </g>
    <g id="ytick_10">
     <g id="line2d_33">
      <path d="M 64.8 211.894996 
L 496.8 211.894996 
" clip-path="url(#pb3f5249c8e)" style="fill: none; stroke: #b0b0b0; stroke-opacity: 0.3; stroke-width: 0.8; stroke-linecap: square"/>
     </g>
     <g id="line2d_34">
      <g>
       <use xlink:href="#m84a299cfe8" x="64.8" y="211.894996" style="stroke: #000000; stroke-width: 0.8"/>
      </g>
     </g>
     <g id="text_11">
      <text style="font-size: 11px; font-family: 'DejaVu Sans', 'Bitstream Vera Sans', 'Computer Modern Sans Serif', 'Lucida Grande', 'Verdana', 'Geneva', 'Lucid', 'Arial', 'Helvetica', 'Avant Garde', sans-serif; text-anchor: end" x="57.8" y="216.074137" transform="rotate(-0 57.8 216.074137)">1.00</text>
     </g>
    </g>
    <g id="text_12">
     <text style="font-size: 11px; font-family: 'DejaVu Sans', 'Bitstream Vera Sans', 'Computer Modern Sans Serif', 'Lucida Grande', 'Verdana', 'Geneva', 'Lucid', 'Arial', 'Helvetica', 'Avant Garde', sans-serif; text-anchor: middle" x="27.020156" y="273.913043" transform="rotate(-90 27.020156 273.913043)">Field acc</text>
    </g>
   </g>
   <g id="patch_6">
    <path d="M 64.8 339.652174 
L 64.8 208.173913 
" style="fill: none; stroke: #000000; stroke-width: 0.8; stroke-linejoin: miter; stroke-linecap: square"/>
   </g>
   <g id="patch_7">
    <path d="M 64.8 339.652174 
L 496.8 339.652174 
" style="fill: none; stroke: #000000; stroke-width: 0.8; stroke-linejoin: miter; stroke-linecap: square"/>
   </g>
   <g id="line2d_35">
    <path d="M 153.741176 250.238405 
L 407.858824 250.444235 
" clip-path="url(#pb3f5249c8e)" style="fill: none; stroke: #f58518; stroke-width: 2; stroke-linecap: square"/>
    <g clip-path="url(#pb3f5249c8e)">
     <use xlink:href="#mfa3e1f313a" x="153.741176" y="250.238405" style="fill: #f58518; stroke: #fcfcfb"/>
     <use xlink:href="#mfa3e1f313a" x="407.858824" y="250.444235" style="fill: #f58518; stroke: #fcfcfb"/>
    </g>
   </g>
   <g id="line2d_36">
    <path d="M 153.741176 253.984157 
L 407.858824 252.906274 
" clip-path="url(#pb3f5249c8e)" style="fill: none; stroke: #b279a2; stroke-width: 2; stroke-linecap: square"/>
    <g clip-path="url(#pb3f5249c8e)">
     <use xlink:href="#m46d7c122ce" x="153.741176" y="253.984157" style="fill: #b279a2; stroke: #fcfcfb"/>
     <use xlink:href="#m46d7c122ce" x="407.858824" y="252.906274" style="fill: #b279a2; stroke: #fcfcfb"/>
    </g>
   </g>
   <g id="PathCollection_3">
    <g clip-path="url(#pb3f5249c8e)">
     <use xlink:href="#m158ca34fc0" x="407.858824" y="252.96095" style="fill: #e45756; stroke: #fcfcfb"/>
    </g>
   </g>
   <g id="line2d_37">
    <path d="M 153.741176 245.833921 
L 407.858824 249.896912 
" clip-path="url(#pb3f5249c8e)" style="fill: none; stroke: #54a24b; stroke-width: 2; stroke-linecap: square"/>
    <g clip-path="url(#pb3f5249c8e)">
     <use xlink:href="#m04703664bd" x="153.741176" y="245.833921" style="fill: #54a24b; stroke: #fcfcfb"/>
     <use xlink:href="#m04703664bd" x="407.858824" y="249.896912" style="fill: #54a24b; stroke: #fcfcfb"/>
    </g>
   </g>
   <g id="line2d_38">
    <path d="M 153.741176 247.660965 
L 407.858824 250.779724 
" clip-path="url(#pb3f5249c8e)" style="fill: none; stroke: #eeca3b; stroke-width: 2; stroke-linecap: square"/>
    <g clip-path="url(#pb3f5249c8e)">
     <use xlink:href="#m05f092767a" x="153.741176" y="247.660965" style="fill: #eeca3b; stroke: #fcfcfb"/>
     <use xlink:href="#m05f092767a" x="407.858824" y="250.779724" style="fill: #eeca3b; stroke: #fcfcfb"/>
    </g>
   </g>
   <g id="line2d_39">
    <path d="M 153.741176 250.659871 
L 407.858824 250.547913 
" clip-path="url(#pb3f5249c8e)" style="fill: none; stroke: #4c78a8; stroke-width: 2; stroke-linecap: square"/>
    <g clip-path="url(#pb3f5249c8e)">
     <use xlink:href="#me1c3f8a202" x="153.741176" y="250.659871" style="fill: #4c78a8; stroke: #fcfcfb"/>
     <use xlink:href="#me1c3f8a202" x="407.858824" y="250.547913" style="fill: #4c78a8; stroke: #fcfcfb"/>
    </g>
   </g>
   <g id="PathCollection_4">
    <g clip-path="url(#pb3f5249c8e)">
     <use xlink:href="#m44ce75e8b5" x="407.858824" y="254.508064" style="fill: #72b7b2; stroke: #fcfcfb"/>
    </g>
   </g>
   <g id="line2d_40">
    <path d="M 153.741176 249.62761 
L 407.858824 251.652775 
" clip-path="url(#pb3f5249c8e)" style="fill: none; stroke-dasharray: 9.25,4; stroke-dashoffset: 0; stroke: #52514e; stroke-opacity: 0.85; stroke-width: 2.5"/>
    <g clip-path="url(#pb3f5249c8e)">
     <use xlink:href="#mc7e902bf51" x="153.741176" y="249.62761" style="fill: #52514e; fill-opacity: 0.85; stroke: #52514e; stroke-opacity: 0.85; stroke-linejoin: miter"/>
     <use xlink:href="#mc7e902bf51" x="407.858824" y="251.652775" style="fill: #52514e; fill-opacity: 0.85; stroke: #52514e; stroke-opacity: 0.85; stroke-linejoin: miter"/>
    </g>
   </g>
  </g>
  <g id="axes_3">
   <g id="patch_8">
    <path d="M 64.8 497.426087 
L 496.8 497.426087 
L 496.8 365.947826 
L 64.8 365.947826 
L 64.8 497.426087 
z
" style="fill: none"/>
   </g>
   <g id="matplotlib.axis_5">
    <g id="xtick_5">
     <g id="line2d_41">
      <path d="M 153.741176 497.426087 
L 153.741176 365.947826 
" clip-path="url(#pa5470cd270)" style="fill: none; stroke: #b0b0b0; stroke-opacity: 0.3; stroke-width: 0.8; stroke-linecap: square"/>
     </g>
     <g id="line2d_42">
      <g>
       <use xlink:href="#mf56a56b80a" x="153.741176" y="497.426087" style="stroke: #000000; stroke-width: 0.8"/>
      </g>
     </g>
    </g>
    <g id="xtick_6">
     <g id="line2d_43">
      <path d="M 407.858824 497.426087 
L 407.858824 365.947826 
" clip-path="url(#pa5470cd270)" style="fill: none; stroke: #b0b0b0; stroke-opacity: 0.3; stroke-width: 0.8; stroke-linecap: square"/>
     </g>
     <g id="line2d_44">
      <g>
       <use xlink:href="#mf56a56b80a" x="407.858824" y="497.426087" style="stroke: #000000; stroke-width: 0.8"/>
      </g>
     </g>
    </g>
   </g>
   <g id="matplotlib.axis_6">
    <g id="ytick_11">
     <g id="line2d_45">
      <path d="M 64.8 493.705004 
L 496.8 493.705004 
" clip-path="url(#pa5470cd270)" style="fill: none; stroke: #b0b0b0; stroke-opacity: 0.3; stroke-width: 0.8; stroke-linecap: square"/>
     </g>
     <g id="line2d_46">
      <g>
       <use xlink:href="#m84a299cfe8" x="64.8" y="493.705004" style="stroke: #000000; stroke-width: 0.8"/>
      </g>
     </g>
     <g id="text_13">
      <text style="font-size: 11px; font-family: 'DejaVu Sans', 'Bitstream Vera Sans', 'Computer Modern Sans Serif', 'Lucida Grande', 'Verdana', 'Geneva', 'Lucid', 'Arial', 'Helvetica', 'Avant Garde', sans-serif; text-anchor: end" x="57.8" y="497.884145" transform="rotate(-0 57.8 497.884145)">0.00</text>
     </g>
    </g>
    <g id="ytick_12">
     <g id="line2d_47">
      <path d="M 64.8 462.69598 
L 496.8 462.69598 
" clip-path="url(#pa5470cd270)" style="fill: none; stroke: #b0b0b0; stroke-opacity: 0.3; stroke-width: 0.8; stroke-linecap: square"/>
     </g>
     <g id="line2d_48">
      <g>
       <use xlink:href="#m84a299cfe8" x="64.8" y="462.69598" style="stroke: #000000; stroke-width: 0.8"/>
      </g>
     </g>
     <g id="text_14">
      <text style="font-size: 11px; font-family: 'DejaVu Sans', 'Bitstream Vera Sans', 'Computer Modern Sans Serif', 'Lucida Grande', 'Verdana', 'Geneva', 'Lucid', 'Arial', 'Helvetica', 'Avant Garde', sans-serif; text-anchor: end" x="57.8" y="466.875121" transform="rotate(-0 57.8 466.875121)">0.25</text>
     </g>
    </g>
    <g id="ytick_13">
     <g id="line2d_49">
      <path d="M 64.8 431.686957 
L 496.8 431.686957 
" clip-path="url(#pa5470cd270)" style="fill: none; stroke: #b0b0b0; stroke-opacity: 0.3; stroke-width: 0.8; stroke-linecap: square"/>
     </g>
     <g id="line2d_50">
      <g>
       <use xlink:href="#m84a299cfe8" x="64.8" y="431.686957" style="stroke: #000000; stroke-width: 0.8"/>
      </g>
     </g>
     <g id="text_15">
      <text style="font-size: 11px; font-family: 'DejaVu Sans', 'Bitstream Vera Sans', 'Computer Modern Sans Serif', 'Lucida Grande', 'Verdana', 'Geneva', 'Lucid', 'Arial', 'Helvetica', 'Avant Garde', sans-serif; text-anchor: end" x="57.8" y="435.866097" transform="rotate(-0 57.8 435.866097)">0.50</text>
     </g>
    </g>
    <g id="ytick_14">
     <g id="line2d_51">
      <path d="M 64.8 400.677933 
L 496.8 400.677933 
" clip-path="url(#pa5470cd270)" style="fill: none; stroke: #b0b0b0; stroke-opacity: 0.3; stroke-width: 0.8; stroke-linecap: square"/>
     </g>
     <g id="line2d_52">
      <g>
       <use xlink:href="#m84a299cfe8" x="64.8" y="400.677933" style="stroke: #000000; stroke-width: 0.8"/>
      </g>
     </g>
     <g id="text_16">
      <text style="font-size: 11px; font-family: 'DejaVu Sans', 'Bitstream Vera Sans', 'Computer Modern Sans Serif', 'Lucida Grande', 'Verdana', 'Geneva', 'Lucid', 'Arial', 'Helvetica', 'Avant Garde', sans-serif; text-anchor: end" x="57.8" y="404.857073" transform="rotate(-0 57.8 404.857073)">0.75</text>
     </g>
    </g>
    <g id="ytick_15">
     <g id="line2d_53">
      <path d="M 64.8 369.668909 
L 496.8 369.668909 
" clip-path="url(#pa5470cd270)" style="fill: none; stroke: #b0b0b0; stroke-opacity: 0.3; stroke-width: 0.8; stroke-linecap: square"/>
     </g>
     <g id="line2d_54">
      <g>
       <use xlink:href="#m84a299cfe8" x="64.8" y="369.668909" style="stroke: #000000; stroke-width: 0.8"/>
      </g>
     </g>
     <g id="text_17">
      <text style="font-size: 11px; font-family: 'DejaVu Sans', 'Bitstream Vera Sans', 'Computer Modern Sans Serif', 'Lucida Grande', 'Verdana', 'Geneva', 'Lucid', 'Arial', 'Helvetica', 'Avant Garde', sans-serif; text-anchor: end" x="57.8" y="373.84805" transform="rotate(-0 57.8 373.84805)">1.00</text>
     </g>
    </g>
    <g id="text_18">
     <text style="font-size: 11px; font-family: 'DejaVu Sans', 'Bitstream Vera Sans', 'Computer Modern Sans Serif', 'Lucida Grande', 'Verdana', 'Geneva', 'Lucid', 'Arial', 'Helvetica', 'Avant Garde', sans-serif; text-anchor: middle" x="27.020156" y="431.686957" transform="rotate(-90 27.020156 431.686957)">Mat rate</text>
    </g>
   </g>
   <g id="patch_9">
    <path d="M 64.8 497.426087 
L 64.8 365.947826 
" style="fill: none; stroke: #000000; stroke-width: 0.8; stroke-linejoin: miter; stroke-linecap: square"/>
   </g>
   <g id="patch_10">
    <path d="M 64.8 497.426087 
L 496.8 497.426087 
" style="fill: none; stroke: #000000; stroke-width: 0.8; stroke-linejoin: miter; stroke-linecap: square"/>
   </g>
   <g id="line2d_55">
    <path d="M 153.741176 402.745201 
L 407.858824 372.769811 
" clip-path="url(#pa5470cd270)" style="fill: none; stroke: #f58518; stroke-width: 2; stroke-linecap: square"/>
    <g clip-path="url(#pa5470cd270)">
     <use xlink:href="#mfa3e1f313a" x="153.741176" y="402.745201" style="fill: #f58518; stroke: #fcfcfb"/>
     <use xlink:href="#mfa3e1f313a" x="407.858824" y="372.769811" style="fill: #f58518; stroke: #fcfcfb"/>
    </g>
   </g>
   <g id="line2d_56">
    <path d="M 153.741176 421.350615 
L 407.858824 372.769811 
" clip-path="url(#pa5470cd270)" style="fill: none; stroke: #b279a2; stroke-width: 2; stroke-linecap: square"/>
    <g clip-path="url(#pa5470cd270)">
     <use xlink:href="#m46d7c122ce" x="153.741176" y="421.350615" style="fill: #b279a2; stroke: #fcfcfb"/>
     <use xlink:href="#m46d7c122ce" x="407.858824" y="372.769811" style="fill: #b279a2; stroke: #fcfcfb"/>
    </g>
   </g>
   <g id="PathCollection_5">
    <g clip-path="url(#pa5470cd270)">
     <use xlink:href="#m158ca34fc0" x="407.858824" y="384.139787" style="fill: #e45756; stroke: #fcfcfb"/>
    </g>
   </g>
   <g id="line2d_57">
    <path d="M 153.741176 428.586054 
L 407.858824 385.173421 
" clip-path="url(#pa5470cd270)" style="fill: none; stroke: #54a24b; stroke-width: 2; stroke-linecap: square"/>
    <g clip-path="url(#pa5470cd270)">
     <use xlink:href="#m04703664bd" x="153.741176" y="428.586054" style="fill: #54a24b; stroke: #fcfcfb"/>
     <use xlink:href="#m04703664bd" x="407.858824" y="385.173421" style="fill: #54a24b; stroke: #fcfcfb"/>
    </g>
   </g>
   <g id="line2d_58">
    <path d="M 153.741176 412.047908 
L 407.858824 381.038884 
" clip-path="url(#pa5470cd270)" style="fill: none; stroke: #eeca3b; stroke-width: 2; stroke-linecap: square"/>
    <g clip-path="url(#pa5470cd270)">
     <use xlink:href="#m05f092767a" x="153.741176" y="412.047908" style="fill: #eeca3b; stroke: #fcfcfb"/>
     <use xlink:href="#m05f092767a" x="407.858824" y="381.038884" style="fill: #eeca3b; stroke: #fcfcfb"/>
    </g>
   </g>
   <g id="line2d_59">
    <path d="M 153.741176 412.047908 
L 407.858824 390.341591 
" clip-path="url(#pa5470cd270)" style="fill: none; stroke: #4c78a8; stroke-width: 2; stroke-linecap: square"/>
    <g clip-path="url(#pa5470cd270)">
     <use xlink:href="#me1c3f8a202" x="153.741176" y="412.047908" style="fill: #4c78a8; stroke: #fcfcfb"/>
     <use xlink:href="#me1c3f8a202" x="407.858824" y="390.341591" style="fill: #4c78a8; stroke: #fcfcfb"/>
    </g>
   </g>
   <g id="PathCollection_6">
    <g clip-path="url(#pa5470cd270)">
     <use xlink:href="#m44ce75e8b5" x="407.858824" y="400.677933" style="fill: #72b7b2; stroke: #fcfcfb"/>
    </g>
   </g>
   <g id="line2d_60">
    <path d="M 153.741176 415.355537 
L 407.858824 383.844463 
" clip-path="url(#pa5470cd270)" style="fill: none; stroke-dasharray: 9.25,4; stroke-dashoffset: 0; stroke: #52514e; stroke-opacity: 0.85; stroke-width: 2.5"/>
    <g clip-path="url(#pa5470cd270)">
     <use xlink:href="#mc7e902bf51" x="153.741176" y="415.355537" style="fill: #52514e; fill-opacity: 0.85; stroke: #52514e; stroke-opacity: 0.85; stroke-linejoin: miter"/>
     <use xlink:href="#mc7e902bf51" x="407.858824" y="383.844463" style="fill: #52514e; fill-opacity: 0.85; stroke: #52514e; stroke-opacity: 0.85; stroke-linejoin: miter"/>
    </g>
   </g>
  </g>
  <g id="axes_4">
   <g id="patch_11">
    <path d="M 64.8 655.2 
L 496.8 655.2 
L 496.8 523.721739 
L 64.8 523.721739 
L 64.8 655.2 
z
" style="fill: none"/>
   </g>
   <g id="matplotlib.axis_7">
    <g id="xtick_7">
     <g id="line2d_61">
      <path d="M 153.741176 655.2 
L 153.741176 523.721739 
" clip-path="url(#pd24386e939)" style="fill: none; stroke: #b0b0b0; stroke-opacity: 0.3; stroke-width: 0.8; stroke-linecap: square"/>
     </g>
     <g id="line2d_62">
      <g>
       <use xlink:href="#mf56a56b80a" x="153.741176" y="655.2" style="stroke: #000000; stroke-width: 0.8"/>
      </g>
     </g>
     <g id="text_19">
      <text style="font-size: 11px; font-family: 'DejaVu Sans', 'Bitstream Vera Sans', 'Computer Modern Sans Serif', 'Lucida Grande', 'Verdana', 'Geneva', 'Lucid', 'Arial', 'Helvetica', 'Avant Garde', sans-serif; text-anchor: middle" x="153.741176" y="670.558281" transform="rotate(-0 153.741176 670.558281)">off</text>
     </g>
    </g>
    <g id="xtick_8">
     <g id="line2d_63">
      <path d="M 407.858824 655.2 
L 407.858824 523.721739 
" clip-path="url(#pd24386e939)" style="fill: none; stroke: #b0b0b0; stroke-opacity: 0.3; stroke-width: 0.8; stroke-linecap: square"/>
     </g>
     <g id="line2d_64">
      <g>
       <use xlink:href="#mf56a56b80a" x="407.858824" y="655.2" style="stroke: #000000; stroke-width: 0.8"/>
      </g>
     </g>
     <g id="text_20">
      <text style="font-size: 11px; font-family: 'DejaVu Sans', 'Bitstream Vera Sans', 'Computer Modern Sans Serif', 'Lucida Grande', 'Verdana', 'Geneva', 'Lucid', 'Arial', 'Helvetica', 'Avant Garde', sans-serif; text-anchor: middle" x="407.858824" y="670.558281" transform="rotate(-0 407.858824 670.558281)">on</text>
     </g>
    </g>
   </g>
   <g id="matplotlib.axis_8">
    <g id="ytick_16">
     <g id="line2d_65">
      <path d="M 64.8 655.2 
L 496.8 655.2 
" clip-path="url(#pd24386e939)" style="fill: none; stroke: #b0b0b0; stroke-opacity: 0.3; stroke-width: 0.8; stroke-linecap: square"/>
     </g>
     <g id="line2d_66">
      <g>
       <use xlink:href="#m84a299cfe8" x="64.8" y="655.2" style="stroke: #000000; stroke-width: 0.8"/>
      </g>
     </g>
     <g id="text_21">
      <text style="font-size: 11px; font-family: 'DejaVu Sans', 'Bitstream Vera Sans', 'Computer Modern Sans Serif', 'Lucida Grande', 'Verdana', 'Geneva', 'Lucid', 'Arial', 'Helvetica', 'Avant Garde', sans-serif; text-anchor: end" x="57.8" y="659.379141" transform="rotate(-0 57.8 659.379141)">0</text>
     </g>
    </g>
    <g id="ytick_17">
     <g id="line2d_67">
      <path d="M 64.8 609.825497 
L 496.8 609.825497 
" clip-path="url(#pd24386e939)" style="fill: none; stroke: #b0b0b0; stroke-opacity: 0.3; stroke-width: 0.8; stroke-linecap: square"/>
     </g>
     <g id="line2d_68">
      <g>
       <use xlink:href="#m84a299cfe8" x="64.8" y="609.825497" style="stroke: #000000; stroke-width: 0.8"/>
      </g>
     </g>
     <g id="text_22">
      <text style="font-size: 11px; font-family: 'DejaVu Sans', 'Bitstream Vera Sans', 'Computer Modern Sans Serif', 'Lucida Grande', 'Verdana', 'Geneva', 'Lucid', 'Arial', 'Helvetica', 'Avant Garde', sans-serif; text-anchor: end" x="57.8" y="614.004638" transform="rotate(-0 57.8 614.004638)">100000</text>
     </g>
    </g>
    <g id="ytick_18">
     <g id="line2d_69">
      <path d="M 64.8 564.450994 
L 496.8 564.450994 
" clip-path="url(#pd24386e939)" style="fill: none; stroke: #b0b0b0; stroke-opacity: 0.3; stroke-width: 0.8; stroke-linecap: square"/>
     </g>
     <g id="line2d_70">
      <g>
       <use xlink:href="#m84a299cfe8" x="64.8" y="564.450994" style="stroke: #000000; stroke-width: 0.8"/>
      </g>
     </g>
     <g id="text_23">
      <text style="font-size: 11px; font-family: 'DejaVu Sans', 'Bitstream Vera Sans', 'Computer Modern Sans Serif', 'Lucida Grande', 'Verdana', 'Geneva', 'Lucid', 'Arial', 'Helvetica', 'Avant Garde', sans-serif; text-anchor: end" x="57.8" y="568.630135" transform="rotate(-0 57.8 568.630135)">200000</text>
     </g>
    </g>
    <g id="text_24">
     <text style="font-size: 11px; font-family: 'DejaVu Sans', 'Bitstream Vera Sans', 'Computer Modern Sans Serif', 'Lucida Grande', 'Verdana', 'Geneva', 'Lucid', 'Arial', 'Helvetica', 'Avant Garde', sans-serif; text-anchor: middle" x="9.519844" y="589.46087" transform="rotate(-90 9.519844 589.46087)">Mean tokens/run (in+out)</text>
    </g>
   </g>
   <g id="patch_12">
    <path d="M 64.8 655.2 
L 64.8 523.721739 
" style="fill: none; stroke: #000000; stroke-width: 0.8; stroke-linejoin: miter; stroke-linecap: square"/>
   </g>
   <g id="patch_13">
    <path d="M 64.8 655.2 
L 496.8 655.2 
" style="fill: none; stroke: #000000; stroke-width: 0.8; stroke-linejoin: miter; stroke-linecap: square"/>
   </g>
   <g id="line2d_71">
    <path d="M 153.741176 577.489187 
L 407.858824 566.325358 
" clip-path="url(#pd24386e939)" style="fill: none; stroke: #f58518; stroke-width: 2; stroke-linecap: square"/>
    <g clip-path="url(#pd24386e939)">
     <use xlink:href="#mfa3e1f313a" x="153.741176" y="577.489187" style="fill: #f58518; stroke: #fcfcfb"/>
     <use xlink:href="#mfa3e1f313a" x="407.858824" y="566.325358" style="fill: #f58518; stroke: #fcfcfb"/>
    </g>
   </g>
   <g id="line2d_72">
    <path d="M 153.741176 636.934059 
L 407.858824 622.784625 
" clip-path="url(#pd24386e939)" style="fill: none; stroke: #b279a2; stroke-width: 2; stroke-linecap: square"/>
    <g clip-path="url(#pd24386e939)">
     <use xlink:href="#m46d7c122ce" x="153.741176" y="636.934059" style="fill: #b279a2; stroke: #fcfcfb"/>
     <use xlink:href="#m46d7c122ce" x="407.858824" y="622.784625" style="fill: #b279a2; stroke: #fcfcfb"/>
    </g>
   </g>
   <g id="PathCollection_7">
    <g clip-path="url(#pd24386e939)">
     <use xlink:href="#m158ca34fc0" x="407.858824" y="529.112802" style="fill: #e45756; stroke: #fcfcfb"/>
    </g>
   </g>
   <g id="line2d_73">
    <path d="M 153.741176 634.493157 
L 407.858824 612.382237 
" clip-path="url(#pd24386e939)" style="fill: none; stroke: #54a24b; stroke-width: 2; stroke-linecap: square"/>
    <g clip-path="url(#pd24386e939)">
     <use xlink:href="#m04703664bd" x="153.741176" y="634.493157" style="fill: #54a24b; stroke: #fcfcfb"/>
     <use xlink:href="#m04703664bd" x="407.858824" y="612.382237" style="fill: #54a24b; stroke: #fcfcfb"/>
    </g>
   </g>
   <g id="line2d_74">
    <path d="M 153.741176 593.71044 
L 407.858824 579.903773 
" clip-path="url(#pd24386e939)" style="fill: none; stroke: #eeca3b; stroke-width: 2; stroke-linecap: square"/>
    <g clip-path="url(#pd24386e939)">
     <use xlink:href="#m05f092767a" x="153.741176" y="593.71044" style="fill: #eeca3b; stroke: #fcfcfb"/>
     <use xlink:href="#m05f092767a" x="407.858824" y="579.903773" style="fill: #eeca3b; stroke: #fcfcfb"/>
    </g>
   </g>
   <g id="line2d_75">
    <path d="M 153.741176 623.604183 
L 407.858824 612.966944 
" clip-path="url(#pd24386e939)" style="fill: none; stroke: #4c78a8; stroke-width: 2; stroke-linecap: square"/>
    <g clip-path="url(#pd24386e939)">
     <use xlink:href="#me1c3f8a202" x="153.741176" y="623.604183" style="fill: #4c78a8; stroke: #fcfcfb"/>
     <use xlink:href="#me1c3f8a202" x="407.858824" y="612.966944" style="fill: #4c78a8; stroke: #fcfcfb"/>
    </g>
   </g>
   <g id="PathCollection_8">
    <g clip-path="url(#pd24386e939)">
     <use xlink:href="#m44ce75e8b5" x="407.858824" y="585.951135" style="fill: #72b7b2; stroke: #fcfcfb"/>
    </g>
   </g>
   <g id="line2d_76">
    <path d="M 153.741176 613.246205 
L 407.858824 587.060982 
" clip-path="url(#pd24386e939)" style="fill: none; stroke-dasharray: 9.25,4; stroke-dashoffset: 0; stroke: #52514e; stroke-opacity: 0.85; stroke-width: 2.5"/>
    <g clip-path="url(#pd24386e939)">
     <use xlink:href="#mc7e902bf51" x="153.741176" y="613.246205" style="fill: #52514e; fill-opacity: 0.85; stroke: #52514e; stroke-opacity: 0.85; stroke-linejoin: miter"/>
     <use xlink:href="#mc7e902bf51" x="407.858824" y="587.060982" style="fill: #52514e; fill-opacity: 0.85; stroke: #52514e; stroke-opacity: 0.85; stroke-linejoin: miter"/>
    </g>
   </g>
  </g>
  <g id="text_25">
   <text style="font-size: 13px; font-family: 'DejaVu Sans', 'Bitstream Vera Sans', 'Computer Modern Sans Serif', 'Lucida Grande', 'Verdana', 'Geneva', 'Lucid', 'Arial', 'Helvetica', 'Avant Garde', sans-serif; text-anchor: start; fill: #0b0b0b" x="25.92" y="17.437969" transform="rotate(-0 25.92 17.437969)">Lever: self-correction (off -&gt; on)</text>
  </g>
  <g id="legend_1">
   <g id="text_26">
    <text style="font-size: 11px; font-family: 'DejaVu Sans', 'Bitstream Vera Sans', 'Computer Modern Sans Serif', 'Lucida Grande', 'Verdana', 'Geneva', 'Lucid', 'Arial', 'Helvetica', 'Avant Garde', sans-serif; text-anchor: start; fill: #0b0b0b" x="220.129375" y="691.431094" transform="rotate(-0 220.129375 691.431094)">Strategy (cell)</text>
   </g>
   <g id="line2d_77">
    <defs>
     <path id="m69a7bdd112" d="M 0 4 
C 1.060812 4 2.078319 3.578535 2.828427 2.828427 
C 3.578535 2.078319 4 1.060812 4 0 
C 4 -1.060812 3.578535 -2.078319 2.828427 -2.828427 
C 2.078319 -3.578535 1.060812 -4 0 -4 
C -1.060812 -4 -2.078319 -3.578535 -2.828427 -2.828427 
C -3.578535 -2.078319 -4 -1.060812 -4 0 
C -4 1.060812 -3.578535 2.078319 -2.828427 2.828427 
C -2.078319 3.578535 -1.060812 4 0 4 
z
" style="stroke: #fcfcfb"/>
    </defs>
    <g>
     <use xlink:href="#m69a7bdd112" x="131.378594" y="701.452422" style="fill: #f58518; stroke: #fcfcfb"/>
    </g>
   </g>
   <g id="text_27">
    <text style="font-size: 8.5px; font-family: 'DejaVu Sans', 'Bitstream Vera Sans', 'Computer Modern Sans Serif', 'Lucida Grande', 'Verdana', 'Geneva', 'Lucid', 'Arial', 'Helvetica', 'Avant Garde', sans-serif; text-anchor: start; fill: #0b0b0b" x="144.128594" y="704.427422" transform="rotate(-0 144.128594 704.427422)">ensemble_vote</text>
   </g>
   <g id="line2d_78">
    <defs>
     <path id="mbe50160115" d="M 0 4 
C 1.060812 4 2.078319 3.578535 2.828427 2.828427 
C 3.578535 2.078319 4 1.060812 4 0 
C 4 -1.060812 3.578535 -2.078319 2.828427 -2.828427 
C 2.078319 -3.578535 1.060812 -4 0 -4 
C -1.060812 -4 -2.078319 -3.578535 -2.828427 -2.828427 
C -3.578535 -2.078319 -4 -1.060812 -4 0 
C -4 1.060812 -3.578535 2.078319 -2.828427 2.828427 
C -2.078319 3.578535 -1.060812 4 0 4 
z
" style="stroke: #fcfcfb"/>
    </defs>
    <g>
     <use xlink:href="#mbe50160115" x="131.378594" y="714.165234" style="fill: #b279a2; stroke: #fcfcfb"/>
    </g>
   </g>
   <g id="text_28">
    <text style="font-size: 8.5px; font-family: 'DejaVu Sans', 'Bitstream Vera Sans', 'Computer Modern Sans Serif', 'Lucida Grande', 'Verdana', 'Geneva', 'Lucid', 'Arial', 'Helvetica', 'Avant Garde', sans-serif; text-anchor: start; fill: #0b0b0b" x="144.128594" y="717.140234" transform="rotate(-0 144.128594 717.140234)">plan_then_execute</text>
   </g>
   <g id="line2d_79">
    <defs>
     <path id="mb2b636d49e" d="M 0 4 
C 1.060812 4 2.078319 3.578535 2.828427 2.828427 
C 3.578535 2.078319 4 1.060812 4 0 
C 4 -1.060812 3.578535 -2.078319 2.828427 -2.828427 
C 2.078319 -3.578535 1.060812 -4 0 -4 
C -1.060812 -4 -2.078319 -3.578535 -2.828427 -2.828427 
C -3.578535 -2.078319 -4 -1.060812 -4 0 
C -4 1.060812 -3.578535 2.078319 -2.828427 2.828427 
C -2.078319 3.578535 -1.060812 4 0 4 
z
" style="stroke: #fcfcfb"/>
    </defs>
    <g>
     <use xlink:href="#mb2b636d49e" x="131.378594" y="726.878047" style="fill: #e45756; stroke: #fcfcfb"/>
    </g>
   </g>
   <g id="text_29">
    <text style="font-size: 8.5px; font-family: 'DejaVu Sans', 'Bitstream Vera Sans', 'Computer Modern Sans Serif', 'Lucida Grande', 'Verdana', 'Geneva', 'Lucid', 'Arial', 'Helvetica', 'Avant Garde', sans-serif; text-anchor: start; fill: #0b0b0b" x="144.128594" y="729.853047" transform="rotate(-0 144.128594 729.853047)">plan_write_critique</text>
   </g>
   <g id="line2d_80">
    <defs>
     <path id="mad2da93eb8" d="M 0 4 
C 1.060812 4 2.078319 3.578535 2.828427 2.828427 
C 3.578535 2.078319 4 1.060812 4 0 
C 4 -1.060812 3.578535 -2.078319 2.828427 -2.828427 
C 2.078319 -3.578535 1.060812 -4 0 -4 
C -1.060812 -4 -2.078319 -3.578535 -2.828427 -2.828427 
C -3.578535 -2.078319 -4 -1.060812 -4 0 
C -4 1.060812 -3.578535 2.078319 -2.828427 2.828427 
C -2.078319 3.578535 -1.060812 4 0 4 
z
" style="stroke: #fcfcfb"/>
    </defs>
    <g>
     <use xlink:href="#mad2da93eb8" x="131.378594" y="739.590859" style="fill: #54a24b; stroke: #fcfcfb"/>
    </g>
   </g>
   <g id="text_30">
    <text style="font-size: 8.5px; font-family: 'DejaVu Sans', 'Bitstream Vera Sans', 'Computer Modern Sans Serif', 'Lucida Grande', 'Verdana', 'Geneva', 'Lucid', 'Arial', 'Helvetica', 'Avant Garde', sans-serif; text-anchor: start; fill: #0b0b0b" x="144.128594" y="742.565859" transform="rotate(-0 144.128594 742.565859)">structured_per_table</text>
   </g>
   <g id="line2d_81">
    <defs>
     <path id="mabaef64ff4" d="M 0 4 
C 1.060812 4 2.078319 3.578535 2.828427 2.828427 
C 3.578535 2.078319 4 1.060812 4 0 
C 4 -1.060812 3.578535 -2.078319 2.828427 -2.828427 
C 2.078319 -3.578535 1.060812 -4 0 -4 
C -1.060812 -4 -2.078319 -3.578535 -2.828427 -2.828427 
C -3.578535 -2.078319 -4 -1.060812 -4 0 
C -4 1.060812 -3.578535 2.078319 -2.828427 2.828427 
C -2.078319 3.578535 -1.060812 4 0 4 
z
" style="stroke: #fcfcfb"/>
    </defs>
    <g>
     <use xlink:href="#mabaef64ff4" x="254.341719" y="701.452422" style="fill: #eeca3b; stroke: #fcfcfb"/>
    </g>
   </g>
   <g id="text_31">
    <text style="font-size: 8.5px; font-family: 'DejaVu Sans', 'Bitstream Vera Sans', 'Computer Modern Sans Serif', 'Lucida Grande', 'Verdana', 'Geneva', 'Lucid', 'Arial', 'Helvetica', 'Avant Garde', sans-serif; text-anchor: start; fill: #0b0b0b" x="267.091719" y="704.427422" transform="rotate(-0 267.091719 704.427422)">write_then_critique</text>
   </g>
   <g id="line2d_82">
    <defs>
     <path id="m15d7f8a28b" d="M 0 4 
C 1.060812 4 2.078319 3.578535 2.828427 2.828427 
C 3.578535 2.078319 4 1.060812 4 0 
C 4 -1.060812 3.578535 -2.078319 2.828427 -2.828427 
C 2.078319 -3.578535 1.060812 -4 0 -4 
C -1.060812 -4 -2.078319 -3.578535 -2.828427 -2.828427 
C -3.578535 -2.078319 -4 -1.060812 -4 0 
C -4 1.060812 -3.578535 2.078319 -2.828427 2.828427 
C -2.078319 3.578535 -1.060812 4 0 4 
z
" style="stroke: #fcfcfb"/>
    </defs>
    <g>
     <use xlink:href="#m15d7f8a28b" x="254.341719" y="714.165234" style="fill: #4c78a8; stroke: #fcfcfb"/>
    </g>
   </g>
   <g id="text_32">
    <text style="font-size: 8.5px; font-family: 'DejaVu Sans', 'Bitstream Vera Sans', 'Computer Modern Sans Serif', 'Lucida Grande', 'Verdana', 'Geneva', 'Lucid', 'Arial', 'Helvetica', 'Avant Garde', sans-serif; text-anchor: start; fill: #0b0b0b" x="267.091719" y="717.140234" transform="rotate(-0 267.091719 717.140234)">write_tools_freeform</text>
   </g>
   <g id="line2d_83">
    <defs>
     <path id="m9c92afca5e" d="M 0 4 
C 1.060812 4 2.078319 3.578535 2.828427 2.828427 
C 3.578535 2.078319 4 1.060812 4 0 
C 4 -1.060812 3.578535 -2.078319 2.828427 -2.828427 
C 2.078319 -3.578535 1.060812 -4 0 -4 
C -1.060812 -4 -2.078319 -3.578535 -2.828427 -2.828427 
C -3.578535 -2.078319 -4 -1.060812 -4 0 
C -4 1.060812 -3.578535 2.078319 -2.828427 2.828427 
C -2.078319 3.578535 -1.060812 4 0 4 
z
" style="stroke: #fcfcfb"/>
    </defs>
    <g>
     <use xlink:href="#m9c92afca5e" x="254.341719" y="726.878047" style="fill: #72b7b2; stroke: #fcfcfb"/>
    </g>
   </g>
   <g id="text_33">
    <text style="font-size: 8.5px; font-family: 'DejaVu Sans', 'Bitstream Vera Sans', 'Computer Modern Sans Serif', 'Lucida Grande', 'Verdana', 'Geneva', 'Lucid', 'Arial', 'Helvetica', 'Avant Garde', sans-serif; text-anchor: start; fill: #0b0b0b" x="267.091719" y="729.853047" transform="rotate(-0 267.091719 729.853047)">write_tools_freeform_inlinedbt</text>
   </g>
   <g id="line2d_84">
    <path d="M 245.841719 739.590859 
L 254.341719 739.590859 
L 262.841719 739.590859 
" style="fill: none; stroke-dasharray: 9.25,4; stroke-dashoffset: 0; stroke: #52514e; stroke-opacity: 0.85; stroke-width: 2.5"/>
    <g>
     <use xlink:href="#mc7e902bf51" x="254.341719" y="739.590859" style="fill: #52514e; fill-opacity: 0.85; stroke: #52514e; stroke-opacity: 0.85; stroke-linejoin: miter"/>
    </g>
   </g>
   <g id="text_34">
    <text style="font-size: 8.5px; font-family: 'DejaVu Sans', 'Bitstream Vera Sans', 'Computer Modern Sans Serif', 'Lucida Grande', 'Verdana', 'Geneva', 'Lucid', 'Arial', 'Helvetica', 'Avant Garde', sans-serif; text-anchor: start; fill: #0b0b0b" x="267.091719" y="742.565859" transform="rotate(-0 267.091719 742.565859)">overall mean</text>
   </g>
  </g>
 </g>
 <defs>
  <clipPath id="pcc9664dae0">
   <rect x="64.8" y="50.4" width="432" height="131.478261"/>
  </clipPath>
  <clipPath id="pb3f5249c8e">
   <rect x="64.8" y="208.173913" width="432" height="131.478261"/>
  </clipPath>
  <clipPath id="pa5470cd270">
   <rect x="64.8" y="365.947826" width="432" height="131.478261"/>
  </clipPath>
  <clipPath id="pd24386e939">
   <rect x="64.8" y="523.721739" width="432" height="131.478261"/>
  </clipPath>
 </defs>
</svg>
