<?xml version="1.0" encoding="utf-8" standalone="no"?>
<!DOCTYPE svg PUBLIC "-//W3C//DTD SVG 1.1//EN"
  "http://www.w3.org/Graphics/SVG/1.1/DTD/svg11.dtd">
<svg xmlns:xlink="http://www.w3.org/1999/xlink" width="673.2pt" height="661.68pt" viewBox="0 0 673.2 661.68" xmlns="http://www.w3.org/2000/svg" version="1.1">
 <metadata>
  <rdf:RDF xmlns:dc="http://purl.org/dc/elements/1.1/" xmlns:cc="http://creativecommons.org/ns#" xmlns:rdf="http://www.w3.org/1999/02/22-rdf-syntax-ns#">
   <cc:Work>
    <dc:type rdf:resource="http://purl.org/dc/dcmitype/StillImage"/>
    <dc:format>image/svg+xml</dc:format>
    <dc:creator>
     <cc:Agent>
      <dc:title>Matplotlib v3.10.9, https://matplotlib.org/</dc:title>
     </cc:Agent>
    </dc:creator>
   </cc:Work>
  </rdf:RDF>
 </metadata>
 <defs>
  <style type="text/css">*{stroke-linejoin: round; stroke-linecap: butt}</style>
 </defs>
 <g id="figure_1">
  <g id="patch_1">
   <path d="M 0 661.68 
L 673.2 661.68 
L 673.2 0 
L 0 0 
z
" style="fill: #ffffff"/>
  </g>
  <g id="axes_1">
   <g id="patch_2">
    <path d="M 61.2 229.618714 
L 450 229.618714 
L 450 66.168 
L 61.2 66.168 
z
" style="fill: #ffffff"/>
   </g>
   <g id="matplotlib.axis_1">
    <g id="xtick_1">
     <g id="line2d_1">
      <path d="M 141.247059 229.618714 
L 141.247059 66.168 
" clip-path="url(#pb5245d183a)" style="fill: none; stroke: #b0b0b0; stroke-opacity: 0.3; stroke-width: 0.8; stroke-linecap: square"/>
     </g>
     <g id="line2d_2">
      <defs>
       <path id="mf56a56b80a" d="M 0 0 
L 0 3.5 
" style="stroke: #000000; stroke-width: 0.8"/>
      </defs>
      <g>
       <use xlink:href="#mf56a56b80a" x="141.247059" y="229.618714" style="stroke: #000000; stroke-width: 0.8"/>
      </g>
     </g>
    </g>
    <g id="xtick_2">
     <g id="line2d_3">
      <path d="M 369.952941 229.618714 
L 369.952941 66.168 
" clip-path="url(#pb5245d183a)" style="fill: none; stroke: #b0b0b0; stroke-opacity: 0.3; stroke-width: 0.8; stroke-linecap: square"/>
     </g>
     <g id="line2d_4">
      <g>
       <use xlink:href="#mf56a56b80a" x="369.952941" y="229.618714" style="stroke: #000000; stroke-width: 0.8"/>
      </g>
     </g>
    </g>
   </g>
   <g id="matplotlib.axis_2">
    <g id="ytick_1">
     <g id="line2d_5">
      <path d="M 61.2 224.992751 
L 450 224.992751 
" clip-path="url(#pb5245d183a)" style="fill: none; stroke: #b0b0b0; stroke-opacity: 0.3; stroke-width: 0.8; stroke-linecap: square"/>
     </g>
     <g id="line2d_6">
      <defs>
       <path id="m84a299cfe8" d="M 0 0 
L -3.5 0 
" style="stroke: #000000; stroke-width: 0.8"/>
      </defs>
      <g>
       <use xlink:href="#m84a299cfe8" x="61.2" y="224.992751" style="stroke: #000000; stroke-width: 0.8"/>
      </g>
     </g>
     <g id="text_1">
      <text style="font-size: 11px; font-family: 'DejaVu Sans', 'Bitstream Vera Sans', 'Computer Modern Sans Serif', 'Lucida Grande', 'Verdana', 'Geneva', 'Lucid', 'Arial', 'Helvetica', 'Avant Garde', sans-serif; text-anchor: end" x="54.2" y="229.171891" transform="rotate(-0 54.2 229.171891)">0%</text>
     </g>
    </g>
    <g id="ytick_2">
     <g id="line2d_7">
      <path d="M 61.2 194.152993 
L 450 194.152993 
" clip-path="url(#pb5245d183a)" style="fill: none; stroke: #b0b0b0; stroke-opacity: 0.3; stroke-width: 0.8; stroke-linecap: square"/>
     </g>
     <g id="line2d_8">
      <g>
       <use xlink:href="#m84a299cfe8" x="61.2" y="194.152993" style="stroke: #000000; stroke-width: 0.8"/>
      </g>
     </g>
     <g id="text_2">
      <text style="font-size: 11px; font-family: 'DejaVu Sans', 'Bitstream Vera Sans', 'Computer Modern Sans Serif', 'Lucida Grande', 'Verdana', 'Geneva', 'Lucid', 'Arial', 'Helvetica', 'Avant Garde', sans-serif; text-anchor: end" x="54.2" y="198.332134" transform="rotate(-0 54.2 198.332134)">20%</text>
     </g>
    </g>
    <g id="ytick_3">
     <g id="line2d_9">
      <path d="M 61.2 163.313236 
L 450 163.313236 
" clip-path="url(#pb5245d183a)" style="fill: none; stroke: #b0b0b0; stroke-opacity: 0.3; stroke-width: 0.8; stroke-linecap: square"/>
     </g>
     <g id="line2d_10">
      <g>
       <use xlink:href="#m84a299cfe8" x="61.2" y="163.313236" style="stroke: #000000; stroke-width: 0.8"/>
      </g>
     </g>
     <g id="text_3">
      <text style="font-size: 11px; font-family: 'DejaVu Sans', 'Bitstream Vera Sans', 'Computer Modern Sans Serif', 'Lucida Grande', 'Verdana', 'Geneva', 'Lucid', 'Arial', 'Helvetica', 'Avant Garde', sans-serif; text-anchor: end" x="54.2" y="167.492376" transform="rotate(-0 54.2 167.492376)">40%</text>
     </g>
    </g>
    <g id="ytick_4">
     <g id="line2d_11">
      <path d="M 61.2 132.473478 
L 450 132.473478 
" clip-path="url(#pb5245d183a)" style="fill: none; stroke: #b0b0b0; stroke-opacity: 0.3; stroke-width: 0.8; stroke-linecap: square"/>
     </g>
     <g id="line2d_12">
      <g>
       <use xlink:href="#m84a299cfe8" x="61.2" y="132.473478" style="stroke: #000000; stroke-width: 0.8"/>
      </g>
     </g>
     <g id="text_4">
      <text style="font-size: 11px; font-family: 'DejaVu Sans', 'Bitstream Vera Sans', 'Computer Modern Sans Serif', 'Lucida Grande', 'Verdana', 'Geneva', 'Lucid', 'Arial', 'Helvetica', 'Avant Garde', sans-serif; text-anchor: end" x="54.2" y="136.652619" transform="rotate(-0 54.2 136.652619)">60%</text>
     </g>
    </g>
    <g id="ytick_5">
     <g id="line2d_13">
      <path d="M 61.2 101.633721 
L 450 101.633721 
" clip-path="url(#pb5245d183a)" style="fill: none; stroke: #b0b0b0; stroke-opacity: 0.3; stroke-width: 0.8; stroke-linecap: square"/>
     </g>
     <g id="line2d_14">
      <g>
       <use xlink:href="#m84a299cfe8" x="61.2" y="101.633721" style="stroke: #000000; stroke-width: 0.8"/>
      </g>
     </g>
     <g id="text_5">
      <text style="font-size: 11px; font-family: 'DejaVu Sans', 'Bitstream Vera Sans', 'Computer Modern Sans Serif', 'Lucida Grande', 'Verdana', 'Geneva', 'Lucid', 'Arial', 'Helvetica', 'Avant Garde', sans-serif; text-anchor: end" x="54.2" y="105.812862" transform="rotate(-0 54.2 105.812862)">80%</text>
     </g>
    </g>
    <g id="ytick_6">
     <g id="line2d_15">
      <path d="M 61.2 70.793964 
L 450 70.793964 
" clip-path="url(#pb5245d183a)" style="fill: none; stroke: #b0b0b0; stroke-opacity: 0.3; stroke-width: 0.8; stroke-linecap: square"/>
     </g>
     <g id="line2d_16">
      <g>
       <use xlink:href="#m84a299cfe8" x="61.2" y="70.793964" style="stroke: #000000; stroke-width: 0.8"/>
      </g>
     </g>
     <g id="text_6">
      <text style="font-size: 11px; font-family: 'DejaVu Sans', 'Bitstream Vera Sans', 'Computer Modern Sans Serif', 'Lucida Grande', 'Verdana', 'Geneva', 'Lucid', 'Arial', 'Helvetica', 'Avant Garde', sans-serif; text-anchor: end" x="54.2" y="74.973104" transform="rotate(-0 54.2 74.973104)">100%</text>
     </g>
    </g>
    <g id="text_7">
     <text style="font-size: 11px; font-family: 'DejaVu Sans', 'Bitstream Vera Sans', 'Computer Modern Sans Serif', 'Lucida Grande', 'Verdana', 'Geneva', 'Lucid', 'Arial', 'Helvetica', 'Avant Garde', sans-serif; text-anchor: middle" x="16.464375" y="147.893357" transform="rotate(-90 16.464375 147.893357)">Materialization rate</text>
    </g>
   </g>
   <g id="patch_3">
    <path d="M 61.2 229.618714 
L 61.2 66.168 
" style="fill: none; stroke: #000000; stroke-width: 0.8; stroke-linejoin: miter; stroke-linecap: square"/>
   </g>
   <g id="patch_4">
    <path d="M 61.2 229.618714 
L 450 229.618714 
" style="fill: none; stroke: #000000; stroke-width: 0.8; stroke-linejoin: miter; stroke-linecap: square"/>
   </g>
   <g id="line2d_17">
    <path d="M 141.247059 96.493761 
L 369.952941 70.793964 
" clip-path="url(#pb5245d183a)" style="fill: none; stroke: #f58518; stroke-width: 2; stroke-linecap: square"/>
    <defs>
     <path id="mfa3e1f313a" d="M 0 3.5 
C 0.928211 3.5 1.81853 3.131218 2.474874 2.474874 
C 3.131218 1.81853 3.5 0.928211 3.5 0 
C 3.5 -0.928211 3.131218 -1.81853 2.474874 -2.474874 
C 1.81853 -3.131218 0.928211 -3.5 0 -3.5 
C -0.928211 -3.5 -1.81853 -3.131218 -2.474874 -2.474874 
C -3.131218 -1.81853 -3.5 -0.928211 -3.5 0 
C -3.5 0.928211 -3.131218 1.81853 -2.474874 2.474874 
C -1.81853 3.131218 -0.928211 3.5 0 3.5 
z
" style="stroke: #fcfcfb"/>
    </defs>
    <g clip-path="url(#pb5245d183a)">
     <use xlink:href="#mfa3e1f313a" x="141.247059" y="96.493761" style="fill: #f58518; stroke: #fcfcfb"/>
     <use xlink:href="#mfa3e1f313a" x="369.952941" y="70.793964" style="fill: #f58518; stroke: #fcfcfb"/>
    </g>
   </g>
   <g id="line2d_18">
    <path d="M 141.247059 115.76861 
L 369.952941 70.793964 
" clip-path="url(#pb5245d183a)" style="fill: none; stroke: #b279a2; stroke-width: 2; stroke-linecap: square"/>
    <defs>
     <path id="m46d7c122ce" d="M 0 3.5 
C 0.928211 3.5 1.81853 3.131218 2.474874 2.474874 
C 3.131218 1.81853 3.5 0.928211 3.5 0 
C 3.5 -0.928211 3.131218 -1.81853 2.474874 -2.474874 
C 1.81853 -3.131218 0.928211 -3.5 0 -3.5 
C -0.928211 -3.5 -1.81853 -3.131218 -2.474874 -2.474874 
C -3.131218 -1.81853 -3.5 -0.928211 -3.5 0 
C -3.5 0.928211 -3.131218 1.81853 -2.474874 2.474874 
C -1.81853 3.131218 -0.928211 3.5 0 3.5 
z
" style="stroke: #fcfcfb"/>
    </defs>
    <g clip-path="url(#pb5245d183a)">
     <use xlink:href="#m46d7c122ce" x="141.247059" y="115.76861" style="fill: #b279a2; stroke: #fcfcfb"/>
     <use xlink:href="#m46d7c122ce" x="369.952941" y="70.793964" style="fill: #b279a2; stroke: #fcfcfb"/>
    </g>
   </g>
   <g id="PathCollection_1">
    <defs>
     <path id="m158ca34fc0" d="M 0 3.535534 
C 0.937635 3.535534 1.836992 3.163008 2.5 2.5 
C 3.163008 1.836992 3.535534 0.937635 3.535534 0 
C 3.535534 -0.937635 3.163008 -1.836992 2.5 -2.5 
C 1.836992 -3.163008 0.937635 -3.535534 0 -3.535534 
C -0.937635 -3.535534 -1.836992 -3.163008 -2.5 -2.5 
C -3.163008 -1.836992 -3.535534 -0.937635 -3.535534 0 
C -3.535534 0.937635 -3.163008 1.836992 -2.5 2.5 
C -1.836992 3.163008 -0.937635 3.535534 0 3.535534 
z
" style="stroke: #fcfcfb"/>
    </defs>
    <g clip-path="url(#pb5245d183a)">
     <use xlink:href="#m158ca34fc0" x="369.952941" y="77.218913" style="fill: #e45756; stroke: #fcfcfb"/>
    </g>
   </g>
   <g id="line2d_19">
    <path d="M 141.247059 115.76861 
L 369.952941 77.218913 
" clip-path="url(#pb5245d183a)" style="fill: none; stroke: #54a24b; stroke-width: 2; stroke-linecap: square"/>
    <defs>
     <path id="m04703664bd" d="M 0 3.5 
C 0.928211 3.5 1.81853 3.131218 2.474874 2.474874 
C 3.131218 1.81853 3.5 0.928211 3.5 0 
C 3.5 -0.928211 3.131218 -1.81853 2.474874 -2.474874 
C 1.81853 -3.131218 0.928211 -3.5 0 -3.5 
C -0.928211 -3.5 -1.81853 -3.131218 -2.474874 -2.474874 
C -3.131218 -1.81853 -3.5 -0.928211 -3.5 0 
C -3.5 0.928211 -3.131218 1.81853 -2.474874 2.474874 
C -1.81853 3.131218 -0.928211 3.5 0 3.5 
z
" style="stroke: #fcfcfb"/>
    </defs>
    <g clip-path="url(#pb5245d183a)">
     <use xlink:href="#m04703664bd" x="141.247059" y="115.76861" style="fill: #54a24b; stroke: #fcfcfb"/>
     <use xlink:href="#m04703664bd" x="369.952941" y="77.218913" style="fill: #54a24b; stroke: #fcfcfb"/>
    </g>
   </g>
   <g id="line2d_20">
    <path d="M 141.247059 96.493761 
L 369.952941 77.218913 
" clip-path="url(#pb5245d183a)" style="fill: none; stroke: #eeca3b; stroke-width: 2; stroke-linecap: square"/>
    <defs>
     <path id="m05f092767a" d="M 0 3.5 
C 0.928211 3.5 1.81853 3.131218 2.474874 2.474874 
C 3.131218 1.81853 3.5 0.928211 3.5 0 
C 3.5 -0.928211 3.131218 -1.81853 2.474874 -2.474874 
C 1.81853 -3.131218 0.928211 -3.5 0 -3.5 
C -0.928211 -3.5 -1.81853 -3.131218 -2.474874 -2.474874 
C -3.131218 -1.81853 -3.5 -0.928211 -3.5 0 
C -3.5 0.928211 -3.131218 1.81853 -2.474874 2.474874 
C -1.81853 3.131218 -0.928211 3.5 0 3.5 
z
" style="stroke: #fcfcfb"/>
    </defs>
    <g clip-path="url(#pb5245d183a)">
     <use xlink:href="#m05f092767a" x="141.247059" y="96.493761" style="fill: #eeca3b; stroke: #fcfcfb"/>
     <use xlink:href="#m05f092767a" x="369.952941" y="77.218913" style="fill: #eeca3b; stroke: #fcfcfb"/>
    </g>
   </g>
   <g id="line2d_21">
    <path d="M 141.247059 115.76861 
L 369.952941 96.493761 
" clip-path="url(#pb5245d183a)" style="fill: none; stroke: #4c78a8; stroke-width: 2; stroke-linecap: square"/>
    <defs>
     <path id="me1c3f8a202" d="M 0 3.5 
C 0.928211 3.5 1.81853 3.131218 2.474874 2.474874 
C 3.131218 1.81853 3.5 0.928211 3.5 0 
C 3.5 -0.928211 3.131218 -1.81853 2.474874 -2.474874 
C 1.81853 -3.131218 0.928211 -3.5 0 -3.5 
C -0.928211 -3.5 -1.81853 -3.131218 -2.474874 -2.474874 
C -3.131218 -1.81853 -3.5 -0.928211 -3.5 0 
C -3.5 0.928211 -3.131218 1.81853 -2.474874 2.474874 
C -1.81853 3.131218 -0.928211 3.5 0 3.5 
z
" style="stroke: #fcfcfb"/>
    </defs>
    <g clip-path="url(#pb5245d183a)">
     <use xlink:href="#me1c3f8a202" x="141.247059" y="115.76861" style="fill: #4c78a8; stroke: #fcfcfb"/>
     <use xlink:href="#me1c3f8a202" x="369.952941" y="96.493761" style="fill: #4c78a8; stroke: #fcfcfb"/>
    </g>
   </g>
   <g id="PathCollection_2">
    <defs>
     <path id="m44ce75e8b5" d="M 0 3.535534 
C 0.937635 3.535534 1.836992 3.163008 2.5 2.5 
C 3.163008 1.836992 3.535534 0.937635 3.535534 0 
C 3.535534 -0.937635 3.163008 -1.836992 2.5 -2.5 
C 1.836992 -3.163008 0.937635 -3.535534 0 -3.535534 
C -0.937635 -3.535534 -1.836992 -3.163008 -2.5 -2.5 
C -3.163008 -1.836992 -3.535534 -0.937635 -3.535534 0 
C -3.535534 0.937635 -3.163008 1.836992 -2.5 2.5 
C -1.836992 3.163008 -0.937635 3.535534 0 3.535534 
z
" style="stroke: #fcfcfb"/>
    </defs>
    <g clip-path="url(#pb5245d183a)">
     <use xlink:href="#m44ce75e8b5" x="369.952941" y="109.34366" style="fill: #72b7b2; stroke: #fcfcfb"/>
    </g>
   </g>
   <g id="line2d_22">
    <path d="M 141.247059 108.05867 
L 369.952941 82.726013 
" clip-path="url(#pb5245d183a)" style="fill: none; stroke-dasharray: 9.25,4; stroke-dashoffset: 0; stroke: #52514e; stroke-opacity: 0.85; stroke-width: 2.5"/>
    <defs>
     <path id="mc7e902bf51" d="M -0 4.242641 
L 4.242641 0 
L 0 -4.242641 
L -4.242641 -0 
z
" style="stroke: #52514e; stroke-opacity: 0.85; stroke-linejoin: miter"/>
    </defs>
    <g clip-path="url(#pb5245d183a)">
     <use xlink:href="#mc7e902bf51" x="141.247059" y="108.05867" style="fill: #52514e; fill-opacity: 0.85; stroke: #52514e; stroke-opacity: 0.85; stroke-linejoin: miter"/>
     <use xlink:href="#mc7e902bf51" x="369.952941" y="82.726013" style="fill: #52514e; fill-opacity: 0.85; stroke: #52514e; stroke-opacity: 0.85; stroke-linejoin: miter"/>
    </g>
   </g>
  </g>
  <g id="axes_2">
   <g id="patch_5">
    <path d="M 61.2 422.490557 
L 450 422.490557 
L 450 259.039843 
L 61.2 259.039843 
z
" style="fill: #ffffff"/>
   </g>
   <g id="matplotlib.axis_3">
    <g id="xtick_3">
     <g id="line2d_23">
      <path d="M 141.247059 422.490557 
L 141.247059 259.039843 
" clip-path="url(#p8d674b335f)" style="fill: none; stroke: #b0b0b0; stroke-opacity: 0.3; stroke-width: 0.8; stroke-linecap: square"/>
     </g>
     <g id="line2d_24">
      <g>
       <use xlink:href="#mf56a56b80a" x="141.247059" y="422.490557" style="stroke: #000000; stroke-width: 0.8"/>
      </g>
     </g>
    </g>
    <g id="xtick_4">
     <g id="line2d_25">
      <path d="M 369.952941 422.490557 
L 369.952941 259.039843 
" clip-path="url(#p8d674b335f)" style="fill: none; stroke: #b0b0b0; stroke-opacity: 0.3; stroke-width: 0.8; stroke-linecap: square"/>
     </g>
     <g id="line2d_26">
      <g>
       <use xlink:href="#mf56a56b80a" x="369.952941" y="422.490557" style="stroke: #000000; stroke-width: 0.8"/>
      </g>
     </g>
    </g>
   </g>
   <g id="matplotlib.axis_4">
    <g id="ytick_7">
     <g id="line2d_27">
      <path d="M 61.2 417.864594 
L 450 417.864594 
" clip-path="url(#p8d674b335f)" style="fill: none; stroke: #b0b0b0; stroke-opacity: 0.3; stroke-width: 0.8; stroke-linecap: square"/>
     </g>
     <g id="line2d_28">
      <g>
       <use xlink:href="#m84a299cfe8" x="61.2" y="417.864594" style="stroke: #000000; stroke-width: 0.8"/>
      </g>
     </g>
     <g id="text_8">
      <text style="font-size: 11px; font-family: 'DejaVu Sans', 'Bitstream Vera Sans', 'Computer Modern Sans Serif', 'Lucida Grande', 'Verdana', 'Geneva', 'Lucid', 'Arial', 'Helvetica', 'Avant Garde', sans-serif; text-anchor: end" x="54.2" y="422.043734" transform="rotate(-0 54.2 422.043734)">0.0</text>
     </g>
    </g>
    <g id="ytick_8">
     <g id="line2d_29">
      <path d="M 61.2 387.024836 
L 450 387.024836 
" clip-path="url(#p8d674b335f)" style="fill: none; stroke: #b0b0b0; stroke-opacity: 0.3; stroke-width: 0.8; stroke-linecap: square"/>
     </g>
     <g id="line2d_30">
      <g>
       <use xlink:href="#m84a299cfe8" x="61.2" y="387.024836" style="stroke: #000000; stroke-width: 0.8"/>
      </g>
     </g>
     <g id="text_9">
      <text style="font-size: 11px; font-family: 'DejaVu Sans', 'Bitstream Vera Sans', 'Computer Modern Sans Serif', 'Lucida Grande', 'Verdana', 'Geneva', 'Lucid', 'Arial', 'Helvetica', 'Avant Garde', sans-serif; text-anchor: end" x="54.2" y="391.203977" transform="rotate(-0 54.2 391.203977)">0.2</text>
     </g>
    </g>
    <g id="ytick_9">
     <g id="line2d_31">
      <path d="M 61.2 356.185079 
L 450 356.185079 
" clip-path="url(#p8d674b335f)" style="fill: none; stroke: #b0b0b0; stroke-opacity: 0.3; stroke-width: 0.8; stroke-linecap: square"/>
     </g>
     <g id="line2d_32">
      <g>
       <use xlink:href="#m84a299cfe8" x="61.2" y="356.185079" style="stroke: #000000; stroke-width: 0.8"/>
      </g>
     </g>
     <g id="text_10">
      <text style="font-size: 11px; font-family: 'DejaVu Sans', 'Bitstream Vera Sans', 'Computer Modern Sans Serif', 'Lucida Grande', 'Verdana', 'Geneva', 'Lucid', 'Arial', 'Helvetica', 'Avant Garde', sans-serif; text-anchor: end" x="54.2" y="360.364219" transform="rotate(-0 54.2 360.364219)">0.4</text>
     </g>
    </g>
    <g id="ytick_10">
     <g id="line2d_33">
      <path d="M 61.2 325.345321 
L 450 325.345321 
" clip-path="url(#p8d674b335f)" style="fill: none; stroke: #b0b0b0; stroke-opacity: 0.3; stroke-width: 0.8; stroke-linecap: square"/>
     </g>
     <g id="line2d_34">
      <g>
       <use xlink:href="#m84a299cfe8" x="61.2" y="325.345321" style="stroke: #000000; stroke-width: 0.8"/>
      </g>
     </g>
     <g id="text_11">
      <text style="font-size: 11px; font-family: 'DejaVu Sans', 'Bitstream Vera Sans', 'Computer Modern Sans Serif', 'Lucida Grande', 'Verdana', 'Geneva', 'Lucid', 'Arial', 'Helvetica', 'Avant Garde', sans-serif; text-anchor: end" x="54.2" y="329.524462" transform="rotate(-0 54.2 329.524462)">0.6</text>
     </g>
    </g>
    <g id="ytick_11">
     <g id="line2d_35">
      <path d="M 61.2 294.505564 
L 450 294.505564 
" clip-path="url(#p8d674b335f)" style="fill: none; stroke: #b0b0b0; stroke-opacity: 0.3; stroke-width: 0.8; stroke-linecap: square"/>
     </g>
     <g id="line2d_36">
      <g>
       <use xlink:href="#m84a299cfe8" x="61.2" y="294.505564" style="stroke: #000000; stroke-width: 0.8"/>
      </g>
     </g>
     <g id="text_12">
      <text style="font-size: 11px; font-family: 'DejaVu Sans', 'Bitstream Vera Sans', 'Computer Modern Sans Serif', 'Lucida Grande', 'Verdana', 'Geneva', 'Lucid', 'Arial', 'Helvetica', 'Avant Garde', sans-serif; text-anchor: end" x="54.2" y="298.684705" transform="rotate(-0 54.2 298.684705)">0.8</text>
     </g>
    </g>
    <g id="ytick_12">
     <g id="line2d_37">
      <path d="M 61.2 263.665806 
L 450 263.665806 
" clip-path="url(#p8d674b335f)" style="fill: none; stroke: #b0b0b0; stroke-opacity: 0.3; stroke-width: 0.8; stroke-linecap: square"/>
     </g>
     <g id="line2d_38">
      <g>
       <use xlink:href="#m84a299cfe8" x="61.2" y="263.665806" style="stroke: #000000; stroke-width: 0.8"/>
      </g>
     </g>
     <g id="text_13">
      <text style="font-size: 11px; font-family: 'DejaVu Sans', 'Bitstream Vera Sans', 'Computer Modern Sans Serif', 'Lucida Grande', 'Verdana', 'Geneva', 'Lucid', 'Arial', 'Helvetica', 'Avant Garde', sans-serif; text-anchor: end" x="54.2" y="267.844947" transform="rotate(-0 54.2 267.844947)">1.0</text>
     </g>
    </g>
    <g id="text_14">
     <text style="font-size: 11px; font-family: 'DejaVu Sans', 'Bitstream Vera Sans', 'Computer Modern Sans Serif', 'Lucida Grande', 'Verdana', 'Geneva', 'Lucid', 'Arial', 'Helvetica', 'Avant Garde', sans-serif; text-anchor: middle" x="30.418906" y="340.7652" transform="rotate(-90 30.418906 340.7652)">Recall</text>
    </g>
   </g>
   <g id="patch_6">
    <path d="M 61.2 422.490557 
L 61.2 259.039843 
" style="fill: none; stroke: #000000; stroke-width: 0.8; stroke-linejoin: miter; stroke-linecap: square"/>
   </g>
   <g id="patch_7">
    <path d="M 61.2 422.490557 
L 450 422.490557 
" style="fill: none; stroke: #000000; stroke-width: 0.8; stroke-linejoin: miter; stroke-linecap: square"/>
   </g>
   <g id="line2d_39">
    <path d="M 141.247059 308.597345 
L 369.952941 268.138689 
" clip-path="url(#p8d674b335f)" style="fill: none; stroke: #f58518; stroke-width: 2; stroke-linecap: square"/>
    <g clip-path="url(#p8d674b335f)">
     <use xlink:href="#mfa3e1f313a" x="141.247059" y="308.597345" style="fill: #f58518; stroke: #fcfcfb"/>
     <use xlink:href="#mfa3e1f313a" x="369.952941" y="268.138689" style="fill: #f58518; stroke: #fcfcfb"/>
    </g>
   </g>
   <g id="line2d_40">
    <path d="M 141.247059 328.887062 
L 369.952941 268.931355 
" clip-path="url(#p8d674b335f)" style="fill: none; stroke: #b279a2; stroke-width: 2; stroke-linecap: square"/>
    <g clip-path="url(#p8d674b335f)">
     <use xlink:href="#m46d7c122ce" x="141.247059" y="328.887062" style="fill: #b279a2; stroke: #fcfcfb"/>
     <use xlink:href="#m46d7c122ce" x="369.952941" y="268.931355" style="fill: #b279a2; stroke: #fcfcfb"/>
    </g>
   </g>
   <g id="PathCollection_3">
    <g clip-path="url(#p8d674b335f)">
     <use xlink:href="#m158ca34fc0" x="369.952941" y="283.743833" style="fill: #e45756; stroke: #fcfcfb"/>
    </g>
   </g>
   <g id="line2d_41">
    <path d="M 141.247059 341.12236 
L 369.952941 285.03414 
" clip-path="url(#p8d674b335f)" style="fill: none; stroke: #54a24b; stroke-width: 2; stroke-linecap: square"/>
    <g clip-path="url(#p8d674b335f)">
     <use xlink:href="#m04703664bd" x="141.247059" y="341.12236" style="fill: #54a24b; stroke: #fcfcfb"/>
     <use xlink:href="#m04703664bd" x="369.952941" y="285.03414" style="fill: #54a24b; stroke: #fcfcfb"/>
    </g>
   </g>
   <g id="line2d_42">
    <path d="M 141.247059 318.762026 
L 369.952941 280.044745 
" clip-path="url(#p8d674b335f)" style="fill: none; stroke: #eeca3b; stroke-width: 2; stroke-linecap: square"/>
    <g clip-path="url(#p8d674b335f)">
     <use xlink:href="#m05f092767a" x="141.247059" y="318.762026" style="fill: #eeca3b; stroke: #fcfcfb"/>
     <use xlink:href="#m05f092767a" x="369.952941" y="280.044745" style="fill: #eeca3b; stroke: #fcfcfb"/>
    </g>
   </g>
   <g id="line2d_43">
    <path d="M 141.247059 313.36519 
L 369.952941 283.778692 
" clip-path="url(#p8d674b335f)" style="fill: none; stroke: #4c78a8; stroke-width: 2; stroke-linecap: square"/>
    <g clip-path="url(#p8d674b335f)">
     <use xlink:href="#me1c3f8a202" x="141.247059" y="313.36519" style="fill: #4c78a8; stroke: #fcfcfb"/>
     <use xlink:href="#me1c3f8a202" x="369.952941" y="283.778692" style="fill: #4c78a8; stroke: #fcfcfb"/>
    </g>
   </g>
   <g id="PathCollection_4">
    <g clip-path="url(#p8d674b335f)">
     <use xlink:href="#m44ce75e8b5" x="369.952941" y="291.70195" style="fill: #72b7b2; stroke: #fcfcfb"/>
    </g>
   </g>
   <g id="line2d_44">
    <path d="M 141.247059 322.220591 
L 369.952941 280.035025 
" clip-path="url(#p8d674b335f)" style="fill: none; stroke-dasharray: 9.25,4; stroke-dashoffset: 0; stroke: #52514e; stroke-opacity: 0.85; stroke-width: 2.5"/>
    <g clip-path="url(#p8d674b335f)">
     <use xlink:href="#mc7e902bf51" x="141.247059" y="322.220591" style="fill: #52514e; fill-opacity: 0.85; stroke: #52514e; stroke-opacity: 0.85; stroke-linejoin: miter"/>
     <use xlink:href="#mc7e902bf51" x="369.952941" y="280.035025" style="fill: #52514e; fill-opacity: 0.85; stroke: #52514e; stroke-opacity: 0.85; stroke-linejoin: miter"/>
    </g>
   </g>
  </g>
  <g id="axes_3">
   <g id="patch_8">
    <path d="M 61.2 615.3624 
L 450 615.3624 
L 450 451.911686 
L 61.2 451.911686 
z
" style="fill: #ffffff"/>
   </g>
   <g id="matplotlib.axis_5">
    <g id="xtick_5">
     <g id="line2d_45">
      <path d="M 141.247059 615.3624 
L 141.247059 451.911686 
" clip-path="url(#p36ae6ffaa8)" style="fill: none; stroke: #b0b0b0; stroke-opacity: 0.3; stroke-width: 0.8; stroke-linecap: square"/>
     </g>
     <g id="line2d_46">
      <g>
       <use xlink:href="#mf56a56b80a" x="141.247059" y="615.3624" style="stroke: #000000; stroke-width: 0.8"/>
      </g>
     </g>
     <g id="text_15">
      <text style="font-size: 11px; font-family: 'DejaVu Sans', 'Bitstream Vera Sans', 'Computer Modern Sans Serif', 'Lucida Grande', 'Verdana', 'Geneva', 'Lucid', 'Arial', 'Helvetica', 'Avant Garde', sans-serif; text-anchor: middle" x="141.247059" y="630.720681" transform="rotate(-0 141.247059 630.720681)">off</text>
     </g>
    </g>
    <g id="xtick_6">
     <g id="line2d_47">
      <path d="M 369.952941 615.3624 
L 369.952941 451.911686 
" clip-path="url(#p36ae6ffaa8)" style="fill: none; stroke: #b0b0b0; stroke-opacity: 0.3; stroke-width: 0.8; stroke-linecap: square"/>
     </g>
     <g id="line2d_48">
      <g>
       <use xlink:href="#mf56a56b80a" x="369.952941" y="615.3624" style="stroke: #000000; stroke-width: 0.8"/>
      </g>
     </g>
     <g id="text_16">
      <text style="font-size: 11px; font-family: 'DejaVu Sans', 'Bitstream Vera Sans', 'Computer Modern Sans Serif', 'Lucida Grande', 'Verdana', 'Geneva', 'Lucid', 'Arial', 'Helvetica', 'Avant Garde', sans-serif; text-anchor: middle" x="369.952941" y="630.720681" transform="rotate(-0 369.952941 630.720681)">on</text>
     </g>
    </g>
   </g>
   <g id="matplotlib.axis_6">
    <g id="ytick_13">
     <g id="line2d_49">
      <path d="M 61.2 615.3624 
L 450 615.3624 
" clip-path="url(#p36ae6ffaa8)" style="fill: none; stroke: #b0b0b0; stroke-opacity: 0.3; stroke-width: 0.8; stroke-linecap: square"/>
     </g>
     <g id="line2d_50">
      <g>
       <use xlink:href="#m84a299cfe8" x="61.2" y="615.3624" style="stroke: #000000; stroke-width: 0.8"/>
      </g>
     </g>
     <g id="text_17">
      <text style="font-size: 11px; font-family: 'DejaVu Sans', 'Bitstream Vera Sans', 'Computer Modern Sans Serif', 'Lucida Grande', 'Verdana', 'Geneva', 'Lucid', 'Arial', 'Helvetica', 'Avant Garde', sans-serif; text-anchor: end" x="54.2" y="619.541541" transform="rotate(-0 54.2 619.541541)">0</text>
     </g>
    </g>
    <g id="ytick_14">
     <g id="line2d_51">
      <path d="M 61.2 587.158137 
L 450 587.158137 
" clip-path="url(#p36ae6ffaa8)" style="fill: none; stroke: #b0b0b0; stroke-opacity: 0.3; stroke-width: 0.8; stroke-linecap: square"/>
     </g>
     <g id="line2d_52">
      <g>
       <use xlink:href="#m84a299cfe8" x="61.2" y="587.158137" style="stroke: #000000; stroke-width: 0.8"/>
      </g>
     </g>
     <g id="text_18">
      <text style="font-size: 11px; font-family: 'DejaVu Sans', 'Bitstream Vera Sans', 'Computer Modern Sans Serif', 'Lucida Grande', 'Verdana', 'Geneva', 'Lucid', 'Arial', 'Helvetica', 'Avant Garde', sans-serif; text-anchor: end" x="54.2" y="591.337278" transform="rotate(-0 54.2 591.337278)">50000</text>
     </g>
    </g>
    <g id="ytick_15">
     <g id="line2d_53">
      <path d="M 61.2 558.953874 
L 450 558.953874 
" clip-path="url(#p36ae6ffaa8)" style="fill: none; stroke: #b0b0b0; stroke-opacity: 0.3; stroke-width: 0.8; stroke-linecap: square"/>
     </g>
     <g id="line2d_54">
      <g>
       <use xlink:href="#m84a299cfe8" x="61.2" y="558.953874" style="stroke: #000000; stroke-width: 0.8"/>
      </g>
     </g>
     <g id="text_19">
      <text style="font-size: 11px; font-family: 'DejaVu Sans', 'Bitstream Vera Sans', 'Computer Modern Sans Serif', 'Lucida Grande', 'Verdana', 'Geneva', 'Lucid', 'Arial', 'Helvetica', 'Avant Garde', sans-serif; text-anchor: end" x="54.2" y="563.133015" transform="rotate(-0 54.2 563.133015)">100000</text>
     </g>
    </g>
    <g id="ytick_16">
     <g id="line2d_55">
      <path d="M 61.2 530.749611 
L 450 530.749611 
" clip-path="url(#p36ae6ffaa8)" style="fill: none; stroke: #b0b0b0; stroke-opacity: 0.3; stroke-width: 0.8; stroke-linecap: square"/>
     </g>
     <g id="line2d_56">
      <g>
       <use xlink:href="#m84a299cfe8" x="61.2" y="530.749611" style="stroke: #000000; stroke-width: 0.8"/>
      </g>
     </g>
     <g id="text_20">
      <text style="font-size: 11px; font-family: 'DejaVu Sans', 'Bitstream Vera Sans', 'Computer Modern Sans Serif', 'Lucida Grande', 'Verdana', 'Geneva', 'Lucid', 'Arial', 'Helvetica', 'Avant Garde', sans-serif; text-anchor: end" x="54.2" y="534.928751" transform="rotate(-0 54.2 534.928751)">150000</text>
     </g>
    </g>
    <g id="ytick_17">
     <g id="line2d_57">
      <path d="M 61.2 502.545348 
L 450 502.545348 
" clip-path="url(#p36ae6ffaa8)" style="fill: none; stroke: #b0b0b0; stroke-opacity: 0.3; stroke-width: 0.8; stroke-linecap: square"/>
     </g>
     <g id="line2d_58">
      <g>
       <use xlink:href="#m84a299cfe8" x="61.2" y="502.545348" style="stroke: #000000; stroke-width: 0.8"/>
      </g>
     </g>
     <g id="text_21">
      <text style="font-size: 11px; font-family: 'DejaVu Sans', 'Bitstream Vera Sans', 'Computer Modern Sans Serif', 'Lucida Grande', 'Verdana', 'Geneva', 'Lucid', 'Arial', 'Helvetica', 'Avant Garde', sans-serif; text-anchor: end" x="54.2" y="506.724488" transform="rotate(-0 54.2 506.724488)">200000</text>
     </g>
    </g>
    <g id="ytick_18">
     <g id="line2d_59">
      <path d="M 61.2 474.341085 
L 450 474.341085 
" clip-path="url(#p36ae6ffaa8)" style="fill: none; stroke: #b0b0b0; stroke-opacity: 0.3; stroke-width: 0.8; stroke-linecap: square"/>
     </g>
     <g id="line2d_60">
      <g>
       <use xlink:href="#m84a299cfe8" x="61.2" y="474.341085" style="stroke: #000000; stroke-width: 0.8"/>
      </g>
     </g>
     <g id="text_22">
      <text style="font-size: 11px; font-family: 'DejaVu Sans', 'Bitstream Vera Sans', 'Computer Modern Sans Serif', 'Lucida Grande', 'Verdana', 'Geneva', 'Lucid', 'Arial', 'Helvetica', 'Avant Garde', sans-serif; text-anchor: end" x="54.2" y="478.520225" transform="rotate(-0 54.2 478.520225)">250000</text>
     </g>
    </g>
    <g id="text_23">
     <text style="font-size: 11px; font-family: 'DejaVu Sans', 'Bitstream Vera Sans', 'Computer Modern Sans Serif', 'Lucida Grande', 'Verdana', 'Geneva', 'Lucid', 'Arial', 'Helvetica', 'Avant Garde', sans-serif; text-anchor: middle" x="5.919844" y="533.637043" transform="rotate(-90 5.919844 533.637043)">Mean tokens/run (in+out)</text>
    </g>
   </g>
   <g id="patch_9">
    <path d="M 61.2 615.3624 
L 61.2 451.911686 
" style="fill: none; stroke: #000000; stroke-width: 0.8; stroke-linejoin: miter; stroke-linecap: square"/>
   </g>
   <g id="patch_10">
    <path d="M 61.2 615.3624 
L 450 615.3624 
" style="fill: none; stroke: #000000; stroke-width: 0.8; stroke-linejoin: miter; stroke-linecap: square"/>
   </g>
   <g id="line2d_61">
    <path d="M 141.247059 518.754126 
L 369.952941 504.875514 
" clip-path="url(#p36ae6ffaa8)" style="fill: none; stroke: #f58518; stroke-width: 2; stroke-linecap: square"/>
    <g clip-path="url(#p36ae6ffaa8)">
     <use xlink:href="#mfa3e1f313a" x="141.247059" y="518.754126" style="fill: #f58518; stroke: #fcfcfb"/>
     <use xlink:href="#mfa3e1f313a" x="369.952941" y="504.875514" style="fill: #f58518; stroke: #fcfcfb"/>
    </g>
   </g>
   <g id="line2d_62">
    <path d="M 141.247059 592.654607 
L 369.952941 575.06436 
" clip-path="url(#p36ae6ffaa8)" style="fill: none; stroke: #b279a2; stroke-width: 2; stroke-linecap: square"/>
    <g clip-path="url(#p36ae6ffaa8)">
     <use xlink:href="#m46d7c122ce" x="141.247059" y="592.654607" style="fill: #b279a2; stroke: #fcfcfb"/>
     <use xlink:href="#m46d7c122ce" x="369.952941" y="575.06436" style="fill: #b279a2; stroke: #fcfcfb"/>
    </g>
   </g>
   <g id="PathCollection_5">
    <g clip-path="url(#p36ae6ffaa8)">
     <use xlink:href="#m158ca34fc0" x="369.952941" y="458.61373" style="fill: #e45756; stroke: #fcfcfb"/>
    </g>
   </g>
   <g id="line2d_63">
    <path d="M 141.247059 589.620134 
L 369.952941 562.132353 
" clip-path="url(#p36ae6ffaa8)" style="fill: none; stroke: #54a24b; stroke-width: 2; stroke-linecap: square"/>
    <g clip-path="url(#p36ae6ffaa8)">
     <use xlink:href="#m04703664bd" x="141.247059" y="589.620134" style="fill: #54a24b; stroke: #fcfcfb"/>
     <use xlink:href="#m04703664bd" x="369.952941" y="562.132353" style="fill: #54a24b; stroke: #fcfcfb"/>
    </g>
   </g>
   <g id="line2d_64">
    <path d="M 141.247059 538.92001 
L 369.952941 521.755882 
" clip-path="url(#p36ae6ffaa8)" style="fill: none; stroke: #eeca3b; stroke-width: 2; stroke-linecap: square"/>
    <g clip-path="url(#p36ae6ffaa8)">
     <use xlink:href="#m05f092767a" x="141.247059" y="538.92001" style="fill: #eeca3b; stroke: #fcfcfb"/>
     <use xlink:href="#m05f092767a" x="369.952941" y="521.755882" style="fill: #eeca3b; stroke: #fcfcfb"/>
    </g>
   </g>
   <g id="line2d_65">
    <path d="M 141.247059 576.083216 
L 369.952941 562.859248 
" clip-path="url(#p36ae6ffaa8)" style="fill: none; stroke: #4c78a8; stroke-width: 2; stroke-linecap: square"/>
    <g clip-path="url(#p36ae6ffaa8)">
     <use xlink:href="#me1c3f8a202" x="141.247059" y="576.083216" style="fill: #4c78a8; stroke: #fcfcfb"/>
     <use xlink:href="#me1c3f8a202" x="369.952941" y="562.859248" style="fill: #4c78a8; stroke: #fcfcfb"/>
    </g>
   </g>
   <g id="PathCollection_6">
    <g clip-path="url(#p36ae6ffaa8)">
     <use xlink:href="#m44ce75e8b5" x="369.952941" y="529.273823" style="fill: #72b7b2; stroke: #fcfcfb"/>
    </g>
   </g>
   <g id="line2d_66">
    <path d="M 141.247059 563.206419 
L 369.952941 530.653559 
" clip-path="url(#p36ae6ffaa8)" style="fill: none; stroke-dasharray: 9.25,4; stroke-dashoffset: 0; stroke: #52514e; stroke-opacity: 0.85; stroke-width: 2.5"/>
    <g clip-path="url(#p36ae6ffaa8)">
     <use xlink:href="#mc7e902bf51" x="141.247059" y="563.206419" style="fill: #52514e; fill-opacity: 0.85; stroke: #52514e; stroke-opacity: 0.85; stroke-linejoin: miter"/>
     <use xlink:href="#mc7e902bf51" x="369.952941" y="530.653559" style="fill: #52514e; fill-opacity: 0.85; stroke: #52514e; stroke-opacity: 0.85; stroke-linejoin: miter"/>
    </g>
   </g>
  </g>
  <g id="text_24">
   <text style="font-size: 13px; font-family: 'DejaVu Sans', 'Bitstream Vera Sans', 'Computer Modern Sans Serif', 'Lucida Grande', 'Verdana', 'Geneva', 'Lucid', 'Arial', 'Helvetica', 'Avant Garde', sans-serif; text-anchor: start; fill: #0b0b0b" x="33.66" y="16.494769" transform="rotate(-0 33.66 16.494769)">Lever: self-correction (off -&gt; on)</text>
  </g>
  <g id="legend_1">
   <g id="text_25">
    <text style="font-size: 11px; font-family: 'DejaVu Sans', 'Bitstream Vera Sans', 'Computer Modern Sans Serif', 'Lucida Grande', 'Verdana', 'Geneva', 'Lucid', 'Arial', 'Helvetica', 'Avant Garde', sans-serif; text-anchor: start; fill: #0b0b0b" x="472.05" y="283.142266" transform="rotate(-0 472.05 283.142266)">Strategy (cell)</text>
   </g>
   <g id="line2d_67">
    <defs>
     <path id="m69a7bdd112" d="M 0 4 
C 1.060812 4 2.078319 3.578535 2.828427 2.828427 
C 3.578535 2.078319 4 1.060812 4 0 
C 4 -1.060812 3.578535 -2.078319 2.828427 -2.828427 
C 2.078319 -3.578535 1.060812 -4 0 -4 
C -1.060812 -4 -2.078319 -3.578535 -2.828427 -2.828427 
C -3.578535 -2.078319 -4 -1.060812 -4 0 
C -4 1.060812 -3.578535 2.078319 -2.828427 2.828427 
C -2.078319 3.578535 -1.060812 4 0 4 
z
" style="stroke: #fcfcfb"/>
    </defs>
    <g>
     <use xlink:href="#m69a7bdd112" x="480.55" y="293.163594" style="fill: #f58518; stroke: #fcfcfb"/>
    </g>
   </g>
   <g id="text_26">
    <text style="font-size: 8.5px; font-family: 'DejaVu Sans', 'Bitstream Vera Sans', 'Computer Modern Sans Serif', 'Lucida Grande', 'Verdana', 'Geneva', 'Lucid', 'Arial', 'Helvetica', 'Avant Garde', sans-serif; text-anchor: start; fill: #0b0b0b" x="495.85" y="296.138594" transform="rotate(-0 495.85 296.138594)">ensemble_vote</text>
   </g>
   <g id="line2d_68">
    <defs>
     <path id="mbe50160115" d="M 0 4 
C 1.060812 4 2.078319 3.578535 2.828427 2.828427 
C 3.578535 2.078319 4 1.060812 4 0 
C 4 -1.060812 3.578535 -2.078319 2.828427 -2.828427 
C 2.078319 -3.578535 1.060812 -4 0 -4 
C -1.060812 -4 -2.078319 -3.578535 -2.828427 -2.828427 
C -3.578535 -2.078319 -4 -1.060812 -4 0 
C -4 1.060812 -3.578535 2.078319 -2.828427 2.828427 
C -2.078319 3.578535 -1.060812 4 0 4 
z
" style="stroke: #fcfcfb"/>
    </defs>
    <g>
     <use xlink:href="#mbe50160115" x="480.55" y="305.876406" style="fill: #b279a2; stroke: #fcfcfb"/>
    </g>
   </g>
   <g id="text_27">
    <text style="font-size: 8.5px; font-family: 'DejaVu Sans', 'Bitstream Vera Sans', 'Computer Modern Sans Serif', 'Lucida Grande', 'Verdana', 'Geneva', 'Lucid', 'Arial', 'Helvetica', 'Avant Garde', sans-serif; text-anchor: start; fill: #0b0b0b" x="495.85" y="308.851406" transform="rotate(-0 495.85 308.851406)">plan_then_execute</text>
   </g>
   <g id="line2d_69">
    <defs>
     <path id="mb2b636d49e" d="M 0 4 
C 1.060812 4 2.078319 3.578535 2.828427 2.828427 
C 3.578535 2.078319 4 1.060812 4 0 
C 4 -1.060812 3.578535 -2.078319 2.828427 -2.828427 
C 2.078319 -3.578535 1.060812 -4 0 -4 
C -1.060812 -4 -2.078319 -3.578535 -2.828427 -2.828427 
C -3.578535 -2.078319 -4 -1.060812 -4 0 
C -4 1.060812 -3.578535 2.078319 -2.828427 2.828427 
C -2.078319 3.578535 -1.060812 4 0 4 
z
" style="stroke: #fcfcfb"/>
    </defs>
    <g>
     <use xlink:href="#mb2b636d49e" x="480.55" y="318.589219" style="fill: #e45756; stroke: #fcfcfb"/>
    </g>
   </g>
   <g id="text_28">
    <text style="font-size: 8.5px; font-family: 'DejaVu Sans', 'Bitstream Vera Sans', 'Computer Modern Sans Serif', 'Lucida Grande', 'Verdana', 'Geneva', 'Lucid', 'Arial', 'Helvetica', 'Avant Garde', sans-serif; text-anchor: start; fill: #0b0b0b" x="495.85" y="321.564219" transform="rotate(-0 495.85 321.564219)">plan_write_critique</text>
   </g>
   <g id="line2d_70">
    <defs>
     <path id="mad2da93eb8" d="M 0 4 
C 1.060812 4 2.078319 3.578535 2.828427 2.828427 
C 3.578535 2.078319 4 1.060812 4 0 
C 4 -1.060812 3.578535 -2.078319 2.828427 -2.828427 
C 2.078319 -3.578535 1.060812 -4 0 -4 
C -1.060812 -4 -2.078319 -3.578535 -2.828427 -2.828427 
C -3.578535 -2.078319 -4 -1.060812 -4 0 
C -4 1.060812 -3.578535 2.078319 -2.828427 2.828427 
C -2.078319 3.578535 -1.060812 4 0 4 
z
" style="stroke: #fcfcfb"/>
    </defs>
    <g>
     <use xlink:href="#mad2da93eb8" x="480.55" y="331.302031" style="fill: #54a24b; stroke: #fcfcfb"/>
    </g>
   </g>
   <g id="text_29">
    <text style="font-size: 8.5px; font-family: 'DejaVu Sans', 'Bitstream Vera Sans', 'Computer Modern Sans Serif', 'Lucida Grande', 'Verdana', 'Geneva', 'Lucid', 'Arial', 'Helvetica', 'Avant Garde', sans-serif; text-anchor: start; fill: #0b0b0b" x="495.85" y="334.277031" transform="rotate(-0 495.85 334.277031)">structured_per_table</text>
   </g>
   <g id="line2d_71">
    <defs>
     <path id="mabaef64ff4" d="M 0 4 
C 1.060812 4 2.078319 3.578535 2.828427 2.828427 
C 3.578535 2.078319 4 1.060812 4 0 
C 4 -1.060812 3.578535 -2.078319 2.828427 -2.828427 
C 2.078319 -3.578535 1.060812 -4 0 -4 
C -1.060812 -4 -2.078319 -3.578535 -2.828427 -2.828427 
C -3.578535 -2.078319 -4 -1.060812 -4 0 
C -4 1.060812 -3.578535 2.078319 -2.828427 2.828427 
C -2.078319 3.578535 -1.060812 4 0 4 
z
" style="stroke: #fcfcfb"/>
    </defs>
    <g>
     <use xlink:href="#mabaef64ff4" x="480.55" y="344.014844" style="fill: #eeca3b; stroke: #fcfcfb"/>
    </g>
   </g>
   <g id="text_30">
    <text style="font-size: 8.5px; font-family: 'DejaVu Sans', 'Bitstream Vera Sans', 'Computer Modern Sans Serif', 'Lucida Grande', 'Verdana', 'Geneva', 'Lucid', 'Arial', 'Helvetica', 'Avant Garde', sans-serif; text-anchor: start; fill: #0b0b0b" x="495.85" y="346.989844" transform="rotate(-0 495.85 346.989844)">write_then_critique</text>
   </g>
   <g id="line2d_72">
    <defs>
     <path id="m15d7f8a28b" d="M 0 4 
C 1.060812 4 2.078319 3.578535 2.828427 2.828427 
C 3.578535 2.078319 4 1.060812 4 0 
C 4 -1.060812 3.578535 -2.078319 2.828427 -2.828427 
C 2.078319 -3.578535 1.060812 -4 0 -4 
C -1.060812 -4 -2.078319 -3.578535 -2.828427 -2.828427 
C -3.578535 -2.078319 -4 -1.060812 -4 0 
C -4 1.060812 -3.578535 2.078319 -2.828427 2.828427 
C -2.078319 3.578535 -1.060812 4 0 4 
z
" style="stroke: #fcfcfb"/>
    </defs>
    <g>
     <use xlink:href="#m15d7f8a28b" x="480.55" y="356.727656" style="fill: #4c78a8; stroke: #fcfcfb"/>
    </g>
   </g>
   <g id="text_31">
    <text style="font-size: 8.5px; font-family: 'DejaVu Sans', 'Bitstream Vera Sans', 'Computer Modern Sans Serif', 'Lucida Grande', 'Verdana', 'Geneva', 'Lucid', 'Arial', 'Helvetica', 'Avant Garde', sans-serif; text-anchor: start; fill: #0b0b0b" x="495.85" y="359.702656" transform="rotate(-0 495.85 359.702656)">write_tools_freeform</text>
   </g>
   <g id="line2d_73">
    <defs>
     <path id="m9c92afca5e" d="M 0 4 
C 1.060812 4 2.078319 3.578535 2.828427 2.828427 
C 3.578535 2.078319 4 1.060812 4 0 
C 4 -1.060812 3.578535 -2.078319 2.828427 -2.828427 
C 2.078319 -3.578535 1.060812 -4 0 -4 
C -1.060812 -4 -2.078319 -3.578535 -2.828427 -2.828427 
C -3.578535 -2.078319 -4 -1.060812 -4 0 
C -4 1.060812 -3.578535 2.078319 -2.828427 2.828427 
C -2.078319 3.578535 -1.060812 4 0 4 
z
" style="stroke: #fcfcfb"/>
    </defs>
    <g>
     <use xlink:href="#m9c92afca5e" x="480.55" y="369.440469" style="fill: #72b7b2; stroke: #fcfcfb"/>
    </g>
   </g>
   <g id="text_32">
    <text style="font-size: 8.5px; font-family: 'DejaVu Sans', 'Bitstream Vera Sans', 'Computer Modern Sans Serif', 'Lucida Grande', 'Verdana', 'Geneva', 'Lucid', 'Arial', 'Helvetica', 'Avant Garde', sans-serif; text-anchor: start; fill: #0b0b0b" x="495.85" y="372.415469" transform="rotate(-0 495.85 372.415469)">write_tools_freeform_inlinedbt</text>
   </g>
   <g id="line2d_74">
    <path d="M 472.05 382.153281 
L 480.55 382.153281 
L 489.05 382.153281 
" style="fill: none; stroke-dasharray: 9.25,4; stroke-dashoffset: 0; stroke: #52514e; stroke-opacity: 0.85; stroke-width: 2.5"/>
    <g>
     <use xlink:href="#mc7e902bf51" x="480.55" y="382.153281" style="fill: #52514e; fill-opacity: 0.85; stroke: #52514e; stroke-opacity: 0.85; stroke-linejoin: miter"/>
    </g>
   </g>
   <g id="text_33">
    <text style="font-size: 8.5px; font-family: 'DejaVu Sans', 'Bitstream Vera Sans', 'Computer Modern Sans Serif', 'Lucida Grande', 'Verdana', 'Geneva', 'Lucid', 'Arial', 'Helvetica', 'Avant Garde', sans-serif; text-anchor: start; fill: #0b0b0b" x="495.85" y="385.128281" transform="rotate(-0 495.85 385.128281)">overall mean</text>
   </g>
  </g>
 </g>
 <defs>
  <clipPath id="pb5245d183a">
   <rect x="61.2" y="66.168" width="388.8" height="163.450714"/>
  </clipPath>
  <clipPath id="p8d674b335f">
   <rect x="61.2" y="259.039843" width="388.8" height="163.450714"/>
  </clipPath>
  <clipPath id="p36ae6ffaa8">
   <rect x="61.2" y="451.911686" width="388.8" height="163.450714"/>
  </clipPath>
 </defs>
</svg>
