<?xml version="1.0" encoding="utf-8" standalone="no"?>
<!DOCTYPE svg PUBLIC "-//W3C//DTD SVG 1.1//EN"
  "http://www.w3.org/Graphics/SVG/1.1/DTD/svg11.dtd">
<svg xmlns:xlink="http://www.w3.org/1999/xlink" width="673.2pt" height="661.68pt" viewBox="0 0 673.2 661.68" xmlns="http://www.w3.org/2000/svg" version="1.1">
 <metadata>
  <rdf:RDF xmlns:dc="http://purl.org/dc/elements/1.1/" xmlns:cc="http://creativecommons.org/ns#" xmlns:rdf="http://www.w3.org/1999/02/22-rdf-syntax-ns#">
   <cc:Work>
    <dc:type rdf:resource="http://purl.org/dc/dcmitype/StillImage"/>
    <dc:format>image/svg+xml</dc:format>
    <dc:creator>
     <cc:Agent>
      <dc:title>Matplotlib v3.10.9, https://matplotlib.org/</dc:title>
     </cc:Agent>
    </dc:creator>
   </cc:Work>
  </rdf:RDF>
 </metadata>
 <defs>
  <style type="text/css">*{stroke-linejoin: round; stroke-linecap: butt}</style>
 </defs>
 <g id="figure_1">
  <g id="patch_1">
   <path d="M 0 661.68 
L 673.2 661.68 
L 673.2 0 
L 0 0 
z
" style="fill: #ffffff"/>
  </g>
  <g id="axes_1">
   <g id="patch_2">
    <path d="M 61.2 229.618714 
L 450 229.618714 
L 450 66.168 
L 61.2 66.168 
z
" style="fill: #ffffff"/>
   </g>
   <g id="matplotlib.axis_1">
    <g id="xtick_1">
     <g id="line2d_1">
      <path d="M 141.247059 229.618714 
L 141.247059 66.168 
" clip-path="url(#p4ce107c254)" style="fill: none; stroke: #b0b0b0; stroke-opacity: 0.3; stroke-width: 0.8; stroke-linecap: square"/>
     </g>
     <g id="line2d_2">
      <defs>
       <path id="mab7c8b2458" d="M 0 0 
L 0 3.5 
" style="stroke: #000000; stroke-width: 0.8"/>
      </defs>
      <g>
       <use xlink:href="#mab7c8b2458" x="141.247059" y="229.618714" style="stroke: #000000; stroke-width: 0.8"/>
      </g>
     </g>
    </g>
    <g id="xtick_2">
     <g id="line2d_3">
      <path d="M 369.952941 229.618714 
L 369.952941 66.168 
" clip-path="url(#p4ce107c254)" style="fill: none; stroke: #b0b0b0; stroke-opacity: 0.3; stroke-width: 0.8; stroke-linecap: square"/>
     </g>
     <g id="line2d_4">
      <g>
       <use xlink:href="#mab7c8b2458" x="369.952941" y="229.618714" style="stroke: #000000; stroke-width: 0.8"/>
      </g>
     </g>
    </g>
   </g>
   <g id="matplotlib.axis_2">
    <g id="ytick_1">
     <g id="line2d_5">
      <path d="M 61.2 224.992751 
L 450 224.992751 
" clip-path="url(#p4ce107c254)" style="fill: none; stroke: #b0b0b0; stroke-opacity: 0.3; stroke-width: 0.8; stroke-linecap: square"/>
     </g>
     <g id="line2d_6">
      <defs>
       <path id="me994716147" d="M 0 0 
L -3.5 0 
" style="stroke: #000000; stroke-width: 0.8"/>
      </defs>
      <g>
       <use xlink:href="#me994716147" x="61.2" y="224.992751" style="stroke: #000000; stroke-width: 0.8"/>
      </g>
     </g>
     <g id="text_1">
      <text style="font-size: 11px; font-family: 'DejaVu Sans', 'Bitstream Vera Sans', 'Computer Modern Sans Serif', 'Lucida Grande', 'Verdana', 'Geneva', 'Lucid', 'Arial', 'Helvetica', 'Avant Garde', sans-serif; text-anchor: end" x="54.2" y="229.171891" transform="rotate(-0 54.2 229.171891)">0%</text>
     </g>
    </g>
    <g id="ytick_2">
     <g id="line2d_7">
      <path d="M 61.2 194.152993 
L 450 194.152993 
" clip-path="url(#p4ce107c254)" style="fill: none; stroke: #b0b0b0; stroke-opacity: 0.3; stroke-width: 0.8; stroke-linecap: square"/>
     </g>
     <g id="line2d_8">
      <g>
       <use xlink:href="#me994716147" x="61.2" y="194.152993" style="stroke: #000000; stroke-width: 0.8"/>
      </g>
     </g>
     <g id="text_2">
      <text style="font-size: 11px; font-family: 'DejaVu Sans', 'Bitstream Vera Sans', 'Computer Modern Sans Serif', 'Lucida Grande', 'Verdana', 'Geneva', 'Lucid', 'Arial', 'Helvetica', 'Avant Garde', sans-serif; text-anchor: end" x="54.2" y="198.332134" transform="rotate(-0 54.2 198.332134)">20%</text>
     </g>
    </g>
    <g id="ytick_3">
     <g id="line2d_9">
      <path d="M 61.2 163.313236 
L 450 163.313236 
" clip-path="url(#p4ce107c254)" style="fill: none; stroke: #b0b0b0; stroke-opacity: 0.3; stroke-width: 0.8; stroke-linecap: square"/>
     </g>
     <g id="line2d_10">
      <g>
       <use xlink:href="#me994716147" x="61.2" y="163.313236" style="stroke: #000000; stroke-width: 0.8"/>
      </g>
     </g>
     <g id="text_3">
      <text style="font-size: 11px; font-family: 'DejaVu Sans', 'Bitstream Vera Sans', 'Computer Modern Sans Serif', 'Lucida Grande', 'Verdana', 'Geneva', 'Lucid', 'Arial', 'Helvetica', 'Avant Garde', sans-serif; text-anchor: end" x="54.2" y="167.492376" transform="rotate(-0 54.2 167.492376)">40%</text>
     </g>
    </g>
    <g id="ytick_4">
     <g id="line2d_11">
      <path d="M 61.2 132.473478 
L 450 132.473478 
" clip-path="url(#p4ce107c254)" style="fill: none; stroke: #b0b0b0; stroke-opacity: 0.3; stroke-width: 0.8; stroke-linecap: square"/>
     </g>
     <g id="line2d_12">
      <g>
       <use xlink:href="#me994716147" x="61.2" y="132.473478" style="stroke: #000000; stroke-width: 0.8"/>
      </g>
     </g>
     <g id="text_4">
      <text style="font-size: 11px; font-family: 'DejaVu Sans', 'Bitstream Vera Sans', 'Computer Modern Sans Serif', 'Lucida Grande', 'Verdana', 'Geneva', 'Lucid', 'Arial', 'Helvetica', 'Avant Garde', sans-serif; text-anchor: end" x="54.2" y="136.652619" transform="rotate(-0 54.2 136.652619)">60%</text>
     </g>
    </g>
    <g id="ytick_5">
     <g id="line2d_13">
      <path d="M 61.2 101.633721 
L 450 101.633721 
" clip-path="url(#p4ce107c254)" style="fill: none; stroke: #b0b0b0; stroke-opacity: 0.3; stroke-width: 0.8; stroke-linecap: square"/>
     </g>
     <g id="line2d_14">
      <g>
       <use xlink:href="#me994716147" x="61.2" y="101.633721" style="stroke: #000000; stroke-width: 0.8"/>
      </g>
     </g>
     <g id="text_5">
      <text style="font-size: 11px; font-family: 'DejaVu Sans', 'Bitstream Vera Sans', 'Computer Modern Sans Serif', 'Lucida Grande', 'Verdana', 'Geneva', 'Lucid', 'Arial', 'Helvetica', 'Avant Garde', sans-serif; text-anchor: end" x="54.2" y="105.812862" transform="rotate(-0 54.2 105.812862)">80%</text>
     </g>
    </g>
    <g id="ytick_6">
     <g id="line2d_15">
      <path d="M 61.2 70.793964 
L 450 70.793964 
" clip-path="url(#p4ce107c254)" style="fill: none; stroke: #b0b0b0; stroke-opacity: 0.3; stroke-width: 0.8; stroke-linecap: square"/>
     </g>
     <g id="line2d_16">
      <g>
       <use xlink:href="#me994716147" x="61.2" y="70.793964" style="stroke: #000000; stroke-width: 0.8"/>
      </g>
     </g>
     <g id="text_6">
      <text style="font-size: 11px; font-family: 'DejaVu Sans', 'Bitstream Vera Sans', 'Computer Modern Sans Serif', 'Lucida Grande', 'Verdana', 'Geneva', 'Lucid', 'Arial', 'Helvetica', 'Avant Garde', sans-serif; text-anchor: end" x="54.2" y="74.973104" transform="rotate(-0 54.2 74.973104)">100%</text>
     </g>
    </g>
    <g id="text_7">
     <text style="font-size: 11px; font-family: 'DejaVu Sans', 'Bitstream Vera Sans', 'Computer Modern Sans Serif', 'Lucida Grande', 'Verdana', 'Geneva', 'Lucid', 'Arial', 'Helvetica', 'Avant Garde', sans-serif; text-anchor: middle" x="16.464375" y="147.893357" transform="rotate(-90 16.464375 147.893357)">Materialization rate</text>
    </g>
   </g>
   <g id="patch_3">
    <path d="M 61.2 229.618714 
L 61.2 66.168 
" style="fill: none; stroke: #000000; stroke-width: 0.8; stroke-linejoin: miter; stroke-linecap: square"/>
   </g>
   <g id="patch_4">
    <path d="M 61.2 229.618714 
L 450 229.618714 
" style="fill: none; stroke: #000000; stroke-width: 0.8; stroke-linejoin: miter; stroke-linecap: square"/>
   </g>
   <g id="line2d_17">
    <path d="M 141.247059 84.928852 
L 369.952941 101.633721 
" clip-path="url(#p4ce107c254)" style="fill: none; stroke: #f58518; stroke-width: 2; stroke-linecap: square"/>
    <defs>
     <path id="mc0e06e0fcb" d="M 0 3.5 
C 0.928211 3.5 1.81853 3.131218 2.474874 2.474874 
C 3.131218 1.81853 3.5 0.928211 3.5 0 
C 3.5 -0.928211 3.131218 -1.81853 2.474874 -2.474874 
C 1.81853 -3.131218 0.928211 -3.5 0 -3.5 
C -0.928211 -3.5 -1.81853 -3.131218 -2.474874 -2.474874 
C -3.131218 -1.81853 -3.5 -0.928211 -3.5 0 
C -3.5 0.928211 -3.131218 1.81853 -2.474874 2.474874 
C -1.81853 3.131218 -0.928211 3.5 0 3.5 
z
" style="stroke: #fcfcfb"/>
    </defs>
    <g clip-path="url(#p4ce107c254)">
     <use xlink:href="#mc0e06e0fcb" x="141.247059" y="84.928852" style="fill: #f58518; stroke: #fcfcfb"/>
     <use xlink:href="#mc0e06e0fcb" x="369.952941" y="101.633721" style="fill: #f58518; stroke: #fcfcfb"/>
    </g>
   </g>
   <g id="line2d_18">
    <path d="M 141.247059 100.348731 
L 369.952941 109.34366 
" clip-path="url(#p4ce107c254)" style="fill: none; stroke: #b279a2; stroke-width: 2; stroke-linecap: square"/>
    <defs>
     <path id="mb362b24a91" d="M 0 3.5 
C 0.928211 3.5 1.81853 3.131218 2.474874 2.474874 
C 3.131218 1.81853 3.5 0.928211 3.5 0 
C 3.5 -0.928211 3.131218 -1.81853 2.474874 -2.474874 
C 1.81853 -3.131218 0.928211 -3.5 0 -3.5 
C -0.928211 -3.5 -1.81853 -3.131218 -2.474874 -2.474874 
C -3.131218 -1.81853 -3.5 -0.928211 -3.5 0 
C -3.5 0.928211 -3.131218 1.81853 -2.474874 2.474874 
C -1.81853 3.131218 -0.928211 3.5 0 3.5 
z
" style="stroke: #fcfcfb"/>
    </defs>
    <g clip-path="url(#p4ce107c254)">
     <use xlink:href="#mb362b24a91" x="141.247059" y="100.348731" style="fill: #b279a2; stroke: #fcfcfb"/>
     <use xlink:href="#mb362b24a91" x="369.952941" y="109.34366" style="fill: #b279a2; stroke: #fcfcfb"/>
    </g>
   </g>
   <g id="line2d_19">
    <path d="M 141.247059 73.363943 
L 369.952941 104.203701 
" clip-path="url(#p4ce107c254)" style="fill: none; stroke: #e45756; stroke-width: 2; stroke-linecap: square"/>
    <defs>
     <path id="m2613b43534" d="M 0 3.5 
C 0.928211 3.5 1.81853 3.131218 2.474874 2.474874 
C 3.131218 1.81853 3.5 0.928211 3.5 0 
C 3.5 -0.928211 3.131218 -1.81853 2.474874 -2.474874 
C 1.81853 -3.131218 0.928211 -3.5 0 -3.5 
C -0.928211 -3.5 -1.81853 -3.131218 -2.474874 -2.474874 
C -3.131218 -1.81853 -3.5 -0.928211 -3.5 0 
C -3.5 0.928211 -3.131218 1.81853 -2.474874 2.474874 
C -1.81853 3.131218 -0.928211 3.5 0 3.5 
z
" style="stroke: #fcfcfb"/>
    </defs>
    <g clip-path="url(#p4ce107c254)">
     <use xlink:href="#m2613b43534" x="141.247059" y="73.363943" style="fill: #e45756; stroke: #fcfcfb"/>
     <use xlink:href="#m2613b43534" x="369.952941" y="104.203701" style="fill: #e45756; stroke: #fcfcfb"/>
    </g>
   </g>
   <g id="line2d_20">
    <path d="M 141.247059 127.333519 
L 369.952941 106.773681 
" clip-path="url(#p4ce107c254)" style="fill: none; stroke: #54a24b; stroke-width: 2; stroke-linecap: square"/>
    <defs>
     <path id="mc9495a853a" d="M 0 3.5 
C 0.928211 3.5 1.81853 3.131218 2.474874 2.474874 
C 3.131218 1.81853 3.5 0.928211 3.5 0 
C 3.5 -0.928211 3.131218 -1.81853 2.474874 -2.474874 
C 1.81853 -3.131218 0.928211 -3.5 0 -3.5 
C -0.928211 -3.5 -1.81853 -3.131218 -2.474874 -2.474874 
C -3.131218 -1.81853 -3.5 -0.928211 -3.5 0 
C -3.5 0.928211 -3.131218 1.81853 -2.474874 2.474874 
C -1.81853 3.131218 -0.928211 3.5 0 3.5 
z
" style="stroke: #fcfcfb"/>
    </defs>
    <g clip-path="url(#p4ce107c254)">
     <use xlink:href="#mc9495a853a" x="141.247059" y="127.333519" style="fill: #54a24b; stroke: #fcfcfb"/>
     <use xlink:href="#mc9495a853a" x="369.952941" y="106.773681" style="fill: #54a24b; stroke: #fcfcfb"/>
    </g>
   </g>
   <g id="line2d_21">
    <path d="M 141.247059 122.193559 
L 369.952941 86.213842 
" clip-path="url(#p4ce107c254)" style="fill: none; stroke: #eeca3b; stroke-width: 2; stroke-linecap: square"/>
    <defs>
     <path id="me3ec54649e" d="M 0 3.5 
C 0.928211 3.5 1.81853 3.131218 2.474874 2.474874 
C 3.131218 1.81853 3.5 0.928211 3.5 0 
C 3.5 -0.928211 3.131218 -1.81853 2.474874 -2.474874 
C 1.81853 -3.131218 0.928211 -3.5 0 -3.5 
C -0.928211 -3.5 -1.81853 -3.131218 -2.474874 -2.474874 
C -3.131218 -1.81853 -3.5 -0.928211 -3.5 0 
C -3.5 0.928211 -3.131218 1.81853 -2.474874 2.474874 
C -1.81853 3.131218 -0.928211 3.5 0 3.5 
z
" style="stroke: #fcfcfb"/>
    </defs>
    <g clip-path="url(#p4ce107c254)">
     <use xlink:href="#me3ec54649e" x="141.247059" y="122.193559" style="fill: #eeca3b; stroke: #fcfcfb"/>
     <use xlink:href="#me3ec54649e" x="369.952941" y="86.213842" style="fill: #eeca3b; stroke: #fcfcfb"/>
    </g>
   </g>
   <g id="line2d_22">
    <path d="M 141.247059 115.76861 
L 369.952941 104.203701 
" clip-path="url(#p4ce107c254)" style="fill: none; stroke: #4c78a8; stroke-width: 2; stroke-linecap: square"/>
    <defs>
     <path id="m219ed64bd7" d="M 0 3.5 
C 0.928211 3.5 1.81853 3.131218 2.474874 2.474874 
C 3.131218 1.81853 3.5 0.928211 3.5 0 
C 3.5 -0.928211 3.131218 -1.81853 2.474874 -2.474874 
C 1.81853 -3.131218 0.928211 -3.5 0 -3.5 
C -0.928211 -3.5 -1.81853 -3.131218 -2.474874 -2.474874 
C -3.131218 -1.81853 -3.5 -0.928211 -3.5 0 
C -3.5 0.928211 -3.131218 1.81853 -2.474874 2.474874 
C -1.81853 3.131218 -0.928211 3.5 0 3.5 
z
" style="stroke: #fcfcfb"/>
    </defs>
    <g clip-path="url(#p4ce107c254)">
     <use xlink:href="#m219ed64bd7" x="141.247059" y="115.76861" style="fill: #4c78a8; stroke: #fcfcfb"/>
     <use xlink:href="#m219ed64bd7" x="369.952941" y="104.203701" style="fill: #4c78a8; stroke: #fcfcfb"/>
    </g>
   </g>
   <g id="line2d_23">
    <path d="M 141.247059 96.493761 
L 369.952941 122.193559 
" clip-path="url(#p4ce107c254)" style="fill: none; stroke: #72b7b2; stroke-width: 2; stroke-linecap: square"/>
    <defs>
     <path id="ma78bcd6b32" d="M 0 3.5 
C 0.928211 3.5 1.81853 3.131218 2.474874 2.474874 
C 3.131218 1.81853 3.5 0.928211 3.5 0 
C 3.5 -0.928211 3.131218 -1.81853 2.474874 -2.474874 
C 1.81853 -3.131218 0.928211 -3.5 0 -3.5 
C -0.928211 -3.5 -1.81853 -3.131218 -2.474874 -2.474874 
C -3.131218 -1.81853 -3.5 -0.928211 -3.5 0 
C -3.5 0.928211 -3.131218 1.81853 -2.474874 2.474874 
C -1.81853 3.131218 -0.928211 3.5 0 3.5 
z
" style="stroke: #fcfcfb"/>
    </defs>
    <g clip-path="url(#p4ce107c254)">
     <use xlink:href="#ma78bcd6b32" x="141.247059" y="96.493761" style="fill: #72b7b2; stroke: #fcfcfb"/>
     <use xlink:href="#ma78bcd6b32" x="369.952941" y="122.193559" style="fill: #72b7b2; stroke: #fcfcfb"/>
    </g>
   </g>
   <g id="text_8">
    <text style="font-size: 9.5px; font-family: 'DejaVu Sans', 'Bitstream Vera Sans', 'Computer Modern Sans Serif', 'Lucida Grande', 'Verdana', 'Geneva', 'Lucid', 'Arial', 'Helvetica', 'Avant Garde', sans-serif; text-anchor: start; fill: #898781" x="61.2" y="60.168" transform="rotate(-0 61.2 60.168)">Mean cost/run: metadata-only $0.148, live-query $0.166 (Δ +$0.018)</text>
   </g>
   <g id="line2d_24">
    <path d="M 141.247059 105.917021 
L 369.952941 103.561206 
" clip-path="url(#p4ce107c254)" style="fill: none; stroke-dasharray: 9.25,4; stroke-dashoffset: 0; stroke: #52514e; stroke-opacity: 0.85; stroke-width: 2.5"/>
    <defs>
     <path id="m7656a440a8" d="M -0 4.242641 
L 4.242641 0 
L 0 -4.242641 
L -4.242641 -0 
z
" style="stroke: #52514e; stroke-opacity: 0.85; stroke-linejoin: miter"/>
    </defs>
    <g clip-path="url(#p4ce107c254)">
     <use xlink:href="#m7656a440a8" x="141.247059" y="105.917021" style="fill: #52514e; fill-opacity: 0.85; stroke: #52514e; stroke-opacity: 0.85; stroke-linejoin: miter"/>
     <use xlink:href="#m7656a440a8" x="369.952941" y="103.561206" style="fill: #52514e; fill-opacity: 0.85; stroke: #52514e; stroke-opacity: 0.85; stroke-linejoin: miter"/>
    </g>
   </g>
  </g>
  <g id="axes_2">
   <g id="patch_5">
    <path d="M 61.2 422.490557 
L 450 422.490557 
L 450 259.039843 
L 61.2 259.039843 
z
" style="fill: #ffffff"/>
   </g>
   <g id="matplotlib.axis_3">
    <g id="xtick_3">
     <g id="line2d_25">
      <path d="M 141.247059 422.490557 
L 141.247059 259.039843 
" clip-path="url(#p14c2753439)" style="fill: none; stroke: #b0b0b0; stroke-opacity: 0.3; stroke-width: 0.8; stroke-linecap: square"/>
     </g>
     <g id="line2d_26">
      <g>
       <use xlink:href="#mab7c8b2458" x="141.247059" y="422.490557" style="stroke: #000000; stroke-width: 0.8"/>
      </g>
     </g>
    </g>
    <g id="xtick_4">
     <g id="line2d_27">
      <path d="M 369.952941 422.490557 
L 369.952941 259.039843 
" clip-path="url(#p14c2753439)" style="fill: none; stroke: #b0b0b0; stroke-opacity: 0.3; stroke-width: 0.8; stroke-linecap: square"/>
     </g>
     <g id="line2d_28">
      <g>
       <use xlink:href="#mab7c8b2458" x="369.952941" y="422.490557" style="stroke: #000000; stroke-width: 0.8"/>
      </g>
     </g>
    </g>
   </g>
   <g id="matplotlib.axis_4">
    <g id="ytick_7">
     <g id="line2d_29">
      <path d="M 61.2 417.864594 
L 450 417.864594 
" clip-path="url(#p14c2753439)" style="fill: none; stroke: #b0b0b0; stroke-opacity: 0.3; stroke-width: 0.8; stroke-linecap: square"/>
     </g>
     <g id="line2d_30">
      <g>
       <use xlink:href="#me994716147" x="61.2" y="417.864594" style="stroke: #000000; stroke-width: 0.8"/>
      </g>
     </g>
     <g id="text_9">
      <text style="font-size: 11px; font-family: 'DejaVu Sans', 'Bitstream Vera Sans', 'Computer Modern Sans Serif', 'Lucida Grande', 'Verdana', 'Geneva', 'Lucid', 'Arial', 'Helvetica', 'Avant Garde', sans-serif; text-anchor: end" x="54.2" y="422.043734" transform="rotate(-0 54.2 422.043734)">0.0</text>
     </g>
    </g>
    <g id="ytick_8">
     <g id="line2d_31">
      <path d="M 61.2 387.024836 
L 450 387.024836 
" clip-path="url(#p14c2753439)" style="fill: none; stroke: #b0b0b0; stroke-opacity: 0.3; stroke-width: 0.8; stroke-linecap: square"/>
     </g>
     <g id="line2d_32">
      <g>
       <use xlink:href="#me994716147" x="61.2" y="387.024836" style="stroke: #000000; stroke-width: 0.8"/>
      </g>
     </g>
     <g id="text_10">
      <text style="font-size: 11px; font-family: 'DejaVu Sans', 'Bitstream Vera Sans', 'Computer Modern Sans Serif', 'Lucida Grande', 'Verdana', 'Geneva', 'Lucid', 'Arial', 'Helvetica', 'Avant Garde', sans-serif; text-anchor: end" x="54.2" y="391.203977" transform="rotate(-0 54.2 391.203977)">0.2</text>
     </g>
    </g>
    <g id="ytick_9">
     <g id="line2d_33">
      <path d="M 61.2 356.185079 
L 450 356.185079 
" clip-path="url(#p14c2753439)" style="fill: none; stroke: #b0b0b0; stroke-opacity: 0.3; stroke-width: 0.8; stroke-linecap: square"/>
     </g>
     <g id="line2d_34">
      <g>
       <use xlink:href="#me994716147" x="61.2" y="356.185079" style="stroke: #000000; stroke-width: 0.8"/>
      </g>
     </g>
     <g id="text_11">
      <text style="font-size: 11px; font-family: 'DejaVu Sans', 'Bitstream Vera Sans', 'Computer Modern Sans Serif', 'Lucida Grande', 'Verdana', 'Geneva', 'Lucid', 'Arial', 'Helvetica', 'Avant Garde', sans-serif; text-anchor: end" x="54.2" y="360.364219" transform="rotate(-0 54.2 360.364219)">0.4</text>
     </g>
    </g>
    <g id="ytick_10">
     <g id="line2d_35">
      <path d="M 61.2 325.345321 
L 450 325.345321 
" clip-path="url(#p14c2753439)" style="fill: none; stroke: #b0b0b0; stroke-opacity: 0.3; stroke-width: 0.8; stroke-linecap: square"/>
     </g>
     <g id="line2d_36">
      <g>
       <use xlink:href="#me994716147" x="61.2" y="325.345321" style="stroke: #000000; stroke-width: 0.8"/>
      </g>
     </g>
     <g id="text_12">
      <text style="font-size: 11px; font-family: 'DejaVu Sans', 'Bitstream Vera Sans', 'Computer Modern Sans Serif', 'Lucida Grande', 'Verdana', 'Geneva', 'Lucid', 'Arial', 'Helvetica', 'Avant Garde', sans-serif; text-anchor: end" x="54.2" y="329.524462" transform="rotate(-0 54.2 329.524462)">0.6</text>
     </g>
    </g>
    <g id="ytick_11">
     <g id="line2d_37">
      <path d="M 61.2 294.505564 
L 450 294.505564 
" clip-path="url(#p14c2753439)" style="fill: none; stroke: #b0b0b0; stroke-opacity: 0.3; stroke-width: 0.8; stroke-linecap: square"/>
     </g>
     <g id="line2d_38">
      <g>
       <use xlink:href="#me994716147" x="61.2" y="294.505564" style="stroke: #000000; stroke-width: 0.8"/>
      </g>
     </g>
     <g id="text_13">
      <text style="font-size: 11px; font-family: 'DejaVu Sans', 'Bitstream Vera Sans', 'Computer Modern Sans Serif', 'Lucida Grande', 'Verdana', 'Geneva', 'Lucid', 'Arial', 'Helvetica', 'Avant Garde', sans-serif; text-anchor: end" x="54.2" y="298.684705" transform="rotate(-0 54.2 298.684705)">0.8</text>
     </g>
    </g>
    <g id="ytick_12">
     <g id="line2d_39">
      <path d="M 61.2 263.665806 
L 450 263.665806 
" clip-path="url(#p14c2753439)" style="fill: none; stroke: #b0b0b0; stroke-opacity: 0.3; stroke-width: 0.8; stroke-linecap: square"/>
     </g>
     <g id="line2d_40">
      <g>
       <use xlink:href="#me994716147" x="61.2" y="263.665806" style="stroke: #000000; stroke-width: 0.8"/>
      </g>
     </g>
     <g id="text_14">
      <text style="font-size: 11px; font-family: 'DejaVu Sans', 'Bitstream Vera Sans', 'Computer Modern Sans Serif', 'Lucida Grande', 'Verdana', 'Geneva', 'Lucid', 'Arial', 'Helvetica', 'Avant Garde', sans-serif; text-anchor: end" x="54.2" y="267.844947" transform="rotate(-0 54.2 267.844947)">1.0</text>
     </g>
    </g>
    <g id="text_15">
     <text style="font-size: 11px; font-family: 'DejaVu Sans', 'Bitstream Vera Sans', 'Computer Modern Sans Serif', 'Lucida Grande', 'Verdana', 'Geneva', 'Lucid', 'Arial', 'Helvetica', 'Avant Garde', sans-serif; text-anchor: middle" x="30.418906" y="340.7652" transform="rotate(-90 30.418906 340.7652)">Recall</text>
    </g>
   </g>
   <g id="patch_6">
    <path d="M 61.2 422.490557 
L 61.2 259.039843 
" style="fill: none; stroke: #000000; stroke-width: 0.8; stroke-linejoin: miter; stroke-linecap: square"/>
   </g>
   <g id="patch_7">
    <path d="M 61.2 422.490557 
L 450 422.490557 
" style="fill: none; stroke: #000000; stroke-width: 0.8; stroke-linejoin: miter; stroke-linecap: square"/>
   </g>
   <g id="line2d_41">
    <path d="M 141.247059 279.540394 
L 369.952941 297.195639 
" clip-path="url(#p14c2753439)" style="fill: none; stroke: #f58518; stroke-width: 2; stroke-linecap: square"/>
    <g clip-path="url(#p14c2753439)">
     <use xlink:href="#mc0e06e0fcb" x="141.247059" y="279.540394" style="fill: #f58518; stroke: #fcfcfb"/>
     <use xlink:href="#mc0e06e0fcb" x="369.952941" y="297.195639" style="fill: #f58518; stroke: #fcfcfb"/>
    </g>
   </g>
   <g id="line2d_42">
    <path d="M 141.247059 292.456632 
L 369.952941 305.361786 
" clip-path="url(#p14c2753439)" style="fill: none; stroke: #b279a2; stroke-width: 2; stroke-linecap: square"/>
    <g clip-path="url(#p14c2753439)">
     <use xlink:href="#mb362b24a91" x="141.247059" y="292.456632" style="fill: #b279a2; stroke: #fcfcfb"/>
     <use xlink:href="#mb362b24a91" x="369.952941" y="305.361786" style="fill: #b279a2; stroke: #fcfcfb"/>
    </g>
   </g>
   <g id="line2d_43">
    <path d="M 141.247059 266.577938 
L 369.952941 300.909727 
" clip-path="url(#p14c2753439)" style="fill: none; stroke: #e45756; stroke-width: 2; stroke-linecap: square"/>
    <g clip-path="url(#p14c2753439)">
     <use xlink:href="#m2613b43534" x="141.247059" y="266.577938" style="fill: #e45756; stroke: #fcfcfb"/>
     <use xlink:href="#m2613b43534" x="369.952941" y="300.909727" style="fill: #e45756; stroke: #fcfcfb"/>
    </g>
   </g>
   <g id="line2d_44">
    <path d="M 141.247059 321.910457 
L 369.952941 304.246043 
" clip-path="url(#p14c2753439)" style="fill: none; stroke: #54a24b; stroke-width: 2; stroke-linecap: square"/>
    <g clip-path="url(#p14c2753439)">
     <use xlink:href="#mc9495a853a" x="141.247059" y="321.910457" style="fill: #54a24b; stroke: #fcfcfb"/>
     <use xlink:href="#mc9495a853a" x="369.952941" y="304.246043" style="fill: #54a24b; stroke: #fcfcfb"/>
    </g>
   </g>
   <g id="line2d_45">
    <path d="M 141.247059 320.071079 
L 369.952941 278.735693 
" clip-path="url(#p14c2753439)" style="fill: none; stroke: #eeca3b; stroke-width: 2; stroke-linecap: square"/>
    <g clip-path="url(#p14c2753439)">
     <use xlink:href="#me3ec54649e" x="141.247059" y="320.071079" style="fill: #eeca3b; stroke: #fcfcfb"/>
     <use xlink:href="#me3ec54649e" x="369.952941" y="278.735693" style="fill: #eeca3b; stroke: #fcfcfb"/>
    </g>
   </g>
   <g id="line2d_46">
    <path d="M 141.247059 305.141522 
L 369.952941 292.00236 
" clip-path="url(#p14c2753439)" style="fill: none; stroke: #4c78a8; stroke-width: 2; stroke-linecap: square"/>
    <g clip-path="url(#p14c2753439)">
     <use xlink:href="#m219ed64bd7" x="141.247059" y="305.141522" style="fill: #4c78a8; stroke: #fcfcfb"/>
     <use xlink:href="#m219ed64bd7" x="369.952941" y="292.00236" style="fill: #4c78a8; stroke: #fcfcfb"/>
    </g>
   </g>
   <g id="line2d_47">
    <path d="M 141.247059 289.365604 
L 369.952941 294.505564 
" clip-path="url(#p14c2753439)" style="fill: none; stroke: #72b7b2; stroke-width: 2; stroke-linecap: square"/>
    <g clip-path="url(#p14c2753439)">
     <use xlink:href="#ma78bcd6b32" x="141.247059" y="289.365604" style="fill: #72b7b2; stroke: #fcfcfb"/>
     <use xlink:href="#ma78bcd6b32" x="369.952941" y="294.505564" style="fill: #72b7b2; stroke: #fcfcfb"/>
    </g>
   </g>
   <g id="line2d_48">
    <path d="M 141.247059 299.475965 
L 369.952941 295.921748 
" clip-path="url(#p14c2753439)" style="fill: none; stroke-dasharray: 9.25,4; stroke-dashoffset: 0; stroke: #52514e; stroke-opacity: 0.85; stroke-width: 2.5"/>
    <g clip-path="url(#p14c2753439)">
     <use xlink:href="#m7656a440a8" x="141.247059" y="299.475965" style="fill: #52514e; fill-opacity: 0.85; stroke: #52514e; stroke-opacity: 0.85; stroke-linejoin: miter"/>
     <use xlink:href="#m7656a440a8" x="369.952941" y="295.921748" style="fill: #52514e; fill-opacity: 0.85; stroke: #52514e; stroke-opacity: 0.85; stroke-linejoin: miter"/>
    </g>
   </g>
  </g>
  <g id="axes_3">
   <g id="patch_8">
    <path d="M 61.2 615.3624 
L 450 615.3624 
L 450 451.911686 
L 61.2 451.911686 
z
" style="fill: #ffffff"/>
   </g>
   <g id="matplotlib.axis_5">
    <g id="xtick_5">
     <g id="line2d_49">
      <path d="M 141.247059 615.3624 
L 141.247059 451.911686 
" clip-path="url(#pf9cad97b94)" style="fill: none; stroke: #b0b0b0; stroke-opacity: 0.3; stroke-width: 0.8; stroke-linecap: square"/>
     </g>
     <g id="line2d_50">
      <g>
       <use xlink:href="#mab7c8b2458" x="141.247059" y="615.3624" style="stroke: #000000; stroke-width: 0.8"/>
      </g>
     </g>
     <g id="text_16">
      <text style="font-size: 11px; font-family: 'DejaVu Sans', 'Bitstream Vera Sans', 'Computer Modern Sans Serif', 'Lucida Grande', 'Verdana', 'Geneva', 'Lucid', 'Arial', 'Helvetica', 'Avant Garde', sans-serif; text-anchor: middle" x="141.247059" y="630.720681" transform="rotate(-0 141.247059 630.720681)">metadata-only</text>
     </g>
    </g>
    <g id="xtick_6">
     <g id="line2d_51">
      <path d="M 369.952941 615.3624 
L 369.952941 451.911686 
" clip-path="url(#pf9cad97b94)" style="fill: none; stroke: #b0b0b0; stroke-opacity: 0.3; stroke-width: 0.8; stroke-linecap: square"/>
     </g>
     <g id="line2d_52">
      <g>
       <use xlink:href="#mab7c8b2458" x="369.952941" y="615.3624" style="stroke: #000000; stroke-width: 0.8"/>
      </g>
     </g>
     <g id="text_17">
      <text style="font-size: 11px; font-family: 'DejaVu Sans', 'Bitstream Vera Sans', 'Computer Modern Sans Serif', 'Lucida Grande', 'Verdana', 'Geneva', 'Lucid', 'Arial', 'Helvetica', 'Avant Garde', sans-serif; text-anchor: middle" x="369.952941" y="630.720681" transform="rotate(-0 369.952941 630.720681)">live-query</text>
     </g>
    </g>
   </g>
   <g id="matplotlib.axis_6">
    <g id="ytick_13">
     <g id="line2d_53">
      <path d="M 61.2 615.3624 
L 450 615.3624 
" clip-path="url(#pf9cad97b94)" style="fill: none; stroke: #b0b0b0; stroke-opacity: 0.3; stroke-width: 0.8; stroke-linecap: square"/>
     </g>
     <g id="line2d_54">
      <g>
       <use xlink:href="#me994716147" x="61.2" y="615.3624" style="stroke: #000000; stroke-width: 0.8"/>
      </g>
     </g>
     <g id="text_18">
      <text style="font-size: 11px; font-family: 'DejaVu Sans', 'Bitstream Vera Sans', 'Computer Modern Sans Serif', 'Lucida Grande', 'Verdana', 'Geneva', 'Lucid', 'Arial', 'Helvetica', 'Avant Garde', sans-serif; text-anchor: end" x="54.2" y="619.541541" transform="rotate(-0 54.2 619.541541)">0</text>
     </g>
    </g>
    <g id="ytick_14">
     <g id="line2d_55">
      <path d="M 61.2 580.199141 
L 450 580.199141 
" clip-path="url(#pf9cad97b94)" style="fill: none; stroke: #b0b0b0; stroke-opacity: 0.3; stroke-width: 0.8; stroke-linecap: square"/>
     </g>
     <g id="line2d_56">
      <g>
       <use xlink:href="#me994716147" x="61.2" y="580.199141" style="stroke: #000000; stroke-width: 0.8"/>
      </g>
     </g>
     <g id="text_19">
      <text style="font-size: 11px; font-family: 'DejaVu Sans', 'Bitstream Vera Sans', 'Computer Modern Sans Serif', 'Lucida Grande', 'Verdana', 'Geneva', 'Lucid', 'Arial', 'Helvetica', 'Avant Garde', sans-serif; text-anchor: end" x="54.2" y="584.378282" transform="rotate(-0 54.2 584.378282)">100000</text>
     </g>
    </g>
    <g id="ytick_15">
     <g id="line2d_57">
      <path d="M 61.2 545.035882 
L 450 545.035882 
" clip-path="url(#pf9cad97b94)" style="fill: none; stroke: #b0b0b0; stroke-opacity: 0.3; stroke-width: 0.8; stroke-linecap: square"/>
     </g>
     <g id="line2d_58">
      <g>
       <use xlink:href="#me994716147" x="61.2" y="545.035882" style="stroke: #000000; stroke-width: 0.8"/>
      </g>
     </g>
     <g id="text_20">
      <text style="font-size: 11px; font-family: 'DejaVu Sans', 'Bitstream Vera Sans', 'Computer Modern Sans Serif', 'Lucida Grande', 'Verdana', 'Geneva', 'Lucid', 'Arial', 'Helvetica', 'Avant Garde', sans-serif; text-anchor: end" x="54.2" y="549.215023" transform="rotate(-0 54.2 549.215023)">200000</text>
     </g>
    </g>
    <g id="ytick_16">
     <g id="line2d_59">
      <path d="M 61.2 509.872624 
L 450 509.872624 
" clip-path="url(#pf9cad97b94)" style="fill: none; stroke: #b0b0b0; stroke-opacity: 0.3; stroke-width: 0.8; stroke-linecap: square"/>
     </g>
     <g id="line2d_60">
      <g>
       <use xlink:href="#me994716147" x="61.2" y="509.872624" style="stroke: #000000; stroke-width: 0.8"/>
      </g>
     </g>
     <g id="text_21">
      <text style="font-size: 11px; font-family: 'DejaVu Sans', 'Bitstream Vera Sans', 'Computer Modern Sans Serif', 'Lucida Grande', 'Verdana', 'Geneva', 'Lucid', 'Arial', 'Helvetica', 'Avant Garde', sans-serif; text-anchor: end" x="54.2" y="514.051764" transform="rotate(-0 54.2 514.051764)">300000</text>
     </g>
    </g>
    <g id="ytick_17">
     <g id="line2d_61">
      <path d="M 61.2 474.709365 
L 450 474.709365 
" clip-path="url(#pf9cad97b94)" style="fill: none; stroke: #b0b0b0; stroke-opacity: 0.3; stroke-width: 0.8; stroke-linecap: square"/>
     </g>
     <g id="line2d_62">
      <g>
       <use xlink:href="#me994716147" x="61.2" y="474.709365" style="stroke: #000000; stroke-width: 0.8"/>
      </g>
     </g>
     <g id="text_22">
      <text style="font-size: 11px; font-family: 'DejaVu Sans', 'Bitstream Vera Sans', 'Computer Modern Sans Serif', 'Lucida Grande', 'Verdana', 'Geneva', 'Lucid', 'Arial', 'Helvetica', 'Avant Garde', sans-serif; text-anchor: end" x="54.2" y="478.888505" transform="rotate(-0 54.2 478.888505)">400000</text>
     </g>
    </g>
    <g id="text_23">
     <text style="font-size: 11px; font-family: 'DejaVu Sans', 'Bitstream Vera Sans', 'Computer Modern Sans Serif', 'Lucida Grande', 'Verdana', 'Geneva', 'Lucid', 'Arial', 'Helvetica', 'Avant Garde', sans-serif; text-anchor: middle" x="5.919844" y="533.637043" transform="rotate(-90 5.919844 533.637043)">Mean tokens/run (in+out)</text>
    </g>
   </g>
   <g id="patch_9">
    <path d="M 61.2 615.3624 
L 61.2 451.911686 
" style="fill: none; stroke: #000000; stroke-width: 0.8; stroke-linejoin: miter; stroke-linecap: square"/>
   </g>
   <g id="patch_10">
    <path d="M 61.2 615.3624 
L 450 615.3624 
" style="fill: none; stroke: #000000; stroke-width: 0.8; stroke-linejoin: miter; stroke-linecap: square"/>
   </g>
   <g id="line2d_63">
    <path d="M 141.247059 572.215353 
L 369.952941 529.412993 
" clip-path="url(#pf9cad97b94)" style="fill: none; stroke: #f58518; stroke-width: 2; stroke-linecap: square"/>
    <g clip-path="url(#pf9cad97b94)">
     <use xlink:href="#mc0e06e0fcb" x="141.247059" y="572.215353" style="fill: #f58518; stroke: #fcfcfb"/>
     <use xlink:href="#mc0e06e0fcb" x="369.952941" y="529.412993" style="fill: #f58518; stroke: #fcfcfb"/>
    </g>
   </g>
   <g id="line2d_64">
    <path d="M 141.247059 596.106868 
L 369.952941 595.342125 
" clip-path="url(#pf9cad97b94)" style="fill: none; stroke: #b279a2; stroke-width: 2; stroke-linecap: square"/>
    <g clip-path="url(#pf9cad97b94)">
     <use xlink:href="#mb362b24a91" x="141.247059" y="596.106868" style="fill: #b279a2; stroke: #fcfcfb"/>
     <use xlink:href="#mb362b24a91" x="369.952941" y="595.342125" style="fill: #b279a2; stroke: #fcfcfb"/>
    </g>
   </g>
   <g id="line2d_65">
    <path d="M 141.247059 576.391136 
L 369.952941 458.909516 
" clip-path="url(#pf9cad97b94)" style="fill: none; stroke: #e45756; stroke-width: 2; stroke-linecap: square"/>
    <g clip-path="url(#pf9cad97b94)">
     <use xlink:href="#m2613b43534" x="141.247059" y="576.391136" style="fill: #e45756; stroke: #fcfcfb"/>
     <use xlink:href="#m2613b43534" x="369.952941" y="458.909516" style="fill: #e45756; stroke: #fcfcfb"/>
    </g>
   </g>
   <g id="line2d_66">
    <path d="M 141.247059 598.866129 
L 369.952941 582.629875 
" clip-path="url(#pf9cad97b94)" style="fill: none; stroke: #54a24b; stroke-width: 2; stroke-linecap: square"/>
    <g clip-path="url(#pf9cad97b94)">
     <use xlink:href="#mc9495a853a" x="141.247059" y="598.866129" style="fill: #54a24b; stroke: #fcfcfb"/>
     <use xlink:href="#mc9495a853a" x="369.952941" y="582.629875" style="fill: #54a24b; stroke: #fcfcfb"/>
    </g>
   </g>
   <g id="line2d_67">
    <path d="M 141.247059 576.686669 
L 369.952941 548.035118 
" clip-path="url(#pf9cad97b94)" style="fill: none; stroke: #eeca3b; stroke-width: 2; stroke-linecap: square"/>
    <g clip-path="url(#pf9cad97b94)">
     <use xlink:href="#me3ec54649e" x="141.247059" y="576.686669" style="fill: #eeca3b; stroke: #fcfcfb"/>
     <use xlink:href="#me3ec54649e" x="369.952941" y="548.035118" style="fill: #eeca3b; stroke: #fcfcfb"/>
    </g>
   </g>
   <g id="line2d_68">
    <path d="M 141.247059 592.934072 
L 369.952941 580.576575 
" clip-path="url(#pf9cad97b94)" style="fill: none; stroke: #4c78a8; stroke-width: 2; stroke-linecap: square"/>
    <g clip-path="url(#pf9cad97b94)">
     <use xlink:href="#m219ed64bd7" x="141.247059" y="592.934072" style="fill: #4c78a8; stroke: #fcfcfb"/>
     <use xlink:href="#m219ed64bd7" x="369.952941" y="580.576575" style="fill: #4c78a8; stroke: #fcfcfb"/>
    </g>
   </g>
   <g id="line2d_69">
    <path d="M 141.247059 571.542211 
L 369.952941 551.852895 
" clip-path="url(#pf9cad97b94)" style="fill: none; stroke: #72b7b2; stroke-width: 2; stroke-linecap: square"/>
    <g clip-path="url(#pf9cad97b94)">
     <use xlink:href="#ma78bcd6b32" x="141.247059" y="571.542211" style="fill: #72b7b2; stroke: #fcfcfb"/>
     <use xlink:href="#ma78bcd6b32" x="369.952941" y="551.852895" style="fill: #72b7b2; stroke: #fcfcfb"/>
    </g>
   </g>
   <g id="line2d_70">
    <path d="M 141.247059 585.129294 
L 369.952941 556.896315 
" clip-path="url(#pf9cad97b94)" style="fill: none; stroke-dasharray: 9.25,4; stroke-dashoffset: 0; stroke: #52514e; stroke-opacity: 0.85; stroke-width: 2.5"/>
    <g clip-path="url(#pf9cad97b94)">
     <use xlink:href="#m7656a440a8" x="141.247059" y="585.129294" style="fill: #52514e; fill-opacity: 0.85; stroke: #52514e; stroke-opacity: 0.85; stroke-linejoin: miter"/>
     <use xlink:href="#m7656a440a8" x="369.952941" y="556.896315" style="fill: #52514e; fill-opacity: 0.85; stroke: #52514e; stroke-opacity: 0.85; stroke-linejoin: miter"/>
    </g>
   </g>
  </g>
  <g id="text_24">
   <text style="font-size: 13px; font-family: 'DejaVu Sans', 'Bitstream Vera Sans', 'Computer Modern Sans Serif', 'Lucida Grande', 'Verdana', 'Geneva', 'Lucid', 'Arial', 'Helvetica', 'Avant Garde', sans-serif; text-anchor: start; fill: #0b0b0b" x="33.66" y="16.494769" transform="rotate(-0 33.66 16.494769)">Lever: context mode (metadata-only -&gt; live-query)</text>
  </g>
  <g id="legend_1">
   <g id="text_25">
    <text style="font-size: 11px; font-family: 'DejaVu Sans', 'Bitstream Vera Sans', 'Computer Modern Sans Serif', 'Lucida Grande', 'Verdana', 'Geneva', 'Lucid', 'Arial', 'Helvetica', 'Avant Garde', sans-serif; text-anchor: start; fill: #0b0b0b" x="472.05" y="283.142266" transform="rotate(-0 472.05 283.142266)">Strategy (cell)</text>
   </g>
   <g id="line2d_71">
    <defs>
     <path id="m0420545d60" d="M 0 4 
C 1.060812 4 2.078319 3.578535 2.828427 2.828427 
C 3.578535 2.078319 4 1.060812 4 0 
C 4 -1.060812 3.578535 -2.078319 2.828427 -2.828427 
C 2.078319 -3.578535 1.060812 -4 0 -4 
C -1.060812 -4 -2.078319 -3.578535 -2.828427 -2.828427 
C -3.578535 -2.078319 -4 -1.060812 -4 0 
C -4 1.060812 -3.578535 2.078319 -2.828427 2.828427 
C -2.078319 3.578535 -1.060812 4 0 4 
z
" style="stroke: #fcfcfb"/>
    </defs>
    <g>
     <use xlink:href="#m0420545d60" x="480.55" y="293.163594" style="fill: #f58518; stroke: #fcfcfb"/>
    </g>
   </g>
   <g id="text_26">
    <text style="font-size: 8.5px; font-family: 'DejaVu Sans', 'Bitstream Vera Sans', 'Computer Modern Sans Serif', 'Lucida Grande', 'Verdana', 'Geneva', 'Lucid', 'Arial', 'Helvetica', 'Avant Garde', sans-serif; text-anchor: start; fill: #0b0b0b" x="495.85" y="296.138594" transform="rotate(-0 495.85 296.138594)">ensemble_vote</text>
   </g>
   <g id="line2d_72">
    <defs>
     <path id="medf0e3f521" d="M 0 4 
C 1.060812 4 2.078319 3.578535 2.828427 2.828427 
C 3.578535 2.078319 4 1.060812 4 0 
C 4 -1.060812 3.578535 -2.078319 2.828427 -2.828427 
C 2.078319 -3.578535 1.060812 -4 0 -4 
C -1.060812 -4 -2.078319 -3.578535 -2.828427 -2.828427 
C -3.578535 -2.078319 -4 -1.060812 -4 0 
C -4 1.060812 -3.578535 2.078319 -2.828427 2.828427 
C -2.078319 3.578535 -1.060812 4 0 4 
z
" style="stroke: #fcfcfb"/>
    </defs>
    <g>
     <use xlink:href="#medf0e3f521" x="480.55" y="305.876406" style="fill: #b279a2; stroke: #fcfcfb"/>
    </g>
   </g>
   <g id="text_27">
    <text style="font-size: 8.5px; font-family: 'DejaVu Sans', 'Bitstream Vera Sans', 'Computer Modern Sans Serif', 'Lucida Grande', 'Verdana', 'Geneva', 'Lucid', 'Arial', 'Helvetica', 'Avant Garde', sans-serif; text-anchor: start; fill: #0b0b0b" x="495.85" y="308.851406" transform="rotate(-0 495.85 308.851406)">plan_then_execute</text>
   </g>
   <g id="line2d_73">
    <defs>
     <path id="m936801e2e7" d="M 0 4 
C 1.060812 4 2.078319 3.578535 2.828427 2.828427 
C 3.578535 2.078319 4 1.060812 4 0 
C 4 -1.060812 3.578535 -2.078319 2.828427 -2.828427 
C 2.078319 -3.578535 1.060812 -4 0 -4 
C -1.060812 -4 -2.078319 -3.578535 -2.828427 -2.828427 
C -3.578535 -2.078319 -4 -1.060812 -4 0 
C -4 1.060812 -3.578535 2.078319 -2.828427 2.828427 
C -2.078319 3.578535 -1.060812 4 0 4 
z
" style="stroke: #fcfcfb"/>
    </defs>
    <g>
     <use xlink:href="#m936801e2e7" x="480.55" y="318.589219" style="fill: #e45756; stroke: #fcfcfb"/>
    </g>
   </g>
   <g id="text_28">
    <text style="font-size: 8.5px; font-family: 'DejaVu Sans', 'Bitstream Vera Sans', 'Computer Modern Sans Serif', 'Lucida Grande', 'Verdana', 'Geneva', 'Lucid', 'Arial', 'Helvetica', 'Avant Garde', sans-serif; text-anchor: start; fill: #0b0b0b" x="495.85" y="321.564219" transform="rotate(-0 495.85 321.564219)">plan_write_critique</text>
   </g>
   <g id="line2d_74">
    <defs>
     <path id="mb4299d37bc" d="M 0 4 
C 1.060812 4 2.078319 3.578535 2.828427 2.828427 
C 3.578535 2.078319 4 1.060812 4 0 
C 4 -1.060812 3.578535 -2.078319 2.828427 -2.828427 
C 2.078319 -3.578535 1.060812 -4 0 -4 
C -1.060812 -4 -2.078319 -3.578535 -2.828427 -2.828427 
C -3.578535 -2.078319 -4 -1.060812 -4 0 
C -4 1.060812 -3.578535 2.078319 -2.828427 2.828427 
C -2.078319 3.578535 -1.060812 4 0 4 
z
" style="stroke: #fcfcfb"/>
    </defs>
    <g>
     <use xlink:href="#mb4299d37bc" x="480.55" y="331.302031" style="fill: #54a24b; stroke: #fcfcfb"/>
    </g>
   </g>
   <g id="text_29">
    <text style="font-size: 8.5px; font-family: 'DejaVu Sans', 'Bitstream Vera Sans', 'Computer Modern Sans Serif', 'Lucida Grande', 'Verdana', 'Geneva', 'Lucid', 'Arial', 'Helvetica', 'Avant Garde', sans-serif; text-anchor: start; fill: #0b0b0b" x="495.85" y="334.277031" transform="rotate(-0 495.85 334.277031)">structured_per_table</text>
   </g>
   <g id="line2d_75">
    <defs>
     <path id="m068649420e" d="M 0 4 
C 1.060812 4 2.078319 3.578535 2.828427 2.828427 
C 3.578535 2.078319 4 1.060812 4 0 
C 4 -1.060812 3.578535 -2.078319 2.828427 -2.828427 
C 2.078319 -3.578535 1.060812 -4 0 -4 
C -1.060812 -4 -2.078319 -3.578535 -2.828427 -2.828427 
C -3.578535 -2.078319 -4 -1.060812 -4 0 
C -4 1.060812 -3.578535 2.078319 -2.828427 2.828427 
C -2.078319 3.578535 -1.060812 4 0 4 
z
" style="stroke: #fcfcfb"/>
    </defs>
    <g>
     <use xlink:href="#m068649420e" x="480.55" y="344.014844" style="fill: #eeca3b; stroke: #fcfcfb"/>
    </g>
   </g>
   <g id="text_30">
    <text style="font-size: 8.5px; font-family: 'DejaVu Sans', 'Bitstream Vera Sans', 'Computer Modern Sans Serif', 'Lucida Grande', 'Verdana', 'Geneva', 'Lucid', 'Arial', 'Helvetica', 'Avant Garde', sans-serif; text-anchor: start; fill: #0b0b0b" x="495.85" y="346.989844" transform="rotate(-0 495.85 346.989844)">write_then_critique</text>
   </g>
   <g id="line2d_76">
    <defs>
     <path id="mda67a85fa0" d="M 0 4 
C 1.060812 4 2.078319 3.578535 2.828427 2.828427 
C 3.578535 2.078319 4 1.060812 4 0 
C 4 -1.060812 3.578535 -2.078319 2.828427 -2.828427 
C 2.078319 -3.578535 1.060812 -4 0 -4 
C -1.060812 -4 -2.078319 -3.578535 -2.828427 -2.828427 
C -3.578535 -2.078319 -4 -1.060812 -4 0 
C -4 1.060812 -3.578535 2.078319 -2.828427 2.828427 
C -2.078319 3.578535 -1.060812 4 0 4 
z
" style="stroke: #fcfcfb"/>
    </defs>
    <g>
     <use xlink:href="#mda67a85fa0" x="480.55" y="356.727656" style="fill: #4c78a8; stroke: #fcfcfb"/>
    </g>
   </g>
   <g id="text_31">
    <text style="font-size: 8.5px; font-family: 'DejaVu Sans', 'Bitstream Vera Sans', 'Computer Modern Sans Serif', 'Lucida Grande', 'Verdana', 'Geneva', 'Lucid', 'Arial', 'Helvetica', 'Avant Garde', sans-serif; text-anchor: start; fill: #0b0b0b" x="495.85" y="359.702656" transform="rotate(-0 495.85 359.702656)">write_tools_freeform</text>
   </g>
   <g id="line2d_77">
    <defs>
     <path id="mbefb773800" d="M 0 4 
C 1.060812 4 2.078319 3.578535 2.828427 2.828427 
C 3.578535 2.078319 4 1.060812 4 0 
C 4 -1.060812 3.578535 -2.078319 2.828427 -2.828427 
C 2.078319 -3.578535 1.060812 -4 0 -4 
C -1.060812 -4 -2.078319 -3.578535 -2.828427 -2.828427 
C -3.578535 -2.078319 -4 -1.060812 -4 0 
C -4 1.060812 -3.578535 2.078319 -2.828427 2.828427 
C -2.078319 3.578535 -1.060812 4 0 4 
z
" style="stroke: #fcfcfb"/>
    </defs>
    <g>
     <use xlink:href="#mbefb773800" x="480.55" y="369.440469" style="fill: #72b7b2; stroke: #fcfcfb"/>
    </g>
   </g>
   <g id="text_32">
    <text style="font-size: 8.5px; font-family: 'DejaVu Sans', 'Bitstream Vera Sans', 'Computer Modern Sans Serif', 'Lucida Grande', 'Verdana', 'Geneva', 'Lucid', 'Arial', 'Helvetica', 'Avant Garde', sans-serif; text-anchor: start; fill: #0b0b0b" x="495.85" y="372.415469" transform="rotate(-0 495.85 372.415469)">write_tools_freeform_inlinedbt</text>
   </g>
   <g id="line2d_78">
    <path d="M 472.05 382.153281 
L 480.55 382.153281 
L 489.05 382.153281 
" style="fill: none; stroke-dasharray: 9.25,4; stroke-dashoffset: 0; stroke: #52514e; stroke-opacity: 0.85; stroke-width: 2.5"/>
    <g>
     <use xlink:href="#m7656a440a8" x="480.55" y="382.153281" style="fill: #52514e; fill-opacity: 0.85; stroke: #52514e; stroke-opacity: 0.85; stroke-linejoin: miter"/>
    </g>
   </g>
   <g id="text_33">
    <text style="font-size: 8.5px; font-family: 'DejaVu Sans', 'Bitstream Vera Sans', 'Computer Modern Sans Serif', 'Lucida Grande', 'Verdana', 'Geneva', 'Lucid', 'Arial', 'Helvetica', 'Avant Garde', sans-serif; text-anchor: start; fill: #0b0b0b" x="495.85" y="385.128281" transform="rotate(-0 495.85 385.128281)">overall mean</text>
   </g>
  </g>
 </g>
 <defs>
  <clipPath id="p4ce107c254">
   <rect x="61.2" y="66.168" width="388.8" height="163.450714"/>
  </clipPath>
  <clipPath id="p14c2753439">
   <rect x="61.2" y="259.039843" width="388.8" height="163.450714"/>
  </clipPath>
  <clipPath id="pf9cad97b94">
   <rect x="61.2" y="451.911686" width="388.8" height="163.450714"/>
  </clipPath>
 </defs>
</svg>
