<?xml version="1.0" encoding="utf-8" standalone="no"?>
<!DOCTYPE svg PUBLIC "-//W3C//DTD SVG 1.1//EN"
  "http://www.w3.org/Graphics/SVG/1.1/DTD/svg11.dtd">
<svg xmlns:xlink="http://www.w3.org/1999/xlink" width="900pt" height="302.4pt" viewBox="0 0 900 302.4" xmlns="http://www.w3.org/2000/svg" version="1.1">
 <metadata>
  <rdf:RDF xmlns:dc="http://purl.org/dc/elements/1.1/" xmlns:cc="http://creativecommons.org/ns#" xmlns:rdf="http://www.w3.org/1999/02/22-rdf-syntax-ns#">
   <cc:Work>
    <dc:type rdf:resource="http://purl.org/dc/dcmitype/StillImage"/>
    <dc:format>image/svg+xml</dc:format>
    <dc:creator>
     <cc:Agent>
      <dc:title>Matplotlib v3.10.9, https://matplotlib.org/</dc:title>
     </cc:Agent>
    </dc:creator>
   </cc:Work>
  </rdf:RDF>
 </metadata>
 <defs>
  <style type="text/css">*{stroke-linejoin: round; stroke-linecap: butt}</style>
 </defs>
 <g id="figure_1">
  <g id="patch_1">
   <path d="M 0 302.4 
L 900 302.4 
L 900 0 
L 0 0 
z
" style="fill: #ffffff"/>
  </g>
  <g id="axes_1">
   <g id="patch_2">
    <path d="M 99 272.16 
L 361.173913 272.16 
L 361.173913 45.36 
L 99 45.36 
z
" style="fill: #ffffff"/>
   </g>
   <g id="matplotlib.axis_1">
    <g id="xtick_1">
     <g id="line2d_1">
      <path d="M 152.976982 272.16 
L 152.976982 45.36 
" clip-path="url(#pb52a238062)" style="fill: none; stroke: #b0b0b0; stroke-opacity: 0.3; stroke-width: 0.8; stroke-linecap: square"/>
     </g>
     <g id="line2d_2">
      <defs>
       <path id="mab7c8b2458" d="M 0 0 
L 0 3.5 
" style="stroke: #000000; stroke-width: 0.8"/>
      </defs>
      <g>
       <use xlink:href="#mab7c8b2458" x="152.976982" y="272.16" style="stroke: #000000; stroke-width: 0.8"/>
      </g>
     </g>
     <g id="text_1">
      <text style="font-size: 11px; font-family: 'DejaVu Sans', 'Bitstream Vera Sans', 'Computer Modern Sans Serif', 'Lucida Grande', 'Verdana', 'Geneva', 'Lucid', 'Arial', 'Helvetica', 'Avant Garde', sans-serif; text-anchor: middle" x="152.976982" y="287.518281" transform="rotate(-0 152.976982 287.518281)">metadata-only</text>
     </g>
    </g>
    <g id="xtick_2">
     <g id="line2d_3">
      <path d="M 307.196931 272.16 
L 307.196931 45.36 
" clip-path="url(#pb52a238062)" style="fill: none; stroke: #b0b0b0; stroke-opacity: 0.3; stroke-width: 0.8; stroke-linecap: square"/>
     </g>
     <g id="line2d_4">
      <g>
       <use xlink:href="#mab7c8b2458" x="307.196931" y="272.16" style="stroke: #000000; stroke-width: 0.8"/>
      </g>
     </g>
     <g id="text_2">
      <text style="font-size: 11px; font-family: 'DejaVu Sans', 'Bitstream Vera Sans', 'Computer Modern Sans Serif', 'Lucida Grande', 'Verdana', 'Geneva', 'Lucid', 'Arial', 'Helvetica', 'Avant Garde', sans-serif; text-anchor: middle" x="307.196931" y="287.518281" transform="rotate(-0 307.196931 287.518281)">live-query</text>
     </g>
    </g>
   </g>
   <g id="matplotlib.axis_2">
    <g id="ytick_1">
     <g id="line2d_5">
      <path d="M 99 265.741132 
L 361.173913 265.741132 
" clip-path="url(#pb52a238062)" style="fill: none; stroke: #b0b0b0; stroke-opacity: 0.3; stroke-width: 0.8; stroke-linecap: square"/>
     </g>
     <g id="line2d_6">
      <defs>
       <path id="me994716147" d="M 0 0 
L -3.5 0 
" style="stroke: #000000; stroke-width: 0.8"/>
      </defs>
      <g>
       <use xlink:href="#me994716147" x="99" y="265.741132" style="stroke: #000000; stroke-width: 0.8"/>
      </g>
     </g>
     <g id="text_3">
      <text style="font-size: 11px; font-family: 'DejaVu Sans', 'Bitstream Vera Sans', 'Computer Modern Sans Serif', 'Lucida Grande', 'Verdana', 'Geneva', 'Lucid', 'Arial', 'Helvetica', 'Avant Garde', sans-serif; text-anchor: end" x="92" y="269.920273" transform="rotate(-0 92 269.920273)">0%</text>
     </g>
    </g>
    <g id="ytick_2">
     <g id="line2d_7">
      <path d="M 99 222.948679 
L 361.173913 222.948679 
" clip-path="url(#pb52a238062)" style="fill: none; stroke: #b0b0b0; stroke-opacity: 0.3; stroke-width: 0.8; stroke-linecap: square"/>
     </g>
     <g id="line2d_8">
      <g>
       <use xlink:href="#me994716147" x="99" y="222.948679" style="stroke: #000000; stroke-width: 0.8"/>
      </g>
     </g>
     <g id="text_4">
      <text style="font-size: 11px; font-family: 'DejaVu Sans', 'Bitstream Vera Sans', 'Computer Modern Sans Serif', 'Lucida Grande', 'Verdana', 'Geneva', 'Lucid', 'Arial', 'Helvetica', 'Avant Garde', sans-serif; text-anchor: end" x="92" y="227.12782" transform="rotate(-0 92 227.12782)">20%</text>
     </g>
    </g>
    <g id="ytick_3">
     <g id="line2d_9">
      <path d="M 99 180.156226 
L 361.173913 180.156226 
" clip-path="url(#pb52a238062)" style="fill: none; stroke: #b0b0b0; stroke-opacity: 0.3; stroke-width: 0.8; stroke-linecap: square"/>
     </g>
     <g id="line2d_10">
      <g>
       <use xlink:href="#me994716147" x="99" y="180.156226" style="stroke: #000000; stroke-width: 0.8"/>
      </g>
     </g>
     <g id="text_5">
      <text style="font-size: 11px; font-family: 'DejaVu Sans', 'Bitstream Vera Sans', 'Computer Modern Sans Serif', 'Lucida Grande', 'Verdana', 'Geneva', 'Lucid', 'Arial', 'Helvetica', 'Avant Garde', sans-serif; text-anchor: end" x="92" y="184.335367" transform="rotate(-0 92 184.335367)">40%</text>
     </g>
    </g>
    <g id="ytick_4">
     <g id="line2d_11">
      <path d="M 99 137.363774 
L 361.173913 137.363774 
" clip-path="url(#pb52a238062)" style="fill: none; stroke: #b0b0b0; stroke-opacity: 0.3; stroke-width: 0.8; stroke-linecap: square"/>
     </g>
     <g id="line2d_12">
      <g>
       <use xlink:href="#me994716147" x="99" y="137.363774" style="stroke: #000000; stroke-width: 0.8"/>
      </g>
     </g>
     <g id="text_6">
      <text style="font-size: 11px; font-family: 'DejaVu Sans', 'Bitstream Vera Sans', 'Computer Modern Sans Serif', 'Lucida Grande', 'Verdana', 'Geneva', 'Lucid', 'Arial', 'Helvetica', 'Avant Garde', sans-serif; text-anchor: end" x="92" y="141.542914" transform="rotate(-0 92 141.542914)">60%</text>
     </g>
    </g>
    <g id="ytick_5">
     <g id="line2d_13">
      <path d="M 99 94.571321 
L 361.173913 94.571321 
" clip-path="url(#pb52a238062)" style="fill: none; stroke: #b0b0b0; stroke-opacity: 0.3; stroke-width: 0.8; stroke-linecap: square"/>
     </g>
     <g id="line2d_14">
      <g>
       <use xlink:href="#me994716147" x="99" y="94.571321" style="stroke: #000000; stroke-width: 0.8"/>
      </g>
     </g>
     <g id="text_7">
      <text style="font-size: 11px; font-family: 'DejaVu Sans', 'Bitstream Vera Sans', 'Computer Modern Sans Serif', 'Lucida Grande', 'Verdana', 'Geneva', 'Lucid', 'Arial', 'Helvetica', 'Avant Garde', sans-serif; text-anchor: end" x="92" y="98.750461" transform="rotate(-0 92 98.750461)">80%</text>
     </g>
    </g>
    <g id="ytick_6">
     <g id="line2d_15">
      <path d="M 99 51.778868 
L 361.173913 51.778868 
" clip-path="url(#pb52a238062)" style="fill: none; stroke: #b0b0b0; stroke-opacity: 0.3; stroke-width: 0.8; stroke-linecap: square"/>
     </g>
     <g id="line2d_16">
      <g>
       <use xlink:href="#me994716147" x="99" y="51.778868" style="stroke: #000000; stroke-width: 0.8"/>
      </g>
     </g>
     <g id="text_8">
      <text style="font-size: 11px; font-family: 'DejaVu Sans', 'Bitstream Vera Sans', 'Computer Modern Sans Serif', 'Lucida Grande', 'Verdana', 'Geneva', 'Lucid', 'Arial', 'Helvetica', 'Avant Garde', sans-serif; text-anchor: end" x="92" y="55.958009" transform="rotate(-0 92 55.958009)">100%</text>
     </g>
    </g>
    <g id="text_9">
     <text style="font-size: 11px; font-family: 'DejaVu Sans', 'Bitstream Vera Sans', 'Computer Modern Sans Serif', 'Lucida Grande', 'Verdana', 'Geneva', 'Lucid', 'Arial', 'Helvetica', 'Avant Garde', sans-serif; text-anchor: middle" x="54.264375" y="158.76" transform="rotate(-90 54.264375 158.76)">Materialization rate</text>
    </g>
   </g>
   <g id="patch_3">
    <path d="M 99 272.16 
L 99 45.36 
" style="fill: none; stroke: #000000; stroke-width: 0.8; stroke-linejoin: miter; stroke-linecap: square"/>
   </g>
   <g id="patch_4">
    <path d="M 99 272.16 
L 361.173913 272.16 
" style="fill: none; stroke: #000000; stroke-width: 0.8; stroke-linejoin: miter; stroke-linecap: square"/>
   </g>
   <g id="line2d_17">
    <path d="M 152.976982 60.693962 
L 307.196931 78.524151 
" clip-path="url(#pb52a238062)" style="fill: none; stroke: #f58518; stroke-width: 2; stroke-linecap: square"/>
    <defs>
     <path id="mc0e06e0fcb" d="M 0 3.5 
C 0.928211 3.5 1.81853 3.131218 2.474874 2.474874 
C 3.131218 1.81853 3.5 0.928211 3.5 0 
C 3.5 -0.928211 3.131218 -1.81853 2.474874 -2.474874 
C 1.81853 -3.131218 0.928211 -3.5 0 -3.5 
C -0.928211 -3.5 -1.81853 -3.131218 -2.474874 -2.474874 
C -3.131218 -1.81853 -3.5 -0.928211 -3.5 0 
C -3.5 0.928211 -3.131218 1.81853 -2.474874 2.474874 
C -1.81853 3.131218 -0.928211 3.5 0 3.5 
z
" style="stroke: #fcfcfb"/>
    </defs>
    <g clip-path="url(#pb52a238062)">
     <use xlink:href="#mc0e06e0fcb" x="152.976982" y="60.693962" style="fill: #f58518; stroke: #fcfcfb"/>
     <use xlink:href="#mc0e06e0fcb" x="307.196931" y="78.524151" style="fill: #f58518; stroke: #fcfcfb"/>
    </g>
   </g>
   <g id="line2d_18">
    <path d="M 152.976982 78.524151 
L 307.196931 87.439245 
" clip-path="url(#pb52a238062)" style="fill: none; stroke: #b279a2; stroke-width: 2; stroke-linecap: square"/>
    <defs>
     <path id="mb362b24a91" d="M 0 3.5 
C 0.928211 3.5 1.81853 3.131218 2.474874 2.474874 
C 3.131218 1.81853 3.5 0.928211 3.5 0 
C 3.5 -0.928211 3.131218 -1.81853 2.474874 -2.474874 
C 1.81853 -3.131218 0.928211 -3.5 0 -3.5 
C -0.928211 -3.5 -1.81853 -3.131218 -2.474874 -2.474874 
C -3.131218 -1.81853 -3.5 -0.928211 -3.5 0 
C -3.5 0.928211 -3.131218 1.81853 -2.474874 2.474874 
C -1.81853 3.131218 -0.928211 3.5 0 3.5 
z
" style="stroke: #fcfcfb"/>
    </defs>
    <g clip-path="url(#pb52a238062)">
     <use xlink:href="#mb362b24a91" x="152.976982" y="78.524151" style="fill: #b279a2; stroke: #fcfcfb"/>
     <use xlink:href="#mb362b24a91" x="307.196931" y="87.439245" style="fill: #b279a2; stroke: #fcfcfb"/>
    </g>
   </g>
   <g id="line2d_19">
    <path d="M 152.976982 51.778868 
L 307.196931 69.609057 
" clip-path="url(#pb52a238062)" style="fill: none; stroke: #e45756; stroke-width: 2; stroke-linecap: square"/>
    <defs>
     <path id="m2613b43534" d="M 0 3.5 
C 0.928211 3.5 1.81853 3.131218 2.474874 2.474874 
C 3.131218 1.81853 3.5 0.928211 3.5 0 
C 3.5 -0.928211 3.131218 -1.81853 2.474874 -2.474874 
C 1.81853 -3.131218 0.928211 -3.5 0 -3.5 
C -0.928211 -3.5 -1.81853 -3.131218 -2.474874 -2.474874 
C -3.131218 -1.81853 -3.5 -0.928211 -3.5 0 
C -3.5 0.928211 -3.131218 1.81853 -2.474874 2.474874 
C -1.81853 3.131218 -0.928211 3.5 0 3.5 
z
" style="stroke: #fcfcfb"/>
    </defs>
    <g clip-path="url(#pb52a238062)">
     <use xlink:href="#m2613b43534" x="152.976982" y="51.778868" style="fill: #e45756; stroke: #fcfcfb"/>
     <use xlink:href="#m2613b43534" x="307.196931" y="69.609057" style="fill: #e45756; stroke: #fcfcfb"/>
    </g>
   </g>
   <g id="line2d_20">
    <path d="M 152.976982 96.35434 
L 307.196931 78.524151 
" clip-path="url(#pb52a238062)" style="fill: none; stroke: #54a24b; stroke-width: 2; stroke-linecap: square"/>
    <defs>
     <path id="mc9495a853a" d="M 0 3.5 
C 0.928211 3.5 1.81853 3.131218 2.474874 2.474874 
C 3.131218 1.81853 3.5 0.928211 3.5 0 
C 3.5 -0.928211 3.131218 -1.81853 2.474874 -2.474874 
C 1.81853 -3.131218 0.928211 -3.5 0 -3.5 
C -0.928211 -3.5 -1.81853 -3.131218 -2.474874 -2.474874 
C -3.131218 -1.81853 -3.5 -0.928211 -3.5 0 
C -3.5 0.928211 -3.131218 1.81853 -2.474874 2.474874 
C -1.81853 3.131218 -0.928211 3.5 0 3.5 
z
" style="stroke: #fcfcfb"/>
    </defs>
    <g clip-path="url(#pb52a238062)">
     <use xlink:href="#mc9495a853a" x="152.976982" y="96.35434" style="fill: #54a24b; stroke: #fcfcfb"/>
     <use xlink:href="#mc9495a853a" x="307.196931" y="78.524151" style="fill: #54a24b; stroke: #fcfcfb"/>
    </g>
   </g>
   <g id="line2d_21">
    <path d="M 152.976982 96.35434 
L 307.196931 51.778868 
" clip-path="url(#pb52a238062)" style="fill: none; stroke: #eeca3b; stroke-width: 2; stroke-linecap: square"/>
    <defs>
     <path id="me3ec54649e" d="M 0 3.5 
C 0.928211 3.5 1.81853 3.131218 2.474874 2.474874 
C 3.131218 1.81853 3.5 0.928211 3.5 0 
C 3.5 -0.928211 3.131218 -1.81853 2.474874 -2.474874 
C 1.81853 -3.131218 0.928211 -3.5 0 -3.5 
C -0.928211 -3.5 -1.81853 -3.131218 -2.474874 -2.474874 
C -3.131218 -1.81853 -3.5 -0.928211 -3.5 0 
C -3.5 0.928211 -3.131218 1.81853 -2.474874 2.474874 
C -1.81853 3.131218 -0.928211 3.5 0 3.5 
z
" style="stroke: #fcfcfb"/>
    </defs>
    <g clip-path="url(#pb52a238062)">
     <use xlink:href="#me3ec54649e" x="152.976982" y="96.35434" style="fill: #eeca3b; stroke: #fcfcfb"/>
     <use xlink:href="#me3ec54649e" x="307.196931" y="51.778868" style="fill: #eeca3b; stroke: #fcfcfb"/>
    </g>
   </g>
   <g id="line2d_22">
    <path d="M 152.976982 105.269434 
L 307.196931 96.35434 
" clip-path="url(#pb52a238062)" style="fill: none; stroke: #4c78a8; stroke-width: 2; stroke-linecap: square"/>
    <defs>
     <path id="m219ed64bd7" d="M 0 3.5 
C 0.928211 3.5 1.81853 3.131218 2.474874 2.474874 
C 3.131218 1.81853 3.5 0.928211 3.5 0 
C 3.5 -0.928211 3.131218 -1.81853 2.474874 -2.474874 
C 1.81853 -3.131218 0.928211 -3.5 0 -3.5 
C -0.928211 -3.5 -1.81853 -3.131218 -2.474874 -2.474874 
C -3.131218 -1.81853 -3.5 -0.928211 -3.5 0 
C -3.5 0.928211 -3.131218 1.81853 -2.474874 2.474874 
C -1.81853 3.131218 -0.928211 3.5 0 3.5 
z
" style="stroke: #fcfcfb"/>
    </defs>
    <g clip-path="url(#pb52a238062)">
     <use xlink:href="#m219ed64bd7" x="152.976982" y="105.269434" style="fill: #4c78a8; stroke: #fcfcfb"/>
     <use xlink:href="#m219ed64bd7" x="307.196931" y="96.35434" style="fill: #4c78a8; stroke: #fcfcfb"/>
    </g>
   </g>
   <g id="line2d_23">
    <path d="M 152.976982 87.439245 
L 307.196931 123.099623 
" clip-path="url(#pb52a238062)" style="fill: none; stroke: #72b7b2; stroke-width: 2; stroke-linecap: square"/>
    <defs>
     <path id="ma78bcd6b32" d="M 0 3.5 
C 0.928211 3.5 1.81853 3.131218 2.474874 2.474874 
C 3.131218 1.81853 3.5 0.928211 3.5 0 
C 3.5 -0.928211 3.131218 -1.81853 2.474874 -2.474874 
C 1.81853 -3.131218 0.928211 -3.5 0 -3.5 
C -0.928211 -3.5 -1.81853 -3.131218 -2.474874 -2.474874 
C -3.131218 -1.81853 -3.5 -0.928211 -3.5 0 
C -3.5 0.928211 -3.131218 1.81853 -2.474874 2.474874 
C -1.81853 3.131218 -0.928211 3.5 0 3.5 
z
" style="stroke: #fcfcfb"/>
    </defs>
    <g clip-path="url(#pb52a238062)">
     <use xlink:href="#ma78bcd6b32" x="152.976982" y="87.439245" style="fill: #72b7b2; stroke: #fcfcfb"/>
     <use xlink:href="#ma78bcd6b32" x="307.196931" y="123.099623" style="fill: #72b7b2; stroke: #fcfcfb"/>
    </g>
   </g>
   <g id="text_10">
    <text style="font-size: 12px; font-family: 'DejaVu Sans', 'Bitstream Vera Sans', 'Computer Modern Sans Serif', 'Lucida Grande', 'Verdana', 'Geneva', 'Lucid', 'Arial', 'Helvetica', 'Avant Garde', sans-serif; text-anchor: start; fill: #0b0b0b" x="99" y="39.36" transform="rotate(-0 99 39.36)">gemini25flash</text>
   </g>
   <g id="line2d_24">
    <path d="M 152.976982 84.467547 
L 307.196931 81.495849 
" clip-path="url(#pb52a238062)" style="fill: none; stroke-dasharray: 9.25,4; stroke-dashoffset: 0; stroke: #52514e; stroke-opacity: 0.85; stroke-width: 2.5"/>
    <defs>
     <path id="m7656a440a8" d="M -0 4.242641 
L 4.242641 0 
L 0 -4.242641 
L -4.242641 -0 
z
" style="stroke: #52514e; stroke-opacity: 0.85; stroke-linejoin: miter"/>
    </defs>
    <g clip-path="url(#pb52a238062)">
     <use xlink:href="#m7656a440a8" x="152.976982" y="84.467547" style="fill: #52514e; fill-opacity: 0.85; stroke: #52514e; stroke-opacity: 0.85; stroke-linejoin: miter"/>
     <use xlink:href="#m7656a440a8" x="307.196931" y="81.495849" style="fill: #52514e; fill-opacity: 0.85; stroke: #52514e; stroke-opacity: 0.85; stroke-linejoin: miter"/>
    </g>
   </g>
  </g>
  <g id="axes_2">
   <g id="patch_5">
    <path d="M 439.826087 272.16 
L 702 272.16 
L 702 45.36 
L 439.826087 45.36 
z
" style="fill: #ffffff"/>
   </g>
   <g id="matplotlib.axis_3">
    <g id="xtick_3">
     <g id="line2d_25">
      <path d="M 493.803069 272.16 
L 493.803069 45.36 
" clip-path="url(#p63625bd03e)" style="fill: none; stroke: #b0b0b0; stroke-opacity: 0.3; stroke-width: 0.8; stroke-linecap: square"/>
     </g>
     <g id="line2d_26">
      <g>
       <use xlink:href="#mab7c8b2458" x="493.803069" y="272.16" style="stroke: #000000; stroke-width: 0.8"/>
      </g>
     </g>
     <g id="text_11">
      <text style="font-size: 11px; font-family: 'DejaVu Sans', 'Bitstream Vera Sans', 'Computer Modern Sans Serif', 'Lucida Grande', 'Verdana', 'Geneva', 'Lucid', 'Arial', 'Helvetica', 'Avant Garde', sans-serif; text-anchor: middle" x="493.803069" y="287.518281" transform="rotate(-0 493.803069 287.518281)">metadata-only</text>
     </g>
    </g>
    <g id="xtick_4">
     <g id="line2d_27">
      <path d="M 648.023018 272.16 
L 648.023018 45.36 
" clip-path="url(#p63625bd03e)" style="fill: none; stroke: #b0b0b0; stroke-opacity: 0.3; stroke-width: 0.8; stroke-linecap: square"/>
     </g>
     <g id="line2d_28">
      <g>
       <use xlink:href="#mab7c8b2458" x="648.023018" y="272.16" style="stroke: #000000; stroke-width: 0.8"/>
      </g>
     </g>
     <g id="text_12">
      <text style="font-size: 11px; font-family: 'DejaVu Sans', 'Bitstream Vera Sans', 'Computer Modern Sans Serif', 'Lucida Grande', 'Verdana', 'Geneva', 'Lucid', 'Arial', 'Helvetica', 'Avant Garde', sans-serif; text-anchor: middle" x="648.023018" y="287.518281" transform="rotate(-0 648.023018 287.518281)">live-query</text>
     </g>
    </g>
   </g>
   <g id="matplotlib.axis_4">
    <g id="ytick_7">
     <g id="line2d_29">
      <path d="M 439.826087 265.741132 
L 702 265.741132 
" clip-path="url(#p63625bd03e)" style="fill: none; stroke: #b0b0b0; stroke-opacity: 0.3; stroke-width: 0.8; stroke-linecap: square"/>
     </g>
     <g id="line2d_30">
      <g>
       <use xlink:href="#me994716147" x="439.826087" y="265.741132" style="stroke: #000000; stroke-width: 0.8"/>
      </g>
     </g>
     <g id="text_13">
      <text style="font-size: 11px; font-family: 'DejaVu Sans', 'Bitstream Vera Sans', 'Computer Modern Sans Serif', 'Lucida Grande', 'Verdana', 'Geneva', 'Lucid', 'Arial', 'Helvetica', 'Avant Garde', sans-serif; text-anchor: end" x="432.826087" y="269.920273" transform="rotate(-0 432.826087 269.920273)">0.0</text>
     </g>
    </g>
    <g id="ytick_8">
     <g id="line2d_31">
      <path d="M 439.826087 222.948679 
L 702 222.948679 
" clip-path="url(#p63625bd03e)" style="fill: none; stroke: #b0b0b0; stroke-opacity: 0.3; stroke-width: 0.8; stroke-linecap: square"/>
     </g>
     <g id="line2d_32">
      <g>
       <use xlink:href="#me994716147" x="439.826087" y="222.948679" style="stroke: #000000; stroke-width: 0.8"/>
      </g>
     </g>
     <g id="text_14">
      <text style="font-size: 11px; font-family: 'DejaVu Sans', 'Bitstream Vera Sans', 'Computer Modern Sans Serif', 'Lucida Grande', 'Verdana', 'Geneva', 'Lucid', 'Arial', 'Helvetica', 'Avant Garde', sans-serif; text-anchor: end" x="432.826087" y="227.12782" transform="rotate(-0 432.826087 227.12782)">0.2</text>
     </g>
    </g>
    <g id="ytick_9">
     <g id="line2d_33">
      <path d="M 439.826087 180.156226 
L 702 180.156226 
" clip-path="url(#p63625bd03e)" style="fill: none; stroke: #b0b0b0; stroke-opacity: 0.3; stroke-width: 0.8; stroke-linecap: square"/>
     </g>
     <g id="line2d_34">
      <g>
       <use xlink:href="#me994716147" x="439.826087" y="180.156226" style="stroke: #000000; stroke-width: 0.8"/>
      </g>
     </g>
     <g id="text_15">
      <text style="font-size: 11px; font-family: 'DejaVu Sans', 'Bitstream Vera Sans', 'Computer Modern Sans Serif', 'Lucida Grande', 'Verdana', 'Geneva', 'Lucid', 'Arial', 'Helvetica', 'Avant Garde', sans-serif; text-anchor: end" x="432.826087" y="184.335367" transform="rotate(-0 432.826087 184.335367)">0.4</text>
     </g>
    </g>
    <g id="ytick_10">
     <g id="line2d_35">
      <path d="M 439.826087 137.363774 
L 702 137.363774 
" clip-path="url(#p63625bd03e)" style="fill: none; stroke: #b0b0b0; stroke-opacity: 0.3; stroke-width: 0.8; stroke-linecap: square"/>
     </g>
     <g id="line2d_36">
      <g>
       <use xlink:href="#me994716147" x="439.826087" y="137.363774" style="stroke: #000000; stroke-width: 0.8"/>
      </g>
     </g>
     <g id="text_16">
      <text style="font-size: 11px; font-family: 'DejaVu Sans', 'Bitstream Vera Sans', 'Computer Modern Sans Serif', 'Lucida Grande', 'Verdana', 'Geneva', 'Lucid', 'Arial', 'Helvetica', 'Avant Garde', sans-serif; text-anchor: end" x="432.826087" y="141.542914" transform="rotate(-0 432.826087 141.542914)">0.6</text>
     </g>
    </g>
    <g id="ytick_11">
     <g id="line2d_37">
      <path d="M 439.826087 94.571321 
L 702 94.571321 
" clip-path="url(#p63625bd03e)" style="fill: none; stroke: #b0b0b0; stroke-opacity: 0.3; stroke-width: 0.8; stroke-linecap: square"/>
     </g>
     <g id="line2d_38">
      <g>
       <use xlink:href="#me994716147" x="439.826087" y="94.571321" style="stroke: #000000; stroke-width: 0.8"/>
      </g>
     </g>
     <g id="text_17">
      <text style="font-size: 11px; font-family: 'DejaVu Sans', 'Bitstream Vera Sans', 'Computer Modern Sans Serif', 'Lucida Grande', 'Verdana', 'Geneva', 'Lucid', 'Arial', 'Helvetica', 'Avant Garde', sans-serif; text-anchor: end" x="432.826087" y="98.750461" transform="rotate(-0 432.826087 98.750461)">0.8</text>
     </g>
    </g>
    <g id="ytick_12">
     <g id="line2d_39">
      <path d="M 439.826087 51.778868 
L 702 51.778868 
" clip-path="url(#p63625bd03e)" style="fill: none; stroke: #b0b0b0; stroke-opacity: 0.3; stroke-width: 0.8; stroke-linecap: square"/>
     </g>
     <g id="line2d_40">
      <g>
       <use xlink:href="#me994716147" x="439.826087" y="51.778868" style="stroke: #000000; stroke-width: 0.8"/>
      </g>
     </g>
     <g id="text_18">
      <text style="font-size: 11px; font-family: 'DejaVu Sans', 'Bitstream Vera Sans', 'Computer Modern Sans Serif', 'Lucida Grande', 'Verdana', 'Geneva', 'Lucid', 'Arial', 'Helvetica', 'Avant Garde', sans-serif; text-anchor: end" x="432.826087" y="55.958009" transform="rotate(-0 432.826087 55.958009)">1.0</text>
     </g>
    </g>
    <g id="text_19">
     <text style="font-size: 11px; font-family: 'DejaVu Sans', 'Bitstream Vera Sans', 'Computer Modern Sans Serif', 'Lucida Grande', 'Verdana', 'Geneva', 'Lucid', 'Arial', 'Helvetica', 'Avant Garde', sans-serif; text-anchor: middle" x="409.044993" y="158.76" transform="rotate(-90 409.044993 158.76)">Recall</text>
    </g>
   </g>
   <g id="patch_6">
    <path d="M 439.826087 272.16 
L 439.826087 45.36 
" style="fill: none; stroke: #000000; stroke-width: 0.8; stroke-linejoin: miter; stroke-linecap: square"/>
   </g>
   <g id="patch_7">
    <path d="M 439.826087 272.16 
L 702 272.16 
" style="fill: none; stroke: #000000; stroke-width: 0.8; stroke-linejoin: miter; stroke-linecap: square"/>
   </g>
   <g id="line2d_41">
    <path d="M 493.803069 73.806037 
L 648.023018 98.304 
" clip-path="url(#p63625bd03e)" style="fill: none; stroke: #f58518; stroke-width: 2; stroke-linecap: square"/>
    <g clip-path="url(#p63625bd03e)">
     <use xlink:href="#mc0e06e0fcb" x="493.803069" y="73.806037" style="fill: #f58518; stroke: #fcfcfb"/>
     <use xlink:href="#mc0e06e0fcb" x="648.023018" y="98.304" style="fill: #f58518; stroke: #fcfcfb"/>
    </g>
   </g>
   <g id="line2d_42">
    <path d="M 493.803069 91.728275 
L 648.023018 109.635135 
" clip-path="url(#p63625bd03e)" style="fill: none; stroke: #b279a2; stroke-width: 2; stroke-linecap: square"/>
    <g clip-path="url(#p63625bd03e)">
     <use xlink:href="#mb362b24a91" x="493.803069" y="91.728275" style="fill: #b279a2; stroke: #fcfcfb"/>
     <use xlink:href="#mb362b24a91" x="648.023018" y="109.635135" style="fill: #b279a2; stroke: #fcfcfb"/>
    </g>
   </g>
   <g id="line2d_43">
    <path d="M 493.803069 55.819666 
L 648.023018 103.457573 
" clip-path="url(#p63625bd03e)" style="fill: none; stroke: #e45756; stroke-width: 2; stroke-linecap: square"/>
    <g clip-path="url(#p63625bd03e)">
     <use xlink:href="#m2613b43534" x="493.803069" y="55.819666" style="fill: #e45756; stroke: #fcfcfb"/>
     <use xlink:href="#m2613b43534" x="648.023018" y="103.457573" style="fill: #e45756; stroke: #fcfcfb"/>
    </g>
   </g>
   <g id="line2d_44">
    <path d="M 493.803069 132.597644 
L 648.023018 108.086959 
" clip-path="url(#p63625bd03e)" style="fill: none; stroke: #54a24b; stroke-width: 2; stroke-linecap: square"/>
    <g clip-path="url(#p63625bd03e)">
     <use xlink:href="#mc9495a853a" x="493.803069" y="132.597644" style="fill: #54a24b; stroke: #fcfcfb"/>
     <use xlink:href="#mc9495a853a" x="648.023018" y="108.086959" style="fill: #54a24b; stroke: #fcfcfb"/>
    </g>
   </g>
   <g id="line2d_45">
    <path d="M 493.803069 130.045371 
L 648.023018 72.689454 
" clip-path="url(#p63625bd03e)" style="fill: none; stroke: #eeca3b; stroke-width: 2; stroke-linecap: square"/>
    <g clip-path="url(#p63625bd03e)">
     <use xlink:href="#me3ec54649e" x="493.803069" y="130.045371" style="fill: #eeca3b; stroke: #fcfcfb"/>
     <use xlink:href="#me3ec54649e" x="648.023018" y="72.689454" style="fill: #eeca3b; stroke: #fcfcfb"/>
    </g>
   </g>
   <g id="line2d_46">
    <path d="M 493.803069 109.329502 
L 648.023018 91.097939 
" clip-path="url(#p63625bd03e)" style="fill: none; stroke: #4c78a8; stroke-width: 2; stroke-linecap: square"/>
    <g clip-path="url(#p63625bd03e)">
     <use xlink:href="#m219ed64bd7" x="493.803069" y="109.329502" style="fill: #4c78a8; stroke: #fcfcfb"/>
     <use xlink:href="#m219ed64bd7" x="648.023018" y="91.097939" style="fill: #4c78a8; stroke: #fcfcfb"/>
    </g>
   </g>
   <g id="line2d_47">
    <path d="M 493.803069 87.439245 
L 648.023018 94.571321 
" clip-path="url(#p63625bd03e)" style="fill: none; stroke: #72b7b2; stroke-width: 2; stroke-linecap: square"/>
    <g clip-path="url(#p63625bd03e)">
     <use xlink:href="#ma78bcd6b32" x="493.803069" y="87.439245" style="fill: #72b7b2; stroke: #fcfcfb"/>
     <use xlink:href="#ma78bcd6b32" x="648.023018" y="94.571321" style="fill: #72b7b2; stroke: #fcfcfb"/>
    </g>
   </g>
   <g id="text_20">
    <text style="font-size: 9.5px; font-family: 'DejaVu Sans', 'Bitstream Vera Sans', 'Computer Modern Sans Serif', 'Lucida Grande', 'Verdana', 'Geneva', 'Lucid', 'Arial', 'Helvetica', 'Avant Garde', sans-serif; text-anchor: end; fill: #898781" x="702" y="39.36" transform="rotate(-0 702 39.36)">Mean cost/run: metadata-only $0.148, live-query $0.166 (Δ +$0.018)</text>
   </g>
   <g id="line2d_48">
    <path d="M 493.803069 101.468121 
L 648.023018 96.536382 
" clip-path="url(#p63625bd03e)" style="fill: none; stroke-dasharray: 9.25,4; stroke-dashoffset: 0; stroke: #52514e; stroke-opacity: 0.85; stroke-width: 2.5"/>
    <g clip-path="url(#p63625bd03e)">
     <use xlink:href="#m7656a440a8" x="493.803069" y="101.468121" style="fill: #52514e; fill-opacity: 0.85; stroke: #52514e; stroke-opacity: 0.85; stroke-linejoin: miter"/>
     <use xlink:href="#m7656a440a8" x="648.023018" y="96.536382" style="fill: #52514e; fill-opacity: 0.85; stroke: #52514e; stroke-opacity: 0.85; stroke-linejoin: miter"/>
    </g>
   </g>
  </g>
  <g id="text_21">
   <text style="font-size: 13px; font-family: 'DejaVu Sans', 'Bitstream Vera Sans', 'Computer Modern Sans Serif', 'Lucida Grande', 'Verdana', 'Geneva', 'Lucid', 'Arial', 'Helvetica', 'Avant Garde', sans-serif; text-anchor: start; fill: #0b0b0b" x="45" y="12.901969" transform="rotate(-0 45 12.901969)">Lever: context mode (metadata-only -&gt; live-query)</text>
  </g>
  <g id="legend_1">
   <g id="text_22">
    <text style="font-size: 11px; font-family: 'DejaVu Sans', 'Bitstream Vera Sans', 'Computer Modern Sans Serif', 'Lucida Grande', 'Verdana', 'Geneva', 'Lucid', 'Arial', 'Helvetica', 'Avant Garde', sans-serif; text-anchor: start; fill: #0b0b0b" x="724.05" y="97.533672" transform="rotate(-0 724.05 97.533672)">Strategy (cell)</text>
   </g>
   <g id="line2d_49">
    <defs>
     <path id="m0420545d60" d="M 0 4 
C 1.060812 4 2.078319 3.578535 2.828427 2.828427 
C 3.578535 2.078319 4 1.060812 4 0 
C 4 -1.060812 3.578535 -2.078319 2.828427 -2.828427 
C 2.078319 -3.578535 1.060812 -4 0 -4 
C -1.060812 -4 -2.078319 -3.578535 -2.828427 -2.828427 
C -3.578535 -2.078319 -4 -1.060812 -4 0 
C -4 1.060812 -3.578535 2.078319 -2.828427 2.828427 
C -2.078319 3.578535 -1.060812 4 0 4 
z
" style="stroke: #fcfcfb"/>
    </defs>
    <g>
     <use xlink:href="#m0420545d60" x="733.55" y="108.464844" style="fill: #f58518; stroke: #fcfcfb"/>
    </g>
   </g>
   <g id="text_23">
    <text style="font-size: 9.5px; font-family: 'DejaVu Sans', 'Bitstream Vera Sans', 'Computer Modern Sans Serif', 'Lucida Grande', 'Verdana', 'Geneva', 'Lucid', 'Arial', 'Helvetica', 'Avant Garde', sans-serif; text-anchor: start; fill: #0b0b0b" x="750.65" y="111.789844" transform="rotate(-0 750.65 111.789844)">ensemble_vote</text>
   </g>
   <g id="line2d_50">
    <defs>
     <path id="medf0e3f521" d="M 0 4 
C 1.060812 4 2.078319 3.578535 2.828427 2.828427 
C 3.578535 2.078319 4 1.060812 4 0 
C 4 -1.060812 3.578535 -2.078319 2.828427 -2.828427 
C 2.078319 -3.578535 1.060812 -4 0 -4 
C -1.060812 -4 -2.078319 -3.578535 -2.828427 -2.828427 
C -3.578535 -2.078319 -4 -1.060812 -4 0 
C -4 1.060812 -3.578535 2.078319 -2.828427 2.828427 
C -2.078319 3.578535 -1.060812 4 0 4 
z
" style="stroke: #fcfcfb"/>
    </defs>
    <g>
     <use xlink:href="#medf0e3f521" x="733.55" y="122.673281" style="fill: #b279a2; stroke: #fcfcfb"/>
    </g>
   </g>
   <g id="text_24">
    <text style="font-size: 9.5px; font-family: 'DejaVu Sans', 'Bitstream Vera Sans', 'Computer Modern Sans Serif', 'Lucida Grande', 'Verdana', 'Geneva', 'Lucid', 'Arial', 'Helvetica', 'Avant Garde', sans-serif; text-anchor: start; fill: #0b0b0b" x="750.65" y="125.998281" transform="rotate(-0 750.65 125.998281)">plan_then_execute</text>
   </g>
   <g id="line2d_51">
    <defs>
     <path id="m936801e2e7" d="M 0 4 
C 1.060812 4 2.078319 3.578535 2.828427 2.828427 
C 3.578535 2.078319 4 1.060812 4 0 
C 4 -1.060812 3.578535 -2.078319 2.828427 -2.828427 
C 2.078319 -3.578535 1.060812 -4 0 -4 
C -1.060812 -4 -2.078319 -3.578535 -2.828427 -2.828427 
C -3.578535 -2.078319 -4 -1.060812 -4 0 
C -4 1.060812 -3.578535 2.078319 -2.828427 2.828427 
C -2.078319 3.578535 -1.060812 4 0 4 
z
" style="stroke: #fcfcfb"/>
    </defs>
    <g>
     <use xlink:href="#m936801e2e7" x="733.55" y="136.881719" style="fill: #e45756; stroke: #fcfcfb"/>
    </g>
   </g>
   <g id="text_25">
    <text style="font-size: 9.5px; font-family: 'DejaVu Sans', 'Bitstream Vera Sans', 'Computer Modern Sans Serif', 'Lucida Grande', 'Verdana', 'Geneva', 'Lucid', 'Arial', 'Helvetica', 'Avant Garde', sans-serif; text-anchor: start; fill: #0b0b0b" x="750.65" y="140.206719" transform="rotate(-0 750.65 140.206719)">plan_write_critique</text>
   </g>
   <g id="line2d_52">
    <defs>
     <path id="mb4299d37bc" d="M 0 4 
C 1.060812 4 2.078319 3.578535 2.828427 2.828427 
C 3.578535 2.078319 4 1.060812 4 0 
C 4 -1.060812 3.578535 -2.078319 2.828427 -2.828427 
C 2.078319 -3.578535 1.060812 -4 0 -4 
C -1.060812 -4 -2.078319 -3.578535 -2.828427 -2.828427 
C -3.578535 -2.078319 -4 -1.060812 -4 0 
C -4 1.060812 -3.578535 2.078319 -2.828427 2.828427 
C -2.078319 3.578535 -1.060812 4 0 4 
z
" style="stroke: #fcfcfb"/>
    </defs>
    <g>
     <use xlink:href="#mb4299d37bc" x="733.55" y="151.090156" style="fill: #54a24b; stroke: #fcfcfb"/>
    </g>
   </g>
   <g id="text_26">
    <text style="font-size: 9.5px; font-family: 'DejaVu Sans', 'Bitstream Vera Sans', 'Computer Modern Sans Serif', 'Lucida Grande', 'Verdana', 'Geneva', 'Lucid', 'Arial', 'Helvetica', 'Avant Garde', sans-serif; text-anchor: start; fill: #0b0b0b" x="750.65" y="154.415156" transform="rotate(-0 750.65 154.415156)">structured_per_table</text>
   </g>
   <g id="line2d_53">
    <defs>
     <path id="m068649420e" d="M 0 4 
C 1.060812 4 2.078319 3.578535 2.828427 2.828427 
C 3.578535 2.078319 4 1.060812 4 0 
C 4 -1.060812 3.578535 -2.078319 2.828427 -2.828427 
C 2.078319 -3.578535 1.060812 -4 0 -4 
C -1.060812 -4 -2.078319 -3.578535 -2.828427 -2.828427 
C -3.578535 -2.078319 -4 -1.060812 -4 0 
C -4 1.060812 -3.578535 2.078319 -2.828427 2.828427 
C -2.078319 3.578535 -1.060812 4 0 4 
z
" style="stroke: #fcfcfb"/>
    </defs>
    <g>
     <use xlink:href="#m068649420e" x="733.55" y="165.298594" style="fill: #eeca3b; stroke: #fcfcfb"/>
    </g>
   </g>
   <g id="text_27">
    <text style="font-size: 9.5px; font-family: 'DejaVu Sans', 'Bitstream Vera Sans', 'Computer Modern Sans Serif', 'Lucida Grande', 'Verdana', 'Geneva', 'Lucid', 'Arial', 'Helvetica', 'Avant Garde', sans-serif; text-anchor: start; fill: #0b0b0b" x="750.65" y="168.623594" transform="rotate(-0 750.65 168.623594)">write_then_critique</text>
   </g>
   <g id="line2d_54">
    <defs>
     <path id="mda67a85fa0" d="M 0 4 
C 1.060812 4 2.078319 3.578535 2.828427 2.828427 
C 3.578535 2.078319 4 1.060812 4 0 
C 4 -1.060812 3.578535 -2.078319 2.828427 -2.828427 
C 2.078319 -3.578535 1.060812 -4 0 -4 
C -1.060812 -4 -2.078319 -3.578535 -2.828427 -2.828427 
C -3.578535 -2.078319 -4 -1.060812 -4 0 
C -4 1.060812 -3.578535 2.078319 -2.828427 2.828427 
C -2.078319 3.578535 -1.060812 4 0 4 
z
" style="stroke: #fcfcfb"/>
    </defs>
    <g>
     <use xlink:href="#mda67a85fa0" x="733.55" y="179.507031" style="fill: #4c78a8; stroke: #fcfcfb"/>
    </g>
   </g>
   <g id="text_28">
    <text style="font-size: 9.5px; font-family: 'DejaVu Sans', 'Bitstream Vera Sans', 'Computer Modern Sans Serif', 'Lucida Grande', 'Verdana', 'Geneva', 'Lucid', 'Arial', 'Helvetica', 'Avant Garde', sans-serif; text-anchor: start; fill: #0b0b0b" x="750.65" y="182.832031" transform="rotate(-0 750.65 182.832031)">write_tools_freeform</text>
   </g>
   <g id="line2d_55">
    <defs>
     <path id="mbefb773800" d="M 0 4 
C 1.060812 4 2.078319 3.578535 2.828427 2.828427 
C 3.578535 2.078319 4 1.060812 4 0 
C 4 -1.060812 3.578535 -2.078319 2.828427 -2.828427 
C 2.078319 -3.578535 1.060812 -4 0 -4 
C -1.060812 -4 -2.078319 -3.578535 -2.828427 -2.828427 
C -3.578535 -2.078319 -4 -1.060812 -4 0 
C -4 1.060812 -3.578535 2.078319 -2.828427 2.828427 
C -2.078319 3.578535 -1.060812 4 0 4 
z
" style="stroke: #fcfcfb"/>
    </defs>
    <g>
     <use xlink:href="#mbefb773800" x="733.55" y="193.715469" style="fill: #72b7b2; stroke: #fcfcfb"/>
    </g>
   </g>
   <g id="text_29">
    <text style="font-size: 9.5px; font-family: 'DejaVu Sans', 'Bitstream Vera Sans', 'Computer Modern Sans Serif', 'Lucida Grande', 'Verdana', 'Geneva', 'Lucid', 'Arial', 'Helvetica', 'Avant Garde', sans-serif; text-anchor: start; fill: #0b0b0b" x="750.65" y="197.040469" transform="rotate(-0 750.65 197.040469)">write_tools_freeform_inlinedbt</text>
   </g>
   <g id="line2d_56">
    <path d="M 724.05 207.923906 
L 733.55 207.923906 
L 743.05 207.923906 
" style="fill: none; stroke-dasharray: 9.25,4; stroke-dashoffset: 0; stroke: #52514e; stroke-opacity: 0.85; stroke-width: 2.5"/>
    <g>
     <use xlink:href="#m7656a440a8" x="733.55" y="207.923906" style="fill: #52514e; fill-opacity: 0.85; stroke: #52514e; stroke-opacity: 0.85; stroke-linejoin: miter"/>
    </g>
   </g>
   <g id="text_30">
    <text style="font-size: 9.5px; font-family: 'DejaVu Sans', 'Bitstream Vera Sans', 'Computer Modern Sans Serif', 'Lucida Grande', 'Verdana', 'Geneva', 'Lucid', 'Arial', 'Helvetica', 'Avant Garde', sans-serif; text-anchor: start; fill: #0b0b0b" x="750.65" y="211.248906" transform="rotate(-0 750.65 211.248906)">overall mean</text>
   </g>
  </g>
 </g>
 <defs>
  <clipPath id="pb52a238062">
   <rect x="99" y="45.36" width="262.173913" height="226.8"/>
  </clipPath>
  <clipPath id="p63625bd03e">
   <rect x="439.826087" y="45.36" width="262.173913" height="226.8"/>
  </clipPath>
 </defs>
</svg>
