<?xml version="1.0" encoding="utf-8" standalone="no"?>
<!DOCTYPE svg PUBLIC "-//W3C//DTD SVG 1.1//EN"
  "http://www.w3.org/Graphics/SVG/1.1/DTD/svg11.dtd">
<svg xmlns:xlink="http://www.w3.org/1999/xlink" width="864pt" height="619.2pt" viewBox="0 0 864 619.2" xmlns="http://www.w3.org/2000/svg" version="1.1">
 <metadata>
  <rdf:RDF xmlns:dc="http://purl.org/dc/elements/1.1/" xmlns:cc="http://creativecommons.org/ns#" xmlns:rdf="http://www.w3.org/1999/02/22-rdf-syntax-ns#">
   <cc:Work>
    <dc:type rdf:resource="http://purl.org/dc/dcmitype/StillImage"/>
    <dc:format>image/svg+xml</dc:format>
    <dc:creator>
     <cc:Agent>
      <dc:title>Matplotlib v3.10.9, https://matplotlib.org/</dc:title>
     </cc:Agent>
    </dc:creator>
   </cc:Work>
  </rdf:RDF>
 </metadata>
 <defs>
  <style type="text/css">*{stroke-linejoin: round; stroke-linecap: butt}</style>
 </defs>
 <g id="figure_1">
  <g id="patch_1">
   <path d="M 0 619.2 
L 864 619.2 
L 864 0 
L 0 0 
z
" style="fill: #ffffff"/>
  </g>
  <g id="axes_1">
   <g id="patch_2">
    <path d="M 77.76 213.034286 
L 483.84 213.034286 
L 483.84 61.92 
L 77.76 61.92 
z
" style="fill: #ffffff"/>
   </g>
   <g id="matplotlib.axis_1">
    <g id="xtick_1">
     <g id="line2d_1">
      <path d="M 161.364706 213.034286 
L 161.364706 61.92 
" clip-path="url(#pe917d6aa3e)" style="fill: none; stroke: #b0b0b0; stroke-opacity: 0.3; stroke-width: 0.8; stroke-linecap: square"/>
     </g>
     <g id="line2d_2">
      <defs>
       <path id="mf56a56b80a" d="M 0 0 
L 0 3.5 
" style="stroke: #000000; stroke-width: 0.8"/>
      </defs>
      <g>
       <use xlink:href="#mf56a56b80a" x="161.364706" y="213.034286" style="stroke: #000000; stroke-width: 0.8"/>
      </g>
     </g>
    </g>
    <g id="xtick_2">
     <g id="line2d_3">
      <path d="M 400.235294 213.034286 
L 400.235294 61.92 
" clip-path="url(#pe917d6aa3e)" style="fill: none; stroke: #b0b0b0; stroke-opacity: 0.3; stroke-width: 0.8; stroke-linecap: square"/>
     </g>
     <g id="line2d_4">
      <g>
       <use xlink:href="#mf56a56b80a" x="400.235294" y="213.034286" style="stroke: #000000; stroke-width: 0.8"/>
      </g>
     </g>
    </g>
   </g>
   <g id="matplotlib.axis_2">
    <g id="ytick_1">
     <g id="line2d_5">
      <path d="M 77.76 208.757466 
L 483.84 208.757466 
" clip-path="url(#pe917d6aa3e)" style="fill: none; stroke: #b0b0b0; stroke-opacity: 0.3; stroke-width: 0.8; stroke-linecap: square"/>
     </g>
     <g id="line2d_6">
      <defs>
       <path id="m84a299cfe8" d="M 0 0 
L -3.5 0 
" style="stroke: #000000; stroke-width: 0.8"/>
      </defs>
      <g>
       <use xlink:href="#m84a299cfe8" x="77.76" y="208.757466" style="stroke: #000000; stroke-width: 0.8"/>
      </g>
     </g>
     <g id="text_1">
      <text style="font-size: 11px; font-family: 'DejaVu Sans', 'Bitstream Vera Sans', 'Computer Modern Sans Serif', 'Lucida Grande', 'Verdana', 'Geneva', 'Lucid', 'Arial', 'Helvetica', 'Avant Garde', sans-serif; text-anchor: end" x="70.76" y="212.936607" transform="rotate(-0 70.76 212.936607)">0%</text>
     </g>
    </g>
    <g id="ytick_2">
     <g id="line2d_7">
      <path d="M 77.76 180.245337 
L 483.84 180.245337 
" clip-path="url(#pe917d6aa3e)" style="fill: none; stroke: #b0b0b0; stroke-opacity: 0.3; stroke-width: 0.8; stroke-linecap: square"/>
     </g>
     <g id="line2d_8">
      <g>
       <use xlink:href="#m84a299cfe8" x="77.76" y="180.245337" style="stroke: #000000; stroke-width: 0.8"/>
      </g>
     </g>
     <g id="text_2">
      <text style="font-size: 11px; font-family: 'DejaVu Sans', 'Bitstream Vera Sans', 'Computer Modern Sans Serif', 'Lucida Grande', 'Verdana', 'Geneva', 'Lucid', 'Arial', 'Helvetica', 'Avant Garde', sans-serif; text-anchor: end" x="70.76" y="184.424478" transform="rotate(-0 70.76 184.424478)">20%</text>
     </g>
    </g>
    <g id="ytick_3">
     <g id="line2d_9">
      <path d="M 77.76 151.733208 
L 483.84 151.733208 
" clip-path="url(#pe917d6aa3e)" style="fill: none; stroke: #b0b0b0; stroke-opacity: 0.3; stroke-width: 0.8; stroke-linecap: square"/>
     </g>
     <g id="line2d_10">
      <g>
       <use xlink:href="#m84a299cfe8" x="77.76" y="151.733208" style="stroke: #000000; stroke-width: 0.8"/>
      </g>
     </g>
     <g id="text_3">
      <text style="font-size: 11px; font-family: 'DejaVu Sans', 'Bitstream Vera Sans', 'Computer Modern Sans Serif', 'Lucida Grande', 'Verdana', 'Geneva', 'Lucid', 'Arial', 'Helvetica', 'Avant Garde', sans-serif; text-anchor: end" x="70.76" y="155.912348" transform="rotate(-0 70.76 155.912348)">40%</text>
     </g>
    </g>
    <g id="ytick_4">
     <g id="line2d_11">
      <path d="M 77.76 123.221078 
L 483.84 123.221078 
" clip-path="url(#pe917d6aa3e)" style="fill: none; stroke: #b0b0b0; stroke-opacity: 0.3; stroke-width: 0.8; stroke-linecap: square"/>
     </g>
     <g id="line2d_12">
      <g>
       <use xlink:href="#m84a299cfe8" x="77.76" y="123.221078" style="stroke: #000000; stroke-width: 0.8"/>
      </g>
     </g>
     <g id="text_4">
      <text style="font-size: 11px; font-family: 'DejaVu Sans', 'Bitstream Vera Sans', 'Computer Modern Sans Serif', 'Lucida Grande', 'Verdana', 'Geneva', 'Lucid', 'Arial', 'Helvetica', 'Avant Garde', sans-serif; text-anchor: end" x="70.76" y="127.400219" transform="rotate(-0 70.76 127.400219)">60%</text>
     </g>
    </g>
    <g id="ytick_5">
     <g id="line2d_13">
      <path d="M 77.76 94.708949 
L 483.84 94.708949 
" clip-path="url(#pe917d6aa3e)" style="fill: none; stroke: #b0b0b0; stroke-opacity: 0.3; stroke-width: 0.8; stroke-linecap: square"/>
     </g>
     <g id="line2d_14">
      <g>
       <use xlink:href="#m84a299cfe8" x="77.76" y="94.708949" style="stroke: #000000; stroke-width: 0.8"/>
      </g>
     </g>
     <g id="text_5">
      <text style="font-size: 11px; font-family: 'DejaVu Sans', 'Bitstream Vera Sans', 'Computer Modern Sans Serif', 'Lucida Grande', 'Verdana', 'Geneva', 'Lucid', 'Arial', 'Helvetica', 'Avant Garde', sans-serif; text-anchor: end" x="70.76" y="98.888089" transform="rotate(-0 70.76 98.888089)">80%</text>
     </g>
    </g>
    <g id="ytick_6">
     <g id="line2d_15">
      <path d="M 77.76 66.196819 
L 483.84 66.196819 
" clip-path="url(#pe917d6aa3e)" style="fill: none; stroke: #b0b0b0; stroke-opacity: 0.3; stroke-width: 0.8; stroke-linecap: square"/>
     </g>
     <g id="line2d_16">
      <g>
       <use xlink:href="#m84a299cfe8" x="77.76" y="66.196819" style="stroke: #000000; stroke-width: 0.8"/>
      </g>
     </g>
     <g id="text_6">
      <text style="font-size: 11px; font-family: 'DejaVu Sans', 'Bitstream Vera Sans', 'Computer Modern Sans Serif', 'Lucida Grande', 'Verdana', 'Geneva', 'Lucid', 'Arial', 'Helvetica', 'Avant Garde', sans-serif; text-anchor: end" x="70.76" y="70.37596" transform="rotate(-0 70.76 70.37596)">100%</text>
     </g>
    </g>
    <g id="text_7">
     <text style="font-size: 11px; font-family: 'DejaVu Sans', 'Bitstream Vera Sans', 'Computer Modern Sans Serif', 'Lucida Grande', 'Verdana', 'Geneva', 'Lucid', 'Arial', 'Helvetica', 'Avant Garde', sans-serif; text-anchor: middle" x="33.024375" y="137.477143" transform="rotate(-90 33.024375 137.477143)">Materialization rate</text>
    </g>
   </g>
   <g id="patch_3">
    <path d="M 77.76 213.034286 
L 77.76 61.92 
" style="fill: none; stroke: #000000; stroke-width: 0.8; stroke-linejoin: miter; stroke-linecap: square"/>
   </g>
   <g id="patch_4">
    <path d="M 77.76 213.034286 
L 483.84 213.034286 
" style="fill: none; stroke: #000000; stroke-width: 0.8; stroke-linejoin: miter; stroke-linecap: square"/>
   </g>
   <g id="line2d_17">
    <path d="M 161.364706 89.956927 
L 400.235294 66.196819 
" clip-path="url(#pe917d6aa3e)" style="fill: none; stroke: #f58518; stroke-width: 2; stroke-linecap: square"/>
    <defs>
     <path id="mfa3e1f313a" d="M 0 3.5 
C 0.928211 3.5 1.81853 3.131218 2.474874 2.474874 
C 3.131218 1.81853 3.5 0.928211 3.5 0 
C 3.5 -0.928211 3.131218 -1.81853 2.474874 -2.474874 
C 1.81853 -3.131218 0.928211 -3.5 0 -3.5 
C -0.928211 -3.5 -1.81853 -3.131218 -2.474874 -2.474874 
C -3.131218 -1.81853 -3.5 -0.928211 -3.5 0 
C -3.5 0.928211 -3.131218 1.81853 -2.474874 2.474874 
C -1.81853 3.131218 -0.928211 3.5 0 3.5 
z
" style="stroke: #fcfcfb"/>
    </defs>
    <g clip-path="url(#pe917d6aa3e)">
     <use xlink:href="#mfa3e1f313a" x="161.364706" y="89.956927" style="fill: #f58518; stroke: #fcfcfb"/>
     <use xlink:href="#mfa3e1f313a" x="400.235294" y="66.196819" style="fill: #f58518; stroke: #fcfcfb"/>
    </g>
   </g>
   <g id="line2d_18">
    <path d="M 161.364706 107.777008 
L 400.235294 66.196819 
" clip-path="url(#pe917d6aa3e)" style="fill: none; stroke: #b279a2; stroke-width: 2; stroke-linecap: square"/>
    <defs>
     <path id="m46d7c122ce" d="M 0 3.5 
C 0.928211 3.5 1.81853 3.131218 2.474874 2.474874 
C 3.131218 1.81853 3.5 0.928211 3.5 0 
C 3.5 -0.928211 3.131218 -1.81853 2.474874 -2.474874 
C 1.81853 -3.131218 0.928211 -3.5 0 -3.5 
C -0.928211 -3.5 -1.81853 -3.131218 -2.474874 -2.474874 
C -3.131218 -1.81853 -3.5 -0.928211 -3.5 0 
C -3.5 0.928211 -3.131218 1.81853 -2.474874 2.474874 
C -1.81853 3.131218 -0.928211 3.5 0 3.5 
z
" style="stroke: #fcfcfb"/>
    </defs>
    <g clip-path="url(#pe917d6aa3e)">
     <use xlink:href="#m46d7c122ce" x="161.364706" y="107.777008" style="fill: #b279a2; stroke: #fcfcfb"/>
     <use xlink:href="#m46d7c122ce" x="400.235294" y="66.196819" style="fill: #b279a2; stroke: #fcfcfb"/>
    </g>
   </g>
   <g id="PathCollection_1">
    <defs>
     <path id="m158ca34fc0" d="M 0 3.535534 
C 0.937635 3.535534 1.836992 3.163008 2.5 2.5 
C 3.163008 1.836992 3.535534 0.937635 3.535534 0 
C 3.535534 -0.937635 3.163008 -1.836992 2.5 -2.5 
C 1.836992 -3.163008 0.937635 -3.535534 0 -3.535534 
C -0.937635 -3.535534 -1.836992 -3.163008 -2.5 -2.5 
C -3.163008 -1.836992 -3.535534 -0.937635 -3.535534 0 
C -3.535534 0.937635 -3.163008 1.836992 -2.5 2.5 
C -1.836992 3.163008 -0.937635 3.535534 0 3.535534 
z
" style="stroke: #fcfcfb"/>
    </defs>
    <g clip-path="url(#pe917d6aa3e)">
     <use xlink:href="#m158ca34fc0" x="400.235294" y="72.136846" style="fill: #e45756; stroke: #fcfcfb"/>
    </g>
   </g>
   <g id="line2d_19">
    <path d="M 161.364706 107.777008 
L 400.235294 72.136846 
" clip-path="url(#pe917d6aa3e)" style="fill: none; stroke: #54a24b; stroke-width: 2; stroke-linecap: square"/>
    <defs>
     <path id="m04703664bd" d="M 0 3.5 
C 0.928211 3.5 1.81853 3.131218 2.474874 2.474874 
C 3.131218 1.81853 3.5 0.928211 3.5 0 
C 3.5 -0.928211 3.131218 -1.81853 2.474874 -2.474874 
C 1.81853 -3.131218 0.928211 -3.5 0 -3.5 
C -0.928211 -3.5 -1.81853 -3.131218 -2.474874 -2.474874 
C -3.131218 -1.81853 -3.5 -0.928211 -3.5 0 
C -3.5 0.928211 -3.131218 1.81853 -2.474874 2.474874 
C -1.81853 3.131218 -0.928211 3.5 0 3.5 
z
" style="stroke: #fcfcfb"/>
    </defs>
    <g clip-path="url(#pe917d6aa3e)">
     <use xlink:href="#m04703664bd" x="161.364706" y="107.777008" style="fill: #54a24b; stroke: #fcfcfb"/>
     <use xlink:href="#m04703664bd" x="400.235294" y="72.136846" style="fill: #54a24b; stroke: #fcfcfb"/>
    </g>
   </g>
   <g id="line2d_20">
    <path d="M 161.364706 89.956927 
L 400.235294 72.136846 
" clip-path="url(#pe917d6aa3e)" style="fill: none; stroke: #eeca3b; stroke-width: 2; stroke-linecap: square"/>
    <defs>
     <path id="m05f092767a" d="M 0 3.5 
C 0.928211 3.5 1.81853 3.131218 2.474874 2.474874 
C 3.131218 1.81853 3.5 0.928211 3.5 0 
C 3.5 -0.928211 3.131218 -1.81853 2.474874 -2.474874 
C 1.81853 -3.131218 0.928211 -3.5 0 -3.5 
C -0.928211 -3.5 -1.81853 -3.131218 -2.474874 -2.474874 
C -3.131218 -1.81853 -3.5 -0.928211 -3.5 0 
C -3.5 0.928211 -3.131218 1.81853 -2.474874 2.474874 
C -1.81853 3.131218 -0.928211 3.5 0 3.5 
z
" style="stroke: #fcfcfb"/>
    </defs>
    <g clip-path="url(#pe917d6aa3e)">
     <use xlink:href="#m05f092767a" x="161.364706" y="89.956927" style="fill: #eeca3b; stroke: #fcfcfb"/>
     <use xlink:href="#m05f092767a" x="400.235294" y="72.136846" style="fill: #eeca3b; stroke: #fcfcfb"/>
    </g>
   </g>
   <g id="line2d_21">
    <path d="M 161.364706 107.777008 
L 400.235294 89.956927 
" clip-path="url(#pe917d6aa3e)" style="fill: none; stroke: #4c78a8; stroke-width: 2; stroke-linecap: square"/>
    <defs>
     <path id="me1c3f8a202" d="M 0 3.5 
C 0.928211 3.5 1.81853 3.131218 2.474874 2.474874 
C 3.131218 1.81853 3.5 0.928211 3.5 0 
C 3.5 -0.928211 3.131218 -1.81853 2.474874 -2.474874 
C 1.81853 -3.131218 0.928211 -3.5 0 -3.5 
C -0.928211 -3.5 -1.81853 -3.131218 -2.474874 -2.474874 
C -3.131218 -1.81853 -3.5 -0.928211 -3.5 0 
C -3.5 0.928211 -3.131218 1.81853 -2.474874 2.474874 
C -1.81853 3.131218 -0.928211 3.5 0 3.5 
z
" style="stroke: #fcfcfb"/>
    </defs>
    <g clip-path="url(#pe917d6aa3e)">
     <use xlink:href="#me1c3f8a202" x="161.364706" y="107.777008" style="fill: #4c78a8; stroke: #fcfcfb"/>
     <use xlink:href="#me1c3f8a202" x="400.235294" y="89.956927" style="fill: #4c78a8; stroke: #fcfcfb"/>
    </g>
   </g>
   <g id="PathCollection_2">
    <defs>
     <path id="m44ce75e8b5" d="M 0 3.535534 
C 0.937635 3.535534 1.836992 3.163008 2.5 2.5 
C 3.163008 1.836992 3.535534 0.937635 3.535534 0 
C 3.535534 -0.937635 3.163008 -1.836992 2.5 -2.5 
C 1.836992 -3.163008 0.937635 -3.535534 0 -3.535534 
C -0.937635 -3.535534 -1.836992 -3.163008 -2.5 -2.5 
C -3.163008 -1.836992 -3.535534 -0.937635 -3.535534 0 
C -3.535534 0.937635 -3.163008 1.836992 -2.5 2.5 
C -1.836992 3.163008 -0.937635 3.535534 0 3.535534 
z
" style="stroke: #fcfcfb"/>
    </defs>
    <g clip-path="url(#pe917d6aa3e)">
     <use xlink:href="#m44ce75e8b5" x="400.235294" y="101.836981" style="fill: #72b7b2; stroke: #fcfcfb"/>
    </g>
   </g>
   <g id="line2d_22">
    <path d="M 161.364706 100.648976 
L 400.235294 77.228298 
" clip-path="url(#pe917d6aa3e)" style="fill: none; stroke-dasharray: 9.25,4; stroke-dashoffset: 0; stroke: #52514e; stroke-opacity: 0.85; stroke-width: 2.5"/>
    <defs>
     <path id="mc7e902bf51" d="M -0 4.242641 
L 4.242641 0 
L 0 -4.242641 
L -4.242641 -0 
z
" style="stroke: #52514e; stroke-opacity: 0.85; stroke-linejoin: miter"/>
    </defs>
    <g clip-path="url(#pe917d6aa3e)">
     <use xlink:href="#mc7e902bf51" x="161.364706" y="100.648976" style="fill: #52514e; fill-opacity: 0.85; stroke: #52514e; stroke-opacity: 0.85; stroke-linejoin: miter"/>
     <use xlink:href="#mc7e902bf51" x="400.235294" y="77.228298" style="fill: #52514e; fill-opacity: 0.85; stroke: #52514e; stroke-opacity: 0.85; stroke-linejoin: miter"/>
    </g>
   </g>
  </g>
  <g id="axes_2">
   <g id="patch_5">
    <path d="M 77.76 391.349143 
L 483.84 391.349143 
L 483.84 240.234857 
L 77.76 240.234857 
z
" style="fill: #ffffff"/>
   </g>
   <g id="matplotlib.axis_3">
    <g id="xtick_3">
     <g id="line2d_23">
      <path d="M 161.364706 391.349143 
L 161.364706 240.234857 
" clip-path="url(#p36d13ec4a5)" style="fill: none; stroke: #b0b0b0; stroke-opacity: 0.3; stroke-width: 0.8; stroke-linecap: square"/>
     </g>
     <g id="line2d_24">
      <g>
       <use xlink:href="#mf56a56b80a" x="161.364706" y="391.349143" style="stroke: #000000; stroke-width: 0.8"/>
      </g>
     </g>
    </g>
    <g id="xtick_4">
     <g id="line2d_25">
      <path d="M 400.235294 391.349143 
L 400.235294 240.234857 
" clip-path="url(#p36d13ec4a5)" style="fill: none; stroke: #b0b0b0; stroke-opacity: 0.3; stroke-width: 0.8; stroke-linecap: square"/>
     </g>
     <g id="line2d_26">
      <g>
       <use xlink:href="#mf56a56b80a" x="400.235294" y="391.349143" style="stroke: #000000; stroke-width: 0.8"/>
      </g>
     </g>
    </g>
   </g>
   <g id="matplotlib.axis_4">
    <g id="ytick_7">
     <g id="line2d_27">
      <path d="M 77.76 387.072323 
L 483.84 387.072323 
" clip-path="url(#p36d13ec4a5)" style="fill: none; stroke: #b0b0b0; stroke-opacity: 0.3; stroke-width: 0.8; stroke-linecap: square"/>
     </g>
     <g id="line2d_28">
      <g>
       <use xlink:href="#m84a299cfe8" x="77.76" y="387.072323" style="stroke: #000000; stroke-width: 0.8"/>
      </g>
     </g>
     <g id="text_8">
      <text style="font-size: 11px; font-family: 'DejaVu Sans', 'Bitstream Vera Sans', 'Computer Modern Sans Serif', 'Lucida Grande', 'Verdana', 'Geneva', 'Lucid', 'Arial', 'Helvetica', 'Avant Garde', sans-serif; text-anchor: end" x="70.76" y="391.251464" transform="rotate(-0 70.76 391.251464)">0.0</text>
     </g>
    </g>
    <g id="ytick_8">
     <g id="line2d_29">
      <path d="M 77.76 358.560194 
L 483.84 358.560194 
" clip-path="url(#p36d13ec4a5)" style="fill: none; stroke: #b0b0b0; stroke-opacity: 0.3; stroke-width: 0.8; stroke-linecap: square"/>
     </g>
     <g id="line2d_30">
      <g>
       <use xlink:href="#m84a299cfe8" x="77.76" y="358.560194" style="stroke: #000000; stroke-width: 0.8"/>
      </g>
     </g>
     <g id="text_9">
      <text style="font-size: 11px; font-family: 'DejaVu Sans', 'Bitstream Vera Sans', 'Computer Modern Sans Serif', 'Lucida Grande', 'Verdana', 'Geneva', 'Lucid', 'Arial', 'Helvetica', 'Avant Garde', sans-serif; text-anchor: end" x="70.76" y="362.739335" transform="rotate(-0 70.76 362.739335)">0.2</text>
     </g>
    </g>
    <g id="ytick_9">
     <g id="line2d_31">
      <path d="M 77.76 330.048065 
L 483.84 330.048065 
" clip-path="url(#p36d13ec4a5)" style="fill: none; stroke: #b0b0b0; stroke-opacity: 0.3; stroke-width: 0.8; stroke-linecap: square"/>
     </g>
     <g id="line2d_32">
      <g>
       <use xlink:href="#m84a299cfe8" x="77.76" y="330.048065" style="stroke: #000000; stroke-width: 0.8"/>
      </g>
     </g>
     <g id="text_10">
      <text style="font-size: 11px; font-family: 'DejaVu Sans', 'Bitstream Vera Sans', 'Computer Modern Sans Serif', 'Lucida Grande', 'Verdana', 'Geneva', 'Lucid', 'Arial', 'Helvetica', 'Avant Garde', sans-serif; text-anchor: end" x="70.76" y="334.227205" transform="rotate(-0 70.76 334.227205)">0.4</text>
     </g>
    </g>
    <g id="ytick_10">
     <g id="line2d_33">
      <path d="M 77.76 301.535935 
L 483.84 301.535935 
" clip-path="url(#p36d13ec4a5)" style="fill: none; stroke: #b0b0b0; stroke-opacity: 0.3; stroke-width: 0.8; stroke-linecap: square"/>
     </g>
     <g id="line2d_34">
      <g>
       <use xlink:href="#m84a299cfe8" x="77.76" y="301.535935" style="stroke: #000000; stroke-width: 0.8"/>
      </g>
     </g>
     <g id="text_11">
      <text style="font-size: 11px; font-family: 'DejaVu Sans', 'Bitstream Vera Sans', 'Computer Modern Sans Serif', 'Lucida Grande', 'Verdana', 'Geneva', 'Lucid', 'Arial', 'Helvetica', 'Avant Garde', sans-serif; text-anchor: end" x="70.76" y="305.715076" transform="rotate(-0 70.76 305.715076)">0.6</text>
     </g>
    </g>
    <g id="ytick_11">
     <g id="line2d_35">
      <path d="M 77.76 273.023806 
L 483.84 273.023806 
" clip-path="url(#p36d13ec4a5)" style="fill: none; stroke: #b0b0b0; stroke-opacity: 0.3; stroke-width: 0.8; stroke-linecap: square"/>
     </g>
     <g id="line2d_36">
      <g>
       <use xlink:href="#m84a299cfe8" x="77.76" y="273.023806" style="stroke: #000000; stroke-width: 0.8"/>
      </g>
     </g>
     <g id="text_12">
      <text style="font-size: 11px; font-family: 'DejaVu Sans', 'Bitstream Vera Sans', 'Computer Modern Sans Serif', 'Lucida Grande', 'Verdana', 'Geneva', 'Lucid', 'Arial', 'Helvetica', 'Avant Garde', sans-serif; text-anchor: end" x="70.76" y="277.202947" transform="rotate(-0 70.76 277.202947)">0.8</text>
     </g>
    </g>
    <g id="ytick_12">
     <g id="line2d_37">
      <path d="M 77.76 244.511677 
L 483.84 244.511677 
" clip-path="url(#p36d13ec4a5)" style="fill: none; stroke: #b0b0b0; stroke-opacity: 0.3; stroke-width: 0.8; stroke-linecap: square"/>
     </g>
     <g id="line2d_38">
      <g>
       <use xlink:href="#m84a299cfe8" x="77.76" y="244.511677" style="stroke: #000000; stroke-width: 0.8"/>
      </g>
     </g>
     <g id="text_13">
      <text style="font-size: 11px; font-family: 'DejaVu Sans', 'Bitstream Vera Sans', 'Computer Modern Sans Serif', 'Lucida Grande', 'Verdana', 'Geneva', 'Lucid', 'Arial', 'Helvetica', 'Avant Garde', sans-serif; text-anchor: end" x="70.76" y="248.690817" transform="rotate(-0 70.76 248.690817)">1.0</text>
     </g>
    </g>
    <g id="text_14">
     <text style="font-size: 11px; font-family: 'DejaVu Sans', 'Bitstream Vera Sans', 'Computer Modern Sans Serif', 'Lucida Grande', 'Verdana', 'Geneva', 'Lucid', 'Arial', 'Helvetica', 'Avant Garde', sans-serif; text-anchor: middle" x="46.978906" y="315.792" transform="rotate(-90 46.978906 315.792)">Recall</text>
    </g>
   </g>
   <g id="patch_6">
    <path d="M 77.76 391.349143 
L 77.76 240.234857 
" style="fill: none; stroke: #000000; stroke-width: 0.8; stroke-linejoin: miter; stroke-linecap: square"/>
   </g>
   <g id="patch_7">
    <path d="M 77.76 391.349143 
L 483.84 391.349143 
" style="fill: none; stroke: #000000; stroke-width: 0.8; stroke-linejoin: miter; stroke-linecap: square"/>
   </g>
   <g id="line2d_39">
    <path d="M 161.364706 286.052011 
L 400.235294 248.646968 
" clip-path="url(#p36d13ec4a5)" style="fill: none; stroke: #f58518; stroke-width: 2; stroke-linecap: square"/>
    <g clip-path="url(#p36d13ec4a5)">
     <use xlink:href="#mfa3e1f313a" x="161.364706" y="286.052011" style="fill: #f58518; stroke: #fcfcfb"/>
     <use xlink:href="#mfa3e1f313a" x="400.235294" y="248.646968" style="fill: #f58518; stroke: #fcfcfb"/>
    </g>
   </g>
   <g id="line2d_40">
    <path d="M 161.364706 304.810363 
L 400.235294 249.379809 
" clip-path="url(#p36d13ec4a5)" style="fill: none; stroke: #b279a2; stroke-width: 2; stroke-linecap: square"/>
    <g clip-path="url(#p36d13ec4a5)">
     <use xlink:href="#m46d7c122ce" x="161.364706" y="304.810363" style="fill: #b279a2; stroke: #fcfcfb"/>
     <use xlink:href="#m46d7c122ce" x="400.235294" y="249.379809" style="fill: #b279a2; stroke: #fcfcfb"/>
    </g>
   </g>
   <g id="PathCollection_3">
    <g clip-path="url(#p36d13ec4a5)">
     <use xlink:href="#m158ca34fc0" x="400.235294" y="263.074315" style="fill: #e45756; stroke: #fcfcfb"/>
    </g>
   </g>
   <g id="line2d_41">
    <path d="M 161.364706 316.122203 
L 400.235294 264.267237 
" clip-path="url(#p36d13ec4a5)" style="fill: none; stroke: #54a24b; stroke-width: 2; stroke-linecap: square"/>
    <g clip-path="url(#p36d13ec4a5)">
     <use xlink:href="#m04703664bd" x="161.364706" y="316.122203" style="fill: #54a24b; stroke: #fcfcfb"/>
     <use xlink:href="#m04703664bd" x="400.235294" y="264.267237" style="fill: #54a24b; stroke: #fcfcfb"/>
    </g>
   </g>
   <g id="line2d_42">
    <path d="M 161.364706 295.449514 
L 400.235294 259.654416 
" clip-path="url(#p36d13ec4a5)" style="fill: none; stroke: #eeca3b; stroke-width: 2; stroke-linecap: square"/>
    <g clip-path="url(#p36d13ec4a5)">
     <use xlink:href="#m05f092767a" x="161.364706" y="295.449514" style="fill: #eeca3b; stroke: #fcfcfb"/>
     <use xlink:href="#m05f092767a" x="400.235294" y="259.654416" style="fill: #eeca3b; stroke: #fcfcfb"/>
    </g>
   </g>
   <g id="line2d_43">
    <path d="M 161.364706 290.460003 
L 400.235294 263.106544 
" clip-path="url(#p36d13ec4a5)" style="fill: none; stroke: #4c78a8; stroke-width: 2; stroke-linecap: square"/>
    <g clip-path="url(#p36d13ec4a5)">
     <use xlink:href="#me1c3f8a202" x="161.364706" y="290.460003" style="fill: #4c78a8; stroke: #fcfcfb"/>
     <use xlink:href="#me1c3f8a202" x="400.235294" y="263.106544" style="fill: #4c78a8; stroke: #fcfcfb"/>
    </g>
   </g>
   <g id="PathCollection_4">
    <g clip-path="url(#p36d13ec4a5)">
     <use xlink:href="#m44ce75e8b5" x="400.235294" y="270.431794" style="fill: #72b7b2; stroke: #fcfcfb"/>
    </g>
   </g>
   <g id="line2d_44">
    <path d="M 161.364706 298.647044 
L 400.235294 259.645429 
" clip-path="url(#p36d13ec4a5)" style="fill: none; stroke-dasharray: 9.25,4; stroke-dashoffset: 0; stroke: #52514e; stroke-opacity: 0.85; stroke-width: 2.5"/>
    <g clip-path="url(#p36d13ec4a5)">
     <use xlink:href="#mc7e902bf51" x="161.364706" y="298.647044" style="fill: #52514e; fill-opacity: 0.85; stroke: #52514e; stroke-opacity: 0.85; stroke-linejoin: miter"/>
     <use xlink:href="#mc7e902bf51" x="400.235294" y="259.645429" style="fill: #52514e; fill-opacity: 0.85; stroke: #52514e; stroke-opacity: 0.85; stroke-linejoin: miter"/>
    </g>
   </g>
  </g>
  <g id="axes_3">
   <g id="patch_8">
    <path d="M 77.76 569.664 
L 483.84 569.664 
L 483.84 418.549714 
L 77.76 418.549714 
z
" style="fill: #ffffff"/>
   </g>
   <g id="matplotlib.axis_5">
    <g id="xtick_5">
     <g id="line2d_45">
      <path d="M 161.364706 569.664 
L 161.364706 418.549714 
" clip-path="url(#p3b7f4570b1)" style="fill: none; stroke: #b0b0b0; stroke-opacity: 0.3; stroke-width: 0.8; stroke-linecap: square"/>
     </g>
     <g id="line2d_46">
      <g>
       <use xlink:href="#mf56a56b80a" x="161.364706" y="569.664" style="stroke: #000000; stroke-width: 0.8"/>
      </g>
     </g>
     <g id="text_15">
      <text style="font-size: 11px; font-family: 'DejaVu Sans', 'Bitstream Vera Sans', 'Computer Modern Sans Serif', 'Lucida Grande', 'Verdana', 'Geneva', 'Lucid', 'Arial', 'Helvetica', 'Avant Garde', sans-serif; text-anchor: middle" x="161.364706" y="585.022281" transform="rotate(-0 161.364706 585.022281)">off</text>
     </g>
    </g>
    <g id="xtick_6">
     <g id="line2d_47">
      <path d="M 400.235294 569.664 
L 400.235294 418.549714 
" clip-path="url(#p3b7f4570b1)" style="fill: none; stroke: #b0b0b0; stroke-opacity: 0.3; stroke-width: 0.8; stroke-linecap: square"/>
     </g>
     <g id="line2d_48">
      <g>
       <use xlink:href="#mf56a56b80a" x="400.235294" y="569.664" style="stroke: #000000; stroke-width: 0.8"/>
      </g>
     </g>
     <g id="text_16">
      <text style="font-size: 11px; font-family: 'DejaVu Sans', 'Bitstream Vera Sans', 'Computer Modern Sans Serif', 'Lucida Grande', 'Verdana', 'Geneva', 'Lucid', 'Arial', 'Helvetica', 'Avant Garde', sans-serif; text-anchor: middle" x="400.235294" y="585.022281" transform="rotate(-0 400.235294 585.022281)">on</text>
     </g>
    </g>
   </g>
   <g id="matplotlib.axis_6">
    <g id="ytick_13">
     <g id="line2d_49">
      <path d="M 77.76 569.664 
L 483.84 569.664 
" clip-path="url(#p3b7f4570b1)" style="fill: none; stroke: #b0b0b0; stroke-opacity: 0.3; stroke-width: 0.8; stroke-linecap: square"/>
     </g>
     <g id="line2d_50">
      <g>
       <use xlink:href="#m84a299cfe8" x="77.76" y="569.664" style="stroke: #000000; stroke-width: 0.8"/>
      </g>
     </g>
     <g id="text_17">
      <text style="font-size: 11px; font-family: 'DejaVu Sans', 'Bitstream Vera Sans', 'Computer Modern Sans Serif', 'Lucida Grande', 'Verdana', 'Geneva', 'Lucid', 'Arial', 'Helvetica', 'Avant Garde', sans-serif; text-anchor: end" x="70.76" y="573.843141" transform="rotate(-0 70.76 573.843141)">0</text>
     </g>
    </g>
    <g id="ytick_14">
     <g id="line2d_51">
      <path d="M 77.76 543.588451 
L 483.84 543.588451 
" clip-path="url(#p3b7f4570b1)" style="fill: none; stroke: #b0b0b0; stroke-opacity: 0.3; stroke-width: 0.8; stroke-linecap: square"/>
     </g>
     <g id="line2d_52">
      <g>
       <use xlink:href="#m84a299cfe8" x="77.76" y="543.588451" style="stroke: #000000; stroke-width: 0.8"/>
      </g>
     </g>
     <g id="text_18">
      <text style="font-size: 11px; font-family: 'DejaVu Sans', 'Bitstream Vera Sans', 'Computer Modern Sans Serif', 'Lucida Grande', 'Verdana', 'Geneva', 'Lucid', 'Arial', 'Helvetica', 'Avant Garde', sans-serif; text-anchor: end" x="70.76" y="547.767592" transform="rotate(-0 70.76 547.767592)">50000</text>
     </g>
    </g>
    <g id="ytick_15">
     <g id="line2d_53">
      <path d="M 77.76 517.512903 
L 483.84 517.512903 
" clip-path="url(#p3b7f4570b1)" style="fill: none; stroke: #b0b0b0; stroke-opacity: 0.3; stroke-width: 0.8; stroke-linecap: square"/>
     </g>
     <g id="line2d_54">
      <g>
       <use xlink:href="#m84a299cfe8" x="77.76" y="517.512903" style="stroke: #000000; stroke-width: 0.8"/>
      </g>
     </g>
     <g id="text_19">
      <text style="font-size: 11px; font-family: 'DejaVu Sans', 'Bitstream Vera Sans', 'Computer Modern Sans Serif', 'Lucida Grande', 'Verdana', 'Geneva', 'Lucid', 'Arial', 'Helvetica', 'Avant Garde', sans-serif; text-anchor: end" x="70.76" y="521.692043" transform="rotate(-0 70.76 521.692043)">100000</text>
     </g>
    </g>
    <g id="ytick_16">
     <g id="line2d_55">
      <path d="M 77.76 491.437354 
L 483.84 491.437354 
" clip-path="url(#p3b7f4570b1)" style="fill: none; stroke: #b0b0b0; stroke-opacity: 0.3; stroke-width: 0.8; stroke-linecap: square"/>
     </g>
     <g id="line2d_56">
      <g>
       <use xlink:href="#m84a299cfe8" x="77.76" y="491.437354" style="stroke: #000000; stroke-width: 0.8"/>
      </g>
     </g>
     <g id="text_20">
      <text style="font-size: 11px; font-family: 'DejaVu Sans', 'Bitstream Vera Sans', 'Computer Modern Sans Serif', 'Lucida Grande', 'Verdana', 'Geneva', 'Lucid', 'Arial', 'Helvetica', 'Avant Garde', sans-serif; text-anchor: end" x="70.76" y="495.616494" transform="rotate(-0 70.76 495.616494)">150000</text>
     </g>
    </g>
    <g id="ytick_17">
     <g id="line2d_57">
      <path d="M 77.76 465.361805 
L 483.84 465.361805 
" clip-path="url(#p3b7f4570b1)" style="fill: none; stroke: #b0b0b0; stroke-opacity: 0.3; stroke-width: 0.8; stroke-linecap: square"/>
     </g>
     <g id="line2d_58">
      <g>
       <use xlink:href="#m84a299cfe8" x="77.76" y="465.361805" style="stroke: #000000; stroke-width: 0.8"/>
      </g>
     </g>
     <g id="text_21">
      <text style="font-size: 11px; font-family: 'DejaVu Sans', 'Bitstream Vera Sans', 'Computer Modern Sans Serif', 'Lucida Grande', 'Verdana', 'Geneva', 'Lucid', 'Arial', 'Helvetica', 'Avant Garde', sans-serif; text-anchor: end" x="70.76" y="469.540946" transform="rotate(-0 70.76 469.540946)">200000</text>
     </g>
    </g>
    <g id="ytick_18">
     <g id="line2d_59">
      <path d="M 77.76 439.286256 
L 483.84 439.286256 
" clip-path="url(#p3b7f4570b1)" style="fill: none; stroke: #b0b0b0; stroke-opacity: 0.3; stroke-width: 0.8; stroke-linecap: square"/>
     </g>
     <g id="line2d_60">
      <g>
       <use xlink:href="#m84a299cfe8" x="77.76" y="439.286256" style="stroke: #000000; stroke-width: 0.8"/>
      </g>
     </g>
     <g id="text_22">
      <text style="font-size: 11px; font-family: 'DejaVu Sans', 'Bitstream Vera Sans', 'Computer Modern Sans Serif', 'Lucida Grande', 'Verdana', 'Geneva', 'Lucid', 'Arial', 'Helvetica', 'Avant Garde', sans-serif; text-anchor: end" x="70.76" y="443.465397" transform="rotate(-0 70.76 443.465397)">250000</text>
     </g>
    </g>
    <g id="text_23">
     <text style="font-size: 11px; font-family: 'DejaVu Sans', 'Bitstream Vera Sans', 'Computer Modern Sans Serif', 'Lucida Grande', 'Verdana', 'Geneva', 'Lucid', 'Arial', 'Helvetica', 'Avant Garde', sans-serif; text-anchor: middle" x="22.479844" y="494.106857" transform="rotate(-90 22.479844 494.106857)">Mean tokens/run (in+out)</text>
    </g>
   </g>
   <g id="patch_9">
    <path d="M 77.76 569.664 
L 77.76 418.549714 
" style="fill: none; stroke: #000000; stroke-width: 0.8; stroke-linejoin: miter; stroke-linecap: square"/>
   </g>
   <g id="patch_10">
    <path d="M 77.76 569.664 
L 483.84 569.664 
" style="fill: none; stroke: #000000; stroke-width: 0.8; stroke-linejoin: miter; stroke-linecap: square"/>
   </g>
   <g id="line2d_61">
    <path d="M 161.364706 480.347227 
L 400.235294 467.516102 
" clip-path="url(#p3b7f4570b1)" style="fill: none; stroke: #f58518; stroke-width: 2; stroke-linecap: square"/>
    <g clip-path="url(#p3b7f4570b1)">
     <use xlink:href="#mfa3e1f313a" x="161.364706" y="480.347227" style="fill: #f58518; stroke: #fcfcfb"/>
     <use xlink:href="#mfa3e1f313a" x="400.235294" y="467.516102" style="fill: #f58518; stroke: #fcfcfb"/>
    </g>
   </g>
   <g id="line2d_62">
    <path d="M 161.364706 548.670076 
L 400.235294 532.407452 
" clip-path="url(#p3b7f4570b1)" style="fill: none; stroke: #b279a2; stroke-width: 2; stroke-linecap: square"/>
    <g clip-path="url(#p3b7f4570b1)">
     <use xlink:href="#m46d7c122ce" x="161.364706" y="548.670076" style="fill: #b279a2; stroke: #fcfcfb"/>
     <use xlink:href="#m46d7c122ce" x="400.235294" y="532.407452" style="fill: #b279a2; stroke: #fcfcfb"/>
    </g>
   </g>
   <g id="PathCollection_5">
    <g clip-path="url(#p3b7f4570b1)">
     <use xlink:href="#m158ca34fc0" x="400.235294" y="424.745922" style="fill: #e45756; stroke: #fcfcfb"/>
    </g>
   </g>
   <g id="line2d_63">
    <path d="M 161.364706 545.864629 
L 400.235294 520.451487 
" clip-path="url(#p3b7f4570b1)" style="fill: none; stroke: #54a24b; stroke-width: 2; stroke-linecap: square"/>
    <g clip-path="url(#p3b7f4570b1)">
     <use xlink:href="#m04703664bd" x="161.364706" y="545.864629" style="fill: #54a24b; stroke: #fcfcfb"/>
     <use xlink:href="#m04703664bd" x="400.235294" y="520.451487" style="fill: #54a24b; stroke: #fcfcfb"/>
    </g>
   </g>
   <g id="line2d_64">
    <path d="M 161.364706 498.991093 
L 400.235294 483.122426 
" clip-path="url(#p3b7f4570b1)" style="fill: none; stroke: #eeca3b; stroke-width: 2; stroke-linecap: square"/>
    <g clip-path="url(#p3b7f4570b1)">
     <use xlink:href="#m05f092767a" x="161.364706" y="498.991093" style="fill: #eeca3b; stroke: #fcfcfb"/>
     <use xlink:href="#m05f092767a" x="400.235294" y="483.122426" style="fill: #eeca3b; stroke: #fcfcfb"/>
    </g>
   </g>
   <g id="line2d_65">
    <path d="M 161.364706 533.349409 
L 400.235294 521.123519 
" clip-path="url(#p3b7f4570b1)" style="fill: none; stroke: #4c78a8; stroke-width: 2; stroke-linecap: square"/>
    <g clip-path="url(#p3b7f4570b1)">
     <use xlink:href="#me1c3f8a202" x="161.364706" y="533.349409" style="fill: #4c78a8; stroke: #fcfcfb"/>
     <use xlink:href="#me1c3f8a202" x="400.235294" y="521.123519" style="fill: #4c78a8; stroke: #fcfcfb"/>
    </g>
   </g>
   <g id="PathCollection_6">
    <g clip-path="url(#p3b7f4570b1)">
     <use xlink:href="#m44ce75e8b5" x="400.235294" y="490.072951" style="fill: #72b7b2; stroke: #fcfcfb"/>
    </g>
   </g>
   <g id="line2d_66">
    <path d="M 161.364706 521.444487 
L 400.235294 491.348551 
" clip-path="url(#p3b7f4570b1)" style="fill: none; stroke-dasharray: 9.25,4; stroke-dashoffset: 0; stroke: #52514e; stroke-opacity: 0.85; stroke-width: 2.5"/>
    <g clip-path="url(#p3b7f4570b1)">
     <use xlink:href="#mc7e902bf51" x="161.364706" y="521.444487" style="fill: #52514e; fill-opacity: 0.85; stroke: #52514e; stroke-opacity: 0.85; stroke-linejoin: miter"/>
     <use xlink:href="#mc7e902bf51" x="400.235294" y="491.348551" style="fill: #52514e; fill-opacity: 0.85; stroke: #52514e; stroke-opacity: 0.85; stroke-linejoin: miter"/>
    </g>
   </g>
  </g>
  <g id="text_24">
   <text style="font-size: 13px; font-family: 'DejaVu Sans', 'Bitstream Vera Sans', 'Computer Modern Sans Serif', 'Lucida Grande', 'Verdana', 'Geneva', 'Lucid', 'Arial', 'Helvetica', 'Avant Garde', sans-serif; text-anchor: start; fill: #0b0b0b" x="43.2" y="16.069969" transform="rotate(-0 43.2 16.069969)">Lever: self-correction (off -&gt; on)</text>
  </g>
  <g id="legend_1">
   <g id="text_25">
    <text style="font-size: 11px; font-family: 'DejaVu Sans', 'Bitstream Vera Sans', 'Computer Modern Sans Serif', 'Lucida Grande', 'Verdana', 'Geneva', 'Lucid', 'Arial', 'Helvetica', 'Avant Garde', sans-serif; text-anchor: start; fill: #0b0b0b" x="526.05" y="261.902266" transform="rotate(-0 526.05 261.902266)">Strategy (cell)</text>
   </g>
   <g id="line2d_67">
    <defs>
     <path id="m69a7bdd112" d="M 0 4 
C 1.060812 4 2.078319 3.578535 2.828427 2.828427 
C 3.578535 2.078319 4 1.060812 4 0 
C 4 -1.060812 3.578535 -2.078319 2.828427 -2.828427 
C 2.078319 -3.578535 1.060812 -4 0 -4 
C -1.060812 -4 -2.078319 -3.578535 -2.828427 -2.828427 
C -3.578535 -2.078319 -4 -1.060812 -4 0 
C -4 1.060812 -3.578535 2.078319 -2.828427 2.828427 
C -2.078319 3.578535 -1.060812 4 0 4 
z
" style="stroke: #fcfcfb"/>
    </defs>
    <g>
     <use xlink:href="#m69a7bdd112" x="534.55" y="271.923594" style="fill: #f58518; stroke: #fcfcfb"/>
    </g>
   </g>
   <g id="text_26">
    <text style="font-size: 8.5px; font-family: 'DejaVu Sans', 'Bitstream Vera Sans', 'Computer Modern Sans Serif', 'Lucida Grande', 'Verdana', 'Geneva', 'Lucid', 'Arial', 'Helvetica', 'Avant Garde', sans-serif; text-anchor: start; fill: #0b0b0b" x="549.85" y="274.898594" transform="rotate(-0 549.85 274.898594)">ensemble_vote</text>
   </g>
   <g id="line2d_68">
    <defs>
     <path id="mbe50160115" d="M 0 4 
C 1.060812 4 2.078319 3.578535 2.828427 2.828427 
C 3.578535 2.078319 4 1.060812 4 0 
C 4 -1.060812 3.578535 -2.078319 2.828427 -2.828427 
C 2.078319 -3.578535 1.060812 -4 0 -4 
C -1.060812 -4 -2.078319 -3.578535 -2.828427 -2.828427 
C -3.578535 -2.078319 -4 -1.060812 -4 0 
C -4 1.060812 -3.578535 2.078319 -2.828427 2.828427 
C -2.078319 3.578535 -1.060812 4 0 4 
z
" style="stroke: #fcfcfb"/>
    </defs>
    <g>
     <use xlink:href="#mbe50160115" x="534.55" y="284.636406" style="fill: #b279a2; stroke: #fcfcfb"/>
    </g>
   </g>
   <g id="text_27">
    <text style="font-size: 8.5px; font-family: 'DejaVu Sans', 'Bitstream Vera Sans', 'Computer Modern Sans Serif', 'Lucida Grande', 'Verdana', 'Geneva', 'Lucid', 'Arial', 'Helvetica', 'Avant Garde', sans-serif; text-anchor: start; fill: #0b0b0b" x="549.85" y="287.611406" transform="rotate(-0 549.85 287.611406)">plan_then_execute</text>
   </g>
   <g id="line2d_69">
    <defs>
     <path id="mb2b636d49e" d="M 0 4 
C 1.060812 4 2.078319 3.578535 2.828427 2.828427 
C 3.578535 2.078319 4 1.060812 4 0 
C 4 -1.060812 3.578535 -2.078319 2.828427 -2.828427 
C 2.078319 -3.578535 1.060812 -4 0 -4 
C -1.060812 -4 -2.078319 -3.578535 -2.828427 -2.828427 
C -3.578535 -2.078319 -4 -1.060812 -4 0 
C -4 1.060812 -3.578535 2.078319 -2.828427 2.828427 
C -2.078319 3.578535 -1.060812 4 0 4 
z
" style="stroke: #fcfcfb"/>
    </defs>
    <g>
     <use xlink:href="#mb2b636d49e" x="534.55" y="297.349219" style="fill: #e45756; stroke: #fcfcfb"/>
    </g>
   </g>
   <g id="text_28">
    <text style="font-size: 8.5px; font-family: 'DejaVu Sans', 'Bitstream Vera Sans', 'Computer Modern Sans Serif', 'Lucida Grande', 'Verdana', 'Geneva', 'Lucid', 'Arial', 'Helvetica', 'Avant Garde', sans-serif; text-anchor: start; fill: #0b0b0b" x="549.85" y="300.324219" transform="rotate(-0 549.85 300.324219)">plan_write_critique</text>
   </g>
   <g id="line2d_70">
    <defs>
     <path id="mad2da93eb8" d="M 0 4 
C 1.060812 4 2.078319 3.578535 2.828427 2.828427 
C 3.578535 2.078319 4 1.060812 4 0 
C 4 -1.060812 3.578535 -2.078319 2.828427 -2.828427 
C 2.078319 -3.578535 1.060812 -4 0 -4 
C -1.060812 -4 -2.078319 -3.578535 -2.828427 -2.828427 
C -3.578535 -2.078319 -4 -1.060812 -4 0 
C -4 1.060812 -3.578535 2.078319 -2.828427 2.828427 
C -2.078319 3.578535 -1.060812 4 0 4 
z
" style="stroke: #fcfcfb"/>
    </defs>
    <g>
     <use xlink:href="#mad2da93eb8" x="534.55" y="310.062031" style="fill: #54a24b; stroke: #fcfcfb"/>
    </g>
   </g>
   <g id="text_29">
    <text style="font-size: 8.5px; font-family: 'DejaVu Sans', 'Bitstream Vera Sans', 'Computer Modern Sans Serif', 'Lucida Grande', 'Verdana', 'Geneva', 'Lucid', 'Arial', 'Helvetica', 'Avant Garde', sans-serif; text-anchor: start; fill: #0b0b0b" x="549.85" y="313.037031" transform="rotate(-0 549.85 313.037031)">structured_per_table</text>
   </g>
   <g id="line2d_71">
    <defs>
     <path id="mabaef64ff4" d="M 0 4 
C 1.060812 4 2.078319 3.578535 2.828427 2.828427 
C 3.578535 2.078319 4 1.060812 4 0 
C 4 -1.060812 3.578535 -2.078319 2.828427 -2.828427 
C 2.078319 -3.578535 1.060812 -4 0 -4 
C -1.060812 -4 -2.078319 -3.578535 -2.828427 -2.828427 
C -3.578535 -2.078319 -4 -1.060812 -4 0 
C -4 1.060812 -3.578535 2.078319 -2.828427 2.828427 
C -2.078319 3.578535 -1.060812 4 0 4 
z
" style="stroke: #fcfcfb"/>
    </defs>
    <g>
     <use xlink:href="#mabaef64ff4" x="534.55" y="322.774844" style="fill: #eeca3b; stroke: #fcfcfb"/>
    </g>
   </g>
   <g id="text_30">
    <text style="font-size: 8.5px; font-family: 'DejaVu Sans', 'Bitstream Vera Sans', 'Computer Modern Sans Serif', 'Lucida Grande', 'Verdana', 'Geneva', 'Lucid', 'Arial', 'Helvetica', 'Avant Garde', sans-serif; text-anchor: start; fill: #0b0b0b" x="549.85" y="325.749844" transform="rotate(-0 549.85 325.749844)">write_then_critique</text>
   </g>
   <g id="line2d_72">
    <defs>
     <path id="m15d7f8a28b" d="M 0 4 
C 1.060812 4 2.078319 3.578535 2.828427 2.828427 
C 3.578535 2.078319 4 1.060812 4 0 
C 4 -1.060812 3.578535 -2.078319 2.828427 -2.828427 
C 2.078319 -3.578535 1.060812 -4 0 -4 
C -1.060812 -4 -2.078319 -3.578535 -2.828427 -2.828427 
C -3.578535 -2.078319 -4 -1.060812 -4 0 
C -4 1.060812 -3.578535 2.078319 -2.828427 2.828427 
C -2.078319 3.578535 -1.060812 4 0 4 
z
" style="stroke: #fcfcfb"/>
    </defs>
    <g>
     <use xlink:href="#m15d7f8a28b" x="534.55" y="335.487656" style="fill: #4c78a8; stroke: #fcfcfb"/>
    </g>
   </g>
   <g id="text_31">
    <text style="font-size: 8.5px; font-family: 'DejaVu Sans', 'Bitstream Vera Sans', 'Computer Modern Sans Serif', 'Lucida Grande', 'Verdana', 'Geneva', 'Lucid', 'Arial', 'Helvetica', 'Avant Garde', sans-serif; text-anchor: start; fill: #0b0b0b" x="549.85" y="338.462656" transform="rotate(-0 549.85 338.462656)">write_tools_freeform</text>
   </g>
   <g id="line2d_73">
    <defs>
     <path id="m9c92afca5e" d="M 0 4 
C 1.060812 4 2.078319 3.578535 2.828427 2.828427 
C 3.578535 2.078319 4 1.060812 4 0 
C 4 -1.060812 3.578535 -2.078319 2.828427 -2.828427 
C 2.078319 -3.578535 1.060812 -4 0 -4 
C -1.060812 -4 -2.078319 -3.578535 -2.828427 -2.828427 
C -3.578535 -2.078319 -4 -1.060812 -4 0 
C -4 1.060812 -3.578535 2.078319 -2.828427 2.828427 
C -2.078319 3.578535 -1.060812 4 0 4 
z
" style="stroke: #fcfcfb"/>
    </defs>
    <g>
     <use xlink:href="#m9c92afca5e" x="534.55" y="348.200469" style="fill: #72b7b2; stroke: #fcfcfb"/>
    </g>
   </g>
   <g id="text_32">
    <text style="font-size: 8.5px; font-family: 'DejaVu Sans', 'Bitstream Vera Sans', 'Computer Modern Sans Serif', 'Lucida Grande', 'Verdana', 'Geneva', 'Lucid', 'Arial', 'Helvetica', 'Avant Garde', sans-serif; text-anchor: start; fill: #0b0b0b" x="549.85" y="351.175469" transform="rotate(-0 549.85 351.175469)">write_tools_freeform_inlinedbt</text>
   </g>
   <g id="line2d_74">
    <path d="M 526.05 360.913281 
L 534.55 360.913281 
L 543.05 360.913281 
" style="fill: none; stroke-dasharray: 9.25,4; stroke-dashoffset: 0; stroke: #52514e; stroke-opacity: 0.85; stroke-width: 2.5"/>
    <g>
     <use xlink:href="#mc7e902bf51" x="534.55" y="360.913281" style="fill: #52514e; fill-opacity: 0.85; stroke: #52514e; stroke-opacity: 0.85; stroke-linejoin: miter"/>
    </g>
   </g>
   <g id="text_33">
    <text style="font-size: 8.5px; font-family: 'DejaVu Sans', 'Bitstream Vera Sans', 'Computer Modern Sans Serif', 'Lucida Grande', 'Verdana', 'Geneva', 'Lucid', 'Arial', 'Helvetica', 'Avant Garde', sans-serif; text-anchor: start; fill: #0b0b0b" x="549.85" y="363.888281" transform="rotate(-0 549.85 363.888281)">overall mean</text>
   </g>
  </g>
 </g>
 <defs>
  <clipPath id="pe917d6aa3e">
   <rect x="77.76" y="61.92" width="406.08" height="151.114286"/>
  </clipPath>
  <clipPath id="p36d13ec4a5">
   <rect x="77.76" y="240.234857" width="406.08" height="151.114286"/>
  </clipPath>
  <clipPath id="p3b7f4570b1">
   <rect x="77.76" y="418.549714" width="406.08" height="151.114286"/>
  </clipPath>
 </defs>
</svg>
