<?xml version="1.0" encoding="utf-8" standalone="no"?>
<!DOCTYPE svg PUBLIC "-//W3C//DTD SVG 1.1//EN"
  "http://www.w3.org/Graphics/SVG/1.1/DTD/svg11.dtd">
<svg xmlns:xlink="http://www.w3.org/1999/xlink" width="792pt" height="360pt" viewBox="0 0 792 360" xmlns="http://www.w3.org/2000/svg" version="1.1">
 <metadata>
  <rdf:RDF xmlns:dc="http://purl.org/dc/elements/1.1/" xmlns:cc="http://creativecommons.org/ns#" xmlns:rdf="http://www.w3.org/1999/02/22-rdf-syntax-ns#">
   <cc:Work>
    <dc:type rdf:resource="http://purl.org/dc/dcmitype/StillImage"/>
    <dc:format>image/svg+xml</dc:format>
    <dc:creator>
     <cc:Agent>
      <dc:title>Matplotlib v3.10.9, https://matplotlib.org/</dc:title>
     </cc:Agent>
    </dc:creator>
   </cc:Work>
  </rdf:RDF>
 </metadata>
 <defs>
  <style type="text/css">*{stroke-linejoin: round; stroke-linecap: butt}</style>
 </defs>
 <g id="figure_1">
  <g id="patch_1">
   <path d="M 0 360 
L 792 360 
L 792 0 
L 0 0 
z
" style="fill: #ffffff"/>
  </g>
  <g id="axes_1">
   <g id="patch_2">
    <path d="M 55.44 298.8 
L 491.04 298.8 
L 491.04 18 
L 55.44 18 
z
" style="fill: #ffffff"/>
   </g>
   <g id="matplotlib.axis_1">
    <g id="xtick_1">
     <g id="line2d_1">
      <path d="M 244.731442 298.8 
L 244.731442 18 
" clip-path="url(#p4394a99aaf)" style="fill: none; stroke: #b0b0b0; stroke-opacity: 0.3; stroke-width: 0.8; stroke-linecap: square"/>
     </g>
     <g id="line2d_2">
      <defs>
       <path id="m5466bf1869" d="M 0 0 
L 0 3.5 
" style="stroke: #000000; stroke-width: 0.8"/>
      </defs>
      <g>
       <use xlink:href="#m5466bf1869" x="244.731442" y="298.8" style="stroke: #000000; stroke-width: 0.8"/>
      </g>
     </g>
     <g id="text_1">
      <text style="font-size: 11px; font-family: 'DejaVu Sans', 'Bitstream Vera Sans', 'Computer Modern Sans Serif', 'Lucida Grande', 'Verdana', 'Geneva', 'Lucid', 'Arial', 'Helvetica', 'Avant Garde', sans-serif; text-anchor: middle" x="244.731442" y="314.158281" transform="rotate(-0 244.731442 314.158281)">$0.1</text>
     </g>
    </g>
    <g id="xtick_2">
     <g id="line2d_3">
      <defs>
       <path id="m97f6bd0018" d="M 0 0 
L 0 2 
" style="stroke: #000000; stroke-width: 0.6"/>
      </defs>
      <g>
       <use xlink:href="#m97f6bd0018" x="126.627812" y="298.8" style="stroke: #000000; stroke-width: 0.6"/>
      </g>
     </g>
     <g id="text_2">
      <text style="font-size: 9px; font-family: 'DejaVu Sans', 'Bitstream Vera Sans', 'Computer Modern Sans Serif', 'Lucida Grande', 'Verdana', 'Geneva', 'Lucid', 'Arial', 'Helvetica', 'Avant Garde', sans-serif; text-anchor: middle" x="126.627812" y="311.038594" transform="rotate(-0 126.627812 311.038594)">$0.05</text>
     </g>
    </g>
    <g id="xtick_3">
     <g id="line2d_4">
      <g>
       <use xlink:href="#m97f6bd0018" x="362.835073" y="298.8" style="stroke: #000000; stroke-width: 0.6"/>
      </g>
     </g>
     <g id="text_3">
      <text style="font-size: 9px; font-family: 'DejaVu Sans', 'Bitstream Vera Sans', 'Computer Modern Sans Serif', 'Lucida Grande', 'Verdana', 'Geneva', 'Lucid', 'Arial', 'Helvetica', 'Avant Garde', sans-serif; text-anchor: middle" x="362.835073" y="311.038594" transform="rotate(-0 362.835073 311.038594)">$0.2</text>
     </g>
    </g>
    <g id="xtick_4">
     <g id="line2d_5">
      <g>
       <use xlink:href="#m97f6bd0018" x="431.921268" y="298.8" style="stroke: #000000; stroke-width: 0.6"/>
      </g>
     </g>
     <g id="text_4">
      <text style="font-size: 9px; font-family: 'DejaVu Sans', 'Bitstream Vera Sans', 'Computer Modern Sans Serif', 'Lucida Grande', 'Verdana', 'Geneva', 'Lucid', 'Arial', 'Helvetica', 'Avant Garde', sans-serif; text-anchor: middle" x="431.921268" y="311.038594" transform="rotate(-0 431.921268 311.038594)">$0.3</text>
     </g>
    </g>
    <g id="text_5">
     <text style="font-size: 11px; font-family: 'DejaVu Sans', 'Bitstream Vera Sans', 'Computer Modern Sans Serif', 'Lucida Grande', 'Verdana', 'Geneva', 'Lucid', 'Arial', 'Helvetica', 'Avant Garde', sans-serif; text-anchor: middle" x="273.24" y="328.804219" transform="rotate(-0 273.24 328.804219)">Cost per run ($, log)</text>
    </g>
   </g>
   <g id="matplotlib.axis_2">
    <g id="ytick_1">
     <g id="line2d_6">
      <path d="M 55.44 290.85283 
L 491.04 290.85283 
" clip-path="url(#p4394a99aaf)" style="fill: none; stroke: #b0b0b0; stroke-opacity: 0.3; stroke-width: 0.8; stroke-linecap: square"/>
     </g>
     <g id="line2d_7">
      <defs>
       <path id="md9bcb14005" d="M 0 0 
L -3.5 0 
" style="stroke: #000000; stroke-width: 0.8"/>
      </defs>
      <g>
       <use xlink:href="#md9bcb14005" x="55.44" y="290.85283" style="stroke: #000000; stroke-width: 0.8"/>
      </g>
     </g>
     <g id="text_6">
      <text style="font-size: 11px; font-family: 'DejaVu Sans', 'Bitstream Vera Sans', 'Computer Modern Sans Serif', 'Lucida Grande', 'Verdana', 'Geneva', 'Lucid', 'Arial', 'Helvetica', 'Avant Garde', sans-serif; text-anchor: end" x="48.44" y="295.031971" transform="rotate(-0 48.44 295.031971)">0.0</text>
     </g>
    </g>
    <g id="ytick_2">
     <g id="line2d_8">
      <path d="M 55.44 237.871698 
L 491.04 237.871698 
" clip-path="url(#p4394a99aaf)" style="fill: none; stroke: #b0b0b0; stroke-opacity: 0.3; stroke-width: 0.8; stroke-linecap: square"/>
     </g>
     <g id="line2d_9">
      <g>
       <use xlink:href="#md9bcb14005" x="55.44" y="237.871698" style="stroke: #000000; stroke-width: 0.8"/>
      </g>
     </g>
     <g id="text_7">
      <text style="font-size: 11px; font-family: 'DejaVu Sans', 'Bitstream Vera Sans', 'Computer Modern Sans Serif', 'Lucida Grande', 'Verdana', 'Geneva', 'Lucid', 'Arial', 'Helvetica', 'Avant Garde', sans-serif; text-anchor: end" x="48.44" y="242.050839" transform="rotate(-0 48.44 242.050839)">0.2</text>
     </g>
    </g>
    <g id="ytick_3">
     <g id="line2d_10">
      <path d="M 55.44 184.890566 
L 491.04 184.890566 
" clip-path="url(#p4394a99aaf)" style="fill: none; stroke: #b0b0b0; stroke-opacity: 0.3; stroke-width: 0.8; stroke-linecap: square"/>
     </g>
     <g id="line2d_11">
      <g>
       <use xlink:href="#md9bcb14005" x="55.44" y="184.890566" style="stroke: #000000; stroke-width: 0.8"/>
      </g>
     </g>
     <g id="text_8">
      <text style="font-size: 11px; font-family: 'DejaVu Sans', 'Bitstream Vera Sans', 'Computer Modern Sans Serif', 'Lucida Grande', 'Verdana', 'Geneva', 'Lucid', 'Arial', 'Helvetica', 'Avant Garde', sans-serif; text-anchor: end" x="48.44" y="189.069707" transform="rotate(-0 48.44 189.069707)">0.4</text>
     </g>
    </g>
    <g id="ytick_4">
     <g id="line2d_12">
      <path d="M 55.44 131.909434 
L 491.04 131.909434 
" clip-path="url(#p4394a99aaf)" style="fill: none; stroke: #b0b0b0; stroke-opacity: 0.3; stroke-width: 0.8; stroke-linecap: square"/>
     </g>
     <g id="line2d_13">
      <g>
       <use xlink:href="#md9bcb14005" x="55.44" y="131.909434" style="stroke: #000000; stroke-width: 0.8"/>
      </g>
     </g>
     <g id="text_9">
      <text style="font-size: 11px; font-family: 'DejaVu Sans', 'Bitstream Vera Sans', 'Computer Modern Sans Serif', 'Lucida Grande', 'Verdana', 'Geneva', 'Lucid', 'Arial', 'Helvetica', 'Avant Garde', sans-serif; text-anchor: end" x="48.44" y="136.088575" transform="rotate(-0 48.44 136.088575)">0.6</text>
     </g>
    </g>
    <g id="ytick_5">
     <g id="line2d_14">
      <path d="M 55.44 78.928302 
L 491.04 78.928302 
" clip-path="url(#p4394a99aaf)" style="fill: none; stroke: #b0b0b0; stroke-opacity: 0.3; stroke-width: 0.8; stroke-linecap: square"/>
     </g>
     <g id="line2d_15">
      <g>
       <use xlink:href="#md9bcb14005" x="55.44" y="78.928302" style="stroke: #000000; stroke-width: 0.8"/>
      </g>
     </g>
     <g id="text_10">
      <text style="font-size: 11px; font-family: 'DejaVu Sans', 'Bitstream Vera Sans', 'Computer Modern Sans Serif', 'Lucida Grande', 'Verdana', 'Geneva', 'Lucid', 'Arial', 'Helvetica', 'Avant Garde', sans-serif; text-anchor: end" x="48.44" y="83.107443" transform="rotate(-0 48.44 83.107443)">0.8</text>
     </g>
    </g>
    <g id="ytick_6">
     <g id="line2d_16">
      <path d="M 55.44 25.94717 
L 491.04 25.94717 
" clip-path="url(#p4394a99aaf)" style="fill: none; stroke: #b0b0b0; stroke-opacity: 0.3; stroke-width: 0.8; stroke-linecap: square"/>
     </g>
     <g id="line2d_17">
      <g>
       <use xlink:href="#md9bcb14005" x="55.44" y="25.94717" style="stroke: #000000; stroke-width: 0.8"/>
      </g>
     </g>
     <g id="text_11">
      <text style="font-size: 11px; font-family: 'DejaVu Sans', 'Bitstream Vera Sans', 'Computer Modern Sans Serif', 'Lucida Grande', 'Verdana', 'Geneva', 'Lucid', 'Arial', 'Helvetica', 'Avant Garde', sans-serif; text-anchor: end" x="48.44" y="30.12631" transform="rotate(-0 48.44 30.12631)">1.0</text>
     </g>
    </g>
    <g id="text_12">
     <text style="font-size: 11px; font-family: 'DejaVu Sans', 'Bitstream Vera Sans', 'Computer Modern Sans Serif', 'Lucida Grande', 'Verdana', 'Geneva', 'Lucid', 'Arial', 'Helvetica', 'Avant Garde', sans-serif; text-anchor: middle" x="24.658906" y="158.4" transform="rotate(-90 24.658906 158.4)">Recall</text>
    </g>
   </g>
   <g id="line2d_18">
    <path d="M 85.481379 126.766396 
L 102.16208 126.766396 
L 102.16208 97.176478 
L 143.232546 97.176478 
L 143.232546 70.098113 
L 145.329425 70.098113 
L 145.329425 50.029503 
L 284.098129 50.029503 
L 284.098129 38.764389 
L 314.155336 38.764389 
L 314.155336 31.22184 
L 383.473453 31.22184 
L 383.473453 30.950063 
L 431.941583 30.950063 
L 431.941583 25.94717 
" clip-path="url(#p4394a99aaf)" style="fill: none; stroke: #52514e; stroke-opacity: 0.45; stroke-width: 2; stroke-linecap: round"/>
   </g>
   <g id="patch_3">
    <path d="M 55.44 298.8 
L 55.44 18 
" style="fill: none; stroke: #000000; stroke-width: 0.8; stroke-linejoin: miter; stroke-linecap: square"/>
   </g>
   <g id="patch_4">
    <path d="M 55.44 298.8 
L 491.04 298.8 
" style="fill: none; stroke: #000000; stroke-width: 0.8; stroke-linejoin: miter; stroke-linecap: square"/>
   </g>
   <g id="PathCollection_1">
    <path d="M 429.539879 130.256028 
C 430.725903 130.256028 431.86351 129.784816 432.702156 128.94617 
C 433.540802 128.107524 434.012014 126.969917 434.012014 125.783892 
C 434.012014 124.597868 433.540802 123.46026 432.702156 122.621615 
C 431.86351 121.782969 430.725903 121.311756 429.539879 121.311756 
C 428.353854 121.311756 427.216247 121.782969 426.377601 122.621615 
C 425.538955 123.46026 425.067743 124.597868 425.067743 125.783892 
C 425.067743 126.969917 425.538955 128.107524 426.377601 128.94617 
C 427.216247 129.784816 428.353854 130.256028 429.539879 130.256028 
L 429.539879 130.256028 
z
" clip-path="url(#p4394a99aaf)" style="fill: none; stroke: #f58518; stroke-width: 1.6"/>
   </g>
   <g id="PathCollection_2">
    <defs>
     <path id="m749358a177" d="M 0 4.472136 
C 1.186024 4.472136 2.323632 4.000923 3.162278 3.162278 
C 4.000923 2.323632 4.472136 1.186024 4.472136 0 
C 4.472136 -1.186024 4.000923 -2.323632 3.162278 -3.162278 
C 2.323632 -4.000923 1.186024 -4.472136 0 -4.472136 
C -1.186024 -4.472136 -2.323632 -4.000923 -3.162278 -3.162278 
C -4.000923 -2.323632 -4.472136 -1.186024 -4.472136 0 
C -4.472136 1.186024 -4.000923 2.323632 -3.162278 3.162278 
C -2.323632 4.000923 -1.186024 4.472136 0 4.472136 
z
" style="stroke: #fcfcfb"/>
    </defs>
    <g clip-path="url(#p4394a99aaf)">
     <use xlink:href="#m749358a177" x="460.998621" y="41.315537" style="fill: #f58518; stroke: #fcfcfb"/>
    </g>
   </g>
   <g id="PathCollection_3">
    <path d="M 429.592157 84.962771 
C 430.778181 84.962771 431.915789 84.491559 432.754435 83.652913 
C 433.59308 82.814267 434.064293 81.676659 434.064293 80.490635 
C 434.064293 79.304611 433.59308 78.167003 432.754435 77.328357 
C 431.915789 76.489712 430.778181 76.018499 429.592157 76.018499 
C 428.406133 76.018499 427.268525 76.489712 426.429879 77.328357 
C 425.591233 78.167003 425.120021 79.304611 425.120021 80.490635 
C 425.120021 81.676659 425.591233 82.814267 426.429879 83.652913 
C 427.268525 84.491559 428.406133 84.962771 429.592157 84.962771 
L 429.592157 84.962771 
z
" clip-path="url(#p4394a99aaf)" style="fill: none; stroke: #f58518; stroke-width: 1.6"/>
   </g>
   <g id="PathCollection_4">
    <g clip-path="url(#p4394a99aaf)">
     <use xlink:href="#m749358a177" x="431.941583" y="25.94717" style="fill: #f58518; stroke: #fcfcfb"/>
    </g>
   </g>
   <g id="PathCollection_5">
    <path d="M 193.338899 160.865223 
C 194.524923 160.865223 195.662531 160.394011 196.501176 159.555365 
C 197.339822 158.716719 197.811035 157.579111 197.811035 156.393087 
C 197.811035 155.207063 197.339822 154.069455 196.501176 153.230809 
C 195.662531 152.392164 194.524923 151.920951 193.338899 151.920951 
C 192.152874 151.920951 191.015267 152.392164 190.176621 153.230809 
C 189.337975 154.069455 188.866763 155.207063 188.866763 156.393087 
C 188.866763 157.579111 189.337975 158.716719 190.176621 159.555365 
C 191.015267 160.394011 192.152874 160.865223 193.338899 160.865223 
L 193.338899 160.865223 
z
" clip-path="url(#p4394a99aaf)" style="fill: none; stroke: #b279a2; stroke-width: 1.6"/>
   </g>
   <g id="PathCollection_6">
    <defs>
     <path id="m52f8ac0346" d="M 0 4.472136 
C 1.186024 4.472136 2.323632 4.000923 3.162278 3.162278 
C 4.000923 2.323632 4.472136 1.186024 4.472136 0 
C 4.472136 -1.186024 4.000923 -2.323632 3.162278 -3.162278 
C 2.323632 -4.000923 1.186024 -4.472136 0 -4.472136 
C -1.186024 -4.472136 -2.323632 -4.000923 -3.162278 -3.162278 
C -4.000923 -2.323632 -4.472136 -1.186024 -4.472136 0 
C -4.472136 1.186024 -4.000923 2.323632 -3.162278 3.162278 
C -2.323632 4.000923 -1.186024 4.472136 0 4.472136 
z
" style="stroke: #fcfcfb"/>
    </defs>
    <g clip-path="url(#p4394a99aaf)">
     <use xlink:href="#m52f8ac0346" x="284.098129" y="38.764389" style="fill: #b279a2; stroke: #fcfcfb"/>
    </g>
   </g>
   <g id="PathCollection_7">
    <path d="M 212.456794 124.066977 
C 213.642818 124.066977 214.780426 123.595764 215.619072 122.757119 
C 216.457717 121.918473 216.92893 120.780865 216.92893 119.594841 
C 216.92893 118.408817 216.457717 117.271209 215.619072 116.432563 
C 214.780426 115.593917 213.642818 115.122705 212.456794 115.122705 
C 211.27077 115.122705 210.133162 115.593917 209.294516 116.432563 
C 208.45587 117.271209 207.984658 118.408817 207.984658 119.594841 
C 207.984658 120.780865 208.45587 121.918473 209.294516 122.757119 
C 210.133162 123.595764 211.27077 124.066977 212.456794 124.066977 
L 212.456794 124.066977 
z
" clip-path="url(#p4394a99aaf)" style="fill: none; stroke: #b279a2; stroke-width: 1.6"/>
   </g>
   <g id="PathCollection_8">
    <g clip-path="url(#p4394a99aaf)">
     <use xlink:href="#m52f8ac0346" x="314.155336" y="31.22184" style="fill: #b279a2; stroke: #fcfcfb"/>
    </g>
   </g>
   <g id="PathCollection_9">
    <path d="M 435.025785 94.402465 
C 436.21181 94.402465 437.349417 93.931252 438.188063 93.092606 
C 439.026709 92.25396 439.497921 91.116353 439.497921 89.930329 
C 439.497921 88.744304 439.026709 87.606697 438.188063 86.768051 
C 437.349417 85.929405 436.21181 85.458193 435.025785 85.458193 
C 433.839761 85.458193 432.702153 85.929405 431.863508 86.768051 
C 431.024862 87.606697 430.553649 88.744304 430.553649 89.930329 
C 430.553649 91.116353 431.024862 92.25396 431.863508 93.092606 
C 432.702153 93.931252 433.839761 94.402465 435.025785 94.402465 
L 435.025785 94.402465 
z
" clip-path="url(#p4394a99aaf)" style="fill: none; stroke: #e45756; stroke-width: 1.6"/>
   </g>
   <g id="PathCollection_10">
    <path d="M 383.473453 35.422199 
C 384.659477 35.422199 385.797084 34.950986 386.63573 34.11234 
C 387.474376 33.273695 387.945589 32.136087 387.945589 30.950063 
C 387.945589 29.764038 387.474376 28.626431 386.63573 27.787785 
C 385.797084 26.949139 384.659477 26.477927 383.473453 26.477927 
C 382.287428 26.477927 381.149821 26.949139 380.311175 27.787785 
C 379.472529 28.626431 379.001317 29.764038 379.001317 30.950063 
C 379.001317 32.136087 379.472529 33.273695 380.311175 34.11234 
C 381.149821 34.950986 382.287428 35.422199 383.473453 35.422199 
L 383.473453 35.422199 
z
" clip-path="url(#p4394a99aaf)" style="fill: none; stroke: #e45756; stroke-width: 1.6"/>
   </g>
   <g id="PathCollection_11">
    <path d="M 207.594179 119.29289 
C 208.780203 119.29289 209.917811 118.821678 210.756457 117.983032 
C 211.595103 117.144386 212.066315 116.006779 212.066315 114.820754 
C 212.066315 113.63473 211.595103 112.497123 210.756457 111.658477 
C 209.917811 110.819831 208.780203 110.348618 207.594179 110.348618 
C 206.408155 110.348618 205.270547 110.819831 204.431901 111.658477 
C 203.593256 112.497123 203.122043 113.63473 203.122043 114.820754 
C 203.122043 116.006779 203.593256 117.144386 204.431901 117.983032 
C 205.270547 118.821678 206.408155 119.29289 207.594179 119.29289 
L 207.594179 119.29289 
z
" clip-path="url(#p4394a99aaf)" style="fill: none; stroke: #54a24b; stroke-width: 1.6"/>
   </g>
   <g id="PathCollection_12">
    <defs>
     <path id="m56755ff457" d="M 0 4.472136 
C 1.186024 4.472136 2.323632 4.000923 3.162278 3.162278 
C 4.000923 2.323632 4.472136 1.186024 4.472136 0 
C 4.472136 -1.186024 4.000923 -2.323632 3.162278 -3.162278 
C 2.323632 -4.000923 1.186024 -4.472136 0 -4.472136 
C -1.186024 -4.472136 -2.323632 -4.000923 -3.162278 -3.162278 
C -4.000923 -2.323632 -4.472136 -1.186024 -4.472136 0 
C -4.472136 1.186024 -4.000923 2.323632 -3.162278 3.162278 
C -2.323632 4.000923 -1.186024 4.472136 0 4.472136 
z
" style="stroke: #fcfcfb"/>
    </defs>
    <g clip-path="url(#p4394a99aaf)">
     <use xlink:href="#m56755ff457" x="299.042126" y="76.503143" style="fill: #54a24b; stroke: #fcfcfb"/>
    </g>
   </g>
   <g id="PathCollection_13">
    <path d="M 123.01938 207.678546 
C 124.205405 207.678546 125.343012 207.207333 126.181658 206.368687 
C 127.020304 205.530042 127.491516 204.392434 127.491516 203.20641 
C 127.491516 202.020386 127.020304 200.882778 126.181658 200.044132 
C 125.343012 199.205486 124.205405 198.734274 123.01938 198.734274 
C 121.833356 198.734274 120.695749 199.205486 119.857103 200.044132 
C 119.018457 200.882778 118.547245 202.020386 118.547245 203.20641 
C 118.547245 204.392434 119.018457 205.530042 119.857103 206.368687 
C 120.695749 207.207333 121.833356 207.678546 123.01938 207.678546 
L 123.01938 207.678546 
z
" clip-path="url(#p4394a99aaf)" style="fill: none; stroke: #54a24b; stroke-width: 1.6"/>
   </g>
   <g id="PathCollection_14">
    <g clip-path="url(#p4394a99aaf)">
     <use xlink:href="#m56755ff457" x="289.811281" y="48.810613" style="fill: #54a24b; stroke: #fcfcfb"/>
    </g>
   </g>
   <g id="PathCollection_15">
    <path d="M 366.93955 68.823909 
C 368.125575 68.823909 369.263182 68.352696 370.101828 67.514051 
C 370.940474 66.675405 371.411686 65.537797 371.411686 64.351773 
C 371.411686 63.165749 370.940474 62.028141 370.101828 61.189495 
C 369.263182 60.350849 368.125575 59.879637 366.93955 59.879637 
C 365.753526 59.879637 364.615918 60.350849 363.777273 61.189495 
C 362.938627 62.028141 362.467414 63.165749 362.467414 64.351773 
C 362.467414 65.537797 362.938627 66.675405 363.777273 67.514051 
C 364.615918 68.352696 365.753526 68.823909 366.93955 68.823909 
L 366.93955 68.823909 
z
" clip-path="url(#p4394a99aaf)" style="fill: none; stroke: #eeca3b; stroke-width: 1.6"/>
   </g>
   <g id="PathCollection_16">
    <defs>
     <path id="ma736c7c29d" d="M 0 4.472136 
C 1.186024 4.472136 2.323632 4.000923 3.162278 3.162278 
C 4.000923 2.323632 4.472136 1.186024 4.472136 0 
C 4.472136 -1.186024 4.000923 -2.323632 3.162278 -3.162278 
C 2.323632 -4.000923 1.186024 -4.472136 0 -4.472136 
C -1.186024 -4.472136 -2.323632 -4.000923 -3.162278 -3.162278 
C -4.000923 -2.323632 -4.472136 -1.186024 -4.472136 0 
C -4.472136 1.186024 -4.000923 2.323632 -3.162278 3.162278 
C -2.323632 4.000923 -1.186024 4.472136 0 4.472136 
z
" style="stroke: #fcfcfb"/>
    </defs>
    <g clip-path="url(#p4394a99aaf)">
     <use xlink:href="#ma736c7c29d" x="397.066813" y="39.32116" style="fill: #eeca3b; stroke: #fcfcfb"/>
    </g>
   </g>
   <g id="PathCollection_17">
    <path d="M 322.21699 181.3197 
C 323.403015 181.3197 324.540622 180.848487 325.379268 180.009842 
C 326.217914 179.171196 326.689126 178.033588 326.689126 176.847564 
C 326.689126 175.66154 326.217914 174.523932 325.379268 173.685286 
C 324.540622 172.84664 323.403015 172.375428 322.21699 172.375428 
C 321.030966 172.375428 319.893358 172.84664 319.054713 173.685286 
C 318.216067 174.523932 317.744854 175.66154 317.744854 176.847564 
C 317.744854 178.033588 318.216067 179.171196 319.054713 180.009842 
C 319.893358 180.848487 321.030966 181.3197 322.21699 181.3197 
L 322.21699 181.3197 
z
" clip-path="url(#p4394a99aaf)" style="fill: none; stroke: #eeca3b; stroke-width: 1.6"/>
   </g>
   <g id="PathCollection_18">
    <g clip-path="url(#p4394a99aaf)">
     <use xlink:href="#ma736c7c29d" x="380.558591" y="68.849545" style="fill: #eeca3b; stroke: #fcfcfb"/>
    </g>
   </g>
   <g id="PathCollection_19">
    <path d="M 102.16208 101.648614 
C 103.348105 101.648614 104.485712 101.177401 105.324358 100.338756 
C 106.163004 99.50011 106.634216 98.362502 106.634216 97.176478 
C 106.634216 95.990454 106.163004 94.852846 105.324358 94.0142 
C 104.485712 93.175554 103.348105 92.704342 102.16208 92.704342 
C 100.976056 92.704342 99.838449 93.175554 98.999803 94.0142 
C 98.161157 94.852846 97.689944 95.990454 97.689944 97.176478 
C 97.689944 98.362502 98.161157 99.50011 98.999803 100.338756 
C 99.838449 101.177401 100.976056 101.648614 102.16208 101.648614 
L 102.16208 101.648614 
z
" clip-path="url(#p4394a99aaf)" style="fill: none; stroke: #4c78a8; stroke-width: 1.6"/>
   </g>
   <g id="PathCollection_20">
    <defs>
     <path id="m68561e0413" d="M 0 4.472136 
C 1.186024 4.472136 2.323632 4.000923 3.162278 3.162278 
C 4.000923 2.323632 4.472136 1.186024 4.472136 0 
C 4.472136 -1.186024 4.000923 -2.323632 3.162278 -3.162278 
C 2.323632 -4.000923 1.186024 -4.472136 0 -4.472136 
C -1.186024 -4.472136 -2.323632 -4.000923 -3.162278 -3.162278 
C -4.000923 -2.323632 -4.472136 -1.186024 -4.472136 0 
C -4.472136 1.186024 -4.000923 2.323632 -3.162278 3.162278 
C -2.323632 4.000923 -1.186024 4.472136 0 4.472136 
z
" style="stroke: #fcfcfb"/>
    </defs>
    <g clip-path="url(#p4394a99aaf)">
     <use xlink:href="#m68561e0413" x="145.329425" y="50.029503" style="fill: #4c78a8; stroke: #fcfcfb"/>
    </g>
   </g>
   <g id="PathCollection_21">
    <path d="M 85.481379 131.238532 
C 86.667404 131.238532 87.805011 130.76732 88.643657 129.928674 
C 89.482303 129.090028 89.953515 127.952421 89.953515 126.766396 
C 89.953515 125.580372 89.482303 124.442765 88.643657 123.604119 
C 87.805011 122.765473 86.667404 122.29426 85.481379 122.29426 
C 84.295355 122.29426 83.157747 122.765473 82.319102 123.604119 
C 81.480456 124.442765 81.009243 125.580372 81.009243 126.766396 
C 81.009243 127.952421 81.480456 129.090028 82.319102 129.928674 
C 83.157747 130.76732 84.295355 131.238532 85.481379 131.238532 
L 85.481379 131.238532 
z
" clip-path="url(#p4394a99aaf)" style="fill: none; stroke: #4c78a8; stroke-width: 1.6"/>
   </g>
   <g id="PathCollection_22">
    <g clip-path="url(#p4394a99aaf)">
     <use xlink:href="#m68561e0413" x="143.232546" y="70.098113" style="fill: #4c78a8; stroke: #fcfcfb"/>
    </g>
   </g>
   <g id="PathCollection_23">
    <defs>
     <path id="m1db5c08df0" d="M 0 4.472136 
C 1.186024 4.472136 2.323632 4.000923 3.162278 3.162278 
C 4.000923 2.323632 4.472136 1.186024 4.472136 0 
C 4.472136 -1.186024 4.000923 -2.323632 3.162278 -3.162278 
C 2.323632 -4.000923 1.186024 -4.472136 0 -4.472136 
C -1.186024 -4.472136 -2.323632 -4.000923 -3.162278 -3.162278 
C -4.000923 -2.323632 -4.472136 -1.186024 -4.472136 0 
C -4.472136 1.186024 -4.000923 2.323632 -3.162278 3.162278 
C -2.323632 4.000923 -1.186024 4.472136 0 4.472136 
z
" style="stroke: #fcfcfb"/>
    </defs>
    <g clip-path="url(#p4394a99aaf)">
     <use xlink:href="#m1db5c08df0" x="181.658604" y="78.928302" style="fill: #72b7b2; stroke: #fcfcfb"/>
    </g>
   </g>
   <g id="PathCollection_24">
    <g clip-path="url(#p4394a99aaf)">
     <use xlink:href="#m1db5c08df0" x="173.55664" y="70.098113" style="fill: #72b7b2; stroke: #fcfcfb"/>
    </g>
   </g>
   <g id="legend_1">
    <g id="text_13">
     <text style="font-size: 11px; font-family: 'DejaVu Sans', 'Bitstream Vera Sans', 'Computer Modern Sans Serif', 'Lucida Grande', 'Verdana', 'Geneva', 'Lucid', 'Arial', 'Helvetica', 'Avant Garde', sans-serif; text-anchor: start; fill: #0b0b0b" x="509.652" y="36.258281" transform="rotate(-0 509.652 36.258281)">Strategy (cell)</text>
    </g>
    <g id="line2d_19">
     <defs>
      <path id="m537938b021" d="M 0 4.5 
C 1.193414 4.5 2.338109 4.025852 3.181981 3.181981 
C 4.025852 2.338109 4.5 1.193414 4.5 0 
C 4.5 -1.193414 4.025852 -2.338109 3.181981 -3.181981 
C 2.338109 -4.025852 1.193414 -4.5 0 -4.5 
C -1.193414 -4.5 -2.338109 -4.025852 -3.181981 -3.181981 
C -4.025852 -2.338109 -4.5 -1.193414 -4.5 0 
C -4.5 1.193414 -4.025852 2.338109 -3.181981 3.181981 
C -2.338109 4.025852 -1.193414 4.5 0 4.5 
z
" style="stroke: #fcfcfb"/>
     </defs>
     <g>
      <use xlink:href="#m537938b021" x="520.652" y="48.554219" style="fill: #f58518; stroke: #fcfcfb"/>
     </g>
    </g>
    <g id="text_14">
     <text style="font-size: 11px; font-family: 'DejaVu Sans', 'Bitstream Vera Sans', 'Computer Modern Sans Serif', 'Lucida Grande', 'Verdana', 'Geneva', 'Lucid', 'Arial', 'Helvetica', 'Avant Garde', sans-serif; text-anchor: start; fill: #0b0b0b" x="540.452" y="52.404219" transform="rotate(-0 540.452 52.404219)">ensemble_vote</text>
    </g>
    <g id="line2d_20">
     <defs>
      <path id="m5bc3d820db" d="M 0 4.5 
C 1.193414 4.5 2.338109 4.025852 3.181981 3.181981 
C 4.025852 2.338109 4.5 1.193414 4.5 0 
C 4.5 -1.193414 4.025852 -2.338109 3.181981 -3.181981 
C 2.338109 -4.025852 1.193414 -4.5 0 -4.5 
C -1.193414 -4.5 -2.338109 -4.025852 -3.181981 -3.181981 
C -4.025852 -2.338109 -4.5 -1.193414 -4.5 0 
C -4.5 1.193414 -4.025852 2.338109 -3.181981 3.181981 
C -2.338109 4.025852 -1.193414 4.5 0 4.5 
z
" style="stroke: #fcfcfb"/>
     </defs>
     <g>
      <use xlink:href="#m5bc3d820db" x="520.652" y="65.006094" style="fill: #b279a2; stroke: #fcfcfb"/>
     </g>
    </g>
    <g id="text_15">
     <text style="font-size: 11px; font-family: 'DejaVu Sans', 'Bitstream Vera Sans', 'Computer Modern Sans Serif', 'Lucida Grande', 'Verdana', 'Geneva', 'Lucid', 'Arial', 'Helvetica', 'Avant Garde', sans-serif; text-anchor: start; fill: #0b0b0b" x="540.452" y="68.856094" transform="rotate(-0 540.452 68.856094)">plan_then_execute</text>
    </g>
    <g id="line2d_21">
     <defs>
      <path id="mff672800d6" d="M 0 4.5 
C 1.193414 4.5 2.338109 4.025852 3.181981 3.181981 
C 4.025852 2.338109 4.5 1.193414 4.5 0 
C 4.5 -1.193414 4.025852 -2.338109 3.181981 -3.181981 
C 2.338109 -4.025852 1.193414 -4.5 0 -4.5 
C -1.193414 -4.5 -2.338109 -4.025852 -3.181981 -3.181981 
C -4.025852 -2.338109 -4.5 -1.193414 -4.5 0 
C -4.5 1.193414 -4.025852 2.338109 -3.181981 3.181981 
C -2.338109 4.025852 -1.193414 4.5 0 4.5 
z
" style="stroke: #fcfcfb"/>
     </defs>
     <g>
      <use xlink:href="#mff672800d6" x="520.652" y="81.457969" style="fill: #e45756; stroke: #fcfcfb"/>
     </g>
    </g>
    <g id="text_16">
     <text style="font-size: 11px; font-family: 'DejaVu Sans', 'Bitstream Vera Sans', 'Computer Modern Sans Serif', 'Lucida Grande', 'Verdana', 'Geneva', 'Lucid', 'Arial', 'Helvetica', 'Avant Garde', sans-serif; text-anchor: start; fill: #0b0b0b" x="540.452" y="85.307969" transform="rotate(-0 540.452 85.307969)">plan_write_critique</text>
    </g>
    <g id="line2d_22">
     <defs>
      <path id="md922658718" d="M 0 4.5 
C 1.193414 4.5 2.338109 4.025852 3.181981 3.181981 
C 4.025852 2.338109 4.5 1.193414 4.5 0 
C 4.5 -1.193414 4.025852 -2.338109 3.181981 -3.181981 
C 2.338109 -4.025852 1.193414 -4.5 0 -4.5 
C -1.193414 -4.5 -2.338109 -4.025852 -3.181981 -3.181981 
C -4.025852 -2.338109 -4.5 -1.193414 -4.5 0 
C -4.5 1.193414 -4.025852 2.338109 -3.181981 3.181981 
C -2.338109 4.025852 -1.193414 4.5 0 4.5 
z
" style="stroke: #fcfcfb"/>
     </defs>
     <g>
      <use xlink:href="#md922658718" x="520.652" y="97.909844" style="fill: #54a24b; stroke: #fcfcfb"/>
     </g>
    </g>
    <g id="text_17">
     <text style="font-size: 11px; font-family: 'DejaVu Sans', 'Bitstream Vera Sans', 'Computer Modern Sans Serif', 'Lucida Grande', 'Verdana', 'Geneva', 'Lucid', 'Arial', 'Helvetica', 'Avant Garde', sans-serif; text-anchor: start; fill: #0b0b0b" x="540.452" y="101.759844" transform="rotate(-0 540.452 101.759844)">structured_per_table</text>
    </g>
    <g id="line2d_23">
     <defs>
      <path id="m36b4748c64" d="M 0 4.5 
C 1.193414 4.5 2.338109 4.025852 3.181981 3.181981 
C 4.025852 2.338109 4.5 1.193414 4.5 0 
C 4.5 -1.193414 4.025852 -2.338109 3.181981 -3.181981 
C 2.338109 -4.025852 1.193414 -4.5 0 -4.5 
C -1.193414 -4.5 -2.338109 -4.025852 -3.181981 -3.181981 
C -4.025852 -2.338109 -4.5 -1.193414 -4.5 0 
C -4.5 1.193414 -4.025852 2.338109 -3.181981 3.181981 
C -2.338109 4.025852 -1.193414 4.5 0 4.5 
z
" style="stroke: #fcfcfb"/>
     </defs>
     <g>
      <use xlink:href="#m36b4748c64" x="520.652" y="114.361719" style="fill: #eeca3b; stroke: #fcfcfb"/>
     </g>
    </g>
    <g id="text_18">
     <text style="font-size: 11px; font-family: 'DejaVu Sans', 'Bitstream Vera Sans', 'Computer Modern Sans Serif', 'Lucida Grande', 'Verdana', 'Geneva', 'Lucid', 'Arial', 'Helvetica', 'Avant Garde', sans-serif; text-anchor: start; fill: #0b0b0b" x="540.452" y="118.211719" transform="rotate(-0 540.452 118.211719)">write_then_critique</text>
    </g>
    <g id="line2d_24">
     <defs>
      <path id="m0db2bcea68" d="M 0 4.5 
C 1.193414 4.5 2.338109 4.025852 3.181981 3.181981 
C 4.025852 2.338109 4.5 1.193414 4.5 0 
C 4.5 -1.193414 4.025852 -2.338109 3.181981 -3.181981 
C 2.338109 -4.025852 1.193414 -4.5 0 -4.5 
C -1.193414 -4.5 -2.338109 -4.025852 -3.181981 -3.181981 
C -4.025852 -2.338109 -4.5 -1.193414 -4.5 0 
C -4.5 1.193414 -4.025852 2.338109 -3.181981 3.181981 
C -2.338109 4.025852 -1.193414 4.5 0 4.5 
z
" style="stroke: #fcfcfb"/>
     </defs>
     <g>
      <use xlink:href="#m0db2bcea68" x="520.652" y="130.813594" style="fill: #4c78a8; stroke: #fcfcfb"/>
     </g>
    </g>
    <g id="text_19">
     <text style="font-size: 11px; font-family: 'DejaVu Sans', 'Bitstream Vera Sans', 'Computer Modern Sans Serif', 'Lucida Grande', 'Verdana', 'Geneva', 'Lucid', 'Arial', 'Helvetica', 'Avant Garde', sans-serif; text-anchor: start; fill: #0b0b0b" x="540.452" y="134.663594" transform="rotate(-0 540.452 134.663594)">write_tools_freeform</text>
    </g>
    <g id="line2d_25">
     <defs>
      <path id="mbfa9db45b9" d="M 0 4.5 
C 1.193414 4.5 2.338109 4.025852 3.181981 3.181981 
C 4.025852 2.338109 4.5 1.193414 4.5 0 
C 4.5 -1.193414 4.025852 -2.338109 3.181981 -3.181981 
C 2.338109 -4.025852 1.193414 -4.5 0 -4.5 
C -1.193414 -4.5 -2.338109 -4.025852 -3.181981 -3.181981 
C -4.025852 -2.338109 -4.5 -1.193414 -4.5 0 
C -4.5 1.193414 -4.025852 2.338109 -3.181981 3.181981 
C -2.338109 4.025852 -1.193414 4.5 0 4.5 
z
" style="stroke: #fcfcfb"/>
     </defs>
     <g>
      <use xlink:href="#mbfa9db45b9" x="520.652" y="147.265469" style="fill: #72b7b2; stroke: #fcfcfb"/>
     </g>
    </g>
    <g id="text_20">
     <text style="font-size: 11px; font-family: 'DejaVu Sans', 'Bitstream Vera Sans', 'Computer Modern Sans Serif', 'Lucida Grande', 'Verdana', 'Geneva', 'Lucid', 'Arial', 'Helvetica', 'Avant Garde', sans-serif; text-anchor: start; fill: #0b0b0b" x="540.452" y="151.115469" transform="rotate(-0 540.452 151.115469)">write_tools_freeform_inlinedbt</text>
    </g>
   </g>
   <g id="legend_2">
    <g id="text_21">
     <text style="font-size: 11px; font-family: 'DejaVu Sans', 'Bitstream Vera Sans', 'Computer Modern Sans Serif', 'Lucida Grande', 'Verdana', 'Geneva', 'Lucid', 'Arial', 'Helvetica', 'Avant Garde', sans-serif; text-anchor: start; fill: #0b0b0b" x="509.652" y="238.174531" transform="rotate(-0 509.652 238.174531)">Encoding</text>
    </g>
    <g id="line2d_26">
     <defs>
      <path id="m265d9d0aa9" d="M 0 4.5 
C 1.193414 4.5 2.338109 4.025852 3.181981 3.181981 
C 4.025852 2.338109 4.5 1.193414 4.5 0 
C 4.5 -1.193414 4.025852 -2.338109 3.181981 -3.181981 
C 2.338109 -4.025852 1.193414 -4.5 0 -4.5 
C -1.193414 -4.5 -2.338109 -4.025852 -3.181981 -3.181981 
C -4.025852 -2.338109 -4.5 -1.193414 -4.5 0 
C -4.5 1.193414 -4.025852 2.338109 -3.181981 3.181981 
C -2.338109 4.025852 -1.193414 4.5 0 4.5 
z
" style="stroke: #fcfcfb"/>
     </defs>
     <g>
      <use xlink:href="#m265d9d0aa9" x="520.652" y="250.470469" style="fill: #898781; stroke: #fcfcfb"/>
     </g>
    </g>
    <g id="text_22">
     <text style="font-size: 11px; font-family: 'DejaVu Sans', 'Bitstream Vera Sans', 'Computer Modern Sans Serif', 'Lucida Grande', 'Verdana', 'Geneva', 'Lucid', 'Arial', 'Helvetica', 'Avant Garde', sans-serif; text-anchor: start; fill: #0b0b0b" x="540.452" y="254.320469" transform="rotate(-0 540.452 254.320469)">self-correction on</text>
    </g>
    <g id="line2d_27">
     <defs>
      <path id="mfdecbd6b34" d="M 0 4.5 
C 1.193414 4.5 2.338109 4.025852 3.181981 3.181981 
C 4.025852 2.338109 4.5 1.193414 4.5 0 
C 4.5 -1.193414 4.025852 -2.338109 3.181981 -3.181981 
C 2.338109 -4.025852 1.193414 -4.5 0 -4.5 
C -1.193414 -4.5 -2.338109 -4.025852 -3.181981 -3.181981 
C -4.025852 -2.338109 -4.5 -1.193414 -4.5 0 
C -4.5 1.193414 -4.025852 2.338109 -3.181981 3.181981 
C -2.338109 4.025852 -1.193414 4.5 0 4.5 
z
" style="stroke: #898781"/>
     </defs>
     <g>
      <use xlink:href="#mfdecbd6b34" x="520.652" y="266.616406" style="fill-opacity: 0; stroke: #898781"/>
     </g>
    </g>
    <g id="text_23">
     <text style="font-size: 11px; font-family: 'DejaVu Sans', 'Bitstream Vera Sans', 'Computer Modern Sans Serif', 'Lucida Grande', 'Verdana', 'Geneva', 'Lucid', 'Arial', 'Helvetica', 'Avant Garde', sans-serif; text-anchor: start; fill: #0b0b0b" x="540.452" y="270.466406" transform="rotate(-0 540.452 270.466406)">self-correction off</text>
    </g>
    <g id="line2d_28">
     <path d="M 509.652 282.762344 
L 520.652 282.762344 
L 531.652 282.762344 
" style="fill: none; stroke: #52514e; stroke-opacity: 0.6; stroke-width: 2; stroke-linecap: square"/>
    </g>
    <g id="text_24">
     <text style="font-size: 11px; font-family: 'DejaVu Sans', 'Bitstream Vera Sans', 'Computer Modern Sans Serif', 'Lucida Grande', 'Verdana', 'Geneva', 'Lucid', 'Arial', 'Helvetica', 'Avant Garde', sans-serif; text-anchor: start; fill: #0b0b0b" x="540.452" y="286.612344" transform="rotate(-0 540.452 286.612344)">Pareto frontier</text>
    </g>
   </g>
  </g>
 </g>
 <defs>
  <clipPath id="p4394a99aaf">
   <rect x="55.44" y="18" width="435.6" height="280.8"/>
  </clipPath>
 </defs>
</svg>
