<?xml version="1.0" encoding="utf-8" standalone="no"?>
<!DOCTYPE svg PUBLIC "-//W3C//DTD SVG 1.1//EN"
  "http://www.w3.org/Graphics/SVG/1.1/DTD/svg11.dtd">
<svg xmlns:xlink="http://www.w3.org/1999/xlink" width="360pt" height="302.4pt" viewBox="0 0 360 302.4" xmlns="http://www.w3.org/2000/svg" version="1.1">
 <metadata>
  <rdf:RDF xmlns:dc="http://purl.org/dc/elements/1.1/" xmlns:cc="http://creativecommons.org/ns#" xmlns:rdf="http://www.w3.org/1999/02/22-rdf-syntax-ns#">
   <cc:Work>
    <dc:type rdf:resource="http://purl.org/dc/dcmitype/StillImage"/>
    <dc:format>image/svg+xml</dc:format>
    <dc:creator>
     <cc:Agent>
      <dc:title>Matplotlib v3.10.9, https://matplotlib.org/</dc:title>
     </cc:Agent>
    </dc:creator>
   </cc:Work>
  </rdf:RDF>
 </metadata>
 <defs>
  <style type="text/css">*{stroke-linejoin: round; stroke-linecap: butt}</style>
 </defs>
 <g id="figure_1">
  <g id="patch_1">
   <path d="M 0 302.4 
L 360 302.4 
L 360 0 
L 0 0 
L 0 302.4 
z
" style="fill: none"/>
  </g>
  <g id="axes_1">
   <g id="patch_2">
    <path d="M 43.2 263.088 
L 349.2 263.088 
L 349.2 30.24 
L 43.2 30.24 
L 43.2 263.088 
z
" style="fill: none"/>
   </g>
   <g id="matplotlib.axis_1">
    <g id="xtick_1">
     <g id="line2d_1">
      <defs>
       <path id="ma180b9304b" d="M 0 0 
L 0 3.5 
" style="stroke: #000000; stroke-width: 0.8"/>
      </defs>
      <g>
       <use xlink:href="#ma180b9304b" x="126.654545" y="263.088" style="stroke: #000000; stroke-width: 0.8"/>
      </g>
     </g>
     <g id="text_1">
      <text style="font-size: 11px; font-family: 'DejaVu Sans', 'Bitstream Vera Sans', 'Computer Modern Sans Serif', 'Lucida Grande', 'Verdana', 'Geneva', 'Lucid', 'Arial', 'Helvetica', 'Avant Garde', sans-serif; fill: #0b0b0b" transform="translate(111.779624 278.446281)">sc off</text>
      <text style="font-size: 11px; font-family: 'DejaVu Sans', 'Bitstream Vera Sans', 'Computer Modern Sans Serif', 'Lucida Grande', 'Verdana', 'Geneva', 'Lucid', 'Arial', 'Helvetica', 'Avant Garde', sans-serif; fill: #0b0b0b" transform="translate(103.770249 290.763875)">(n=120)</text>
     </g>
    </g>
    <g id="xtick_2">
     <g id="line2d_2">
      <g>
       <use xlink:href="#ma180b9304b" x="265.745455" y="263.088" style="stroke: #000000; stroke-width: 0.8"/>
      </g>
     </g>
     <g id="text_2">
      <text style="font-size: 11px; font-family: 'DejaVu Sans', 'Bitstream Vera Sans', 'Computer Modern Sans Serif', 'Lucida Grande', 'Verdana', 'Geneva', 'Lucid', 'Arial', 'Helvetica', 'Avant Garde', sans-serif; fill: #0b0b0b" transform="translate(251.257251 278.446281)">sc on</text>
      <text style="font-size: 11px; font-family: 'DejaVu Sans', 'Bitstream Vera Sans', 'Computer Modern Sans Serif', 'Lucida Grande', 'Verdana', 'Geneva', 'Lucid', 'Arial', 'Helvetica', 'Avant Garde', sans-serif; fill: #0b0b0b" transform="translate(242.861158 290.763875)">(n=120)</text>
     </g>
    </g>
   </g>
   <g id="matplotlib.axis_2">
    <g id="ytick_1">
     <g id="line2d_3">
      <defs>
       <path id="m6b4971de90" d="M 0 0 
L -3.5 0 
" style="stroke: #000000; stroke-width: 0.8"/>
      </defs>
      <g>
       <use xlink:href="#m6b4971de90" x="43.2" y="252.784991" style="stroke: #000000; stroke-width: 0.8"/>
      </g>
     </g>
     <g id="text_3">
      <text style="font-size: 11px; font-family: 'DejaVu Sans', 'Bitstream Vera Sans', 'Computer Modern Sans Serif', 'Lucida Grande', 'Verdana', 'Geneva', 'Lucid', 'Arial', 'Helvetica', 'Avant Garde', sans-serif; text-anchor: end" x="36.2" y="256.964132" transform="rotate(-0 36.2 256.964132)">0.0</text>
     </g>
    </g>
    <g id="ytick_2">
     <g id="line2d_4">
      <g>
       <use xlink:href="#m6b4971de90" x="43.2" y="211.572956" style="stroke: #000000; stroke-width: 0.8"/>
      </g>
     </g>
     <g id="text_4">
      <text style="font-size: 11px; font-family: 'DejaVu Sans', 'Bitstream Vera Sans', 'Computer Modern Sans Serif', 'Lucida Grande', 'Verdana', 'Geneva', 'Lucid', 'Arial', 'Helvetica', 'Avant Garde', sans-serif; text-anchor: end" x="36.2" y="215.752096" transform="rotate(-0 36.2 215.752096)">0.2</text>
     </g>
    </g>
    <g id="ytick_3">
     <g id="line2d_5">
      <g>
       <use xlink:href="#m6b4971de90" x="43.2" y="170.36092" style="stroke: #000000; stroke-width: 0.8"/>
      </g>
     </g>
     <g id="text_5">
      <text style="font-size: 11px; font-family: 'DejaVu Sans', 'Bitstream Vera Sans', 'Computer Modern Sans Serif', 'Lucida Grande', 'Verdana', 'Geneva', 'Lucid', 'Arial', 'Helvetica', 'Avant Garde', sans-serif; text-anchor: end" x="36.2" y="174.540061" transform="rotate(-0 36.2 174.540061)">0.4</text>
     </g>
    </g>
    <g id="ytick_4">
     <g id="line2d_6">
      <g>
       <use xlink:href="#m6b4971de90" x="43.2" y="129.148885" style="stroke: #000000; stroke-width: 0.8"/>
      </g>
     </g>
     <g id="text_6">
      <text style="font-size: 11px; font-family: 'DejaVu Sans', 'Bitstream Vera Sans', 'Computer Modern Sans Serif', 'Lucida Grande', 'Verdana', 'Geneva', 'Lucid', 'Arial', 'Helvetica', 'Avant Garde', sans-serif; text-anchor: end" x="36.2" y="133.328026" transform="rotate(-0 36.2 133.328026)">0.6</text>
     </g>
    </g>
    <g id="ytick_5">
     <g id="line2d_7">
      <g>
       <use xlink:href="#m6b4971de90" x="43.2" y="87.93685" style="stroke: #000000; stroke-width: 0.8"/>
      </g>
     </g>
     <g id="text_7">
      <text style="font-size: 11px; font-family: 'DejaVu Sans', 'Bitstream Vera Sans', 'Computer Modern Sans Serif', 'Lucida Grande', 'Verdana', 'Geneva', 'Lucid', 'Arial', 'Helvetica', 'Avant Garde', sans-serif; text-anchor: end" x="36.2" y="92.11599" transform="rotate(-0 36.2 92.11599)">0.8</text>
     </g>
    </g>
    <g id="ytick_6">
     <g id="line2d_8">
      <g>
       <use xlink:href="#m6b4971de90" x="43.2" y="46.724814" style="stroke: #000000; stroke-width: 0.8"/>
      </g>
     </g>
     <g id="text_8">
      <text style="font-size: 11px; font-family: 'DejaVu Sans', 'Bitstream Vera Sans', 'Computer Modern Sans Serif', 'Lucida Grande', 'Verdana', 'Geneva', 'Lucid', 'Arial', 'Helvetica', 'Avant Garde', sans-serif; text-anchor: end" x="36.2" y="50.903955" transform="rotate(-0 36.2 50.903955)">1.0</text>
     </g>
    </g>
    <g id="text_9">
     <text style="font-size: 11px; font-family: 'DejaVu Sans', 'Bitstream Vera Sans', 'Computer Modern Sans Serif', 'Lucida Grande', 'Verdana', 'Geneva', 'Lucid', 'Arial', 'Helvetica', 'Avant Garde', sans-serif; text-anchor: middle; fill: #0b0b0b" x="12.418906" y="146.664" transform="rotate(-90 12.418906 146.664)">Recall</text>
    </g>
   </g>
   <g id="FillBetweenPolyCollection_1">
    <path d="M 157.9109 252.784991 
L 95.398191 252.784991 
L 95.261975 250.703575 
L 95.243895 248.622159 
L 95.342128 246.540743 
L 95.553347 244.459327 
L 95.872808 242.377912 
L 96.294456 240.296496 
L 96.811061 238.21508 
L 97.414376 236.133664 
L 98.09531 234.052248 
L 98.844113 231.970832 
L 99.650564 229.889416 
L 100.504161 227.808 
L 101.394306 225.726584 
L 102.310483 223.645168 
L 103.242413 221.563752 
L 104.180202 219.482336 
L 105.114461 217.40092 
L 106.036407 215.319504 
L 106.937939 213.238088 
L 107.811694 211.156673 
L 108.651071 209.075257 
L 109.450245 206.993841 
L 110.204151 204.912425 
L 110.908458 202.831009 
L 111.559521 200.749593 
L 112.154325 198.668177 
L 112.690424 196.586761 
L 113.16587 194.505345 
L 113.57914 192.423929 
L 113.929066 190.342513 
L 114.214767 188.261097 
L 114.435587 186.179681 
L 114.591042 184.098265 
L 114.68077 182.01685 
L 114.704503 179.935434 
L 114.662033 177.854018 
L 114.553202 175.772602 
L 114.377896 173.691186 
L 114.136052 171.60977 
L 113.827667 169.528354 
L 113.452824 167.446938 
L 113.011719 165.365522 
L 112.504689 163.284106 
L 111.932251 161.20269 
L 111.295141 159.121274 
L 110.594343 157.039858 
L 109.83113 154.958442 
L 109.007093 152.877027 
L 108.124165 150.795611 
L 107.184646 148.714195 
L 106.191208 146.632779 
L 105.146907 144.551363 
L 104.055171 142.469947 
L 102.919788 140.388531 
L 101.744885 138.307115 
L 100.534886 136.225699 
L 99.294479 134.144283 
L 98.028555 132.062867 
L 96.742158 129.981451 
L 95.440414 127.900035 
L 94.128469 125.818619 
L 92.811415 123.737204 
L 91.494224 121.655788 
L 90.18168 119.574372 
L 88.878319 117.492956 
L 87.588379 115.41154 
L 86.315753 113.330124 
L 85.063966 111.248708 
L 83.836156 109.167292 
L 82.635079 107.085876 
L 81.463129 105.00446 
L 80.32237 102.923044 
L 79.214594 100.841628 
L 78.141389 98.760212 
L 77.104222 96.678796 
L 76.104531 94.597381 
L 75.14383 92.515965 
L 74.223813 90.434549 
L 73.346456 88.353133 
L 72.514117 86.271717 
L 71.729621 84.190301 
L 70.996332 82.108885 
L 70.318203 80.027469 
L 69.699802 77.946053 
L 69.146308 75.864637 
L 68.663481 73.783221 
L 68.257596 71.701805 
L 67.93535 69.620389 
L 67.703734 67.538973 
L 67.569885 65.457558 
L 67.540909 63.376142 
L 67.623685 61.294726 
L 67.824663 59.21331 
L 68.149651 57.131894 
L 68.603609 55.050478 
L 69.190446 52.969062 
L 69.912842 50.887646 
L 70.772084 48.80623 
L 71.767945 46.724814 
L 181.541146 46.724814 
L 181.541146 46.724814 
L 182.537007 48.80623 
L 183.396249 50.887646 
L 184.118644 52.969062 
L 184.705482 55.050478 
L 185.15944 57.131894 
L 185.484428 59.21331 
L 185.685406 61.294726 
L 185.768182 63.376142 
L 185.739205 65.457558 
L 185.605357 67.538973 
L 185.373741 69.620389 
L 185.051495 71.701805 
L 184.64561 73.783221 
L 184.162783 75.864637 
L 183.609289 77.946053 
L 182.990888 80.027469 
L 182.312759 82.108885 
L 181.57947 84.190301 
L 180.794974 86.271717 
L 179.962635 88.353133 
L 179.085278 90.434549 
L 178.165261 92.515965 
L 177.20456 94.597381 
L 176.204869 96.678796 
L 175.167702 98.760212 
L 174.094497 100.841628 
L 172.986721 102.923044 
L 171.845962 105.00446 
L 170.674012 107.085876 
L 169.472935 109.167292 
L 168.245125 111.248708 
L 166.993338 113.330124 
L 165.720712 115.41154 
L 164.430772 117.492956 
L 163.127411 119.574372 
L 161.814867 121.655788 
L 160.497676 123.737204 
L 159.180622 125.818619 
L 157.868677 127.900035 
L 156.566933 129.981451 
L 155.280536 132.062867 
L 154.014612 134.144283 
L 152.774205 136.225699 
L 151.564206 138.307115 
L 150.389302 140.388531 
L 149.25392 142.469947 
L 148.162184 144.551363 
L 147.117882 146.632779 
L 146.124445 148.714195 
L 145.184926 150.795611 
L 144.301998 152.877027 
L 143.477961 154.958442 
L 142.714748 157.039858 
L 142.01395 159.121274 
L 141.376839 161.20269 
L 140.804402 163.284106 
L 140.297372 165.365522 
L 139.856267 167.446938 
L 139.481424 169.528354 
L 139.173039 171.60977 
L 138.931195 173.691186 
L 138.755889 175.772602 
L 138.647058 177.854018 
L 138.604588 179.935434 
L 138.62832 182.01685 
L 138.718049 184.098265 
L 138.873504 186.179681 
L 139.094324 188.261097 
L 139.380025 190.342513 
L 139.729951 192.423929 
L 140.143221 194.505345 
L 140.618667 196.586761 
L 141.154766 198.668177 
L 141.74957 200.749593 
L 142.400632 202.831009 
L 143.104939 204.912425 
L 143.858846 206.993841 
L 144.65802 209.075257 
L 145.497397 211.156673 
L 146.371152 213.238088 
L 147.272684 215.319504 
L 148.19463 217.40092 
L 149.128889 219.482336 
L 150.066678 221.563752 
L 150.998608 223.645168 
L 151.914785 225.726584 
L 152.80493 227.808 
L 153.658527 229.889416 
L 154.464977 231.970832 
L 155.21378 234.052248 
L 155.894715 236.133664 
L 156.49803 238.21508 
L 157.014635 240.296496 
L 157.436282 242.377912 
L 157.755744 244.459327 
L 157.966963 246.540743 
L 158.065195 248.622159 
L 158.047116 250.703575 
L 157.9109 252.784991 
z
" clip-path="url(#pfdb9e54566)" style="fill: url(#hd8ca796d47); stroke: #0b0b0b; stroke-width: 1.1"/>
   </g>
   <g id="FillBetweenPolyCollection_2">
    <path d="M 269.524181 252.784991 
L 261.966728 252.784991 
L 261.990752 250.703575 
L 262.061924 248.622159 
L 262.177559 246.540743 
L 262.333368 244.459327 
L 262.523723 242.377912 
L 262.741988 240.296496 
L 262.980906 238.21508 
L 263.232985 236.133664 
L 263.490882 234.052248 
L 263.747734 231.970832 
L 263.997438 229.889416 
L 264.234839 227.808 
L 264.455855 225.726584 
L 264.657505 223.645168 
L 264.837875 221.563752 
L 264.996027 219.482336 
L 265.131856 217.40092 
L 265.245936 215.319504 
L 265.339343 213.238088 
L 265.413496 211.156673 
L 265.470009 209.075257 
L 265.510568 206.993841 
L 265.536842 204.912425 
L 265.550425 202.831009 
L 265.552801 200.749593 
L 265.54534 198.668177 
L 265.529315 196.586761 
L 265.505924 194.505345 
L 265.476324 192.423929 
L 265.441664 190.342513 
L 265.403103 188.261097 
L 265.361827 186.179681 
L 265.319045 184.098265 
L 265.275967 182.01685 
L 265.233765 179.935434 
L 265.193529 177.854018 
L 265.156198 175.772602 
L 265.122499 173.691186 
L 265.092874 171.60977 
L 265.067425 169.528354 
L 265.045861 167.446938 
L 265.027469 165.365522 
L 265.011094 163.284106 
L 264.995148 161.20269 
L 264.977633 159.121274 
L 264.956179 157.039858 
L 264.928094 154.958442 
L 264.890414 152.877027 
L 264.839959 150.795611 
L 264.773377 148.714195 
L 264.687185 146.632779 
L 264.577795 144.551363 
L 264.441544 142.469947 
L 264.274717 140.388531 
L 264.073589 138.307115 
L 263.834489 136.225699 
L 263.553892 134.144283 
L 263.228567 132.062867 
L 262.855767 129.981451 
L 262.433469 127.900035 
L 261.960655 125.818619 
L 261.437603 123.737204 
L 260.866174 121.655788 
L 260.250038 119.574372 
L 259.594804 117.492956 
L 258.908007 115.41154 
L 258.198896 113.330124 
L 257.478015 111.248708 
L 256.756528 109.167292 
L 256.045324 107.085876 
L 255.353913 105.00446 
L 254.689177 102.923044 
L 254.054069 100.841628 
L 253.446359 98.760212 
L 252.857557 96.678796 
L 252.272151 94.597381 
L 251.667281 92.515965 
L 251.012967 90.434549 
L 250.272979 88.353133 
L 249.406379 86.271717 
L 248.36975 84.190301 
L 247.120021 82.108885 
L 245.617777 80.027469 
L 243.830852 77.946053 
L 241.737977 75.864637 
L 239.332179 73.783221 
L 236.623651 71.701805 
L 233.641774 69.620389 
L 230.436039 67.538973 
L 227.075658 65.457558 
L 223.647749 63.376142 
L 220.254105 61.294726 
L 217.006643 59.21331 
L 214.021809 57.131894 
L 211.414273 55.050478 
L 209.290373 52.969062 
L 207.741799 50.887646 
L 206.840006 48.80623 
L 206.631818 46.724814 
L 324.859091 46.724814 
L 324.859091 46.724814 
L 324.650903 48.80623 
L 323.74911 50.887646 
L 322.200536 52.969062 
L 320.076636 55.050478 
L 317.4691 57.131894 
L 314.484266 59.21331 
L 311.236804 61.294726 
L 307.84316 63.376142 
L 304.415252 65.457558 
L 301.05487 67.538973 
L 297.849135 69.620389 
L 294.867258 71.701805 
L 292.15873 73.783221 
L 289.752932 75.864637 
L 287.660057 77.946053 
L 285.873132 80.027469 
L 284.370888 82.108885 
L 283.121159 84.190301 
L 282.08453 86.271717 
L 281.21793 88.353133 
L 280.477942 90.434549 
L 279.823628 92.515965 
L 279.218758 94.597381 
L 278.633353 96.678796 
L 278.04455 98.760212 
L 277.43684 100.841628 
L 276.801732 102.923044 
L 276.136996 105.00446 
L 275.445585 107.085876 
L 274.734381 109.167292 
L 274.012894 111.248708 
L 273.292013 113.330124 
L 272.582902 115.41154 
L 271.896105 117.492956 
L 271.240871 119.574372 
L 270.624735 121.655788 
L 270.053306 123.737204 
L 269.530254 125.818619 
L 269.05744 127.900035 
L 268.635142 129.981451 
L 268.262342 132.062867 
L 267.937017 134.144283 
L 267.65642 136.225699 
L 267.41732 138.307115 
L 267.216192 140.388531 
L 267.049365 142.469947 
L 266.913114 144.551363 
L 266.803724 146.632779 
L 266.717532 148.714195 
L 266.65095 150.795611 
L 266.600495 152.877027 
L 266.562815 154.958442 
L 266.53473 157.039858 
L 266.513276 159.121274 
L 266.495762 161.20269 
L 266.479815 163.284106 
L 266.46344 165.365522 
L 266.445048 167.446938 
L 266.423484 169.528354 
L 266.398035 171.60977 
L 266.36841 173.691186 
L 266.334711 175.772602 
L 266.29738 177.854018 
L 266.257144 179.935434 
L 266.214942 182.01685 
L 266.171864 184.098265 
L 266.129082 186.179681 
L 266.087807 188.261097 
L 266.049245 190.342513 
L 266.014585 192.423929 
L 265.984985 194.505345 
L 265.961594 196.586761 
L 265.945569 198.668177 
L 265.938109 200.749593 
L 265.940484 202.831009 
L 265.954067 204.912425 
L 265.980341 206.993841 
L 266.0209 209.075257 
L 266.077413 211.156673 
L 266.151566 213.238088 
L 266.244974 215.319504 
L 266.359053 217.40092 
L 266.494882 219.482336 
L 266.653034 221.563752 
L 266.833404 223.645168 
L 267.035054 225.726584 
L 267.25607 227.808 
L 267.493471 229.889416 
L 267.743175 231.970832 
L 268.000027 234.052248 
L 268.257924 236.133664 
L 268.510003 238.21508 
L 268.748921 240.296496 
L 268.967186 242.377912 
L 269.157541 244.459327 
L 269.31335 246.540743 
L 269.428985 248.622159 
L 269.500157 250.703575 
L 269.524181 252.784991 
z
" clip-path="url(#pfdb9e54566)" style="fill: url(#h37d9916b51); stroke: #0b0b0b; stroke-width: 1.1"/>
   </g>
   <g id="patch_3">
    <path d="M 43.2 263.088 
L 43.2 30.24 
" style="fill: none; stroke: #000000; stroke-width: 0.8; stroke-linejoin: miter; stroke-linecap: square"/>
   </g>
   <g id="patch_4">
    <path d="M 43.2 263.088 
L 349.2 263.088 
" style="fill: none; stroke: #000000; stroke-width: 0.8; stroke-linejoin: miter; stroke-linecap: square"/>
   </g>
   <g id="patch_5">
    <path d="M 121.090909 207.940226 
L 132.218182 207.940226 
L 132.218182 46.724814 
L 121.090909 46.724814 
L 121.090909 207.940226 
z
" clip-path="url(#pfdb9e54566)" style="fill: #fcfcfb; stroke: #0b0b0b; stroke-linejoin: miter"/>
   </g>
   <g id="line2d_9">
    <path d="M 126.654545 207.940226 
L 126.654545 252.784991 
" clip-path="url(#pfdb9e54566)" style="fill: none; stroke: #0b0b0b; stroke-linecap: square"/>
   </g>
   <g id="line2d_10">
    <path d="M 126.654545 46.724814 
L 126.654545 46.724814 
" clip-path="url(#pfdb9e54566)" style="fill: none; stroke: #0b0b0b; stroke-linecap: square"/>
   </g>
   <g id="line2d_11">
    <path d="M 123.872727 252.784991 
L 129.436364 252.784991 
" clip-path="url(#pfdb9e54566)" style="fill: none; stroke: #0b0b0b; stroke-linecap: square"/>
   </g>
   <g id="line2d_12">
    <path d="M 123.872727 46.724814 
L 129.436364 46.724814 
" clip-path="url(#pfdb9e54566)" style="fill: none; stroke: #0b0b0b; stroke-linecap: square"/>
   </g>
   <g id="line2d_13"/>
   <g id="patch_6">
    <path d="M 260.181818 46.724814 
L 271.309091 46.724814 
L 271.309091 46.724814 
L 260.181818 46.724814 
L 260.181818 46.724814 
z
" clip-path="url(#pfdb9e54566)" style="fill: #fcfcfb; stroke: #0b0b0b; stroke-linejoin: miter"/>
   </g>
   <g id="line2d_14">
    <path d="M 265.745455 46.724814 
L 265.745455 46.724814 
" clip-path="url(#pfdb9e54566)" style="fill: none; stroke: #0b0b0b; stroke-linecap: square"/>
   </g>
   <g id="line2d_15">
    <path d="M 265.745455 46.724814 
L 265.745455 46.724814 
" clip-path="url(#pfdb9e54566)" style="fill: none; stroke: #0b0b0b; stroke-linecap: square"/>
   </g>
   <g id="line2d_16">
    <path d="M 262.963636 46.724814 
L 268.527273 46.724814 
" clip-path="url(#pfdb9e54566)" style="fill: none; stroke: #0b0b0b; stroke-linecap: square"/>
   </g>
   <g id="line2d_17">
    <path d="M 262.963636 46.724814 
L 268.527273 46.724814 
" clip-path="url(#pfdb9e54566)" style="fill: none; stroke: #0b0b0b; stroke-linecap: square"/>
   </g>
   <g id="line2d_18">
    <defs>
     <path id="m8fad29a888" d="M 0 1.5 
C 0.397805 1.5 0.77937 1.341951 1.06066 1.06066 
C 1.341951 0.77937 1.5 0.397805 1.5 0 
C 1.5 -0.397805 1.341951 -0.77937 1.06066 -1.06066 
C 0.77937 -1.341951 0.397805 -1.5 0 -1.5 
C -0.397805 -1.5 -0.77937 -1.341951 -1.06066 -1.06066 
C -1.341951 -0.77937 -1.5 -0.397805 -1.5 0 
C -1.5 0.397805 -1.341951 0.77937 -1.06066 1.06066 
C -0.77937 1.341951 -0.397805 1.5 0 1.5 
z
" style="stroke: #0b0b0b"/>
    </defs>
    <g clip-path="url(#pfdb9e54566)">
     <use xlink:href="#m8fad29a888" x="265.745455" y="95.960432" style="fill: #0b0b0b; stroke: #0b0b0b"/>
     <use xlink:href="#m8fad29a888" x="265.745455" y="95.960432" style="fill: #0b0b0b; stroke: #0b0b0b"/>
     <use xlink:href="#m8fad29a888" x="265.745455" y="252.784991" style="fill: #0b0b0b; stroke: #0b0b0b"/>
     <use xlink:href="#m8fad29a888" x="265.745455" y="93.423568" style="fill: #0b0b0b; stroke: #0b0b0b"/>
     <use xlink:href="#m8fad29a888" x="265.745455" y="82.115941" style="fill: #0b0b0b; stroke: #0b0b0b"/>
     <use xlink:href="#m8fad29a888" x="265.745455" y="252.784991" style="fill: #0b0b0b; stroke: #0b0b0b"/>
     <use xlink:href="#m8fad29a888" x="265.745455" y="252.784991" style="fill: #0b0b0b; stroke: #0b0b0b"/>
     <use xlink:href="#m8fad29a888" x="265.745455" y="119.66647" style="fill: #0b0b0b; stroke: #0b0b0b"/>
     <use xlink:href="#m8fad29a888" x="265.745455" y="95.960432" style="fill: #0b0b0b; stroke: #0b0b0b"/>
     <use xlink:href="#m8fad29a888" x="265.745455" y="95.960432" style="fill: #0b0b0b; stroke: #0b0b0b"/>
     <use xlink:href="#m8fad29a888" x="265.745455" y="47.545408" style="fill: #0b0b0b; stroke: #0b0b0b"/>
     <use xlink:href="#m8fad29a888" x="265.745455" y="93.423568" style="fill: #0b0b0b; stroke: #0b0b0b"/>
     <use xlink:href="#m8fad29a888" x="265.745455" y="167.401791" style="fill: #0b0b0b; stroke: #0b0b0b"/>
     <use xlink:href="#m8fad29a888" x="265.745455" y="93.423568" style="fill: #0b0b0b; stroke: #0b0b0b"/>
     <use xlink:href="#m8fad29a888" x="265.745455" y="93.423568" style="fill: #0b0b0b; stroke: #0b0b0b"/>
     <use xlink:href="#m8fad29a888" x="265.745455" y="82.115941" style="fill: #0b0b0b; stroke: #0b0b0b"/>
     <use xlink:href="#m8fad29a888" x="265.745455" y="252.784991" style="fill: #0b0b0b; stroke: #0b0b0b"/>
     <use xlink:href="#m8fad29a888" x="265.745455" y="95.960432" style="fill: #0b0b0b; stroke: #0b0b0b"/>
     <use xlink:href="#m8fad29a888" x="265.745455" y="95.960432" style="fill: #0b0b0b; stroke: #0b0b0b"/>
     <use xlink:href="#m8fad29a888" x="265.745455" y="95.960432" style="fill: #0b0b0b; stroke: #0b0b0b"/>
     <use xlink:href="#m8fad29a888" x="265.745455" y="124.863563" style="fill: #0b0b0b; stroke: #0b0b0b"/>
     <use xlink:href="#m8fad29a888" x="265.745455" y="93.423568" style="fill: #0b0b0b; stroke: #0b0b0b"/>
     <use xlink:href="#m8fad29a888" x="265.745455" y="93.423568" style="fill: #0b0b0b; stroke: #0b0b0b"/>
     <use xlink:href="#m8fad29a888" x="265.745455" y="95.960432" style="fill: #0b0b0b; stroke: #0b0b0b"/>
     <use xlink:href="#m8fad29a888" x="265.745455" y="93.423568" style="fill: #0b0b0b; stroke: #0b0b0b"/>
     <use xlink:href="#m8fad29a888" x="265.745455" y="93.423568" style="fill: #0b0b0b; stroke: #0b0b0b"/>
     <use xlink:href="#m8fad29a888" x="265.745455" y="252.784991" style="fill: #0b0b0b; stroke: #0b0b0b"/>
     <use xlink:href="#m8fad29a888" x="265.745455" y="252.784991" style="fill: #0b0b0b; stroke: #0b0b0b"/>
    </g>
   </g>
   <g id="line2d_19">
    <path d="M 121.090909 94.692 
L 132.218182 94.692 
" clip-path="url(#pfdb9e54566)" style="fill: none; stroke: #0b0b0b; stroke-width: 1.4"/>
   </g>
   <g id="line2d_20">
    <path d="M 260.181818 46.724814 
L 271.309091 46.724814 
" clip-path="url(#pfdb9e54566)" style="fill: none; stroke: #0b0b0b; stroke-width: 1.4"/>
   </g>
  </g>
  <g id="text_10">
   <text style="font-size: 11.5px; font-family: 'DejaVu Sans', 'Bitstream Vera Sans', 'Computer Modern Sans Serif', 'Lucida Grande', 'Verdana', 'Geneva', 'Lucid', 'Arial', 'Helvetica', 'Avant Garde', sans-serif; text-anchor: start; fill: #0b0b0b" x="7.2" y="14.786203" transform="rotate(-0 7.2 14.786203)">Recall distribution: self-correction off vs on (strategies run in both states)</text>
  </g>
 </g>
 <defs>
  <clipPath id="pfdb9e54566">
   <rect x="43.2" y="30.24" width="306" height="232.848"/>
  </clipPath>
 </defs>
 <defs>
  <pattern id="hd8ca796d47" patternUnits="userSpaceOnUse" x="0" y="0" width="72" height="72">
   <rect x="0" y="0" width="73" height="73" fill="#e6e5e2"/>
   <path d="M -36 36 
L 36 -36 
M -32 40 
L 40 -32 
M -28 44 
L 44 -28 
M -24 48 
L 48 -24 
M -20 52 
L 52 -20 
M -16 56 
L 56 -16 
M -12 60 
L 60 -12 
M -8 64 
L 64 -8 
M -4 68 
L 68 -4 
M 0 72 
L 72 0 
M 4 76 
L 76 4 
M 8 80 
L 80 8 
M 12 84 
L 84 12 
M 16 88 
L 88 16 
M 20 92 
L 92 20 
M 24 96 
L 96 24 
M 28 100 
L 100 28 
M 32 104 
L 104 32 
M 36 108 
L 108 36 
" style="fill: #0b0b0b; stroke: #0b0b0b; stroke-width: 0.5; stroke-linecap: butt; stroke-linejoin: miter"/>
  </pattern>
  <pattern id="h37d9916b51" patternUnits="userSpaceOnUse" x="0" y="0" width="72" height="72">
   <rect x="0" y="0" width="73" height="73" fill="#e6e5e2"/>
   <path d="M -36 36 
L 36 -36 
M -32 40 
L 40 -32 
M -28 44 
L 44 -28 
M -24 48 
L 48 -24 
M -20 52 
L 52 -20 
M -16 56 
L 56 -16 
M -12 60 
L 60 -12 
M -8 64 
L 64 -8 
M -4 68 
L 68 -4 
M 0 72 
L 72 0 
M 4 76 
L 76 4 
M 8 80 
L 80 8 
M 12 84 
L 84 12 
M 16 88 
L 88 16 
M 20 92 
L 92 20 
M 24 96 
L 96 24 
M 28 100 
L 100 28 
M 32 104 
L 104 32 
M 36 108 
L 108 36 
M -36 36 
L 36 108 
M -32 32 
L 40 104 
M -28 28 
L 44 100 
M -24 24 
L 48 96 
M -20 20 
L 52 92 
M -16 16 
L 56 88 
M -12 12 
L 60 84 
M -8 8 
L 64 80 
M -4 4 
L 68 76 
M 0 0 
L 72 72 
M 4 -4 
L 76 68 
M 8 -8 
L 80 64 
M 12 -12 
L 84 60 
M 16 -16 
L 88 56 
M 20 -20 
L 92 52 
M 24 -24 
L 96 48 
M 28 -28 
L 100 44 
M 32 -32 
L 104 40 
M 36 -36 
L 108 36 
" style="fill: #0b0b0b; stroke: #0b0b0b; stroke-width: 0.5; stroke-linecap: butt; stroke-linejoin: miter"/>
  </pattern>
 </defs>
</svg>
