<?xml version="1.0" encoding="utf-8" standalone="no"?>
<!DOCTYPE svg PUBLIC "-//W3C//DTD SVG 1.1//EN"
  "http://www.w3.org/Graphics/SVG/1.1/DTD/svg11.dtd">
<svg xmlns:xlink="http://www.w3.org/1999/xlink" width="540pt" height="324pt" viewBox="0 0 540 324" xmlns="http://www.w3.org/2000/svg" version="1.1">
 <metadata>
  <rdf:RDF xmlns:dc="http://purl.org/dc/elements/1.1/" xmlns:cc="http://creativecommons.org/ns#" xmlns:rdf="http://www.w3.org/1999/02/22-rdf-syntax-ns#">
   <cc:Work>
    <dc:type rdf:resource="http://purl.org/dc/dcmitype/StillImage"/>
    <dc:format>image/svg+xml</dc:format>
    <dc:creator>
     <cc:Agent>
      <dc:title>Matplotlib v3.10.9, https://matplotlib.org/</dc:title>
     </cc:Agent>
    </dc:creator>
   </cc:Work>
  </rdf:RDF>
 </metadata>
 <defs>
  <style type="text/css">*{stroke-linejoin: round; stroke-linecap: butt}</style>
 </defs>
 <g id="figure_1">
  <g id="patch_1">
   <path d="M 0 324 
L 540 324 
L 540 0 
L 0 0 
L 0 324 
z
" style="fill: none"/>
  </g>
  <g id="axes_1">
   <g id="patch_2">
    <path d="M 71.715 260.982232 
L 528.12 260.982232 
L 528.12 41.24 
L 71.715 41.24 
L 71.715 260.982232 
z
" style="fill: none"/>
   </g>
   <g id="matplotlib.axis_1">
    <g id="xtick_1">
     <g id="line2d_1"/>
     <g id="text_1">
      <text style="font-size: 9px; font-family: 'DejaVu Sans', 'Bitstream Vera Sans', 'Computer Modern Sans Serif', 'Lucida Grande', 'Verdana', 'Geneva', 'Lucid', 'Arial', 'Helvetica', 'Avant Garde', sans-serif; fill: #898781" transform="translate(64.161301 299.581249) rotate(-25)">ensemble_vote</text>
     </g>
    </g>
    <g id="xtick_2">
     <g id="line2d_2"/>
     <g id="text_2">
      <text style="font-size: 9px; font-family: 'DejaVu Sans', 'Bitstream Vera Sans', 'Computer Modern Sans Serif', 'Lucida Grande', 'Verdana', 'Geneva', 'Lucid', 'Arial', 'Helvetica', 'Avant Garde', sans-serif; fill: #898781" transform="translate(135.916907 306.428853) rotate(-25)">plan_then_execute</text>
     </g>
    </g>
    <g id="xtick_3">
     <g id="line2d_3"/>
     <g id="text_3">
      <text style="font-size: 9px; font-family: 'DejaVu Sans', 'Bitstream Vera Sans', 'Computer Modern Sans Serif', 'Lucida Grande', 'Verdana', 'Geneva', 'Lucid', 'Arial', 'Helvetica', 'Avant Garde', sans-serif; fill: #898781" transform="translate(220.867363 307.123598) rotate(-25)">write_then_critique</text>
     </g>
    </g>
    <g id="xtick_4">
     <g id="line2d_4"/>
     <g id="text_4">
      <text style="font-size: 9px; font-family: 'DejaVu Sans', 'Bitstream Vera Sans', 'Computer Modern Sans Serif', 'Lucida Grande', 'Verdana', 'Geneva', 'Lucid', 'Arial', 'Helvetica', 'Avant Garde', sans-serif; fill: #898781" transform="translate(300.905914 310.108802) rotate(-25)">structured_per_table</text>
     </g>
    </g>
    <g id="xtick_5">
     <g id="line2d_5"/>
     <g id="text_5">
      <text style="font-size: 9px; font-family: 'DejaVu Sans', 'Bitstream Vera Sans', 'Computer Modern Sans Serif', 'Lucida Grande', 'Verdana', 'Geneva', 'Lucid', 'Arial', 'Helvetica', 'Avant Garde', sans-serif; fill: #898781" transform="translate(388.446144 309.595915) rotate(-25)">write_tools_freeform</text>
     </g>
    </g>
   </g>
   <g id="matplotlib.axis_2">
    <g id="ytick_1">
     <g id="line2d_6">
      <path d="M 71.715 260.982232 
L 528.12 260.982232 
" clip-path="url(#pe7e41b175a)" style="fill: none; stroke: #898781; stroke-opacity: 0.18; stroke-width: 0.6; stroke-linecap: square"/>
     </g>
     <g id="line2d_7"/>
     <g id="text_6">
      <text style="font-size: 11px; font-family: 'DejaVu Sans', 'Bitstream Vera Sans', 'Computer Modern Sans Serif', 'Lucida Grande', 'Verdana', 'Geneva', 'Lucid', 'Arial', 'Helvetica', 'Avant Garde', sans-serif; text-anchor: end" x="68.215" y="265.161373" transform="rotate(-0 68.215 265.161373)">0</text>
     </g>
    </g>
    <g id="ytick_2">
     <g id="line2d_8">
      <path d="M 71.715 226.49958 
L 528.12 226.49958 
" clip-path="url(#pe7e41b175a)" style="fill: none; stroke: #898781; stroke-opacity: 0.18; stroke-width: 0.6; stroke-linecap: square"/>
     </g>
     <g id="line2d_9"/>
     <g id="text_7">
      <text style="font-size: 11px; font-family: 'DejaVu Sans', 'Bitstream Vera Sans', 'Computer Modern Sans Serif', 'Lucida Grande', 'Verdana', 'Geneva', 'Lucid', 'Arial', 'Helvetica', 'Avant Garde', sans-serif; text-anchor: end" x="68.215" y="230.678721" transform="rotate(-0 68.215 230.678721)">100000</text>
     </g>
    </g>
    <g id="ytick_3">
     <g id="line2d_10">
      <path d="M 71.715 192.016929 
L 528.12 192.016929 
" clip-path="url(#pe7e41b175a)" style="fill: none; stroke: #898781; stroke-opacity: 0.18; stroke-width: 0.6; stroke-linecap: square"/>
     </g>
     <g id="line2d_11"/>
     <g id="text_8">
      <text style="font-size: 11px; font-family: 'DejaVu Sans', 'Bitstream Vera Sans', 'Computer Modern Sans Serif', 'Lucida Grande', 'Verdana', 'Geneva', 'Lucid', 'Arial', 'Helvetica', 'Avant Garde', sans-serif; text-anchor: end" x="68.215" y="196.196069" transform="rotate(-0 68.215 196.196069)">200000</text>
     </g>
    </g>
    <g id="ytick_4">
     <g id="line2d_12">
      <path d="M 71.715 157.534277 
L 528.12 157.534277 
" clip-path="url(#pe7e41b175a)" style="fill: none; stroke: #898781; stroke-opacity: 0.18; stroke-width: 0.6; stroke-linecap: square"/>
     </g>
     <g id="line2d_13"/>
     <g id="text_9">
      <text style="font-size: 11px; font-family: 'DejaVu Sans', 'Bitstream Vera Sans', 'Computer Modern Sans Serif', 'Lucida Grande', 'Verdana', 'Geneva', 'Lucid', 'Arial', 'Helvetica', 'Avant Garde', sans-serif; text-anchor: end" x="68.215" y="161.713418" transform="rotate(-0 68.215 161.713418)">300000</text>
     </g>
    </g>
    <g id="ytick_5">
     <g id="line2d_14">
      <path d="M 71.715 123.051625 
L 528.12 123.051625 
" clip-path="url(#pe7e41b175a)" style="fill: none; stroke: #898781; stroke-opacity: 0.18; stroke-width: 0.6; stroke-linecap: square"/>
     </g>
     <g id="line2d_15"/>
     <g id="text_10">
      <text style="font-size: 11px; font-family: 'DejaVu Sans', 'Bitstream Vera Sans', 'Computer Modern Sans Serif', 'Lucida Grande', 'Verdana', 'Geneva', 'Lucid', 'Arial', 'Helvetica', 'Avant Garde', sans-serif; text-anchor: end" x="68.215" y="127.230766" transform="rotate(-0 68.215 127.230766)">400000</text>
     </g>
    </g>
    <g id="ytick_6">
     <g id="line2d_16">
      <path d="M 71.715 88.568974 
L 528.12 88.568974 
" clip-path="url(#pe7e41b175a)" style="fill: none; stroke: #898781; stroke-opacity: 0.18; stroke-width: 0.6; stroke-linecap: square"/>
     </g>
     <g id="line2d_17"/>
     <g id="text_11">
      <text style="font-size: 11px; font-family: 'DejaVu Sans', 'Bitstream Vera Sans', 'Computer Modern Sans Serif', 'Lucida Grande', 'Verdana', 'Geneva', 'Lucid', 'Arial', 'Helvetica', 'Avant Garde', sans-serif; text-anchor: end" x="68.215" y="92.748114" transform="rotate(-0 68.215 92.748114)">500000</text>
     </g>
    </g>
    <g id="ytick_7">
     <g id="line2d_18">
      <path d="M 71.715 54.086322 
L 528.12 54.086322 
" clip-path="url(#pe7e41b175a)" style="fill: none; stroke: #898781; stroke-opacity: 0.18; stroke-width: 0.6; stroke-linecap: square"/>
     </g>
     <g id="line2d_19"/>
     <g id="text_12">
      <text style="font-size: 11px; font-family: 'DejaVu Sans', 'Bitstream Vera Sans', 'Computer Modern Sans Serif', 'Lucida Grande', 'Verdana', 'Geneva', 'Lucid', 'Arial', 'Helvetica', 'Avant Garde', sans-serif; text-anchor: end" x="68.215" y="58.265463" transform="rotate(-0 68.215 58.265463)">600000</text>
     </g>
    </g>
    <g id="text_13">
     <text style="font-size: 11px; font-family: 'DejaVu Sans', 'Bitstream Vera Sans', 'Computer Modern Sans Serif', 'Lucida Grande', 'Verdana', 'Geneva', 'Lucid', 'Arial', 'Helvetica', 'Avant Garde', sans-serif; text-anchor: middle; fill: #0b0b0b" x="19.934844" y="151.111116" transform="rotate(-90 19.934844 151.111116)">Tokens/run (in+out)</text>
    </g>
   </g>
   <g id="patch_3">
    <path d="M 71.715 260.982232 
L 71.715 41.24 
" style="fill: none; stroke: #000000; stroke-width: 0.8; stroke-linejoin: miter; stroke-linecap: square"/>
   </g>
   <g id="patch_4">
    <path d="M 71.715 260.982232 
L 528.12 260.982232 
" style="fill: none; stroke: #000000; stroke-width: 0.8; stroke-linejoin: miter; stroke-linecap: square"/>
   </g>
   <g id="patch_5">
    <path d="M 92.460682 260.982232 
L 127.036818 260.982232 
L 127.036818 198.462426 
L 92.460682 198.462426 
z
" clip-path="url(#pe7e41b175a)" style="fill: #c40d1e"/>
   </g>
   <g id="patch_6">
    <path d="M 178.901023 260.982232 
L 213.477159 260.982232 
L 213.477159 237.788166 
L 178.901023 237.788166 
z
" clip-path="url(#pe7e41b175a)" style="fill: #ff6c00"/>
   </g>
   <g id="patch_7">
    <path d="M 265.341364 260.982232 
L 299.9175 260.982232 
L 299.9175 182.13058 
L 265.341364 182.13058 
z
" clip-path="url(#pe7e41b175a)" style="fill: #e8a800"/>
   </g>
   <g id="patch_8">
    <path d="M 351.781705 260.982232 
L 386.357841 260.982232 
L 386.357841 240.405054 
L 351.781705 240.405054 
z
" clip-path="url(#pe7e41b175a)" style="fill: #b5297a"/>
   </g>
   <g id="patch_9">
    <path d="M 438.222045 260.982232 
L 472.798182 260.982232 
L 472.798182 245.390901 
L 438.222045 245.390901 
z
" clip-path="url(#pe7e41b175a)" style="fill: #2f6fb0"/>
   </g>
   <g id="patch_10">
    <path d="M 127.036818 260.982232 
L 161.612955 260.982232 
L 161.612955 188.949352 
L 127.036818 188.949352 
z
" clip-path="url(#pe7e41b175a)" style="fill: url(#hc5d1e91f93)"/>
   </g>
   <g id="patch_11">
    <path d="M 213.477159 260.982232 
L 248.053295 260.982232 
L 248.053295 229.654743 
L 213.477159 229.654743 
z
" clip-path="url(#pe7e41b175a)" style="fill: url(#h522214b505)"/>
   </g>
   <g id="patch_12">
    <path d="M 299.9175 260.982232 
L 334.493636 260.982232 
L 334.493636 192.814857 
L 299.9175 192.814857 
z
" clip-path="url(#pe7e41b175a)" style="fill: url(#h5e85e630e4)"/>
   </g>
   <g id="patch_13">
    <path d="M 386.357841 260.982232 
L 420.933977 260.982232 
L 420.933977 229.172158 
L 386.357841 229.172158 
z
" clip-path="url(#pe7e41b175a)" style="fill: url(#hd0d1d40f83)"/>
   </g>
   <g id="patch_14">
    <path d="M 472.798182 260.982232 
L 507.374318 260.982232 
L 507.374318 235.108347 
L 472.798182 235.108347 
z
" clip-path="url(#pe7e41b175a)" style="fill: url(#hb94e1d0dae)"/>
   </g>
   <g id="text_14">
    <text style="font-size: 9px; font-family: 'DejaVu Sans', 'Bitstream Vera Sans', 'Computer Modern Sans Serif', 'Lucida Grande', 'Verdana', 'Geneva', 'Lucid', 'Arial', 'Helvetica', 'Avant Garde', sans-serif; text-anchor: start; fill: #898781" x="71.715" y="36.072148" transform="rotate(-0 71.715 36.072148)">median per bar · n=29–48/bar · N=422 runs</text>
   </g>
   <g id="text_15">
    <text style="font-size: 12px; font-family: 'DejaVu Sans', 'Bitstream Vera Sans', 'Computer Modern Sans Serif', 'Lucida Grande', 'Verdana', 'Geneva', 'Lucid', 'Arial', 'Helvetica', 'Avant Garde', sans-serif; text-anchor: start; fill: #0b0b0b" x="71.715" y="21.24" transform="rotate(-0 71.715 21.24)">Tokens/run (in+out) by strategy — self-correction</text>
   </g>
   <g id="LineCollection_1">
    <path d="M 109.74875 218.273571 
L 109.74875 69.135758 
" clip-path="url(#pe7e41b175a)" style="fill: none; stroke: #898781; stroke-width: 0.9"/>
    <path d="M 196.189091 243.682113 
L 196.189091 224.391828 
" clip-path="url(#pe7e41b175a)" style="fill: none; stroke: #898781; stroke-width: 0.9"/>
    <path d="M 282.629432 224.633293 
L 282.629432 98.408598 
" clip-path="url(#pe7e41b175a)" style="fill: none; stroke: #898781; stroke-width: 0.9"/>
    <path d="M 369.069773 248.006065 
L 369.069773 194.576921 
" clip-path="url(#pe7e41b175a)" style="fill: none; stroke: #898781; stroke-width: 0.9"/>
    <path d="M 455.510114 249.822956 
L 455.510114 212.074108 
" clip-path="url(#pe7e41b175a)" style="fill: none; stroke: #898781; stroke-width: 0.9"/>
   </g>
   <g id="line2d_20">
    <defs>
     <path id="m263f5331f5" d="M 2 0 
L -2 -0 
" style="stroke: #898781"/>
    </defs>
    <g clip-path="url(#pe7e41b175a)">
     <use xlink:href="#m263f5331f5" x="109.74875" y="218.273571" style="fill: #1f77b4; stroke: #898781"/>
     <use xlink:href="#m263f5331f5" x="196.189091" y="243.682113" style="fill: #1f77b4; stroke: #898781"/>
     <use xlink:href="#m263f5331f5" x="282.629432" y="224.633293" style="fill: #1f77b4; stroke: #898781"/>
     <use xlink:href="#m263f5331f5" x="369.069773" y="248.006065" style="fill: #1f77b4; stroke: #898781"/>
     <use xlink:href="#m263f5331f5" x="455.510114" y="249.822956" style="fill: #1f77b4; stroke: #898781"/>
    </g>
   </g>
   <g id="line2d_21">
    <g clip-path="url(#pe7e41b175a)">
     <use xlink:href="#m263f5331f5" x="109.74875" y="69.135758" style="fill: #1f77b4; stroke: #898781"/>
     <use xlink:href="#m263f5331f5" x="196.189091" y="224.391828" style="fill: #1f77b4; stroke: #898781"/>
     <use xlink:href="#m263f5331f5" x="282.629432" y="98.408598" style="fill: #1f77b4; stroke: #898781"/>
     <use xlink:href="#m263f5331f5" x="369.069773" y="194.576921" style="fill: #1f77b4; stroke: #898781"/>
     <use xlink:href="#m263f5331f5" x="455.510114" y="212.074108" style="fill: #1f77b4; stroke: #898781"/>
    </g>
   </g>
   <g id="LineCollection_2">
    <path d="M 144.324886 218.05771 
L 144.324886 51.703916 
" clip-path="url(#pe7e41b175a)" style="fill: none; stroke: #898781; stroke-width: 0.9"/>
    <path d="M 230.765227 238.230923 
L 230.765227 220.437875 
" clip-path="url(#pe7e41b175a)" style="fill: none; stroke: #898781; stroke-width: 0.9"/>
    <path d="M 317.205568 222.090973 
L 317.205568 100.22411 
" clip-path="url(#pe7e41b175a)" style="fill: none; stroke: #898781; stroke-width: 0.9"/>
    <path d="M 403.645909 243.168063 
L 403.645909 193.160977 
" clip-path="url(#pe7e41b175a)" style="fill: none; stroke: #898781; stroke-width: 0.9"/>
    <path d="M 490.08625 249.730025 
L 490.08625 199.783629 
" clip-path="url(#pe7e41b175a)" style="fill: none; stroke: #898781; stroke-width: 0.9"/>
   </g>
   <g id="line2d_22">
    <g clip-path="url(#pe7e41b175a)">
     <use xlink:href="#m263f5331f5" x="144.324886" y="218.05771" style="fill: #1f77b4; stroke: #898781"/>
     <use xlink:href="#m263f5331f5" x="230.765227" y="238.230923" style="fill: #1f77b4; stroke: #898781"/>
     <use xlink:href="#m263f5331f5" x="317.205568" y="222.090973" style="fill: #1f77b4; stroke: #898781"/>
     <use xlink:href="#m263f5331f5" x="403.645909" y="243.168063" style="fill: #1f77b4; stroke: #898781"/>
     <use xlink:href="#m263f5331f5" x="490.08625" y="249.730025" style="fill: #1f77b4; stroke: #898781"/>
    </g>
   </g>
   <g id="line2d_23">
    <g clip-path="url(#pe7e41b175a)">
     <use xlink:href="#m263f5331f5" x="144.324886" y="51.703916" style="fill: #1f77b4; stroke: #898781"/>
     <use xlink:href="#m263f5331f5" x="230.765227" y="220.437875" style="fill: #1f77b4; stroke: #898781"/>
     <use xlink:href="#m263f5331f5" x="317.205568" y="100.22411" style="fill: #1f77b4; stroke: #898781"/>
     <use xlink:href="#m263f5331f5" x="403.645909" y="193.160977" style="fill: #1f77b4; stroke: #898781"/>
     <use xlink:href="#m263f5331f5" x="490.08625" y="199.783629" style="fill: #1f77b4; stroke: #898781"/>
    </g>
   </g>
   <g id="legend_1">
    <g id="patch_15">
     <path d="M 482.976562 56.178594 
L 500.976562 56.178594 
L 500.976562 49.878594 
L 482.976562 49.878594 
z
" style="fill: #898781"/>
    </g>
    <g id="text_16">
     <text style="font-size: 9px; font-family: 'DejaVu Sans', 'Bitstream Vera Sans', 'Computer Modern Sans Serif', 'Lucida Grande', 'Verdana', 'Geneva', 'Lucid', 'Arial', 'Helvetica', 'Avant Garde', sans-serif; text-anchor: start; fill: #0b0b0b" x="508.176562" y="56.178594" transform="rotate(-0 508.176562 56.178594)">off</text>
    </g>
    <g id="patch_16">
     <path d="M 482.976562 69.388906 
L 500.976562 69.388906 
L 500.976562 63.088906 
L 482.976562 63.088906 
z
" style="fill: url(#h97066932b5)"/>
    </g>
    <g id="text_17">
     <text style="font-size: 9px; font-family: 'DejaVu Sans', 'Bitstream Vera Sans', 'Computer Modern Sans Serif', 'Lucida Grande', 'Verdana', 'Geneva', 'Lucid', 'Arial', 'Helvetica', 'Avant Garde', sans-serif; text-anchor: start; fill: #0b0b0b" x="508.176562" y="69.388906" transform="rotate(-0 508.176562 69.388906)">on</text>
    </g>
   </g>
  </g>
 </g>
 <defs>
  <clipPath id="pe7e41b175a">
   <rect x="71.715" y="41.24" width="456.405" height="219.742232"/>
  </clipPath>
 </defs>
 <defs>
  <pattern id="hc5d1e91f93" patternUnits="userSpaceOnUse" x="0" y="0" width="72" height="72">
   <rect x="0" y="0" width="73" height="73" fill="#c40d1e"/>
   <path d="M -36 36 
L 36 -36 
M -32 40 
L 40 -32 
M -28 44 
L 44 -28 
M -24 48 
L 48 -24 
M -20 52 
L 52 -20 
M -16 56 
L 56 -16 
M -12 60 
L 60 -12 
M -8 64 
L 64 -8 
M -4 68 
L 68 -4 
M 0 72 
L 72 0 
M 4 76 
L 76 4 
M 8 80 
L 80 8 
M 12 84 
L 84 12 
M 16 88 
L 88 16 
M 20 92 
L 92 20 
M 24 96 
L 96 24 
M 28 100 
L 100 28 
M 32 104 
L 104 32 
M 36 108 
L 108 36 
" style="fill: #ffffff; stroke: #ffffff; stroke-width: 0.5; stroke-linecap: butt; stroke-linejoin: miter"/>
  </pattern>
  <pattern id="h522214b505" patternUnits="userSpaceOnUse" x="0" y="0" width="72" height="72">
   <rect x="0" y="0" width="73" height="73" fill="#ff6c00"/>
   <path d="M -36 36 
L 36 -36 
M -32 40 
L 40 -32 
M -28 44 
L 44 -28 
M -24 48 
L 48 -24 
M -20 52 
L 52 -20 
M -16 56 
L 56 -16 
M -12 60 
L 60 -12 
M -8 64 
L 64 -8 
M -4 68 
L 68 -4 
M 0 72 
L 72 0 
M 4 76 
L 76 4 
M 8 80 
L 80 8 
M 12 84 
L 84 12 
M 16 88 
L 88 16 
M 20 92 
L 92 20 
M 24 96 
L 96 24 
M 28 100 
L 100 28 
M 32 104 
L 104 32 
M 36 108 
L 108 36 
" style="fill: #ffffff; stroke: #ffffff; stroke-width: 0.5; stroke-linecap: butt; stroke-linejoin: miter"/>
  </pattern>
  <pattern id="h5e85e630e4" patternUnits="userSpaceOnUse" x="0" y="0" width="72" height="72">
   <rect x="0" y="0" width="73" height="73" fill="#e8a800"/>
   <path d="M -36 36 
L 36 -36 
M -32 40 
L 40 -32 
M -28 44 
L 44 -28 
M -24 48 
L 48 -24 
M -20 52 
L 52 -20 
M -16 56 
L 56 -16 
M -12 60 
L 60 -12 
M -8 64 
L 64 -8 
M -4 68 
L 68 -4 
M 0 72 
L 72 0 
M 4 76 
L 76 4 
M 8 80 
L 80 8 
M 12 84 
L 84 12 
M 16 88 
L 88 16 
M 20 92 
L 92 20 
M 24 96 
L 96 24 
M 28 100 
L 100 28 
M 32 104 
L 104 32 
M 36 108 
L 108 36 
" style="fill: #ffffff; stroke: #ffffff; stroke-width: 0.5; stroke-linecap: butt; stroke-linejoin: miter"/>
  </pattern>
  <pattern id="hd0d1d40f83" patternUnits="userSpaceOnUse" x="0" y="0" width="72" height="72">
   <rect x="0" y="0" width="73" height="73" fill="#b5297a"/>
   <path d="M -36 36 
L 36 -36 
M -32 40 
L 40 -32 
M -28 44 
L 44 -28 
M -24 48 
L 48 -24 
M -20 52 
L 52 -20 
M -16 56 
L 56 -16 
M -12 60 
L 60 -12 
M -8 64 
L 64 -8 
M -4 68 
L 68 -4 
M 0 72 
L 72 0 
M 4 76 
L 76 4 
M 8 80 
L 80 8 
M 12 84 
L 84 12 
M 16 88 
L 88 16 
M 20 92 
L 92 20 
M 24 96 
L 96 24 
M 28 100 
L 100 28 
M 32 104 
L 104 32 
M 36 108 
L 108 36 
" style="fill: #ffffff; stroke: #ffffff; stroke-width: 0.5; stroke-linecap: butt; stroke-linejoin: miter"/>
  </pattern>
  <pattern id="hb94e1d0dae" patternUnits="userSpaceOnUse" x="0" y="0" width="72" height="72">
   <rect x="0" y="0" width="73" height="73" fill="#2f6fb0"/>
   <path d="M -36 36 
L 36 -36 
M -32 40 
L 40 -32 
M -28 44 
L 44 -28 
M -24 48 
L 48 -24 
M -20 52 
L 52 -20 
M -16 56 
L 56 -16 
M -12 60 
L 60 -12 
M -8 64 
L 64 -8 
M -4 68 
L 68 -4 
M 0 72 
L 72 0 
M 4 76 
L 76 4 
M 8 80 
L 80 8 
M 12 84 
L 84 12 
M 16 88 
L 88 16 
M 20 92 
L 92 20 
M 24 96 
L 96 24 
M 28 100 
L 100 28 
M 32 104 
L 104 32 
M 36 108 
L 108 36 
" style="fill: #ffffff; stroke: #ffffff; stroke-width: 0.5; stroke-linecap: butt; stroke-linejoin: miter"/>
  </pattern>
  <pattern id="h97066932b5" patternUnits="userSpaceOnUse" x="0" y="0" width="72" height="72">
   <rect x="0" y="0" width="73" height="73" fill="#898781"/>
   <path d="M -36 36 
L 36 -36 
M -32 40 
L 40 -32 
M -28 44 
L 44 -28 
M -24 48 
L 48 -24 
M -20 52 
L 52 -20 
M -16 56 
L 56 -16 
M -12 60 
L 60 -12 
M -8 64 
L 64 -8 
M -4 68 
L 68 -4 
M 0 72 
L 72 0 
M 4 76 
L 76 4 
M 8 80 
L 80 8 
M 12 84 
L 84 12 
M 16 88 
L 88 16 
M 20 92 
L 92 20 
M 24 96 
L 96 24 
M 28 100 
L 100 28 
M 32 104 
L 104 32 
M 36 108 
L 108 36 
" style="fill: #ffffff; stroke: #ffffff; stroke-width: 0.5; stroke-linecap: butt; stroke-linejoin: miter"/>
  </pattern>
 </defs>
</svg>
