<?xml version="1.0" encoding="utf-8" standalone="no"?>
<!DOCTYPE svg PUBLIC "-//W3C//DTD SVG 1.1//EN"
  "http://www.w3.org/Graphics/SVG/1.1/DTD/svg11.dtd">
<svg xmlns:xlink="http://www.w3.org/1999/xlink" width="540pt" height="324pt" viewBox="0 0 540 324" xmlns="http://www.w3.org/2000/svg" version="1.1">
 <metadata>
  <rdf:RDF xmlns:dc="http://purl.org/dc/elements/1.1/" xmlns:cc="http://creativecommons.org/ns#" xmlns:rdf="http://www.w3.org/1999/02/22-rdf-syntax-ns#">
   <cc:Work>
    <dc:type rdf:resource="http://purl.org/dc/dcmitype/StillImage"/>
    <dc:format>image/svg+xml</dc:format>
    <dc:creator>
     <cc:Agent>
      <dc:title>Matplotlib v3.10.9, https://matplotlib.org/</dc:title>
     </cc:Agent>
    </dc:creator>
   </cc:Work>
  </rdf:RDF>
 </metadata>
 <defs>
  <style type="text/css">*{stroke-linejoin: round; stroke-linecap: butt}</style>
 </defs>
 <g id="figure_1">
  <g id="patch_1">
   <path d="M 0 324 
L 540 324 
L 540 0 
L 0 0 
L 0 324 
z
" style="fill: none"/>
  </g>
  <g id="axes_1">
   <g id="patch_2">
    <path d="M 36.84 260.982232 
L 528.12 260.982232 
L 528.12 41.24 
L 36.84 41.24 
L 36.84 260.982232 
z
" style="fill: none"/>
   </g>
   <g id="matplotlib.axis_1">
    <g id="xtick_1">
     <g id="line2d_1"/>
     <g id="text_1">
      <text style="font-size: 9px; font-family: 'DejaVu Sans', 'Bitstream Vera Sans', 'Computer Modern Sans Serif', 'Lucida Grande', 'Verdana', 'Geneva', 'Lucid', 'Arial', 'Helvetica', 'Avant Garde', sans-serif; fill: #898781" transform="translate(33.513574 299.581249) rotate(-25)">ensemble_vote</text>
     </g>
    </g>
    <g id="xtick_2">
     <g id="line2d_2"/>
     <g id="text_2">
      <text style="font-size: 9px; font-family: 'DejaVu Sans', 'Bitstream Vera Sans', 'Computer Modern Sans Serif', 'Lucida Grande', 'Verdana', 'Geneva', 'Lucid', 'Arial', 'Helvetica', 'Avant Garde', sans-serif; fill: #898781" transform="translate(111.874293 306.428853) rotate(-25)">plan_then_execute</text>
     </g>
    </g>
    <g id="xtick_3">
     <g id="line2d_3"/>
     <g id="text_3">
      <text style="font-size: 9px; font-family: 'DejaVu Sans', 'Bitstream Vera Sans', 'Computer Modern Sans Serif', 'Lucida Grande', 'Verdana', 'Geneva', 'Lucid', 'Arial', 'Helvetica', 'Avant Garde', sans-serif; fill: #898781" transform="translate(203.429863 307.123598) rotate(-25)">write_then_critique</text>
     </g>
    </g>
    <g id="xtick_4">
     <g id="line2d_4"/>
     <g id="text_4">
      <text style="font-size: 9px; font-family: 'DejaVu Sans', 'Bitstream Vera Sans', 'Computer Modern Sans Serif', 'Lucida Grande', 'Verdana', 'Geneva', 'Lucid', 'Arial', 'Helvetica', 'Avant Garde', sans-serif; fill: #898781" transform="translate(290.073528 310.108802) rotate(-25)">structured_per_table</text>
     </g>
    </g>
    <g id="xtick_5">
     <g id="line2d_5"/>
     <g id="text_5">
      <text style="font-size: 9px; font-family: 'DejaVu Sans', 'Bitstream Vera Sans', 'Computer Modern Sans Serif', 'Lucida Grande', 'Verdana', 'Geneva', 'Lucid', 'Arial', 'Helvetica', 'Avant Garde', sans-serif; fill: #898781" transform="translate(384.218872 309.595915) rotate(-25)">write_tools_freeform</text>
     </g>
    </g>
   </g>
   <g id="matplotlib.axis_2">
    <g id="ytick_1">
     <g id="line2d_6">
      <path d="M 36.84 260.982232 
L 528.12 260.982232 
" clip-path="url(#pe181fed15f)" style="fill: none; stroke: #898781; stroke-opacity: 0.18; stroke-width: 0.6; stroke-linecap: square"/>
     </g>
     <g id="line2d_7"/>
     <g id="text_6">
      <text style="font-size: 11px; font-family: 'DejaVu Sans', 'Bitstream Vera Sans', 'Computer Modern Sans Serif', 'Lucida Grande', 'Verdana', 'Geneva', 'Lucid', 'Arial', 'Helvetica', 'Avant Garde', sans-serif; text-anchor: end" x="33.34" y="265.161373" transform="rotate(-0 33.34 265.161373)">0</text>
     </g>
    </g>
    <g id="ytick_2">
     <g id="line2d_8">
      <path d="M 36.84 216.746767 
L 528.12 216.746767 
" clip-path="url(#pe181fed15f)" style="fill: none; stroke: #898781; stroke-opacity: 0.18; stroke-width: 0.6; stroke-linecap: square"/>
     </g>
     <g id="line2d_9"/>
     <g id="text_7">
      <text style="font-size: 11px; font-family: 'DejaVu Sans', 'Bitstream Vera Sans', 'Computer Modern Sans Serif', 'Lucida Grande', 'Verdana', 'Geneva', 'Lucid', 'Arial', 'Helvetica', 'Avant Garde', sans-serif; text-anchor: end" x="33.34" y="220.925908" transform="rotate(-0 33.34 220.925908)">1</text>
     </g>
    </g>
    <g id="ytick_3">
     <g id="line2d_10">
      <path d="M 36.84 172.511302 
L 528.12 172.511302 
" clip-path="url(#pe181fed15f)" style="fill: none; stroke: #898781; stroke-opacity: 0.18; stroke-width: 0.6; stroke-linecap: square"/>
     </g>
     <g id="line2d_11"/>
     <g id="text_8">
      <text style="font-size: 11px; font-family: 'DejaVu Sans', 'Bitstream Vera Sans', 'Computer Modern Sans Serif', 'Lucida Grande', 'Verdana', 'Geneva', 'Lucid', 'Arial', 'Helvetica', 'Avant Garde', sans-serif; text-anchor: end" x="33.34" y="176.690443" transform="rotate(-0 33.34 176.690443)">2</text>
     </g>
    </g>
    <g id="ytick_4">
     <g id="line2d_12">
      <path d="M 36.84 128.275837 
L 528.12 128.275837 
" clip-path="url(#pe181fed15f)" style="fill: none; stroke: #898781; stroke-opacity: 0.18; stroke-width: 0.6; stroke-linecap: square"/>
     </g>
     <g id="line2d_13"/>
     <g id="text_9">
      <text style="font-size: 11px; font-family: 'DejaVu Sans', 'Bitstream Vera Sans', 'Computer Modern Sans Serif', 'Lucida Grande', 'Verdana', 'Geneva', 'Lucid', 'Arial', 'Helvetica', 'Avant Garde', sans-serif; text-anchor: end" x="33.34" y="132.454978" transform="rotate(-0 33.34 132.454978)">3</text>
     </g>
    </g>
    <g id="ytick_5">
     <g id="line2d_14">
      <path d="M 36.84 84.040372 
L 528.12 84.040372 
" clip-path="url(#pe181fed15f)" style="fill: none; stroke: #898781; stroke-opacity: 0.18; stroke-width: 0.6; stroke-linecap: square"/>
     </g>
     <g id="line2d_15"/>
     <g id="text_10">
      <text style="font-size: 11px; font-family: 'DejaVu Sans', 'Bitstream Vera Sans', 'Computer Modern Sans Serif', 'Lucida Grande', 'Verdana', 'Geneva', 'Lucid', 'Arial', 'Helvetica', 'Avant Garde', sans-serif; text-anchor: end" x="33.34" y="88.219513" transform="rotate(-0 33.34 88.219513)">4</text>
     </g>
    </g>
    <g id="text_11">
     <text style="font-size: 11px; font-family: 'DejaVu Sans', 'Bitstream Vera Sans', 'Computer Modern Sans Serif', 'Lucida Grande', 'Verdana', 'Geneva', 'Lucid', 'Arial', 'Helvetica', 'Avant Garde', sans-serif; text-anchor: middle; fill: #0b0b0b" x="20.053594" y="151.111116" transform="rotate(-90 20.053594 151.111116)">Cost/run ($)</text>
    </g>
   </g>
   <g id="patch_3">
    <path d="M 36.84 260.982232 
L 36.84 41.24 
" style="fill: none; stroke: #000000; stroke-width: 0.8; stroke-linejoin: miter; stroke-linecap: square"/>
   </g>
   <g id="patch_4">
    <path d="M 36.84 260.982232 
L 528.12 260.982232 
" style="fill: none; stroke: #000000; stroke-width: 0.8; stroke-linejoin: miter; stroke-linecap: square"/>
   </g>
   <g id="patch_5">
    <path d="M 59.170909 260.982232 
L 96.389091 260.982232 
L 96.389091 235.611202 
L 59.170909 235.611202 
z
" clip-path="url(#pe181fed15f)" style="fill: #c40d1e"/>
   </g>
   <g id="patch_6">
    <path d="M 152.216364 260.982232 
L 189.434545 260.982232 
L 189.434545 249.741779 
L 152.216364 249.741779 
z
" clip-path="url(#pe181fed15f)" style="fill: #ff6c00"/>
   </g>
   <g id="patch_7">
    <path d="M 245.261818 260.982232 
L 282.48 260.982232 
L 282.48 260.982232 
L 245.261818 260.982232 
z
" clip-path="url(#pe181fed15f)" style="fill: #e8a800"/>
   </g>
   <g id="patch_8">
    <path d="M 338.307273 260.982232 
L 375.525455 260.982232 
L 375.525455 256.700902 
L 338.307273 256.700902 
z
" clip-path="url(#pe181fed15f)" style="fill: #b5297a"/>
   </g>
   <g id="patch_9">
    <path d="M 431.352727 260.982232 
L 468.570909 260.982232 
L 468.570909 260.1046 
L 431.352727 260.1046 
z
" clip-path="url(#pe181fed15f)" style="fill: #2f6fb0"/>
   </g>
   <g id="patch_10">
    <path d="M 96.389091 260.982232 
L 133.607273 260.982232 
L 133.607273 260.982232 
L 96.389091 260.982232 
z
" clip-path="url(#pe181fed15f)" style="fill: url(#hdd26934cf9)"/>
   </g>
   <g id="patch_11">
    <path d="M 189.434545 260.982232 
L 226.652727 260.982232 
L 226.652727 239.070416 
L 189.434545 239.070416 
z
" clip-path="url(#pe181fed15f)" style="fill: url(#hbb56a16824)"/>
   </g>
   <g id="patch_12">
    <path d="M 282.48 260.982232 
L 319.698182 260.982232 
L 319.698182 260.982232 
L 282.48 260.982232 
z
" clip-path="url(#pe181fed15f)" style="fill: url(#h084b90ed80)"/>
   </g>
   <g id="patch_13">
    <path d="M 375.525455 260.982232 
L 412.743636 260.982232 
L 412.743636 238.905307 
L 375.525455 238.905307 
z
" clip-path="url(#pe181fed15f)" style="fill: url(#h0af8f40d16)"/>
   </g>
   <g id="patch_14">
    <path d="M 468.570909 260.982232 
L 505.789091 260.982232 
L 505.789091 256.012599 
L 468.570909 256.012599 
z
" clip-path="url(#pe181fed15f)" style="fill: url(#h54fdfe7a00)"/>
   </g>
   <g id="text_12">
    <text style="font-size: 9px; font-family: 'DejaVu Sans', 'Bitstream Vera Sans', 'Computer Modern Sans Serif', 'Lucida Grande', 'Verdana', 'Geneva', 'Lucid', 'Arial', 'Helvetica', 'Avant Garde', sans-serif; text-anchor: start; fill: #898781" x="36.84" y="36.072148" transform="rotate(-0 36.84 36.072148)">median per bar · n=31–48/bar · N=422 runs</text>
   </g>
   <g id="text_13">
    <text style="font-size: 12px; font-family: 'DejaVu Sans', 'Bitstream Vera Sans', 'Computer Modern Sans Serif', 'Lucida Grande', 'Verdana', 'Geneva', 'Lucid', 'Arial', 'Helvetica', 'Avant Garde', sans-serif; text-anchor: start; fill: #0b0b0b" x="36.84" y="21.24" transform="rotate(-0 36.84 21.24)">Cost/run ($) by strategy — context mode</text>
   </g>
   <g id="LineCollection_1">
    <path d="M 77.78 260.982232 
L 77.78 224.868841 
" clip-path="url(#pe181fed15f)" style="fill: none; stroke: #898781; stroke-width: 0.9"/>
    <path d="M 170.825455 250.397349 
L 170.825455 246.326138 
" clip-path="url(#pe181fed15f)" style="fill: none; stroke: #898781; stroke-width: 0.9"/>
    <path d="M 263.870909 260.982232 
L 263.870909 231.014474 
" clip-path="url(#pe181fed15f)" style="fill: none; stroke: #898781; stroke-width: 0.9"/>
    <path d="M 356.916364 260.982232 
L 356.916364 249.697544 
" clip-path="url(#pe181fed15f)" style="fill: none; stroke: #898781; stroke-width: 0.9"/>
    <path d="M 449.961818 260.982232 
L 449.961818 252.320541 
" clip-path="url(#pe181fed15f)" style="fill: none; stroke: #898781; stroke-width: 0.9"/>
   </g>
   <g id="line2d_16">
    <defs>
     <path id="m71caf95240" d="M 2 0 
L -2 -0 
" style="stroke: #898781"/>
    </defs>
    <g clip-path="url(#pe181fed15f)">
     <use xlink:href="#m71caf95240" x="77.78" y="260.982232" style="fill: #1f77b4; stroke: #898781"/>
     <use xlink:href="#m71caf95240" x="170.825455" y="250.397349" style="fill: #1f77b4; stroke: #898781"/>
     <use xlink:href="#m71caf95240" x="263.870909" y="260.982232" style="fill: #1f77b4; stroke: #898781"/>
     <use xlink:href="#m71caf95240" x="356.916364" y="260.982232" style="fill: #1f77b4; stroke: #898781"/>
     <use xlink:href="#m71caf95240" x="449.961818" y="260.982232" style="fill: #1f77b4; stroke: #898781"/>
    </g>
   </g>
   <g id="line2d_17">
    <g clip-path="url(#pe181fed15f)">
     <use xlink:href="#m71caf95240" x="77.78" y="224.868841" style="fill: #1f77b4; stroke: #898781"/>
     <use xlink:href="#m71caf95240" x="170.825455" y="246.326138" style="fill: #1f77b4; stroke: #898781"/>
     <use xlink:href="#m71caf95240" x="263.870909" y="231.014474" style="fill: #1f77b4; stroke: #898781"/>
     <use xlink:href="#m71caf95240" x="356.916364" y="249.697544" style="fill: #1f77b4; stroke: #898781"/>
     <use xlink:href="#m71caf95240" x="449.961818" y="252.320541" style="fill: #1f77b4; stroke: #898781"/>
    </g>
   </g>
   <g id="LineCollection_2">
    <path d="M 114.998182 260.982232 
L 114.998182 51.703916 
" clip-path="url(#pe181fed15f)" style="fill: none; stroke: #898781; stroke-width: 0.9"/>
    <path d="M 208.043636 260.982232 
L 208.043636 220.610845 
" clip-path="url(#pe181fed15f)" style="fill: none; stroke: #898781; stroke-width: 0.9"/>
    <path d="M 301.089091 260.982232 
L 301.089091 92.437591 
" clip-path="url(#pe181fed15f)" style="fill: none; stroke: #898781; stroke-width: 0.9"/>
    <path d="M 394.134545 260.982232 
L 394.134545 176.940378 
" clip-path="url(#pe181fed15f)" style="fill: none; stroke: #898781; stroke-width: 0.9"/>
    <path d="M 487.18 260.982232 
L 487.18 237.700664 
" clip-path="url(#pe181fed15f)" style="fill: none; stroke: #898781; stroke-width: 0.9"/>
   </g>
   <g id="line2d_18">
    <g clip-path="url(#pe181fed15f)">
     <use xlink:href="#m71caf95240" x="114.998182" y="260.982232" style="fill: #1f77b4; stroke: #898781"/>
     <use xlink:href="#m71caf95240" x="208.043636" y="260.982232" style="fill: #1f77b4; stroke: #898781"/>
     <use xlink:href="#m71caf95240" x="301.089091" y="260.982232" style="fill: #1f77b4; stroke: #898781"/>
     <use xlink:href="#m71caf95240" x="394.134545" y="260.982232" style="fill: #1f77b4; stroke: #898781"/>
     <use xlink:href="#m71caf95240" x="487.18" y="260.982232" style="fill: #1f77b4; stroke: #898781"/>
    </g>
   </g>
   <g id="line2d_19">
    <g clip-path="url(#pe181fed15f)">
     <use xlink:href="#m71caf95240" x="114.998182" y="51.703916" style="fill: #1f77b4; stroke: #898781"/>
     <use xlink:href="#m71caf95240" x="208.043636" y="220.610845" style="fill: #1f77b4; stroke: #898781"/>
     <use xlink:href="#m71caf95240" x="301.089091" y="92.437591" style="fill: #1f77b4; stroke: #898781"/>
     <use xlink:href="#m71caf95240" x="394.134545" y="176.940378" style="fill: #1f77b4; stroke: #898781"/>
     <use xlink:href="#m71caf95240" x="487.18" y="237.700664" style="fill: #1f77b4; stroke: #898781"/>
    </g>
   </g>
   <g id="legend_1">
    <g id="patch_15">
     <path d="M 428.745938 56.178594 
L 446.745938 56.178594 
L 446.745938 49.878594 
L 428.745938 49.878594 
z
" style="fill: #898781"/>
    </g>
    <g id="text_14">
     <text style="font-size: 9px; font-family: 'DejaVu Sans', 'Bitstream Vera Sans', 'Computer Modern Sans Serif', 'Lucida Grande', 'Verdana', 'Geneva', 'Lucid', 'Arial', 'Helvetica', 'Avant Garde', sans-serif; text-anchor: start; fill: #0b0b0b" x="453.945938" y="56.178594" transform="rotate(-0 453.945938 56.178594)">metadata-only</text>
    </g>
    <g id="patch_16">
     <path d="M 428.745938 69.388906 
L 446.745938 69.388906 
L 446.745938 63.088906 
L 428.745938 63.088906 
z
" style="fill: url(#h6b55f31a3a)"/>
    </g>
    <g id="text_15">
     <text style="font-size: 9px; font-family: 'DejaVu Sans', 'Bitstream Vera Sans', 'Computer Modern Sans Serif', 'Lucida Grande', 'Verdana', 'Geneva', 'Lucid', 'Arial', 'Helvetica', 'Avant Garde', sans-serif; text-anchor: start; fill: #0b0b0b" x="453.945938" y="69.388906" transform="rotate(-0 453.945938 69.388906)">live-query</text>
    </g>
   </g>
  </g>
 </g>
 <defs>
  <clipPath id="pe181fed15f">
   <rect x="36.84" y="41.24" width="491.28" height="219.742232"/>
  </clipPath>
 </defs>
 <defs>
  <pattern id="hdd26934cf9" patternUnits="userSpaceOnUse" x="0" y="0" width="72" height="72">
   <rect x="0" y="0" width="73" height="73" fill="#c40d1e"/>
   <path d="M -36 36 
L 36 -36 
M -32 40 
L 40 -32 
M -28 44 
L 44 -28 
M -24 48 
L 48 -24 
M -20 52 
L 52 -20 
M -16 56 
L 56 -16 
M -12 60 
L 60 -12 
M -8 64 
L 64 -8 
M -4 68 
L 68 -4 
M 0 72 
L 72 0 
M 4 76 
L 76 4 
M 8 80 
L 80 8 
M 12 84 
L 84 12 
M 16 88 
L 88 16 
M 20 92 
L 92 20 
M 24 96 
L 96 24 
M 28 100 
L 100 28 
M 32 104 
L 104 32 
M 36 108 
L 108 36 
" style="fill: #ffffff; stroke: #ffffff; stroke-width: 0.5; stroke-linecap: butt; stroke-linejoin: miter"/>
  </pattern>
  <pattern id="hbb56a16824" patternUnits="userSpaceOnUse" x="0" y="0" width="72" height="72">
   <rect x="0" y="0" width="73" height="73" fill="#ff6c00"/>
   <path d="M -36 36 
L 36 -36 
M -32 40 
L 40 -32 
M -28 44 
L 44 -28 
M -24 48 
L 48 -24 
M -20 52 
L 52 -20 
M -16 56 
L 56 -16 
M -12 60 
L 60 -12 
M -8 64 
L 64 -8 
M -4 68 
L 68 -4 
M 0 72 
L 72 0 
M 4 76 
L 76 4 
M 8 80 
L 80 8 
M 12 84 
L 84 12 
M 16 88 
L 88 16 
M 20 92 
L 92 20 
M 24 96 
L 96 24 
M 28 100 
L 100 28 
M 32 104 
L 104 32 
M 36 108 
L 108 36 
" style="fill: #ffffff; stroke: #ffffff; stroke-width: 0.5; stroke-linecap: butt; stroke-linejoin: miter"/>
  </pattern>
  <pattern id="h084b90ed80" patternUnits="userSpaceOnUse" x="0" y="0" width="72" height="72">
   <rect x="0" y="0" width="73" height="73" fill="#e8a800"/>
   <path d="M -36 36 
L 36 -36 
M -32 40 
L 40 -32 
M -28 44 
L 44 -28 
M -24 48 
L 48 -24 
M -20 52 
L 52 -20 
M -16 56 
L 56 -16 
M -12 60 
L 60 -12 
M -8 64 
L 64 -8 
M -4 68 
L 68 -4 
M 0 72 
L 72 0 
M 4 76 
L 76 4 
M 8 80 
L 80 8 
M 12 84 
L 84 12 
M 16 88 
L 88 16 
M 20 92 
L 92 20 
M 24 96 
L 96 24 
M 28 100 
L 100 28 
M 32 104 
L 104 32 
M 36 108 
L 108 36 
" style="fill: #ffffff; stroke: #ffffff; stroke-width: 0.5; stroke-linecap: butt; stroke-linejoin: miter"/>
  </pattern>
  <pattern id="h0af8f40d16" patternUnits="userSpaceOnUse" x="0" y="0" width="72" height="72">
   <rect x="0" y="0" width="73" height="73" fill="#b5297a"/>
   <path d="M -36 36 
L 36 -36 
M -32 40 
L 40 -32 
M -28 44 
L 44 -28 
M -24 48 
L 48 -24 
M -20 52 
L 52 -20 
M -16 56 
L 56 -16 
M -12 60 
L 60 -12 
M -8 64 
L 64 -8 
M -4 68 
L 68 -4 
M 0 72 
L 72 0 
M 4 76 
L 76 4 
M 8 80 
L 80 8 
M 12 84 
L 84 12 
M 16 88 
L 88 16 
M 20 92 
L 92 20 
M 24 96 
L 96 24 
M 28 100 
L 100 28 
M 32 104 
L 104 32 
M 36 108 
L 108 36 
" style="fill: #ffffff; stroke: #ffffff; stroke-width: 0.5; stroke-linecap: butt; stroke-linejoin: miter"/>
  </pattern>
  <pattern id="h54fdfe7a00" patternUnits="userSpaceOnUse" x="0" y="0" width="72" height="72">
   <rect x="0" y="0" width="73" height="73" fill="#2f6fb0"/>
   <path d="M -36 36 
L 36 -36 
M -32 40 
L 40 -32 
M -28 44 
L 44 -28 
M -24 48 
L 48 -24 
M -20 52 
L 52 -20 
M -16 56 
L 56 -16 
M -12 60 
L 60 -12 
M -8 64 
L 64 -8 
M -4 68 
L 68 -4 
M 0 72 
L 72 0 
M 4 76 
L 76 4 
M 8 80 
L 80 8 
M 12 84 
L 84 12 
M 16 88 
L 88 16 
M 20 92 
L 92 20 
M 24 96 
L 96 24 
M 28 100 
L 100 28 
M 32 104 
L 104 32 
M 36 108 
L 108 36 
" style="fill: #ffffff; stroke: #ffffff; stroke-width: 0.5; stroke-linecap: butt; stroke-linejoin: miter"/>
  </pattern>
  <pattern id="h6b55f31a3a" patternUnits="userSpaceOnUse" x="0" y="0" width="72" height="72">
   <rect x="0" y="0" width="73" height="73" fill="#898781"/>
   <path d="M -36 36 
L 36 -36 
M -32 40 
L 40 -32 
M -28 44 
L 44 -28 
M -24 48 
L 48 -24 
M -20 52 
L 52 -20 
M -16 56 
L 56 -16 
M -12 60 
L 60 -12 
M -8 64 
L 64 -8 
M -4 68 
L 68 -4 
M 0 72 
L 72 0 
M 4 76 
L 76 4 
M 8 80 
L 80 8 
M 12 84 
L 84 12 
M 16 88 
L 88 16 
M 20 92 
L 92 20 
M 24 96 
L 96 24 
M 28 100 
L 100 28 
M 32 104 
L 104 32 
M 36 108 
L 108 36 
" style="fill: #ffffff; stroke: #ffffff; stroke-width: 0.5; stroke-linecap: butt; stroke-linejoin: miter"/>
  </pattern>
 </defs>
</svg>
